G04 #@! TF.GenerationSoftware,KiCad,Pcbnew,(5.0.0-rc2-200-g1f6f76beb)*
G04 #@! TF.CreationDate,2018-07-19T02:54:02+02:00*
G04 #@! TF.ProjectId,8-bit-bitwise-logic,382D6269742D626974776973652D6C6F,rev?*
G04 #@! TF.SameCoordinates,Original*
G04 #@! TF.FileFunction,Soldermask,Bot*
G04 #@! TF.FilePolarity,Negative*
%FSLAX46Y46*%
G04 Gerber Fmt 4.6, Leading zero omitted, Abs format (unit mm)*
G04 Created by KiCad (PCBNEW (5.0.0-rc2-200-g1f6f76beb)) date Thu Jul 19 02:54:02 2018*
%MOMM*%
%LPD*%
G01*
G04 APERTURE LIST*
%ADD10C,1.924000*%
%ADD11C,1.800000*%
%ADD12R,1.800000X1.800000*%
%ADD13O,1.800000X1.800000*%
%ADD14R,2.100000X2.100000*%
%ADD15O,2.100000X2.100000*%
%ADD16C,4.800000*%
G04 APERTURE END LIST*
D10*
G04 #@! TO.C,J7*
X218440000Y-53340000D03*
X218440000Y-55880000D03*
X215900000Y-55880000D03*
X215900000Y-53340000D03*
G04 #@! TD*
D11*
G04 #@! TO.C,Q20*
X154940000Y-91440000D03*
X152400000Y-91440000D03*
D12*
X157480000Y-91440000D03*
G04 #@! TD*
D11*
G04 #@! TO.C,Q7*
X175260000Y-86360000D03*
X172720000Y-86360000D03*
D12*
X177800000Y-86360000D03*
G04 #@! TD*
D11*
G04 #@! TO.C,Q1*
X185420000Y-86360000D03*
X182880000Y-86360000D03*
D12*
X187960000Y-86360000D03*
G04 #@! TD*
D11*
G04 #@! TO.C,Q2*
X185420000Y-91440000D03*
X182880000Y-91440000D03*
D12*
X187960000Y-91440000D03*
G04 #@! TD*
D11*
G04 #@! TO.C,Q3*
X185420000Y-96520000D03*
X182880000Y-96520000D03*
D12*
X187960000Y-96520000D03*
G04 #@! TD*
D11*
G04 #@! TO.C,Q4*
X185420000Y-101600000D03*
X182880000Y-101600000D03*
D12*
X187960000Y-101600000D03*
G04 #@! TD*
D11*
G04 #@! TO.C,Q5*
X185420000Y-106680000D03*
X182880000Y-106680000D03*
D12*
X187960000Y-106680000D03*
G04 #@! TD*
D11*
G04 #@! TO.C,Q6*
X185420000Y-111760000D03*
X182880000Y-111760000D03*
D12*
X187960000Y-111760000D03*
G04 #@! TD*
D11*
G04 #@! TO.C,Q8*
X175260000Y-91440000D03*
X172720000Y-91440000D03*
D12*
X177800000Y-91440000D03*
G04 #@! TD*
D11*
G04 #@! TO.C,Q9*
X175260000Y-96520000D03*
X172720000Y-96520000D03*
D12*
X177800000Y-96520000D03*
G04 #@! TD*
D11*
G04 #@! TO.C,Q10*
X175260000Y-101600000D03*
X172720000Y-101600000D03*
D12*
X177800000Y-101600000D03*
G04 #@! TD*
D11*
G04 #@! TO.C,Q11*
X175260000Y-106680000D03*
X172720000Y-106680000D03*
D12*
X177800000Y-106680000D03*
G04 #@! TD*
D11*
G04 #@! TO.C,Q12*
X175260000Y-111760000D03*
X172720000Y-111760000D03*
D12*
X177800000Y-111760000D03*
G04 #@! TD*
D11*
G04 #@! TO.C,Q13*
X165100000Y-86360000D03*
X162560000Y-86360000D03*
D12*
X167640000Y-86360000D03*
G04 #@! TD*
D11*
G04 #@! TO.C,Q14*
X165100000Y-91440000D03*
X162560000Y-91440000D03*
D12*
X167640000Y-91440000D03*
G04 #@! TD*
D11*
G04 #@! TO.C,Q15*
X165100000Y-96520000D03*
X162560000Y-96520000D03*
D12*
X167640000Y-96520000D03*
G04 #@! TD*
D11*
G04 #@! TO.C,Q16*
X165100000Y-101600000D03*
X162560000Y-101600000D03*
D12*
X167640000Y-101600000D03*
G04 #@! TD*
D11*
G04 #@! TO.C,Q17*
X165100000Y-106680000D03*
X162560000Y-106680000D03*
D12*
X167640000Y-106680000D03*
G04 #@! TD*
D11*
G04 #@! TO.C,Q18*
X165100000Y-111760000D03*
X162560000Y-111760000D03*
D12*
X167640000Y-111760000D03*
G04 #@! TD*
D11*
G04 #@! TO.C,Q19*
X154940000Y-86360000D03*
X152400000Y-86360000D03*
D12*
X157480000Y-86360000D03*
G04 #@! TD*
D11*
G04 #@! TO.C,Q21*
X154940000Y-96520000D03*
X152400000Y-96520000D03*
D12*
X157480000Y-96520000D03*
G04 #@! TD*
D11*
G04 #@! TO.C,Q22*
X154940000Y-101600000D03*
X152400000Y-101600000D03*
D12*
X157480000Y-101600000D03*
G04 #@! TD*
D11*
G04 #@! TO.C,Q23*
X154940000Y-106680000D03*
X152400000Y-106680000D03*
D12*
X157480000Y-106680000D03*
G04 #@! TD*
D11*
G04 #@! TO.C,Q24*
X154940000Y-111760000D03*
X152400000Y-111760000D03*
D12*
X157480000Y-111760000D03*
G04 #@! TD*
D11*
G04 #@! TO.C,Q25*
X144780000Y-86360000D03*
X142240000Y-86360000D03*
D12*
X147320000Y-86360000D03*
G04 #@! TD*
D11*
G04 #@! TO.C,Q26*
X144780000Y-91440000D03*
X142240000Y-91440000D03*
D12*
X147320000Y-91440000D03*
G04 #@! TD*
D11*
G04 #@! TO.C,Q27*
X144780000Y-96520000D03*
X142240000Y-96520000D03*
D12*
X147320000Y-96520000D03*
G04 #@! TD*
D11*
G04 #@! TO.C,Q28*
X144780000Y-101600000D03*
X142240000Y-101600000D03*
D12*
X147320000Y-101600000D03*
G04 #@! TD*
D11*
G04 #@! TO.C,Q29*
X144780000Y-106680000D03*
X142240000Y-106680000D03*
D12*
X147320000Y-106680000D03*
G04 #@! TD*
D11*
G04 #@! TO.C,Q30*
X144780000Y-111760000D03*
X142240000Y-111760000D03*
D12*
X147320000Y-111760000D03*
G04 #@! TD*
D11*
G04 #@! TO.C,Q31*
X134620000Y-86360000D03*
X132080000Y-86360000D03*
D12*
X137160000Y-86360000D03*
G04 #@! TD*
D11*
G04 #@! TO.C,Q32*
X134620000Y-91440000D03*
X132080000Y-91440000D03*
D12*
X137160000Y-91440000D03*
G04 #@! TD*
D11*
G04 #@! TO.C,Q33*
X134620000Y-96520000D03*
X132080000Y-96520000D03*
D12*
X137160000Y-96520000D03*
G04 #@! TD*
D11*
G04 #@! TO.C,Q34*
X134620000Y-101600000D03*
X132080000Y-101600000D03*
D12*
X137160000Y-101600000D03*
G04 #@! TD*
D11*
G04 #@! TO.C,Q35*
X134620000Y-106680000D03*
X132080000Y-106680000D03*
D12*
X137160000Y-106680000D03*
G04 #@! TD*
D11*
G04 #@! TO.C,Q36*
X134620000Y-111760000D03*
X132080000Y-111760000D03*
D12*
X137160000Y-111760000D03*
G04 #@! TD*
D11*
G04 #@! TO.C,Q37*
X124460000Y-86360000D03*
X121920000Y-86360000D03*
D12*
X127000000Y-86360000D03*
G04 #@! TD*
D11*
G04 #@! TO.C,Q38*
X124460000Y-91440000D03*
X121920000Y-91440000D03*
D12*
X127000000Y-91440000D03*
G04 #@! TD*
D11*
G04 #@! TO.C,Q39*
X124460000Y-96520000D03*
X121920000Y-96520000D03*
D12*
X127000000Y-96520000D03*
G04 #@! TD*
D11*
G04 #@! TO.C,Q40*
X124460000Y-101600000D03*
X121920000Y-101600000D03*
D12*
X127000000Y-101600000D03*
G04 #@! TD*
D11*
G04 #@! TO.C,Q41*
X124460000Y-106680000D03*
X121920000Y-106680000D03*
D12*
X127000000Y-106680000D03*
G04 #@! TD*
D11*
G04 #@! TO.C,Q42*
X124460000Y-111760000D03*
X121920000Y-111760000D03*
D12*
X127000000Y-111760000D03*
G04 #@! TD*
D11*
G04 #@! TO.C,Q43*
X114300000Y-86360000D03*
X111760000Y-86360000D03*
D12*
X116840000Y-86360000D03*
G04 #@! TD*
D11*
G04 #@! TO.C,Q44*
X114300000Y-91440000D03*
X111760000Y-91440000D03*
D12*
X116840000Y-91440000D03*
G04 #@! TD*
D11*
G04 #@! TO.C,Q45*
X114300000Y-96520000D03*
X111760000Y-96520000D03*
D12*
X116840000Y-96520000D03*
G04 #@! TD*
D11*
G04 #@! TO.C,Q46*
X114300000Y-101600000D03*
X111760000Y-101600000D03*
D12*
X116840000Y-101600000D03*
G04 #@! TD*
D11*
G04 #@! TO.C,Q47*
X114300000Y-106680000D03*
X111760000Y-106680000D03*
D12*
X116840000Y-106680000D03*
G04 #@! TD*
D11*
G04 #@! TO.C,Q48*
X114300000Y-111760000D03*
X111760000Y-111760000D03*
D12*
X116840000Y-111760000D03*
G04 #@! TD*
D11*
G04 #@! TO.C,R1*
X99060000Y-91440000D03*
D13*
X99060000Y-86360000D03*
G04 #@! TD*
D11*
G04 #@! TO.C,R2*
X81280000Y-99060000D03*
D13*
X81280000Y-93980000D03*
G04 #@! TD*
D11*
G04 #@! TO.C,R3*
X180340000Y-90170000D03*
D13*
X180340000Y-85090000D03*
G04 #@! TD*
D11*
G04 #@! TO.C,R4*
X180340000Y-92710000D03*
D13*
X180340000Y-97790000D03*
G04 #@! TD*
D11*
G04 #@! TO.C,R5*
X180340000Y-105410000D03*
D13*
X180340000Y-100330000D03*
G04 #@! TD*
D11*
G04 #@! TO.C,R6*
X180340000Y-107950000D03*
D13*
X180340000Y-113030000D03*
G04 #@! TD*
D11*
G04 #@! TO.C,R7*
X96520000Y-91440000D03*
D13*
X96520000Y-86360000D03*
G04 #@! TD*
D11*
G04 #@! TO.C,R8*
X83820000Y-99060000D03*
D13*
X83820000Y-93980000D03*
G04 #@! TD*
D11*
G04 #@! TO.C,R9*
X170180000Y-90170000D03*
D13*
X170180000Y-85090000D03*
G04 #@! TD*
D11*
G04 #@! TO.C,R10*
X170180000Y-92710000D03*
D13*
X170180000Y-97790000D03*
G04 #@! TD*
D11*
G04 #@! TO.C,R11*
X170180000Y-105410000D03*
D13*
X170180000Y-100330000D03*
G04 #@! TD*
D11*
G04 #@! TO.C,R12*
X170180000Y-107950000D03*
D13*
X170180000Y-113030000D03*
G04 #@! TD*
D11*
G04 #@! TO.C,R13*
X93980000Y-91440000D03*
D13*
X93980000Y-86360000D03*
G04 #@! TD*
D11*
G04 #@! TO.C,R14*
X86360000Y-99060000D03*
D13*
X86360000Y-93980000D03*
G04 #@! TD*
D11*
G04 #@! TO.C,R15*
X160020000Y-90170000D03*
D13*
X160020000Y-85090000D03*
G04 #@! TD*
D11*
G04 #@! TO.C,R16*
X160020000Y-92710000D03*
D13*
X160020000Y-97790000D03*
G04 #@! TD*
D11*
G04 #@! TO.C,R17*
X160020000Y-105410000D03*
D13*
X160020000Y-100330000D03*
G04 #@! TD*
D11*
G04 #@! TO.C,R18*
X160020000Y-107950000D03*
D13*
X160020000Y-113030000D03*
G04 #@! TD*
D11*
G04 #@! TO.C,R19*
X91440000Y-91440000D03*
D13*
X91440000Y-86360000D03*
G04 #@! TD*
D11*
G04 #@! TO.C,R20*
X88900000Y-99060000D03*
D13*
X88900000Y-93980000D03*
G04 #@! TD*
D11*
G04 #@! TO.C,R21*
X149860000Y-90170000D03*
D13*
X149860000Y-85090000D03*
G04 #@! TD*
D11*
G04 #@! TO.C,R22*
X149860000Y-92710000D03*
D13*
X149860000Y-97790000D03*
G04 #@! TD*
D11*
G04 #@! TO.C,R23*
X149860000Y-105410000D03*
D13*
X149860000Y-100330000D03*
G04 #@! TD*
D11*
G04 #@! TO.C,R24*
X149860000Y-107950000D03*
D13*
X149860000Y-113030000D03*
G04 #@! TD*
D11*
G04 #@! TO.C,R25*
X88900000Y-91440000D03*
D13*
X88900000Y-86360000D03*
G04 #@! TD*
D11*
G04 #@! TO.C,R26*
X91440000Y-99060000D03*
D13*
X91440000Y-93980000D03*
G04 #@! TD*
D11*
G04 #@! TO.C,R27*
X139700000Y-90170000D03*
D13*
X139700000Y-85090000D03*
G04 #@! TD*
D11*
G04 #@! TO.C,R28*
X139700000Y-92710000D03*
D13*
X139700000Y-97790000D03*
G04 #@! TD*
D11*
G04 #@! TO.C,R29*
X139700000Y-105410000D03*
D13*
X139700000Y-100330000D03*
G04 #@! TD*
D11*
G04 #@! TO.C,R30*
X139700000Y-107950000D03*
D13*
X139700000Y-113030000D03*
G04 #@! TD*
D11*
G04 #@! TO.C,R31*
X86360000Y-91440000D03*
D13*
X86360000Y-86360000D03*
G04 #@! TD*
D11*
G04 #@! TO.C,R32*
X93980000Y-99060000D03*
D13*
X93980000Y-93980000D03*
G04 #@! TD*
D11*
G04 #@! TO.C,R33*
X129540000Y-90170000D03*
D13*
X129540000Y-85090000D03*
G04 #@! TD*
D11*
G04 #@! TO.C,R34*
X129540000Y-92710000D03*
D13*
X129540000Y-97790000D03*
G04 #@! TD*
D11*
G04 #@! TO.C,R35*
X129540000Y-105410000D03*
D13*
X129540000Y-100330000D03*
G04 #@! TD*
D11*
G04 #@! TO.C,R36*
X129540000Y-107950000D03*
D13*
X129540000Y-113030000D03*
G04 #@! TD*
D11*
G04 #@! TO.C,R37*
X83820000Y-91440000D03*
D13*
X83820000Y-86360000D03*
G04 #@! TD*
D11*
G04 #@! TO.C,R38*
X96520000Y-99060000D03*
D13*
X96520000Y-93980000D03*
G04 #@! TD*
D11*
G04 #@! TO.C,R39*
X119380000Y-90170000D03*
D13*
X119380000Y-85090000D03*
G04 #@! TD*
D11*
G04 #@! TO.C,R40*
X119380000Y-92710000D03*
D13*
X119380000Y-97790000D03*
G04 #@! TD*
D11*
G04 #@! TO.C,R41*
X119380000Y-105410000D03*
D13*
X119380000Y-100330000D03*
G04 #@! TD*
D11*
G04 #@! TO.C,R42*
X119380000Y-107950000D03*
D13*
X119380000Y-113030000D03*
G04 #@! TD*
D11*
G04 #@! TO.C,R43*
X81280000Y-91440000D03*
D13*
X81280000Y-86360000D03*
G04 #@! TD*
D11*
G04 #@! TO.C,R44*
X99060000Y-99060000D03*
D13*
X99060000Y-93980000D03*
G04 #@! TD*
D11*
G04 #@! TO.C,R45*
X109220000Y-90170000D03*
D13*
X109220000Y-85090000D03*
G04 #@! TD*
D11*
G04 #@! TO.C,R46*
X109220000Y-92710000D03*
D13*
X109220000Y-97790000D03*
G04 #@! TD*
D11*
G04 #@! TO.C,R47*
X109220000Y-105410000D03*
D13*
X109220000Y-100330000D03*
G04 #@! TD*
D11*
G04 #@! TO.C,R48*
X109220000Y-107950000D03*
D13*
X109220000Y-113030000D03*
G04 #@! TD*
D14*
G04 #@! TO.C,JP1*
X218440000Y-50800000D03*
D15*
X215900000Y-50800000D03*
G04 #@! TD*
D11*
G04 #@! TO.C,J1*
X81280000Y-45720000D03*
X83820000Y-45720000D03*
X86360000Y-45720000D03*
X88900000Y-45720000D03*
X91440000Y-45720000D03*
X93980000Y-45720000D03*
X96520000Y-45720000D03*
X99060000Y-45720000D03*
X99060000Y-43180000D03*
X96520000Y-43180000D03*
X93980000Y-43180000D03*
X91440000Y-43180000D03*
X88900000Y-43180000D03*
X86360000Y-43180000D03*
X83820000Y-43180000D03*
X81280000Y-43180000D03*
G04 #@! TD*
G04 #@! TO.C,J2*
X104140000Y-43180000D03*
X106680000Y-43180000D03*
X109220000Y-43180000D03*
X111760000Y-43180000D03*
X114300000Y-43180000D03*
X116840000Y-43180000D03*
X119380000Y-43180000D03*
X121920000Y-43180000D03*
X121920000Y-45720000D03*
X119380000Y-45720000D03*
X116840000Y-45720000D03*
X114300000Y-45720000D03*
X111760000Y-45720000D03*
X109220000Y-45720000D03*
X106680000Y-45720000D03*
X104140000Y-45720000D03*
G04 #@! TD*
G04 #@! TO.C,J3*
X127000000Y-45720000D03*
X129540000Y-45720000D03*
X132080000Y-45720000D03*
X134620000Y-45720000D03*
X137160000Y-45720000D03*
X139700000Y-45720000D03*
X142240000Y-45720000D03*
X144780000Y-45720000D03*
X144780000Y-43180000D03*
X142240000Y-43180000D03*
X139700000Y-43180000D03*
X137160000Y-43180000D03*
X134620000Y-43180000D03*
X132080000Y-43180000D03*
X129540000Y-43180000D03*
X127000000Y-43180000D03*
G04 #@! TD*
G04 #@! TO.C,J4*
X149860000Y-43180000D03*
X152400000Y-43180000D03*
X154940000Y-43180000D03*
X157480000Y-43180000D03*
X160020000Y-43180000D03*
X162560000Y-43180000D03*
X165100000Y-43180000D03*
X167640000Y-43180000D03*
X167640000Y-45720000D03*
X165100000Y-45720000D03*
X162560000Y-45720000D03*
X160020000Y-45720000D03*
X157480000Y-45720000D03*
X154940000Y-45720000D03*
X152400000Y-45720000D03*
X149860000Y-45720000D03*
G04 #@! TD*
G04 #@! TO.C,J5*
X172720000Y-45720000D03*
X175260000Y-45720000D03*
X177800000Y-45720000D03*
X180340000Y-45720000D03*
X182880000Y-45720000D03*
X185420000Y-45720000D03*
X187960000Y-45720000D03*
X190500000Y-45720000D03*
X190500000Y-43180000D03*
X187960000Y-43180000D03*
X185420000Y-43180000D03*
X182880000Y-43180000D03*
X180340000Y-43180000D03*
X177800000Y-43180000D03*
X175260000Y-43180000D03*
X172720000Y-43180000D03*
G04 #@! TD*
G04 #@! TO.C,J6*
X195580000Y-43180000D03*
X198120000Y-43180000D03*
X200660000Y-43180000D03*
X203200000Y-43180000D03*
X205740000Y-43180000D03*
X208280000Y-43180000D03*
X210820000Y-43180000D03*
X213360000Y-43180000D03*
X213360000Y-45720000D03*
X210820000Y-45720000D03*
X208280000Y-45720000D03*
X205740000Y-45720000D03*
X203200000Y-45720000D03*
X200660000Y-45720000D03*
X198120000Y-45720000D03*
X195580000Y-45720000D03*
G04 #@! TD*
D16*
G04 #@! TO.C,REF\002A\002A*
X217170000Y-69850000D03*
G04 #@! TD*
G04 #@! TO.C,REF\002A\002A*
X217170000Y-111760000D03*
G04 #@! TD*
G04 #@! TO.C,REF\002A\002A*
X81280000Y-111760000D03*
G04 #@! TD*
G04 #@! TO.C,REF\002A\002A*
X81280000Y-69850000D03*
G04 #@! TD*
M02*
