G04 #@! TF.GenerationSoftware,KiCad,Pcbnew,(5.0.0-rc2-200-g1f6f76beb)*
G04 #@! TF.CreationDate,2018-07-19T02:54:02+02:00*
G04 #@! TF.ProjectId,8-bit-bitwise-logic,382D6269742D626974776973652D6C6F,rev?*
G04 #@! TF.SameCoordinates,Original*
G04 #@! TF.FileFunction,Copper,L1,Top,Signal*
G04 #@! TF.FilePolarity,Positive*
%FSLAX46Y46*%
G04 Gerber Fmt 4.6, Leading zero omitted, Abs format (unit mm)*
G04 Created by KiCad (PCBNEW (5.0.0-rc2-200-g1f6f76beb)) date Thu Jul 19 02:54:02 2018*
%MOMM*%
%LPD*%
G01*
G04 APERTURE LIST*
G04 #@! TA.AperFunction,NonConductor*
%ADD10C,0.200000*%
G04 #@! TD*
G04 #@! TA.AperFunction,NonConductor*
%ADD11C,0.250000*%
G04 #@! TD*
G04 #@! TA.AperFunction,ComponentPad*
%ADD12C,1.524000*%
G04 #@! TD*
G04 #@! TA.AperFunction,ComponentPad*
%ADD13C,1.400000*%
G04 #@! TD*
G04 #@! TA.AperFunction,ComponentPad*
%ADD14R,1.400000X1.400000*%
G04 #@! TD*
G04 #@! TA.AperFunction,ComponentPad*
%ADD15O,1.400000X1.400000*%
G04 #@! TD*
G04 #@! TA.AperFunction,SMDPad,CuDef*
%ADD16R,1.320000X1.520000*%
G04 #@! TD*
G04 #@! TA.AperFunction,ComponentPad*
%ADD17R,1.700000X1.700000*%
G04 #@! TD*
G04 #@! TA.AperFunction,ComponentPad*
%ADD18O,1.700000X1.700000*%
G04 #@! TD*
G04 #@! TA.AperFunction,SMDPad,CuDef*
%ADD19C,0.300000*%
G04 #@! TD*
G04 #@! TA.AperFunction,Conductor*
%ADD20C,0.100000*%
G04 #@! TD*
G04 #@! TA.AperFunction,SMDPad,CuDef*
%ADD21R,0.800000X1.900000*%
G04 #@! TD*
G04 #@! TA.AperFunction,SMDPad,CuDef*
%ADD22R,1.400000X1.295000*%
G04 #@! TD*
G04 #@! TA.AperFunction,ComponentPad*
%ADD23C,4.400000*%
G04 #@! TD*
G04 #@! TA.AperFunction,ViaPad*
%ADD24C,0.600000*%
G04 #@! TD*
G04 #@! TA.AperFunction,Conductor*
%ADD25C,0.250000*%
G04 #@! TD*
G04 APERTURE END LIST*
D10*
X192138095Y-112212380D02*
X192138095Y-111212380D01*
X192519047Y-111212380D01*
X192614285Y-111260000D01*
X192661904Y-111307619D01*
X192709523Y-111402857D01*
X192709523Y-111545714D01*
X192661904Y-111640952D01*
X192614285Y-111688571D01*
X192519047Y-111736190D01*
X192138095Y-111736190D01*
X193138095Y-112212380D02*
X193138095Y-111545714D01*
X193138095Y-111736190D02*
X193185714Y-111640952D01*
X193233333Y-111593333D01*
X193328571Y-111545714D01*
X193423809Y-111545714D01*
X193900000Y-112212380D02*
X193804761Y-112164761D01*
X193757142Y-112117142D01*
X193709523Y-112021904D01*
X193709523Y-111736190D01*
X193757142Y-111640952D01*
X193804761Y-111593333D01*
X193900000Y-111545714D01*
X194042857Y-111545714D01*
X194138095Y-111593333D01*
X194185714Y-111640952D01*
X194233333Y-111736190D01*
X194233333Y-112021904D01*
X194185714Y-112117142D01*
X194138095Y-112164761D01*
X194042857Y-112212380D01*
X193900000Y-112212380D01*
X195090476Y-112212380D02*
X195090476Y-111212380D01*
X195090476Y-112164761D02*
X194995238Y-112212380D01*
X194804761Y-112212380D01*
X194709523Y-112164761D01*
X194661904Y-112117142D01*
X194614285Y-112021904D01*
X194614285Y-111736190D01*
X194661904Y-111640952D01*
X194709523Y-111593333D01*
X194804761Y-111545714D01*
X194995238Y-111545714D01*
X195090476Y-111593333D01*
X195995238Y-111545714D02*
X195995238Y-112212380D01*
X195566666Y-111545714D02*
X195566666Y-112069523D01*
X195614285Y-112164761D01*
X195709523Y-112212380D01*
X195852380Y-112212380D01*
X195947619Y-112164761D01*
X195995238Y-112117142D01*
X196900000Y-112164761D02*
X196804761Y-112212380D01*
X196614285Y-112212380D01*
X196519047Y-112164761D01*
X196471428Y-112117142D01*
X196423809Y-112021904D01*
X196423809Y-111736190D01*
X196471428Y-111640952D01*
X196519047Y-111593333D01*
X196614285Y-111545714D01*
X196804761Y-111545714D01*
X196900000Y-111593333D01*
X197185714Y-111545714D02*
X197566666Y-111545714D01*
X197328571Y-111212380D02*
X197328571Y-112069523D01*
X197376190Y-112164761D01*
X197471428Y-112212380D01*
X197566666Y-112212380D01*
X197900000Y-112212380D02*
X197900000Y-111545714D01*
X197900000Y-111212380D02*
X197852380Y-111260000D01*
X197900000Y-111307619D01*
X197947619Y-111260000D01*
X197900000Y-111212380D01*
X197900000Y-111307619D01*
X198519047Y-112212380D02*
X198423809Y-112164761D01*
X198376190Y-112117142D01*
X198328571Y-112021904D01*
X198328571Y-111736190D01*
X198376190Y-111640952D01*
X198423809Y-111593333D01*
X198519047Y-111545714D01*
X198661904Y-111545714D01*
X198757142Y-111593333D01*
X198804761Y-111640952D01*
X198852380Y-111736190D01*
X198852380Y-112021904D01*
X198804761Y-112117142D01*
X198757142Y-112164761D01*
X198661904Y-112212380D01*
X198519047Y-112212380D01*
X199280952Y-111545714D02*
X199280952Y-112212380D01*
X199280952Y-111640952D02*
X199328571Y-111593333D01*
X199423809Y-111545714D01*
X199566666Y-111545714D01*
X199661904Y-111593333D01*
X199709523Y-111688571D01*
X199709523Y-112212380D01*
X200185714Y-112117142D02*
X200233333Y-112164761D01*
X200185714Y-112212380D01*
X200138095Y-112164761D01*
X200185714Y-112117142D01*
X200185714Y-112212380D01*
X200185714Y-111593333D02*
X200233333Y-111640952D01*
X200185714Y-111688571D01*
X200138095Y-111640952D01*
X200185714Y-111593333D01*
X200185714Y-111688571D01*
X201423809Y-112212380D02*
X201423809Y-111212380D01*
X201852380Y-112212380D02*
X201852380Y-111688571D01*
X201804761Y-111593333D01*
X201709523Y-111545714D01*
X201566666Y-111545714D01*
X201471428Y-111593333D01*
X201423809Y-111640952D01*
X202185714Y-111545714D02*
X202566666Y-111545714D01*
X202328571Y-111212380D02*
X202328571Y-112069523D01*
X202376190Y-112164761D01*
X202471428Y-112212380D01*
X202566666Y-112212380D01*
X202757142Y-111545714D02*
X203138095Y-111545714D01*
X202900000Y-111212380D02*
X202900000Y-112069523D01*
X202947619Y-112164761D01*
X203042857Y-112212380D01*
X203138095Y-112212380D01*
X203471428Y-111545714D02*
X203471428Y-112545714D01*
X203471428Y-111593333D02*
X203566666Y-111545714D01*
X203757142Y-111545714D01*
X203852380Y-111593333D01*
X203900000Y-111640952D01*
X203947619Y-111736190D01*
X203947619Y-112021904D01*
X203900000Y-112117142D01*
X203852380Y-112164761D01*
X203757142Y-112212380D01*
X203566666Y-112212380D01*
X203471428Y-112164761D01*
X204328571Y-112164761D02*
X204423809Y-112212380D01*
X204614285Y-112212380D01*
X204709523Y-112164761D01*
X204757142Y-112069523D01*
X204757142Y-112021904D01*
X204709523Y-111926666D01*
X204614285Y-111879047D01*
X204471428Y-111879047D01*
X204376190Y-111831428D01*
X204328571Y-111736190D01*
X204328571Y-111688571D01*
X204376190Y-111593333D01*
X204471428Y-111545714D01*
X204614285Y-111545714D01*
X204709523Y-111593333D01*
X205185714Y-112117142D02*
X205233333Y-112164761D01*
X205185714Y-112212380D01*
X205138095Y-112164761D01*
X205185714Y-112117142D01*
X205185714Y-112212380D01*
X205185714Y-111593333D02*
X205233333Y-111640952D01*
X205185714Y-111688571D01*
X205138095Y-111640952D01*
X205185714Y-111593333D01*
X205185714Y-111688571D01*
X206376190Y-111164761D02*
X205519047Y-112450476D01*
X207423809Y-111164761D02*
X206566666Y-112450476D01*
X207757142Y-112212380D02*
X207757142Y-111212380D01*
X208138095Y-111212380D01*
X208233333Y-111260000D01*
X208280952Y-111307619D01*
X208328571Y-111402857D01*
X208328571Y-111545714D01*
X208280952Y-111640952D01*
X208233333Y-111688571D01*
X208138095Y-111736190D01*
X207757142Y-111736190D01*
X209328571Y-112117142D02*
X209280952Y-112164761D01*
X209138095Y-112212380D01*
X209042857Y-112212380D01*
X208900000Y-112164761D01*
X208804761Y-112069523D01*
X208757142Y-111974285D01*
X208709523Y-111783809D01*
X208709523Y-111640952D01*
X208757142Y-111450476D01*
X208804761Y-111355238D01*
X208900000Y-111260000D01*
X209042857Y-111212380D01*
X209138095Y-111212380D01*
X209280952Y-111260000D01*
X209328571Y-111307619D01*
X210090476Y-111688571D02*
X210233333Y-111736190D01*
X210280952Y-111783809D01*
X210328571Y-111879047D01*
X210328571Y-112021904D01*
X210280952Y-112117142D01*
X210233333Y-112164761D01*
X210138095Y-112212380D01*
X209757142Y-112212380D01*
X209757142Y-111212380D01*
X210090476Y-111212380D01*
X210185714Y-111260000D01*
X210233333Y-111307619D01*
X210280952Y-111402857D01*
X210280952Y-111498095D01*
X210233333Y-111593333D01*
X210185714Y-111640952D01*
X210090476Y-111688571D01*
X209757142Y-111688571D01*
X210709523Y-112164761D02*
X210804761Y-112212380D01*
X210995238Y-112212380D01*
X211090476Y-112164761D01*
X211138095Y-112069523D01*
X211138095Y-112021904D01*
X211090476Y-111926666D01*
X210995238Y-111879047D01*
X210852380Y-111879047D01*
X210757142Y-111831428D01*
X210709523Y-111736190D01*
X210709523Y-111688571D01*
X210757142Y-111593333D01*
X210852380Y-111545714D01*
X210995238Y-111545714D01*
X211090476Y-111593333D01*
X211566666Y-112117142D02*
X211614285Y-112164761D01*
X211566666Y-112212380D01*
X211519047Y-112164761D01*
X211566666Y-112117142D01*
X211566666Y-112212380D01*
X212042857Y-112212380D02*
X212042857Y-111545714D01*
X212042857Y-111212380D02*
X211995238Y-111260000D01*
X212042857Y-111307619D01*
X212090476Y-111260000D01*
X212042857Y-111212380D01*
X212042857Y-111307619D01*
X212661904Y-112212380D02*
X212566666Y-112164761D01*
X212519047Y-112117142D01*
X212471428Y-112021904D01*
X212471428Y-111736190D01*
X212519047Y-111640952D01*
X212566666Y-111593333D01*
X212661904Y-111545714D01*
X212804761Y-111545714D01*
X212900000Y-111593333D01*
X212947619Y-111640952D01*
X212995238Y-111736190D01*
X212995238Y-112021904D01*
X212947619Y-112117142D01*
X212900000Y-112164761D01*
X212804761Y-112212380D01*
X212661904Y-112212380D01*
D11*
X192389642Y-86517142D02*
X192275357Y-86460000D01*
X192218214Y-86402857D01*
X192161071Y-86288571D01*
X192161071Y-86231428D01*
X192218214Y-86117142D01*
X192275357Y-86060000D01*
X192389642Y-86002857D01*
X192618214Y-86002857D01*
X192732500Y-86060000D01*
X192789642Y-86117142D01*
X192846785Y-86231428D01*
X192846785Y-86288571D01*
X192789642Y-86402857D01*
X192732500Y-86460000D01*
X192618214Y-86517142D01*
X192389642Y-86517142D01*
X192275357Y-86574285D01*
X192218214Y-86631428D01*
X192161071Y-86745714D01*
X192161071Y-86974285D01*
X192218214Y-87088571D01*
X192275357Y-87145714D01*
X192389642Y-87202857D01*
X192618214Y-87202857D01*
X192732500Y-87145714D01*
X192789642Y-87088571D01*
X192846785Y-86974285D01*
X192846785Y-86745714D01*
X192789642Y-86631428D01*
X192732500Y-86574285D01*
X192618214Y-86517142D01*
X193361071Y-86745714D02*
X194275357Y-86745714D01*
X194846785Y-87202857D02*
X194846785Y-86002857D01*
X194846785Y-86460000D02*
X194961071Y-86402857D01*
X195189642Y-86402857D01*
X195303928Y-86460000D01*
X195361071Y-86517142D01*
X195418214Y-86631428D01*
X195418214Y-86974285D01*
X195361071Y-87088571D01*
X195303928Y-87145714D01*
X195189642Y-87202857D01*
X194961071Y-87202857D01*
X194846785Y-87145714D01*
X195932500Y-87202857D02*
X195932500Y-86402857D01*
X195932500Y-86002857D02*
X195875357Y-86060000D01*
X195932500Y-86117142D01*
X195989642Y-86060000D01*
X195932500Y-86002857D01*
X195932500Y-86117142D01*
X196332500Y-86402857D02*
X196789642Y-86402857D01*
X196503928Y-86002857D02*
X196503928Y-87031428D01*
X196561071Y-87145714D01*
X196675357Y-87202857D01*
X196789642Y-87202857D01*
X198103928Y-87202857D02*
X198103928Y-86002857D01*
X198103928Y-86460000D02*
X198218214Y-86402857D01*
X198446785Y-86402857D01*
X198561071Y-86460000D01*
X198618214Y-86517142D01*
X198675357Y-86631428D01*
X198675357Y-86974285D01*
X198618214Y-87088571D01*
X198561071Y-87145714D01*
X198446785Y-87202857D01*
X198218214Y-87202857D01*
X198103928Y-87145714D01*
X199189642Y-87202857D02*
X199189642Y-86402857D01*
X199189642Y-86002857D02*
X199132500Y-86060000D01*
X199189642Y-86117142D01*
X199246785Y-86060000D01*
X199189642Y-86002857D01*
X199189642Y-86117142D01*
X199589642Y-86402857D02*
X200046785Y-86402857D01*
X199761071Y-86002857D02*
X199761071Y-87031428D01*
X199818214Y-87145714D01*
X199932500Y-87202857D01*
X200046785Y-87202857D01*
X200332500Y-86402857D02*
X200561071Y-87202857D01*
X200789642Y-86631428D01*
X201018214Y-87202857D01*
X201246785Y-86402857D01*
X201703928Y-87202857D02*
X201703928Y-86402857D01*
X201703928Y-86002857D02*
X201646785Y-86060000D01*
X201703928Y-86117142D01*
X201761071Y-86060000D01*
X201703928Y-86002857D01*
X201703928Y-86117142D01*
X202218214Y-87145714D02*
X202332500Y-87202857D01*
X202561071Y-87202857D01*
X202675357Y-87145714D01*
X202732500Y-87031428D01*
X202732500Y-86974285D01*
X202675357Y-86860000D01*
X202561071Y-86802857D01*
X202389642Y-86802857D01*
X202275357Y-86745714D01*
X202218214Y-86631428D01*
X202218214Y-86574285D01*
X202275357Y-86460000D01*
X202389642Y-86402857D01*
X202561071Y-86402857D01*
X202675357Y-86460000D01*
X203703928Y-87145714D02*
X203589642Y-87202857D01*
X203361071Y-87202857D01*
X203246785Y-87145714D01*
X203189642Y-87031428D01*
X203189642Y-86574285D01*
X203246785Y-86460000D01*
X203361071Y-86402857D01*
X203589642Y-86402857D01*
X203703928Y-86460000D01*
X203761071Y-86574285D01*
X203761071Y-86688571D01*
X203189642Y-86802857D01*
X205361071Y-87202857D02*
X205246785Y-87145714D01*
X205189642Y-87031428D01*
X205189642Y-86002857D01*
X205989642Y-87202857D02*
X205875357Y-87145714D01*
X205818214Y-87088571D01*
X205761071Y-86974285D01*
X205761071Y-86631428D01*
X205818214Y-86517142D01*
X205875357Y-86460000D01*
X205989642Y-86402857D01*
X206161071Y-86402857D01*
X206275357Y-86460000D01*
X206332500Y-86517142D01*
X206389642Y-86631428D01*
X206389642Y-86974285D01*
X206332500Y-87088571D01*
X206275357Y-87145714D01*
X206161071Y-87202857D01*
X205989642Y-87202857D01*
X207418214Y-86402857D02*
X207418214Y-87374285D01*
X207361071Y-87488571D01*
X207303928Y-87545714D01*
X207189642Y-87602857D01*
X207018214Y-87602857D01*
X206903928Y-87545714D01*
X207418214Y-87145714D02*
X207303928Y-87202857D01*
X207075357Y-87202857D01*
X206961071Y-87145714D01*
X206903928Y-87088571D01*
X206846785Y-86974285D01*
X206846785Y-86631428D01*
X206903928Y-86517142D01*
X206961071Y-86460000D01*
X207075357Y-86402857D01*
X207303928Y-86402857D01*
X207418214Y-86460000D01*
X207989642Y-87202857D02*
X207989642Y-86402857D01*
X207989642Y-86002857D02*
X207932500Y-86060000D01*
X207989642Y-86117142D01*
X208046785Y-86060000D01*
X207989642Y-86002857D01*
X207989642Y-86117142D01*
X209075357Y-87145714D02*
X208961071Y-87202857D01*
X208732500Y-87202857D01*
X208618214Y-87145714D01*
X208561071Y-87088571D01*
X208503928Y-86974285D01*
X208503928Y-86631428D01*
X208561071Y-86517142D01*
X208618214Y-86460000D01*
X208732500Y-86402857D01*
X208961071Y-86402857D01*
X209075357Y-86460000D01*
X210389642Y-86402857D02*
X210675357Y-87202857D01*
X210961071Y-86402857D01*
X212046785Y-87202857D02*
X211361071Y-87202857D01*
X211703928Y-87202857D02*
X211703928Y-86002857D01*
X211589642Y-86174285D01*
X211475357Y-86288571D01*
X211361071Y-86345714D01*
X192218214Y-89252857D02*
X192218214Y-88052857D01*
X192789642Y-88452857D02*
X192789642Y-89252857D01*
X192789642Y-88567142D02*
X192846785Y-88510000D01*
X192961071Y-88452857D01*
X193132500Y-88452857D01*
X193246785Y-88510000D01*
X193303928Y-88624285D01*
X193303928Y-89252857D01*
X193875357Y-88452857D02*
X193875357Y-89652857D01*
X193875357Y-88510000D02*
X193989642Y-88452857D01*
X194218214Y-88452857D01*
X194332500Y-88510000D01*
X194389642Y-88567142D01*
X194446785Y-88681428D01*
X194446785Y-89024285D01*
X194389642Y-89138571D01*
X194332500Y-89195714D01*
X194218214Y-89252857D01*
X193989642Y-89252857D01*
X193875357Y-89195714D01*
X195475357Y-88452857D02*
X195475357Y-89252857D01*
X194961071Y-88452857D02*
X194961071Y-89081428D01*
X195018214Y-89195714D01*
X195132500Y-89252857D01*
X195303928Y-89252857D01*
X195418214Y-89195714D01*
X195475357Y-89138571D01*
X195875357Y-88452857D02*
X196332500Y-88452857D01*
X196046785Y-88052857D02*
X196046785Y-89081428D01*
X196103928Y-89195714D01*
X196218214Y-89252857D01*
X196332500Y-89252857D01*
X196675357Y-89195714D02*
X196789642Y-89252857D01*
X197018214Y-89252857D01*
X197132500Y-89195714D01*
X197189642Y-89081428D01*
X197189642Y-89024285D01*
X197132500Y-88910000D01*
X197018214Y-88852857D01*
X196846785Y-88852857D01*
X196732500Y-88795714D01*
X196675357Y-88681428D01*
X196675357Y-88624285D01*
X196732500Y-88510000D01*
X196846785Y-88452857D01*
X197018214Y-88452857D01*
X197132500Y-88510000D01*
X197703928Y-89138571D02*
X197761071Y-89195714D01*
X197703928Y-89252857D01*
X197646785Y-89195714D01*
X197703928Y-89138571D01*
X197703928Y-89252857D01*
X197703928Y-88510000D02*
X197761071Y-88567142D01*
X197703928Y-88624285D01*
X197646785Y-88567142D01*
X197703928Y-88510000D01*
X197703928Y-88624285D01*
X199132500Y-88910000D02*
X199703928Y-88910000D01*
X199018214Y-89252857D02*
X199418214Y-88052857D01*
X199818214Y-89252857D01*
X200275357Y-89195714D02*
X200275357Y-89252857D01*
X200218214Y-89367142D01*
X200161071Y-89424285D01*
X202103928Y-88624285D02*
X202275357Y-88681428D01*
X202332500Y-88738571D01*
X202389642Y-88852857D01*
X202389642Y-89024285D01*
X202332500Y-89138571D01*
X202275357Y-89195714D01*
X202161071Y-89252857D01*
X201703928Y-89252857D01*
X201703928Y-88052857D01*
X202103928Y-88052857D01*
X202218214Y-88110000D01*
X202275357Y-88167142D01*
X202332500Y-88281428D01*
X202332500Y-88395714D01*
X202275357Y-88510000D01*
X202218214Y-88567142D01*
X202103928Y-88624285D01*
X201703928Y-88624285D01*
X192218214Y-90388571D02*
X193132500Y-90388571D01*
X193132500Y-90674285D02*
X192675357Y-91302857D01*
X192218214Y-90674285D01*
X193703928Y-91188571D02*
X193761071Y-91245714D01*
X193703928Y-91302857D01*
X193646785Y-91245714D01*
X193703928Y-91188571D01*
X193703928Y-91302857D01*
X193703928Y-90560000D02*
X193761071Y-90617142D01*
X193703928Y-90674285D01*
X193646785Y-90617142D01*
X193703928Y-90560000D01*
X193703928Y-90674285D01*
X195189642Y-91302857D02*
X195189642Y-90102857D01*
X195875357Y-91302857D01*
X195875357Y-90102857D01*
X196675357Y-90102857D02*
X196903928Y-90102857D01*
X197018214Y-90160000D01*
X197132500Y-90274285D01*
X197189642Y-90502857D01*
X197189642Y-90902857D01*
X197132500Y-91131428D01*
X197018214Y-91245714D01*
X196903928Y-91302857D01*
X196675357Y-91302857D01*
X196561071Y-91245714D01*
X196446785Y-91131428D01*
X196389642Y-90902857D01*
X196389642Y-90502857D01*
X196446785Y-90274285D01*
X196561071Y-90160000D01*
X196675357Y-90102857D01*
X198389642Y-91302857D02*
X197989642Y-90731428D01*
X197703928Y-91302857D02*
X197703928Y-90102857D01*
X198161071Y-90102857D01*
X198275357Y-90160000D01*
X198332500Y-90217142D01*
X198389642Y-90331428D01*
X198389642Y-90502857D01*
X198332500Y-90617142D01*
X198275357Y-90674285D01*
X198161071Y-90731428D01*
X197703928Y-90731428D01*
X193132500Y-92438571D02*
X192218214Y-92438571D01*
X192218214Y-93352857D02*
X192675357Y-92724285D01*
X193132500Y-93352857D01*
X193703928Y-93238571D02*
X193761071Y-93295714D01*
X193703928Y-93352857D01*
X193646785Y-93295714D01*
X193703928Y-93238571D01*
X193703928Y-93352857D01*
X193703928Y-92610000D02*
X193761071Y-92667142D01*
X193703928Y-92724285D01*
X193646785Y-92667142D01*
X193703928Y-92610000D01*
X193703928Y-92724285D01*
X195189642Y-93352857D02*
X195189642Y-92152857D01*
X195875357Y-93352857D01*
X195875357Y-92152857D01*
X196389642Y-93010000D02*
X196961071Y-93010000D01*
X196275357Y-93352857D02*
X196675357Y-92152857D01*
X197075357Y-93352857D01*
X197475357Y-93352857D02*
X197475357Y-92152857D01*
X198161071Y-93352857D01*
X198161071Y-92152857D01*
X198732500Y-93352857D02*
X198732500Y-92152857D01*
X199018214Y-92152857D01*
X199189642Y-92210000D01*
X199303928Y-92324285D01*
X199361071Y-92438571D01*
X199418214Y-92667142D01*
X199418214Y-92838571D01*
X199361071Y-93067142D01*
X199303928Y-93181428D01*
X199189642Y-93295714D01*
X199018214Y-93352857D01*
X198732500Y-93352857D01*
X193189642Y-95402857D02*
X192675357Y-94488571D01*
X192161071Y-95402857D01*
X193703928Y-95288571D02*
X193761071Y-95345714D01*
X193703928Y-95402857D01*
X193646785Y-95345714D01*
X193703928Y-95288571D01*
X193703928Y-95402857D01*
X193703928Y-94660000D02*
X193761071Y-94717142D01*
X193703928Y-94774285D01*
X193646785Y-94717142D01*
X193703928Y-94660000D01*
X193703928Y-94774285D01*
X195132500Y-95060000D02*
X195703928Y-95060000D01*
X195018214Y-95402857D02*
X195418214Y-94202857D01*
X195818214Y-95402857D01*
X196218214Y-95402857D02*
X196218214Y-94202857D01*
X196903928Y-95402857D01*
X196903928Y-94202857D01*
X197475357Y-95402857D02*
X197475357Y-94202857D01*
X197761071Y-94202857D01*
X197932500Y-94260000D01*
X198046785Y-94374285D01*
X198103928Y-94488571D01*
X198161071Y-94717142D01*
X198161071Y-94888571D01*
X198103928Y-95117142D01*
X198046785Y-95231428D01*
X197932500Y-95345714D01*
X197761071Y-95402857D01*
X197475357Y-95402857D01*
X192161071Y-96538571D02*
X192675357Y-97452857D01*
X193189642Y-96538571D01*
X193703928Y-97338571D02*
X193761071Y-97395714D01*
X193703928Y-97452857D01*
X193646785Y-97395714D01*
X193703928Y-97338571D01*
X193703928Y-97452857D01*
X193703928Y-96710000D02*
X193761071Y-96767142D01*
X193703928Y-96824285D01*
X193646785Y-96767142D01*
X193703928Y-96710000D01*
X193703928Y-96824285D01*
X195418214Y-96252857D02*
X195646785Y-96252857D01*
X195761071Y-96310000D01*
X195875357Y-96424285D01*
X195932500Y-96652857D01*
X195932500Y-97052857D01*
X195875357Y-97281428D01*
X195761071Y-97395714D01*
X195646785Y-97452857D01*
X195418214Y-97452857D01*
X195303928Y-97395714D01*
X195189642Y-97281428D01*
X195132500Y-97052857D01*
X195132500Y-96652857D01*
X195189642Y-96424285D01*
X195303928Y-96310000D01*
X195418214Y-96252857D01*
X197132500Y-97452857D02*
X196732500Y-96881428D01*
X196446785Y-97452857D02*
X196446785Y-96252857D01*
X196903928Y-96252857D01*
X197018214Y-96310000D01*
X197075357Y-96367142D01*
X197132500Y-96481428D01*
X197132500Y-96652857D01*
X197075357Y-96767142D01*
X197018214Y-96824285D01*
X196903928Y-96881428D01*
X196446785Y-96881428D01*
X192218214Y-100924285D02*
X192618214Y-100924285D01*
X192789642Y-101552857D02*
X192218214Y-101552857D01*
X192218214Y-100352857D01*
X192789642Y-100352857D01*
X193303928Y-101552857D02*
X193303928Y-100752857D01*
X193303928Y-100867142D02*
X193361071Y-100810000D01*
X193475357Y-100752857D01*
X193646785Y-100752857D01*
X193761071Y-100810000D01*
X193818214Y-100924285D01*
X193818214Y-101552857D01*
X193818214Y-100924285D02*
X193875357Y-100810000D01*
X193989642Y-100752857D01*
X194161071Y-100752857D01*
X194275357Y-100810000D01*
X194332500Y-100924285D01*
X194332500Y-101552857D01*
X194903928Y-101552857D02*
X194903928Y-100752857D01*
X194903928Y-100352857D02*
X194846785Y-100410000D01*
X194903928Y-100467142D01*
X194961071Y-100410000D01*
X194903928Y-100352857D01*
X194903928Y-100467142D01*
X195646785Y-101552857D02*
X195532500Y-101495714D01*
X195475357Y-101381428D01*
X195475357Y-100352857D01*
X197589642Y-101552857D02*
X197018214Y-101552857D01*
X197018214Y-100352857D01*
X198503928Y-100752857D02*
X198503928Y-101552857D01*
X197989642Y-100752857D02*
X197989642Y-101381428D01*
X198046785Y-101495714D01*
X198161071Y-101552857D01*
X198332500Y-101552857D01*
X198446785Y-101495714D01*
X198503928Y-101438571D01*
X199075357Y-100752857D02*
X199075357Y-101552857D01*
X199075357Y-100867142D02*
X199132500Y-100810000D01*
X199246785Y-100752857D01*
X199418214Y-100752857D01*
X199532500Y-100810000D01*
X199589642Y-100924285D01*
X199589642Y-101552857D01*
X200675357Y-101552857D02*
X200675357Y-100352857D01*
X200675357Y-101495714D02*
X200561071Y-101552857D01*
X200332500Y-101552857D01*
X200218214Y-101495714D01*
X200161071Y-101438571D01*
X200103928Y-101324285D01*
X200103928Y-100981428D01*
X200161071Y-100867142D01*
X200218214Y-100810000D01*
X200332500Y-100752857D01*
X200561071Y-100752857D01*
X200675357Y-100810000D01*
X201246785Y-101552857D02*
X201246785Y-100352857D01*
X201246785Y-100810000D02*
X201361071Y-100752857D01*
X201589642Y-100752857D01*
X201703928Y-100810000D01*
X201761071Y-100867142D01*
X201818214Y-100981428D01*
X201818214Y-101324285D01*
X201761071Y-101438571D01*
X201703928Y-101495714D01*
X201589642Y-101552857D01*
X201361071Y-101552857D01*
X201246785Y-101495714D01*
X202789642Y-101495714D02*
X202675357Y-101552857D01*
X202446785Y-101552857D01*
X202332500Y-101495714D01*
X202275357Y-101381428D01*
X202275357Y-100924285D01*
X202332500Y-100810000D01*
X202446785Y-100752857D01*
X202675357Y-100752857D01*
X202789642Y-100810000D01*
X202846785Y-100924285D01*
X202846785Y-101038571D01*
X202275357Y-101152857D01*
X203361071Y-101552857D02*
X203361071Y-100752857D01*
X203361071Y-100981428D02*
X203418214Y-100867142D01*
X203475357Y-100810000D01*
X203589642Y-100752857D01*
X203703928Y-100752857D01*
X204618214Y-100752857D02*
X204618214Y-101724285D01*
X204561071Y-101838571D01*
X204503928Y-101895714D01*
X204389642Y-101952857D01*
X204218214Y-101952857D01*
X204103928Y-101895714D01*
X204618214Y-101495714D02*
X204503928Y-101552857D01*
X204275357Y-101552857D01*
X204161071Y-101495714D01*
X204103928Y-101438571D01*
X204046785Y-101324285D01*
X204046785Y-100981428D01*
X204103928Y-100867142D01*
X204161071Y-100810000D01*
X204275357Y-100752857D01*
X204503928Y-100752857D01*
X204618214Y-100810000D01*
X192675357Y-103545714D02*
X192561071Y-103602857D01*
X192332500Y-103602857D01*
X192218214Y-103545714D01*
X192161071Y-103431428D01*
X192161071Y-102974285D01*
X192218214Y-102860000D01*
X192332500Y-102802857D01*
X192561071Y-102802857D01*
X192675357Y-102860000D01*
X192732500Y-102974285D01*
X192732500Y-103088571D01*
X192161071Y-103202857D01*
X193246785Y-103602857D02*
X193246785Y-102802857D01*
X193246785Y-102917142D02*
X193303928Y-102860000D01*
X193418214Y-102802857D01*
X193589642Y-102802857D01*
X193703928Y-102860000D01*
X193761071Y-102974285D01*
X193761071Y-103602857D01*
X193761071Y-102974285D02*
X193818214Y-102860000D01*
X193932500Y-102802857D01*
X194103928Y-102802857D01*
X194218214Y-102860000D01*
X194275357Y-102974285D01*
X194275357Y-103602857D01*
X194846785Y-103602857D02*
X194846785Y-102802857D01*
X194846785Y-102402857D02*
X194789642Y-102460000D01*
X194846785Y-102517142D01*
X194903928Y-102460000D01*
X194846785Y-102402857D01*
X194846785Y-102517142D01*
X195589642Y-103602857D02*
X195475357Y-103545714D01*
X195418214Y-103431428D01*
X195418214Y-102402857D01*
X196789642Y-103031428D02*
X196732500Y-102974285D01*
X196618214Y-102917142D01*
X196503928Y-102917142D01*
X196389642Y-102974285D01*
X196332500Y-103031428D01*
X196275357Y-103145714D01*
X196275357Y-103260000D01*
X196332500Y-103374285D01*
X196389642Y-103431428D01*
X196503928Y-103488571D01*
X196618214Y-103488571D01*
X196732500Y-103431428D01*
X196789642Y-103374285D01*
X196789642Y-102917142D02*
X196789642Y-103374285D01*
X196846785Y-103431428D01*
X196903928Y-103431428D01*
X197018214Y-103374285D01*
X197075357Y-103260000D01*
X197075357Y-102974285D01*
X196961071Y-102802857D01*
X196789642Y-102688571D01*
X196561071Y-102631428D01*
X196332500Y-102688571D01*
X196161071Y-102802857D01*
X196046785Y-102974285D01*
X195989642Y-103202857D01*
X196046785Y-103431428D01*
X196161071Y-103602857D01*
X196332500Y-103717142D01*
X196561071Y-103774285D01*
X196789642Y-103717142D01*
X196961071Y-103602857D01*
X198046785Y-103545714D02*
X197932500Y-103602857D01*
X197703928Y-103602857D01*
X197589642Y-103545714D01*
X197532500Y-103431428D01*
X197532500Y-102974285D01*
X197589642Y-102860000D01*
X197703928Y-102802857D01*
X197932500Y-102802857D01*
X198046785Y-102860000D01*
X198103928Y-102974285D01*
X198103928Y-103088571D01*
X197532500Y-103202857D01*
X198618214Y-103602857D02*
X198618214Y-102802857D01*
X198618214Y-102917142D02*
X198675357Y-102860000D01*
X198789642Y-102802857D01*
X198961071Y-102802857D01*
X199075357Y-102860000D01*
X199132500Y-102974285D01*
X199132500Y-103602857D01*
X199132500Y-102974285D02*
X199189642Y-102860000D01*
X199303928Y-102802857D01*
X199475357Y-102802857D01*
X199589642Y-102860000D01*
X199646785Y-102974285D01*
X199646785Y-103602857D01*
X200389642Y-103602857D02*
X200275357Y-103545714D01*
X200218214Y-103431428D01*
X200218214Y-102402857D01*
X201361071Y-102802857D02*
X201361071Y-103602857D01*
X200846785Y-102802857D02*
X200846785Y-103431428D01*
X200903928Y-103545714D01*
X201018214Y-103602857D01*
X201189642Y-103602857D01*
X201303928Y-103545714D01*
X201361071Y-103488571D01*
X201932500Y-102802857D02*
X201932500Y-103602857D01*
X201932500Y-102917142D02*
X201989642Y-102860000D01*
X202103928Y-102802857D01*
X202275357Y-102802857D01*
X202389642Y-102860000D01*
X202446785Y-102974285D01*
X202446785Y-103602857D01*
X203018214Y-103488571D02*
X203075357Y-103545714D01*
X203018214Y-103602857D01*
X202961071Y-103545714D01*
X203018214Y-103488571D01*
X203018214Y-103602857D01*
X203532500Y-103545714D02*
X203646785Y-103602857D01*
X203875357Y-103602857D01*
X203989642Y-103545714D01*
X204046785Y-103431428D01*
X204046785Y-103374285D01*
X203989642Y-103260000D01*
X203875357Y-103202857D01*
X203703928Y-103202857D01*
X203589642Y-103145714D01*
X203532500Y-103031428D01*
X203532500Y-102974285D01*
X203589642Y-102860000D01*
X203703928Y-102802857D01*
X203875357Y-102802857D01*
X203989642Y-102860000D01*
X205018214Y-103545714D02*
X204903928Y-103602857D01*
X204675357Y-103602857D01*
X204561071Y-103545714D01*
X204503928Y-103431428D01*
X204503928Y-102974285D01*
X204561071Y-102860000D01*
X204675357Y-102802857D01*
X204903928Y-102802857D01*
X205018214Y-102860000D01*
X205075357Y-102974285D01*
X205075357Y-103088571D01*
X204503928Y-103202857D01*
X192161071Y-104567142D02*
X192218214Y-104510000D01*
X192332500Y-104452857D01*
X192618214Y-104452857D01*
X192732500Y-104510000D01*
X192789642Y-104567142D01*
X192846785Y-104681428D01*
X192846785Y-104795714D01*
X192789642Y-104967142D01*
X192103928Y-105652857D01*
X192846785Y-105652857D01*
X193589642Y-104452857D02*
X193703928Y-104452857D01*
X193818214Y-104510000D01*
X193875357Y-104567142D01*
X193932500Y-104681428D01*
X193989642Y-104910000D01*
X193989642Y-105195714D01*
X193932500Y-105424285D01*
X193875357Y-105538571D01*
X193818214Y-105595714D01*
X193703928Y-105652857D01*
X193589642Y-105652857D01*
X193475357Y-105595714D01*
X193418214Y-105538571D01*
X193361071Y-105424285D01*
X193303928Y-105195714D01*
X193303928Y-104910000D01*
X193361071Y-104681428D01*
X193418214Y-104567142D01*
X193475357Y-104510000D01*
X193589642Y-104452857D01*
X195132500Y-105652857D02*
X194446785Y-105652857D01*
X194789642Y-105652857D02*
X194789642Y-104452857D01*
X194675357Y-104624285D01*
X194561071Y-104738571D01*
X194446785Y-104795714D01*
X195818214Y-104967142D02*
X195703928Y-104910000D01*
X195646785Y-104852857D01*
X195589642Y-104738571D01*
X195589642Y-104681428D01*
X195646785Y-104567142D01*
X195703928Y-104510000D01*
X195818214Y-104452857D01*
X196046785Y-104452857D01*
X196161071Y-104510000D01*
X196218214Y-104567142D01*
X196275357Y-104681428D01*
X196275357Y-104738571D01*
X196218214Y-104852857D01*
X196161071Y-104910000D01*
X196046785Y-104967142D01*
X195818214Y-104967142D01*
X195703928Y-105024285D01*
X195646785Y-105081428D01*
X195589642Y-105195714D01*
X195589642Y-105424285D01*
X195646785Y-105538571D01*
X195703928Y-105595714D01*
X195818214Y-105652857D01*
X196046785Y-105652857D01*
X196161071Y-105595714D01*
X196218214Y-105538571D01*
X196275357Y-105424285D01*
X196275357Y-105195714D01*
X196218214Y-105081428D01*
X196161071Y-105024285D01*
X196046785Y-104967142D01*
X196789642Y-105195714D02*
X197703928Y-105195714D01*
X198503928Y-104452857D02*
X198618214Y-104452857D01*
X198732500Y-104510000D01*
X198789642Y-104567142D01*
X198846785Y-104681428D01*
X198903928Y-104910000D01*
X198903928Y-105195714D01*
X198846785Y-105424285D01*
X198789642Y-105538571D01*
X198732500Y-105595714D01*
X198618214Y-105652857D01*
X198503928Y-105652857D01*
X198389642Y-105595714D01*
X198332500Y-105538571D01*
X198275357Y-105424285D01*
X198218214Y-105195714D01*
X198218214Y-104910000D01*
X198275357Y-104681428D01*
X198332500Y-104567142D01*
X198389642Y-104510000D01*
X198503928Y-104452857D01*
X199303928Y-104452857D02*
X200103928Y-104452857D01*
X199589642Y-105652857D01*
X200561071Y-105195714D02*
X201475357Y-105195714D01*
X202675357Y-105652857D02*
X201989642Y-105652857D01*
X202332500Y-105652857D02*
X202332500Y-104452857D01*
X202218214Y-104624285D01*
X202103928Y-104738571D01*
X201989642Y-104795714D01*
X203361071Y-104967142D02*
X203246785Y-104910000D01*
X203189642Y-104852857D01*
X203132500Y-104738571D01*
X203132500Y-104681428D01*
X203189642Y-104567142D01*
X203246785Y-104510000D01*
X203361071Y-104452857D01*
X203589642Y-104452857D01*
X203703928Y-104510000D01*
X203761071Y-104567142D01*
X203818214Y-104681428D01*
X203818214Y-104738571D01*
X203761071Y-104852857D01*
X203703928Y-104910000D01*
X203589642Y-104967142D01*
X203361071Y-104967142D01*
X203246785Y-105024285D01*
X203189642Y-105081428D01*
X203132500Y-105195714D01*
X203132500Y-105424285D01*
X203189642Y-105538571D01*
X203246785Y-105595714D01*
X203361071Y-105652857D01*
X203589642Y-105652857D01*
X203703928Y-105595714D01*
X203761071Y-105538571D01*
X203818214Y-105424285D01*
X203818214Y-105195714D01*
X203761071Y-105081428D01*
X203703928Y-105024285D01*
X203589642Y-104967142D01*
D12*
G04 #@! TO.P,J7,2*
G04 #@! TO.N,VCC*
X218440000Y-53340000D03*
G04 #@! TO.P,J7,1*
G04 #@! TO.N,GND*
X218440000Y-55880000D03*
X215900000Y-55880000D03*
G04 #@! TO.P,J7,2*
G04 #@! TO.N,VCC*
X215900000Y-53340000D03*
G04 #@! TD*
D13*
G04 #@! TO.P,Q20,2*
G04 #@! TO.N,/b3*
X154940000Y-91440000D03*
G04 #@! TO.P,Q20,3*
G04 #@! TO.N,/nor3*
X152400000Y-91440000D03*
D14*
G04 #@! TO.P,Q20,1*
G04 #@! TO.N,GND*
X157480000Y-91440000D03*
G04 #@! TD*
D13*
G04 #@! TO.P,Q7,2*
G04 #@! TO.N,/a1*
X175260000Y-86360000D03*
G04 #@! TO.P,Q7,3*
G04 #@! TO.N,/nor1*
X172720000Y-86360000D03*
D14*
G04 #@! TO.P,Q7,1*
G04 #@! TO.N,GND*
X177800000Y-86360000D03*
G04 #@! TD*
D13*
G04 #@! TO.P,Q1,2*
G04 #@! TO.N,/a0*
X185420000Y-86360000D03*
G04 #@! TO.P,Q1,3*
G04 #@! TO.N,/nor0*
X182880000Y-86360000D03*
D14*
G04 #@! TO.P,Q1,1*
G04 #@! TO.N,GND*
X187960000Y-86360000D03*
G04 #@! TD*
D13*
G04 #@! TO.P,Q2,2*
G04 #@! TO.N,/b0*
X185420000Y-91440000D03*
G04 #@! TO.P,Q2,3*
G04 #@! TO.N,/nor0*
X182880000Y-91440000D03*
D14*
G04 #@! TO.P,Q2,1*
G04 #@! TO.N,GND*
X187960000Y-91440000D03*
G04 #@! TD*
D13*
G04 #@! TO.P,Q3,2*
G04 #@! TO.N,/nor0*
X185420000Y-96520000D03*
G04 #@! TO.P,Q3,3*
G04 #@! TO.N,/or0*
X182880000Y-96520000D03*
D14*
G04 #@! TO.P,Q3,1*
G04 #@! TO.N,GND*
X187960000Y-96520000D03*
G04 #@! TD*
D13*
G04 #@! TO.P,Q4,2*
G04 #@! TO.N,/nand0*
X185420000Y-101600000D03*
G04 #@! TO.P,Q4,3*
G04 #@! TO.N,/and0*
X182880000Y-101600000D03*
D14*
G04 #@! TO.P,Q4,1*
G04 #@! TO.N,GND*
X187960000Y-101600000D03*
G04 #@! TD*
D13*
G04 #@! TO.P,Q5,2*
G04 #@! TO.N,/a0*
X185420000Y-106680000D03*
G04 #@! TO.P,Q5,3*
G04 #@! TO.N,Net-(Q5-Pad3)*
X182880000Y-106680000D03*
D14*
G04 #@! TO.P,Q5,1*
G04 #@! TO.N,GND*
X187960000Y-106680000D03*
G04 #@! TD*
D13*
G04 #@! TO.P,Q6,2*
G04 #@! TO.N,/b0*
X185420000Y-111760000D03*
G04 #@! TO.P,Q6,3*
G04 #@! TO.N,/nand0*
X182880000Y-111760000D03*
D14*
G04 #@! TO.P,Q6,1*
G04 #@! TO.N,Net-(Q5-Pad3)*
X187960000Y-111760000D03*
G04 #@! TD*
D13*
G04 #@! TO.P,Q8,2*
G04 #@! TO.N,/b1*
X175260000Y-91440000D03*
G04 #@! TO.P,Q8,3*
G04 #@! TO.N,/nor1*
X172720000Y-91440000D03*
D14*
G04 #@! TO.P,Q8,1*
G04 #@! TO.N,GND*
X177800000Y-91440000D03*
G04 #@! TD*
D13*
G04 #@! TO.P,Q9,2*
G04 #@! TO.N,/nor1*
X175260000Y-96520000D03*
G04 #@! TO.P,Q9,3*
G04 #@! TO.N,/or1*
X172720000Y-96520000D03*
D14*
G04 #@! TO.P,Q9,1*
G04 #@! TO.N,GND*
X177800000Y-96520000D03*
G04 #@! TD*
D13*
G04 #@! TO.P,Q10,2*
G04 #@! TO.N,/nand1*
X175260000Y-101600000D03*
G04 #@! TO.P,Q10,3*
G04 #@! TO.N,/and1*
X172720000Y-101600000D03*
D14*
G04 #@! TO.P,Q10,1*
G04 #@! TO.N,GND*
X177800000Y-101600000D03*
G04 #@! TD*
D13*
G04 #@! TO.P,Q11,2*
G04 #@! TO.N,/a1*
X175260000Y-106680000D03*
G04 #@! TO.P,Q11,3*
G04 #@! TO.N,Net-(Q11-Pad3)*
X172720000Y-106680000D03*
D14*
G04 #@! TO.P,Q11,1*
G04 #@! TO.N,GND*
X177800000Y-106680000D03*
G04 #@! TD*
D13*
G04 #@! TO.P,Q12,2*
G04 #@! TO.N,/b1*
X175260000Y-111760000D03*
G04 #@! TO.P,Q12,3*
G04 #@! TO.N,/nand1*
X172720000Y-111760000D03*
D14*
G04 #@! TO.P,Q12,1*
G04 #@! TO.N,Net-(Q11-Pad3)*
X177800000Y-111760000D03*
G04 #@! TD*
D13*
G04 #@! TO.P,Q13,2*
G04 #@! TO.N,/a2*
X165100000Y-86360000D03*
G04 #@! TO.P,Q13,3*
G04 #@! TO.N,/nor2*
X162560000Y-86360000D03*
D14*
G04 #@! TO.P,Q13,1*
G04 #@! TO.N,GND*
X167640000Y-86360000D03*
G04 #@! TD*
D13*
G04 #@! TO.P,Q14,2*
G04 #@! TO.N,/b2*
X165100000Y-91440000D03*
G04 #@! TO.P,Q14,3*
G04 #@! TO.N,/nor2*
X162560000Y-91440000D03*
D14*
G04 #@! TO.P,Q14,1*
G04 #@! TO.N,GND*
X167640000Y-91440000D03*
G04 #@! TD*
D13*
G04 #@! TO.P,Q15,2*
G04 #@! TO.N,/nor2*
X165100000Y-96520000D03*
G04 #@! TO.P,Q15,3*
G04 #@! TO.N,/or2*
X162560000Y-96520000D03*
D14*
G04 #@! TO.P,Q15,1*
G04 #@! TO.N,GND*
X167640000Y-96520000D03*
G04 #@! TD*
D13*
G04 #@! TO.P,Q16,2*
G04 #@! TO.N,/nand2*
X165100000Y-101600000D03*
G04 #@! TO.P,Q16,3*
G04 #@! TO.N,/and2*
X162560000Y-101600000D03*
D14*
G04 #@! TO.P,Q16,1*
G04 #@! TO.N,GND*
X167640000Y-101600000D03*
G04 #@! TD*
D13*
G04 #@! TO.P,Q17,2*
G04 #@! TO.N,/a2*
X165100000Y-106680000D03*
G04 #@! TO.P,Q17,3*
G04 #@! TO.N,Net-(Q17-Pad3)*
X162560000Y-106680000D03*
D14*
G04 #@! TO.P,Q17,1*
G04 #@! TO.N,GND*
X167640000Y-106680000D03*
G04 #@! TD*
D13*
G04 #@! TO.P,Q18,2*
G04 #@! TO.N,/b2*
X165100000Y-111760000D03*
G04 #@! TO.P,Q18,3*
G04 #@! TO.N,/nand2*
X162560000Y-111760000D03*
D14*
G04 #@! TO.P,Q18,1*
G04 #@! TO.N,Net-(Q17-Pad3)*
X167640000Y-111760000D03*
G04 #@! TD*
D13*
G04 #@! TO.P,Q19,2*
G04 #@! TO.N,/a3*
X154940000Y-86360000D03*
G04 #@! TO.P,Q19,3*
G04 #@! TO.N,/nor3*
X152400000Y-86360000D03*
D14*
G04 #@! TO.P,Q19,1*
G04 #@! TO.N,GND*
X157480000Y-86360000D03*
G04 #@! TD*
D13*
G04 #@! TO.P,Q21,2*
G04 #@! TO.N,/nor3*
X154940000Y-96520000D03*
G04 #@! TO.P,Q21,3*
G04 #@! TO.N,/or3*
X152400000Y-96520000D03*
D14*
G04 #@! TO.P,Q21,1*
G04 #@! TO.N,GND*
X157480000Y-96520000D03*
G04 #@! TD*
D13*
G04 #@! TO.P,Q22,2*
G04 #@! TO.N,/nand3*
X154940000Y-101600000D03*
G04 #@! TO.P,Q22,3*
G04 #@! TO.N,/and3*
X152400000Y-101600000D03*
D14*
G04 #@! TO.P,Q22,1*
G04 #@! TO.N,GND*
X157480000Y-101600000D03*
G04 #@! TD*
D13*
G04 #@! TO.P,Q23,2*
G04 #@! TO.N,/a3*
X154940000Y-106680000D03*
G04 #@! TO.P,Q23,3*
G04 #@! TO.N,Net-(Q23-Pad3)*
X152400000Y-106680000D03*
D14*
G04 #@! TO.P,Q23,1*
G04 #@! TO.N,GND*
X157480000Y-106680000D03*
G04 #@! TD*
D13*
G04 #@! TO.P,Q24,2*
G04 #@! TO.N,/b3*
X154940000Y-111760000D03*
G04 #@! TO.P,Q24,3*
G04 #@! TO.N,/nand3*
X152400000Y-111760000D03*
D14*
G04 #@! TO.P,Q24,1*
G04 #@! TO.N,Net-(Q23-Pad3)*
X157480000Y-111760000D03*
G04 #@! TD*
D13*
G04 #@! TO.P,Q25,2*
G04 #@! TO.N,/a4*
X144780000Y-86360000D03*
G04 #@! TO.P,Q25,3*
G04 #@! TO.N,/nor4*
X142240000Y-86360000D03*
D14*
G04 #@! TO.P,Q25,1*
G04 #@! TO.N,GND*
X147320000Y-86360000D03*
G04 #@! TD*
D13*
G04 #@! TO.P,Q26,2*
G04 #@! TO.N,/b4*
X144780000Y-91440000D03*
G04 #@! TO.P,Q26,3*
G04 #@! TO.N,/nor4*
X142240000Y-91440000D03*
D14*
G04 #@! TO.P,Q26,1*
G04 #@! TO.N,GND*
X147320000Y-91440000D03*
G04 #@! TD*
D13*
G04 #@! TO.P,Q27,2*
G04 #@! TO.N,/nor4*
X144780000Y-96520000D03*
G04 #@! TO.P,Q27,3*
G04 #@! TO.N,/or4*
X142240000Y-96520000D03*
D14*
G04 #@! TO.P,Q27,1*
G04 #@! TO.N,GND*
X147320000Y-96520000D03*
G04 #@! TD*
D13*
G04 #@! TO.P,Q28,2*
G04 #@! TO.N,/nand4*
X144780000Y-101600000D03*
G04 #@! TO.P,Q28,3*
G04 #@! TO.N,/and4*
X142240000Y-101600000D03*
D14*
G04 #@! TO.P,Q28,1*
G04 #@! TO.N,GND*
X147320000Y-101600000D03*
G04 #@! TD*
D13*
G04 #@! TO.P,Q29,2*
G04 #@! TO.N,/a4*
X144780000Y-106680000D03*
G04 #@! TO.P,Q29,3*
G04 #@! TO.N,Net-(Q29-Pad3)*
X142240000Y-106680000D03*
D14*
G04 #@! TO.P,Q29,1*
G04 #@! TO.N,GND*
X147320000Y-106680000D03*
G04 #@! TD*
D13*
G04 #@! TO.P,Q30,2*
G04 #@! TO.N,/b4*
X144780000Y-111760000D03*
G04 #@! TO.P,Q30,3*
G04 #@! TO.N,/nand4*
X142240000Y-111760000D03*
D14*
G04 #@! TO.P,Q30,1*
G04 #@! TO.N,Net-(Q29-Pad3)*
X147320000Y-111760000D03*
G04 #@! TD*
D13*
G04 #@! TO.P,Q31,2*
G04 #@! TO.N,/a5*
X134620000Y-86360000D03*
G04 #@! TO.P,Q31,3*
G04 #@! TO.N,/nor5*
X132080000Y-86360000D03*
D14*
G04 #@! TO.P,Q31,1*
G04 #@! TO.N,GND*
X137160000Y-86360000D03*
G04 #@! TD*
D13*
G04 #@! TO.P,Q32,2*
G04 #@! TO.N,/b5*
X134620000Y-91440000D03*
G04 #@! TO.P,Q32,3*
G04 #@! TO.N,/nor5*
X132080000Y-91440000D03*
D14*
G04 #@! TO.P,Q32,1*
G04 #@! TO.N,GND*
X137160000Y-91440000D03*
G04 #@! TD*
D13*
G04 #@! TO.P,Q33,2*
G04 #@! TO.N,/nor5*
X134620000Y-96520000D03*
G04 #@! TO.P,Q33,3*
G04 #@! TO.N,/or5*
X132080000Y-96520000D03*
D14*
G04 #@! TO.P,Q33,1*
G04 #@! TO.N,GND*
X137160000Y-96520000D03*
G04 #@! TD*
D13*
G04 #@! TO.P,Q34,2*
G04 #@! TO.N,/nand5*
X134620000Y-101600000D03*
G04 #@! TO.P,Q34,3*
G04 #@! TO.N,/and5*
X132080000Y-101600000D03*
D14*
G04 #@! TO.P,Q34,1*
G04 #@! TO.N,GND*
X137160000Y-101600000D03*
G04 #@! TD*
D13*
G04 #@! TO.P,Q35,2*
G04 #@! TO.N,/a5*
X134620000Y-106680000D03*
G04 #@! TO.P,Q35,3*
G04 #@! TO.N,Net-(Q35-Pad3)*
X132080000Y-106680000D03*
D14*
G04 #@! TO.P,Q35,1*
G04 #@! TO.N,GND*
X137160000Y-106680000D03*
G04 #@! TD*
D13*
G04 #@! TO.P,Q36,2*
G04 #@! TO.N,/b5*
X134620000Y-111760000D03*
G04 #@! TO.P,Q36,3*
G04 #@! TO.N,/nand5*
X132080000Y-111760000D03*
D14*
G04 #@! TO.P,Q36,1*
G04 #@! TO.N,Net-(Q35-Pad3)*
X137160000Y-111760000D03*
G04 #@! TD*
D13*
G04 #@! TO.P,Q37,2*
G04 #@! TO.N,/a6*
X124460000Y-86360000D03*
G04 #@! TO.P,Q37,3*
G04 #@! TO.N,/nor6*
X121920000Y-86360000D03*
D14*
G04 #@! TO.P,Q37,1*
G04 #@! TO.N,GND*
X127000000Y-86360000D03*
G04 #@! TD*
D13*
G04 #@! TO.P,Q38,2*
G04 #@! TO.N,/b6*
X124460000Y-91440000D03*
G04 #@! TO.P,Q38,3*
G04 #@! TO.N,/nor6*
X121920000Y-91440000D03*
D14*
G04 #@! TO.P,Q38,1*
G04 #@! TO.N,GND*
X127000000Y-91440000D03*
G04 #@! TD*
D13*
G04 #@! TO.P,Q39,2*
G04 #@! TO.N,/nor6*
X124460000Y-96520000D03*
G04 #@! TO.P,Q39,3*
G04 #@! TO.N,/or6*
X121920000Y-96520000D03*
D14*
G04 #@! TO.P,Q39,1*
G04 #@! TO.N,GND*
X127000000Y-96520000D03*
G04 #@! TD*
D13*
G04 #@! TO.P,Q40,2*
G04 #@! TO.N,/nand6*
X124460000Y-101600000D03*
G04 #@! TO.P,Q40,3*
G04 #@! TO.N,/and6*
X121920000Y-101600000D03*
D14*
G04 #@! TO.P,Q40,1*
G04 #@! TO.N,GND*
X127000000Y-101600000D03*
G04 #@! TD*
D13*
G04 #@! TO.P,Q41,2*
G04 #@! TO.N,/a6*
X124460000Y-106680000D03*
G04 #@! TO.P,Q41,3*
G04 #@! TO.N,Net-(Q41-Pad3)*
X121920000Y-106680000D03*
D14*
G04 #@! TO.P,Q41,1*
G04 #@! TO.N,GND*
X127000000Y-106680000D03*
G04 #@! TD*
D13*
G04 #@! TO.P,Q42,2*
G04 #@! TO.N,/b6*
X124460000Y-111760000D03*
G04 #@! TO.P,Q42,3*
G04 #@! TO.N,/nand6*
X121920000Y-111760000D03*
D14*
G04 #@! TO.P,Q42,1*
G04 #@! TO.N,Net-(Q41-Pad3)*
X127000000Y-111760000D03*
G04 #@! TD*
D13*
G04 #@! TO.P,Q43,2*
G04 #@! TO.N,/a7*
X114300000Y-86360000D03*
G04 #@! TO.P,Q43,3*
G04 #@! TO.N,/nor7*
X111760000Y-86360000D03*
D14*
G04 #@! TO.P,Q43,1*
G04 #@! TO.N,GND*
X116840000Y-86360000D03*
G04 #@! TD*
D13*
G04 #@! TO.P,Q44,2*
G04 #@! TO.N,/b7*
X114300000Y-91440000D03*
G04 #@! TO.P,Q44,3*
G04 #@! TO.N,/nor7*
X111760000Y-91440000D03*
D14*
G04 #@! TO.P,Q44,1*
G04 #@! TO.N,GND*
X116840000Y-91440000D03*
G04 #@! TD*
D13*
G04 #@! TO.P,Q45,2*
G04 #@! TO.N,/nor7*
X114300000Y-96520000D03*
G04 #@! TO.P,Q45,3*
G04 #@! TO.N,/or7*
X111760000Y-96520000D03*
D14*
G04 #@! TO.P,Q45,1*
G04 #@! TO.N,GND*
X116840000Y-96520000D03*
G04 #@! TD*
D13*
G04 #@! TO.P,Q46,2*
G04 #@! TO.N,/nand7*
X114300000Y-101600000D03*
G04 #@! TO.P,Q46,3*
G04 #@! TO.N,/and7*
X111760000Y-101600000D03*
D14*
G04 #@! TO.P,Q46,1*
G04 #@! TO.N,GND*
X116840000Y-101600000D03*
G04 #@! TD*
D13*
G04 #@! TO.P,Q47,2*
G04 #@! TO.N,/a7*
X114300000Y-106680000D03*
G04 #@! TO.P,Q47,3*
G04 #@! TO.N,Net-(Q47-Pad3)*
X111760000Y-106680000D03*
D14*
G04 #@! TO.P,Q47,1*
G04 #@! TO.N,GND*
X116840000Y-106680000D03*
G04 #@! TD*
D13*
G04 #@! TO.P,Q48,2*
G04 #@! TO.N,/b7*
X114300000Y-111760000D03*
G04 #@! TO.P,Q48,3*
G04 #@! TO.N,/nand7*
X111760000Y-111760000D03*
D14*
G04 #@! TO.P,Q48,1*
G04 #@! TO.N,Net-(Q47-Pad3)*
X116840000Y-111760000D03*
G04 #@! TD*
D13*
G04 #@! TO.P,R1,1*
G04 #@! TO.N,GND*
X99060000Y-91440000D03*
D15*
G04 #@! TO.P,R1,2*
G04 #@! TO.N,/a0*
X99060000Y-86360000D03*
G04 #@! TD*
D13*
G04 #@! TO.P,R2,1*
G04 #@! TO.N,/b0*
X81280000Y-99060000D03*
D15*
G04 #@! TO.P,R2,2*
G04 #@! TO.N,GND*
X81280000Y-93980000D03*
G04 #@! TD*
D13*
G04 #@! TO.P,R3,1*
G04 #@! TO.N,VCC*
X180340000Y-90170000D03*
D15*
G04 #@! TO.P,R3,2*
G04 #@! TO.N,/nor0*
X180340000Y-85090000D03*
G04 #@! TD*
D13*
G04 #@! TO.P,R4,1*
G04 #@! TO.N,VCC*
X180340000Y-92710000D03*
D15*
G04 #@! TO.P,R4,2*
G04 #@! TO.N,/or0*
X180340000Y-97790000D03*
G04 #@! TD*
D13*
G04 #@! TO.P,R5,1*
G04 #@! TO.N,VCC*
X180340000Y-105410000D03*
D15*
G04 #@! TO.P,R5,2*
G04 #@! TO.N,/and0*
X180340000Y-100330000D03*
G04 #@! TD*
D13*
G04 #@! TO.P,R6,1*
G04 #@! TO.N,VCC*
X180340000Y-107950000D03*
D15*
G04 #@! TO.P,R6,2*
G04 #@! TO.N,/nand0*
X180340000Y-113030000D03*
G04 #@! TD*
D13*
G04 #@! TO.P,R7,1*
G04 #@! TO.N,GND*
X96520000Y-91440000D03*
D15*
G04 #@! TO.P,R7,2*
G04 #@! TO.N,/a1*
X96520000Y-86360000D03*
G04 #@! TD*
D13*
G04 #@! TO.P,R8,1*
G04 #@! TO.N,/b1*
X83820000Y-99060000D03*
D15*
G04 #@! TO.P,R8,2*
G04 #@! TO.N,GND*
X83820000Y-93980000D03*
G04 #@! TD*
D13*
G04 #@! TO.P,R9,1*
G04 #@! TO.N,VCC*
X170180000Y-90170000D03*
D15*
G04 #@! TO.P,R9,2*
G04 #@! TO.N,/nor1*
X170180000Y-85090000D03*
G04 #@! TD*
D13*
G04 #@! TO.P,R10,1*
G04 #@! TO.N,VCC*
X170180000Y-92710000D03*
D15*
G04 #@! TO.P,R10,2*
G04 #@! TO.N,/or1*
X170180000Y-97790000D03*
G04 #@! TD*
D13*
G04 #@! TO.P,R11,1*
G04 #@! TO.N,VCC*
X170180000Y-105410000D03*
D15*
G04 #@! TO.P,R11,2*
G04 #@! TO.N,/and1*
X170180000Y-100330000D03*
G04 #@! TD*
D13*
G04 #@! TO.P,R12,1*
G04 #@! TO.N,VCC*
X170180000Y-107950000D03*
D15*
G04 #@! TO.P,R12,2*
G04 #@! TO.N,/nand1*
X170180000Y-113030000D03*
G04 #@! TD*
D13*
G04 #@! TO.P,R13,1*
G04 #@! TO.N,GND*
X93980000Y-91440000D03*
D15*
G04 #@! TO.P,R13,2*
G04 #@! TO.N,/a2*
X93980000Y-86360000D03*
G04 #@! TD*
D13*
G04 #@! TO.P,R14,1*
G04 #@! TO.N,/b2*
X86360000Y-99060000D03*
D15*
G04 #@! TO.P,R14,2*
G04 #@! TO.N,GND*
X86360000Y-93980000D03*
G04 #@! TD*
D13*
G04 #@! TO.P,R15,1*
G04 #@! TO.N,VCC*
X160020000Y-90170000D03*
D15*
G04 #@! TO.P,R15,2*
G04 #@! TO.N,/nor2*
X160020000Y-85090000D03*
G04 #@! TD*
D13*
G04 #@! TO.P,R16,1*
G04 #@! TO.N,VCC*
X160020000Y-92710000D03*
D15*
G04 #@! TO.P,R16,2*
G04 #@! TO.N,/or2*
X160020000Y-97790000D03*
G04 #@! TD*
D13*
G04 #@! TO.P,R17,1*
G04 #@! TO.N,VCC*
X160020000Y-105410000D03*
D15*
G04 #@! TO.P,R17,2*
G04 #@! TO.N,/and2*
X160020000Y-100330000D03*
G04 #@! TD*
D13*
G04 #@! TO.P,R18,1*
G04 #@! TO.N,VCC*
X160020000Y-107950000D03*
D15*
G04 #@! TO.P,R18,2*
G04 #@! TO.N,/nand2*
X160020000Y-113030000D03*
G04 #@! TD*
D13*
G04 #@! TO.P,R19,1*
G04 #@! TO.N,GND*
X91440000Y-91440000D03*
D15*
G04 #@! TO.P,R19,2*
G04 #@! TO.N,/a3*
X91440000Y-86360000D03*
G04 #@! TD*
D13*
G04 #@! TO.P,R20,1*
G04 #@! TO.N,/b3*
X88900000Y-99060000D03*
D15*
G04 #@! TO.P,R20,2*
G04 #@! TO.N,GND*
X88900000Y-93980000D03*
G04 #@! TD*
D13*
G04 #@! TO.P,R21,1*
G04 #@! TO.N,VCC*
X149860000Y-90170000D03*
D15*
G04 #@! TO.P,R21,2*
G04 #@! TO.N,/nor3*
X149860000Y-85090000D03*
G04 #@! TD*
D13*
G04 #@! TO.P,R22,1*
G04 #@! TO.N,VCC*
X149860000Y-92710000D03*
D15*
G04 #@! TO.P,R22,2*
G04 #@! TO.N,/or3*
X149860000Y-97790000D03*
G04 #@! TD*
D13*
G04 #@! TO.P,R23,1*
G04 #@! TO.N,VCC*
X149860000Y-105410000D03*
D15*
G04 #@! TO.P,R23,2*
G04 #@! TO.N,/and3*
X149860000Y-100330000D03*
G04 #@! TD*
D13*
G04 #@! TO.P,R24,1*
G04 #@! TO.N,VCC*
X149860000Y-107950000D03*
D15*
G04 #@! TO.P,R24,2*
G04 #@! TO.N,/nand3*
X149860000Y-113030000D03*
G04 #@! TD*
D13*
G04 #@! TO.P,R25,1*
G04 #@! TO.N,GND*
X88900000Y-91440000D03*
D15*
G04 #@! TO.P,R25,2*
G04 #@! TO.N,/a4*
X88900000Y-86360000D03*
G04 #@! TD*
D13*
G04 #@! TO.P,R26,1*
G04 #@! TO.N,/b4*
X91440000Y-99060000D03*
D15*
G04 #@! TO.P,R26,2*
G04 #@! TO.N,GND*
X91440000Y-93980000D03*
G04 #@! TD*
D13*
G04 #@! TO.P,R27,1*
G04 #@! TO.N,VCC*
X139700000Y-90170000D03*
D15*
G04 #@! TO.P,R27,2*
G04 #@! TO.N,/nor4*
X139700000Y-85090000D03*
G04 #@! TD*
D13*
G04 #@! TO.P,R28,1*
G04 #@! TO.N,VCC*
X139700000Y-92710000D03*
D15*
G04 #@! TO.P,R28,2*
G04 #@! TO.N,/or4*
X139700000Y-97790000D03*
G04 #@! TD*
D13*
G04 #@! TO.P,R29,1*
G04 #@! TO.N,VCC*
X139700000Y-105410000D03*
D15*
G04 #@! TO.P,R29,2*
G04 #@! TO.N,/and4*
X139700000Y-100330000D03*
G04 #@! TD*
D13*
G04 #@! TO.P,R30,1*
G04 #@! TO.N,VCC*
X139700000Y-107950000D03*
D15*
G04 #@! TO.P,R30,2*
G04 #@! TO.N,/nand4*
X139700000Y-113030000D03*
G04 #@! TD*
D13*
G04 #@! TO.P,R31,1*
G04 #@! TO.N,GND*
X86360000Y-91440000D03*
D15*
G04 #@! TO.P,R31,2*
G04 #@! TO.N,/a5*
X86360000Y-86360000D03*
G04 #@! TD*
D13*
G04 #@! TO.P,R32,1*
G04 #@! TO.N,/b5*
X93980000Y-99060000D03*
D15*
G04 #@! TO.P,R32,2*
G04 #@! TO.N,GND*
X93980000Y-93980000D03*
G04 #@! TD*
D13*
G04 #@! TO.P,R33,1*
G04 #@! TO.N,VCC*
X129540000Y-90170000D03*
D15*
G04 #@! TO.P,R33,2*
G04 #@! TO.N,/nor5*
X129540000Y-85090000D03*
G04 #@! TD*
D13*
G04 #@! TO.P,R34,1*
G04 #@! TO.N,VCC*
X129540000Y-92710000D03*
D15*
G04 #@! TO.P,R34,2*
G04 #@! TO.N,/or5*
X129540000Y-97790000D03*
G04 #@! TD*
D13*
G04 #@! TO.P,R35,1*
G04 #@! TO.N,VCC*
X129540000Y-105410000D03*
D15*
G04 #@! TO.P,R35,2*
G04 #@! TO.N,/and5*
X129540000Y-100330000D03*
G04 #@! TD*
D13*
G04 #@! TO.P,R36,1*
G04 #@! TO.N,VCC*
X129540000Y-107950000D03*
D15*
G04 #@! TO.P,R36,2*
G04 #@! TO.N,/nand5*
X129540000Y-113030000D03*
G04 #@! TD*
D13*
G04 #@! TO.P,R37,1*
G04 #@! TO.N,GND*
X83820000Y-91440000D03*
D15*
G04 #@! TO.P,R37,2*
G04 #@! TO.N,/a6*
X83820000Y-86360000D03*
G04 #@! TD*
D13*
G04 #@! TO.P,R38,1*
G04 #@! TO.N,/b6*
X96520000Y-99060000D03*
D15*
G04 #@! TO.P,R38,2*
G04 #@! TO.N,GND*
X96520000Y-93980000D03*
G04 #@! TD*
D13*
G04 #@! TO.P,R39,1*
G04 #@! TO.N,VCC*
X119380000Y-90170000D03*
D15*
G04 #@! TO.P,R39,2*
G04 #@! TO.N,/nor6*
X119380000Y-85090000D03*
G04 #@! TD*
D13*
G04 #@! TO.P,R40,1*
G04 #@! TO.N,VCC*
X119380000Y-92710000D03*
D15*
G04 #@! TO.P,R40,2*
G04 #@! TO.N,/or6*
X119380000Y-97790000D03*
G04 #@! TD*
D13*
G04 #@! TO.P,R41,1*
G04 #@! TO.N,VCC*
X119380000Y-105410000D03*
D15*
G04 #@! TO.P,R41,2*
G04 #@! TO.N,/and6*
X119380000Y-100330000D03*
G04 #@! TD*
D13*
G04 #@! TO.P,R42,1*
G04 #@! TO.N,VCC*
X119380000Y-107950000D03*
D15*
G04 #@! TO.P,R42,2*
G04 #@! TO.N,/nand6*
X119380000Y-113030000D03*
G04 #@! TD*
D13*
G04 #@! TO.P,R43,1*
G04 #@! TO.N,GND*
X81280000Y-91440000D03*
D15*
G04 #@! TO.P,R43,2*
G04 #@! TO.N,/a7*
X81280000Y-86360000D03*
G04 #@! TD*
D13*
G04 #@! TO.P,R44,1*
G04 #@! TO.N,/b7*
X99060000Y-99060000D03*
D15*
G04 #@! TO.P,R44,2*
G04 #@! TO.N,GND*
X99060000Y-93980000D03*
G04 #@! TD*
D13*
G04 #@! TO.P,R45,1*
G04 #@! TO.N,VCC*
X109220000Y-90170000D03*
D15*
G04 #@! TO.P,R45,2*
G04 #@! TO.N,/nor7*
X109220000Y-85090000D03*
G04 #@! TD*
D13*
G04 #@! TO.P,R46,1*
G04 #@! TO.N,VCC*
X109220000Y-92710000D03*
D15*
G04 #@! TO.P,R46,2*
G04 #@! TO.N,/or7*
X109220000Y-97790000D03*
G04 #@! TD*
D13*
G04 #@! TO.P,R47,1*
G04 #@! TO.N,VCC*
X109220000Y-105410000D03*
D15*
G04 #@! TO.P,R47,2*
G04 #@! TO.N,/and7*
X109220000Y-100330000D03*
G04 #@! TD*
D13*
G04 #@! TO.P,R48,1*
G04 #@! TO.N,VCC*
X109220000Y-107950000D03*
D15*
G04 #@! TO.P,R48,2*
G04 #@! TO.N,/nand7*
X109220000Y-113030000D03*
G04 #@! TD*
D16*
G04 #@! TO.P,D1,2*
G04 #@! TO.N,Net-(D1-Pad2)*
X99060000Y-50800000D03*
G04 #@! TO.P,D1,1*
G04 #@! TO.N,Net-(D1-Pad1)*
X99060000Y-52560000D03*
G04 #@! TD*
G04 #@! TO.P,D2,1*
G04 #@! TO.N,Net-(D2-Pad1)*
X96520000Y-52560000D03*
G04 #@! TO.P,D2,2*
G04 #@! TO.N,Net-(D1-Pad2)*
X96520000Y-50800000D03*
G04 #@! TD*
G04 #@! TO.P,D3,2*
G04 #@! TO.N,Net-(D1-Pad2)*
X93980000Y-50800000D03*
G04 #@! TO.P,D3,1*
G04 #@! TO.N,Net-(D3-Pad1)*
X93980000Y-52560000D03*
G04 #@! TD*
G04 #@! TO.P,D4,2*
G04 #@! TO.N,Net-(D1-Pad2)*
X91440000Y-50800000D03*
G04 #@! TO.P,D4,1*
G04 #@! TO.N,Net-(D4-Pad1)*
X91440000Y-52560000D03*
G04 #@! TD*
G04 #@! TO.P,D5,1*
G04 #@! TO.N,Net-(D5-Pad1)*
X88900000Y-52560000D03*
G04 #@! TO.P,D5,2*
G04 #@! TO.N,Net-(D1-Pad2)*
X88900000Y-50800000D03*
G04 #@! TD*
G04 #@! TO.P,D6,1*
G04 #@! TO.N,Net-(D6-Pad1)*
X86360000Y-52560000D03*
G04 #@! TO.P,D6,2*
G04 #@! TO.N,Net-(D1-Pad2)*
X86360000Y-50800000D03*
G04 #@! TD*
G04 #@! TO.P,D7,2*
G04 #@! TO.N,Net-(D1-Pad2)*
X83820000Y-50800000D03*
G04 #@! TO.P,D7,1*
G04 #@! TO.N,Net-(D7-Pad1)*
X83820000Y-52560000D03*
G04 #@! TD*
G04 #@! TO.P,D8,1*
G04 #@! TO.N,Net-(D8-Pad1)*
X81280000Y-52560000D03*
G04 #@! TO.P,D8,2*
G04 #@! TO.N,Net-(D1-Pad2)*
X81280000Y-50800000D03*
G04 #@! TD*
G04 #@! TO.P,D9,2*
G04 #@! TO.N,Net-(D1-Pad2)*
X121920000Y-50800000D03*
G04 #@! TO.P,D9,1*
G04 #@! TO.N,Net-(D9-Pad1)*
X121920000Y-52560000D03*
G04 #@! TD*
G04 #@! TO.P,D10,2*
G04 #@! TO.N,Net-(D1-Pad2)*
X119380000Y-50800000D03*
G04 #@! TO.P,D10,1*
G04 #@! TO.N,Net-(D10-Pad1)*
X119380000Y-52560000D03*
G04 #@! TD*
G04 #@! TO.P,D11,1*
G04 #@! TO.N,Net-(D11-Pad1)*
X116840000Y-52560000D03*
G04 #@! TO.P,D11,2*
G04 #@! TO.N,Net-(D1-Pad2)*
X116840000Y-50800000D03*
G04 #@! TD*
G04 #@! TO.P,D12,1*
G04 #@! TO.N,Net-(D12-Pad1)*
X114300000Y-52560000D03*
G04 #@! TO.P,D12,2*
G04 #@! TO.N,Net-(D1-Pad2)*
X114300000Y-50800000D03*
G04 #@! TD*
G04 #@! TO.P,D13,1*
G04 #@! TO.N,Net-(D13-Pad1)*
X111760000Y-52560000D03*
G04 #@! TO.P,D13,2*
G04 #@! TO.N,Net-(D1-Pad2)*
X111760000Y-50800000D03*
G04 #@! TD*
G04 #@! TO.P,D14,2*
G04 #@! TO.N,Net-(D1-Pad2)*
X109220000Y-50800000D03*
G04 #@! TO.P,D14,1*
G04 #@! TO.N,Net-(D14-Pad1)*
X109220000Y-52560000D03*
G04 #@! TD*
G04 #@! TO.P,D15,2*
G04 #@! TO.N,Net-(D1-Pad2)*
X106680000Y-50800000D03*
G04 #@! TO.P,D15,1*
G04 #@! TO.N,Net-(D15-Pad1)*
X106680000Y-52560000D03*
G04 #@! TD*
G04 #@! TO.P,D16,2*
G04 #@! TO.N,Net-(D1-Pad2)*
X104140000Y-50800000D03*
G04 #@! TO.P,D16,1*
G04 #@! TO.N,Net-(D16-Pad1)*
X104140000Y-52560000D03*
G04 #@! TD*
G04 #@! TO.P,D17,1*
G04 #@! TO.N,Net-(D17-Pad1)*
X144780000Y-52560000D03*
G04 #@! TO.P,D17,2*
G04 #@! TO.N,Net-(D1-Pad2)*
X144780000Y-50800000D03*
G04 #@! TD*
G04 #@! TO.P,D18,1*
G04 #@! TO.N,Net-(D18-Pad1)*
X142240000Y-52560000D03*
G04 #@! TO.P,D18,2*
G04 #@! TO.N,Net-(D1-Pad2)*
X142240000Y-50800000D03*
G04 #@! TD*
G04 #@! TO.P,D19,2*
G04 #@! TO.N,Net-(D1-Pad2)*
X139700000Y-50800000D03*
G04 #@! TO.P,D19,1*
G04 #@! TO.N,Net-(D19-Pad1)*
X139700000Y-52560000D03*
G04 #@! TD*
G04 #@! TO.P,D20,2*
G04 #@! TO.N,Net-(D1-Pad2)*
X137160000Y-50800000D03*
G04 #@! TO.P,D20,1*
G04 #@! TO.N,Net-(D20-Pad1)*
X137160000Y-52560000D03*
G04 #@! TD*
G04 #@! TO.P,D21,2*
G04 #@! TO.N,Net-(D1-Pad2)*
X134620000Y-50800000D03*
G04 #@! TO.P,D21,1*
G04 #@! TO.N,Net-(D21-Pad1)*
X134620000Y-52560000D03*
G04 #@! TD*
G04 #@! TO.P,D22,2*
G04 #@! TO.N,Net-(D1-Pad2)*
X132080000Y-50800000D03*
G04 #@! TO.P,D22,1*
G04 #@! TO.N,Net-(D22-Pad1)*
X132080000Y-52560000D03*
G04 #@! TD*
G04 #@! TO.P,D23,2*
G04 #@! TO.N,Net-(D1-Pad2)*
X129540000Y-50800000D03*
G04 #@! TO.P,D23,1*
G04 #@! TO.N,Net-(D23-Pad1)*
X129540000Y-52560000D03*
G04 #@! TD*
G04 #@! TO.P,D24,1*
G04 #@! TO.N,Net-(D24-Pad1)*
X127000000Y-52560000D03*
G04 #@! TO.P,D24,2*
G04 #@! TO.N,Net-(D1-Pad2)*
X127000000Y-50800000D03*
G04 #@! TD*
G04 #@! TO.P,D25,1*
G04 #@! TO.N,Net-(D25-Pad1)*
X167640000Y-52560000D03*
G04 #@! TO.P,D25,2*
G04 #@! TO.N,Net-(D1-Pad2)*
X167640000Y-50800000D03*
G04 #@! TD*
G04 #@! TO.P,D26,1*
G04 #@! TO.N,Net-(D26-Pad1)*
X165100000Y-52560000D03*
G04 #@! TO.P,D26,2*
G04 #@! TO.N,Net-(D1-Pad2)*
X165100000Y-50800000D03*
G04 #@! TD*
G04 #@! TO.P,D27,1*
G04 #@! TO.N,Net-(D27-Pad1)*
X162560000Y-52560000D03*
G04 #@! TO.P,D27,2*
G04 #@! TO.N,Net-(D1-Pad2)*
X162560000Y-50800000D03*
G04 #@! TD*
G04 #@! TO.P,D28,2*
G04 #@! TO.N,Net-(D1-Pad2)*
X160020000Y-50800000D03*
G04 #@! TO.P,D28,1*
G04 #@! TO.N,Net-(D28-Pad1)*
X160020000Y-52560000D03*
G04 #@! TD*
G04 #@! TO.P,D29,2*
G04 #@! TO.N,Net-(D1-Pad2)*
X157480000Y-50800000D03*
G04 #@! TO.P,D29,1*
G04 #@! TO.N,Net-(D29-Pad1)*
X157480000Y-52560000D03*
G04 #@! TD*
G04 #@! TO.P,D30,2*
G04 #@! TO.N,Net-(D1-Pad2)*
X154940000Y-50800000D03*
G04 #@! TO.P,D30,1*
G04 #@! TO.N,Net-(D30-Pad1)*
X154940000Y-52560000D03*
G04 #@! TD*
G04 #@! TO.P,D31,1*
G04 #@! TO.N,Net-(D31-Pad1)*
X152400000Y-52560000D03*
G04 #@! TO.P,D31,2*
G04 #@! TO.N,Net-(D1-Pad2)*
X152400000Y-50800000D03*
G04 #@! TD*
G04 #@! TO.P,D32,2*
G04 #@! TO.N,Net-(D1-Pad2)*
X149860000Y-50800000D03*
G04 #@! TO.P,D32,1*
G04 #@! TO.N,Net-(D32-Pad1)*
X149860000Y-52560000D03*
G04 #@! TD*
G04 #@! TO.P,D33,2*
G04 #@! TO.N,Net-(D1-Pad2)*
X190500000Y-50800000D03*
G04 #@! TO.P,D33,1*
G04 #@! TO.N,Net-(D33-Pad1)*
X190500000Y-52560000D03*
G04 #@! TD*
G04 #@! TO.P,D34,1*
G04 #@! TO.N,Net-(D34-Pad1)*
X187960000Y-52560000D03*
G04 #@! TO.P,D34,2*
G04 #@! TO.N,Net-(D1-Pad2)*
X187960000Y-50800000D03*
G04 #@! TD*
G04 #@! TO.P,D35,1*
G04 #@! TO.N,Net-(D35-Pad1)*
X185420000Y-52560000D03*
G04 #@! TO.P,D35,2*
G04 #@! TO.N,Net-(D1-Pad2)*
X185420000Y-50800000D03*
G04 #@! TD*
G04 #@! TO.P,D36,1*
G04 #@! TO.N,Net-(D36-Pad1)*
X182880000Y-52560000D03*
G04 #@! TO.P,D36,2*
G04 #@! TO.N,Net-(D1-Pad2)*
X182880000Y-50800000D03*
G04 #@! TD*
G04 #@! TO.P,D37,1*
G04 #@! TO.N,Net-(D37-Pad1)*
X180340000Y-52560000D03*
G04 #@! TO.P,D37,2*
G04 #@! TO.N,Net-(D1-Pad2)*
X180340000Y-50800000D03*
G04 #@! TD*
G04 #@! TO.P,D38,1*
G04 #@! TO.N,Net-(D38-Pad1)*
X177800000Y-52560000D03*
G04 #@! TO.P,D38,2*
G04 #@! TO.N,Net-(D1-Pad2)*
X177800000Y-50800000D03*
G04 #@! TD*
G04 #@! TO.P,D39,1*
G04 #@! TO.N,Net-(D39-Pad1)*
X175260000Y-52560000D03*
G04 #@! TO.P,D39,2*
G04 #@! TO.N,Net-(D1-Pad2)*
X175260000Y-50800000D03*
G04 #@! TD*
G04 #@! TO.P,D40,2*
G04 #@! TO.N,Net-(D1-Pad2)*
X172720000Y-50800000D03*
G04 #@! TO.P,D40,1*
G04 #@! TO.N,Net-(D40-Pad1)*
X172720000Y-52560000D03*
G04 #@! TD*
G04 #@! TO.P,D41,1*
G04 #@! TO.N,Net-(D41-Pad1)*
X213360000Y-52560000D03*
G04 #@! TO.P,D41,2*
G04 #@! TO.N,Net-(D1-Pad2)*
X213360000Y-50800000D03*
G04 #@! TD*
G04 #@! TO.P,D42,2*
G04 #@! TO.N,Net-(D1-Pad2)*
X210820000Y-50800000D03*
G04 #@! TO.P,D42,1*
G04 #@! TO.N,Net-(D42-Pad1)*
X210820000Y-52560000D03*
G04 #@! TD*
G04 #@! TO.P,D43,2*
G04 #@! TO.N,Net-(D1-Pad2)*
X208280000Y-50800000D03*
G04 #@! TO.P,D43,1*
G04 #@! TO.N,Net-(D43-Pad1)*
X208280000Y-52560000D03*
G04 #@! TD*
G04 #@! TO.P,D44,1*
G04 #@! TO.N,Net-(D44-Pad1)*
X205740000Y-52560000D03*
G04 #@! TO.P,D44,2*
G04 #@! TO.N,Net-(D1-Pad2)*
X205740000Y-50800000D03*
G04 #@! TD*
G04 #@! TO.P,D45,1*
G04 #@! TO.N,Net-(D45-Pad1)*
X203200000Y-52560000D03*
G04 #@! TO.P,D45,2*
G04 #@! TO.N,Net-(D1-Pad2)*
X203200000Y-50800000D03*
G04 #@! TD*
G04 #@! TO.P,D46,1*
G04 #@! TO.N,Net-(D46-Pad1)*
X200660000Y-52560000D03*
G04 #@! TO.P,D46,2*
G04 #@! TO.N,Net-(D1-Pad2)*
X200660000Y-50800000D03*
G04 #@! TD*
G04 #@! TO.P,D47,2*
G04 #@! TO.N,Net-(D1-Pad2)*
X198120000Y-50800000D03*
G04 #@! TO.P,D47,1*
G04 #@! TO.N,Net-(D47-Pad1)*
X198120000Y-52560000D03*
G04 #@! TD*
G04 #@! TO.P,D48,2*
G04 #@! TO.N,Net-(D1-Pad2)*
X195580000Y-50800000D03*
G04 #@! TO.P,D48,1*
G04 #@! TO.N,Net-(D48-Pad1)*
X195580000Y-52560000D03*
G04 #@! TD*
D17*
G04 #@! TO.P,JP1,1*
G04 #@! TO.N,VCC*
X218440000Y-50800000D03*
D18*
G04 #@! TO.P,JP1,2*
G04 #@! TO.N,Net-(D1-Pad2)*
X215900000Y-50800000D03*
G04 #@! TD*
D19*
G04 #@! TO.P,JP2,2*
G04 #@! TO.N,Net-(D1-Pad2)*
X216445000Y-48260000D03*
D20*
G04 #@! TD*
G04 #@! TO.N,Net-(D1-Pad2)*
G04 #@! TO.C,JP2*
G36*
X215945000Y-47510000D02*
X217095000Y-47510000D01*
X216595000Y-48260000D01*
X217095000Y-49010000D01*
X215945000Y-49010000D01*
X215945000Y-47510000D01*
X215945000Y-47510000D01*
G37*
D19*
G04 #@! TO.P,JP2,1*
G04 #@! TO.N,VCC*
X217895000Y-48260000D03*
D20*
G04 #@! TD*
G04 #@! TO.N,VCC*
G04 #@! TO.C,JP2*
G36*
X216895000Y-48260000D02*
X217395000Y-47510000D01*
X218395000Y-47510000D01*
X218395000Y-49010000D01*
X217395000Y-49010000D01*
X216895000Y-48260000D01*
X216895000Y-48260000D01*
G37*
D21*
G04 #@! TO.P,Q49,1*
G04 #@! TO.N,GND*
X98110000Y-61420000D03*
G04 #@! TO.P,Q49,2*
G04 #@! TO.N,/a0*
X100010000Y-61420000D03*
G04 #@! TO.P,Q49,3*
G04 #@! TO.N,Net-(Q49-Pad3)*
X99060000Y-58420000D03*
G04 #@! TD*
G04 #@! TO.P,Q50,1*
G04 #@! TO.N,GND*
X95570000Y-65230000D03*
G04 #@! TO.P,Q50,2*
G04 #@! TO.N,/a1*
X97470000Y-65230000D03*
G04 #@! TO.P,Q50,3*
G04 #@! TO.N,Net-(Q50-Pad3)*
X96520000Y-62230000D03*
G04 #@! TD*
G04 #@! TO.P,Q51,1*
G04 #@! TO.N,GND*
X93030000Y-61420000D03*
G04 #@! TO.P,Q51,2*
G04 #@! TO.N,/a2*
X94930000Y-61420000D03*
G04 #@! TO.P,Q51,3*
G04 #@! TO.N,Net-(Q51-Pad3)*
X93980000Y-58420000D03*
G04 #@! TD*
G04 #@! TO.P,Q52,1*
G04 #@! TO.N,GND*
X90490000Y-65230000D03*
G04 #@! TO.P,Q52,2*
G04 #@! TO.N,/a3*
X92390000Y-65230000D03*
G04 #@! TO.P,Q52,3*
G04 #@! TO.N,Net-(Q52-Pad3)*
X91440000Y-62230000D03*
G04 #@! TD*
G04 #@! TO.P,Q53,1*
G04 #@! TO.N,GND*
X87950000Y-61420000D03*
G04 #@! TO.P,Q53,2*
G04 #@! TO.N,/a4*
X89850000Y-61420000D03*
G04 #@! TO.P,Q53,3*
G04 #@! TO.N,Net-(Q53-Pad3)*
X88900000Y-58420000D03*
G04 #@! TD*
G04 #@! TO.P,Q54,3*
G04 #@! TO.N,Net-(Q54-Pad3)*
X86360000Y-62230000D03*
G04 #@! TO.P,Q54,2*
G04 #@! TO.N,/a5*
X87310000Y-65230000D03*
G04 #@! TO.P,Q54,1*
G04 #@! TO.N,GND*
X85410000Y-65230000D03*
G04 #@! TD*
G04 #@! TO.P,Q55,1*
G04 #@! TO.N,GND*
X82870000Y-61420000D03*
G04 #@! TO.P,Q55,2*
G04 #@! TO.N,/a6*
X84770000Y-61420000D03*
G04 #@! TO.P,Q55,3*
G04 #@! TO.N,Net-(Q55-Pad3)*
X83820000Y-58420000D03*
G04 #@! TD*
G04 #@! TO.P,Q56,3*
G04 #@! TO.N,Net-(Q56-Pad3)*
X81280000Y-62230000D03*
G04 #@! TO.P,Q56,2*
G04 #@! TO.N,/a7*
X82230000Y-65230000D03*
G04 #@! TO.P,Q56,1*
G04 #@! TO.N,GND*
X80330000Y-65230000D03*
G04 #@! TD*
G04 #@! TO.P,Q57,1*
G04 #@! TO.N,GND*
X120970000Y-61420000D03*
G04 #@! TO.P,Q57,2*
G04 #@! TO.N,/b0*
X122870000Y-61420000D03*
G04 #@! TO.P,Q57,3*
G04 #@! TO.N,Net-(Q57-Pad3)*
X121920000Y-58420000D03*
G04 #@! TD*
G04 #@! TO.P,Q58,1*
G04 #@! TO.N,GND*
X118430000Y-65230000D03*
G04 #@! TO.P,Q58,2*
G04 #@! TO.N,/b1*
X120330000Y-65230000D03*
G04 #@! TO.P,Q58,3*
G04 #@! TO.N,Net-(Q58-Pad3)*
X119380000Y-62230000D03*
G04 #@! TD*
G04 #@! TO.P,Q59,3*
G04 #@! TO.N,Net-(Q59-Pad3)*
X116840000Y-58420000D03*
G04 #@! TO.P,Q59,2*
G04 #@! TO.N,/b2*
X117790000Y-61420000D03*
G04 #@! TO.P,Q59,1*
G04 #@! TO.N,GND*
X115890000Y-61420000D03*
G04 #@! TD*
G04 #@! TO.P,Q60,3*
G04 #@! TO.N,Net-(Q60-Pad3)*
X114300000Y-62230000D03*
G04 #@! TO.P,Q60,2*
G04 #@! TO.N,/b3*
X115250000Y-65230000D03*
G04 #@! TO.P,Q60,1*
G04 #@! TO.N,GND*
X113350000Y-65230000D03*
G04 #@! TD*
G04 #@! TO.P,Q61,1*
G04 #@! TO.N,GND*
X110810000Y-61420000D03*
G04 #@! TO.P,Q61,2*
G04 #@! TO.N,/b4*
X112710000Y-61420000D03*
G04 #@! TO.P,Q61,3*
G04 #@! TO.N,Net-(Q61-Pad3)*
X111760000Y-58420000D03*
G04 #@! TD*
G04 #@! TO.P,Q62,1*
G04 #@! TO.N,GND*
X108270000Y-65230000D03*
G04 #@! TO.P,Q62,2*
G04 #@! TO.N,/b5*
X110170000Y-65230000D03*
G04 #@! TO.P,Q62,3*
G04 #@! TO.N,Net-(Q62-Pad3)*
X109220000Y-62230000D03*
G04 #@! TD*
G04 #@! TO.P,Q63,1*
G04 #@! TO.N,GND*
X105730000Y-61420000D03*
G04 #@! TO.P,Q63,2*
G04 #@! TO.N,/b6*
X107630000Y-61420000D03*
G04 #@! TO.P,Q63,3*
G04 #@! TO.N,Net-(Q63-Pad3)*
X106680000Y-58420000D03*
G04 #@! TD*
G04 #@! TO.P,Q64,1*
G04 #@! TO.N,GND*
X103190000Y-65230000D03*
G04 #@! TO.P,Q64,2*
G04 #@! TO.N,/b7*
X105090000Y-65230000D03*
G04 #@! TO.P,Q64,3*
G04 #@! TO.N,Net-(Q64-Pad3)*
X104140000Y-62230000D03*
G04 #@! TD*
G04 #@! TO.P,Q65,3*
G04 #@! TO.N,Net-(Q65-Pad3)*
X144780000Y-58420000D03*
G04 #@! TO.P,Q65,2*
G04 #@! TO.N,/nor0*
X145730000Y-61420000D03*
G04 #@! TO.P,Q65,1*
G04 #@! TO.N,GND*
X143830000Y-61420000D03*
G04 #@! TD*
G04 #@! TO.P,Q66,1*
G04 #@! TO.N,GND*
X141290000Y-65230000D03*
G04 #@! TO.P,Q66,2*
G04 #@! TO.N,/nor1*
X143190000Y-65230000D03*
G04 #@! TO.P,Q66,3*
G04 #@! TO.N,Net-(Q66-Pad3)*
X142240000Y-62230000D03*
G04 #@! TD*
G04 #@! TO.P,Q67,3*
G04 #@! TO.N,Net-(Q67-Pad3)*
X139700000Y-58420000D03*
G04 #@! TO.P,Q67,2*
G04 #@! TO.N,/nor2*
X140650000Y-61420000D03*
G04 #@! TO.P,Q67,1*
G04 #@! TO.N,GND*
X138750000Y-61420000D03*
G04 #@! TD*
G04 #@! TO.P,Q68,3*
G04 #@! TO.N,Net-(Q68-Pad3)*
X137160000Y-62230000D03*
G04 #@! TO.P,Q68,2*
G04 #@! TO.N,/nor3*
X138110000Y-65230000D03*
G04 #@! TO.P,Q68,1*
G04 #@! TO.N,GND*
X136210000Y-65230000D03*
G04 #@! TD*
G04 #@! TO.P,Q69,3*
G04 #@! TO.N,Net-(Q69-Pad3)*
X134620000Y-58420000D03*
G04 #@! TO.P,Q69,2*
G04 #@! TO.N,/nor4*
X135570000Y-61420000D03*
G04 #@! TO.P,Q69,1*
G04 #@! TO.N,GND*
X133670000Y-61420000D03*
G04 #@! TD*
G04 #@! TO.P,Q70,1*
G04 #@! TO.N,GND*
X130875001Y-65230000D03*
G04 #@! TO.P,Q70,2*
G04 #@! TO.N,/nor5*
X132775001Y-65230000D03*
G04 #@! TO.P,Q70,3*
G04 #@! TO.N,Net-(Q70-Pad3)*
X131825001Y-62230000D03*
G04 #@! TD*
G04 #@! TO.P,Q71,3*
G04 #@! TO.N,Net-(Q71-Pad3)*
X129540000Y-58420000D03*
G04 #@! TO.P,Q71,2*
G04 #@! TO.N,/nor6*
X130490000Y-61420000D03*
G04 #@! TO.P,Q71,1*
G04 #@! TO.N,GND*
X128590000Y-61420000D03*
G04 #@! TD*
G04 #@! TO.P,Q72,3*
G04 #@! TO.N,Net-(Q72-Pad3)*
X127000000Y-62230000D03*
G04 #@! TO.P,Q72,2*
G04 #@! TO.N,/nor7*
X127950000Y-65230000D03*
G04 #@! TO.P,Q72,1*
G04 #@! TO.N,GND*
X126050000Y-65230000D03*
G04 #@! TD*
G04 #@! TO.P,Q73,1*
G04 #@! TO.N,GND*
X166690000Y-61420000D03*
G04 #@! TO.P,Q73,2*
G04 #@! TO.N,/nand0*
X168590000Y-61420000D03*
G04 #@! TO.P,Q73,3*
G04 #@! TO.N,Net-(Q73-Pad3)*
X167640000Y-58420000D03*
G04 #@! TD*
G04 #@! TO.P,Q74,1*
G04 #@! TO.N,GND*
X164150000Y-65230000D03*
G04 #@! TO.P,Q74,2*
G04 #@! TO.N,/nand1*
X166050000Y-65230000D03*
G04 #@! TO.P,Q74,3*
G04 #@! TO.N,Net-(Q74-Pad3)*
X165100000Y-62230000D03*
G04 #@! TD*
G04 #@! TO.P,Q75,1*
G04 #@! TO.N,GND*
X161610000Y-61420000D03*
G04 #@! TO.P,Q75,2*
G04 #@! TO.N,/nand2*
X163510000Y-61420000D03*
G04 #@! TO.P,Q75,3*
G04 #@! TO.N,Net-(Q75-Pad3)*
X162560000Y-58420000D03*
G04 #@! TD*
G04 #@! TO.P,Q76,1*
G04 #@! TO.N,GND*
X159070000Y-65230000D03*
G04 #@! TO.P,Q76,2*
G04 #@! TO.N,/nand3*
X160970000Y-65230000D03*
G04 #@! TO.P,Q76,3*
G04 #@! TO.N,Net-(Q76-Pad3)*
X160020000Y-62230000D03*
G04 #@! TD*
G04 #@! TO.P,Q77,3*
G04 #@! TO.N,Net-(Q77-Pad3)*
X157480000Y-58420000D03*
G04 #@! TO.P,Q77,2*
G04 #@! TO.N,/nand4*
X158430000Y-61420000D03*
G04 #@! TO.P,Q77,1*
G04 #@! TO.N,GND*
X156530000Y-61420000D03*
G04 #@! TD*
G04 #@! TO.P,Q78,1*
G04 #@! TO.N,GND*
X153990000Y-65230000D03*
G04 #@! TO.P,Q78,2*
G04 #@! TO.N,/nand5*
X155890000Y-65230000D03*
G04 #@! TO.P,Q78,3*
G04 #@! TO.N,Net-(Q78-Pad3)*
X154940000Y-62230000D03*
G04 #@! TD*
G04 #@! TO.P,Q79,3*
G04 #@! TO.N,Net-(Q79-Pad3)*
X152400000Y-58420000D03*
G04 #@! TO.P,Q79,2*
G04 #@! TO.N,/nand6*
X153350000Y-61420000D03*
G04 #@! TO.P,Q79,1*
G04 #@! TO.N,GND*
X151450000Y-61420000D03*
G04 #@! TD*
G04 #@! TO.P,Q80,1*
G04 #@! TO.N,GND*
X148910000Y-65230000D03*
G04 #@! TO.P,Q80,2*
G04 #@! TO.N,/nand7*
X150810000Y-65230000D03*
G04 #@! TO.P,Q80,3*
G04 #@! TO.N,Net-(Q80-Pad3)*
X149860000Y-62230000D03*
G04 #@! TD*
G04 #@! TO.P,Q81,3*
G04 #@! TO.N,Net-(Q81-Pad3)*
X190500000Y-58420000D03*
G04 #@! TO.P,Q81,2*
G04 #@! TO.N,/and0*
X191450000Y-61420000D03*
G04 #@! TO.P,Q81,1*
G04 #@! TO.N,GND*
X189550000Y-61420000D03*
G04 #@! TD*
G04 #@! TO.P,Q82,3*
G04 #@! TO.N,Net-(Q82-Pad3)*
X187960000Y-62230000D03*
G04 #@! TO.P,Q82,2*
G04 #@! TO.N,/and1*
X188910000Y-65230000D03*
G04 #@! TO.P,Q82,1*
G04 #@! TO.N,GND*
X187010000Y-65230000D03*
G04 #@! TD*
G04 #@! TO.P,Q83,3*
G04 #@! TO.N,Net-(Q83-Pad3)*
X185420000Y-58420000D03*
G04 #@! TO.P,Q83,2*
G04 #@! TO.N,/and2*
X186370000Y-61420000D03*
G04 #@! TO.P,Q83,1*
G04 #@! TO.N,GND*
X184470000Y-61420000D03*
G04 #@! TD*
G04 #@! TO.P,Q84,1*
G04 #@! TO.N,GND*
X181930000Y-65230000D03*
G04 #@! TO.P,Q84,2*
G04 #@! TO.N,/and3*
X183830000Y-65230000D03*
G04 #@! TO.P,Q84,3*
G04 #@! TO.N,Net-(Q84-Pad3)*
X182880000Y-62230000D03*
G04 #@! TD*
G04 #@! TO.P,Q85,3*
G04 #@! TO.N,Net-(Q85-Pad3)*
X180340000Y-58420000D03*
G04 #@! TO.P,Q85,2*
G04 #@! TO.N,/and4*
X181290000Y-61420000D03*
G04 #@! TO.P,Q85,1*
G04 #@! TO.N,GND*
X179390000Y-61420000D03*
G04 #@! TD*
G04 #@! TO.P,Q86,3*
G04 #@! TO.N,Net-(Q86-Pad3)*
X177800000Y-62230000D03*
G04 #@! TO.P,Q86,2*
G04 #@! TO.N,/and5*
X178750000Y-65230000D03*
G04 #@! TO.P,Q86,1*
G04 #@! TO.N,GND*
X176850000Y-65230000D03*
G04 #@! TD*
G04 #@! TO.P,Q87,1*
G04 #@! TO.N,GND*
X174310000Y-61420000D03*
G04 #@! TO.P,Q87,2*
G04 #@! TO.N,/and6*
X176210000Y-61420000D03*
G04 #@! TO.P,Q87,3*
G04 #@! TO.N,Net-(Q87-Pad3)*
X175260000Y-58420000D03*
G04 #@! TD*
G04 #@! TO.P,Q88,3*
G04 #@! TO.N,Net-(Q88-Pad3)*
X172720000Y-62230000D03*
G04 #@! TO.P,Q88,2*
G04 #@! TO.N,/and7*
X173670000Y-65230000D03*
G04 #@! TO.P,Q88,1*
G04 #@! TO.N,GND*
X171770000Y-65230000D03*
G04 #@! TD*
G04 #@! TO.P,Q89,3*
G04 #@! TO.N,Net-(Q89-Pad3)*
X213360000Y-58420000D03*
G04 #@! TO.P,Q89,2*
G04 #@! TO.N,/or0*
X214310000Y-61420000D03*
G04 #@! TO.P,Q89,1*
G04 #@! TO.N,GND*
X212410000Y-61420000D03*
G04 #@! TD*
G04 #@! TO.P,Q90,3*
G04 #@! TO.N,Net-(Q90-Pad3)*
X210820000Y-62230000D03*
G04 #@! TO.P,Q90,2*
G04 #@! TO.N,/or1*
X211770000Y-65230000D03*
G04 #@! TO.P,Q90,1*
G04 #@! TO.N,GND*
X209870000Y-65230000D03*
G04 #@! TD*
G04 #@! TO.P,Q91,3*
G04 #@! TO.N,Net-(Q91-Pad3)*
X208280000Y-58420000D03*
G04 #@! TO.P,Q91,2*
G04 #@! TO.N,/or2*
X209230000Y-61420000D03*
G04 #@! TO.P,Q91,1*
G04 #@! TO.N,GND*
X207330000Y-61420000D03*
G04 #@! TD*
G04 #@! TO.P,Q92,3*
G04 #@! TO.N,Net-(Q92-Pad3)*
X205740000Y-62230000D03*
G04 #@! TO.P,Q92,2*
G04 #@! TO.N,/or3*
X206690000Y-65230000D03*
G04 #@! TO.P,Q92,1*
G04 #@! TO.N,GND*
X204790000Y-65230000D03*
G04 #@! TD*
G04 #@! TO.P,Q93,1*
G04 #@! TO.N,GND*
X202250000Y-61420000D03*
G04 #@! TO.P,Q93,2*
G04 #@! TO.N,/or4*
X204150000Y-61420000D03*
G04 #@! TO.P,Q93,3*
G04 #@! TO.N,Net-(Q93-Pad3)*
X203200000Y-58420000D03*
G04 #@! TD*
G04 #@! TO.P,Q94,3*
G04 #@! TO.N,Net-(Q94-Pad3)*
X200660000Y-62230000D03*
G04 #@! TO.P,Q94,2*
G04 #@! TO.N,/or5*
X201610000Y-65230000D03*
G04 #@! TO.P,Q94,1*
G04 #@! TO.N,GND*
X199710000Y-65230000D03*
G04 #@! TD*
G04 #@! TO.P,Q95,1*
G04 #@! TO.N,GND*
X197170000Y-61420000D03*
G04 #@! TO.P,Q95,2*
G04 #@! TO.N,/or6*
X199070000Y-61420000D03*
G04 #@! TO.P,Q95,3*
G04 #@! TO.N,Net-(Q95-Pad3)*
X198120000Y-58420000D03*
G04 #@! TD*
G04 #@! TO.P,Q96,3*
G04 #@! TO.N,Net-(Q96-Pad3)*
X195580000Y-62230000D03*
G04 #@! TO.P,Q96,2*
G04 #@! TO.N,/or7*
X196530000Y-65230000D03*
G04 #@! TO.P,Q96,1*
G04 #@! TO.N,GND*
X194630000Y-65230000D03*
G04 #@! TD*
D22*
G04 #@! TO.P,R81,2*
G04 #@! TO.N,Net-(Q81-Pad3)*
X190500000Y-56545000D03*
G04 #@! TO.P,R81,1*
G04 #@! TO.N,Net-(D33-Pad1)*
X190500000Y-54610000D03*
G04 #@! TD*
G04 #@! TO.P,R82,2*
G04 #@! TO.N,Net-(Q82-Pad3)*
X187960000Y-56545000D03*
G04 #@! TO.P,R82,1*
G04 #@! TO.N,Net-(D34-Pad1)*
X187960000Y-54610000D03*
G04 #@! TD*
G04 #@! TO.P,R83,1*
G04 #@! TO.N,Net-(D35-Pad1)*
X185420000Y-54610000D03*
G04 #@! TO.P,R83,2*
G04 #@! TO.N,Net-(Q83-Pad3)*
X185420000Y-56545000D03*
G04 #@! TD*
G04 #@! TO.P,R84,1*
G04 #@! TO.N,Net-(D36-Pad1)*
X182880000Y-54610000D03*
G04 #@! TO.P,R84,2*
G04 #@! TO.N,Net-(Q84-Pad3)*
X182880000Y-56545000D03*
G04 #@! TD*
G04 #@! TO.P,R85,2*
G04 #@! TO.N,Net-(Q85-Pad3)*
X180340000Y-56545000D03*
G04 #@! TO.P,R85,1*
G04 #@! TO.N,Net-(D37-Pad1)*
X180340000Y-54610000D03*
G04 #@! TD*
G04 #@! TO.P,R86,1*
G04 #@! TO.N,Net-(D38-Pad1)*
X177800000Y-54610000D03*
G04 #@! TO.P,R86,2*
G04 #@! TO.N,Net-(Q86-Pad3)*
X177800000Y-56545000D03*
G04 #@! TD*
G04 #@! TO.P,R87,2*
G04 #@! TO.N,Net-(Q87-Pad3)*
X175260000Y-56545000D03*
G04 #@! TO.P,R87,1*
G04 #@! TO.N,Net-(D39-Pad1)*
X175260000Y-54610000D03*
G04 #@! TD*
G04 #@! TO.P,R88,2*
G04 #@! TO.N,Net-(Q88-Pad3)*
X172720000Y-56545000D03*
G04 #@! TO.P,R88,1*
G04 #@! TO.N,Net-(D40-Pad1)*
X172720000Y-54610000D03*
G04 #@! TD*
G04 #@! TO.P,R89,2*
G04 #@! TO.N,Net-(Q89-Pad3)*
X213360000Y-56545000D03*
G04 #@! TO.P,R89,1*
G04 #@! TO.N,Net-(D41-Pad1)*
X213360000Y-54610000D03*
G04 #@! TD*
G04 #@! TO.P,R90,1*
G04 #@! TO.N,Net-(D42-Pad1)*
X210820000Y-54610000D03*
G04 #@! TO.P,R90,2*
G04 #@! TO.N,Net-(Q90-Pad3)*
X210820000Y-56545000D03*
G04 #@! TD*
G04 #@! TO.P,R91,1*
G04 #@! TO.N,Net-(D43-Pad1)*
X208280000Y-54610000D03*
G04 #@! TO.P,R91,2*
G04 #@! TO.N,Net-(Q91-Pad3)*
X208280000Y-56545000D03*
G04 #@! TD*
G04 #@! TO.P,R92,2*
G04 #@! TO.N,Net-(Q92-Pad3)*
X205740000Y-56545000D03*
G04 #@! TO.P,R92,1*
G04 #@! TO.N,Net-(D44-Pad1)*
X205740000Y-54610000D03*
G04 #@! TD*
G04 #@! TO.P,R93,1*
G04 #@! TO.N,Net-(D45-Pad1)*
X203200000Y-54610000D03*
G04 #@! TO.P,R93,2*
G04 #@! TO.N,Net-(Q93-Pad3)*
X203200000Y-56545000D03*
G04 #@! TD*
G04 #@! TO.P,R94,2*
G04 #@! TO.N,Net-(Q94-Pad3)*
X200660000Y-56545000D03*
G04 #@! TO.P,R94,1*
G04 #@! TO.N,Net-(D46-Pad1)*
X200660000Y-54610000D03*
G04 #@! TD*
G04 #@! TO.P,R95,1*
G04 #@! TO.N,Net-(D47-Pad1)*
X198120000Y-54610000D03*
G04 #@! TO.P,R95,2*
G04 #@! TO.N,Net-(Q95-Pad3)*
X198120000Y-56545000D03*
G04 #@! TD*
G04 #@! TO.P,R96,2*
G04 #@! TO.N,Net-(Q96-Pad3)*
X195580000Y-56545000D03*
G04 #@! TO.P,R96,1*
G04 #@! TO.N,Net-(D48-Pad1)*
X195580000Y-54610000D03*
G04 #@! TD*
G04 #@! TO.P,R49,1*
G04 #@! TO.N,Net-(D1-Pad1)*
X99060000Y-54610000D03*
G04 #@! TO.P,R49,2*
G04 #@! TO.N,Net-(Q49-Pad3)*
X99060000Y-56545000D03*
G04 #@! TD*
G04 #@! TO.P,R50,1*
G04 #@! TO.N,Net-(D2-Pad1)*
X96520000Y-54610000D03*
G04 #@! TO.P,R50,2*
G04 #@! TO.N,Net-(Q50-Pad3)*
X96520000Y-56545000D03*
G04 #@! TD*
G04 #@! TO.P,R51,2*
G04 #@! TO.N,Net-(Q51-Pad3)*
X93980000Y-56545000D03*
G04 #@! TO.P,R51,1*
G04 #@! TO.N,Net-(D3-Pad1)*
X93980000Y-54610000D03*
G04 #@! TD*
G04 #@! TO.P,R52,1*
G04 #@! TO.N,Net-(D4-Pad1)*
X91440000Y-54610000D03*
G04 #@! TO.P,R52,2*
G04 #@! TO.N,Net-(Q52-Pad3)*
X91440000Y-56545000D03*
G04 #@! TD*
G04 #@! TO.P,R53,2*
G04 #@! TO.N,Net-(Q53-Pad3)*
X88900000Y-56545000D03*
G04 #@! TO.P,R53,1*
G04 #@! TO.N,Net-(D5-Pad1)*
X88900000Y-54610000D03*
G04 #@! TD*
G04 #@! TO.P,R54,2*
G04 #@! TO.N,Net-(Q54-Pad3)*
X86360000Y-56545000D03*
G04 #@! TO.P,R54,1*
G04 #@! TO.N,Net-(D6-Pad1)*
X86360000Y-54610000D03*
G04 #@! TD*
G04 #@! TO.P,R55,2*
G04 #@! TO.N,Net-(Q55-Pad3)*
X83820000Y-56545000D03*
G04 #@! TO.P,R55,1*
G04 #@! TO.N,Net-(D7-Pad1)*
X83820000Y-54610000D03*
G04 #@! TD*
G04 #@! TO.P,R56,2*
G04 #@! TO.N,Net-(Q56-Pad3)*
X81280000Y-56545000D03*
G04 #@! TO.P,R56,1*
G04 #@! TO.N,Net-(D8-Pad1)*
X81280000Y-54610000D03*
G04 #@! TD*
G04 #@! TO.P,R57,2*
G04 #@! TO.N,Net-(Q57-Pad3)*
X121920000Y-56545000D03*
G04 #@! TO.P,R57,1*
G04 #@! TO.N,Net-(D9-Pad1)*
X121920000Y-54610000D03*
G04 #@! TD*
G04 #@! TO.P,R58,2*
G04 #@! TO.N,Net-(Q58-Pad3)*
X119380000Y-56545000D03*
G04 #@! TO.P,R58,1*
G04 #@! TO.N,Net-(D10-Pad1)*
X119380000Y-54610000D03*
G04 #@! TD*
G04 #@! TO.P,R59,2*
G04 #@! TO.N,Net-(Q59-Pad3)*
X116840000Y-56545000D03*
G04 #@! TO.P,R59,1*
G04 #@! TO.N,Net-(D11-Pad1)*
X116840000Y-54610000D03*
G04 #@! TD*
G04 #@! TO.P,R60,2*
G04 #@! TO.N,Net-(Q60-Pad3)*
X114300000Y-56545000D03*
G04 #@! TO.P,R60,1*
G04 #@! TO.N,Net-(D12-Pad1)*
X114300000Y-54610000D03*
G04 #@! TD*
G04 #@! TO.P,R61,1*
G04 #@! TO.N,Net-(D13-Pad1)*
X111760000Y-54610000D03*
G04 #@! TO.P,R61,2*
G04 #@! TO.N,Net-(Q61-Pad3)*
X111760000Y-56545000D03*
G04 #@! TD*
G04 #@! TO.P,R62,1*
G04 #@! TO.N,Net-(D14-Pad1)*
X109220000Y-54610000D03*
G04 #@! TO.P,R62,2*
G04 #@! TO.N,Net-(Q62-Pad3)*
X109220000Y-56545000D03*
G04 #@! TD*
G04 #@! TO.P,R63,1*
G04 #@! TO.N,Net-(D15-Pad1)*
X106680000Y-54610000D03*
G04 #@! TO.P,R63,2*
G04 #@! TO.N,Net-(Q63-Pad3)*
X106680000Y-56545000D03*
G04 #@! TD*
G04 #@! TO.P,R64,1*
G04 #@! TO.N,Net-(D16-Pad1)*
X104140000Y-54610000D03*
G04 #@! TO.P,R64,2*
G04 #@! TO.N,Net-(Q64-Pad3)*
X104140000Y-56545000D03*
G04 #@! TD*
G04 #@! TO.P,R65,1*
G04 #@! TO.N,Net-(D17-Pad1)*
X144780000Y-54610000D03*
G04 #@! TO.P,R65,2*
G04 #@! TO.N,Net-(Q65-Pad3)*
X144780000Y-56545000D03*
G04 #@! TD*
G04 #@! TO.P,R66,2*
G04 #@! TO.N,Net-(Q66-Pad3)*
X142240000Y-56545000D03*
G04 #@! TO.P,R66,1*
G04 #@! TO.N,Net-(D18-Pad1)*
X142240000Y-54610000D03*
G04 #@! TD*
G04 #@! TO.P,R67,2*
G04 #@! TO.N,Net-(Q67-Pad3)*
X139700000Y-56545000D03*
G04 #@! TO.P,R67,1*
G04 #@! TO.N,Net-(D19-Pad1)*
X139700000Y-54610000D03*
G04 #@! TD*
G04 #@! TO.P,R68,1*
G04 #@! TO.N,Net-(D20-Pad1)*
X137160000Y-54610000D03*
G04 #@! TO.P,R68,2*
G04 #@! TO.N,Net-(Q68-Pad3)*
X137160000Y-56545000D03*
G04 #@! TD*
G04 #@! TO.P,R69,1*
G04 #@! TO.N,Net-(D21-Pad1)*
X134620000Y-54610000D03*
G04 #@! TO.P,R69,2*
G04 #@! TO.N,Net-(Q69-Pad3)*
X134620000Y-56545000D03*
G04 #@! TD*
G04 #@! TO.P,R70,1*
G04 #@! TO.N,Net-(D22-Pad1)*
X132080000Y-54610000D03*
G04 #@! TO.P,R70,2*
G04 #@! TO.N,Net-(Q70-Pad3)*
X132080000Y-56545000D03*
G04 #@! TD*
G04 #@! TO.P,R71,2*
G04 #@! TO.N,Net-(Q71-Pad3)*
X129540000Y-56545000D03*
G04 #@! TO.P,R71,1*
G04 #@! TO.N,Net-(D23-Pad1)*
X129540000Y-54610000D03*
G04 #@! TD*
G04 #@! TO.P,R72,2*
G04 #@! TO.N,Net-(Q72-Pad3)*
X127000000Y-56545000D03*
G04 #@! TO.P,R72,1*
G04 #@! TO.N,Net-(D24-Pad1)*
X127000000Y-54610000D03*
G04 #@! TD*
G04 #@! TO.P,R73,2*
G04 #@! TO.N,Net-(Q73-Pad3)*
X167640000Y-56545000D03*
G04 #@! TO.P,R73,1*
G04 #@! TO.N,Net-(D25-Pad1)*
X167640000Y-54610000D03*
G04 #@! TD*
G04 #@! TO.P,R74,2*
G04 #@! TO.N,Net-(Q74-Pad3)*
X165100000Y-56545000D03*
G04 #@! TO.P,R74,1*
G04 #@! TO.N,Net-(D26-Pad1)*
X165100000Y-54610000D03*
G04 #@! TD*
G04 #@! TO.P,R75,1*
G04 #@! TO.N,Net-(D27-Pad1)*
X162560000Y-54610000D03*
G04 #@! TO.P,R75,2*
G04 #@! TO.N,Net-(Q75-Pad3)*
X162560000Y-56545000D03*
G04 #@! TD*
G04 #@! TO.P,R76,1*
G04 #@! TO.N,Net-(D28-Pad1)*
X160020000Y-54610000D03*
G04 #@! TO.P,R76,2*
G04 #@! TO.N,Net-(Q76-Pad3)*
X160020000Y-56545000D03*
G04 #@! TD*
G04 #@! TO.P,R77,1*
G04 #@! TO.N,Net-(D29-Pad1)*
X157480000Y-54610000D03*
G04 #@! TO.P,R77,2*
G04 #@! TO.N,Net-(Q77-Pad3)*
X157480000Y-56545000D03*
G04 #@! TD*
G04 #@! TO.P,R78,1*
G04 #@! TO.N,Net-(D30-Pad1)*
X154940000Y-54610000D03*
G04 #@! TO.P,R78,2*
G04 #@! TO.N,Net-(Q78-Pad3)*
X154940000Y-56545000D03*
G04 #@! TD*
G04 #@! TO.P,R79,1*
G04 #@! TO.N,Net-(D31-Pad1)*
X152400000Y-54610000D03*
G04 #@! TO.P,R79,2*
G04 #@! TO.N,Net-(Q79-Pad3)*
X152400000Y-56545000D03*
G04 #@! TD*
G04 #@! TO.P,R80,2*
G04 #@! TO.N,Net-(Q80-Pad3)*
X149860000Y-56545000D03*
G04 #@! TO.P,R80,1*
G04 #@! TO.N,Net-(D32-Pad1)*
X149860000Y-54610000D03*
G04 #@! TD*
D13*
G04 #@! TO.P,J1,8*
G04 #@! TO.N,/a7*
X81280000Y-45720000D03*
G04 #@! TO.P,J1,7*
G04 #@! TO.N,/a6*
X83820000Y-45720000D03*
G04 #@! TO.P,J1,6*
G04 #@! TO.N,/a5*
X86360000Y-45720000D03*
G04 #@! TO.P,J1,5*
G04 #@! TO.N,/a4*
X88900000Y-45720000D03*
G04 #@! TO.P,J1,4*
G04 #@! TO.N,/a3*
X91440000Y-45720000D03*
G04 #@! TO.P,J1,3*
G04 #@! TO.N,/a2*
X93980000Y-45720000D03*
G04 #@! TO.P,J1,2*
G04 #@! TO.N,/a1*
X96520000Y-45720000D03*
G04 #@! TO.P,J1,1*
G04 #@! TO.N,/a0*
X99060000Y-45720000D03*
X99060000Y-43180000D03*
G04 #@! TO.P,J1,2*
G04 #@! TO.N,/a1*
X96520000Y-43180000D03*
G04 #@! TO.P,J1,3*
G04 #@! TO.N,/a2*
X93980000Y-43180000D03*
G04 #@! TO.P,J1,4*
G04 #@! TO.N,/a3*
X91440000Y-43180000D03*
G04 #@! TO.P,J1,5*
G04 #@! TO.N,/a4*
X88900000Y-43180000D03*
G04 #@! TO.P,J1,6*
G04 #@! TO.N,/a5*
X86360000Y-43180000D03*
G04 #@! TO.P,J1,7*
G04 #@! TO.N,/a6*
X83820000Y-43180000D03*
G04 #@! TO.P,J1,8*
G04 #@! TO.N,/a7*
X81280000Y-43180000D03*
G04 #@! TD*
G04 #@! TO.P,J2,8*
G04 #@! TO.N,/b7*
X104140000Y-43180000D03*
G04 #@! TO.P,J2,7*
G04 #@! TO.N,/b6*
X106680000Y-43180000D03*
G04 #@! TO.P,J2,6*
G04 #@! TO.N,/b5*
X109220000Y-43180000D03*
G04 #@! TO.P,J2,5*
G04 #@! TO.N,/b4*
X111760000Y-43180000D03*
G04 #@! TO.P,J2,4*
G04 #@! TO.N,/b3*
X114300000Y-43180000D03*
G04 #@! TO.P,J2,3*
G04 #@! TO.N,/b2*
X116840000Y-43180000D03*
G04 #@! TO.P,J2,2*
G04 #@! TO.N,/b1*
X119380000Y-43180000D03*
G04 #@! TO.P,J2,1*
G04 #@! TO.N,/b0*
X121920000Y-43180000D03*
X121920000Y-45720000D03*
G04 #@! TO.P,J2,2*
G04 #@! TO.N,/b1*
X119380000Y-45720000D03*
G04 #@! TO.P,J2,3*
G04 #@! TO.N,/b2*
X116840000Y-45720000D03*
G04 #@! TO.P,J2,4*
G04 #@! TO.N,/b3*
X114300000Y-45720000D03*
G04 #@! TO.P,J2,5*
G04 #@! TO.N,/b4*
X111760000Y-45720000D03*
G04 #@! TO.P,J2,6*
G04 #@! TO.N,/b5*
X109220000Y-45720000D03*
G04 #@! TO.P,J2,7*
G04 #@! TO.N,/b6*
X106680000Y-45720000D03*
G04 #@! TO.P,J2,8*
G04 #@! TO.N,/b7*
X104140000Y-45720000D03*
G04 #@! TD*
G04 #@! TO.P,J3,8*
G04 #@! TO.N,/nor7*
X127000000Y-45720000D03*
G04 #@! TO.P,J3,7*
G04 #@! TO.N,/nor6*
X129540000Y-45720000D03*
G04 #@! TO.P,J3,6*
G04 #@! TO.N,/nor5*
X132080000Y-45720000D03*
G04 #@! TO.P,J3,5*
G04 #@! TO.N,/nor4*
X134620000Y-45720000D03*
G04 #@! TO.P,J3,4*
G04 #@! TO.N,/nor3*
X137160000Y-45720000D03*
G04 #@! TO.P,J3,3*
G04 #@! TO.N,/nor2*
X139700000Y-45720000D03*
G04 #@! TO.P,J3,2*
G04 #@! TO.N,/nor1*
X142240000Y-45720000D03*
G04 #@! TO.P,J3,1*
G04 #@! TO.N,/nor0*
X144780000Y-45720000D03*
X144780000Y-43180000D03*
G04 #@! TO.P,J3,2*
G04 #@! TO.N,/nor1*
X142240000Y-43180000D03*
G04 #@! TO.P,J3,3*
G04 #@! TO.N,/nor2*
X139700000Y-43180000D03*
G04 #@! TO.P,J3,4*
G04 #@! TO.N,/nor3*
X137160000Y-43180000D03*
G04 #@! TO.P,J3,5*
G04 #@! TO.N,/nor4*
X134620000Y-43180000D03*
G04 #@! TO.P,J3,6*
G04 #@! TO.N,/nor5*
X132080000Y-43180000D03*
G04 #@! TO.P,J3,7*
G04 #@! TO.N,/nor6*
X129540000Y-43180000D03*
G04 #@! TO.P,J3,8*
G04 #@! TO.N,/nor7*
X127000000Y-43180000D03*
G04 #@! TD*
G04 #@! TO.P,J4,8*
G04 #@! TO.N,/nand7*
X149860000Y-43180000D03*
G04 #@! TO.P,J4,7*
G04 #@! TO.N,/nand6*
X152400000Y-43180000D03*
G04 #@! TO.P,J4,6*
G04 #@! TO.N,/nand5*
X154940000Y-43180000D03*
G04 #@! TO.P,J4,5*
G04 #@! TO.N,/nand4*
X157480000Y-43180000D03*
G04 #@! TO.P,J4,4*
G04 #@! TO.N,/nand3*
X160020000Y-43180000D03*
G04 #@! TO.P,J4,3*
G04 #@! TO.N,/nand2*
X162560000Y-43180000D03*
G04 #@! TO.P,J4,2*
G04 #@! TO.N,/nand1*
X165100000Y-43180000D03*
G04 #@! TO.P,J4,1*
G04 #@! TO.N,/nand0*
X167640000Y-43180000D03*
X167640000Y-45720000D03*
G04 #@! TO.P,J4,2*
G04 #@! TO.N,/nand1*
X165100000Y-45720000D03*
G04 #@! TO.P,J4,3*
G04 #@! TO.N,/nand2*
X162560000Y-45720000D03*
G04 #@! TO.P,J4,4*
G04 #@! TO.N,/nand3*
X160020000Y-45720000D03*
G04 #@! TO.P,J4,5*
G04 #@! TO.N,/nand4*
X157480000Y-45720000D03*
G04 #@! TO.P,J4,6*
G04 #@! TO.N,/nand5*
X154940000Y-45720000D03*
G04 #@! TO.P,J4,7*
G04 #@! TO.N,/nand6*
X152400000Y-45720000D03*
G04 #@! TO.P,J4,8*
G04 #@! TO.N,/nand7*
X149860000Y-45720000D03*
G04 #@! TD*
G04 #@! TO.P,J5,8*
G04 #@! TO.N,/and7*
X172720000Y-45720000D03*
G04 #@! TO.P,J5,7*
G04 #@! TO.N,/and6*
X175260000Y-45720000D03*
G04 #@! TO.P,J5,6*
G04 #@! TO.N,/and5*
X177800000Y-45720000D03*
G04 #@! TO.P,J5,5*
G04 #@! TO.N,/and4*
X180340000Y-45720000D03*
G04 #@! TO.P,J5,4*
G04 #@! TO.N,/and3*
X182880000Y-45720000D03*
G04 #@! TO.P,J5,3*
G04 #@! TO.N,/and2*
X185420000Y-45720000D03*
G04 #@! TO.P,J5,2*
G04 #@! TO.N,/and1*
X187960000Y-45720000D03*
G04 #@! TO.P,J5,1*
G04 #@! TO.N,/and0*
X190500000Y-45720000D03*
X190500000Y-43180000D03*
G04 #@! TO.P,J5,2*
G04 #@! TO.N,/and1*
X187960000Y-43180000D03*
G04 #@! TO.P,J5,3*
G04 #@! TO.N,/and2*
X185420000Y-43180000D03*
G04 #@! TO.P,J5,4*
G04 #@! TO.N,/and3*
X182880000Y-43180000D03*
G04 #@! TO.P,J5,5*
G04 #@! TO.N,/and4*
X180340000Y-43180000D03*
G04 #@! TO.P,J5,6*
G04 #@! TO.N,/and5*
X177800000Y-43180000D03*
G04 #@! TO.P,J5,7*
G04 #@! TO.N,/and6*
X175260000Y-43180000D03*
G04 #@! TO.P,J5,8*
G04 #@! TO.N,/and7*
X172720000Y-43180000D03*
G04 #@! TD*
G04 #@! TO.P,J6,8*
G04 #@! TO.N,/or7*
X195580000Y-43180000D03*
G04 #@! TO.P,J6,7*
G04 #@! TO.N,/or6*
X198120000Y-43180000D03*
G04 #@! TO.P,J6,6*
G04 #@! TO.N,/or5*
X200660000Y-43180000D03*
G04 #@! TO.P,J6,5*
G04 #@! TO.N,/or4*
X203200000Y-43180000D03*
G04 #@! TO.P,J6,4*
G04 #@! TO.N,/or3*
X205740000Y-43180000D03*
G04 #@! TO.P,J6,3*
G04 #@! TO.N,/or2*
X208280000Y-43180000D03*
G04 #@! TO.P,J6,2*
G04 #@! TO.N,/or1*
X210820000Y-43180000D03*
G04 #@! TO.P,J6,1*
G04 #@! TO.N,/or0*
X213360000Y-43180000D03*
X213360000Y-45720000D03*
G04 #@! TO.P,J6,2*
G04 #@! TO.N,/or1*
X210820000Y-45720000D03*
G04 #@! TO.P,J6,3*
G04 #@! TO.N,/or2*
X208280000Y-45720000D03*
G04 #@! TO.P,J6,4*
G04 #@! TO.N,/or3*
X205740000Y-45720000D03*
G04 #@! TO.P,J6,5*
G04 #@! TO.N,/or4*
X203200000Y-45720000D03*
G04 #@! TO.P,J6,6*
G04 #@! TO.N,/or5*
X200660000Y-45720000D03*
G04 #@! TO.P,J6,7*
G04 #@! TO.N,/or6*
X198120000Y-45720000D03*
G04 #@! TO.P,J6,8*
G04 #@! TO.N,/or7*
X195580000Y-45720000D03*
G04 #@! TD*
D23*
G04 #@! TO.P,REF\002A\002A,1*
G04 #@! TO.N,N/C*
X217170000Y-69850000D03*
G04 #@! TD*
G04 #@! TO.P,REF\002A\002A,1*
G04 #@! TO.N,N/C*
X217170000Y-111760000D03*
G04 #@! TD*
G04 #@! TO.P,REF\002A\002A,1*
G04 #@! TO.N,N/C*
X81280000Y-111760000D03*
G04 #@! TD*
G04 #@! TO.P,REF\002A\002A,1*
G04 #@! TO.N,N/C*
X81280000Y-69850000D03*
G04 #@! TD*
D24*
G04 #@! TO.N,/a6*
X83820000Y-61404500D03*
G04 #@! TO.N,/a7*
X81280000Y-65214500D03*
G04 #@! TO.N,/a4*
X88900000Y-61404500D03*
G04 #@! TO.N,/a5*
X86360000Y-65214500D03*
G04 #@! TO.N,/a2*
X93980000Y-61404500D03*
G04 #@! TO.N,/a3*
X91440000Y-65214500D03*
G04 #@! TO.N,/a0*
X99060000Y-61404500D03*
G04 #@! TO.N,/a1*
X96520000Y-65214500D03*
G04 #@! TO.N,/b6*
X106680000Y-61404500D03*
G04 #@! TO.N,/b7*
X104140000Y-65214500D03*
G04 #@! TO.N,/b4*
X111760000Y-61404500D03*
G04 #@! TO.N,/b5*
X109220000Y-65214500D03*
G04 #@! TO.N,/b2*
X116840000Y-61404500D03*
G04 #@! TO.N,/b3*
X114300000Y-65214500D03*
G04 #@! TO.N,/b0*
X121920000Y-61404500D03*
G04 #@! TO.N,/b1*
X119380000Y-65214500D03*
G04 #@! TO.N,/nor6*
X129540000Y-61404500D03*
G04 #@! TO.N,/nor7*
X127000000Y-65214500D03*
G04 #@! TO.N,/nor4*
X134620000Y-61404500D03*
G04 #@! TO.N,/nor5*
X132080000Y-65214500D03*
G04 #@! TO.N,/nor2*
X139700000Y-61404500D03*
G04 #@! TO.N,/nor3*
X137160000Y-65214500D03*
G04 #@! TO.N,/nor0*
X144780000Y-61404500D03*
G04 #@! TO.N,/nor1*
X142240000Y-65214500D03*
G04 #@! TO.N,/nand6*
X152400000Y-61404500D03*
G04 #@! TO.N,/nand7*
X149860000Y-65214500D03*
G04 #@! TO.N,/nand4*
X157480000Y-61404500D03*
G04 #@! TO.N,/nand5*
X154940000Y-65214500D03*
G04 #@! TO.N,/nand2*
X162560000Y-61404500D03*
G04 #@! TO.N,/nand3*
X160020000Y-65214500D03*
G04 #@! TO.N,/nand0*
X167640000Y-61404500D03*
G04 #@! TO.N,/nand1*
X165100000Y-65214500D03*
G04 #@! TO.N,/and6*
X175260000Y-61404500D03*
G04 #@! TO.N,/and7*
X172720000Y-65214500D03*
G04 #@! TO.N,/and4*
X180340000Y-61404500D03*
G04 #@! TO.N,/and5*
X177800000Y-65214500D03*
G04 #@! TO.N,/and2*
X185420000Y-61404500D03*
G04 #@! TO.N,/and3*
X182880000Y-65214500D03*
G04 #@! TO.N,/and0*
X190500000Y-61404500D03*
G04 #@! TO.N,/and1*
X187960000Y-65214500D03*
G04 #@! TO.N,/or6*
X198120000Y-61404500D03*
G04 #@! TO.N,/or7*
X195580000Y-65214500D03*
G04 #@! TO.N,/or4*
X203200000Y-61404500D03*
G04 #@! TO.N,/or5*
X200660000Y-65214500D03*
G04 #@! TO.N,/or2*
X208280000Y-61404500D03*
G04 #@! TO.N,/or3*
X205740000Y-65214500D03*
G04 #@! TO.N,/b0*
X121920000Y-74930000D03*
X186690000Y-80645000D03*
X121920000Y-71755000D03*
X105410000Y-71755000D03*
G04 #@! TO.N,/b1*
X119380000Y-74930000D03*
X176530000Y-81280000D03*
X104775000Y-74930000D03*
G04 #@! TO.N,/b2*
X116840000Y-75565000D03*
X166370000Y-81915000D03*
X103505000Y-75565000D03*
G04 #@! TO.N,/b3*
X114300000Y-76200000D03*
X156210000Y-81280000D03*
X102870000Y-76200000D03*
G04 #@! TO.N,/b4*
X111760000Y-76835000D03*
X146050000Y-80645000D03*
X102235000Y-76835000D03*
G04 #@! TO.N,/b5*
X109220000Y-77470000D03*
X135890000Y-80010000D03*
X101600000Y-77470000D03*
G04 #@! TO.N,/b6*
X106680000Y-78105000D03*
X100965000Y-78105000D03*
X125730000Y-78740000D03*
G04 #@! TO.N,/b7*
X104140000Y-78740000D03*
X115570000Y-78740000D03*
X100330000Y-78740000D03*
G04 #@! TO.N,/a0*
X99060000Y-79375000D03*
X185420000Y-82550000D03*
G04 #@! TO.N,/a1*
X96520000Y-80010000D03*
X175260000Y-83185000D03*
G04 #@! TO.N,/a2*
X93980000Y-80645000D03*
X165100000Y-83820000D03*
G04 #@! TO.N,/a3*
X91440000Y-81280000D03*
X154940000Y-83820000D03*
G04 #@! TO.N,/a4*
X88900000Y-81915000D03*
X144780000Y-83820000D03*
G04 #@! TO.N,/a5*
X86360000Y-82550000D03*
X134620000Y-83820000D03*
G04 #@! TO.N,/a6*
X83820000Y-83185000D03*
X124460000Y-83820000D03*
G04 #@! TO.N,/a7*
X114300000Y-83820000D03*
X81280000Y-83820000D03*
G04 #@! TO.N,/nor0*
X144780000Y-75565000D03*
X180340000Y-79375000D03*
G04 #@! TO.N,/nand0*
X167640000Y-78105000D03*
X181610000Y-78105000D03*
G04 #@! TO.N,/and0*
X184150000Y-78105000D03*
X190500000Y-78105000D03*
G04 #@! TO.N,/or0*
X213360000Y-61404500D03*
X179705000Y-71755000D03*
X213360000Y-71755000D03*
G04 #@! TO.N,/nor1*
X142240000Y-74930000D03*
X170180000Y-80010000D03*
G04 #@! TO.N,/nand1*
X165100000Y-78740000D03*
X171450000Y-78740000D03*
G04 #@! TO.N,/and1*
X187960000Y-77470000D03*
X173990000Y-77470000D03*
G04 #@! TO.N,/or1*
X210820000Y-65214500D03*
X169545000Y-71120000D03*
X210820000Y-71120000D03*
G04 #@! TO.N,/nor2*
X139700000Y-74930000D03*
X160020000Y-80010000D03*
G04 #@! TO.N,/and2*
X163830000Y-76835000D03*
X185420000Y-76835000D03*
G04 #@! TO.N,/or2*
X159385000Y-70485000D03*
X208280000Y-70485000D03*
G04 #@! TO.N,/nor3*
X149860000Y-78105000D03*
X137160000Y-75565000D03*
G04 #@! TO.N,/nand3*
X152400000Y-75565000D03*
X160020000Y-75565000D03*
G04 #@! TO.N,/and3*
X153670000Y-76200000D03*
X182880000Y-76200000D03*
G04 #@! TO.N,/or3*
X205740000Y-69850000D03*
X149225000Y-69850000D03*
G04 #@! TO.N,/nor4*
X139700000Y-76200000D03*
X134620000Y-76200000D03*
G04 #@! TO.N,/nand4*
X141605000Y-74295000D03*
X157480000Y-74930000D03*
G04 #@! TO.N,/and4*
X143510000Y-71755000D03*
X180340000Y-73660000D03*
G04 #@! TO.N,/or4*
X203200000Y-69215000D03*
X139065000Y-69215000D03*
G04 #@! TO.N,/nor5*
X130175000Y-71120000D03*
X132080000Y-71120000D03*
G04 #@! TO.N,/nand5*
X131445000Y-73660000D03*
X154940000Y-74295000D03*
G04 #@! TO.N,/and5*
X133350000Y-71120000D03*
X177800000Y-73025000D03*
G04 #@! TO.N,/or5*
X200660000Y-68580000D03*
X128905000Y-68580000D03*
G04 #@! TO.N,/nor6*
X120015000Y-74295000D03*
X129540000Y-74295000D03*
G04 #@! TO.N,/nand6*
X121285000Y-73025000D03*
X152400000Y-73660000D03*
G04 #@! TO.N,/and6*
X123190000Y-70485000D03*
X175260000Y-72390000D03*
G04 #@! TO.N,/or6*
X198120000Y-67945000D03*
X118745000Y-67945000D03*
G04 #@! TO.N,/nor7*
X127000000Y-73660000D03*
X110109999Y-73660000D03*
G04 #@! TO.N,/nand7*
X111125000Y-72390000D03*
X149860000Y-73025000D03*
G04 #@! TO.N,/and7*
X113030000Y-69850000D03*
X172720000Y-71755000D03*
G04 #@! TO.N,/or7*
X195580000Y-67310000D03*
X108585000Y-67310000D03*
G04 #@! TD*
D25*
G04 #@! TO.N,/nor0*
X181610000Y-85090000D02*
X180340000Y-85090000D01*
X182880000Y-93980000D02*
X182880000Y-91440000D01*
X185420000Y-96520000D02*
X182880000Y-93980000D01*
X182880000Y-86360000D02*
X181610000Y-85090000D01*
G04 #@! TO.N,/nand0*
X181610000Y-113030000D02*
X182880000Y-111760000D01*
X180340000Y-113030000D02*
X181610000Y-113030000D01*
G04 #@! TO.N,/and0*
X181610000Y-100330000D02*
X180340000Y-100330000D01*
X182880000Y-101600000D02*
X181610000Y-100330000D01*
G04 #@! TO.N,/or0*
X181610000Y-97790000D02*
X180340000Y-97790000D01*
X182880000Y-96520000D02*
X181610000Y-97790000D01*
G04 #@! TO.N,Net-(Q5-Pad3)*
X187960000Y-111760000D02*
X182880000Y-106680000D01*
G04 #@! TO.N,VCC*
X170180000Y-105410000D02*
X180340000Y-105410000D01*
G04 #@! TO.N,GND*
X178825001Y-102625001D02*
X186934999Y-102625001D01*
X177800000Y-101600000D02*
X178825001Y-102625001D01*
X186934999Y-102625001D02*
X187960000Y-101600000D01*
G04 #@! TO.N,/nor1*
X171450000Y-85090000D02*
X170180000Y-85090000D01*
X172720000Y-93980000D02*
X172720000Y-91440000D01*
X175260000Y-96520000D02*
X172720000Y-93980000D01*
X172720000Y-86360000D02*
X171450000Y-85090000D01*
G04 #@! TO.N,/nand1*
X171450000Y-113030000D02*
X172720000Y-111760000D01*
X170180000Y-113030000D02*
X171450000Y-113030000D01*
G04 #@! TO.N,/and1*
X171450000Y-100330000D02*
X170180000Y-100330000D01*
X172720000Y-101600000D02*
X171450000Y-100330000D01*
G04 #@! TO.N,/or1*
X171450000Y-97790000D02*
X170180000Y-97790000D01*
X172720000Y-96520000D02*
X171450000Y-97790000D01*
G04 #@! TO.N,Net-(Q11-Pad3)*
X177800000Y-111760000D02*
X172720000Y-106680000D01*
G04 #@! TO.N,VCC*
X160020000Y-105410000D02*
X170180000Y-105410000D01*
G04 #@! TO.N,GND*
X168665001Y-102625001D02*
X176774999Y-102625001D01*
X167640000Y-101600000D02*
X168665001Y-102625001D01*
X176774999Y-102625001D02*
X177800000Y-101600000D01*
G04 #@! TO.N,/nor2*
X161290000Y-85090000D02*
X160020000Y-85090000D01*
X162560000Y-93980000D02*
X162560000Y-91440000D01*
X165100000Y-96520000D02*
X162560000Y-93980000D01*
X162560000Y-86360000D02*
X161290000Y-85090000D01*
G04 #@! TO.N,/nand2*
X161290000Y-113030000D02*
X162560000Y-111760000D01*
X160020000Y-113030000D02*
X161290000Y-113030000D01*
G04 #@! TO.N,/and2*
X161290000Y-100330000D02*
X160020000Y-100330000D01*
X162560000Y-101600000D02*
X161290000Y-100330000D01*
G04 #@! TO.N,/or2*
X161290000Y-97790000D02*
X160020000Y-97790000D01*
X162560000Y-96520000D02*
X161290000Y-97790000D01*
G04 #@! TO.N,Net-(Q17-Pad3)*
X167640000Y-111760000D02*
X162560000Y-106680000D01*
G04 #@! TO.N,VCC*
X149860000Y-105410000D02*
X160020000Y-105410000D01*
G04 #@! TO.N,GND*
X158505001Y-102625001D02*
X166614999Y-102625001D01*
X157480000Y-101600000D02*
X158505001Y-102625001D01*
X166614999Y-102625001D02*
X167640000Y-101600000D01*
G04 #@! TO.N,/nor3*
X151130000Y-85090000D02*
X149860000Y-85090000D01*
X152400000Y-93980000D02*
X152400000Y-91440000D01*
X154940000Y-96520000D02*
X152400000Y-93980000D01*
X152400000Y-86360000D02*
X151130000Y-85090000D01*
G04 #@! TO.N,/nand3*
X151130000Y-113030000D02*
X152400000Y-111760000D01*
X149860000Y-113030000D02*
X151130000Y-113030000D01*
G04 #@! TO.N,/and3*
X151130000Y-100330000D02*
X149860000Y-100330000D01*
X152400000Y-101600000D02*
X151130000Y-100330000D01*
G04 #@! TO.N,/or3*
X151130000Y-97790000D02*
X149860000Y-97790000D01*
X152400000Y-96520000D02*
X151130000Y-97790000D01*
G04 #@! TO.N,Net-(Q23-Pad3)*
X157480000Y-111760000D02*
X152400000Y-106680000D01*
G04 #@! TO.N,VCC*
X139700000Y-105410000D02*
X149860000Y-105410000D01*
G04 #@! TO.N,GND*
X148345001Y-102625001D02*
X156454999Y-102625001D01*
X147320000Y-101600000D02*
X148345001Y-102625001D01*
X156454999Y-102625001D02*
X157480000Y-101600000D01*
G04 #@! TO.N,/nor4*
X140970000Y-85090000D02*
X139700000Y-85090000D01*
X142240000Y-93980000D02*
X142240000Y-91440000D01*
X144780000Y-96520000D02*
X142240000Y-93980000D01*
X142240000Y-86360000D02*
X140970000Y-85090000D01*
G04 #@! TO.N,/nand4*
X140970000Y-113030000D02*
X142240000Y-111760000D01*
X139700000Y-113030000D02*
X140970000Y-113030000D01*
G04 #@! TO.N,/and4*
X140970000Y-100330000D02*
X139700000Y-100330000D01*
X142240000Y-101600000D02*
X140970000Y-100330000D01*
G04 #@! TO.N,/or4*
X140970000Y-97790000D02*
X139700000Y-97790000D01*
X142240000Y-96520000D02*
X140970000Y-97790000D01*
G04 #@! TO.N,Net-(Q29-Pad3)*
X147320000Y-111760000D02*
X142240000Y-106680000D01*
G04 #@! TO.N,VCC*
X129540000Y-105410000D02*
X139700000Y-105410000D01*
G04 #@! TO.N,GND*
X138185001Y-102625001D02*
X146294999Y-102625001D01*
X137160000Y-101600000D02*
X138185001Y-102625001D01*
X146294999Y-102625001D02*
X147320000Y-101600000D01*
G04 #@! TO.N,/nor5*
X130810000Y-85090000D02*
X129540000Y-85090000D01*
X132080000Y-93980000D02*
X132080000Y-91440000D01*
X134620000Y-96520000D02*
X132080000Y-93980000D01*
X132080000Y-86360000D02*
X130810000Y-85090000D01*
G04 #@! TO.N,/nand5*
X130810000Y-113030000D02*
X132080000Y-111760000D01*
X129540000Y-113030000D02*
X130810000Y-113030000D01*
G04 #@! TO.N,/and5*
X130810000Y-100330000D02*
X129540000Y-100330000D01*
X132080000Y-101600000D02*
X130810000Y-100330000D01*
G04 #@! TO.N,/or5*
X130810000Y-97790000D02*
X129540000Y-97790000D01*
X132080000Y-96520000D02*
X130810000Y-97790000D01*
G04 #@! TO.N,Net-(Q35-Pad3)*
X137160000Y-111760000D02*
X132080000Y-106680000D01*
G04 #@! TO.N,VCC*
X119380000Y-105410000D02*
X129540000Y-105410000D01*
G04 #@! TO.N,GND*
X128025001Y-102625001D02*
X136134999Y-102625001D01*
X127000000Y-101600000D02*
X128025001Y-102625001D01*
X136134999Y-102625001D02*
X137160000Y-101600000D01*
G04 #@! TO.N,/nor6*
X120650000Y-85090000D02*
X119380000Y-85090000D01*
X121920000Y-93980000D02*
X121920000Y-91440000D01*
X124460000Y-96520000D02*
X121920000Y-93980000D01*
X121920000Y-86360000D02*
X120650000Y-85090000D01*
G04 #@! TO.N,/nand6*
X120650000Y-113030000D02*
X121920000Y-111760000D01*
X119380000Y-113030000D02*
X120650000Y-113030000D01*
G04 #@! TO.N,/and6*
X120650000Y-100330000D02*
X119380000Y-100330000D01*
X121920000Y-101600000D02*
X120650000Y-100330000D01*
G04 #@! TO.N,/or6*
X120650000Y-97790000D02*
X119380000Y-97790000D01*
X121920000Y-96520000D02*
X120650000Y-97790000D01*
G04 #@! TO.N,Net-(Q41-Pad3)*
X127000000Y-111760000D02*
X121920000Y-106680000D01*
G04 #@! TO.N,/a7*
X82230000Y-65230000D02*
X81295500Y-65230000D01*
X81295500Y-65230000D02*
X81280000Y-65214500D01*
G04 #@! TO.N,/a6*
X83835500Y-61420000D02*
X83820000Y-61404500D01*
X84770000Y-61420000D02*
X83835500Y-61420000D01*
G04 #@! TO.N,/a5*
X87310000Y-65230000D02*
X86375500Y-65230000D01*
X86375500Y-65230000D02*
X86360000Y-65214500D01*
G04 #@! TO.N,/a4*
X88915500Y-61420000D02*
X88900000Y-61404500D01*
X89850000Y-61420000D02*
X88915500Y-61420000D01*
G04 #@! TO.N,/a3*
X92390000Y-65230000D02*
X91455500Y-65230000D01*
X91455500Y-65230000D02*
X91440000Y-65214500D01*
G04 #@! TO.N,/a2*
X93995500Y-61420000D02*
X93980000Y-61404500D01*
X94930000Y-61420000D02*
X93995500Y-61420000D01*
G04 #@! TO.N,/a1*
X97470000Y-65230000D02*
X96535500Y-65230000D01*
X96535500Y-65230000D02*
X96520000Y-65214500D01*
G04 #@! TO.N,/a0*
X99075500Y-61420000D02*
X99060000Y-61404500D01*
X100010000Y-61420000D02*
X99075500Y-61420000D01*
G04 #@! TO.N,/b7*
X105090000Y-65230000D02*
X104155500Y-65230000D01*
X104155500Y-65230000D02*
X104140000Y-65214500D01*
G04 #@! TO.N,/b6*
X106695500Y-61420000D02*
X106680000Y-61404500D01*
X107630000Y-61420000D02*
X106695500Y-61420000D01*
G04 #@! TO.N,/b5*
X110170000Y-65230000D02*
X109235500Y-65230000D01*
X109235500Y-65230000D02*
X109220000Y-65214500D01*
G04 #@! TO.N,/b4*
X111775500Y-61420000D02*
X111760000Y-61404500D01*
X112710000Y-61420000D02*
X111775500Y-61420000D01*
G04 #@! TO.N,/b3*
X115250000Y-65230000D02*
X114315500Y-65230000D01*
X114315500Y-65230000D02*
X114300000Y-65214500D01*
G04 #@! TO.N,/b2*
X116855500Y-61420000D02*
X116840000Y-61404500D01*
X117790000Y-61420000D02*
X116855500Y-61420000D01*
G04 #@! TO.N,/b1*
X120330000Y-65230000D02*
X119395500Y-65230000D01*
X119395500Y-65230000D02*
X119380000Y-65214500D01*
G04 #@! TO.N,/b0*
X121935500Y-61420000D02*
X121920000Y-61404500D01*
X122870000Y-61420000D02*
X121935500Y-61420000D01*
G04 #@! TO.N,/nor7*
X127950000Y-65230000D02*
X127015500Y-65230000D01*
X127015500Y-65230000D02*
X127000000Y-65214500D01*
G04 #@! TO.N,/nor6*
X129555500Y-61420000D02*
X129540000Y-61404500D01*
X130490000Y-61420000D02*
X129555500Y-61420000D01*
G04 #@! TO.N,/nor5*
X133030000Y-65230000D02*
X132095500Y-65230000D01*
X132095500Y-65230000D02*
X132080000Y-65214500D01*
G04 #@! TO.N,/nor4*
X134635500Y-61420000D02*
X134620000Y-61404500D01*
X135570000Y-61420000D02*
X134635500Y-61420000D01*
G04 #@! TO.N,/nor3*
X138110000Y-65230000D02*
X137175500Y-65230000D01*
X137175500Y-65230000D02*
X137160000Y-65214500D01*
G04 #@! TO.N,/nor2*
X139715500Y-61420000D02*
X139700000Y-61404500D01*
X140650000Y-61420000D02*
X139715500Y-61420000D01*
G04 #@! TO.N,/nor1*
X143190000Y-65230000D02*
X142255500Y-65230000D01*
X142255500Y-65230000D02*
X142240000Y-65214500D01*
G04 #@! TO.N,/nor0*
X144795500Y-61420000D02*
X144780000Y-61404500D01*
X145730000Y-61420000D02*
X144795500Y-61420000D01*
G04 #@! TO.N,/nand7*
X150810000Y-65230000D02*
X149875500Y-65230000D01*
X149875500Y-65230000D02*
X149860000Y-65214500D01*
G04 #@! TO.N,/nand6*
X152415500Y-61420000D02*
X152400000Y-61404500D01*
X153350000Y-61420000D02*
X152415500Y-61420000D01*
G04 #@! TO.N,/nand5*
X155890000Y-65230000D02*
X154955500Y-65230000D01*
X154955500Y-65230000D02*
X154940000Y-65214500D01*
G04 #@! TO.N,/nand4*
X157495500Y-61420000D02*
X157480000Y-61404500D01*
X158430000Y-61420000D02*
X157495500Y-61420000D01*
G04 #@! TO.N,/nand3*
X160970000Y-65230000D02*
X160035500Y-65230000D01*
X160035500Y-65230000D02*
X160020000Y-65214500D01*
G04 #@! TO.N,/nand2*
X162575500Y-61420000D02*
X162560000Y-61404500D01*
X163510000Y-61420000D02*
X162575500Y-61420000D01*
G04 #@! TO.N,/nand1*
X166050000Y-65230000D02*
X165115500Y-65230000D01*
X165115500Y-65230000D02*
X165100000Y-65214500D01*
G04 #@! TO.N,/nand0*
X167655500Y-61420000D02*
X167640000Y-61404500D01*
X168590000Y-61420000D02*
X167655500Y-61420000D01*
G04 #@! TO.N,/and7*
X173670000Y-65230000D02*
X172735500Y-65230000D01*
X172735500Y-65230000D02*
X172720000Y-65214500D01*
G04 #@! TO.N,/and6*
X175275500Y-61420000D02*
X175260000Y-61404500D01*
X176210000Y-61420000D02*
X175275500Y-61420000D01*
G04 #@! TO.N,/and5*
X178750000Y-65230000D02*
X177815500Y-65230000D01*
X177815500Y-65230000D02*
X177800000Y-65214500D01*
G04 #@! TO.N,/and4*
X180355500Y-61420000D02*
X180340000Y-61404500D01*
X181290000Y-61420000D02*
X180355500Y-61420000D01*
G04 #@! TO.N,/and3*
X183830000Y-65230000D02*
X182895500Y-65230000D01*
X182895500Y-65230000D02*
X182880000Y-65214500D01*
G04 #@! TO.N,/and2*
X185435500Y-61420000D02*
X185420000Y-61404500D01*
X186370000Y-61420000D02*
X185435500Y-61420000D01*
G04 #@! TO.N,/and1*
X188910000Y-65230000D02*
X187975500Y-65230000D01*
X187975500Y-65230000D02*
X187960000Y-65214500D01*
G04 #@! TO.N,/and0*
X190515500Y-61420000D02*
X190500000Y-61404500D01*
X191450000Y-61420000D02*
X190515500Y-61420000D01*
G04 #@! TO.N,/or7*
X196530000Y-65230000D02*
X195595500Y-65230000D01*
X195595500Y-65230000D02*
X195580000Y-65214500D01*
G04 #@! TO.N,/or6*
X198135500Y-61420000D02*
X198120000Y-61404500D01*
X199070000Y-61420000D02*
X198135500Y-61420000D01*
G04 #@! TO.N,/or5*
X201610000Y-65230000D02*
X200675500Y-65230000D01*
X200675500Y-65230000D02*
X200660000Y-65214500D01*
G04 #@! TO.N,/or4*
X203215500Y-61420000D02*
X203200000Y-61404500D01*
X204150000Y-61420000D02*
X203215500Y-61420000D01*
G04 #@! TO.N,/or3*
X206690000Y-65230000D02*
X205755500Y-65230000D01*
X205755500Y-65230000D02*
X205740000Y-65214500D01*
G04 #@! TO.N,/or2*
X208295500Y-61420000D02*
X208280000Y-61404500D01*
X209230000Y-61420000D02*
X208295500Y-61420000D01*
G04 #@! TO.N,Net-(Q89-Pad3)*
X213360000Y-56545000D02*
X213360000Y-58420000D01*
G04 #@! TO.N,Net-(Q90-Pad3)*
X210820000Y-56545000D02*
X210820000Y-62230000D01*
G04 #@! TO.N,Net-(Q91-Pad3)*
X208280000Y-56545000D02*
X208280000Y-58420000D01*
G04 #@! TO.N,Net-(Q92-Pad3)*
X205740000Y-56545000D02*
X205740000Y-62230000D01*
G04 #@! TO.N,Net-(Q93-Pad3)*
X203200000Y-56545000D02*
X203200000Y-58420000D01*
G04 #@! TO.N,Net-(Q94-Pad3)*
X200660000Y-56545000D02*
X200660000Y-62230000D01*
G04 #@! TO.N,Net-(Q95-Pad3)*
X198120000Y-56545000D02*
X198120000Y-58420000D01*
G04 #@! TO.N,Net-(Q96-Pad3)*
X195580000Y-56545000D02*
X195580000Y-62230000D01*
G04 #@! TO.N,Net-(Q81-Pad3)*
X190500000Y-56545000D02*
X190500000Y-58420000D01*
G04 #@! TO.N,Net-(Q82-Pad3)*
X187960000Y-56545000D02*
X187960000Y-62230000D01*
G04 #@! TO.N,Net-(Q83-Pad3)*
X185420000Y-56545000D02*
X185420000Y-58420000D01*
G04 #@! TO.N,Net-(Q84-Pad3)*
X182880000Y-56545000D02*
X182880000Y-62230000D01*
G04 #@! TO.N,Net-(Q85-Pad3)*
X180340000Y-56545000D02*
X180340000Y-58420000D01*
G04 #@! TO.N,Net-(Q86-Pad3)*
X177800000Y-56545000D02*
X177800000Y-62230000D01*
G04 #@! TO.N,Net-(Q87-Pad3)*
X175260000Y-56545000D02*
X175260000Y-58420000D01*
G04 #@! TO.N,Net-(Q88-Pad3)*
X172720000Y-56545000D02*
X172720000Y-62230000D01*
G04 #@! TO.N,Net-(Q73-Pad3)*
X167640000Y-56545000D02*
X167640000Y-58420000D01*
G04 #@! TO.N,Net-(Q74-Pad3)*
X165100000Y-56545000D02*
X165100000Y-62230000D01*
G04 #@! TO.N,Net-(Q75-Pad3)*
X162560000Y-56545000D02*
X162560000Y-58420000D01*
G04 #@! TO.N,Net-(Q76-Pad3)*
X160020000Y-56545000D02*
X160020000Y-62230000D01*
G04 #@! TO.N,Net-(Q77-Pad3)*
X157480000Y-56545000D02*
X157480000Y-58420000D01*
G04 #@! TO.N,Net-(Q78-Pad3)*
X154940000Y-56545000D02*
X154940000Y-62230000D01*
G04 #@! TO.N,Net-(Q79-Pad3)*
X152400000Y-56545000D02*
X152400000Y-58420000D01*
G04 #@! TO.N,Net-(Q80-Pad3)*
X149860000Y-56545000D02*
X149860000Y-62230000D01*
G04 #@! TO.N,Net-(Q65-Pad3)*
X144780000Y-56545000D02*
X144780000Y-58420000D01*
G04 #@! TO.N,Net-(Q66-Pad3)*
X142240000Y-56545000D02*
X142240000Y-62230000D01*
G04 #@! TO.N,Net-(Q67-Pad3)*
X139700000Y-56545000D02*
X139700000Y-58420000D01*
G04 #@! TO.N,Net-(Q68-Pad3)*
X137160000Y-56545000D02*
X137160000Y-62230000D01*
G04 #@! TO.N,Net-(Q69-Pad3)*
X134620000Y-56545000D02*
X134620000Y-58420000D01*
G04 #@! TO.N,Net-(Q70-Pad3)*
X132080000Y-56545000D02*
X132080000Y-62230000D01*
G04 #@! TO.N,Net-(Q71-Pad3)*
X129540000Y-56545000D02*
X129540000Y-58420000D01*
G04 #@! TO.N,Net-(Q72-Pad3)*
X127000000Y-56545000D02*
X127000000Y-62230000D01*
G04 #@! TO.N,Net-(Q57-Pad3)*
X121920000Y-56545000D02*
X121920000Y-58420000D01*
G04 #@! TO.N,Net-(Q58-Pad3)*
X119380000Y-56545000D02*
X119380000Y-62230000D01*
G04 #@! TO.N,Net-(Q59-Pad3)*
X116840000Y-56545000D02*
X116840000Y-58420000D01*
G04 #@! TO.N,Net-(Q60-Pad3)*
X114300000Y-56545000D02*
X114300000Y-62230000D01*
G04 #@! TO.N,Net-(Q61-Pad3)*
X111760000Y-56545000D02*
X111760000Y-58420000D01*
G04 #@! TO.N,Net-(Q62-Pad3)*
X109220000Y-56545000D02*
X109220000Y-62230000D01*
G04 #@! TO.N,Net-(Q63-Pad3)*
X106680000Y-56545000D02*
X106680000Y-58420000D01*
G04 #@! TO.N,Net-(Q64-Pad3)*
X104140000Y-56545000D02*
X104140000Y-62230000D01*
G04 #@! TO.N,Net-(D1-Pad1)*
X99060000Y-52560000D02*
X99060000Y-54610000D01*
G04 #@! TO.N,Net-(D2-Pad1)*
X96520000Y-52560000D02*
X96520000Y-54610000D01*
G04 #@! TO.N,Net-(D3-Pad1)*
X93980000Y-52560000D02*
X93980000Y-54610000D01*
G04 #@! TO.N,Net-(D4-Pad1)*
X91440000Y-52560000D02*
X91440000Y-54610000D01*
G04 #@! TO.N,Net-(D5-Pad1)*
X88900000Y-52560000D02*
X88900000Y-54610000D01*
G04 #@! TO.N,Net-(D6-Pad1)*
X86360000Y-52560000D02*
X86360000Y-54610000D01*
G04 #@! TO.N,Net-(D7-Pad1)*
X83820000Y-52560000D02*
X83820000Y-54610000D01*
G04 #@! TO.N,Net-(D9-Pad1)*
X121920000Y-52560000D02*
X121920000Y-54610000D01*
G04 #@! TO.N,Net-(D10-Pad1)*
X119380000Y-52560000D02*
X119380000Y-54610000D01*
G04 #@! TO.N,Net-(D11-Pad1)*
X116840000Y-52560000D02*
X116840000Y-54610000D01*
G04 #@! TO.N,Net-(D12-Pad1)*
X114300000Y-52560000D02*
X114300000Y-54610000D01*
G04 #@! TO.N,Net-(D13-Pad1)*
X111760000Y-52560000D02*
X111760000Y-54610000D01*
G04 #@! TO.N,Net-(D14-Pad1)*
X109220000Y-52560000D02*
X109220000Y-54610000D01*
G04 #@! TO.N,Net-(D15-Pad1)*
X106680000Y-52560000D02*
X106680000Y-54610000D01*
G04 #@! TO.N,Net-(D17-Pad1)*
X144780000Y-52560000D02*
X144780000Y-54610000D01*
G04 #@! TO.N,Net-(D18-Pad1)*
X142240000Y-52560000D02*
X142240000Y-54610000D01*
G04 #@! TO.N,Net-(D19-Pad1)*
X139700000Y-52560000D02*
X139700000Y-54610000D01*
G04 #@! TO.N,Net-(D20-Pad1)*
X137160000Y-52560000D02*
X137160000Y-54610000D01*
G04 #@! TO.N,Net-(D21-Pad1)*
X134620000Y-52560000D02*
X134620000Y-54610000D01*
G04 #@! TO.N,Net-(D22-Pad1)*
X132080000Y-52560000D02*
X132080000Y-54610000D01*
G04 #@! TO.N,Net-(D23-Pad1)*
X129540000Y-52560000D02*
X129540000Y-54610000D01*
G04 #@! TO.N,Net-(D33-Pad1)*
X190500000Y-52560000D02*
X190500000Y-54610000D01*
G04 #@! TO.N,Net-(D34-Pad1)*
X187960000Y-52560000D02*
X187960000Y-54610000D01*
G04 #@! TO.N,Net-(D35-Pad1)*
X185420000Y-52560000D02*
X185420000Y-54610000D01*
G04 #@! TO.N,Net-(D36-Pad1)*
X182880000Y-52560000D02*
X182880000Y-54610000D01*
G04 #@! TO.N,Net-(D37-Pad1)*
X180340000Y-52560000D02*
X180340000Y-54610000D01*
G04 #@! TO.N,Net-(D38-Pad1)*
X177800000Y-52560000D02*
X177800000Y-54610000D01*
G04 #@! TO.N,Net-(D39-Pad1)*
X175260000Y-52560000D02*
X175260000Y-54610000D01*
G04 #@! TO.N,Net-(D40-Pad1)*
X172720000Y-52560000D02*
X172720000Y-54610000D01*
G04 #@! TO.N,/and0*
X190500000Y-43180000D02*
X190500000Y-45720000D01*
G04 #@! TO.N,/and1*
X187960000Y-43180000D02*
X187960000Y-45720000D01*
G04 #@! TO.N,/and2*
X185420000Y-43180000D02*
X185420000Y-45720000D01*
G04 #@! TO.N,/and3*
X182880000Y-43180000D02*
X182880000Y-45720000D01*
G04 #@! TO.N,/and4*
X180340000Y-43180000D02*
X180340000Y-45720000D01*
G04 #@! TO.N,/and5*
X177800000Y-43180000D02*
X177800000Y-45720000D01*
G04 #@! TO.N,/and6*
X175260000Y-43180000D02*
X175260000Y-45720000D01*
G04 #@! TO.N,/and7*
X172720000Y-43180000D02*
X172720000Y-45720000D01*
G04 #@! TO.N,/b0*
X121920000Y-43180000D02*
X121920000Y-45720000D01*
X121920000Y-71755000D02*
X105410000Y-71755000D01*
X159385000Y-80645000D02*
X167005000Y-80645000D01*
X158115000Y-79375000D02*
X159385000Y-80645000D01*
X150495000Y-79375000D02*
X158115000Y-79375000D01*
X149860000Y-78740000D02*
X150495000Y-79375000D01*
X149225000Y-78740000D02*
X149860000Y-78740000D01*
X167005000Y-80645000D02*
X186690000Y-80645000D01*
X130810000Y-74930000D02*
X132715000Y-76835000D01*
X121920000Y-74930000D02*
X130810000Y-74930000D01*
X132715000Y-76835000D02*
X140335000Y-76835000D01*
X141605000Y-78105000D02*
X148590000Y-78105000D01*
X140335000Y-76835000D02*
X141605000Y-78105000D01*
X148590000Y-78105000D02*
X149225000Y-78740000D01*
G04 #@! TO.N,/b1*
X119380000Y-43180000D02*
X119380000Y-45720000D01*
X119380000Y-74930000D02*
X104775000Y-74930000D01*
X158750000Y-81280000D02*
X166370000Y-81280000D01*
X157480000Y-80010000D02*
X158750000Y-81280000D01*
X149860000Y-80010000D02*
X157480000Y-80010000D01*
X149225000Y-79375000D02*
X149860000Y-80010000D01*
X148590000Y-79375000D02*
X149225000Y-79375000D01*
X120015000Y-75565000D02*
X130175000Y-75565000D01*
X166370000Y-81280000D02*
X176530000Y-81280000D01*
X130175000Y-75565000D02*
X132080000Y-77470000D01*
X140970000Y-78740000D02*
X147955000Y-78740000D01*
X119380000Y-74930000D02*
X120015000Y-75565000D01*
X147955000Y-78740000D02*
X148590000Y-79375000D01*
X132080000Y-77470000D02*
X139700000Y-77470000D01*
X139700000Y-77470000D02*
X140970000Y-78740000D01*
G04 #@! TO.N,/b2*
X116840000Y-43180000D02*
X116840000Y-45720000D01*
X116840000Y-75565000D02*
X103505000Y-75565000D01*
X156845000Y-80645000D02*
X158115000Y-81915000D01*
X158115000Y-81915000D02*
X166370000Y-81915000D01*
X148590000Y-80010000D02*
X149225000Y-80645000D01*
X147320000Y-79375000D02*
X147955000Y-80010000D01*
X147955000Y-80010000D02*
X148590000Y-80010000D01*
X118745000Y-75565000D02*
X119380000Y-76200000D01*
X116840000Y-75565000D02*
X118745000Y-75565000D01*
X119380000Y-76200000D02*
X129540000Y-76200000D01*
X131445000Y-78105000D02*
X139065000Y-78105000D01*
X149225000Y-80645000D02*
X156845000Y-80645000D01*
X129540000Y-76200000D02*
X131445000Y-78105000D01*
X140335000Y-79375000D02*
X147320000Y-79375000D01*
X139065000Y-78105000D02*
X140335000Y-79375000D01*
G04 #@! TO.N,/b3*
X114300000Y-43180000D02*
X114300000Y-45720000D01*
X114300000Y-76200000D02*
X102870000Y-76200000D01*
X146685000Y-80010000D02*
X147320000Y-80645000D01*
X139700000Y-80010000D02*
X146685000Y-80010000D01*
X118110000Y-76200000D02*
X118745000Y-76835000D01*
X148590000Y-81280000D02*
X156210000Y-81280000D01*
X147955000Y-80645000D02*
X148590000Y-81280000D01*
X114300000Y-76200000D02*
X118110000Y-76200000D01*
X147320000Y-80645000D02*
X147955000Y-80645000D01*
X138430000Y-78740000D02*
X139700000Y-80010000D01*
X118745000Y-76835000D02*
X128905000Y-76835000D01*
X128905000Y-76835000D02*
X130810000Y-78740000D01*
X130810000Y-78740000D02*
X138430000Y-78740000D01*
G04 #@! TO.N,/b4*
X111760000Y-43180000D02*
X111760000Y-45720000D01*
X111760000Y-76835000D02*
X102235000Y-76835000D01*
X139065000Y-80645000D02*
X146050000Y-80645000D01*
X117475000Y-76835000D02*
X118110000Y-77470000D01*
X118110000Y-77470000D02*
X128270000Y-77470000D01*
X111760000Y-76835000D02*
X117475000Y-76835000D01*
X130175000Y-79375000D02*
X137795000Y-79375000D01*
X128270000Y-77470000D02*
X130175000Y-79375000D01*
X137795000Y-79375000D02*
X139065000Y-80645000D01*
G04 #@! TO.N,/b5*
X109220000Y-43180000D02*
X109220000Y-45720000D01*
X109220000Y-77470000D02*
X101600000Y-77470000D01*
X129540000Y-80010000D02*
X135890000Y-80010000D01*
X117475000Y-78105000D02*
X127635000Y-78105000D01*
X109220000Y-77470000D02*
X116840000Y-77470000D01*
X127635000Y-78105000D02*
X129540000Y-80010000D01*
X116840000Y-77470000D02*
X117475000Y-78105000D01*
G04 #@! TO.N,/b6*
X106680000Y-43180000D02*
X106680000Y-45720000D01*
X119380000Y-78740000D02*
X116840000Y-78740000D01*
X106680000Y-78105000D02*
X116205000Y-78105000D01*
X116840000Y-78740000D02*
X116205000Y-78105000D01*
X106680000Y-78105000D02*
X100965000Y-78105000D01*
X125730000Y-78740000D02*
X119380000Y-78740000D01*
G04 #@! TO.N,/b7*
X104140000Y-43180000D02*
X104140000Y-45720000D01*
X104140000Y-78740000D02*
X115570000Y-78740000D01*
X104140000Y-78740000D02*
X100330000Y-78740000D01*
G04 #@! TO.N,/a0*
X99060000Y-43180000D02*
X99060000Y-45720000D01*
X99060000Y-79375000D02*
X99695000Y-79375000D01*
X157480000Y-82550000D02*
X156845000Y-81915000D01*
X156845000Y-81915000D02*
X147955000Y-81915000D01*
X147955000Y-81915000D02*
X147320000Y-81280000D01*
X147320000Y-81280000D02*
X138430000Y-81280000D01*
X138430000Y-81280000D02*
X137795000Y-80645000D01*
X137795000Y-80645000D02*
X128905000Y-80645000D01*
X128905000Y-80645000D02*
X128270000Y-80010000D01*
X119380000Y-80010000D02*
X118745000Y-79375000D01*
X128270000Y-80010000D02*
X119380000Y-80010000D01*
X99695000Y-79375000D02*
X118745000Y-79375000D01*
X185420000Y-82550000D02*
X165735000Y-82550000D01*
X165735000Y-82550000D02*
X157480000Y-82550000D01*
G04 #@! TO.N,/a1*
X96520000Y-43180000D02*
X96520000Y-45720000D01*
X97155000Y-80010000D02*
X96520000Y-80010000D01*
X156845000Y-83185000D02*
X156210000Y-82550000D01*
X156210000Y-82550000D02*
X147320000Y-82550000D01*
X147320000Y-82550000D02*
X146685000Y-81915000D01*
X146685000Y-81915000D02*
X137795000Y-81915000D01*
X137795000Y-81915000D02*
X137160000Y-81280000D01*
X137160000Y-81280000D02*
X128270000Y-81280000D01*
X128270000Y-81280000D02*
X127635000Y-80645000D01*
X127635000Y-80645000D02*
X118745000Y-80645000D01*
X118745000Y-80645000D02*
X118110000Y-80010000D01*
X97155000Y-80010000D02*
X118110000Y-80010000D01*
X175260000Y-83185000D02*
X165100000Y-83185000D01*
X165100000Y-83185000D02*
X156845000Y-83185000D01*
G04 #@! TO.N,/a2*
X93980000Y-43180000D02*
X93980000Y-45720000D01*
X93980000Y-80645000D02*
X94615000Y-80645000D01*
X165100000Y-83820000D02*
X156210000Y-83820000D01*
X156210000Y-83820000D02*
X155575000Y-83185000D01*
X155575000Y-83185000D02*
X146685000Y-83185000D01*
X146685000Y-83185000D02*
X146050000Y-82550000D01*
X146050000Y-82550000D02*
X137160000Y-82550000D01*
X137160000Y-82550000D02*
X136525000Y-81915000D01*
X136525000Y-81915000D02*
X127635000Y-81915000D01*
X127635000Y-81915000D02*
X127000000Y-81280000D01*
X127000000Y-81280000D02*
X118110000Y-81280000D01*
X118110000Y-81280000D02*
X117475000Y-80645000D01*
X94615000Y-80645000D02*
X117475000Y-80645000D01*
G04 #@! TO.N,/a3*
X91440000Y-43180000D02*
X91440000Y-45720000D01*
X92075000Y-81280000D02*
X91440000Y-81280000D01*
X154940000Y-83820000D02*
X146050000Y-83820000D01*
X146050000Y-83820000D02*
X145415000Y-83185000D01*
X145415000Y-83185000D02*
X136525000Y-83185000D01*
X136525000Y-83185000D02*
X135890000Y-82550000D01*
X135890000Y-82550000D02*
X127000000Y-82550000D01*
X127000000Y-82550000D02*
X126365000Y-81915000D01*
X117475000Y-81915000D02*
X116840000Y-81280000D01*
X126365000Y-81915000D02*
X117475000Y-81915000D01*
X92075000Y-81280000D02*
X116840000Y-81280000D01*
G04 #@! TO.N,/a4*
X88900000Y-43180000D02*
X88900000Y-45720000D01*
X88900000Y-81915000D02*
X89535000Y-81915000D01*
X116840000Y-82550000D02*
X116205000Y-81915000D01*
X125730000Y-82550000D02*
X116840000Y-82550000D01*
X144780000Y-83820000D02*
X135890000Y-83820000D01*
X135890000Y-83820000D02*
X135255000Y-83185000D01*
X135255000Y-83185000D02*
X126365000Y-83185000D01*
X89535000Y-81915000D02*
X116205000Y-81915000D01*
X126365000Y-83185000D02*
X125730000Y-82550000D01*
G04 #@! TO.N,/a5*
X86360000Y-43180000D02*
X86360000Y-45720000D01*
X86995000Y-82550000D02*
X86360000Y-82550000D01*
X134620000Y-83820000D02*
X125730000Y-83820000D01*
X125730000Y-83820000D02*
X125095000Y-83185000D01*
X116205000Y-83185000D02*
X115570000Y-82550000D01*
X125095000Y-83185000D02*
X116205000Y-83185000D01*
X86995000Y-82550000D02*
X115570000Y-82550000D01*
G04 #@! TO.N,/a6*
X83820000Y-43180000D02*
X83820000Y-45720000D01*
X84455000Y-83185000D02*
X83820000Y-83185000D01*
X124460000Y-83820000D02*
X115570000Y-83820000D01*
X84455000Y-83185000D02*
X114935000Y-83185000D01*
X115570000Y-83820000D02*
X114935000Y-83185000D01*
G04 #@! TO.N,/a7*
X81280000Y-43180000D02*
X81280000Y-45720000D01*
X114300000Y-83820000D02*
X81915000Y-83820000D01*
X81280000Y-83820000D02*
X81915000Y-83820000D01*
G04 #@! TO.N,/nand1*
X165100000Y-43180000D02*
X165100000Y-45720000D01*
G04 #@! TO.N,/nand0*
X167640000Y-43180000D02*
X167640000Y-45720000D01*
G04 #@! TO.N,VCC*
X215900000Y-53340000D02*
X218440000Y-53340000D01*
X218440000Y-53340000D02*
X218440000Y-50800000D01*
X218440000Y-48805000D02*
X217895000Y-48260000D01*
X218440000Y-50800000D02*
X218440000Y-48805000D01*
X109220000Y-105410000D02*
X119380000Y-105410000D01*
X189230000Y-80010000D02*
X189230000Y-89535000D01*
X218440000Y-53340000D02*
X217170000Y-54610000D01*
X189230000Y-89535000D02*
X188595000Y-90170000D01*
X214644999Y-64756411D02*
X214644999Y-78725001D01*
X217170000Y-54610000D02*
X217170000Y-62231410D01*
X217170000Y-62231410D02*
X214644999Y-64756411D01*
X188595000Y-90170000D02*
X180340000Y-90170000D01*
X189230000Y-80010000D02*
X189865000Y-79375000D01*
X189865000Y-79375000D02*
X213995000Y-79375000D01*
X213995000Y-79375000D02*
X214644999Y-78725001D01*
G04 #@! TO.N,GND*
X82870000Y-63726100D02*
X82867500Y-63728600D01*
X82870000Y-61420000D02*
X82870000Y-63726100D01*
X85407500Y-64027500D02*
X85407500Y-63728600D01*
X85410000Y-64030000D02*
X85407500Y-64027500D01*
X85410000Y-65230000D02*
X85410000Y-64030000D01*
X85407500Y-63728600D02*
X82867500Y-63728600D01*
X87947500Y-62622500D02*
X87947500Y-63728600D01*
X87950000Y-61420000D02*
X87950000Y-62620000D01*
X87950000Y-62620000D02*
X87947500Y-62622500D01*
X87947500Y-63728600D02*
X85407500Y-63728600D01*
X90487500Y-64027500D02*
X90487500Y-63728600D01*
X90490000Y-64030000D02*
X90487500Y-64027500D01*
X90490000Y-65230000D02*
X90490000Y-64030000D01*
X90487500Y-63728600D02*
X87947500Y-63728600D01*
X93030000Y-61420000D02*
X93030000Y-62620000D01*
X93027500Y-62622500D02*
X93027500Y-63728600D01*
X93030000Y-62620000D02*
X93027500Y-62622500D01*
X93027500Y-63728600D02*
X90487500Y-63728600D01*
X95567500Y-64027500D02*
X95567500Y-63728600D01*
X95570000Y-64030000D02*
X95567500Y-64027500D01*
X95570000Y-65230000D02*
X95570000Y-64030000D01*
X95567500Y-63728600D02*
X93027500Y-63728600D01*
X98107500Y-62622500D02*
X98107500Y-63728600D01*
X98110000Y-62620000D02*
X98107500Y-62622500D01*
X98110000Y-61420000D02*
X98110000Y-62620000D01*
X98107500Y-63728600D02*
X95567500Y-63728600D01*
X103187500Y-64027500D02*
X103187500Y-63728600D01*
X103190000Y-64030000D02*
X103187500Y-64027500D01*
X103190000Y-65230000D02*
X103190000Y-64030000D01*
X100647500Y-63728600D02*
X98107500Y-63728600D01*
X105730000Y-63726100D02*
X105727500Y-63728600D01*
X105730000Y-61420000D02*
X105730000Y-63726100D01*
X105727500Y-63728600D02*
X103187500Y-63728600D01*
X108267500Y-64027500D02*
X108267500Y-63728600D01*
X108270000Y-64030000D02*
X108267500Y-64027500D01*
X108270000Y-65230000D02*
X108270000Y-64030000D01*
X108267500Y-63728600D02*
X105727500Y-63728600D01*
X110810000Y-63726100D02*
X110807500Y-63728600D01*
X110810000Y-61420000D02*
X110810000Y-63726100D01*
X110807500Y-63728600D02*
X108267500Y-63728600D01*
X113350000Y-63731100D02*
X113347500Y-63728600D01*
X113350000Y-65230000D02*
X113350000Y-63731100D01*
X113347500Y-63728600D02*
X110807500Y-63728600D01*
X115890000Y-62620000D02*
X115887500Y-62622500D01*
X115890000Y-61420000D02*
X115890000Y-62620000D01*
X115887500Y-62622500D02*
X115887500Y-63728600D01*
X115887500Y-63728600D02*
X113347500Y-63728600D01*
X118430000Y-63731100D02*
X118427500Y-63728600D01*
X118430000Y-65230000D02*
X118430000Y-63731100D01*
X118427500Y-63728600D02*
X115887500Y-63728600D01*
X120967500Y-62622500D02*
X120967500Y-63728600D01*
X120970000Y-62620000D02*
X120967500Y-62622500D01*
X120970000Y-61420000D02*
X120970000Y-62620000D01*
X120967500Y-63728600D02*
X118427500Y-63728600D01*
X126047500Y-64027500D02*
X126047500Y-63728600D01*
X126050000Y-64030000D02*
X126047500Y-64027500D01*
X126050000Y-65230000D02*
X126050000Y-64030000D01*
X123507500Y-63728600D02*
X120967500Y-63728600D01*
X128587500Y-62622500D02*
X128587500Y-63728600D01*
X128590000Y-62620000D02*
X128587500Y-62622500D01*
X128590000Y-61420000D02*
X128590000Y-62620000D01*
X128587500Y-63728600D02*
X126047500Y-63728600D01*
X130875001Y-63730101D02*
X130873500Y-63728600D01*
X130875001Y-65230000D02*
X130875001Y-63730101D01*
X130873500Y-63728600D02*
X128587500Y-63728600D01*
X133670000Y-62620000D02*
X133667500Y-62622500D01*
X133670000Y-61420000D02*
X133670000Y-62620000D01*
X133667500Y-62622500D02*
X133667500Y-63728600D01*
X133667500Y-63728600D02*
X130873500Y-63728600D01*
X136207500Y-64027500D02*
X136207500Y-63728600D01*
X136210000Y-64030000D02*
X136207500Y-64027500D01*
X136210000Y-65230000D02*
X136210000Y-64030000D01*
X136207500Y-63728600D02*
X133667500Y-63728600D01*
X138747500Y-62622500D02*
X138747500Y-63728600D01*
X138750000Y-62620000D02*
X138747500Y-62622500D01*
X138750000Y-61420000D02*
X138750000Y-62620000D01*
X138747500Y-63728600D02*
X136207500Y-63728600D01*
X141290000Y-64030000D02*
X141287500Y-64027500D01*
X141287500Y-64027500D02*
X141287500Y-63728600D01*
X141290000Y-65230000D02*
X141290000Y-64030000D01*
X141287500Y-63728600D02*
X138747500Y-63728600D01*
X143827500Y-62622500D02*
X143827500Y-63728600D01*
X143830000Y-62620000D02*
X143827500Y-62622500D01*
X143830000Y-61420000D02*
X143830000Y-62620000D01*
X143827500Y-63728600D02*
X141287500Y-63728600D01*
X148910000Y-63731100D02*
X148907500Y-63728600D01*
X148910000Y-65230000D02*
X148910000Y-63731100D01*
X146367500Y-63728600D02*
X143827500Y-63728600D01*
X151447500Y-62622500D02*
X151447500Y-63728600D01*
X151450000Y-62620000D02*
X151447500Y-62622500D01*
X151450000Y-61420000D02*
X151450000Y-62620000D01*
X151447500Y-63728600D02*
X148907500Y-63728600D01*
X153987500Y-64027500D02*
X153987500Y-63728600D01*
X153990000Y-64030000D02*
X153987500Y-64027500D01*
X153990000Y-65230000D02*
X153990000Y-64030000D01*
X153987500Y-63728600D02*
X151447500Y-63728600D01*
X156527500Y-62622500D02*
X156527500Y-63728600D01*
X156530000Y-62620000D02*
X156527500Y-62622500D01*
X156530000Y-61420000D02*
X156530000Y-62620000D01*
X156527500Y-63728600D02*
X153987500Y-63728600D01*
X159070000Y-64030000D02*
X159067500Y-64027500D01*
X159070000Y-65230000D02*
X159070000Y-64030000D01*
X159067500Y-64027500D02*
X159067500Y-63728600D01*
X159067500Y-63728600D02*
X156527500Y-63728600D01*
X161607500Y-62622500D02*
X161607500Y-63728600D01*
X161610000Y-61420000D02*
X161610000Y-62620000D01*
X161610000Y-62620000D02*
X161607500Y-62622500D01*
X161607500Y-63728600D02*
X159067500Y-63728600D01*
X164150000Y-64030000D02*
X164147500Y-64027500D01*
X164147500Y-64027500D02*
X164147500Y-63728600D01*
X164150000Y-65230000D02*
X164150000Y-64030000D01*
X164147500Y-63728600D02*
X161607500Y-63728600D01*
X166690000Y-62620000D02*
X166687500Y-62622500D01*
X166687500Y-62622500D02*
X166687500Y-63728600D01*
X166690000Y-61420000D02*
X166690000Y-62620000D01*
X166687500Y-63728600D02*
X164147500Y-63728600D01*
X171767500Y-64027500D02*
X171767500Y-63728600D01*
X171770000Y-64030000D02*
X171767500Y-64027500D01*
X171770000Y-65230000D02*
X171770000Y-64030000D01*
X169227500Y-63728600D02*
X166687500Y-63728600D01*
X174310000Y-62620000D02*
X174307500Y-62622500D01*
X174310000Y-61420000D02*
X174310000Y-62620000D01*
X174307500Y-62622500D02*
X174307500Y-63728600D01*
X174307500Y-63728600D02*
X171767500Y-63728600D01*
X176847500Y-64027500D02*
X176847500Y-63728600D01*
X176850000Y-64030000D02*
X176847500Y-64027500D01*
X176850000Y-65230000D02*
X176850000Y-64030000D01*
X176847500Y-63728600D02*
X174307500Y-63728600D01*
X179387500Y-62622500D02*
X179387500Y-63728600D01*
X179390000Y-62620000D02*
X179387500Y-62622500D01*
X179390000Y-61420000D02*
X179390000Y-62620000D01*
X179387500Y-63728600D02*
X176847500Y-63728600D01*
X181930000Y-63731100D02*
X181927500Y-63728600D01*
X181930000Y-65230000D02*
X181930000Y-63731100D01*
X181927500Y-63728600D02*
X179387500Y-63728600D01*
X184470000Y-63726100D02*
X184467500Y-63728600D01*
X184470000Y-61420000D02*
X184470000Y-63726100D01*
X184467500Y-63728600D02*
X181927500Y-63728600D01*
X187010000Y-64030000D02*
X187007500Y-64027500D01*
X187010000Y-65230000D02*
X187010000Y-64030000D01*
X187007500Y-64027500D02*
X187007500Y-63728600D01*
X187007500Y-63728600D02*
X184467500Y-63728600D01*
X189550000Y-63726100D02*
X189547500Y-63728600D01*
X189550000Y-61420000D02*
X189550000Y-63726100D01*
X189547500Y-63728600D02*
X187007500Y-63728600D01*
X194627500Y-64027500D02*
X194627500Y-63728600D01*
X194630000Y-65230000D02*
X194630000Y-64030000D01*
X194630000Y-64030000D02*
X194627500Y-64027500D01*
X194627500Y-63728600D02*
X192087500Y-63728600D01*
X197167500Y-62622500D02*
X197167500Y-63728600D01*
X197170000Y-62620000D02*
X197167500Y-62622500D01*
X197170000Y-61420000D02*
X197170000Y-62620000D01*
X197167500Y-63728600D02*
X194627500Y-63728600D01*
X199707500Y-64027500D02*
X199707500Y-63728600D01*
X199710000Y-64030000D02*
X199707500Y-64027500D01*
X199710000Y-65230000D02*
X199710000Y-64030000D01*
X199707500Y-63728600D02*
X197167500Y-63728600D01*
X202250000Y-63726100D02*
X202247500Y-63728600D01*
X202250000Y-61420000D02*
X202250000Y-63726100D01*
X202247500Y-63728600D02*
X199707500Y-63728600D01*
X204787500Y-64027500D02*
X204787500Y-63728600D01*
X204790000Y-64030000D02*
X204787500Y-64027500D01*
X204790000Y-65230000D02*
X204790000Y-64030000D01*
X204787500Y-63728600D02*
X202247500Y-63728600D01*
X207330000Y-62620000D02*
X207327500Y-62622500D01*
X207330000Y-61420000D02*
X207330000Y-62620000D01*
X207327500Y-62622500D02*
X207327500Y-63728600D01*
X207327500Y-63728600D02*
X204787500Y-63728600D01*
X209867500Y-64027500D02*
X209867500Y-63728600D01*
X209870000Y-64030000D02*
X209867500Y-64027500D01*
X209870000Y-65230000D02*
X209870000Y-64030000D01*
X209867500Y-63728600D02*
X207327500Y-63728600D01*
X209867500Y-63728600D02*
X211861400Y-63728600D01*
X215900000Y-62865000D02*
X215900000Y-55880000D01*
X215036400Y-63728600D02*
X215900000Y-62865000D01*
X212407500Y-62622500D02*
X212407500Y-63728600D01*
X212410000Y-61420000D02*
X212410000Y-62620000D01*
X212410000Y-62620000D02*
X212407500Y-62622500D01*
X211861400Y-63728600D02*
X212407500Y-63728600D01*
X80631400Y-63728600D02*
X80645000Y-63728600D01*
X80330000Y-64030000D02*
X80631400Y-63728600D01*
X80330000Y-65230000D02*
X80330000Y-64030000D01*
X82867500Y-63728600D02*
X80645000Y-63728600D01*
X123507500Y-63728600D02*
X126047500Y-63728600D01*
X100647500Y-63728600D02*
X103187500Y-63728600D01*
X146367500Y-63728600D02*
X148907500Y-63728600D01*
X169227500Y-63728600D02*
X171767500Y-63728600D01*
X189547500Y-63728600D02*
X192087500Y-63728600D01*
X125974999Y-102625001D02*
X127000000Y-101600000D01*
X116840000Y-101600000D02*
X117865001Y-102625001D01*
X117865001Y-102625001D02*
X125974999Y-102625001D01*
X81280000Y-91440000D02*
X99060000Y-91440000D01*
X81280000Y-93980000D02*
X99060000Y-93980000D01*
X99060000Y-91440000D02*
X99060000Y-93980000D01*
X110242998Y-91440000D02*
X99060000Y-91440000D01*
X116840000Y-91440000D02*
X115814999Y-90414999D01*
X111267999Y-90414999D02*
X110242998Y-91440000D01*
X115814999Y-90414999D02*
X111267999Y-90414999D01*
X213995000Y-78105000D02*
X213995000Y-63728600D01*
X213995000Y-63728600D02*
X215036400Y-63728600D01*
X187960000Y-79375000D02*
X188595000Y-78740000D01*
X187960000Y-86360000D02*
X187960000Y-79375000D01*
X213360000Y-78740000D02*
X213995000Y-78105000D01*
X212407500Y-63728600D02*
X213995000Y-63728600D01*
X188595000Y-78740000D02*
X213360000Y-78740000D01*
G04 #@! TO.N,/nor0*
X144780000Y-43180000D02*
X144780000Y-45720000D01*
X151130000Y-75565000D02*
X153035000Y-77470000D01*
X144780000Y-75565000D02*
X151130000Y-75565000D01*
X153035000Y-77470000D02*
X160020000Y-77470000D01*
X160020000Y-77470000D02*
X161925000Y-79375000D01*
X161925000Y-79375000D02*
X168910000Y-79375000D01*
X180340000Y-79375000D02*
X168910000Y-79375000D01*
G04 #@! TO.N,/nand0*
X169546410Y-78105000D02*
X167640000Y-78105000D01*
X170815000Y-78105000D02*
X169546410Y-78105000D01*
X181610000Y-78105000D02*
X180975000Y-78105000D01*
X170815000Y-78105000D02*
X180975000Y-78105000D01*
G04 #@! TO.N,/and0*
X184150000Y-78105000D02*
X190500000Y-78105000D01*
G04 #@! TO.N,/or0*
X213360000Y-43180000D02*
X213360000Y-45720000D01*
X214310000Y-61420000D02*
X213375500Y-61420000D01*
X213375500Y-61420000D02*
X213360000Y-61404500D01*
X179705000Y-71755000D02*
X213360000Y-71755000D01*
G04 #@! TO.N,/nor1*
X142240000Y-43180000D02*
X142240000Y-45720000D01*
X143510000Y-76200000D02*
X150495000Y-76200000D01*
X142240000Y-74930000D02*
X143510000Y-76200000D01*
X150495000Y-76200000D02*
X152400000Y-78105000D01*
X159385000Y-78105000D02*
X161290000Y-80010000D01*
X152400000Y-78105000D02*
X159385000Y-78105000D01*
X170180000Y-80010000D02*
X168275000Y-80010000D01*
X161290000Y-80010000D02*
X168275000Y-80010000D01*
G04 #@! TO.N,/nand1*
X171450000Y-78740000D02*
X169545000Y-78740000D01*
X165100000Y-78740000D02*
X169545000Y-78740000D01*
G04 #@! TO.N,/and1*
X173990000Y-77470000D02*
X174625000Y-77470000D01*
X174625000Y-77470000D02*
X187960000Y-77470000D01*
G04 #@! TO.N,/or1*
X210820000Y-43180000D02*
X210820000Y-45720000D01*
X211770000Y-65230000D02*
X210835500Y-65230000D01*
X210835500Y-65230000D02*
X210820000Y-65214500D01*
X169545000Y-71120000D02*
X210820000Y-71120000D01*
G04 #@! TO.N,/nor2*
X139700000Y-43180000D02*
X139700000Y-45720000D01*
X139700000Y-74930000D02*
X140336410Y-74930000D01*
X140336410Y-74930000D02*
X140970000Y-74930000D01*
X140970000Y-74930000D02*
X142875000Y-76835000D01*
X142875000Y-76835000D02*
X149860000Y-76835000D01*
X149860000Y-76835000D02*
X151765000Y-78740000D01*
X151765000Y-78740000D02*
X155575000Y-78740000D01*
X155575000Y-78740000D02*
X158750000Y-78740000D01*
X158750000Y-78740000D02*
X160020000Y-80010000D01*
G04 #@! TO.N,/nand2*
X162560000Y-43180000D02*
X162560000Y-45720000D01*
G04 #@! TO.N,/and2*
X163830000Y-76835000D02*
X185420000Y-76835000D01*
G04 #@! TO.N,/or2*
X208280000Y-43180000D02*
X208280000Y-45720000D01*
X159385000Y-70485000D02*
X208280000Y-70485000D01*
G04 #@! TO.N,/nor3*
X137160000Y-43180000D02*
X137160000Y-45720000D01*
X149860000Y-78105000D02*
X149225000Y-77470000D01*
X149225000Y-77470000D02*
X142240000Y-77470000D01*
X142240000Y-77470000D02*
X140335000Y-75565000D01*
X140335000Y-75565000D02*
X137160000Y-75565000D01*
G04 #@! TO.N,/nand3*
X160020000Y-43180000D02*
X160020000Y-45720000D01*
X152400000Y-75565000D02*
X160020000Y-75565000D01*
G04 #@! TO.N,/and3*
X153670000Y-76200000D02*
X182880000Y-76200000D01*
G04 #@! TO.N,/or3*
X205740000Y-43180000D02*
X205740000Y-45720000D01*
X149225000Y-69850000D02*
X205740000Y-69850000D01*
G04 #@! TO.N,/nor4*
X134620000Y-43180000D02*
X134620000Y-45720000D01*
X139700000Y-76200000D02*
X134620000Y-76200000D01*
G04 #@! TO.N,/nand4*
X157480000Y-43180000D02*
X157480000Y-45720000D01*
X141605000Y-74295000D02*
X142875000Y-74295000D01*
X143510000Y-74930000D02*
X157480000Y-74930000D01*
X142875000Y-74295000D02*
X143510000Y-74930000D01*
G04 #@! TO.N,/and4*
X146050000Y-72390000D02*
X145415000Y-71755000D01*
X156210000Y-72390000D02*
X146050000Y-72390000D01*
X145415000Y-71755000D02*
X143510000Y-71755000D01*
X157480000Y-73660000D02*
X156210000Y-72390000D01*
X180340000Y-73660000D02*
X158113590Y-73660000D01*
X158113590Y-73660000D02*
X157480000Y-73660000D01*
G04 #@! TO.N,/or4*
X203200000Y-43180000D02*
X203200000Y-45720000D01*
X203200000Y-69215000D02*
X139065000Y-69215000D01*
G04 #@! TO.N,/nor5*
X132080000Y-43180000D02*
X132080000Y-45720000D01*
X130175000Y-71120000D02*
X132080000Y-71120000D01*
G04 #@! TO.N,/nand5*
X154940000Y-43180000D02*
X154940000Y-45720000D01*
X143510000Y-73660000D02*
X131445000Y-73660000D01*
X143510000Y-73660000D02*
X144145000Y-74295000D01*
X144145000Y-74295000D02*
X154940000Y-74295000D01*
G04 #@! TO.N,/and5*
X146685000Y-71755000D02*
X146050000Y-71120000D01*
X158115000Y-73025000D02*
X156845000Y-71755000D01*
X156845000Y-71755000D02*
X146685000Y-71755000D01*
X146050000Y-71120000D02*
X133350000Y-71120000D01*
X158748590Y-73025000D02*
X158115000Y-73025000D01*
X177800000Y-73025000D02*
X158748590Y-73025000D01*
G04 #@! TO.N,/or5*
X200660000Y-43180000D02*
X200660000Y-45720000D01*
X200660000Y-68580000D02*
X128905000Y-68580000D01*
G04 #@! TO.N,/nor6*
X129540000Y-43180000D02*
X129540000Y-45720000D01*
X120015000Y-74295000D02*
X129540000Y-74295000D01*
G04 #@! TO.N,/nand6*
X152400000Y-43180000D02*
X152400000Y-45720000D01*
X144145000Y-73025000D02*
X121285000Y-73025000D01*
X144145000Y-73025000D02*
X144780000Y-73660000D01*
X144780000Y-73660000D02*
X152400000Y-73660000D01*
G04 #@! TO.N,/and6*
X147320000Y-71120000D02*
X146685000Y-70485000D01*
X158750000Y-72390000D02*
X157480000Y-71120000D01*
X157480000Y-71120000D02*
X147320000Y-71120000D01*
X146685000Y-70485000D02*
X123190000Y-70485000D01*
X175260000Y-72390000D02*
X158750000Y-72390000D01*
G04 #@! TO.N,/or6*
X198120000Y-43180000D02*
X198120000Y-45720000D01*
X198120000Y-67945000D02*
X118745000Y-67945000D01*
G04 #@! TO.N,/nor7*
X111760000Y-93980000D02*
X111760000Y-91440000D01*
X111760000Y-86360000D02*
X110490000Y-85090000D01*
X114300000Y-96520000D02*
X111760000Y-93980000D01*
X110490000Y-85090000D02*
X109220000Y-85090000D01*
X127000000Y-43180000D02*
X127000000Y-45720000D01*
X119380000Y-73660000D02*
X127000000Y-73660000D01*
X119380000Y-73660000D02*
X110109999Y-73660000D01*
G04 #@! TO.N,/nand7*
X109220000Y-113030000D02*
X110490000Y-113030000D01*
X110490000Y-113030000D02*
X111760000Y-111760000D01*
X149860000Y-43180000D02*
X149860000Y-45720000D01*
X144780000Y-72390000D02*
X111125000Y-72390000D01*
X145415000Y-73025000D02*
X149860000Y-73025000D01*
X144780000Y-72390000D02*
X145415000Y-73025000D01*
G04 #@! TO.N,/and7*
X110490000Y-100330000D02*
X109220000Y-100330000D01*
X111760000Y-101600000D02*
X110490000Y-100330000D01*
X147320000Y-69850000D02*
X147955000Y-70485000D01*
X147955000Y-70485000D02*
X158115000Y-70485000D01*
X113030000Y-69850000D02*
X147320000Y-69850000D01*
X159385000Y-71755000D02*
X160020000Y-71755000D01*
X158115000Y-70485000D02*
X159385000Y-71755000D01*
X160020000Y-71755000D02*
X172720000Y-71755000D01*
G04 #@! TO.N,/or7*
X110490000Y-97790000D02*
X109220000Y-97790000D01*
X111760000Y-96520000D02*
X110490000Y-97790000D01*
X195580000Y-43180000D02*
X195580000Y-45720000D01*
X195580000Y-67310000D02*
X108585000Y-67310000D01*
G04 #@! TO.N,Net-(D1-Pad2)*
X215900000Y-48805000D02*
X216445000Y-48260000D01*
X215900000Y-50800000D02*
X215900000Y-48805000D01*
X215900000Y-50800000D02*
X213360000Y-50800000D01*
X213360000Y-50800000D02*
X210820000Y-50800000D01*
X210820000Y-50800000D02*
X208280000Y-50800000D01*
X208280000Y-50800000D02*
X205740000Y-50800000D01*
X205740000Y-50800000D02*
X203200000Y-50800000D01*
X203200000Y-50800000D02*
X200660000Y-50800000D01*
X200660000Y-50800000D02*
X198120000Y-50800000D01*
X198120000Y-50800000D02*
X195580000Y-50800000D01*
X195580000Y-50800000D02*
X193040000Y-50800000D01*
X190500000Y-50800000D02*
X187960000Y-50800000D01*
X187960000Y-50800000D02*
X185420000Y-50800000D01*
X185420000Y-50800000D02*
X182880000Y-50800000D01*
X182880000Y-50800000D02*
X180340000Y-50800000D01*
X180340000Y-50800000D02*
X177800000Y-50800000D01*
X177800000Y-50800000D02*
X175260000Y-50800000D01*
X175260000Y-50800000D02*
X172720000Y-50800000D01*
X170180000Y-50800000D02*
X167640000Y-50800000D01*
X167640000Y-50800000D02*
X165100000Y-50800000D01*
X165100000Y-50800000D02*
X162560000Y-50800000D01*
X162560000Y-50800000D02*
X160020000Y-50800000D01*
X160020000Y-50800000D02*
X157480000Y-50800000D01*
X157480000Y-50800000D02*
X154940000Y-50800000D01*
X154940000Y-50800000D02*
X152400000Y-50800000D01*
X144780000Y-50800000D02*
X142240000Y-50800000D01*
X142240000Y-50800000D02*
X139700000Y-50800000D01*
X139700000Y-50800000D02*
X137160000Y-50800000D01*
X137160000Y-50800000D02*
X134620000Y-50800000D01*
X134620000Y-50800000D02*
X132080000Y-50800000D01*
X132080000Y-50800000D02*
X129540000Y-50800000D01*
X129540000Y-50800000D02*
X127000000Y-50800000D01*
X124460000Y-50800000D02*
X121920000Y-50800000D01*
X121920000Y-50800000D02*
X119380000Y-50800000D01*
X119380000Y-50800000D02*
X116840000Y-50800000D01*
X116840000Y-50800000D02*
X114300000Y-50800000D01*
X114300000Y-50800000D02*
X111760000Y-50800000D01*
X111760000Y-50800000D02*
X109220000Y-50800000D01*
X109220000Y-50800000D02*
X106680000Y-50800000D01*
X106680000Y-50800000D02*
X104140000Y-50800000D01*
X101600000Y-50800000D02*
X99060000Y-50800000D01*
X99060000Y-50800000D02*
X96520000Y-50800000D01*
X96520000Y-50800000D02*
X93980000Y-50800000D01*
X93980000Y-50800000D02*
X91440000Y-50800000D01*
X91440000Y-50800000D02*
X88900000Y-50800000D01*
X88900000Y-50800000D02*
X86360000Y-50800000D01*
X86360000Y-50800000D02*
X83820000Y-50800000D01*
X83820000Y-50800000D02*
X81280000Y-50800000D01*
X152400000Y-50800000D02*
X149715001Y-50800000D01*
X147175001Y-50800000D02*
X144780000Y-50800000D01*
X193040000Y-50800000D02*
X190500000Y-50800000D01*
X170180000Y-50800000D02*
X172720000Y-50800000D01*
X147175001Y-50800000D02*
X149860000Y-50800000D01*
X124460000Y-50800000D02*
X127000000Y-50800000D01*
X101600000Y-50800000D02*
X104140000Y-50800000D01*
G04 #@! TO.N,Net-(D8-Pad1)*
X81280000Y-52560000D02*
X81280000Y-54610000D01*
G04 #@! TO.N,Net-(D16-Pad1)*
X104140000Y-52560000D02*
X104140000Y-54610000D01*
G04 #@! TO.N,Net-(D24-Pad1)*
X127000000Y-52560000D02*
X127000000Y-54610000D01*
G04 #@! TO.N,Net-(D25-Pad1)*
X167640000Y-52560000D02*
X167640000Y-54610000D01*
G04 #@! TO.N,Net-(D26-Pad1)*
X165100000Y-52560000D02*
X165100000Y-54610000D01*
G04 #@! TO.N,Net-(D27-Pad1)*
X162560000Y-52560000D02*
X162560000Y-54610000D01*
G04 #@! TO.N,Net-(D28-Pad1)*
X160020000Y-52560000D02*
X160020000Y-54610000D01*
G04 #@! TO.N,Net-(D29-Pad1)*
X157480000Y-52560000D02*
X157480000Y-54610000D01*
G04 #@! TO.N,Net-(D30-Pad1)*
X154940000Y-52560000D02*
X154940000Y-54610000D01*
G04 #@! TO.N,Net-(D31-Pad1)*
X152400000Y-52560000D02*
X152400000Y-54610000D01*
G04 #@! TO.N,Net-(D32-Pad1)*
X149860000Y-52560000D02*
X149860000Y-54610000D01*
G04 #@! TO.N,Net-(D41-Pad1)*
X213360000Y-52560000D02*
X213360000Y-54610000D01*
G04 #@! TO.N,Net-(D42-Pad1)*
X210820000Y-52560000D02*
X210820000Y-54610000D01*
G04 #@! TO.N,Net-(D43-Pad1)*
X208280000Y-52560000D02*
X208280000Y-54610000D01*
G04 #@! TO.N,Net-(D44-Pad1)*
X205740000Y-52560000D02*
X205740000Y-54610000D01*
G04 #@! TO.N,Net-(D45-Pad1)*
X203200000Y-52560000D02*
X203200000Y-54610000D01*
G04 #@! TO.N,Net-(D46-Pad1)*
X200660000Y-52560000D02*
X200660000Y-54610000D01*
G04 #@! TO.N,Net-(D47-Pad1)*
X198120000Y-52560000D02*
X198120000Y-54610000D01*
G04 #@! TO.N,Net-(D48-Pad1)*
X195580000Y-52560000D02*
X195580000Y-54610000D01*
G04 #@! TO.N,Net-(Q47-Pad3)*
X116840000Y-111760000D02*
X111760000Y-106680000D01*
G04 #@! TO.N,Net-(Q49-Pad3)*
X99060000Y-56545000D02*
X99060000Y-58420000D01*
G04 #@! TO.N,Net-(Q50-Pad3)*
X96520000Y-56545000D02*
X96520000Y-62230000D01*
G04 #@! TO.N,Net-(Q51-Pad3)*
X93980000Y-56545000D02*
X93980000Y-58420000D01*
G04 #@! TO.N,Net-(Q52-Pad3)*
X91440000Y-56545000D02*
X91440000Y-62230000D01*
G04 #@! TO.N,Net-(Q53-Pad3)*
X88900000Y-56545000D02*
X88900000Y-58420000D01*
G04 #@! TO.N,Net-(Q54-Pad3)*
X86360000Y-56545000D02*
X86360000Y-62230000D01*
G04 #@! TO.N,Net-(Q55-Pad3)*
X83820000Y-56545000D02*
X83820000Y-58420000D01*
G04 #@! TO.N,Net-(Q56-Pad3)*
X81280000Y-56545000D02*
X81280000Y-62230000D01*
G04 #@! TD*
M02*
