G04 #@! TF.GenerationSoftware,KiCad,Pcbnew,(5.0.0-rc2-200-g1f6f76beb)*
G04 #@! TF.CreationDate,2018-07-19T02:54:02+02:00*
G04 #@! TF.ProjectId,8-bit-bitwise-logic,382D6269742D626974776973652D6C6F,rev?*
G04 #@! TF.SameCoordinates,Original*
G04 #@! TF.FileFunction,Soldermask,Top*
G04 #@! TF.FilePolarity,Negative*
%FSLAX46Y46*%
G04 Gerber Fmt 4.6, Leading zero omitted, Abs format (unit mm)*
G04 Created by KiCad (PCBNEW (5.0.0-rc2-200-g1f6f76beb)) date Thu Jul 19 02:54:02 2018*
%MOMM*%
%LPD*%
G01*
G04 APERTURE LIST*
%ADD10C,0.200000*%
%ADD11C,0.250000*%
%ADD12C,1.924000*%
%ADD13C,1.800000*%
%ADD14R,1.800000X1.800000*%
%ADD15O,1.800000X1.800000*%
%ADD16R,1.720000X1.920000*%
%ADD17R,2.100000X2.100000*%
%ADD18O,2.100000X2.100000*%
%ADD19C,0.300000*%
%ADD20C,0.100000*%
%ADD21R,1.200000X2.300000*%
%ADD22R,1.800000X1.695000*%
%ADD23C,4.800000*%
G04 APERTURE END LIST*
D10*
X192138095Y-112212380D02*
X192138095Y-111212380D01*
X192519047Y-111212380D01*
X192614285Y-111260000D01*
X192661904Y-111307619D01*
X192709523Y-111402857D01*
X192709523Y-111545714D01*
X192661904Y-111640952D01*
X192614285Y-111688571D01*
X192519047Y-111736190D01*
X192138095Y-111736190D01*
X193138095Y-112212380D02*
X193138095Y-111545714D01*
X193138095Y-111736190D02*
X193185714Y-111640952D01*
X193233333Y-111593333D01*
X193328571Y-111545714D01*
X193423809Y-111545714D01*
X193900000Y-112212380D02*
X193804761Y-112164761D01*
X193757142Y-112117142D01*
X193709523Y-112021904D01*
X193709523Y-111736190D01*
X193757142Y-111640952D01*
X193804761Y-111593333D01*
X193900000Y-111545714D01*
X194042857Y-111545714D01*
X194138095Y-111593333D01*
X194185714Y-111640952D01*
X194233333Y-111736190D01*
X194233333Y-112021904D01*
X194185714Y-112117142D01*
X194138095Y-112164761D01*
X194042857Y-112212380D01*
X193900000Y-112212380D01*
X195090476Y-112212380D02*
X195090476Y-111212380D01*
X195090476Y-112164761D02*
X194995238Y-112212380D01*
X194804761Y-112212380D01*
X194709523Y-112164761D01*
X194661904Y-112117142D01*
X194614285Y-112021904D01*
X194614285Y-111736190D01*
X194661904Y-111640952D01*
X194709523Y-111593333D01*
X194804761Y-111545714D01*
X194995238Y-111545714D01*
X195090476Y-111593333D01*
X195995238Y-111545714D02*
X195995238Y-112212380D01*
X195566666Y-111545714D02*
X195566666Y-112069523D01*
X195614285Y-112164761D01*
X195709523Y-112212380D01*
X195852380Y-112212380D01*
X195947619Y-112164761D01*
X195995238Y-112117142D01*
X196900000Y-112164761D02*
X196804761Y-112212380D01*
X196614285Y-112212380D01*
X196519047Y-112164761D01*
X196471428Y-112117142D01*
X196423809Y-112021904D01*
X196423809Y-111736190D01*
X196471428Y-111640952D01*
X196519047Y-111593333D01*
X196614285Y-111545714D01*
X196804761Y-111545714D01*
X196900000Y-111593333D01*
X197185714Y-111545714D02*
X197566666Y-111545714D01*
X197328571Y-111212380D02*
X197328571Y-112069523D01*
X197376190Y-112164761D01*
X197471428Y-112212380D01*
X197566666Y-112212380D01*
X197900000Y-112212380D02*
X197900000Y-111545714D01*
X197900000Y-111212380D02*
X197852380Y-111260000D01*
X197900000Y-111307619D01*
X197947619Y-111260000D01*
X197900000Y-111212380D01*
X197900000Y-111307619D01*
X198519047Y-112212380D02*
X198423809Y-112164761D01*
X198376190Y-112117142D01*
X198328571Y-112021904D01*
X198328571Y-111736190D01*
X198376190Y-111640952D01*
X198423809Y-111593333D01*
X198519047Y-111545714D01*
X198661904Y-111545714D01*
X198757142Y-111593333D01*
X198804761Y-111640952D01*
X198852380Y-111736190D01*
X198852380Y-112021904D01*
X198804761Y-112117142D01*
X198757142Y-112164761D01*
X198661904Y-112212380D01*
X198519047Y-112212380D01*
X199280952Y-111545714D02*
X199280952Y-112212380D01*
X199280952Y-111640952D02*
X199328571Y-111593333D01*
X199423809Y-111545714D01*
X199566666Y-111545714D01*
X199661904Y-111593333D01*
X199709523Y-111688571D01*
X199709523Y-112212380D01*
X200185714Y-112117142D02*
X200233333Y-112164761D01*
X200185714Y-112212380D01*
X200138095Y-112164761D01*
X200185714Y-112117142D01*
X200185714Y-112212380D01*
X200185714Y-111593333D02*
X200233333Y-111640952D01*
X200185714Y-111688571D01*
X200138095Y-111640952D01*
X200185714Y-111593333D01*
X200185714Y-111688571D01*
X201423809Y-112212380D02*
X201423809Y-111212380D01*
X201852380Y-112212380D02*
X201852380Y-111688571D01*
X201804761Y-111593333D01*
X201709523Y-111545714D01*
X201566666Y-111545714D01*
X201471428Y-111593333D01*
X201423809Y-111640952D01*
X202185714Y-111545714D02*
X202566666Y-111545714D01*
X202328571Y-111212380D02*
X202328571Y-112069523D01*
X202376190Y-112164761D01*
X202471428Y-112212380D01*
X202566666Y-112212380D01*
X202757142Y-111545714D02*
X203138095Y-111545714D01*
X202900000Y-111212380D02*
X202900000Y-112069523D01*
X202947619Y-112164761D01*
X203042857Y-112212380D01*
X203138095Y-112212380D01*
X203471428Y-111545714D02*
X203471428Y-112545714D01*
X203471428Y-111593333D02*
X203566666Y-111545714D01*
X203757142Y-111545714D01*
X203852380Y-111593333D01*
X203900000Y-111640952D01*
X203947619Y-111736190D01*
X203947619Y-112021904D01*
X203900000Y-112117142D01*
X203852380Y-112164761D01*
X203757142Y-112212380D01*
X203566666Y-112212380D01*
X203471428Y-112164761D01*
X204328571Y-112164761D02*
X204423809Y-112212380D01*
X204614285Y-112212380D01*
X204709523Y-112164761D01*
X204757142Y-112069523D01*
X204757142Y-112021904D01*
X204709523Y-111926666D01*
X204614285Y-111879047D01*
X204471428Y-111879047D01*
X204376190Y-111831428D01*
X204328571Y-111736190D01*
X204328571Y-111688571D01*
X204376190Y-111593333D01*
X204471428Y-111545714D01*
X204614285Y-111545714D01*
X204709523Y-111593333D01*
X205185714Y-112117142D02*
X205233333Y-112164761D01*
X205185714Y-112212380D01*
X205138095Y-112164761D01*
X205185714Y-112117142D01*
X205185714Y-112212380D01*
X205185714Y-111593333D02*
X205233333Y-111640952D01*
X205185714Y-111688571D01*
X205138095Y-111640952D01*
X205185714Y-111593333D01*
X205185714Y-111688571D01*
X206376190Y-111164761D02*
X205519047Y-112450476D01*
X207423809Y-111164761D02*
X206566666Y-112450476D01*
X207757142Y-112212380D02*
X207757142Y-111212380D01*
X208138095Y-111212380D01*
X208233333Y-111260000D01*
X208280952Y-111307619D01*
X208328571Y-111402857D01*
X208328571Y-111545714D01*
X208280952Y-111640952D01*
X208233333Y-111688571D01*
X208138095Y-111736190D01*
X207757142Y-111736190D01*
X209328571Y-112117142D02*
X209280952Y-112164761D01*
X209138095Y-112212380D01*
X209042857Y-112212380D01*
X208900000Y-112164761D01*
X208804761Y-112069523D01*
X208757142Y-111974285D01*
X208709523Y-111783809D01*
X208709523Y-111640952D01*
X208757142Y-111450476D01*
X208804761Y-111355238D01*
X208900000Y-111260000D01*
X209042857Y-111212380D01*
X209138095Y-111212380D01*
X209280952Y-111260000D01*
X209328571Y-111307619D01*
X210090476Y-111688571D02*
X210233333Y-111736190D01*
X210280952Y-111783809D01*
X210328571Y-111879047D01*
X210328571Y-112021904D01*
X210280952Y-112117142D01*
X210233333Y-112164761D01*
X210138095Y-112212380D01*
X209757142Y-112212380D01*
X209757142Y-111212380D01*
X210090476Y-111212380D01*
X210185714Y-111260000D01*
X210233333Y-111307619D01*
X210280952Y-111402857D01*
X210280952Y-111498095D01*
X210233333Y-111593333D01*
X210185714Y-111640952D01*
X210090476Y-111688571D01*
X209757142Y-111688571D01*
X210709523Y-112164761D02*
X210804761Y-112212380D01*
X210995238Y-112212380D01*
X211090476Y-112164761D01*
X211138095Y-112069523D01*
X211138095Y-112021904D01*
X211090476Y-111926666D01*
X210995238Y-111879047D01*
X210852380Y-111879047D01*
X210757142Y-111831428D01*
X210709523Y-111736190D01*
X210709523Y-111688571D01*
X210757142Y-111593333D01*
X210852380Y-111545714D01*
X210995238Y-111545714D01*
X211090476Y-111593333D01*
X211566666Y-112117142D02*
X211614285Y-112164761D01*
X211566666Y-112212380D01*
X211519047Y-112164761D01*
X211566666Y-112117142D01*
X211566666Y-112212380D01*
X212042857Y-112212380D02*
X212042857Y-111545714D01*
X212042857Y-111212380D02*
X211995238Y-111260000D01*
X212042857Y-111307619D01*
X212090476Y-111260000D01*
X212042857Y-111212380D01*
X212042857Y-111307619D01*
X212661904Y-112212380D02*
X212566666Y-112164761D01*
X212519047Y-112117142D01*
X212471428Y-112021904D01*
X212471428Y-111736190D01*
X212519047Y-111640952D01*
X212566666Y-111593333D01*
X212661904Y-111545714D01*
X212804761Y-111545714D01*
X212900000Y-111593333D01*
X212947619Y-111640952D01*
X212995238Y-111736190D01*
X212995238Y-112021904D01*
X212947619Y-112117142D01*
X212900000Y-112164761D01*
X212804761Y-112212380D01*
X212661904Y-112212380D01*
D11*
X192389642Y-86517142D02*
X192275357Y-86460000D01*
X192218214Y-86402857D01*
X192161071Y-86288571D01*
X192161071Y-86231428D01*
X192218214Y-86117142D01*
X192275357Y-86060000D01*
X192389642Y-86002857D01*
X192618214Y-86002857D01*
X192732500Y-86060000D01*
X192789642Y-86117142D01*
X192846785Y-86231428D01*
X192846785Y-86288571D01*
X192789642Y-86402857D01*
X192732500Y-86460000D01*
X192618214Y-86517142D01*
X192389642Y-86517142D01*
X192275357Y-86574285D01*
X192218214Y-86631428D01*
X192161071Y-86745714D01*
X192161071Y-86974285D01*
X192218214Y-87088571D01*
X192275357Y-87145714D01*
X192389642Y-87202857D01*
X192618214Y-87202857D01*
X192732500Y-87145714D01*
X192789642Y-87088571D01*
X192846785Y-86974285D01*
X192846785Y-86745714D01*
X192789642Y-86631428D01*
X192732500Y-86574285D01*
X192618214Y-86517142D01*
X193361071Y-86745714D02*
X194275357Y-86745714D01*
X194846785Y-87202857D02*
X194846785Y-86002857D01*
X194846785Y-86460000D02*
X194961071Y-86402857D01*
X195189642Y-86402857D01*
X195303928Y-86460000D01*
X195361071Y-86517142D01*
X195418214Y-86631428D01*
X195418214Y-86974285D01*
X195361071Y-87088571D01*
X195303928Y-87145714D01*
X195189642Y-87202857D01*
X194961071Y-87202857D01*
X194846785Y-87145714D01*
X195932500Y-87202857D02*
X195932500Y-86402857D01*
X195932500Y-86002857D02*
X195875357Y-86060000D01*
X195932500Y-86117142D01*
X195989642Y-86060000D01*
X195932500Y-86002857D01*
X195932500Y-86117142D01*
X196332500Y-86402857D02*
X196789642Y-86402857D01*
X196503928Y-86002857D02*
X196503928Y-87031428D01*
X196561071Y-87145714D01*
X196675357Y-87202857D01*
X196789642Y-87202857D01*
X198103928Y-87202857D02*
X198103928Y-86002857D01*
X198103928Y-86460000D02*
X198218214Y-86402857D01*
X198446785Y-86402857D01*
X198561071Y-86460000D01*
X198618214Y-86517142D01*
X198675357Y-86631428D01*
X198675357Y-86974285D01*
X198618214Y-87088571D01*
X198561071Y-87145714D01*
X198446785Y-87202857D01*
X198218214Y-87202857D01*
X198103928Y-87145714D01*
X199189642Y-87202857D02*
X199189642Y-86402857D01*
X199189642Y-86002857D02*
X199132500Y-86060000D01*
X199189642Y-86117142D01*
X199246785Y-86060000D01*
X199189642Y-86002857D01*
X199189642Y-86117142D01*
X199589642Y-86402857D02*
X200046785Y-86402857D01*
X199761071Y-86002857D02*
X199761071Y-87031428D01*
X199818214Y-87145714D01*
X199932500Y-87202857D01*
X200046785Y-87202857D01*
X200332500Y-86402857D02*
X200561071Y-87202857D01*
X200789642Y-86631428D01*
X201018214Y-87202857D01*
X201246785Y-86402857D01*
X201703928Y-87202857D02*
X201703928Y-86402857D01*
X201703928Y-86002857D02*
X201646785Y-86060000D01*
X201703928Y-86117142D01*
X201761071Y-86060000D01*
X201703928Y-86002857D01*
X201703928Y-86117142D01*
X202218214Y-87145714D02*
X202332500Y-87202857D01*
X202561071Y-87202857D01*
X202675357Y-87145714D01*
X202732500Y-87031428D01*
X202732500Y-86974285D01*
X202675357Y-86860000D01*
X202561071Y-86802857D01*
X202389642Y-86802857D01*
X202275357Y-86745714D01*
X202218214Y-86631428D01*
X202218214Y-86574285D01*
X202275357Y-86460000D01*
X202389642Y-86402857D01*
X202561071Y-86402857D01*
X202675357Y-86460000D01*
X203703928Y-87145714D02*
X203589642Y-87202857D01*
X203361071Y-87202857D01*
X203246785Y-87145714D01*
X203189642Y-87031428D01*
X203189642Y-86574285D01*
X203246785Y-86460000D01*
X203361071Y-86402857D01*
X203589642Y-86402857D01*
X203703928Y-86460000D01*
X203761071Y-86574285D01*
X203761071Y-86688571D01*
X203189642Y-86802857D01*
X205361071Y-87202857D02*
X205246785Y-87145714D01*
X205189642Y-87031428D01*
X205189642Y-86002857D01*
X205989642Y-87202857D02*
X205875357Y-87145714D01*
X205818214Y-87088571D01*
X205761071Y-86974285D01*
X205761071Y-86631428D01*
X205818214Y-86517142D01*
X205875357Y-86460000D01*
X205989642Y-86402857D01*
X206161071Y-86402857D01*
X206275357Y-86460000D01*
X206332500Y-86517142D01*
X206389642Y-86631428D01*
X206389642Y-86974285D01*
X206332500Y-87088571D01*
X206275357Y-87145714D01*
X206161071Y-87202857D01*
X205989642Y-87202857D01*
X207418214Y-86402857D02*
X207418214Y-87374285D01*
X207361071Y-87488571D01*
X207303928Y-87545714D01*
X207189642Y-87602857D01*
X207018214Y-87602857D01*
X206903928Y-87545714D01*
X207418214Y-87145714D02*
X207303928Y-87202857D01*
X207075357Y-87202857D01*
X206961071Y-87145714D01*
X206903928Y-87088571D01*
X206846785Y-86974285D01*
X206846785Y-86631428D01*
X206903928Y-86517142D01*
X206961071Y-86460000D01*
X207075357Y-86402857D01*
X207303928Y-86402857D01*
X207418214Y-86460000D01*
X207989642Y-87202857D02*
X207989642Y-86402857D01*
X207989642Y-86002857D02*
X207932500Y-86060000D01*
X207989642Y-86117142D01*
X208046785Y-86060000D01*
X207989642Y-86002857D01*
X207989642Y-86117142D01*
X209075357Y-87145714D02*
X208961071Y-87202857D01*
X208732500Y-87202857D01*
X208618214Y-87145714D01*
X208561071Y-87088571D01*
X208503928Y-86974285D01*
X208503928Y-86631428D01*
X208561071Y-86517142D01*
X208618214Y-86460000D01*
X208732500Y-86402857D01*
X208961071Y-86402857D01*
X209075357Y-86460000D01*
X210389642Y-86402857D02*
X210675357Y-87202857D01*
X210961071Y-86402857D01*
X212046785Y-87202857D02*
X211361071Y-87202857D01*
X211703928Y-87202857D02*
X211703928Y-86002857D01*
X211589642Y-86174285D01*
X211475357Y-86288571D01*
X211361071Y-86345714D01*
X192218214Y-89252857D02*
X192218214Y-88052857D01*
X192789642Y-88452857D02*
X192789642Y-89252857D01*
X192789642Y-88567142D02*
X192846785Y-88510000D01*
X192961071Y-88452857D01*
X193132500Y-88452857D01*
X193246785Y-88510000D01*
X193303928Y-88624285D01*
X193303928Y-89252857D01*
X193875357Y-88452857D02*
X193875357Y-89652857D01*
X193875357Y-88510000D02*
X193989642Y-88452857D01*
X194218214Y-88452857D01*
X194332500Y-88510000D01*
X194389642Y-88567142D01*
X194446785Y-88681428D01*
X194446785Y-89024285D01*
X194389642Y-89138571D01*
X194332500Y-89195714D01*
X194218214Y-89252857D01*
X193989642Y-89252857D01*
X193875357Y-89195714D01*
X195475357Y-88452857D02*
X195475357Y-89252857D01*
X194961071Y-88452857D02*
X194961071Y-89081428D01*
X195018214Y-89195714D01*
X195132500Y-89252857D01*
X195303928Y-89252857D01*
X195418214Y-89195714D01*
X195475357Y-89138571D01*
X195875357Y-88452857D02*
X196332500Y-88452857D01*
X196046785Y-88052857D02*
X196046785Y-89081428D01*
X196103928Y-89195714D01*
X196218214Y-89252857D01*
X196332500Y-89252857D01*
X196675357Y-89195714D02*
X196789642Y-89252857D01*
X197018214Y-89252857D01*
X197132500Y-89195714D01*
X197189642Y-89081428D01*
X197189642Y-89024285D01*
X197132500Y-88910000D01*
X197018214Y-88852857D01*
X196846785Y-88852857D01*
X196732500Y-88795714D01*
X196675357Y-88681428D01*
X196675357Y-88624285D01*
X196732500Y-88510000D01*
X196846785Y-88452857D01*
X197018214Y-88452857D01*
X197132500Y-88510000D01*
X197703928Y-89138571D02*
X197761071Y-89195714D01*
X197703928Y-89252857D01*
X197646785Y-89195714D01*
X197703928Y-89138571D01*
X197703928Y-89252857D01*
X197703928Y-88510000D02*
X197761071Y-88567142D01*
X197703928Y-88624285D01*
X197646785Y-88567142D01*
X197703928Y-88510000D01*
X197703928Y-88624285D01*
X199132500Y-88910000D02*
X199703928Y-88910000D01*
X199018214Y-89252857D02*
X199418214Y-88052857D01*
X199818214Y-89252857D01*
X200275357Y-89195714D02*
X200275357Y-89252857D01*
X200218214Y-89367142D01*
X200161071Y-89424285D01*
X202103928Y-88624285D02*
X202275357Y-88681428D01*
X202332500Y-88738571D01*
X202389642Y-88852857D01*
X202389642Y-89024285D01*
X202332500Y-89138571D01*
X202275357Y-89195714D01*
X202161071Y-89252857D01*
X201703928Y-89252857D01*
X201703928Y-88052857D01*
X202103928Y-88052857D01*
X202218214Y-88110000D01*
X202275357Y-88167142D01*
X202332500Y-88281428D01*
X202332500Y-88395714D01*
X202275357Y-88510000D01*
X202218214Y-88567142D01*
X202103928Y-88624285D01*
X201703928Y-88624285D01*
X192218214Y-90388571D02*
X193132500Y-90388571D01*
X193132500Y-90674285D02*
X192675357Y-91302857D01*
X192218214Y-90674285D01*
X193703928Y-91188571D02*
X193761071Y-91245714D01*
X193703928Y-91302857D01*
X193646785Y-91245714D01*
X193703928Y-91188571D01*
X193703928Y-91302857D01*
X193703928Y-90560000D02*
X193761071Y-90617142D01*
X193703928Y-90674285D01*
X193646785Y-90617142D01*
X193703928Y-90560000D01*
X193703928Y-90674285D01*
X195189642Y-91302857D02*
X195189642Y-90102857D01*
X195875357Y-91302857D01*
X195875357Y-90102857D01*
X196675357Y-90102857D02*
X196903928Y-90102857D01*
X197018214Y-90160000D01*
X197132500Y-90274285D01*
X197189642Y-90502857D01*
X197189642Y-90902857D01*
X197132500Y-91131428D01*
X197018214Y-91245714D01*
X196903928Y-91302857D01*
X196675357Y-91302857D01*
X196561071Y-91245714D01*
X196446785Y-91131428D01*
X196389642Y-90902857D01*
X196389642Y-90502857D01*
X196446785Y-90274285D01*
X196561071Y-90160000D01*
X196675357Y-90102857D01*
X198389642Y-91302857D02*
X197989642Y-90731428D01*
X197703928Y-91302857D02*
X197703928Y-90102857D01*
X198161071Y-90102857D01*
X198275357Y-90160000D01*
X198332500Y-90217142D01*
X198389642Y-90331428D01*
X198389642Y-90502857D01*
X198332500Y-90617142D01*
X198275357Y-90674285D01*
X198161071Y-90731428D01*
X197703928Y-90731428D01*
X193132500Y-92438571D02*
X192218214Y-92438571D01*
X192218214Y-93352857D02*
X192675357Y-92724285D01*
X193132500Y-93352857D01*
X193703928Y-93238571D02*
X193761071Y-93295714D01*
X193703928Y-93352857D01*
X193646785Y-93295714D01*
X193703928Y-93238571D01*
X193703928Y-93352857D01*
X193703928Y-92610000D02*
X193761071Y-92667142D01*
X193703928Y-92724285D01*
X193646785Y-92667142D01*
X193703928Y-92610000D01*
X193703928Y-92724285D01*
X195189642Y-93352857D02*
X195189642Y-92152857D01*
X195875357Y-93352857D01*
X195875357Y-92152857D01*
X196389642Y-93010000D02*
X196961071Y-93010000D01*
X196275357Y-93352857D02*
X196675357Y-92152857D01*
X197075357Y-93352857D01*
X197475357Y-93352857D02*
X197475357Y-92152857D01*
X198161071Y-93352857D01*
X198161071Y-92152857D01*
X198732500Y-93352857D02*
X198732500Y-92152857D01*
X199018214Y-92152857D01*
X199189642Y-92210000D01*
X199303928Y-92324285D01*
X199361071Y-92438571D01*
X199418214Y-92667142D01*
X199418214Y-92838571D01*
X199361071Y-93067142D01*
X199303928Y-93181428D01*
X199189642Y-93295714D01*
X199018214Y-93352857D01*
X198732500Y-93352857D01*
X193189642Y-95402857D02*
X192675357Y-94488571D01*
X192161071Y-95402857D01*
X193703928Y-95288571D02*
X193761071Y-95345714D01*
X193703928Y-95402857D01*
X193646785Y-95345714D01*
X193703928Y-95288571D01*
X193703928Y-95402857D01*
X193703928Y-94660000D02*
X193761071Y-94717142D01*
X193703928Y-94774285D01*
X193646785Y-94717142D01*
X193703928Y-94660000D01*
X193703928Y-94774285D01*
X195132500Y-95060000D02*
X195703928Y-95060000D01*
X195018214Y-95402857D02*
X195418214Y-94202857D01*
X195818214Y-95402857D01*
X196218214Y-95402857D02*
X196218214Y-94202857D01*
X196903928Y-95402857D01*
X196903928Y-94202857D01*
X197475357Y-95402857D02*
X197475357Y-94202857D01*
X197761071Y-94202857D01*
X197932500Y-94260000D01*
X198046785Y-94374285D01*
X198103928Y-94488571D01*
X198161071Y-94717142D01*
X198161071Y-94888571D01*
X198103928Y-95117142D01*
X198046785Y-95231428D01*
X197932500Y-95345714D01*
X197761071Y-95402857D01*
X197475357Y-95402857D01*
X192161071Y-96538571D02*
X192675357Y-97452857D01*
X193189642Y-96538571D01*
X193703928Y-97338571D02*
X193761071Y-97395714D01*
X193703928Y-97452857D01*
X193646785Y-97395714D01*
X193703928Y-97338571D01*
X193703928Y-97452857D01*
X193703928Y-96710000D02*
X193761071Y-96767142D01*
X193703928Y-96824285D01*
X193646785Y-96767142D01*
X193703928Y-96710000D01*
X193703928Y-96824285D01*
X195418214Y-96252857D02*
X195646785Y-96252857D01*
X195761071Y-96310000D01*
X195875357Y-96424285D01*
X195932500Y-96652857D01*
X195932500Y-97052857D01*
X195875357Y-97281428D01*
X195761071Y-97395714D01*
X195646785Y-97452857D01*
X195418214Y-97452857D01*
X195303928Y-97395714D01*
X195189642Y-97281428D01*
X195132500Y-97052857D01*
X195132500Y-96652857D01*
X195189642Y-96424285D01*
X195303928Y-96310000D01*
X195418214Y-96252857D01*
X197132500Y-97452857D02*
X196732500Y-96881428D01*
X196446785Y-97452857D02*
X196446785Y-96252857D01*
X196903928Y-96252857D01*
X197018214Y-96310000D01*
X197075357Y-96367142D01*
X197132500Y-96481428D01*
X197132500Y-96652857D01*
X197075357Y-96767142D01*
X197018214Y-96824285D01*
X196903928Y-96881428D01*
X196446785Y-96881428D01*
X192218214Y-100924285D02*
X192618214Y-100924285D01*
X192789642Y-101552857D02*
X192218214Y-101552857D01*
X192218214Y-100352857D01*
X192789642Y-100352857D01*
X193303928Y-101552857D02*
X193303928Y-100752857D01*
X193303928Y-100867142D02*
X193361071Y-100810000D01*
X193475357Y-100752857D01*
X193646785Y-100752857D01*
X193761071Y-100810000D01*
X193818214Y-100924285D01*
X193818214Y-101552857D01*
X193818214Y-100924285D02*
X193875357Y-100810000D01*
X193989642Y-100752857D01*
X194161071Y-100752857D01*
X194275357Y-100810000D01*
X194332500Y-100924285D01*
X194332500Y-101552857D01*
X194903928Y-101552857D02*
X194903928Y-100752857D01*
X194903928Y-100352857D02*
X194846785Y-100410000D01*
X194903928Y-100467142D01*
X194961071Y-100410000D01*
X194903928Y-100352857D01*
X194903928Y-100467142D01*
X195646785Y-101552857D02*
X195532500Y-101495714D01*
X195475357Y-101381428D01*
X195475357Y-100352857D01*
X197589642Y-101552857D02*
X197018214Y-101552857D01*
X197018214Y-100352857D01*
X198503928Y-100752857D02*
X198503928Y-101552857D01*
X197989642Y-100752857D02*
X197989642Y-101381428D01*
X198046785Y-101495714D01*
X198161071Y-101552857D01*
X198332500Y-101552857D01*
X198446785Y-101495714D01*
X198503928Y-101438571D01*
X199075357Y-100752857D02*
X199075357Y-101552857D01*
X199075357Y-100867142D02*
X199132500Y-100810000D01*
X199246785Y-100752857D01*
X199418214Y-100752857D01*
X199532500Y-100810000D01*
X199589642Y-100924285D01*
X199589642Y-101552857D01*
X200675357Y-101552857D02*
X200675357Y-100352857D01*
X200675357Y-101495714D02*
X200561071Y-101552857D01*
X200332500Y-101552857D01*
X200218214Y-101495714D01*
X200161071Y-101438571D01*
X200103928Y-101324285D01*
X200103928Y-100981428D01*
X200161071Y-100867142D01*
X200218214Y-100810000D01*
X200332500Y-100752857D01*
X200561071Y-100752857D01*
X200675357Y-100810000D01*
X201246785Y-101552857D02*
X201246785Y-100352857D01*
X201246785Y-100810000D02*
X201361071Y-100752857D01*
X201589642Y-100752857D01*
X201703928Y-100810000D01*
X201761071Y-100867142D01*
X201818214Y-100981428D01*
X201818214Y-101324285D01*
X201761071Y-101438571D01*
X201703928Y-101495714D01*
X201589642Y-101552857D01*
X201361071Y-101552857D01*
X201246785Y-101495714D01*
X202789642Y-101495714D02*
X202675357Y-101552857D01*
X202446785Y-101552857D01*
X202332500Y-101495714D01*
X202275357Y-101381428D01*
X202275357Y-100924285D01*
X202332500Y-100810000D01*
X202446785Y-100752857D01*
X202675357Y-100752857D01*
X202789642Y-100810000D01*
X202846785Y-100924285D01*
X202846785Y-101038571D01*
X202275357Y-101152857D01*
X203361071Y-101552857D02*
X203361071Y-100752857D01*
X203361071Y-100981428D02*
X203418214Y-100867142D01*
X203475357Y-100810000D01*
X203589642Y-100752857D01*
X203703928Y-100752857D01*
X204618214Y-100752857D02*
X204618214Y-101724285D01*
X204561071Y-101838571D01*
X204503928Y-101895714D01*
X204389642Y-101952857D01*
X204218214Y-101952857D01*
X204103928Y-101895714D01*
X204618214Y-101495714D02*
X204503928Y-101552857D01*
X204275357Y-101552857D01*
X204161071Y-101495714D01*
X204103928Y-101438571D01*
X204046785Y-101324285D01*
X204046785Y-100981428D01*
X204103928Y-100867142D01*
X204161071Y-100810000D01*
X204275357Y-100752857D01*
X204503928Y-100752857D01*
X204618214Y-100810000D01*
X192675357Y-103545714D02*
X192561071Y-103602857D01*
X192332500Y-103602857D01*
X192218214Y-103545714D01*
X192161071Y-103431428D01*
X192161071Y-102974285D01*
X192218214Y-102860000D01*
X192332500Y-102802857D01*
X192561071Y-102802857D01*
X192675357Y-102860000D01*
X192732500Y-102974285D01*
X192732500Y-103088571D01*
X192161071Y-103202857D01*
X193246785Y-103602857D02*
X193246785Y-102802857D01*
X193246785Y-102917142D02*
X193303928Y-102860000D01*
X193418214Y-102802857D01*
X193589642Y-102802857D01*
X193703928Y-102860000D01*
X193761071Y-102974285D01*
X193761071Y-103602857D01*
X193761071Y-102974285D02*
X193818214Y-102860000D01*
X193932500Y-102802857D01*
X194103928Y-102802857D01*
X194218214Y-102860000D01*
X194275357Y-102974285D01*
X194275357Y-103602857D01*
X194846785Y-103602857D02*
X194846785Y-102802857D01*
X194846785Y-102402857D02*
X194789642Y-102460000D01*
X194846785Y-102517142D01*
X194903928Y-102460000D01*
X194846785Y-102402857D01*
X194846785Y-102517142D01*
X195589642Y-103602857D02*
X195475357Y-103545714D01*
X195418214Y-103431428D01*
X195418214Y-102402857D01*
X196789642Y-103031428D02*
X196732500Y-102974285D01*
X196618214Y-102917142D01*
X196503928Y-102917142D01*
X196389642Y-102974285D01*
X196332500Y-103031428D01*
X196275357Y-103145714D01*
X196275357Y-103260000D01*
X196332500Y-103374285D01*
X196389642Y-103431428D01*
X196503928Y-103488571D01*
X196618214Y-103488571D01*
X196732500Y-103431428D01*
X196789642Y-103374285D01*
X196789642Y-102917142D02*
X196789642Y-103374285D01*
X196846785Y-103431428D01*
X196903928Y-103431428D01*
X197018214Y-103374285D01*
X197075357Y-103260000D01*
X197075357Y-102974285D01*
X196961071Y-102802857D01*
X196789642Y-102688571D01*
X196561071Y-102631428D01*
X196332500Y-102688571D01*
X196161071Y-102802857D01*
X196046785Y-102974285D01*
X195989642Y-103202857D01*
X196046785Y-103431428D01*
X196161071Y-103602857D01*
X196332500Y-103717142D01*
X196561071Y-103774285D01*
X196789642Y-103717142D01*
X196961071Y-103602857D01*
X198046785Y-103545714D02*
X197932500Y-103602857D01*
X197703928Y-103602857D01*
X197589642Y-103545714D01*
X197532500Y-103431428D01*
X197532500Y-102974285D01*
X197589642Y-102860000D01*
X197703928Y-102802857D01*
X197932500Y-102802857D01*
X198046785Y-102860000D01*
X198103928Y-102974285D01*
X198103928Y-103088571D01*
X197532500Y-103202857D01*
X198618214Y-103602857D02*
X198618214Y-102802857D01*
X198618214Y-102917142D02*
X198675357Y-102860000D01*
X198789642Y-102802857D01*
X198961071Y-102802857D01*
X199075357Y-102860000D01*
X199132500Y-102974285D01*
X199132500Y-103602857D01*
X199132500Y-102974285D02*
X199189642Y-102860000D01*
X199303928Y-102802857D01*
X199475357Y-102802857D01*
X199589642Y-102860000D01*
X199646785Y-102974285D01*
X199646785Y-103602857D01*
X200389642Y-103602857D02*
X200275357Y-103545714D01*
X200218214Y-103431428D01*
X200218214Y-102402857D01*
X201361071Y-102802857D02*
X201361071Y-103602857D01*
X200846785Y-102802857D02*
X200846785Y-103431428D01*
X200903928Y-103545714D01*
X201018214Y-103602857D01*
X201189642Y-103602857D01*
X201303928Y-103545714D01*
X201361071Y-103488571D01*
X201932500Y-102802857D02*
X201932500Y-103602857D01*
X201932500Y-102917142D02*
X201989642Y-102860000D01*
X202103928Y-102802857D01*
X202275357Y-102802857D01*
X202389642Y-102860000D01*
X202446785Y-102974285D01*
X202446785Y-103602857D01*
X203018214Y-103488571D02*
X203075357Y-103545714D01*
X203018214Y-103602857D01*
X202961071Y-103545714D01*
X203018214Y-103488571D01*
X203018214Y-103602857D01*
X203532500Y-103545714D02*
X203646785Y-103602857D01*
X203875357Y-103602857D01*
X203989642Y-103545714D01*
X204046785Y-103431428D01*
X204046785Y-103374285D01*
X203989642Y-103260000D01*
X203875357Y-103202857D01*
X203703928Y-103202857D01*
X203589642Y-103145714D01*
X203532500Y-103031428D01*
X203532500Y-102974285D01*
X203589642Y-102860000D01*
X203703928Y-102802857D01*
X203875357Y-102802857D01*
X203989642Y-102860000D01*
X205018214Y-103545714D02*
X204903928Y-103602857D01*
X204675357Y-103602857D01*
X204561071Y-103545714D01*
X204503928Y-103431428D01*
X204503928Y-102974285D01*
X204561071Y-102860000D01*
X204675357Y-102802857D01*
X204903928Y-102802857D01*
X205018214Y-102860000D01*
X205075357Y-102974285D01*
X205075357Y-103088571D01*
X204503928Y-103202857D01*
X192161071Y-104567142D02*
X192218214Y-104510000D01*
X192332500Y-104452857D01*
X192618214Y-104452857D01*
X192732500Y-104510000D01*
X192789642Y-104567142D01*
X192846785Y-104681428D01*
X192846785Y-104795714D01*
X192789642Y-104967142D01*
X192103928Y-105652857D01*
X192846785Y-105652857D01*
X193589642Y-104452857D02*
X193703928Y-104452857D01*
X193818214Y-104510000D01*
X193875357Y-104567142D01*
X193932500Y-104681428D01*
X193989642Y-104910000D01*
X193989642Y-105195714D01*
X193932500Y-105424285D01*
X193875357Y-105538571D01*
X193818214Y-105595714D01*
X193703928Y-105652857D01*
X193589642Y-105652857D01*
X193475357Y-105595714D01*
X193418214Y-105538571D01*
X193361071Y-105424285D01*
X193303928Y-105195714D01*
X193303928Y-104910000D01*
X193361071Y-104681428D01*
X193418214Y-104567142D01*
X193475357Y-104510000D01*
X193589642Y-104452857D01*
X195132500Y-105652857D02*
X194446785Y-105652857D01*
X194789642Y-105652857D02*
X194789642Y-104452857D01*
X194675357Y-104624285D01*
X194561071Y-104738571D01*
X194446785Y-104795714D01*
X195818214Y-104967142D02*
X195703928Y-104910000D01*
X195646785Y-104852857D01*
X195589642Y-104738571D01*
X195589642Y-104681428D01*
X195646785Y-104567142D01*
X195703928Y-104510000D01*
X195818214Y-104452857D01*
X196046785Y-104452857D01*
X196161071Y-104510000D01*
X196218214Y-104567142D01*
X196275357Y-104681428D01*
X196275357Y-104738571D01*
X196218214Y-104852857D01*
X196161071Y-104910000D01*
X196046785Y-104967142D01*
X195818214Y-104967142D01*
X195703928Y-105024285D01*
X195646785Y-105081428D01*
X195589642Y-105195714D01*
X195589642Y-105424285D01*
X195646785Y-105538571D01*
X195703928Y-105595714D01*
X195818214Y-105652857D01*
X196046785Y-105652857D01*
X196161071Y-105595714D01*
X196218214Y-105538571D01*
X196275357Y-105424285D01*
X196275357Y-105195714D01*
X196218214Y-105081428D01*
X196161071Y-105024285D01*
X196046785Y-104967142D01*
X196789642Y-105195714D02*
X197703928Y-105195714D01*
X198503928Y-104452857D02*
X198618214Y-104452857D01*
X198732500Y-104510000D01*
X198789642Y-104567142D01*
X198846785Y-104681428D01*
X198903928Y-104910000D01*
X198903928Y-105195714D01*
X198846785Y-105424285D01*
X198789642Y-105538571D01*
X198732500Y-105595714D01*
X198618214Y-105652857D01*
X198503928Y-105652857D01*
X198389642Y-105595714D01*
X198332500Y-105538571D01*
X198275357Y-105424285D01*
X198218214Y-105195714D01*
X198218214Y-104910000D01*
X198275357Y-104681428D01*
X198332500Y-104567142D01*
X198389642Y-104510000D01*
X198503928Y-104452857D01*
X199303928Y-104452857D02*
X200103928Y-104452857D01*
X199589642Y-105652857D01*
X200561071Y-105195714D02*
X201475357Y-105195714D01*
X202675357Y-105652857D02*
X201989642Y-105652857D01*
X202332500Y-105652857D02*
X202332500Y-104452857D01*
X202218214Y-104624285D01*
X202103928Y-104738571D01*
X201989642Y-104795714D01*
X203361071Y-104967142D02*
X203246785Y-104910000D01*
X203189642Y-104852857D01*
X203132500Y-104738571D01*
X203132500Y-104681428D01*
X203189642Y-104567142D01*
X203246785Y-104510000D01*
X203361071Y-104452857D01*
X203589642Y-104452857D01*
X203703928Y-104510000D01*
X203761071Y-104567142D01*
X203818214Y-104681428D01*
X203818214Y-104738571D01*
X203761071Y-104852857D01*
X203703928Y-104910000D01*
X203589642Y-104967142D01*
X203361071Y-104967142D01*
X203246785Y-105024285D01*
X203189642Y-105081428D01*
X203132500Y-105195714D01*
X203132500Y-105424285D01*
X203189642Y-105538571D01*
X203246785Y-105595714D01*
X203361071Y-105652857D01*
X203589642Y-105652857D01*
X203703928Y-105595714D01*
X203761071Y-105538571D01*
X203818214Y-105424285D01*
X203818214Y-105195714D01*
X203761071Y-105081428D01*
X203703928Y-105024285D01*
X203589642Y-104967142D01*
D12*
G04 #@! TO.C,J7*
X218440000Y-53340000D03*
X218440000Y-55880000D03*
X215900000Y-55880000D03*
X215900000Y-53340000D03*
G04 #@! TD*
D13*
G04 #@! TO.C,Q20*
X154940000Y-91440000D03*
X152400000Y-91440000D03*
D14*
X157480000Y-91440000D03*
G04 #@! TD*
D13*
G04 #@! TO.C,Q7*
X175260000Y-86360000D03*
X172720000Y-86360000D03*
D14*
X177800000Y-86360000D03*
G04 #@! TD*
D13*
G04 #@! TO.C,Q1*
X185420000Y-86360000D03*
X182880000Y-86360000D03*
D14*
X187960000Y-86360000D03*
G04 #@! TD*
D13*
G04 #@! TO.C,Q2*
X185420000Y-91440000D03*
X182880000Y-91440000D03*
D14*
X187960000Y-91440000D03*
G04 #@! TD*
D13*
G04 #@! TO.C,Q3*
X185420000Y-96520000D03*
X182880000Y-96520000D03*
D14*
X187960000Y-96520000D03*
G04 #@! TD*
D13*
G04 #@! TO.C,Q4*
X185420000Y-101600000D03*
X182880000Y-101600000D03*
D14*
X187960000Y-101600000D03*
G04 #@! TD*
D13*
G04 #@! TO.C,Q5*
X185420000Y-106680000D03*
X182880000Y-106680000D03*
D14*
X187960000Y-106680000D03*
G04 #@! TD*
D13*
G04 #@! TO.C,Q6*
X185420000Y-111760000D03*
X182880000Y-111760000D03*
D14*
X187960000Y-111760000D03*
G04 #@! TD*
D13*
G04 #@! TO.C,Q8*
X175260000Y-91440000D03*
X172720000Y-91440000D03*
D14*
X177800000Y-91440000D03*
G04 #@! TD*
D13*
G04 #@! TO.C,Q9*
X175260000Y-96520000D03*
X172720000Y-96520000D03*
D14*
X177800000Y-96520000D03*
G04 #@! TD*
D13*
G04 #@! TO.C,Q10*
X175260000Y-101600000D03*
X172720000Y-101600000D03*
D14*
X177800000Y-101600000D03*
G04 #@! TD*
D13*
G04 #@! TO.C,Q11*
X175260000Y-106680000D03*
X172720000Y-106680000D03*
D14*
X177800000Y-106680000D03*
G04 #@! TD*
D13*
G04 #@! TO.C,Q12*
X175260000Y-111760000D03*
X172720000Y-111760000D03*
D14*
X177800000Y-111760000D03*
G04 #@! TD*
D13*
G04 #@! TO.C,Q13*
X165100000Y-86360000D03*
X162560000Y-86360000D03*
D14*
X167640000Y-86360000D03*
G04 #@! TD*
D13*
G04 #@! TO.C,Q14*
X165100000Y-91440000D03*
X162560000Y-91440000D03*
D14*
X167640000Y-91440000D03*
G04 #@! TD*
D13*
G04 #@! TO.C,Q15*
X165100000Y-96520000D03*
X162560000Y-96520000D03*
D14*
X167640000Y-96520000D03*
G04 #@! TD*
D13*
G04 #@! TO.C,Q16*
X165100000Y-101600000D03*
X162560000Y-101600000D03*
D14*
X167640000Y-101600000D03*
G04 #@! TD*
D13*
G04 #@! TO.C,Q17*
X165100000Y-106680000D03*
X162560000Y-106680000D03*
D14*
X167640000Y-106680000D03*
G04 #@! TD*
D13*
G04 #@! TO.C,Q18*
X165100000Y-111760000D03*
X162560000Y-111760000D03*
D14*
X167640000Y-111760000D03*
G04 #@! TD*
D13*
G04 #@! TO.C,Q19*
X154940000Y-86360000D03*
X152400000Y-86360000D03*
D14*
X157480000Y-86360000D03*
G04 #@! TD*
D13*
G04 #@! TO.C,Q21*
X154940000Y-96520000D03*
X152400000Y-96520000D03*
D14*
X157480000Y-96520000D03*
G04 #@! TD*
D13*
G04 #@! TO.C,Q22*
X154940000Y-101600000D03*
X152400000Y-101600000D03*
D14*
X157480000Y-101600000D03*
G04 #@! TD*
D13*
G04 #@! TO.C,Q23*
X154940000Y-106680000D03*
X152400000Y-106680000D03*
D14*
X157480000Y-106680000D03*
G04 #@! TD*
D13*
G04 #@! TO.C,Q24*
X154940000Y-111760000D03*
X152400000Y-111760000D03*
D14*
X157480000Y-111760000D03*
G04 #@! TD*
D13*
G04 #@! TO.C,Q25*
X144780000Y-86360000D03*
X142240000Y-86360000D03*
D14*
X147320000Y-86360000D03*
G04 #@! TD*
D13*
G04 #@! TO.C,Q26*
X144780000Y-91440000D03*
X142240000Y-91440000D03*
D14*
X147320000Y-91440000D03*
G04 #@! TD*
D13*
G04 #@! TO.C,Q27*
X144780000Y-96520000D03*
X142240000Y-96520000D03*
D14*
X147320000Y-96520000D03*
G04 #@! TD*
D13*
G04 #@! TO.C,Q28*
X144780000Y-101600000D03*
X142240000Y-101600000D03*
D14*
X147320000Y-101600000D03*
G04 #@! TD*
D13*
G04 #@! TO.C,Q29*
X144780000Y-106680000D03*
X142240000Y-106680000D03*
D14*
X147320000Y-106680000D03*
G04 #@! TD*
D13*
G04 #@! TO.C,Q30*
X144780000Y-111760000D03*
X142240000Y-111760000D03*
D14*
X147320000Y-111760000D03*
G04 #@! TD*
D13*
G04 #@! TO.C,Q31*
X134620000Y-86360000D03*
X132080000Y-86360000D03*
D14*
X137160000Y-86360000D03*
G04 #@! TD*
D13*
G04 #@! TO.C,Q32*
X134620000Y-91440000D03*
X132080000Y-91440000D03*
D14*
X137160000Y-91440000D03*
G04 #@! TD*
D13*
G04 #@! TO.C,Q33*
X134620000Y-96520000D03*
X132080000Y-96520000D03*
D14*
X137160000Y-96520000D03*
G04 #@! TD*
D13*
G04 #@! TO.C,Q34*
X134620000Y-101600000D03*
X132080000Y-101600000D03*
D14*
X137160000Y-101600000D03*
G04 #@! TD*
D13*
G04 #@! TO.C,Q35*
X134620000Y-106680000D03*
X132080000Y-106680000D03*
D14*
X137160000Y-106680000D03*
G04 #@! TD*
D13*
G04 #@! TO.C,Q36*
X134620000Y-111760000D03*
X132080000Y-111760000D03*
D14*
X137160000Y-111760000D03*
G04 #@! TD*
D13*
G04 #@! TO.C,Q37*
X124460000Y-86360000D03*
X121920000Y-86360000D03*
D14*
X127000000Y-86360000D03*
G04 #@! TD*
D13*
G04 #@! TO.C,Q38*
X124460000Y-91440000D03*
X121920000Y-91440000D03*
D14*
X127000000Y-91440000D03*
G04 #@! TD*
D13*
G04 #@! TO.C,Q39*
X124460000Y-96520000D03*
X121920000Y-96520000D03*
D14*
X127000000Y-96520000D03*
G04 #@! TD*
D13*
G04 #@! TO.C,Q40*
X124460000Y-101600000D03*
X121920000Y-101600000D03*
D14*
X127000000Y-101600000D03*
G04 #@! TD*
D13*
G04 #@! TO.C,Q41*
X124460000Y-106680000D03*
X121920000Y-106680000D03*
D14*
X127000000Y-106680000D03*
G04 #@! TD*
D13*
G04 #@! TO.C,Q42*
X124460000Y-111760000D03*
X121920000Y-111760000D03*
D14*
X127000000Y-111760000D03*
G04 #@! TD*
D13*
G04 #@! TO.C,Q43*
X114300000Y-86360000D03*
X111760000Y-86360000D03*
D14*
X116840000Y-86360000D03*
G04 #@! TD*
D13*
G04 #@! TO.C,Q44*
X114300000Y-91440000D03*
X111760000Y-91440000D03*
D14*
X116840000Y-91440000D03*
G04 #@! TD*
D13*
G04 #@! TO.C,Q45*
X114300000Y-96520000D03*
X111760000Y-96520000D03*
D14*
X116840000Y-96520000D03*
G04 #@! TD*
D13*
G04 #@! TO.C,Q46*
X114300000Y-101600000D03*
X111760000Y-101600000D03*
D14*
X116840000Y-101600000D03*
G04 #@! TD*
D13*
G04 #@! TO.C,Q47*
X114300000Y-106680000D03*
X111760000Y-106680000D03*
D14*
X116840000Y-106680000D03*
G04 #@! TD*
D13*
G04 #@! TO.C,Q48*
X114300000Y-111760000D03*
X111760000Y-111760000D03*
D14*
X116840000Y-111760000D03*
G04 #@! TD*
D13*
G04 #@! TO.C,R1*
X99060000Y-91440000D03*
D15*
X99060000Y-86360000D03*
G04 #@! TD*
D13*
G04 #@! TO.C,R2*
X81280000Y-99060000D03*
D15*
X81280000Y-93980000D03*
G04 #@! TD*
D13*
G04 #@! TO.C,R3*
X180340000Y-90170000D03*
D15*
X180340000Y-85090000D03*
G04 #@! TD*
D13*
G04 #@! TO.C,R4*
X180340000Y-92710000D03*
D15*
X180340000Y-97790000D03*
G04 #@! TD*
D13*
G04 #@! TO.C,R5*
X180340000Y-105410000D03*
D15*
X180340000Y-100330000D03*
G04 #@! TD*
D13*
G04 #@! TO.C,R6*
X180340000Y-107950000D03*
D15*
X180340000Y-113030000D03*
G04 #@! TD*
D13*
G04 #@! TO.C,R7*
X96520000Y-91440000D03*
D15*
X96520000Y-86360000D03*
G04 #@! TD*
D13*
G04 #@! TO.C,R8*
X83820000Y-99060000D03*
D15*
X83820000Y-93980000D03*
G04 #@! TD*
D13*
G04 #@! TO.C,R9*
X170180000Y-90170000D03*
D15*
X170180000Y-85090000D03*
G04 #@! TD*
D13*
G04 #@! TO.C,R10*
X170180000Y-92710000D03*
D15*
X170180000Y-97790000D03*
G04 #@! TD*
D13*
G04 #@! TO.C,R11*
X170180000Y-105410000D03*
D15*
X170180000Y-100330000D03*
G04 #@! TD*
D13*
G04 #@! TO.C,R12*
X170180000Y-107950000D03*
D15*
X170180000Y-113030000D03*
G04 #@! TD*
D13*
G04 #@! TO.C,R13*
X93980000Y-91440000D03*
D15*
X93980000Y-86360000D03*
G04 #@! TD*
D13*
G04 #@! TO.C,R14*
X86360000Y-99060000D03*
D15*
X86360000Y-93980000D03*
G04 #@! TD*
D13*
G04 #@! TO.C,R15*
X160020000Y-90170000D03*
D15*
X160020000Y-85090000D03*
G04 #@! TD*
D13*
G04 #@! TO.C,R16*
X160020000Y-92710000D03*
D15*
X160020000Y-97790000D03*
G04 #@! TD*
D13*
G04 #@! TO.C,R17*
X160020000Y-105410000D03*
D15*
X160020000Y-100330000D03*
G04 #@! TD*
D13*
G04 #@! TO.C,R18*
X160020000Y-107950000D03*
D15*
X160020000Y-113030000D03*
G04 #@! TD*
D13*
G04 #@! TO.C,R19*
X91440000Y-91440000D03*
D15*
X91440000Y-86360000D03*
G04 #@! TD*
D13*
G04 #@! TO.C,R20*
X88900000Y-99060000D03*
D15*
X88900000Y-93980000D03*
G04 #@! TD*
D13*
G04 #@! TO.C,R21*
X149860000Y-90170000D03*
D15*
X149860000Y-85090000D03*
G04 #@! TD*
D13*
G04 #@! TO.C,R22*
X149860000Y-92710000D03*
D15*
X149860000Y-97790000D03*
G04 #@! TD*
D13*
G04 #@! TO.C,R23*
X149860000Y-105410000D03*
D15*
X149860000Y-100330000D03*
G04 #@! TD*
D13*
G04 #@! TO.C,R24*
X149860000Y-107950000D03*
D15*
X149860000Y-113030000D03*
G04 #@! TD*
D13*
G04 #@! TO.C,R25*
X88900000Y-91440000D03*
D15*
X88900000Y-86360000D03*
G04 #@! TD*
D13*
G04 #@! TO.C,R26*
X91440000Y-99060000D03*
D15*
X91440000Y-93980000D03*
G04 #@! TD*
D13*
G04 #@! TO.C,R27*
X139700000Y-90170000D03*
D15*
X139700000Y-85090000D03*
G04 #@! TD*
D13*
G04 #@! TO.C,R28*
X139700000Y-92710000D03*
D15*
X139700000Y-97790000D03*
G04 #@! TD*
D13*
G04 #@! TO.C,R29*
X139700000Y-105410000D03*
D15*
X139700000Y-100330000D03*
G04 #@! TD*
D13*
G04 #@! TO.C,R30*
X139700000Y-107950000D03*
D15*
X139700000Y-113030000D03*
G04 #@! TD*
D13*
G04 #@! TO.C,R31*
X86360000Y-91440000D03*
D15*
X86360000Y-86360000D03*
G04 #@! TD*
D13*
G04 #@! TO.C,R32*
X93980000Y-99060000D03*
D15*
X93980000Y-93980000D03*
G04 #@! TD*
D13*
G04 #@! TO.C,R33*
X129540000Y-90170000D03*
D15*
X129540000Y-85090000D03*
G04 #@! TD*
D13*
G04 #@! TO.C,R34*
X129540000Y-92710000D03*
D15*
X129540000Y-97790000D03*
G04 #@! TD*
D13*
G04 #@! TO.C,R35*
X129540000Y-105410000D03*
D15*
X129540000Y-100330000D03*
G04 #@! TD*
D13*
G04 #@! TO.C,R36*
X129540000Y-107950000D03*
D15*
X129540000Y-113030000D03*
G04 #@! TD*
D13*
G04 #@! TO.C,R37*
X83820000Y-91440000D03*
D15*
X83820000Y-86360000D03*
G04 #@! TD*
D13*
G04 #@! TO.C,R38*
X96520000Y-99060000D03*
D15*
X96520000Y-93980000D03*
G04 #@! TD*
D13*
G04 #@! TO.C,R39*
X119380000Y-90170000D03*
D15*
X119380000Y-85090000D03*
G04 #@! TD*
D13*
G04 #@! TO.C,R40*
X119380000Y-92710000D03*
D15*
X119380000Y-97790000D03*
G04 #@! TD*
D13*
G04 #@! TO.C,R41*
X119380000Y-105410000D03*
D15*
X119380000Y-100330000D03*
G04 #@! TD*
D13*
G04 #@! TO.C,R42*
X119380000Y-107950000D03*
D15*
X119380000Y-113030000D03*
G04 #@! TD*
D13*
G04 #@! TO.C,R43*
X81280000Y-91440000D03*
D15*
X81280000Y-86360000D03*
G04 #@! TD*
D13*
G04 #@! TO.C,R44*
X99060000Y-99060000D03*
D15*
X99060000Y-93980000D03*
G04 #@! TD*
D13*
G04 #@! TO.C,R45*
X109220000Y-90170000D03*
D15*
X109220000Y-85090000D03*
G04 #@! TD*
D13*
G04 #@! TO.C,R46*
X109220000Y-92710000D03*
D15*
X109220000Y-97790000D03*
G04 #@! TD*
D13*
G04 #@! TO.C,R47*
X109220000Y-105410000D03*
D15*
X109220000Y-100330000D03*
G04 #@! TD*
D13*
G04 #@! TO.C,R48*
X109220000Y-107950000D03*
D15*
X109220000Y-113030000D03*
G04 #@! TD*
D16*
G04 #@! TO.C,D1*
X99060000Y-50800000D03*
X99060000Y-52560000D03*
G04 #@! TD*
G04 #@! TO.C,D2*
X96520000Y-52560000D03*
X96520000Y-50800000D03*
G04 #@! TD*
G04 #@! TO.C,D3*
X93980000Y-50800000D03*
X93980000Y-52560000D03*
G04 #@! TD*
G04 #@! TO.C,D4*
X91440000Y-50800000D03*
X91440000Y-52560000D03*
G04 #@! TD*
G04 #@! TO.C,D5*
X88900000Y-52560000D03*
X88900000Y-50800000D03*
G04 #@! TD*
G04 #@! TO.C,D6*
X86360000Y-52560000D03*
X86360000Y-50800000D03*
G04 #@! TD*
G04 #@! TO.C,D7*
X83820000Y-50800000D03*
X83820000Y-52560000D03*
G04 #@! TD*
G04 #@! TO.C,D8*
X81280000Y-52560000D03*
X81280000Y-50800000D03*
G04 #@! TD*
G04 #@! TO.C,D9*
X121920000Y-50800000D03*
X121920000Y-52560000D03*
G04 #@! TD*
G04 #@! TO.C,D10*
X119380000Y-50800000D03*
X119380000Y-52560000D03*
G04 #@! TD*
G04 #@! TO.C,D11*
X116840000Y-52560000D03*
X116840000Y-50800000D03*
G04 #@! TD*
G04 #@! TO.C,D12*
X114300000Y-52560000D03*
X114300000Y-50800000D03*
G04 #@! TD*
G04 #@! TO.C,D13*
X111760000Y-52560000D03*
X111760000Y-50800000D03*
G04 #@! TD*
G04 #@! TO.C,D14*
X109220000Y-50800000D03*
X109220000Y-52560000D03*
G04 #@! TD*
G04 #@! TO.C,D15*
X106680000Y-50800000D03*
X106680000Y-52560000D03*
G04 #@! TD*
G04 #@! TO.C,D16*
X104140000Y-50800000D03*
X104140000Y-52560000D03*
G04 #@! TD*
G04 #@! TO.C,D17*
X144780000Y-52560000D03*
X144780000Y-50800000D03*
G04 #@! TD*
G04 #@! TO.C,D18*
X142240000Y-52560000D03*
X142240000Y-50800000D03*
G04 #@! TD*
G04 #@! TO.C,D19*
X139700000Y-50800000D03*
X139700000Y-52560000D03*
G04 #@! TD*
G04 #@! TO.C,D20*
X137160000Y-50800000D03*
X137160000Y-52560000D03*
G04 #@! TD*
G04 #@! TO.C,D21*
X134620000Y-50800000D03*
X134620000Y-52560000D03*
G04 #@! TD*
G04 #@! TO.C,D22*
X132080000Y-50800000D03*
X132080000Y-52560000D03*
G04 #@! TD*
G04 #@! TO.C,D23*
X129540000Y-50800000D03*
X129540000Y-52560000D03*
G04 #@! TD*
G04 #@! TO.C,D24*
X127000000Y-52560000D03*
X127000000Y-50800000D03*
G04 #@! TD*
G04 #@! TO.C,D25*
X167640000Y-52560000D03*
X167640000Y-50800000D03*
G04 #@! TD*
G04 #@! TO.C,D26*
X165100000Y-52560000D03*
X165100000Y-50800000D03*
G04 #@! TD*
G04 #@! TO.C,D27*
X162560000Y-52560000D03*
X162560000Y-50800000D03*
G04 #@! TD*
G04 #@! TO.C,D28*
X160020000Y-50800000D03*
X160020000Y-52560000D03*
G04 #@! TD*
G04 #@! TO.C,D29*
X157480000Y-50800000D03*
X157480000Y-52560000D03*
G04 #@! TD*
G04 #@! TO.C,D30*
X154940000Y-50800000D03*
X154940000Y-52560000D03*
G04 #@! TD*
G04 #@! TO.C,D31*
X152400000Y-52560000D03*
X152400000Y-50800000D03*
G04 #@! TD*
G04 #@! TO.C,D32*
X149860000Y-50800000D03*
X149860000Y-52560000D03*
G04 #@! TD*
G04 #@! TO.C,D33*
X190500000Y-50800000D03*
X190500000Y-52560000D03*
G04 #@! TD*
G04 #@! TO.C,D34*
X187960000Y-52560000D03*
X187960000Y-50800000D03*
G04 #@! TD*
G04 #@! TO.C,D35*
X185420000Y-52560000D03*
X185420000Y-50800000D03*
G04 #@! TD*
G04 #@! TO.C,D36*
X182880000Y-52560000D03*
X182880000Y-50800000D03*
G04 #@! TD*
G04 #@! TO.C,D37*
X180340000Y-52560000D03*
X180340000Y-50800000D03*
G04 #@! TD*
G04 #@! TO.C,D38*
X177800000Y-52560000D03*
X177800000Y-50800000D03*
G04 #@! TD*
G04 #@! TO.C,D39*
X175260000Y-52560000D03*
X175260000Y-50800000D03*
G04 #@! TD*
G04 #@! TO.C,D40*
X172720000Y-50800000D03*
X172720000Y-52560000D03*
G04 #@! TD*
G04 #@! TO.C,D41*
X213360000Y-52560000D03*
X213360000Y-50800000D03*
G04 #@! TD*
G04 #@! TO.C,D42*
X210820000Y-50800000D03*
X210820000Y-52560000D03*
G04 #@! TD*
G04 #@! TO.C,D43*
X208280000Y-50800000D03*
X208280000Y-52560000D03*
G04 #@! TD*
G04 #@! TO.C,D44*
X205740000Y-52560000D03*
X205740000Y-50800000D03*
G04 #@! TD*
G04 #@! TO.C,D45*
X203200000Y-52560000D03*
X203200000Y-50800000D03*
G04 #@! TD*
G04 #@! TO.C,D46*
X200660000Y-52560000D03*
X200660000Y-50800000D03*
G04 #@! TD*
G04 #@! TO.C,D47*
X198120000Y-50800000D03*
X198120000Y-52560000D03*
G04 #@! TD*
G04 #@! TO.C,D48*
X195580000Y-50800000D03*
X195580000Y-52560000D03*
G04 #@! TD*
D17*
G04 #@! TO.C,JP1*
X218440000Y-50800000D03*
D18*
X215900000Y-50800000D03*
G04 #@! TD*
D19*
G04 #@! TO.C,JP2*
X216445000Y-48260000D03*
D20*
G36*
X215905982Y-49206157D02*
X215868463Y-49194776D01*
X215833886Y-49176294D01*
X215803579Y-49151421D01*
X215778706Y-49121114D01*
X215760224Y-49086537D01*
X215748843Y-49049018D01*
X215745000Y-49010000D01*
X215745000Y-47510000D01*
X215748843Y-47470982D01*
X215760224Y-47433463D01*
X215778706Y-47398886D01*
X215803579Y-47368579D01*
X215833886Y-47343706D01*
X215868463Y-47325224D01*
X215905982Y-47313843D01*
X215945000Y-47310000D01*
X217095000Y-47310000D01*
X217134018Y-47313843D01*
X217171537Y-47325224D01*
X217206114Y-47343706D01*
X217236421Y-47368579D01*
X217261294Y-47398886D01*
X217279776Y-47433463D01*
X217291157Y-47470982D01*
X217295000Y-47510000D01*
X217291157Y-47549018D01*
X217279776Y-47586537D01*
X217261410Y-47620940D01*
X216835370Y-48260000D01*
X217261410Y-48899060D01*
X217279856Y-48933657D01*
X217291198Y-48971187D01*
X217295000Y-49010209D01*
X217291116Y-49049223D01*
X217279696Y-49086730D01*
X217261178Y-49121288D01*
X217236273Y-49151569D01*
X217205940Y-49176410D01*
X217171343Y-49194856D01*
X217133813Y-49206198D01*
X217095000Y-49210000D01*
X215945000Y-49210000D01*
X215905982Y-49206157D01*
X215905982Y-49206157D01*
G37*
D19*
X217895000Y-48260000D03*
D20*
G36*
X217355982Y-49206157D02*
X217318463Y-49194776D01*
X217283886Y-49176294D01*
X217253579Y-49151421D01*
X217228590Y-49120940D01*
X216728590Y-48370940D01*
X216710144Y-48336343D01*
X216698802Y-48298813D01*
X216695000Y-48259791D01*
X216698884Y-48220777D01*
X216710304Y-48183270D01*
X216728590Y-48149060D01*
X217228590Y-47399060D01*
X217253431Y-47368727D01*
X217283712Y-47343822D01*
X217318270Y-47325304D01*
X217355777Y-47313884D01*
X217395000Y-47310000D01*
X218395000Y-47310000D01*
X218434018Y-47313843D01*
X218471537Y-47325224D01*
X218506114Y-47343706D01*
X218536421Y-47368579D01*
X218561294Y-47398886D01*
X218579776Y-47433463D01*
X218591157Y-47470982D01*
X218595000Y-47510000D01*
X218595000Y-49010000D01*
X218591157Y-49049018D01*
X218579776Y-49086537D01*
X218561294Y-49121114D01*
X218536421Y-49151421D01*
X218506114Y-49176294D01*
X218471537Y-49194776D01*
X218434018Y-49206157D01*
X218395000Y-49210000D01*
X217395000Y-49210000D01*
X217355982Y-49206157D01*
X217355982Y-49206157D01*
G37*
G04 #@! TD*
D21*
G04 #@! TO.C,Q49*
X98110000Y-61420000D03*
X100010000Y-61420000D03*
X99060000Y-58420000D03*
G04 #@! TD*
G04 #@! TO.C,Q50*
X95570000Y-65230000D03*
X97470000Y-65230000D03*
X96520000Y-62230000D03*
G04 #@! TD*
G04 #@! TO.C,Q51*
X93030000Y-61420000D03*
X94930000Y-61420000D03*
X93980000Y-58420000D03*
G04 #@! TD*
G04 #@! TO.C,Q52*
X90490000Y-65230000D03*
X92390000Y-65230000D03*
X91440000Y-62230000D03*
G04 #@! TD*
G04 #@! TO.C,Q53*
X87950000Y-61420000D03*
X89850000Y-61420000D03*
X88900000Y-58420000D03*
G04 #@! TD*
G04 #@! TO.C,Q54*
X86360000Y-62230000D03*
X87310000Y-65230000D03*
X85410000Y-65230000D03*
G04 #@! TD*
G04 #@! TO.C,Q55*
X82870000Y-61420000D03*
X84770000Y-61420000D03*
X83820000Y-58420000D03*
G04 #@! TD*
G04 #@! TO.C,Q56*
X81280000Y-62230000D03*
X82230000Y-65230000D03*
X80330000Y-65230000D03*
G04 #@! TD*
G04 #@! TO.C,Q57*
X120970000Y-61420000D03*
X122870000Y-61420000D03*
X121920000Y-58420000D03*
G04 #@! TD*
G04 #@! TO.C,Q58*
X118430000Y-65230000D03*
X120330000Y-65230000D03*
X119380000Y-62230000D03*
G04 #@! TD*
G04 #@! TO.C,Q59*
X116840000Y-58420000D03*
X117790000Y-61420000D03*
X115890000Y-61420000D03*
G04 #@! TD*
G04 #@! TO.C,Q60*
X114300000Y-62230000D03*
X115250000Y-65230000D03*
X113350000Y-65230000D03*
G04 #@! TD*
G04 #@! TO.C,Q61*
X110810000Y-61420000D03*
X112710000Y-61420000D03*
X111760000Y-58420000D03*
G04 #@! TD*
G04 #@! TO.C,Q62*
X108270000Y-65230000D03*
X110170000Y-65230000D03*
X109220000Y-62230000D03*
G04 #@! TD*
G04 #@! TO.C,Q63*
X105730000Y-61420000D03*
X107630000Y-61420000D03*
X106680000Y-58420000D03*
G04 #@! TD*
G04 #@! TO.C,Q64*
X103190000Y-65230000D03*
X105090000Y-65230000D03*
X104140000Y-62230000D03*
G04 #@! TD*
G04 #@! TO.C,Q65*
X144780000Y-58420000D03*
X145730000Y-61420000D03*
X143830000Y-61420000D03*
G04 #@! TD*
G04 #@! TO.C,Q66*
X141290000Y-65230000D03*
X143190000Y-65230000D03*
X142240000Y-62230000D03*
G04 #@! TD*
G04 #@! TO.C,Q67*
X139700000Y-58420000D03*
X140650000Y-61420000D03*
X138750000Y-61420000D03*
G04 #@! TD*
G04 #@! TO.C,Q68*
X137160000Y-62230000D03*
X138110000Y-65230000D03*
X136210000Y-65230000D03*
G04 #@! TD*
G04 #@! TO.C,Q69*
X134620000Y-58420000D03*
X135570000Y-61420000D03*
X133670000Y-61420000D03*
G04 #@! TD*
G04 #@! TO.C,Q70*
X130875001Y-65230000D03*
X132775001Y-65230000D03*
X131825001Y-62230000D03*
G04 #@! TD*
G04 #@! TO.C,Q71*
X129540000Y-58420000D03*
X130490000Y-61420000D03*
X128590000Y-61420000D03*
G04 #@! TD*
G04 #@! TO.C,Q72*
X127000000Y-62230000D03*
X127950000Y-65230000D03*
X126050000Y-65230000D03*
G04 #@! TD*
G04 #@! TO.C,Q73*
X166690000Y-61420000D03*
X168590000Y-61420000D03*
X167640000Y-58420000D03*
G04 #@! TD*
G04 #@! TO.C,Q74*
X164150000Y-65230000D03*
X166050000Y-65230000D03*
X165100000Y-62230000D03*
G04 #@! TD*
G04 #@! TO.C,Q75*
X161610000Y-61420000D03*
X163510000Y-61420000D03*
X162560000Y-58420000D03*
G04 #@! TD*
G04 #@! TO.C,Q76*
X159070000Y-65230000D03*
X160970000Y-65230000D03*
X160020000Y-62230000D03*
G04 #@! TD*
G04 #@! TO.C,Q77*
X157480000Y-58420000D03*
X158430000Y-61420000D03*
X156530000Y-61420000D03*
G04 #@! TD*
G04 #@! TO.C,Q78*
X153990000Y-65230000D03*
X155890000Y-65230000D03*
X154940000Y-62230000D03*
G04 #@! TD*
G04 #@! TO.C,Q79*
X152400000Y-58420000D03*
X153350000Y-61420000D03*
X151450000Y-61420000D03*
G04 #@! TD*
G04 #@! TO.C,Q80*
X148910000Y-65230000D03*
X150810000Y-65230000D03*
X149860000Y-62230000D03*
G04 #@! TD*
G04 #@! TO.C,Q81*
X190500000Y-58420000D03*
X191450000Y-61420000D03*
X189550000Y-61420000D03*
G04 #@! TD*
G04 #@! TO.C,Q82*
X187960000Y-62230000D03*
X188910000Y-65230000D03*
X187010000Y-65230000D03*
G04 #@! TD*
G04 #@! TO.C,Q83*
X185420000Y-58420000D03*
X186370000Y-61420000D03*
X184470000Y-61420000D03*
G04 #@! TD*
G04 #@! TO.C,Q84*
X181930000Y-65230000D03*
X183830000Y-65230000D03*
X182880000Y-62230000D03*
G04 #@! TD*
G04 #@! TO.C,Q85*
X180340000Y-58420000D03*
X181290000Y-61420000D03*
X179390000Y-61420000D03*
G04 #@! TD*
G04 #@! TO.C,Q86*
X177800000Y-62230000D03*
X178750000Y-65230000D03*
X176850000Y-65230000D03*
G04 #@! TD*
G04 #@! TO.C,Q87*
X174310000Y-61420000D03*
X176210000Y-61420000D03*
X175260000Y-58420000D03*
G04 #@! TD*
G04 #@! TO.C,Q88*
X172720000Y-62230000D03*
X173670000Y-65230000D03*
X171770000Y-65230000D03*
G04 #@! TD*
G04 #@! TO.C,Q89*
X213360000Y-58420000D03*
X214310000Y-61420000D03*
X212410000Y-61420000D03*
G04 #@! TD*
G04 #@! TO.C,Q90*
X210820000Y-62230000D03*
X211770000Y-65230000D03*
X209870000Y-65230000D03*
G04 #@! TD*
G04 #@! TO.C,Q91*
X208280000Y-58420000D03*
X209230000Y-61420000D03*
X207330000Y-61420000D03*
G04 #@! TD*
G04 #@! TO.C,Q92*
X205740000Y-62230000D03*
X206690000Y-65230000D03*
X204790000Y-65230000D03*
G04 #@! TD*
G04 #@! TO.C,Q93*
X202250000Y-61420000D03*
X204150000Y-61420000D03*
X203200000Y-58420000D03*
G04 #@! TD*
G04 #@! TO.C,Q94*
X200660000Y-62230000D03*
X201610000Y-65230000D03*
X199710000Y-65230000D03*
G04 #@! TD*
G04 #@! TO.C,Q95*
X197170000Y-61420000D03*
X199070000Y-61420000D03*
X198120000Y-58420000D03*
G04 #@! TD*
G04 #@! TO.C,Q96*
X195580000Y-62230000D03*
X196530000Y-65230000D03*
X194630000Y-65230000D03*
G04 #@! TD*
D22*
G04 #@! TO.C,R81*
X190500000Y-56545000D03*
X190500000Y-54610000D03*
G04 #@! TD*
G04 #@! TO.C,R82*
X187960000Y-56545000D03*
X187960000Y-54610000D03*
G04 #@! TD*
G04 #@! TO.C,R83*
X185420000Y-54610000D03*
X185420000Y-56545000D03*
G04 #@! TD*
G04 #@! TO.C,R84*
X182880000Y-54610000D03*
X182880000Y-56545000D03*
G04 #@! TD*
G04 #@! TO.C,R85*
X180340000Y-56545000D03*
X180340000Y-54610000D03*
G04 #@! TD*
G04 #@! TO.C,R86*
X177800000Y-54610000D03*
X177800000Y-56545000D03*
G04 #@! TD*
G04 #@! TO.C,R87*
X175260000Y-56545000D03*
X175260000Y-54610000D03*
G04 #@! TD*
G04 #@! TO.C,R88*
X172720000Y-56545000D03*
X172720000Y-54610000D03*
G04 #@! TD*
G04 #@! TO.C,R89*
X213360000Y-56545000D03*
X213360000Y-54610000D03*
G04 #@! TD*
G04 #@! TO.C,R90*
X210820000Y-54610000D03*
X210820000Y-56545000D03*
G04 #@! TD*
G04 #@! TO.C,R91*
X208280000Y-54610000D03*
X208280000Y-56545000D03*
G04 #@! TD*
G04 #@! TO.C,R92*
X205740000Y-56545000D03*
X205740000Y-54610000D03*
G04 #@! TD*
G04 #@! TO.C,R93*
X203200000Y-54610000D03*
X203200000Y-56545000D03*
G04 #@! TD*
G04 #@! TO.C,R94*
X200660000Y-56545000D03*
X200660000Y-54610000D03*
G04 #@! TD*
G04 #@! TO.C,R95*
X198120000Y-54610000D03*
X198120000Y-56545000D03*
G04 #@! TD*
G04 #@! TO.C,R96*
X195580000Y-56545000D03*
X195580000Y-54610000D03*
G04 #@! TD*
G04 #@! TO.C,R49*
X99060000Y-54610000D03*
X99060000Y-56545000D03*
G04 #@! TD*
G04 #@! TO.C,R50*
X96520000Y-54610000D03*
X96520000Y-56545000D03*
G04 #@! TD*
G04 #@! TO.C,R51*
X93980000Y-56545000D03*
X93980000Y-54610000D03*
G04 #@! TD*
G04 #@! TO.C,R52*
X91440000Y-54610000D03*
X91440000Y-56545000D03*
G04 #@! TD*
G04 #@! TO.C,R53*
X88900000Y-56545000D03*
X88900000Y-54610000D03*
G04 #@! TD*
G04 #@! TO.C,R54*
X86360000Y-56545000D03*
X86360000Y-54610000D03*
G04 #@! TD*
G04 #@! TO.C,R55*
X83820000Y-56545000D03*
X83820000Y-54610000D03*
G04 #@! TD*
G04 #@! TO.C,R56*
X81280000Y-56545000D03*
X81280000Y-54610000D03*
G04 #@! TD*
G04 #@! TO.C,R57*
X121920000Y-56545000D03*
X121920000Y-54610000D03*
G04 #@! TD*
G04 #@! TO.C,R58*
X119380000Y-56545000D03*
X119380000Y-54610000D03*
G04 #@! TD*
G04 #@! TO.C,R59*
X116840000Y-56545000D03*
X116840000Y-54610000D03*
G04 #@! TD*
G04 #@! TO.C,R60*
X114300000Y-56545000D03*
X114300000Y-54610000D03*
G04 #@! TD*
G04 #@! TO.C,R61*
X111760000Y-54610000D03*
X111760000Y-56545000D03*
G04 #@! TD*
G04 #@! TO.C,R62*
X109220000Y-54610000D03*
X109220000Y-56545000D03*
G04 #@! TD*
G04 #@! TO.C,R63*
X106680000Y-54610000D03*
X106680000Y-56545000D03*
G04 #@! TD*
G04 #@! TO.C,R64*
X104140000Y-54610000D03*
X104140000Y-56545000D03*
G04 #@! TD*
G04 #@! TO.C,R65*
X144780000Y-54610000D03*
X144780000Y-56545000D03*
G04 #@! TD*
G04 #@! TO.C,R66*
X142240000Y-56545000D03*
X142240000Y-54610000D03*
G04 #@! TD*
G04 #@! TO.C,R67*
X139700000Y-56545000D03*
X139700000Y-54610000D03*
G04 #@! TD*
G04 #@! TO.C,R68*
X137160000Y-54610000D03*
X137160000Y-56545000D03*
G04 #@! TD*
G04 #@! TO.C,R69*
X134620000Y-54610000D03*
X134620000Y-56545000D03*
G04 #@! TD*
G04 #@! TO.C,R70*
X132080000Y-54610000D03*
X132080000Y-56545000D03*
G04 #@! TD*
G04 #@! TO.C,R71*
X129540000Y-56545000D03*
X129540000Y-54610000D03*
G04 #@! TD*
G04 #@! TO.C,R72*
X127000000Y-56545000D03*
X127000000Y-54610000D03*
G04 #@! TD*
G04 #@! TO.C,R73*
X167640000Y-56545000D03*
X167640000Y-54610000D03*
G04 #@! TD*
G04 #@! TO.C,R74*
X165100000Y-56545000D03*
X165100000Y-54610000D03*
G04 #@! TD*
G04 #@! TO.C,R75*
X162560000Y-54610000D03*
X162560000Y-56545000D03*
G04 #@! TD*
G04 #@! TO.C,R76*
X160020000Y-54610000D03*
X160020000Y-56545000D03*
G04 #@! TD*
G04 #@! TO.C,R77*
X157480000Y-54610000D03*
X157480000Y-56545000D03*
G04 #@! TD*
G04 #@! TO.C,R78*
X154940000Y-54610000D03*
X154940000Y-56545000D03*
G04 #@! TD*
G04 #@! TO.C,R79*
X152400000Y-54610000D03*
X152400000Y-56545000D03*
G04 #@! TD*
G04 #@! TO.C,R80*
X149860000Y-56545000D03*
X149860000Y-54610000D03*
G04 #@! TD*
D13*
G04 #@! TO.C,J1*
X81280000Y-45720000D03*
X83820000Y-45720000D03*
X86360000Y-45720000D03*
X88900000Y-45720000D03*
X91440000Y-45720000D03*
X93980000Y-45720000D03*
X96520000Y-45720000D03*
X99060000Y-45720000D03*
X99060000Y-43180000D03*
X96520000Y-43180000D03*
X93980000Y-43180000D03*
X91440000Y-43180000D03*
X88900000Y-43180000D03*
X86360000Y-43180000D03*
X83820000Y-43180000D03*
X81280000Y-43180000D03*
G04 #@! TD*
G04 #@! TO.C,J2*
X104140000Y-43180000D03*
X106680000Y-43180000D03*
X109220000Y-43180000D03*
X111760000Y-43180000D03*
X114300000Y-43180000D03*
X116840000Y-43180000D03*
X119380000Y-43180000D03*
X121920000Y-43180000D03*
X121920000Y-45720000D03*
X119380000Y-45720000D03*
X116840000Y-45720000D03*
X114300000Y-45720000D03*
X111760000Y-45720000D03*
X109220000Y-45720000D03*
X106680000Y-45720000D03*
X104140000Y-45720000D03*
G04 #@! TD*
G04 #@! TO.C,J3*
X127000000Y-45720000D03*
X129540000Y-45720000D03*
X132080000Y-45720000D03*
X134620000Y-45720000D03*
X137160000Y-45720000D03*
X139700000Y-45720000D03*
X142240000Y-45720000D03*
X144780000Y-45720000D03*
X144780000Y-43180000D03*
X142240000Y-43180000D03*
X139700000Y-43180000D03*
X137160000Y-43180000D03*
X134620000Y-43180000D03*
X132080000Y-43180000D03*
X129540000Y-43180000D03*
X127000000Y-43180000D03*
G04 #@! TD*
G04 #@! TO.C,J4*
X149860000Y-43180000D03*
X152400000Y-43180000D03*
X154940000Y-43180000D03*
X157480000Y-43180000D03*
X160020000Y-43180000D03*
X162560000Y-43180000D03*
X165100000Y-43180000D03*
X167640000Y-43180000D03*
X167640000Y-45720000D03*
X165100000Y-45720000D03*
X162560000Y-45720000D03*
X160020000Y-45720000D03*
X157480000Y-45720000D03*
X154940000Y-45720000D03*
X152400000Y-45720000D03*
X149860000Y-45720000D03*
G04 #@! TD*
G04 #@! TO.C,J5*
X172720000Y-45720000D03*
X175260000Y-45720000D03*
X177800000Y-45720000D03*
X180340000Y-45720000D03*
X182880000Y-45720000D03*
X185420000Y-45720000D03*
X187960000Y-45720000D03*
X190500000Y-45720000D03*
X190500000Y-43180000D03*
X187960000Y-43180000D03*
X185420000Y-43180000D03*
X182880000Y-43180000D03*
X180340000Y-43180000D03*
X177800000Y-43180000D03*
X175260000Y-43180000D03*
X172720000Y-43180000D03*
G04 #@! TD*
G04 #@! TO.C,J6*
X195580000Y-43180000D03*
X198120000Y-43180000D03*
X200660000Y-43180000D03*
X203200000Y-43180000D03*
X205740000Y-43180000D03*
X208280000Y-43180000D03*
X210820000Y-43180000D03*
X213360000Y-43180000D03*
X213360000Y-45720000D03*
X210820000Y-45720000D03*
X208280000Y-45720000D03*
X205740000Y-45720000D03*
X203200000Y-45720000D03*
X200660000Y-45720000D03*
X198120000Y-45720000D03*
X195580000Y-45720000D03*
G04 #@! TD*
D23*
G04 #@! TO.C,REF\002A\002A*
X217170000Y-69850000D03*
G04 #@! TD*
G04 #@! TO.C,REF\002A\002A*
X217170000Y-111760000D03*
G04 #@! TD*
G04 #@! TO.C,REF\002A\002A*
X81280000Y-111760000D03*
G04 #@! TD*
G04 #@! TO.C,REF\002A\002A*
X81280000Y-69850000D03*
G04 #@! TD*
M02*
