G04 #@! TF.GenerationSoftware,KiCad,Pcbnew,(5.0.0-rc2-200-g1f6f76beb)*
G04 #@! TF.CreationDate,2018-07-19T02:54:02+02:00*
G04 #@! TF.ProjectId,8-bit-bitwise-logic,382D6269742D626974776973652D6C6F,rev?*
G04 #@! TF.SameCoordinates,Original*
G04 #@! TF.FileFunction,Copper,L2,Bot,Signal*
G04 #@! TF.FilePolarity,Positive*
%FSLAX46Y46*%
G04 Gerber Fmt 4.6, Leading zero omitted, Abs format (unit mm)*
G04 Created by KiCad (PCBNEW (5.0.0-rc2-200-g1f6f76beb)) date Thu Jul 19 02:54:02 2018*
%MOMM*%
%LPD*%
G01*
G04 APERTURE LIST*
G04 #@! TA.AperFunction,ComponentPad*
%ADD10C,1.524000*%
G04 #@! TD*
G04 #@! TA.AperFunction,ComponentPad*
%ADD11C,1.400000*%
G04 #@! TD*
G04 #@! TA.AperFunction,ComponentPad*
%ADD12R,1.400000X1.400000*%
G04 #@! TD*
G04 #@! TA.AperFunction,ComponentPad*
%ADD13O,1.400000X1.400000*%
G04 #@! TD*
G04 #@! TA.AperFunction,ComponentPad*
%ADD14R,1.700000X1.700000*%
G04 #@! TD*
G04 #@! TA.AperFunction,ComponentPad*
%ADD15O,1.700000X1.700000*%
G04 #@! TD*
G04 #@! TA.AperFunction,ComponentPad*
%ADD16C,4.400000*%
G04 #@! TD*
G04 #@! TA.AperFunction,ViaPad*
%ADD17C,0.600000*%
G04 #@! TD*
G04 #@! TA.AperFunction,Conductor*
%ADD18C,0.250000*%
G04 #@! TD*
G04 APERTURE END LIST*
D10*
G04 #@! TO.P,J7,2*
G04 #@! TO.N,VCC*
X218440000Y-53340000D03*
G04 #@! TO.P,J7,1*
G04 #@! TO.N,GND*
X218440000Y-55880000D03*
X215900000Y-55880000D03*
G04 #@! TO.P,J7,2*
G04 #@! TO.N,VCC*
X215900000Y-53340000D03*
G04 #@! TD*
D11*
G04 #@! TO.P,Q20,2*
G04 #@! TO.N,/b3*
X154940000Y-91440000D03*
G04 #@! TO.P,Q20,3*
G04 #@! TO.N,/nor3*
X152400000Y-91440000D03*
D12*
G04 #@! TO.P,Q20,1*
G04 #@! TO.N,GND*
X157480000Y-91440000D03*
G04 #@! TD*
D11*
G04 #@! TO.P,Q7,2*
G04 #@! TO.N,/a1*
X175260000Y-86360000D03*
G04 #@! TO.P,Q7,3*
G04 #@! TO.N,/nor1*
X172720000Y-86360000D03*
D12*
G04 #@! TO.P,Q7,1*
G04 #@! TO.N,GND*
X177800000Y-86360000D03*
G04 #@! TD*
D11*
G04 #@! TO.P,Q1,2*
G04 #@! TO.N,/a0*
X185420000Y-86360000D03*
G04 #@! TO.P,Q1,3*
G04 #@! TO.N,/nor0*
X182880000Y-86360000D03*
D12*
G04 #@! TO.P,Q1,1*
G04 #@! TO.N,GND*
X187960000Y-86360000D03*
G04 #@! TD*
D11*
G04 #@! TO.P,Q2,2*
G04 #@! TO.N,/b0*
X185420000Y-91440000D03*
G04 #@! TO.P,Q2,3*
G04 #@! TO.N,/nor0*
X182880000Y-91440000D03*
D12*
G04 #@! TO.P,Q2,1*
G04 #@! TO.N,GND*
X187960000Y-91440000D03*
G04 #@! TD*
D11*
G04 #@! TO.P,Q3,2*
G04 #@! TO.N,/nor0*
X185420000Y-96520000D03*
G04 #@! TO.P,Q3,3*
G04 #@! TO.N,/or0*
X182880000Y-96520000D03*
D12*
G04 #@! TO.P,Q3,1*
G04 #@! TO.N,GND*
X187960000Y-96520000D03*
G04 #@! TD*
D11*
G04 #@! TO.P,Q4,2*
G04 #@! TO.N,/nand0*
X185420000Y-101600000D03*
G04 #@! TO.P,Q4,3*
G04 #@! TO.N,/and0*
X182880000Y-101600000D03*
D12*
G04 #@! TO.P,Q4,1*
G04 #@! TO.N,GND*
X187960000Y-101600000D03*
G04 #@! TD*
D11*
G04 #@! TO.P,Q5,2*
G04 #@! TO.N,/a0*
X185420000Y-106680000D03*
G04 #@! TO.P,Q5,3*
G04 #@! TO.N,Net-(Q5-Pad3)*
X182880000Y-106680000D03*
D12*
G04 #@! TO.P,Q5,1*
G04 #@! TO.N,GND*
X187960000Y-106680000D03*
G04 #@! TD*
D11*
G04 #@! TO.P,Q6,2*
G04 #@! TO.N,/b0*
X185420000Y-111760000D03*
G04 #@! TO.P,Q6,3*
G04 #@! TO.N,/nand0*
X182880000Y-111760000D03*
D12*
G04 #@! TO.P,Q6,1*
G04 #@! TO.N,Net-(Q5-Pad3)*
X187960000Y-111760000D03*
G04 #@! TD*
D11*
G04 #@! TO.P,Q8,2*
G04 #@! TO.N,/b1*
X175260000Y-91440000D03*
G04 #@! TO.P,Q8,3*
G04 #@! TO.N,/nor1*
X172720000Y-91440000D03*
D12*
G04 #@! TO.P,Q8,1*
G04 #@! TO.N,GND*
X177800000Y-91440000D03*
G04 #@! TD*
D11*
G04 #@! TO.P,Q9,2*
G04 #@! TO.N,/nor1*
X175260000Y-96520000D03*
G04 #@! TO.P,Q9,3*
G04 #@! TO.N,/or1*
X172720000Y-96520000D03*
D12*
G04 #@! TO.P,Q9,1*
G04 #@! TO.N,GND*
X177800000Y-96520000D03*
G04 #@! TD*
D11*
G04 #@! TO.P,Q10,2*
G04 #@! TO.N,/nand1*
X175260000Y-101600000D03*
G04 #@! TO.P,Q10,3*
G04 #@! TO.N,/and1*
X172720000Y-101600000D03*
D12*
G04 #@! TO.P,Q10,1*
G04 #@! TO.N,GND*
X177800000Y-101600000D03*
G04 #@! TD*
D11*
G04 #@! TO.P,Q11,2*
G04 #@! TO.N,/a1*
X175260000Y-106680000D03*
G04 #@! TO.P,Q11,3*
G04 #@! TO.N,Net-(Q11-Pad3)*
X172720000Y-106680000D03*
D12*
G04 #@! TO.P,Q11,1*
G04 #@! TO.N,GND*
X177800000Y-106680000D03*
G04 #@! TD*
D11*
G04 #@! TO.P,Q12,2*
G04 #@! TO.N,/b1*
X175260000Y-111760000D03*
G04 #@! TO.P,Q12,3*
G04 #@! TO.N,/nand1*
X172720000Y-111760000D03*
D12*
G04 #@! TO.P,Q12,1*
G04 #@! TO.N,Net-(Q11-Pad3)*
X177800000Y-111760000D03*
G04 #@! TD*
D11*
G04 #@! TO.P,Q13,2*
G04 #@! TO.N,/a2*
X165100000Y-86360000D03*
G04 #@! TO.P,Q13,3*
G04 #@! TO.N,/nor2*
X162560000Y-86360000D03*
D12*
G04 #@! TO.P,Q13,1*
G04 #@! TO.N,GND*
X167640000Y-86360000D03*
G04 #@! TD*
D11*
G04 #@! TO.P,Q14,2*
G04 #@! TO.N,/b2*
X165100000Y-91440000D03*
G04 #@! TO.P,Q14,3*
G04 #@! TO.N,/nor2*
X162560000Y-91440000D03*
D12*
G04 #@! TO.P,Q14,1*
G04 #@! TO.N,GND*
X167640000Y-91440000D03*
G04 #@! TD*
D11*
G04 #@! TO.P,Q15,2*
G04 #@! TO.N,/nor2*
X165100000Y-96520000D03*
G04 #@! TO.P,Q15,3*
G04 #@! TO.N,/or2*
X162560000Y-96520000D03*
D12*
G04 #@! TO.P,Q15,1*
G04 #@! TO.N,GND*
X167640000Y-96520000D03*
G04 #@! TD*
D11*
G04 #@! TO.P,Q16,2*
G04 #@! TO.N,/nand2*
X165100000Y-101600000D03*
G04 #@! TO.P,Q16,3*
G04 #@! TO.N,/and2*
X162560000Y-101600000D03*
D12*
G04 #@! TO.P,Q16,1*
G04 #@! TO.N,GND*
X167640000Y-101600000D03*
G04 #@! TD*
D11*
G04 #@! TO.P,Q17,2*
G04 #@! TO.N,/a2*
X165100000Y-106680000D03*
G04 #@! TO.P,Q17,3*
G04 #@! TO.N,Net-(Q17-Pad3)*
X162560000Y-106680000D03*
D12*
G04 #@! TO.P,Q17,1*
G04 #@! TO.N,GND*
X167640000Y-106680000D03*
G04 #@! TD*
D11*
G04 #@! TO.P,Q18,2*
G04 #@! TO.N,/b2*
X165100000Y-111760000D03*
G04 #@! TO.P,Q18,3*
G04 #@! TO.N,/nand2*
X162560000Y-111760000D03*
D12*
G04 #@! TO.P,Q18,1*
G04 #@! TO.N,Net-(Q17-Pad3)*
X167640000Y-111760000D03*
G04 #@! TD*
D11*
G04 #@! TO.P,Q19,2*
G04 #@! TO.N,/a3*
X154940000Y-86360000D03*
G04 #@! TO.P,Q19,3*
G04 #@! TO.N,/nor3*
X152400000Y-86360000D03*
D12*
G04 #@! TO.P,Q19,1*
G04 #@! TO.N,GND*
X157480000Y-86360000D03*
G04 #@! TD*
D11*
G04 #@! TO.P,Q21,2*
G04 #@! TO.N,/nor3*
X154940000Y-96520000D03*
G04 #@! TO.P,Q21,3*
G04 #@! TO.N,/or3*
X152400000Y-96520000D03*
D12*
G04 #@! TO.P,Q21,1*
G04 #@! TO.N,GND*
X157480000Y-96520000D03*
G04 #@! TD*
D11*
G04 #@! TO.P,Q22,2*
G04 #@! TO.N,/nand3*
X154940000Y-101600000D03*
G04 #@! TO.P,Q22,3*
G04 #@! TO.N,/and3*
X152400000Y-101600000D03*
D12*
G04 #@! TO.P,Q22,1*
G04 #@! TO.N,GND*
X157480000Y-101600000D03*
G04 #@! TD*
D11*
G04 #@! TO.P,Q23,2*
G04 #@! TO.N,/a3*
X154940000Y-106680000D03*
G04 #@! TO.P,Q23,3*
G04 #@! TO.N,Net-(Q23-Pad3)*
X152400000Y-106680000D03*
D12*
G04 #@! TO.P,Q23,1*
G04 #@! TO.N,GND*
X157480000Y-106680000D03*
G04 #@! TD*
D11*
G04 #@! TO.P,Q24,2*
G04 #@! TO.N,/b3*
X154940000Y-111760000D03*
G04 #@! TO.P,Q24,3*
G04 #@! TO.N,/nand3*
X152400000Y-111760000D03*
D12*
G04 #@! TO.P,Q24,1*
G04 #@! TO.N,Net-(Q23-Pad3)*
X157480000Y-111760000D03*
G04 #@! TD*
D11*
G04 #@! TO.P,Q25,2*
G04 #@! TO.N,/a4*
X144780000Y-86360000D03*
G04 #@! TO.P,Q25,3*
G04 #@! TO.N,/nor4*
X142240000Y-86360000D03*
D12*
G04 #@! TO.P,Q25,1*
G04 #@! TO.N,GND*
X147320000Y-86360000D03*
G04 #@! TD*
D11*
G04 #@! TO.P,Q26,2*
G04 #@! TO.N,/b4*
X144780000Y-91440000D03*
G04 #@! TO.P,Q26,3*
G04 #@! TO.N,/nor4*
X142240000Y-91440000D03*
D12*
G04 #@! TO.P,Q26,1*
G04 #@! TO.N,GND*
X147320000Y-91440000D03*
G04 #@! TD*
D11*
G04 #@! TO.P,Q27,2*
G04 #@! TO.N,/nor4*
X144780000Y-96520000D03*
G04 #@! TO.P,Q27,3*
G04 #@! TO.N,/or4*
X142240000Y-96520000D03*
D12*
G04 #@! TO.P,Q27,1*
G04 #@! TO.N,GND*
X147320000Y-96520000D03*
G04 #@! TD*
D11*
G04 #@! TO.P,Q28,2*
G04 #@! TO.N,/nand4*
X144780000Y-101600000D03*
G04 #@! TO.P,Q28,3*
G04 #@! TO.N,/and4*
X142240000Y-101600000D03*
D12*
G04 #@! TO.P,Q28,1*
G04 #@! TO.N,GND*
X147320000Y-101600000D03*
G04 #@! TD*
D11*
G04 #@! TO.P,Q29,2*
G04 #@! TO.N,/a4*
X144780000Y-106680000D03*
G04 #@! TO.P,Q29,3*
G04 #@! TO.N,Net-(Q29-Pad3)*
X142240000Y-106680000D03*
D12*
G04 #@! TO.P,Q29,1*
G04 #@! TO.N,GND*
X147320000Y-106680000D03*
G04 #@! TD*
D11*
G04 #@! TO.P,Q30,2*
G04 #@! TO.N,/b4*
X144780000Y-111760000D03*
G04 #@! TO.P,Q30,3*
G04 #@! TO.N,/nand4*
X142240000Y-111760000D03*
D12*
G04 #@! TO.P,Q30,1*
G04 #@! TO.N,Net-(Q29-Pad3)*
X147320000Y-111760000D03*
G04 #@! TD*
D11*
G04 #@! TO.P,Q31,2*
G04 #@! TO.N,/a5*
X134620000Y-86360000D03*
G04 #@! TO.P,Q31,3*
G04 #@! TO.N,/nor5*
X132080000Y-86360000D03*
D12*
G04 #@! TO.P,Q31,1*
G04 #@! TO.N,GND*
X137160000Y-86360000D03*
G04 #@! TD*
D11*
G04 #@! TO.P,Q32,2*
G04 #@! TO.N,/b5*
X134620000Y-91440000D03*
G04 #@! TO.P,Q32,3*
G04 #@! TO.N,/nor5*
X132080000Y-91440000D03*
D12*
G04 #@! TO.P,Q32,1*
G04 #@! TO.N,GND*
X137160000Y-91440000D03*
G04 #@! TD*
D11*
G04 #@! TO.P,Q33,2*
G04 #@! TO.N,/nor5*
X134620000Y-96520000D03*
G04 #@! TO.P,Q33,3*
G04 #@! TO.N,/or5*
X132080000Y-96520000D03*
D12*
G04 #@! TO.P,Q33,1*
G04 #@! TO.N,GND*
X137160000Y-96520000D03*
G04 #@! TD*
D11*
G04 #@! TO.P,Q34,2*
G04 #@! TO.N,/nand5*
X134620000Y-101600000D03*
G04 #@! TO.P,Q34,3*
G04 #@! TO.N,/and5*
X132080000Y-101600000D03*
D12*
G04 #@! TO.P,Q34,1*
G04 #@! TO.N,GND*
X137160000Y-101600000D03*
G04 #@! TD*
D11*
G04 #@! TO.P,Q35,2*
G04 #@! TO.N,/a5*
X134620000Y-106680000D03*
G04 #@! TO.P,Q35,3*
G04 #@! TO.N,Net-(Q35-Pad3)*
X132080000Y-106680000D03*
D12*
G04 #@! TO.P,Q35,1*
G04 #@! TO.N,GND*
X137160000Y-106680000D03*
G04 #@! TD*
D11*
G04 #@! TO.P,Q36,2*
G04 #@! TO.N,/b5*
X134620000Y-111760000D03*
G04 #@! TO.P,Q36,3*
G04 #@! TO.N,/nand5*
X132080000Y-111760000D03*
D12*
G04 #@! TO.P,Q36,1*
G04 #@! TO.N,Net-(Q35-Pad3)*
X137160000Y-111760000D03*
G04 #@! TD*
D11*
G04 #@! TO.P,Q37,2*
G04 #@! TO.N,/a6*
X124460000Y-86360000D03*
G04 #@! TO.P,Q37,3*
G04 #@! TO.N,/nor6*
X121920000Y-86360000D03*
D12*
G04 #@! TO.P,Q37,1*
G04 #@! TO.N,GND*
X127000000Y-86360000D03*
G04 #@! TD*
D11*
G04 #@! TO.P,Q38,2*
G04 #@! TO.N,/b6*
X124460000Y-91440000D03*
G04 #@! TO.P,Q38,3*
G04 #@! TO.N,/nor6*
X121920000Y-91440000D03*
D12*
G04 #@! TO.P,Q38,1*
G04 #@! TO.N,GND*
X127000000Y-91440000D03*
G04 #@! TD*
D11*
G04 #@! TO.P,Q39,2*
G04 #@! TO.N,/nor6*
X124460000Y-96520000D03*
G04 #@! TO.P,Q39,3*
G04 #@! TO.N,/or6*
X121920000Y-96520000D03*
D12*
G04 #@! TO.P,Q39,1*
G04 #@! TO.N,GND*
X127000000Y-96520000D03*
G04 #@! TD*
D11*
G04 #@! TO.P,Q40,2*
G04 #@! TO.N,/nand6*
X124460000Y-101600000D03*
G04 #@! TO.P,Q40,3*
G04 #@! TO.N,/and6*
X121920000Y-101600000D03*
D12*
G04 #@! TO.P,Q40,1*
G04 #@! TO.N,GND*
X127000000Y-101600000D03*
G04 #@! TD*
D11*
G04 #@! TO.P,Q41,2*
G04 #@! TO.N,/a6*
X124460000Y-106680000D03*
G04 #@! TO.P,Q41,3*
G04 #@! TO.N,Net-(Q41-Pad3)*
X121920000Y-106680000D03*
D12*
G04 #@! TO.P,Q41,1*
G04 #@! TO.N,GND*
X127000000Y-106680000D03*
G04 #@! TD*
D11*
G04 #@! TO.P,Q42,2*
G04 #@! TO.N,/b6*
X124460000Y-111760000D03*
G04 #@! TO.P,Q42,3*
G04 #@! TO.N,/nand6*
X121920000Y-111760000D03*
D12*
G04 #@! TO.P,Q42,1*
G04 #@! TO.N,Net-(Q41-Pad3)*
X127000000Y-111760000D03*
G04 #@! TD*
D11*
G04 #@! TO.P,Q43,2*
G04 #@! TO.N,/a7*
X114300000Y-86360000D03*
G04 #@! TO.P,Q43,3*
G04 #@! TO.N,/nor7*
X111760000Y-86360000D03*
D12*
G04 #@! TO.P,Q43,1*
G04 #@! TO.N,GND*
X116840000Y-86360000D03*
G04 #@! TD*
D11*
G04 #@! TO.P,Q44,2*
G04 #@! TO.N,/b7*
X114300000Y-91440000D03*
G04 #@! TO.P,Q44,3*
G04 #@! TO.N,/nor7*
X111760000Y-91440000D03*
D12*
G04 #@! TO.P,Q44,1*
G04 #@! TO.N,GND*
X116840000Y-91440000D03*
G04 #@! TD*
D11*
G04 #@! TO.P,Q45,2*
G04 #@! TO.N,/nor7*
X114300000Y-96520000D03*
G04 #@! TO.P,Q45,3*
G04 #@! TO.N,/or7*
X111760000Y-96520000D03*
D12*
G04 #@! TO.P,Q45,1*
G04 #@! TO.N,GND*
X116840000Y-96520000D03*
G04 #@! TD*
D11*
G04 #@! TO.P,Q46,2*
G04 #@! TO.N,/nand7*
X114300000Y-101600000D03*
G04 #@! TO.P,Q46,3*
G04 #@! TO.N,/and7*
X111760000Y-101600000D03*
D12*
G04 #@! TO.P,Q46,1*
G04 #@! TO.N,GND*
X116840000Y-101600000D03*
G04 #@! TD*
D11*
G04 #@! TO.P,Q47,2*
G04 #@! TO.N,/a7*
X114300000Y-106680000D03*
G04 #@! TO.P,Q47,3*
G04 #@! TO.N,Net-(Q47-Pad3)*
X111760000Y-106680000D03*
D12*
G04 #@! TO.P,Q47,1*
G04 #@! TO.N,GND*
X116840000Y-106680000D03*
G04 #@! TD*
D11*
G04 #@! TO.P,Q48,2*
G04 #@! TO.N,/b7*
X114300000Y-111760000D03*
G04 #@! TO.P,Q48,3*
G04 #@! TO.N,/nand7*
X111760000Y-111760000D03*
D12*
G04 #@! TO.P,Q48,1*
G04 #@! TO.N,Net-(Q47-Pad3)*
X116840000Y-111760000D03*
G04 #@! TD*
D11*
G04 #@! TO.P,R1,1*
G04 #@! TO.N,GND*
X99060000Y-91440000D03*
D13*
G04 #@! TO.P,R1,2*
G04 #@! TO.N,/a0*
X99060000Y-86360000D03*
G04 #@! TD*
D11*
G04 #@! TO.P,R2,1*
G04 #@! TO.N,/b0*
X81280000Y-99060000D03*
D13*
G04 #@! TO.P,R2,2*
G04 #@! TO.N,GND*
X81280000Y-93980000D03*
G04 #@! TD*
D11*
G04 #@! TO.P,R3,1*
G04 #@! TO.N,VCC*
X180340000Y-90170000D03*
D13*
G04 #@! TO.P,R3,2*
G04 #@! TO.N,/nor0*
X180340000Y-85090000D03*
G04 #@! TD*
D11*
G04 #@! TO.P,R4,1*
G04 #@! TO.N,VCC*
X180340000Y-92710000D03*
D13*
G04 #@! TO.P,R4,2*
G04 #@! TO.N,/or0*
X180340000Y-97790000D03*
G04 #@! TD*
D11*
G04 #@! TO.P,R5,1*
G04 #@! TO.N,VCC*
X180340000Y-105410000D03*
D13*
G04 #@! TO.P,R5,2*
G04 #@! TO.N,/and0*
X180340000Y-100330000D03*
G04 #@! TD*
D11*
G04 #@! TO.P,R6,1*
G04 #@! TO.N,VCC*
X180340000Y-107950000D03*
D13*
G04 #@! TO.P,R6,2*
G04 #@! TO.N,/nand0*
X180340000Y-113030000D03*
G04 #@! TD*
D11*
G04 #@! TO.P,R7,1*
G04 #@! TO.N,GND*
X96520000Y-91440000D03*
D13*
G04 #@! TO.P,R7,2*
G04 #@! TO.N,/a1*
X96520000Y-86360000D03*
G04 #@! TD*
D11*
G04 #@! TO.P,R8,1*
G04 #@! TO.N,/b1*
X83820000Y-99060000D03*
D13*
G04 #@! TO.P,R8,2*
G04 #@! TO.N,GND*
X83820000Y-93980000D03*
G04 #@! TD*
D11*
G04 #@! TO.P,R9,1*
G04 #@! TO.N,VCC*
X170180000Y-90170000D03*
D13*
G04 #@! TO.P,R9,2*
G04 #@! TO.N,/nor1*
X170180000Y-85090000D03*
G04 #@! TD*
D11*
G04 #@! TO.P,R10,1*
G04 #@! TO.N,VCC*
X170180000Y-92710000D03*
D13*
G04 #@! TO.P,R10,2*
G04 #@! TO.N,/or1*
X170180000Y-97790000D03*
G04 #@! TD*
D11*
G04 #@! TO.P,R11,1*
G04 #@! TO.N,VCC*
X170180000Y-105410000D03*
D13*
G04 #@! TO.P,R11,2*
G04 #@! TO.N,/and1*
X170180000Y-100330000D03*
G04 #@! TD*
D11*
G04 #@! TO.P,R12,1*
G04 #@! TO.N,VCC*
X170180000Y-107950000D03*
D13*
G04 #@! TO.P,R12,2*
G04 #@! TO.N,/nand1*
X170180000Y-113030000D03*
G04 #@! TD*
D11*
G04 #@! TO.P,R13,1*
G04 #@! TO.N,GND*
X93980000Y-91440000D03*
D13*
G04 #@! TO.P,R13,2*
G04 #@! TO.N,/a2*
X93980000Y-86360000D03*
G04 #@! TD*
D11*
G04 #@! TO.P,R14,1*
G04 #@! TO.N,/b2*
X86360000Y-99060000D03*
D13*
G04 #@! TO.P,R14,2*
G04 #@! TO.N,GND*
X86360000Y-93980000D03*
G04 #@! TD*
D11*
G04 #@! TO.P,R15,1*
G04 #@! TO.N,VCC*
X160020000Y-90170000D03*
D13*
G04 #@! TO.P,R15,2*
G04 #@! TO.N,/nor2*
X160020000Y-85090000D03*
G04 #@! TD*
D11*
G04 #@! TO.P,R16,1*
G04 #@! TO.N,VCC*
X160020000Y-92710000D03*
D13*
G04 #@! TO.P,R16,2*
G04 #@! TO.N,/or2*
X160020000Y-97790000D03*
G04 #@! TD*
D11*
G04 #@! TO.P,R17,1*
G04 #@! TO.N,VCC*
X160020000Y-105410000D03*
D13*
G04 #@! TO.P,R17,2*
G04 #@! TO.N,/and2*
X160020000Y-100330000D03*
G04 #@! TD*
D11*
G04 #@! TO.P,R18,1*
G04 #@! TO.N,VCC*
X160020000Y-107950000D03*
D13*
G04 #@! TO.P,R18,2*
G04 #@! TO.N,/nand2*
X160020000Y-113030000D03*
G04 #@! TD*
D11*
G04 #@! TO.P,R19,1*
G04 #@! TO.N,GND*
X91440000Y-91440000D03*
D13*
G04 #@! TO.P,R19,2*
G04 #@! TO.N,/a3*
X91440000Y-86360000D03*
G04 #@! TD*
D11*
G04 #@! TO.P,R20,1*
G04 #@! TO.N,/b3*
X88900000Y-99060000D03*
D13*
G04 #@! TO.P,R20,2*
G04 #@! TO.N,GND*
X88900000Y-93980000D03*
G04 #@! TD*
D11*
G04 #@! TO.P,R21,1*
G04 #@! TO.N,VCC*
X149860000Y-90170000D03*
D13*
G04 #@! TO.P,R21,2*
G04 #@! TO.N,/nor3*
X149860000Y-85090000D03*
G04 #@! TD*
D11*
G04 #@! TO.P,R22,1*
G04 #@! TO.N,VCC*
X149860000Y-92710000D03*
D13*
G04 #@! TO.P,R22,2*
G04 #@! TO.N,/or3*
X149860000Y-97790000D03*
G04 #@! TD*
D11*
G04 #@! TO.P,R23,1*
G04 #@! TO.N,VCC*
X149860000Y-105410000D03*
D13*
G04 #@! TO.P,R23,2*
G04 #@! TO.N,/and3*
X149860000Y-100330000D03*
G04 #@! TD*
D11*
G04 #@! TO.P,R24,1*
G04 #@! TO.N,VCC*
X149860000Y-107950000D03*
D13*
G04 #@! TO.P,R24,2*
G04 #@! TO.N,/nand3*
X149860000Y-113030000D03*
G04 #@! TD*
D11*
G04 #@! TO.P,R25,1*
G04 #@! TO.N,GND*
X88900000Y-91440000D03*
D13*
G04 #@! TO.P,R25,2*
G04 #@! TO.N,/a4*
X88900000Y-86360000D03*
G04 #@! TD*
D11*
G04 #@! TO.P,R26,1*
G04 #@! TO.N,/b4*
X91440000Y-99060000D03*
D13*
G04 #@! TO.P,R26,2*
G04 #@! TO.N,GND*
X91440000Y-93980000D03*
G04 #@! TD*
D11*
G04 #@! TO.P,R27,1*
G04 #@! TO.N,VCC*
X139700000Y-90170000D03*
D13*
G04 #@! TO.P,R27,2*
G04 #@! TO.N,/nor4*
X139700000Y-85090000D03*
G04 #@! TD*
D11*
G04 #@! TO.P,R28,1*
G04 #@! TO.N,VCC*
X139700000Y-92710000D03*
D13*
G04 #@! TO.P,R28,2*
G04 #@! TO.N,/or4*
X139700000Y-97790000D03*
G04 #@! TD*
D11*
G04 #@! TO.P,R29,1*
G04 #@! TO.N,VCC*
X139700000Y-105410000D03*
D13*
G04 #@! TO.P,R29,2*
G04 #@! TO.N,/and4*
X139700000Y-100330000D03*
G04 #@! TD*
D11*
G04 #@! TO.P,R30,1*
G04 #@! TO.N,VCC*
X139700000Y-107950000D03*
D13*
G04 #@! TO.P,R30,2*
G04 #@! TO.N,/nand4*
X139700000Y-113030000D03*
G04 #@! TD*
D11*
G04 #@! TO.P,R31,1*
G04 #@! TO.N,GND*
X86360000Y-91440000D03*
D13*
G04 #@! TO.P,R31,2*
G04 #@! TO.N,/a5*
X86360000Y-86360000D03*
G04 #@! TD*
D11*
G04 #@! TO.P,R32,1*
G04 #@! TO.N,/b5*
X93980000Y-99060000D03*
D13*
G04 #@! TO.P,R32,2*
G04 #@! TO.N,GND*
X93980000Y-93980000D03*
G04 #@! TD*
D11*
G04 #@! TO.P,R33,1*
G04 #@! TO.N,VCC*
X129540000Y-90170000D03*
D13*
G04 #@! TO.P,R33,2*
G04 #@! TO.N,/nor5*
X129540000Y-85090000D03*
G04 #@! TD*
D11*
G04 #@! TO.P,R34,1*
G04 #@! TO.N,VCC*
X129540000Y-92710000D03*
D13*
G04 #@! TO.P,R34,2*
G04 #@! TO.N,/or5*
X129540000Y-97790000D03*
G04 #@! TD*
D11*
G04 #@! TO.P,R35,1*
G04 #@! TO.N,VCC*
X129540000Y-105410000D03*
D13*
G04 #@! TO.P,R35,2*
G04 #@! TO.N,/and5*
X129540000Y-100330000D03*
G04 #@! TD*
D11*
G04 #@! TO.P,R36,1*
G04 #@! TO.N,VCC*
X129540000Y-107950000D03*
D13*
G04 #@! TO.P,R36,2*
G04 #@! TO.N,/nand5*
X129540000Y-113030000D03*
G04 #@! TD*
D11*
G04 #@! TO.P,R37,1*
G04 #@! TO.N,GND*
X83820000Y-91440000D03*
D13*
G04 #@! TO.P,R37,2*
G04 #@! TO.N,/a6*
X83820000Y-86360000D03*
G04 #@! TD*
D11*
G04 #@! TO.P,R38,1*
G04 #@! TO.N,/b6*
X96520000Y-99060000D03*
D13*
G04 #@! TO.P,R38,2*
G04 #@! TO.N,GND*
X96520000Y-93980000D03*
G04 #@! TD*
D11*
G04 #@! TO.P,R39,1*
G04 #@! TO.N,VCC*
X119380000Y-90170000D03*
D13*
G04 #@! TO.P,R39,2*
G04 #@! TO.N,/nor6*
X119380000Y-85090000D03*
G04 #@! TD*
D11*
G04 #@! TO.P,R40,1*
G04 #@! TO.N,VCC*
X119380000Y-92710000D03*
D13*
G04 #@! TO.P,R40,2*
G04 #@! TO.N,/or6*
X119380000Y-97790000D03*
G04 #@! TD*
D11*
G04 #@! TO.P,R41,1*
G04 #@! TO.N,VCC*
X119380000Y-105410000D03*
D13*
G04 #@! TO.P,R41,2*
G04 #@! TO.N,/and6*
X119380000Y-100330000D03*
G04 #@! TD*
D11*
G04 #@! TO.P,R42,1*
G04 #@! TO.N,VCC*
X119380000Y-107950000D03*
D13*
G04 #@! TO.P,R42,2*
G04 #@! TO.N,/nand6*
X119380000Y-113030000D03*
G04 #@! TD*
D11*
G04 #@! TO.P,R43,1*
G04 #@! TO.N,GND*
X81280000Y-91440000D03*
D13*
G04 #@! TO.P,R43,2*
G04 #@! TO.N,/a7*
X81280000Y-86360000D03*
G04 #@! TD*
D11*
G04 #@! TO.P,R44,1*
G04 #@! TO.N,/b7*
X99060000Y-99060000D03*
D13*
G04 #@! TO.P,R44,2*
G04 #@! TO.N,GND*
X99060000Y-93980000D03*
G04 #@! TD*
D11*
G04 #@! TO.P,R45,1*
G04 #@! TO.N,VCC*
X109220000Y-90170000D03*
D13*
G04 #@! TO.P,R45,2*
G04 #@! TO.N,/nor7*
X109220000Y-85090000D03*
G04 #@! TD*
D11*
G04 #@! TO.P,R46,1*
G04 #@! TO.N,VCC*
X109220000Y-92710000D03*
D13*
G04 #@! TO.P,R46,2*
G04 #@! TO.N,/or7*
X109220000Y-97790000D03*
G04 #@! TD*
D11*
G04 #@! TO.P,R47,1*
G04 #@! TO.N,VCC*
X109220000Y-105410000D03*
D13*
G04 #@! TO.P,R47,2*
G04 #@! TO.N,/and7*
X109220000Y-100330000D03*
G04 #@! TD*
D11*
G04 #@! TO.P,R48,1*
G04 #@! TO.N,VCC*
X109220000Y-107950000D03*
D13*
G04 #@! TO.P,R48,2*
G04 #@! TO.N,/nand7*
X109220000Y-113030000D03*
G04 #@! TD*
D14*
G04 #@! TO.P,JP1,1*
G04 #@! TO.N,VCC*
X218440000Y-50800000D03*
D15*
G04 #@! TO.P,JP1,2*
G04 #@! TO.N,Net-(D1-Pad2)*
X215900000Y-50800000D03*
G04 #@! TD*
D11*
G04 #@! TO.P,J1,8*
G04 #@! TO.N,/a7*
X81280000Y-45720000D03*
G04 #@! TO.P,J1,7*
G04 #@! TO.N,/a6*
X83820000Y-45720000D03*
G04 #@! TO.P,J1,6*
G04 #@! TO.N,/a5*
X86360000Y-45720000D03*
G04 #@! TO.P,J1,5*
G04 #@! TO.N,/a4*
X88900000Y-45720000D03*
G04 #@! TO.P,J1,4*
G04 #@! TO.N,/a3*
X91440000Y-45720000D03*
G04 #@! TO.P,J1,3*
G04 #@! TO.N,/a2*
X93980000Y-45720000D03*
G04 #@! TO.P,J1,2*
G04 #@! TO.N,/a1*
X96520000Y-45720000D03*
G04 #@! TO.P,J1,1*
G04 #@! TO.N,/a0*
X99060000Y-45720000D03*
X99060000Y-43180000D03*
G04 #@! TO.P,J1,2*
G04 #@! TO.N,/a1*
X96520000Y-43180000D03*
G04 #@! TO.P,J1,3*
G04 #@! TO.N,/a2*
X93980000Y-43180000D03*
G04 #@! TO.P,J1,4*
G04 #@! TO.N,/a3*
X91440000Y-43180000D03*
G04 #@! TO.P,J1,5*
G04 #@! TO.N,/a4*
X88900000Y-43180000D03*
G04 #@! TO.P,J1,6*
G04 #@! TO.N,/a5*
X86360000Y-43180000D03*
G04 #@! TO.P,J1,7*
G04 #@! TO.N,/a6*
X83820000Y-43180000D03*
G04 #@! TO.P,J1,8*
G04 #@! TO.N,/a7*
X81280000Y-43180000D03*
G04 #@! TD*
G04 #@! TO.P,J2,8*
G04 #@! TO.N,/b7*
X104140000Y-43180000D03*
G04 #@! TO.P,J2,7*
G04 #@! TO.N,/b6*
X106680000Y-43180000D03*
G04 #@! TO.P,J2,6*
G04 #@! TO.N,/b5*
X109220000Y-43180000D03*
G04 #@! TO.P,J2,5*
G04 #@! TO.N,/b4*
X111760000Y-43180000D03*
G04 #@! TO.P,J2,4*
G04 #@! TO.N,/b3*
X114300000Y-43180000D03*
G04 #@! TO.P,J2,3*
G04 #@! TO.N,/b2*
X116840000Y-43180000D03*
G04 #@! TO.P,J2,2*
G04 #@! TO.N,/b1*
X119380000Y-43180000D03*
G04 #@! TO.P,J2,1*
G04 #@! TO.N,/b0*
X121920000Y-43180000D03*
X121920000Y-45720000D03*
G04 #@! TO.P,J2,2*
G04 #@! TO.N,/b1*
X119380000Y-45720000D03*
G04 #@! TO.P,J2,3*
G04 #@! TO.N,/b2*
X116840000Y-45720000D03*
G04 #@! TO.P,J2,4*
G04 #@! TO.N,/b3*
X114300000Y-45720000D03*
G04 #@! TO.P,J2,5*
G04 #@! TO.N,/b4*
X111760000Y-45720000D03*
G04 #@! TO.P,J2,6*
G04 #@! TO.N,/b5*
X109220000Y-45720000D03*
G04 #@! TO.P,J2,7*
G04 #@! TO.N,/b6*
X106680000Y-45720000D03*
G04 #@! TO.P,J2,8*
G04 #@! TO.N,/b7*
X104140000Y-45720000D03*
G04 #@! TD*
G04 #@! TO.P,J3,8*
G04 #@! TO.N,/nor7*
X127000000Y-45720000D03*
G04 #@! TO.P,J3,7*
G04 #@! TO.N,/nor6*
X129540000Y-45720000D03*
G04 #@! TO.P,J3,6*
G04 #@! TO.N,/nor5*
X132080000Y-45720000D03*
G04 #@! TO.P,J3,5*
G04 #@! TO.N,/nor4*
X134620000Y-45720000D03*
G04 #@! TO.P,J3,4*
G04 #@! TO.N,/nor3*
X137160000Y-45720000D03*
G04 #@! TO.P,J3,3*
G04 #@! TO.N,/nor2*
X139700000Y-45720000D03*
G04 #@! TO.P,J3,2*
G04 #@! TO.N,/nor1*
X142240000Y-45720000D03*
G04 #@! TO.P,J3,1*
G04 #@! TO.N,/nor0*
X144780000Y-45720000D03*
X144780000Y-43180000D03*
G04 #@! TO.P,J3,2*
G04 #@! TO.N,/nor1*
X142240000Y-43180000D03*
G04 #@! TO.P,J3,3*
G04 #@! TO.N,/nor2*
X139700000Y-43180000D03*
G04 #@! TO.P,J3,4*
G04 #@! TO.N,/nor3*
X137160000Y-43180000D03*
G04 #@! TO.P,J3,5*
G04 #@! TO.N,/nor4*
X134620000Y-43180000D03*
G04 #@! TO.P,J3,6*
G04 #@! TO.N,/nor5*
X132080000Y-43180000D03*
G04 #@! TO.P,J3,7*
G04 #@! TO.N,/nor6*
X129540000Y-43180000D03*
G04 #@! TO.P,J3,8*
G04 #@! TO.N,/nor7*
X127000000Y-43180000D03*
G04 #@! TD*
G04 #@! TO.P,J4,8*
G04 #@! TO.N,/nand7*
X149860000Y-43180000D03*
G04 #@! TO.P,J4,7*
G04 #@! TO.N,/nand6*
X152400000Y-43180000D03*
G04 #@! TO.P,J4,6*
G04 #@! TO.N,/nand5*
X154940000Y-43180000D03*
G04 #@! TO.P,J4,5*
G04 #@! TO.N,/nand4*
X157480000Y-43180000D03*
G04 #@! TO.P,J4,4*
G04 #@! TO.N,/nand3*
X160020000Y-43180000D03*
G04 #@! TO.P,J4,3*
G04 #@! TO.N,/nand2*
X162560000Y-43180000D03*
G04 #@! TO.P,J4,2*
G04 #@! TO.N,/nand1*
X165100000Y-43180000D03*
G04 #@! TO.P,J4,1*
G04 #@! TO.N,/nand0*
X167640000Y-43180000D03*
X167640000Y-45720000D03*
G04 #@! TO.P,J4,2*
G04 #@! TO.N,/nand1*
X165100000Y-45720000D03*
G04 #@! TO.P,J4,3*
G04 #@! TO.N,/nand2*
X162560000Y-45720000D03*
G04 #@! TO.P,J4,4*
G04 #@! TO.N,/nand3*
X160020000Y-45720000D03*
G04 #@! TO.P,J4,5*
G04 #@! TO.N,/nand4*
X157480000Y-45720000D03*
G04 #@! TO.P,J4,6*
G04 #@! TO.N,/nand5*
X154940000Y-45720000D03*
G04 #@! TO.P,J4,7*
G04 #@! TO.N,/nand6*
X152400000Y-45720000D03*
G04 #@! TO.P,J4,8*
G04 #@! TO.N,/nand7*
X149860000Y-45720000D03*
G04 #@! TD*
G04 #@! TO.P,J5,8*
G04 #@! TO.N,/and7*
X172720000Y-45720000D03*
G04 #@! TO.P,J5,7*
G04 #@! TO.N,/and6*
X175260000Y-45720000D03*
G04 #@! TO.P,J5,6*
G04 #@! TO.N,/and5*
X177800000Y-45720000D03*
G04 #@! TO.P,J5,5*
G04 #@! TO.N,/and4*
X180340000Y-45720000D03*
G04 #@! TO.P,J5,4*
G04 #@! TO.N,/and3*
X182880000Y-45720000D03*
G04 #@! TO.P,J5,3*
G04 #@! TO.N,/and2*
X185420000Y-45720000D03*
G04 #@! TO.P,J5,2*
G04 #@! TO.N,/and1*
X187960000Y-45720000D03*
G04 #@! TO.P,J5,1*
G04 #@! TO.N,/and0*
X190500000Y-45720000D03*
X190500000Y-43180000D03*
G04 #@! TO.P,J5,2*
G04 #@! TO.N,/and1*
X187960000Y-43180000D03*
G04 #@! TO.P,J5,3*
G04 #@! TO.N,/and2*
X185420000Y-43180000D03*
G04 #@! TO.P,J5,4*
G04 #@! TO.N,/and3*
X182880000Y-43180000D03*
G04 #@! TO.P,J5,5*
G04 #@! TO.N,/and4*
X180340000Y-43180000D03*
G04 #@! TO.P,J5,6*
G04 #@! TO.N,/and5*
X177800000Y-43180000D03*
G04 #@! TO.P,J5,7*
G04 #@! TO.N,/and6*
X175260000Y-43180000D03*
G04 #@! TO.P,J5,8*
G04 #@! TO.N,/and7*
X172720000Y-43180000D03*
G04 #@! TD*
G04 #@! TO.P,J6,8*
G04 #@! TO.N,/or7*
X195580000Y-43180000D03*
G04 #@! TO.P,J6,7*
G04 #@! TO.N,/or6*
X198120000Y-43180000D03*
G04 #@! TO.P,J6,6*
G04 #@! TO.N,/or5*
X200660000Y-43180000D03*
G04 #@! TO.P,J6,5*
G04 #@! TO.N,/or4*
X203200000Y-43180000D03*
G04 #@! TO.P,J6,4*
G04 #@! TO.N,/or3*
X205740000Y-43180000D03*
G04 #@! TO.P,J6,3*
G04 #@! TO.N,/or2*
X208280000Y-43180000D03*
G04 #@! TO.P,J6,2*
G04 #@! TO.N,/or1*
X210820000Y-43180000D03*
G04 #@! TO.P,J6,1*
G04 #@! TO.N,/or0*
X213360000Y-43180000D03*
X213360000Y-45720000D03*
G04 #@! TO.P,J6,2*
G04 #@! TO.N,/or1*
X210820000Y-45720000D03*
G04 #@! TO.P,J6,3*
G04 #@! TO.N,/or2*
X208280000Y-45720000D03*
G04 #@! TO.P,J6,4*
G04 #@! TO.N,/or3*
X205740000Y-45720000D03*
G04 #@! TO.P,J6,5*
G04 #@! TO.N,/or4*
X203200000Y-45720000D03*
G04 #@! TO.P,J6,6*
G04 #@! TO.N,/or5*
X200660000Y-45720000D03*
G04 #@! TO.P,J6,7*
G04 #@! TO.N,/or6*
X198120000Y-45720000D03*
G04 #@! TO.P,J6,8*
G04 #@! TO.N,/or7*
X195580000Y-45720000D03*
G04 #@! TD*
D16*
G04 #@! TO.P,REF\002A\002A,1*
G04 #@! TO.N,N/C*
X217170000Y-69850000D03*
G04 #@! TD*
G04 #@! TO.P,REF\002A\002A,1*
G04 #@! TO.N,N/C*
X217170000Y-111760000D03*
G04 #@! TD*
G04 #@! TO.P,REF\002A\002A,1*
G04 #@! TO.N,N/C*
X81280000Y-111760000D03*
G04 #@! TD*
G04 #@! TO.P,REF\002A\002A,1*
G04 #@! TO.N,N/C*
X81280000Y-69850000D03*
G04 #@! TD*
D17*
G04 #@! TO.N,/a6*
X83820000Y-61404500D03*
G04 #@! TO.N,/a7*
X81280000Y-65214500D03*
G04 #@! TO.N,/a4*
X88900000Y-61404500D03*
G04 #@! TO.N,/a5*
X86360000Y-65214500D03*
G04 #@! TO.N,/a2*
X93980000Y-61404500D03*
G04 #@! TO.N,/a3*
X91440000Y-65214500D03*
G04 #@! TO.N,/a0*
X99060000Y-61404500D03*
G04 #@! TO.N,/a1*
X96520000Y-65214500D03*
G04 #@! TO.N,/b6*
X106680000Y-61404500D03*
G04 #@! TO.N,/b7*
X104140000Y-65214500D03*
G04 #@! TO.N,/b4*
X111760000Y-61404500D03*
G04 #@! TO.N,/b5*
X109220000Y-65214500D03*
G04 #@! TO.N,/b2*
X116840000Y-61404500D03*
G04 #@! TO.N,/b3*
X114300000Y-65214500D03*
G04 #@! TO.N,/b0*
X121920000Y-61404500D03*
G04 #@! TO.N,/b1*
X119380000Y-65214500D03*
G04 #@! TO.N,/nor6*
X129540000Y-61404500D03*
G04 #@! TO.N,/nor7*
X127000000Y-65214500D03*
G04 #@! TO.N,/nor4*
X134620000Y-61404500D03*
G04 #@! TO.N,/nor5*
X132080000Y-65214500D03*
G04 #@! TO.N,/nor2*
X139700000Y-61404500D03*
G04 #@! TO.N,/nor3*
X137160000Y-65214500D03*
G04 #@! TO.N,/nor0*
X144780000Y-61404500D03*
G04 #@! TO.N,/nor1*
X142240000Y-65214500D03*
G04 #@! TO.N,/nand6*
X152400000Y-61404500D03*
G04 #@! TO.N,/nand7*
X149860000Y-65214500D03*
G04 #@! TO.N,/nand4*
X157480000Y-61404500D03*
G04 #@! TO.N,/nand5*
X154940000Y-65214500D03*
G04 #@! TO.N,/nand2*
X162560000Y-61404500D03*
G04 #@! TO.N,/nand3*
X160020000Y-65214500D03*
G04 #@! TO.N,/nand0*
X167640000Y-61404500D03*
G04 #@! TO.N,/nand1*
X165100000Y-65214500D03*
G04 #@! TO.N,/and6*
X175260000Y-61404500D03*
G04 #@! TO.N,/and7*
X172720000Y-65214500D03*
G04 #@! TO.N,/and4*
X180340000Y-61404500D03*
G04 #@! TO.N,/and5*
X177800000Y-65214500D03*
G04 #@! TO.N,/and2*
X185420000Y-61404500D03*
G04 #@! TO.N,/and3*
X182880000Y-65214500D03*
G04 #@! TO.N,/and0*
X190500000Y-61404500D03*
G04 #@! TO.N,/and1*
X187960000Y-65214500D03*
G04 #@! TO.N,/or6*
X198120000Y-61404500D03*
G04 #@! TO.N,/or7*
X195580000Y-65214500D03*
G04 #@! TO.N,/or4*
X203200000Y-61404500D03*
G04 #@! TO.N,/or5*
X200660000Y-65214500D03*
G04 #@! TO.N,/or2*
X208280000Y-61404500D03*
G04 #@! TO.N,/or3*
X205740000Y-65214500D03*
G04 #@! TO.N,/b0*
X121920000Y-74930000D03*
X186690000Y-80645000D03*
X121920000Y-71755000D03*
X105410000Y-71755000D03*
G04 #@! TO.N,/b1*
X119380000Y-74930000D03*
X176530000Y-81280000D03*
X104775000Y-74930000D03*
G04 #@! TO.N,/b2*
X116840000Y-75565000D03*
X166370000Y-81915000D03*
X103505000Y-75565000D03*
G04 #@! TO.N,/b3*
X114300000Y-76200000D03*
X156210000Y-81280000D03*
X102870000Y-76200000D03*
G04 #@! TO.N,/b4*
X111760000Y-76835000D03*
X146050000Y-80645000D03*
X102235000Y-76835000D03*
G04 #@! TO.N,/b5*
X109220000Y-77470000D03*
X135890000Y-80010000D03*
X101600000Y-77470000D03*
G04 #@! TO.N,/b6*
X106680000Y-78105000D03*
X100965000Y-78105000D03*
X125730000Y-78740000D03*
G04 #@! TO.N,/b7*
X104140000Y-78740000D03*
X115570000Y-78740000D03*
X100330000Y-78740000D03*
G04 #@! TO.N,/a0*
X99060000Y-79375000D03*
X185420000Y-82550000D03*
G04 #@! TO.N,/a1*
X96520000Y-80010000D03*
X175260000Y-83185000D03*
G04 #@! TO.N,/a2*
X93980000Y-80645000D03*
X165100000Y-83820000D03*
G04 #@! TO.N,/a3*
X91440000Y-81280000D03*
X154940000Y-83820000D03*
G04 #@! TO.N,/a4*
X88900000Y-81915000D03*
X144780000Y-83820000D03*
G04 #@! TO.N,/a5*
X86360000Y-82550000D03*
X134620000Y-83820000D03*
G04 #@! TO.N,/a6*
X83820000Y-83185000D03*
X124460000Y-83820000D03*
G04 #@! TO.N,/a7*
X114300000Y-83820000D03*
X81280000Y-83820000D03*
G04 #@! TO.N,/nor0*
X144780000Y-75565000D03*
X180340000Y-79375000D03*
G04 #@! TO.N,/nand0*
X167640000Y-78105000D03*
X181610000Y-78105000D03*
G04 #@! TO.N,/and0*
X184150000Y-78105000D03*
X190500000Y-78105000D03*
G04 #@! TO.N,/or0*
X213360000Y-61404500D03*
X179705000Y-71755000D03*
X213360000Y-71755000D03*
G04 #@! TO.N,/nor1*
X142240000Y-74930000D03*
X170180000Y-80010000D03*
G04 #@! TO.N,/nand1*
X165100000Y-78740000D03*
X171450000Y-78740000D03*
G04 #@! TO.N,/and1*
X187960000Y-77470000D03*
X173990000Y-77470000D03*
G04 #@! TO.N,/or1*
X210820000Y-65214500D03*
X169545000Y-71120000D03*
X210820000Y-71120000D03*
G04 #@! TO.N,/nor2*
X139700000Y-74930000D03*
X160020000Y-80010000D03*
G04 #@! TO.N,/and2*
X163830000Y-76835000D03*
X185420000Y-76835000D03*
G04 #@! TO.N,/or2*
X159385000Y-70485000D03*
X208280000Y-70485000D03*
G04 #@! TO.N,/nor3*
X149860000Y-78105000D03*
X137160000Y-75565000D03*
G04 #@! TO.N,/nand3*
X152400000Y-75565000D03*
X160020000Y-75565000D03*
G04 #@! TO.N,/and3*
X153670000Y-76200000D03*
X182880000Y-76200000D03*
G04 #@! TO.N,/or3*
X205740000Y-69850000D03*
X149225000Y-69850000D03*
G04 #@! TO.N,/nor4*
X139700000Y-76200000D03*
X134620000Y-76200000D03*
G04 #@! TO.N,/nand4*
X141605000Y-74295000D03*
X157480000Y-74930000D03*
G04 #@! TO.N,/and4*
X143510000Y-71755000D03*
X180340000Y-73660000D03*
G04 #@! TO.N,/or4*
X203200000Y-69215000D03*
X139065000Y-69215000D03*
G04 #@! TO.N,/nor5*
X130175000Y-71120000D03*
X132080000Y-71120000D03*
G04 #@! TO.N,/nand5*
X131445000Y-73660000D03*
X154940000Y-74295000D03*
G04 #@! TO.N,/and5*
X133350000Y-71120000D03*
X177800000Y-73025000D03*
G04 #@! TO.N,/or5*
X200660000Y-68580000D03*
X128905000Y-68580000D03*
G04 #@! TO.N,/nor6*
X120015000Y-74295000D03*
X129540000Y-74295000D03*
G04 #@! TO.N,/nand6*
X121285000Y-73025000D03*
X152400000Y-73660000D03*
G04 #@! TO.N,/and6*
X123190000Y-70485000D03*
X175260000Y-72390000D03*
G04 #@! TO.N,/or6*
X198120000Y-67945000D03*
X118745000Y-67945000D03*
G04 #@! TO.N,/nor7*
X127000000Y-73660000D03*
X110109999Y-73660000D03*
G04 #@! TO.N,/nand7*
X111125000Y-72390000D03*
X149860000Y-73025000D03*
G04 #@! TO.N,/and7*
X113030000Y-69850000D03*
X172720000Y-71755000D03*
G04 #@! TO.N,/or7*
X195580000Y-67310000D03*
X108585000Y-67310000D03*
G04 #@! TD*
D18*
G04 #@! TO.N,/b0*
X186690000Y-92710000D02*
X185420000Y-91440000D01*
X185420000Y-111760000D02*
X186934999Y-110245001D01*
X186934999Y-110245001D02*
X186934999Y-92954999D01*
X186690000Y-90170000D02*
X185420000Y-91440000D01*
X186934999Y-92954999D02*
X186690000Y-92710000D01*
G04 #@! TO.N,/a0*
X185420000Y-86360000D02*
X184394999Y-87385001D01*
X184394999Y-87385001D02*
X184394999Y-105654999D01*
X184394999Y-105654999D02*
X184720001Y-105980001D01*
X184720001Y-105980001D02*
X185420000Y-106680000D01*
G04 #@! TO.N,VCC*
X181365001Y-104384999D02*
X181365001Y-93735001D01*
X181039999Y-93409999D02*
X180340000Y-92710000D01*
X180340000Y-90170000D02*
X180340000Y-92710000D01*
X180340000Y-105410000D02*
X181365001Y-104384999D01*
X181365001Y-93735001D02*
X181039999Y-93409999D01*
X180340000Y-105410000D02*
X180340000Y-107950000D01*
G04 #@! TO.N,GND*
X187960000Y-101600000D02*
X187960000Y-96520000D01*
X187960000Y-106680000D02*
X187960000Y-101600000D01*
X187960000Y-91440000D02*
X187960000Y-86360000D01*
X187960000Y-96520000D02*
X187960000Y-91440000D01*
G04 #@! TO.N,/nor0*
X182880000Y-90450051D02*
X182880000Y-86360000D01*
X182880000Y-91440000D02*
X182880000Y-90450051D01*
X180340000Y-85090000D02*
X180340000Y-83185000D01*
G04 #@! TO.N,/nand0*
X182880000Y-111760000D02*
X186445001Y-108194999D01*
X182880000Y-111760000D02*
X181854999Y-110734999D01*
X186445001Y-108194999D02*
X186445001Y-102625001D01*
X181854999Y-109745050D02*
X181854999Y-83575001D01*
X186445001Y-102625001D02*
X186119999Y-102299999D01*
X181854999Y-110734999D02*
X181854999Y-109745050D01*
X186119999Y-102299999D02*
X185420000Y-101600000D01*
G04 #@! TO.N,/and0*
X182880000Y-101600000D02*
X183905001Y-100574999D01*
X183905001Y-100574999D02*
X183905001Y-84210001D01*
G04 #@! TO.N,/b1*
X176530000Y-92710000D02*
X175260000Y-91440000D01*
X175260000Y-111760000D02*
X176774999Y-110245001D01*
X176774999Y-110245001D02*
X176774999Y-92954999D01*
X176530000Y-90170000D02*
X175260000Y-91440000D01*
X176774999Y-92954999D02*
X176530000Y-92710000D01*
G04 #@! TO.N,/a1*
X175260000Y-86360000D02*
X174234999Y-87385001D01*
X174234999Y-87385001D02*
X174234999Y-105654999D01*
X174234999Y-105654999D02*
X174560001Y-105980001D01*
X174560001Y-105980001D02*
X175260000Y-106680000D01*
G04 #@! TO.N,VCC*
X171205001Y-104384999D02*
X171205001Y-93735001D01*
X170879999Y-93409999D02*
X170180000Y-92710000D01*
X170180000Y-90170000D02*
X170180000Y-92710000D01*
X170180000Y-105410000D02*
X171205001Y-104384999D01*
X171205001Y-93735001D02*
X170879999Y-93409999D01*
X170180000Y-105410000D02*
X170180000Y-107950000D01*
G04 #@! TO.N,GND*
X177800000Y-101600000D02*
X177800000Y-96520000D01*
X177800000Y-106680000D02*
X177800000Y-101600000D01*
X177800000Y-91440000D02*
X177800000Y-86360000D01*
X177800000Y-96520000D02*
X177800000Y-91440000D01*
G04 #@! TO.N,/nor1*
X172720000Y-90450051D02*
X172720000Y-86360000D01*
X172720000Y-91440000D02*
X172720000Y-90450051D01*
X170180000Y-85090000D02*
X170180000Y-83185000D01*
G04 #@! TO.N,/nand1*
X172720000Y-111760000D02*
X176285001Y-108194999D01*
X176285001Y-108194999D02*
X176285001Y-102625001D01*
X176285001Y-102625001D02*
X175959999Y-102299999D01*
X175959999Y-102299999D02*
X175260000Y-101600000D01*
G04 #@! TO.N,/and1*
X172720000Y-101600000D02*
X173745001Y-100574999D01*
X173745001Y-100574999D02*
X173745001Y-84210001D01*
G04 #@! TO.N,/b2*
X166370000Y-92710000D02*
X165100000Y-91440000D01*
X165100000Y-111760000D02*
X166614999Y-110245001D01*
X166614999Y-110245001D02*
X166614999Y-92954999D01*
X166370000Y-90170000D02*
X165100000Y-91440000D01*
X166614999Y-92954999D02*
X166370000Y-92710000D01*
G04 #@! TO.N,/a2*
X165100000Y-86360000D02*
X164074999Y-87385001D01*
X164074999Y-87385001D02*
X164074999Y-105654999D01*
X164074999Y-105654999D02*
X164400001Y-105980001D01*
X164400001Y-105980001D02*
X165100000Y-106680000D01*
G04 #@! TO.N,VCC*
X161045001Y-104384999D02*
X161045001Y-93735001D01*
X160719999Y-93409999D02*
X160020000Y-92710000D01*
X160020000Y-90170000D02*
X160020000Y-92710000D01*
X160020000Y-105410000D02*
X161045001Y-104384999D01*
X161045001Y-93735001D02*
X160719999Y-93409999D01*
X160020000Y-105410000D02*
X160020000Y-107950000D01*
G04 #@! TO.N,GND*
X167640000Y-101600000D02*
X167640000Y-96520000D01*
X167640000Y-106680000D02*
X167640000Y-101600000D01*
X167640000Y-91440000D02*
X167640000Y-86360000D01*
X167640000Y-96520000D02*
X167640000Y-91440000D01*
G04 #@! TO.N,/nor2*
X162560000Y-90450051D02*
X162560000Y-86360000D01*
X162560000Y-91440000D02*
X162560000Y-90450051D01*
G04 #@! TO.N,/nand2*
X162560000Y-111760000D02*
X166125001Y-108194999D01*
X166125001Y-108194999D02*
X166125001Y-102625001D01*
X166125001Y-102625001D02*
X165799999Y-102299999D01*
X165799999Y-102299999D02*
X165100000Y-101600000D01*
G04 #@! TO.N,/and2*
X162560000Y-101600000D02*
X163585001Y-100574999D01*
X163585001Y-100574999D02*
X163585001Y-84210001D01*
G04 #@! TO.N,/b3*
X156210000Y-92710000D02*
X154940000Y-91440000D01*
X154940000Y-111760000D02*
X156454999Y-110245001D01*
X156454999Y-110245001D02*
X156454999Y-92954999D01*
X156210000Y-90170000D02*
X154940000Y-91440000D01*
X156454999Y-92954999D02*
X156210000Y-92710000D01*
G04 #@! TO.N,/a3*
X154940000Y-86360000D02*
X153914999Y-87385001D01*
X153914999Y-87385001D02*
X153914999Y-105654999D01*
X153914999Y-105654999D02*
X154240001Y-105980001D01*
X154240001Y-105980001D02*
X154940000Y-106680000D01*
G04 #@! TO.N,VCC*
X150885001Y-104384999D02*
X150885001Y-93735001D01*
X150559999Y-93409999D02*
X149860000Y-92710000D01*
X149860000Y-90170000D02*
X149860000Y-92710000D01*
X149860000Y-105410000D02*
X150885001Y-104384999D01*
X150885001Y-93735001D02*
X150559999Y-93409999D01*
X149860000Y-105410000D02*
X149860000Y-107950000D01*
G04 #@! TO.N,GND*
X157480000Y-101600000D02*
X157480000Y-96520000D01*
X157480000Y-106680000D02*
X157480000Y-101600000D01*
X157480000Y-91440000D02*
X157480000Y-86360000D01*
X157480000Y-96520000D02*
X157480000Y-91440000D01*
G04 #@! TO.N,/nor3*
X152400000Y-90450051D02*
X152400000Y-86360000D01*
X152400000Y-91440000D02*
X152400000Y-90450051D01*
X149860000Y-85090000D02*
X149860000Y-83185000D01*
G04 #@! TO.N,/nand3*
X152400000Y-111760000D02*
X155965001Y-108194999D01*
X155965001Y-108194999D02*
X155965001Y-102625001D01*
X155965001Y-102625001D02*
X155639999Y-102299999D01*
X155639999Y-102299999D02*
X154940000Y-101600000D01*
G04 #@! TO.N,/and3*
X152400000Y-101600000D02*
X153425001Y-100574999D01*
X153425001Y-100574999D02*
X153425001Y-84210001D01*
G04 #@! TO.N,/b4*
X146050000Y-92710000D02*
X144780000Y-91440000D01*
X144780000Y-111760000D02*
X146294999Y-110245001D01*
X146294999Y-110245001D02*
X146294999Y-92954999D01*
X146050000Y-90170000D02*
X144780000Y-91440000D01*
X146294999Y-92954999D02*
X146050000Y-92710000D01*
G04 #@! TO.N,/a4*
X144780000Y-86360000D02*
X143754999Y-87385001D01*
X143754999Y-87385001D02*
X143754999Y-105654999D01*
X143754999Y-105654999D02*
X144080001Y-105980001D01*
X144080001Y-105980001D02*
X144780000Y-106680000D01*
G04 #@! TO.N,VCC*
X140725001Y-104384999D02*
X140725001Y-93735001D01*
X140399999Y-93409999D02*
X139700000Y-92710000D01*
X139700000Y-90170000D02*
X139700000Y-92710000D01*
X139700000Y-105410000D02*
X140725001Y-104384999D01*
X140725001Y-93735001D02*
X140399999Y-93409999D01*
X139700000Y-105410000D02*
X139700000Y-107950000D01*
G04 #@! TO.N,GND*
X147320000Y-101600000D02*
X147320000Y-96520000D01*
X147320000Y-106680000D02*
X147320000Y-101600000D01*
X147320000Y-91440000D02*
X147320000Y-86360000D01*
X147320000Y-96520000D02*
X147320000Y-91440000D01*
G04 #@! TO.N,/nor4*
X142240000Y-90450051D02*
X142240000Y-86360000D01*
X142240000Y-91440000D02*
X142240000Y-90450051D01*
X139700000Y-85090000D02*
X139700000Y-83185000D01*
G04 #@! TO.N,/nand4*
X142240000Y-111760000D02*
X145805001Y-108194999D01*
X145805001Y-108194999D02*
X145805001Y-102625001D01*
X145805001Y-102625001D02*
X145479999Y-102299999D01*
X145479999Y-102299999D02*
X144780000Y-101600000D01*
G04 #@! TO.N,/and4*
X142240000Y-101600000D02*
X143265001Y-100574999D01*
X143265001Y-100574999D02*
X143265001Y-84210001D01*
G04 #@! TO.N,/b5*
X135890000Y-92710000D02*
X134620000Y-91440000D01*
X134620000Y-111760000D02*
X136134999Y-110245001D01*
X136134999Y-110245001D02*
X136134999Y-92954999D01*
X135890000Y-90170000D02*
X134620000Y-91440000D01*
X136134999Y-92954999D02*
X135890000Y-92710000D01*
G04 #@! TO.N,/a5*
X134620000Y-86360000D02*
X133594999Y-87385001D01*
X133594999Y-87385001D02*
X133594999Y-105654999D01*
X133594999Y-105654999D02*
X133920001Y-105980001D01*
X133920001Y-105980001D02*
X134620000Y-106680000D01*
G04 #@! TO.N,VCC*
X130565001Y-104384999D02*
X130565001Y-93735001D01*
X130239999Y-93409999D02*
X129540000Y-92710000D01*
X129540000Y-90170000D02*
X129540000Y-92710000D01*
X129540000Y-105410000D02*
X130565001Y-104384999D01*
X130565001Y-93735001D02*
X130239999Y-93409999D01*
X129540000Y-105410000D02*
X129540000Y-107950000D01*
G04 #@! TO.N,GND*
X137160000Y-101600000D02*
X137160000Y-96520000D01*
X137160000Y-106680000D02*
X137160000Y-101600000D01*
X137160000Y-91440000D02*
X137160000Y-86360000D01*
X137160000Y-96520000D02*
X137160000Y-91440000D01*
G04 #@! TO.N,/nor5*
X132080000Y-90450051D02*
X132080000Y-86360000D01*
X132080000Y-91440000D02*
X132080000Y-90450051D01*
G04 #@! TO.N,/nand5*
X132080000Y-111760000D02*
X135645001Y-108194999D01*
X135645001Y-108194999D02*
X135645001Y-102625001D01*
X135645001Y-102625001D02*
X135319999Y-102299999D01*
X135319999Y-102299999D02*
X134620000Y-101600000D01*
G04 #@! TO.N,/and5*
X132080000Y-101600000D02*
X133105001Y-100574999D01*
X133105001Y-100574999D02*
X133105001Y-84210001D01*
G04 #@! TO.N,/b6*
X125730000Y-92710000D02*
X124460000Y-91440000D01*
X124460000Y-111760000D02*
X125974999Y-110245001D01*
X125974999Y-110245001D02*
X125974999Y-92954999D01*
X125974999Y-92954999D02*
X125730000Y-92710000D01*
G04 #@! TO.N,/a6*
X124460000Y-86360000D02*
X123434999Y-87385001D01*
X123434999Y-87385001D02*
X123434999Y-105654999D01*
X123434999Y-105654999D02*
X123760001Y-105980001D01*
X123760001Y-105980001D02*
X124460000Y-106680000D01*
G04 #@! TO.N,VCC*
X120405001Y-104384999D02*
X120405001Y-93735001D01*
X120079999Y-93409999D02*
X119380000Y-92710000D01*
X119380000Y-90170000D02*
X119380000Y-92710000D01*
X119380000Y-105410000D02*
X120405001Y-104384999D01*
X120405001Y-93735001D02*
X120079999Y-93409999D01*
X119380000Y-105410000D02*
X119380000Y-107950000D01*
G04 #@! TO.N,GND*
X127000000Y-101600000D02*
X127000000Y-96520000D01*
X127000000Y-106680000D02*
X127000000Y-101600000D01*
X127000000Y-91440000D02*
X127000000Y-86360000D01*
X127000000Y-96520000D02*
X127000000Y-91440000D01*
G04 #@! TO.N,/nor6*
X121920000Y-90450051D02*
X121920000Y-86360000D01*
X121920000Y-91440000D02*
X121920000Y-90450051D01*
G04 #@! TO.N,/nand6*
X121920000Y-111760000D02*
X125485001Y-108194999D01*
X125485001Y-108194999D02*
X125485001Y-102625001D01*
X125485001Y-102625001D02*
X125159999Y-102299999D01*
X125159999Y-102299999D02*
X124460000Y-101600000D01*
G04 #@! TO.N,/and6*
X121920000Y-101600000D02*
X122945001Y-100574999D01*
X122945001Y-100574999D02*
X122945001Y-84210001D01*
G04 #@! TO.N,/a7*
X81280000Y-45720000D02*
X81280000Y-64897000D01*
X81280000Y-65214500D02*
X81280000Y-64897000D01*
G04 #@! TO.N,/a6*
X83820000Y-61404500D02*
X83820000Y-45720000D01*
G04 #@! TO.N,/a5*
X86360000Y-45720000D02*
X86360000Y-64897000D01*
X86360000Y-65214500D02*
X86360000Y-64897000D01*
G04 #@! TO.N,/a4*
X88900000Y-61404500D02*
X88900000Y-45720000D01*
G04 #@! TO.N,/a3*
X91440000Y-45720000D02*
X91440000Y-64897000D01*
X91440000Y-65214500D02*
X91440000Y-64897000D01*
G04 #@! TO.N,/a2*
X93980000Y-61404500D02*
X93980000Y-45720000D01*
G04 #@! TO.N,/a1*
X96520000Y-45720000D02*
X96520000Y-64897000D01*
X96520000Y-65214500D02*
X96520000Y-64897000D01*
G04 #@! TO.N,/a0*
X99060000Y-61404500D02*
X99060000Y-45720000D01*
G04 #@! TO.N,/b7*
X104140000Y-45720000D02*
X104140000Y-64897000D01*
X104140000Y-65214500D02*
X104140000Y-64897000D01*
G04 #@! TO.N,/b6*
X106680000Y-61404500D02*
X106680000Y-45720000D01*
G04 #@! TO.N,/b5*
X109220000Y-45720000D02*
X109220000Y-64897000D01*
X109220000Y-65214500D02*
X109220000Y-64897000D01*
G04 #@! TO.N,/b4*
X111760000Y-61404500D02*
X111760000Y-45720000D01*
G04 #@! TO.N,/b3*
X114300000Y-45720000D02*
X114300000Y-64897000D01*
X114300000Y-65214500D02*
X114300000Y-64897000D01*
G04 #@! TO.N,/b2*
X116840000Y-61404500D02*
X116840000Y-45720000D01*
G04 #@! TO.N,/b1*
X119380000Y-45720000D02*
X119380000Y-64897000D01*
X119380000Y-65214500D02*
X119380000Y-64897000D01*
G04 #@! TO.N,/b0*
X121920000Y-61404500D02*
X121920000Y-45720000D01*
G04 #@! TO.N,/nor7*
X127000000Y-45720000D02*
X127000000Y-64897000D01*
X127000000Y-65214500D02*
X127000000Y-64897000D01*
G04 #@! TO.N,/nor6*
X129540000Y-61404500D02*
X129540000Y-45720000D01*
G04 #@! TO.N,/nor5*
X132080000Y-45720000D02*
X132080000Y-64897000D01*
X132080000Y-65214500D02*
X132080000Y-64897000D01*
G04 #@! TO.N,/nor4*
X134620000Y-61404500D02*
X134620000Y-45720000D01*
G04 #@! TO.N,/nor3*
X137160000Y-45720000D02*
X137160000Y-64897000D01*
X137160000Y-65214500D02*
X137160000Y-64897000D01*
G04 #@! TO.N,/nor2*
X139700000Y-61404500D02*
X139700000Y-45720000D01*
G04 #@! TO.N,/nor1*
X142240000Y-45720000D02*
X142240000Y-64897000D01*
X142240000Y-65214500D02*
X142240000Y-64897000D01*
G04 #@! TO.N,/nor0*
X144780000Y-61404500D02*
X144780000Y-45720000D01*
G04 #@! TO.N,/nand7*
X149860000Y-45720000D02*
X149860000Y-64897000D01*
X149860000Y-65214500D02*
X149860000Y-64897000D01*
G04 #@! TO.N,/nand6*
X152400000Y-61404500D02*
X152400000Y-45720000D01*
G04 #@! TO.N,/nand5*
X154940000Y-45720000D02*
X154940000Y-64897000D01*
X154940000Y-65214500D02*
X154940000Y-64897000D01*
G04 #@! TO.N,/nand4*
X157480000Y-61404500D02*
X157480000Y-45720000D01*
G04 #@! TO.N,/nand3*
X160020000Y-45720000D02*
X160020000Y-64897000D01*
X160020000Y-65214500D02*
X160020000Y-64897000D01*
G04 #@! TO.N,/nand2*
X162560000Y-61404500D02*
X162560000Y-45720000D01*
G04 #@! TO.N,/nand1*
X165100000Y-45720000D02*
X165100000Y-64897000D01*
X165100000Y-65214500D02*
X165100000Y-64897000D01*
G04 #@! TO.N,/nand0*
X167640000Y-61404500D02*
X167640000Y-45720000D01*
G04 #@! TO.N,/and7*
X172720000Y-45720000D02*
X172720000Y-64897000D01*
X172720000Y-65214500D02*
X172720000Y-64897000D01*
G04 #@! TO.N,/and6*
X175260000Y-61404500D02*
X175260000Y-45720000D01*
G04 #@! TO.N,/and5*
X177800000Y-45720000D02*
X177800000Y-64897000D01*
X177800000Y-65214500D02*
X177800000Y-64897000D01*
G04 #@! TO.N,/and4*
X180340000Y-61404500D02*
X180340000Y-45720000D01*
G04 #@! TO.N,/and3*
X182880000Y-45720000D02*
X182880000Y-64897000D01*
X182880000Y-65214500D02*
X182880000Y-64897000D01*
G04 #@! TO.N,/and2*
X185420000Y-61404500D02*
X185420000Y-45720000D01*
G04 #@! TO.N,/and1*
X187960000Y-45720000D02*
X187960000Y-64897000D01*
X187960000Y-65214500D02*
X187960000Y-64897000D01*
G04 #@! TO.N,/and0*
X190500000Y-61404500D02*
X190500000Y-45720000D01*
G04 #@! TO.N,/or7*
X195580000Y-45720000D02*
X195580000Y-64897000D01*
X195580000Y-65214500D02*
X195580000Y-64897000D01*
G04 #@! TO.N,/or6*
X198120000Y-61404500D02*
X198120000Y-45720000D01*
G04 #@! TO.N,/or5*
X200660000Y-45720000D02*
X200660000Y-64897000D01*
X200660000Y-65214500D02*
X200660000Y-64897000D01*
G04 #@! TO.N,/or4*
X203200000Y-61404500D02*
X203200000Y-45720000D01*
G04 #@! TO.N,/or3*
X205740000Y-45720000D02*
X205740000Y-64897000D01*
X205740000Y-65214500D02*
X205740000Y-64897000D01*
G04 #@! TO.N,/or2*
X208280000Y-61404500D02*
X208280000Y-45720000D01*
G04 #@! TO.N,/b0*
X186690000Y-90170000D02*
X186690000Y-83185000D01*
X121920000Y-74930000D02*
X121920000Y-74295000D01*
X186690000Y-83185000D02*
X186690000Y-80645000D01*
X121920000Y-71755000D02*
X121920000Y-74295000D01*
X81280000Y-103505000D02*
X81280000Y-99060000D01*
X81915000Y-104140000D02*
X81280000Y-103505000D01*
X105410000Y-71755000D02*
X105410000Y-103505000D01*
X104775000Y-104140000D02*
X81915000Y-104140000D01*
X105410000Y-103505000D02*
X104775000Y-104140000D01*
X121920000Y-61404500D02*
X121920000Y-71755000D01*
G04 #@! TO.N,/b1*
X176530000Y-90170000D02*
X176530000Y-82550000D01*
X176530000Y-82550000D02*
X176530000Y-81280000D01*
X83820000Y-102870000D02*
X83820000Y-99060000D01*
X84455000Y-103505000D02*
X83820000Y-102870000D01*
X104140000Y-103505000D02*
X84455000Y-103505000D01*
X104775000Y-74930000D02*
X104775000Y-102870000D01*
X104775000Y-102870000D02*
X104140000Y-103505000D01*
X119380000Y-65214500D02*
X119380000Y-74930000D01*
G04 #@! TO.N,/b2*
X166370000Y-90170000D02*
X166370000Y-81915000D01*
X86360000Y-102235000D02*
X86360000Y-99060000D01*
X86995000Y-102870000D02*
X86360000Y-102235000D01*
X102870000Y-102870000D02*
X86995000Y-102870000D01*
X103505000Y-75565000D02*
X103505000Y-102235000D01*
X103505000Y-102235000D02*
X102870000Y-102870000D01*
X116840000Y-61404500D02*
X116840000Y-75565000D01*
G04 #@! TO.N,/b3*
X156210000Y-90170000D02*
X156210000Y-81280000D01*
X88900000Y-101600000D02*
X88900000Y-99060000D01*
X89535000Y-102235000D02*
X88900000Y-101600000D01*
X102235000Y-102235000D02*
X89535000Y-102235000D01*
X102870000Y-76200000D02*
X102870000Y-101600000D01*
X102870000Y-101600000D02*
X102235000Y-102235000D01*
X114300000Y-65214500D02*
X114300000Y-76200000D01*
G04 #@! TO.N,/b4*
X146050000Y-90170000D02*
X146050000Y-80645000D01*
X102235000Y-76835000D02*
X102235000Y-100965000D01*
X102235000Y-100965000D02*
X101600000Y-101600000D01*
X101600000Y-101600000D02*
X92075000Y-101600000D01*
X91440000Y-100965000D02*
X91440000Y-99060000D01*
X92075000Y-101600000D02*
X91440000Y-100965000D01*
X111760000Y-61404500D02*
X111760000Y-76835000D01*
G04 #@! TO.N,/b5*
X135890000Y-90170000D02*
X135890000Y-80010000D01*
X93980000Y-100330000D02*
X93980000Y-99060000D01*
X94615000Y-100965000D02*
X93980000Y-100330000D01*
X100965000Y-100965000D02*
X94615000Y-100965000D01*
X101600000Y-77470000D02*
X101600000Y-100330000D01*
X101600000Y-100330000D02*
X100965000Y-100965000D01*
X109220000Y-65214500D02*
X109220000Y-77470000D01*
G04 #@! TO.N,/b6*
X125730000Y-90170000D02*
X124460000Y-91440000D01*
X125730000Y-79375000D02*
X125730000Y-90170000D01*
X100330000Y-100330000D02*
X97155000Y-100330000D01*
X100965000Y-78105000D02*
X100965000Y-99695000D01*
X96520000Y-99695000D02*
X96520000Y-99060000D01*
X97155000Y-100330000D02*
X96520000Y-99695000D01*
X100965000Y-99695000D02*
X100330000Y-100330000D01*
X106680000Y-61404500D02*
X106680000Y-78105000D01*
X125730000Y-79375000D02*
X125730000Y-78740000D01*
G04 #@! TO.N,/b7*
X115570000Y-92710000D02*
X114300000Y-91440000D01*
X115814999Y-92954999D02*
X115570000Y-92710000D01*
X115814999Y-110245001D02*
X115814999Y-92954999D01*
X114300000Y-111760000D02*
X115814999Y-110245001D01*
X115570000Y-90170000D02*
X114300000Y-91440000D01*
X104140000Y-68580000D02*
X104140000Y-78740000D01*
X115570000Y-78740000D02*
X115570000Y-79375000D01*
X115570000Y-79375000D02*
X115570000Y-90170000D01*
X100330000Y-97790000D02*
X99060000Y-99060000D01*
X100330000Y-78740000D02*
X100330000Y-97790000D01*
X104140000Y-68580000D02*
X104140000Y-65214500D01*
G04 #@! TO.N,/a0*
X185420000Y-86360000D02*
X185420000Y-83820000D01*
X185420000Y-83820000D02*
X185420000Y-82550000D01*
X99060000Y-79375000D02*
X99060000Y-86360000D01*
X99060000Y-61404500D02*
X99060000Y-79375000D01*
G04 #@! TO.N,/a1*
X175260000Y-86360000D02*
X175260000Y-83820000D01*
X175260000Y-83820000D02*
X175260000Y-83185000D01*
X96520000Y-86360000D02*
X96520000Y-80010000D01*
X96520000Y-65214500D02*
X96520000Y-80010000D01*
G04 #@! TO.N,/a2*
X165100000Y-86360000D02*
X165100000Y-83820000D01*
X93980000Y-86360000D02*
X93980000Y-80645000D01*
X93980000Y-61404500D02*
X93980000Y-80645000D01*
G04 #@! TO.N,/a3*
X154940000Y-86360000D02*
X154940000Y-85370051D01*
X154940000Y-85370051D02*
X154940000Y-83820000D01*
X91440000Y-86360000D02*
X91440000Y-81280000D01*
X91440000Y-65214500D02*
X91440000Y-81280000D01*
G04 #@! TO.N,/a4*
X144780000Y-86360000D02*
X144780000Y-83820000D01*
X88900000Y-86360000D02*
X88900000Y-81915000D01*
X88900000Y-61404500D02*
X88900000Y-81915000D01*
G04 #@! TO.N,/a5*
X134620000Y-86360000D02*
X134620000Y-83820000D01*
X86360000Y-86360000D02*
X86360000Y-82550000D01*
X86360000Y-65214500D02*
X86360000Y-82550000D01*
G04 #@! TO.N,/a6*
X124460000Y-86360000D02*
X124460000Y-83820000D01*
X83820000Y-85370051D02*
X83820000Y-83185000D01*
X83820000Y-86360000D02*
X83820000Y-85370051D01*
X83820000Y-73025000D02*
X83820000Y-83185000D01*
X83820000Y-61404500D02*
X83820000Y-66675000D01*
X84455000Y-72390000D02*
X84455000Y-67310000D01*
X84455000Y-67310000D02*
X83820000Y-66675000D01*
X83820000Y-73025000D02*
X84455000Y-72390000D01*
G04 #@! TO.N,/a7*
X114300000Y-86360000D02*
X113274999Y-87385001D01*
X113274999Y-87385001D02*
X113274999Y-105654999D01*
X113274999Y-105654999D02*
X113600001Y-105980001D01*
X113600001Y-105980001D02*
X114300000Y-106680000D01*
X114300000Y-83820000D02*
X114300000Y-86360000D01*
X81280000Y-85370051D02*
X81280000Y-83820000D01*
X81280000Y-86360000D02*
X81280000Y-85370051D01*
X81280000Y-73660000D02*
X81280000Y-83820000D01*
X81280000Y-65214500D02*
X81280000Y-66040000D01*
X83820000Y-68580000D02*
X81280000Y-66040000D01*
X83820000Y-71120000D02*
X83820000Y-68580000D01*
X81280000Y-73660000D02*
X83820000Y-71120000D01*
G04 #@! TO.N,VCC*
X109919999Y-93409999D02*
X109220000Y-92710000D01*
X110245001Y-93735001D02*
X109919999Y-93409999D01*
X109220000Y-105410000D02*
X110245001Y-104384999D01*
X110245001Y-104384999D02*
X110245001Y-93735001D01*
X109220000Y-90170000D02*
X109220000Y-92710000D01*
X109220000Y-105410000D02*
X109220000Y-107950000D01*
G04 #@! TO.N,GND*
X116840000Y-101600000D02*
X116840000Y-96520000D01*
X116840000Y-91440000D02*
X116840000Y-86360000D01*
X116840000Y-96520000D02*
X116840000Y-91440000D01*
X116840000Y-106680000D02*
X116840000Y-101600000D01*
X215900000Y-55880000D02*
X218440000Y-55880000D01*
G04 #@! TO.N,/nor0*
X180340000Y-82550000D02*
X180340000Y-83185000D01*
X144780000Y-75565000D02*
X144780000Y-71120000D01*
X180340000Y-82550000D02*
X180340000Y-79375000D01*
X144780000Y-71120000D02*
X144780000Y-61404500D01*
G04 #@! TO.N,/nand0*
X167640000Y-69850000D02*
X167640000Y-78105000D01*
X181854999Y-82550000D02*
X181854999Y-82159999D01*
X181854999Y-83575001D02*
X181854999Y-82550000D01*
X181854999Y-82159999D02*
X181854999Y-80889999D01*
X181854999Y-80889999D02*
X181854999Y-78349999D01*
X181854999Y-78349999D02*
X181610000Y-78105000D01*
X167640000Y-69850000D02*
X167640000Y-61404500D01*
G04 #@! TO.N,/and0*
X183905001Y-84210001D02*
X183905001Y-83820000D01*
X183905001Y-78349999D02*
X184150000Y-78105000D01*
X183905001Y-83185000D02*
X183905001Y-78349999D01*
X183905001Y-83820000D02*
X183905001Y-83185000D01*
X190500000Y-67945000D02*
X190500000Y-61404500D01*
X190500000Y-78105000D02*
X190500000Y-67945000D01*
G04 #@! TO.N,/or0*
X213360000Y-61404500D02*
X213360000Y-45720000D01*
X180340000Y-97790000D02*
X180340000Y-96800051D01*
X180340000Y-96800051D02*
X179314999Y-95775050D01*
X179314999Y-95775050D02*
X179314999Y-76200000D01*
X179314999Y-72145001D02*
X179705000Y-71755000D01*
X179314999Y-75565000D02*
X179314999Y-72145001D01*
X179314999Y-76200000D02*
X179314999Y-75565000D01*
X213360000Y-71755000D02*
X213360000Y-61404500D01*
G04 #@! TO.N,/nor1*
X170180000Y-81280000D02*
X170180000Y-83185000D01*
X142240000Y-74930000D02*
X142240000Y-71755000D01*
X170180000Y-81280000D02*
X170180000Y-80010000D01*
X142240000Y-71755000D02*
X142240000Y-65214500D01*
G04 #@! TO.N,/nand1*
X171694999Y-110734999D02*
X172720000Y-111760000D01*
X165100000Y-70485000D02*
X165100000Y-78740000D01*
X171694999Y-80645000D02*
X171694999Y-110734999D01*
X171694999Y-80645000D02*
X171694999Y-80254999D01*
X171694999Y-80254999D02*
X171694999Y-78984999D01*
X171694999Y-78984999D02*
X171450000Y-78740000D01*
X165100000Y-70485000D02*
X165100000Y-65214500D01*
G04 #@! TO.N,/and1*
X173745001Y-81280000D02*
X173745001Y-80254999D01*
X173745001Y-84210001D02*
X173745001Y-81280000D01*
X173745001Y-80254999D02*
X173745001Y-78740000D01*
X173745001Y-78740000D02*
X173745001Y-77714999D01*
X173745001Y-77714999D02*
X173990000Y-77470000D01*
X187960000Y-77470000D02*
X187960000Y-65214500D01*
G04 #@! TO.N,/or1*
X210820000Y-65214500D02*
X210820000Y-64897000D01*
X210820000Y-45720000D02*
X210820000Y-64897000D01*
X170180000Y-97790000D02*
X170180000Y-96800051D01*
X170180000Y-96800051D02*
X169154999Y-95775050D01*
X169154999Y-71510001D02*
X169545000Y-71120000D01*
X169154999Y-73660000D02*
X169154999Y-71510001D01*
X169154999Y-95775050D02*
X169154999Y-73660000D01*
X210820000Y-71120000D02*
X210820000Y-70485000D01*
X210820000Y-70485000D02*
X210820000Y-65214500D01*
G04 #@! TO.N,/nor2*
X160020000Y-85090000D02*
X160020000Y-80010000D01*
X139700000Y-68924998D02*
X139700000Y-61404500D01*
X139700000Y-74930000D02*
X139700000Y-68924998D01*
G04 #@! TO.N,/nand2*
X162560000Y-111760000D02*
X161534999Y-110734999D01*
X161534999Y-62429501D02*
X162560000Y-61404500D01*
X161534999Y-110734999D02*
X161534999Y-62429501D01*
G04 #@! TO.N,/and2*
X163585001Y-84210001D02*
X163585001Y-78740000D01*
X163585001Y-77079999D02*
X163830000Y-76835000D01*
X163585001Y-78105000D02*
X163585001Y-77079999D01*
X163585001Y-78740000D02*
X163585001Y-78105000D01*
X185420000Y-76835000D02*
X185420000Y-76200000D01*
X185420000Y-76200000D02*
X185420000Y-61404500D01*
G04 #@! TO.N,/or2*
X160020000Y-97790000D02*
X160020000Y-96800051D01*
X160020000Y-96800051D02*
X158994999Y-95775050D01*
X158994999Y-70875001D02*
X159385000Y-70485000D01*
X158994999Y-72390000D02*
X158994999Y-70875001D01*
X158994999Y-95775050D02*
X158994999Y-72390000D01*
X208280000Y-70485000D02*
X208280000Y-61404500D01*
G04 #@! TO.N,/nor3*
X149860000Y-78105000D02*
X149860000Y-83185000D01*
X137160000Y-75565000D02*
X137160000Y-73025000D01*
X137160000Y-73025000D02*
X137160000Y-65214500D01*
G04 #@! TO.N,/nand3*
X152400000Y-111760000D02*
X151374999Y-110734999D01*
X151374999Y-77470000D02*
X151374999Y-76590001D01*
X151374999Y-76590001D02*
X152400000Y-75565000D01*
X151374999Y-110734999D02*
X151374999Y-77470000D01*
X160020000Y-75565000D02*
X160020000Y-65214500D01*
G04 #@! TO.N,/and3*
X153425001Y-84210001D02*
X153425001Y-78105000D01*
X153425001Y-78105000D02*
X153425001Y-76444999D01*
X153425001Y-76444999D02*
X153670000Y-76200000D01*
X182880000Y-76200000D02*
X182880000Y-65214500D01*
G04 #@! TO.N,/or3*
X205740000Y-69850000D02*
X205740000Y-69215000D01*
X205740000Y-69215000D02*
X205740000Y-65214500D01*
X149860000Y-96800051D02*
X148834999Y-95775050D01*
X149860000Y-97790000D02*
X149860000Y-96800051D01*
X148834999Y-71120000D02*
X148834999Y-70240001D01*
X148834999Y-70240001D02*
X149225000Y-69850000D01*
X148834999Y-95775050D02*
X148834999Y-71120000D01*
G04 #@! TO.N,/nor4*
X139700000Y-76200000D02*
X139700000Y-83185000D01*
X134620000Y-76200000D02*
X134620000Y-73660000D01*
X134620000Y-73660000D02*
X134620000Y-61404500D01*
G04 #@! TO.N,/nand4*
X142240000Y-111760000D02*
X141214999Y-110734999D01*
X141214999Y-74685001D02*
X141605000Y-74295000D01*
X141214999Y-75565000D02*
X141214999Y-74685001D01*
X141214999Y-110734999D02*
X141214999Y-75565000D01*
X157480000Y-69850000D02*
X157480000Y-61404500D01*
X157480000Y-74930000D02*
X157480000Y-69850000D01*
G04 #@! TO.N,/and4*
X143265001Y-71999999D02*
X143510000Y-71755000D01*
X143265001Y-73025000D02*
X143265001Y-71999999D01*
X143265001Y-84210001D02*
X143265001Y-73025000D01*
X180340000Y-73660000D02*
X180340000Y-71755000D01*
X180340000Y-71755000D02*
X180340000Y-61404500D01*
G04 #@! TO.N,/or4*
X139700000Y-97790000D02*
X139700000Y-96800051D01*
X139700000Y-96800051D02*
X138674999Y-95775050D01*
X138674999Y-69605001D02*
X138674999Y-69850000D01*
X139065000Y-69215000D02*
X138674999Y-69605001D01*
X138674999Y-95775050D02*
X138674999Y-69850000D01*
X203200000Y-69215000D02*
X203200000Y-61404500D01*
G04 #@! TO.N,/nor5*
X129540000Y-84100051D02*
X129540000Y-85090000D01*
X129540000Y-83963592D02*
X129540000Y-84100051D01*
X130175000Y-83328592D02*
X129540000Y-83963592D01*
X130175000Y-74930000D02*
X130175000Y-83328592D01*
X130175000Y-74930000D02*
X130175000Y-71120000D01*
X132080000Y-71120000D02*
X132080000Y-70485000D01*
X132080000Y-65214500D02*
X132080000Y-70485000D01*
G04 #@! TO.N,/nand5*
X132080000Y-111760000D02*
X131054999Y-110734999D01*
X131054999Y-74050001D02*
X131445000Y-73660000D01*
X131054999Y-74930000D02*
X131054999Y-74050001D01*
X131054999Y-110734999D02*
X131054999Y-74930000D01*
X154940000Y-69215000D02*
X154940000Y-65214500D01*
X154940000Y-74295000D02*
X154940000Y-69215000D01*
G04 #@! TO.N,/and5*
X133105001Y-71364999D02*
X133350000Y-71120000D01*
X133105001Y-72390000D02*
X133105001Y-71364999D01*
X133105001Y-84210001D02*
X133105001Y-72390000D01*
X177800000Y-73025000D02*
X177800000Y-71120000D01*
X177800000Y-71120000D02*
X177800000Y-65214500D01*
G04 #@! TO.N,/or5*
X129540000Y-97790000D02*
X129540000Y-96800051D01*
X129540000Y-96800051D02*
X128514999Y-95775050D01*
X128514999Y-68970001D02*
X128514999Y-69215000D01*
X128905000Y-68580000D02*
X128514999Y-68970001D01*
X128514999Y-95775050D02*
X128514999Y-69215000D01*
X200660000Y-68580000D02*
X200660000Y-65214500D01*
G04 #@! TO.N,/nor6*
X119380000Y-84100051D02*
X119380000Y-85090000D01*
X119380000Y-83963592D02*
X119380000Y-84100051D01*
X120015000Y-83328592D02*
X119380000Y-83963592D01*
X129540000Y-71755000D02*
X129540000Y-73025000D01*
X120015000Y-74295000D02*
X120015000Y-83328592D01*
X129540000Y-74295000D02*
X129540000Y-73025000D01*
X129540000Y-61404500D02*
X129540000Y-71755000D01*
G04 #@! TO.N,/nand6*
X121920000Y-111760000D02*
X120894999Y-110734999D01*
X120894999Y-73415001D02*
X121285000Y-73025000D01*
X120894999Y-74295000D02*
X120894999Y-73415001D01*
X120894999Y-110734999D02*
X120894999Y-74295000D01*
X152400000Y-68580000D02*
X152400000Y-61404500D01*
X152400000Y-73660000D02*
X152400000Y-68580000D01*
G04 #@! TO.N,/and6*
X122945001Y-70729999D02*
X123190000Y-70485000D01*
X122945001Y-71755000D02*
X122945001Y-70729999D01*
X122945001Y-84210001D02*
X122945001Y-71755000D01*
X175260000Y-72390000D02*
X175260000Y-70485000D01*
X175260000Y-70485000D02*
X175260000Y-61404500D01*
G04 #@! TO.N,/or6*
X119380000Y-97790000D02*
X119380000Y-96800051D01*
X119380000Y-96800051D02*
X118354999Y-95775050D01*
X118354999Y-68335001D02*
X118354999Y-68580000D01*
X118745000Y-67945000D02*
X118354999Y-68335001D01*
X118354999Y-95775050D02*
X118354999Y-68580000D01*
X198120000Y-67945000D02*
X198120000Y-61404500D01*
G04 #@! TO.N,/nor7*
X111760000Y-90450051D02*
X111760000Y-86360000D01*
X111760000Y-91440000D02*
X111760000Y-90450051D01*
X109220000Y-84100051D02*
X109220000Y-85090000D01*
X109855000Y-83328592D02*
X109220000Y-83963592D01*
X109220000Y-83963592D02*
X109220000Y-84100051D01*
X127000000Y-73660000D02*
X127000000Y-72390000D01*
X109855000Y-76835000D02*
X109855000Y-83328592D01*
X109855000Y-73914999D02*
X110109999Y-73660000D01*
X109855000Y-76835000D02*
X109855000Y-73914999D01*
X127000000Y-72390000D02*
X127000000Y-65214500D01*
G04 #@! TO.N,/nand7*
X115325001Y-102625001D02*
X114999999Y-102299999D01*
X115325001Y-108194999D02*
X115325001Y-102625001D01*
X114999999Y-102299999D02*
X114300000Y-101600000D01*
X111760000Y-111760000D02*
X115325001Y-108194999D01*
X111760000Y-111760000D02*
X110734999Y-110734999D01*
X110734999Y-72780001D02*
X111125000Y-72390000D01*
X110734999Y-73660000D02*
X110734999Y-72780001D01*
X110734999Y-110734999D02*
X110734999Y-73660000D01*
X149860000Y-67945000D02*
X149860000Y-65214500D01*
X149860000Y-73025000D02*
X149860000Y-67945000D01*
G04 #@! TO.N,/and7*
X111760000Y-101600000D02*
X112785001Y-100574999D01*
X112785001Y-100574999D02*
X112785001Y-84210001D01*
X112785001Y-71120000D02*
X112785001Y-70094999D01*
X112785001Y-70094999D02*
X113030000Y-69850000D01*
X112785001Y-84210001D02*
X112785001Y-71120000D01*
X172720000Y-69850000D02*
X172720000Y-65214500D01*
X172720000Y-71755000D02*
X172720000Y-69850000D01*
G04 #@! TO.N,/or7*
X109220000Y-97790000D02*
X109220000Y-96800051D01*
X109220000Y-96800051D02*
X108194999Y-95775050D01*
X108194999Y-67700001D02*
X108194999Y-67945000D01*
X108585000Y-67310000D02*
X108194999Y-67700001D01*
X108194999Y-95775050D02*
X108194999Y-67945000D01*
X195580000Y-67310000D02*
X195580000Y-65214500D01*
G04 #@! TD*
M02*
