M48
;DRILL file {KiCad (5.0.0-rc2-200-g1f6f76beb)} date Thu Jul 19 02:54:10 2018
;FORMAT={-:-/ absolute / inch / decimal}
FMAT,2
INCH,TZ
T1C0.0157
T2C0.0276
T3C0.0300
T4C0.0394
T5C0.0866
%
G90
G05
M72
T1
X3.2Y-2.5675
X3.2Y-3.3
X3.3Y-2.4175
X3.3Y-3.275
X3.4Y-2.5675
X3.4Y-3.25
X3.5Y-2.4175
X3.5Y-3.225
X3.6Y-2.5675
X3.6Y-3.2
X3.7Y-2.4175
X3.7Y-3.175
X3.8Y-2.5675
X3.8Y-3.15
X3.9Y-2.4175
X3.9Y-3.125
X3.95Y-3.1
X3.975Y-3.075
X4.Y-3.05
X4.025Y-3.025
X4.05Y-3.
X4.075Y-2.975
X4.1Y-2.5675
X4.1Y-3.1
X4.125Y-2.95
X4.15Y-2.825
X4.2Y-2.4175
X4.2Y-3.075
X4.275Y-2.65
X4.3Y-2.5675
X4.3Y-3.05
X4.335Y-2.9
X4.375Y-2.85
X4.4Y-2.4175
X4.4Y-3.025
X4.45Y-2.75
X4.5Y-2.5675
X4.5Y-3.
X4.5Y-3.3
X4.55Y-3.1
X4.6Y-2.4175
X4.6Y-2.975
X4.675Y-2.675
X4.7Y-2.5675
X4.7Y-2.95
X4.725Y-2.925
X4.775Y-2.875
X4.8Y-2.4175
X4.8Y-2.825
X4.8Y-2.95
X4.85Y-2.775
X4.9Y-3.3
X4.95Y-3.1
X5.Y-2.5675
X5.Y-2.9
X5.075Y-2.7
X5.1Y-2.4175
X5.1Y-2.925
X5.125Y-2.8
X5.175Y-2.9
X5.2Y-2.5675
X5.2Y-2.8
X5.25Y-2.8
X5.3Y-2.4175
X5.3Y-3.
X5.3Y-3.3
X5.35Y-3.15
X5.4Y-2.5675
X5.4Y-2.975
X5.475Y-2.725
X5.5Y-2.4175
X5.5Y-2.95
X5.5Y-3.
X5.575Y-2.925
X5.6Y-2.5675
X5.6Y-2.95
X5.65Y-2.825
X5.7Y-2.4175
X5.7Y-2.975
X5.7Y-3.3
X5.75Y-3.175
X5.875Y-2.75
X5.9Y-2.5675
X5.9Y-2.875
X5.9Y-3.075
X6.Y-2.4175
X6.Y-2.9
X6.Y-2.975
X6.05Y-3.
X6.1Y-2.5675
X6.1Y-2.925
X6.1Y-3.3
X6.15Y-3.2
X6.2Y-2.4175
X6.2Y-2.95
X6.275Y-2.775
X6.3Y-2.5675
X6.3Y-2.975
X6.3Y-3.15
X6.4Y-2.4175
X6.45Y-3.025
X6.5Y-2.5675
X6.5Y-3.1
X6.5Y-3.3
X6.55Y-3.225
X6.6Y-2.4175
X6.6Y-3.075
X6.675Y-2.8
X6.7Y-3.15
X6.75Y-3.1
X6.8Y-2.5675
X6.8Y-2.825
X6.85Y-3.05
X6.9Y-2.4175
X6.9Y-2.85
X6.9Y-3.275
X6.95Y-3.2
X7.Y-2.5675
X7.Y-2.875
X7.075Y-2.825
X7.1Y-2.4175
X7.1Y-2.9
X7.1Y-3.125
X7.15Y-3.075
X7.2Y-2.5675
X7.2Y-3.
X7.25Y-3.075
X7.3Y-2.4175
X7.3Y-3.025
X7.3Y-3.25
X7.35Y-3.175
X7.4Y-2.5675
X7.4Y-3.05
X7.5Y-2.4175
X7.5Y-3.075
X7.7Y-2.5675
X7.7Y-2.65
X7.8Y-2.4175
X7.8Y-2.675
X7.9Y-2.5675
X7.9Y-2.7
X8.Y-2.4175
X8.Y-2.725
X8.1Y-2.5675
X8.1Y-2.75
X8.2Y-2.4175
X8.2Y-2.775
X8.3Y-2.5675
X8.3Y-2.8
X8.4Y-2.4175
X8.4Y-2.825
T2
X4.3Y-3.95
X4.3Y-4.15
X3.2Y-3.7
X3.2Y-3.9
X6.8Y-4.
X6.9Y-4.
X7.Y-4.
X4.1Y-1.7
X4.1Y-1.8
X4.2Y-1.7
X4.2Y-1.8
X4.3Y-1.7
X4.3Y-1.8
X4.4Y-1.7
X4.4Y-1.8
X4.5Y-1.7
X4.5Y-1.8
X4.6Y-1.7
X4.6Y-1.8
X4.7Y-1.7
X4.7Y-1.8
X4.8Y-1.7
X4.8Y-1.8
X7.1Y-3.65
X7.1Y-3.85
X6.Y-4.2
X6.1Y-4.2
X6.2Y-4.2
X4.7Y-4.25
X4.7Y-4.45
X6.4Y-4.4
X6.5Y-4.4
X6.6Y-4.4
X4.7Y-3.35
X4.7Y-3.55
X5.Y-1.7
X5.Y-1.8
X5.1Y-1.7
X5.1Y-1.8
X5.2Y-1.7
X5.2Y-1.8
X5.3Y-1.7
X5.3Y-1.8
X5.4Y-1.7
X5.4Y-1.8
X5.5Y-1.7
X5.5Y-1.8
X5.6Y-1.7
X5.6Y-1.8
X5.7Y-1.7
X5.7Y-1.8
X4.3Y-4.25
X4.3Y-4.45
X4.4Y-4.
X4.5Y-4.
X4.6Y-4.
X3.2Y-3.4
X3.2Y-3.6
X4.3Y-3.65
X4.3Y-3.85
X6.8Y-1.7
X6.8Y-1.8
X6.9Y-1.7
X6.9Y-1.8
X7.Y-1.7
X7.Y-1.8
X7.1Y-1.7
X7.1Y-1.8
X7.2Y-1.7
X7.2Y-1.8
X7.3Y-1.7
X7.3Y-1.8
X7.4Y-1.7
X7.4Y-1.8
X7.5Y-1.7
X7.5Y-1.8
X5.1Y-3.65
X5.1Y-3.85
X6.3Y-3.35
X6.3Y-3.55
X7.2Y-4.
X7.3Y-4.
X7.4Y-4.
X5.1Y-3.35
X5.1Y-3.55
X5.5Y-3.65
X5.5Y-3.85
X6.4Y-3.8
X6.5Y-3.8
X6.6Y-3.8
X3.9Y-3.4
X3.9Y-3.6
X4.3Y-3.35
X4.3Y-3.55
X6.4Y-3.4
X6.5Y-3.4
X6.6Y-3.4
X5.6Y-3.6
X5.7Y-3.6
X5.8Y-3.6
X5.6Y-3.8
X5.7Y-3.8
X5.8Y-3.8
X3.6Y-3.4
X3.6Y-3.6
X6.8Y-4.2
X6.9Y-4.2
X7.Y-4.2
X6.Y-3.6
X6.1Y-3.6
X6.2Y-3.6
X7.2Y-3.8
X7.3Y-3.8
X7.4Y-3.8
X6.4Y-4.2
X6.5Y-4.2
X6.6Y-4.2
X4.4Y-3.8
X4.5Y-3.8
X4.6Y-3.8
X4.8Y-4.4
X4.9Y-4.4
X5.Y-4.4
X6.3Y-3.95
X6.3Y-4.15
X3.3Y-3.7
X3.3Y-3.9
X3.6Y-3.7
X3.6Y-3.9
X6.3Y-4.25
X6.3Y-4.45
X5.9Y-3.35
X5.9Y-3.55
X3.3Y-3.4
X3.3Y-3.6
X3.9Y-3.7
X3.9Y-3.9
X6.8Y-3.8
X6.9Y-3.8
X7.Y-3.8
X6.8Y-3.6
X6.9Y-3.6
X7.Y-3.6
X5.1Y-4.25
X5.1Y-4.45
X7.1Y-3.95
X7.1Y-4.15
X3.2Y-1.7
X3.2Y-1.8
X3.3Y-1.7
X3.3Y-1.8
X3.4Y-1.7
X3.4Y-1.8
X3.5Y-1.7
X3.5Y-1.8
X3.6Y-1.7
X3.6Y-1.8
X3.7Y-1.7
X3.7Y-1.8
X3.8Y-1.7
X3.8Y-1.8
X3.9Y-1.7
X3.9Y-1.8
X5.6Y-4.2
X5.7Y-4.2
X5.8Y-4.2
X3.8Y-3.4
X3.8Y-3.6
X6.7Y-4.25
X6.7Y-4.45
X5.2Y-3.6
X5.3Y-3.6
X5.4Y-3.6
X6.7Y-3.35
X6.7Y-3.55
X3.4Y-3.7
X3.4Y-3.9
X7.1Y-4.25
X7.1Y-4.45
X7.2Y-3.6
X7.3Y-3.6
X7.4Y-3.6
X3.5Y-3.4
X3.5Y-3.6
X7.1Y-3.35
X7.1Y-3.55
X6.Y-4.
X6.1Y-4.
X6.2Y-4.
X7.2Y-4.4
X7.3Y-4.4
X7.4Y-4.4
X4.4Y-3.4
X4.5Y-3.4
X4.6Y-3.4
X5.9Y-3.95
X5.9Y-4.15
X7.7Y-1.7
X7.7Y-1.8
X7.8Y-1.7
X7.8Y-1.8
X7.9Y-1.7
X7.9Y-1.8
X8.Y-1.7
X8.Y-1.8
X8.1Y-1.7
X8.1Y-1.8
X8.2Y-1.7
X8.2Y-1.8
X8.3Y-1.7
X8.3Y-1.8
X8.4Y-1.7
X8.4Y-1.8
X5.2Y-4.4
X5.3Y-4.4
X5.4Y-4.4
X3.4Y-3.4
X3.4Y-3.6
X5.2Y-3.4
X5.3Y-3.4
X5.4Y-3.4
X3.7Y-3.7
X3.7Y-3.9
X3.7Y-3.4
X3.7Y-3.6
X6.3Y-3.65
X6.3Y-3.85
X6.4Y-4.
X6.5Y-4.
X6.6Y-4.
X5.2Y-3.8
X5.3Y-3.8
X5.4Y-3.8
X6.8Y-3.4
X6.9Y-3.4
X7.Y-3.4
X5.9Y-3.65
X5.9Y-3.85
X3.8Y-3.7
X3.8Y-3.9
X5.5Y-3.95
X5.5Y-4.15
X4.8Y-4.
X4.9Y-4.
X5.Y-4.
X5.1Y-3.95
X5.1Y-4.15
X4.8Y-3.4
X4.9Y-3.4
X5.Y-3.4
X6.4Y-3.6
X6.5Y-3.6
X6.6Y-3.6
X6.7Y-3.65
X6.7Y-3.85
X5.2Y-4.
X5.3Y-4.
X5.4Y-4.
X4.4Y-3.6
X4.5Y-3.6
X4.6Y-3.6
X4.7Y-3.95
X4.7Y-4.15
X4.8Y-3.6
X4.9Y-3.6
X5.Y-3.6
X5.5Y-3.35
X5.5Y-3.55
X4.7Y-3.65
X4.7Y-3.85
X5.6Y-4.4
X5.7Y-4.4
X5.8Y-4.4
X6.Y-3.4
X6.1Y-3.4
X6.2Y-3.4
X4.8Y-4.2
X4.9Y-4.2
X5.Y-4.2
X4.4Y-4.4
X4.5Y-4.4
X4.6Y-4.4
X7.2Y-3.4
X7.3Y-3.4
X7.4Y-3.4
X6.7Y-3.95
X6.7Y-4.15
X7.2Y-4.2
X7.3Y-4.2
X7.4Y-4.2
X5.5Y-4.25
X5.5Y-4.45
X6.8Y-4.4
X6.9Y-4.4
X7.Y-4.4
X5.9Y-1.7
X5.9Y-1.8
X6.Y-1.7
X6.Y-1.8
X6.1Y-1.7
X6.1Y-1.8
X6.2Y-1.7
X6.2Y-1.8
X6.3Y-1.7
X6.3Y-1.8
X6.4Y-1.7
X6.4Y-1.8
X6.5Y-1.7
X6.5Y-1.8
X6.6Y-1.7
X6.6Y-1.8
X4.8Y-3.8
X4.9Y-3.8
X5.Y-3.8
X5.2Y-4.2
X5.3Y-4.2
X5.4Y-4.2
X6.Y-3.8
X6.1Y-3.8
X6.2Y-3.8
X5.6Y-4.
X5.7Y-4.
X5.8Y-4.
X5.9Y-4.25
X5.9Y-4.45
X5.6Y-3.4
X5.7Y-3.4
X5.8Y-3.4
X4.4Y-4.2
X4.5Y-4.2
X4.6Y-4.2
X3.5Y-3.7
X3.5Y-3.9
X6.Y-4.4
X6.1Y-4.4
X6.2Y-4.4
T3
X8.5Y-2.1
X8.5Y-2.2
X8.6Y-2.1
X8.6Y-2.2
T4
X8.5Y-2.
X8.6Y-2.
T5
X8.55Y-4.4
X3.2Y-2.75
X3.2Y-4.4
X8.55Y-2.75
T0
M30
