G04 #@! TF.FileFunction,Soldermask,Top*
%FSLAX46Y46*%
G04 Gerber Fmt 4.6, Leading zero omitted, Abs format (unit mm)*
G04 Created by KiCad (PCBNEW 4.0.7) date Mon May  7 00:57:03 2018*
%MOMM*%
%LPD*%
G01*
G04 APERTURE LIST*
%ADD10C,0.100000*%
%ADD11C,0.200000*%
%ADD12C,1.924000*%
%ADD13C,1.800000*%
%ADD14O,1.800000X1.800000*%
%ADD15R,1.800000X1.800000*%
%ADD16C,4.800000*%
G04 APERTURE END LIST*
D10*
D11*
X137335713Y-53606381D02*
X137335713Y-52606381D01*
X137573808Y-52606381D01*
X137716666Y-52654000D01*
X137811904Y-52749238D01*
X137859523Y-52844476D01*
X137907142Y-53034952D01*
X137907142Y-53177810D01*
X137859523Y-53368286D01*
X137811904Y-53463524D01*
X137716666Y-53558762D01*
X137573808Y-53606381D01*
X137335713Y-53606381D01*
X138335713Y-53606381D02*
X138335713Y-52939714D01*
X138335713Y-52606381D02*
X138288094Y-52654000D01*
X138335713Y-52701619D01*
X138383332Y-52654000D01*
X138335713Y-52606381D01*
X138335713Y-52701619D01*
X138764284Y-53558762D02*
X138859522Y-53606381D01*
X139049998Y-53606381D01*
X139145237Y-53558762D01*
X139192856Y-53463524D01*
X139192856Y-53415905D01*
X139145237Y-53320667D01*
X139049998Y-53273048D01*
X138907141Y-53273048D01*
X138811903Y-53225429D01*
X138764284Y-53130190D01*
X138764284Y-53082571D01*
X138811903Y-52987333D01*
X138907141Y-52939714D01*
X139049998Y-52939714D01*
X139145237Y-52987333D01*
X140049999Y-53558762D02*
X139954761Y-53606381D01*
X139764284Y-53606381D01*
X139669046Y-53558762D01*
X139621427Y-53511143D01*
X139573808Y-53415905D01*
X139573808Y-53130190D01*
X139621427Y-53034952D01*
X139669046Y-52987333D01*
X139764284Y-52939714D01*
X139954761Y-52939714D01*
X140049999Y-52987333D01*
X140478570Y-53606381D02*
X140478570Y-52939714D01*
X140478570Y-53130190D02*
X140526189Y-53034952D01*
X140573808Y-52987333D01*
X140669046Y-52939714D01*
X140764285Y-52939714D01*
X141478571Y-53558762D02*
X141383333Y-53606381D01*
X141192856Y-53606381D01*
X141097618Y-53558762D01*
X141049999Y-53463524D01*
X141049999Y-53082571D01*
X141097618Y-52987333D01*
X141192856Y-52939714D01*
X141383333Y-52939714D01*
X141478571Y-52987333D01*
X141526190Y-53082571D01*
X141526190Y-53177810D01*
X141049999Y-53273048D01*
X141811904Y-52939714D02*
X142192856Y-52939714D01*
X141954761Y-52606381D02*
X141954761Y-53463524D01*
X142002380Y-53558762D01*
X142097618Y-53606381D01*
X142192856Y-53606381D01*
X142907143Y-53558762D02*
X142811905Y-53606381D01*
X142621428Y-53606381D01*
X142526190Y-53558762D01*
X142478571Y-53463524D01*
X142478571Y-53082571D01*
X142526190Y-52987333D01*
X142621428Y-52939714D01*
X142811905Y-52939714D01*
X142907143Y-52987333D01*
X142954762Y-53082571D01*
X142954762Y-53177810D01*
X142478571Y-53273048D01*
X144288095Y-53034952D02*
X144192857Y-52987333D01*
X144145238Y-52939714D01*
X144097619Y-52844476D01*
X144097619Y-52796857D01*
X144145238Y-52701619D01*
X144192857Y-52654000D01*
X144288095Y-52606381D01*
X144478572Y-52606381D01*
X144573810Y-52654000D01*
X144621429Y-52701619D01*
X144669048Y-52796857D01*
X144669048Y-52844476D01*
X144621429Y-52939714D01*
X144573810Y-52987333D01*
X144478572Y-53034952D01*
X144288095Y-53034952D01*
X144192857Y-53082571D01*
X144145238Y-53130190D01*
X144097619Y-53225429D01*
X144097619Y-53415905D01*
X144145238Y-53511143D01*
X144192857Y-53558762D01*
X144288095Y-53606381D01*
X144478572Y-53606381D01*
X144573810Y-53558762D01*
X144621429Y-53511143D01*
X144669048Y-53415905D01*
X144669048Y-53225429D01*
X144621429Y-53130190D01*
X144573810Y-53082571D01*
X144478572Y-53034952D01*
X145859524Y-53606381D02*
X145859524Y-52606381D01*
X145859524Y-52987333D02*
X145954762Y-52939714D01*
X146145239Y-52939714D01*
X146240477Y-52987333D01*
X146288096Y-53034952D01*
X146335715Y-53130190D01*
X146335715Y-53415905D01*
X146288096Y-53511143D01*
X146240477Y-53558762D01*
X146145239Y-53606381D01*
X145954762Y-53606381D01*
X145859524Y-53558762D01*
X146764286Y-53606381D02*
X146764286Y-52939714D01*
X146764286Y-52606381D02*
X146716667Y-52654000D01*
X146764286Y-52701619D01*
X146811905Y-52654000D01*
X146764286Y-52606381D01*
X146764286Y-52701619D01*
X147097619Y-52939714D02*
X147478571Y-52939714D01*
X147240476Y-52606381D02*
X147240476Y-53463524D01*
X147288095Y-53558762D01*
X147383333Y-53606381D01*
X147478571Y-53606381D01*
X149002382Y-53606381D02*
X149002382Y-53082571D01*
X148954763Y-52987333D01*
X148859525Y-52939714D01*
X148669048Y-52939714D01*
X148573810Y-52987333D01*
X149002382Y-53558762D02*
X148907144Y-53606381D01*
X148669048Y-53606381D01*
X148573810Y-53558762D01*
X148526191Y-53463524D01*
X148526191Y-53368286D01*
X148573810Y-53273048D01*
X148669048Y-53225429D01*
X148907144Y-53225429D01*
X149002382Y-53177810D01*
X149907144Y-53606381D02*
X149907144Y-52606381D01*
X149907144Y-53558762D02*
X149811906Y-53606381D01*
X149621429Y-53606381D01*
X149526191Y-53558762D01*
X149478572Y-53511143D01*
X149430953Y-53415905D01*
X149430953Y-53130190D01*
X149478572Y-53034952D01*
X149526191Y-52987333D01*
X149621429Y-52939714D01*
X149811906Y-52939714D01*
X149907144Y-52987333D01*
X150811906Y-53606381D02*
X150811906Y-52606381D01*
X150811906Y-53558762D02*
X150716668Y-53606381D01*
X150526191Y-53606381D01*
X150430953Y-53558762D01*
X150383334Y-53511143D01*
X150335715Y-53415905D01*
X150335715Y-53130190D01*
X150383334Y-53034952D01*
X150430953Y-52987333D01*
X150526191Y-52939714D01*
X150716668Y-52939714D01*
X150811906Y-52987333D01*
X151669049Y-53558762D02*
X151573811Y-53606381D01*
X151383334Y-53606381D01*
X151288096Y-53558762D01*
X151240477Y-53463524D01*
X151240477Y-53082571D01*
X151288096Y-52987333D01*
X151383334Y-52939714D01*
X151573811Y-52939714D01*
X151669049Y-52987333D01*
X151716668Y-53082571D01*
X151716668Y-53177810D01*
X151240477Y-53273048D01*
X152145239Y-53606381D02*
X152145239Y-52939714D01*
X152145239Y-53130190D02*
X152192858Y-53034952D01*
X152240477Y-52987333D01*
X152335715Y-52939714D01*
X152430954Y-52939714D01*
X153430954Y-52939714D02*
X153669049Y-53606381D01*
X153907145Y-52939714D01*
X154240478Y-52701619D02*
X154288097Y-52654000D01*
X154383335Y-52606381D01*
X154621431Y-52606381D01*
X154716669Y-52654000D01*
X154764288Y-52701619D01*
X154811907Y-52796857D01*
X154811907Y-52892095D01*
X154764288Y-53034952D01*
X154192859Y-53606381D01*
X154811907Y-53606381D01*
X137192857Y-55020667D02*
X137669048Y-55020667D01*
X137097619Y-55306381D02*
X137430952Y-54306381D01*
X137764286Y-55306381D01*
X138859524Y-54925429D02*
X139621429Y-54925429D01*
X139240477Y-55306381D02*
X139240477Y-54544476D01*
X141192858Y-54782571D02*
X141335715Y-54830190D01*
X141383334Y-54877810D01*
X141430953Y-54973048D01*
X141430953Y-55115905D01*
X141383334Y-55211143D01*
X141335715Y-55258762D01*
X141240477Y-55306381D01*
X140859524Y-55306381D01*
X140859524Y-54306381D01*
X141192858Y-54306381D01*
X141288096Y-54354000D01*
X141335715Y-54401619D01*
X141383334Y-54496857D01*
X141383334Y-54592095D01*
X141335715Y-54687333D01*
X141288096Y-54734952D01*
X141192858Y-54782571D01*
X140859524Y-54782571D01*
X142621429Y-54925429D02*
X143383334Y-54925429D01*
X143002382Y-55306381D02*
X143002382Y-54544476D01*
X145192858Y-55211143D02*
X145145239Y-55258762D01*
X145002382Y-55306381D01*
X144907144Y-55306381D01*
X144764286Y-55258762D01*
X144669048Y-55163524D01*
X144621429Y-55068286D01*
X144573810Y-54877810D01*
X144573810Y-54734952D01*
X144621429Y-54544476D01*
X144669048Y-54449238D01*
X144764286Y-54354000D01*
X144907144Y-54306381D01*
X145002382Y-54306381D01*
X145145239Y-54354000D01*
X145192858Y-54401619D01*
X145573810Y-55020667D02*
X146050001Y-55020667D01*
X145478572Y-55306381D02*
X145811905Y-54306381D01*
X146145239Y-55306381D01*
X147050001Y-55306381D02*
X146716667Y-54830190D01*
X146478572Y-55306381D02*
X146478572Y-54306381D01*
X146859525Y-54306381D01*
X146954763Y-54354000D01*
X147002382Y-54401619D01*
X147050001Y-54496857D01*
X147050001Y-54639714D01*
X147002382Y-54734952D01*
X146954763Y-54782571D01*
X146859525Y-54830190D01*
X146478572Y-54830190D01*
X148050001Y-55306381D02*
X147716667Y-54830190D01*
X147478572Y-55306381D02*
X147478572Y-54306381D01*
X147859525Y-54306381D01*
X147954763Y-54354000D01*
X148002382Y-54401619D01*
X148050001Y-54496857D01*
X148050001Y-54639714D01*
X148002382Y-54734952D01*
X147954763Y-54782571D01*
X147859525Y-54830190D01*
X147478572Y-54830190D01*
X148669048Y-54830190D02*
X148669048Y-55306381D01*
X148335715Y-54306381D02*
X148669048Y-54830190D01*
X149002382Y-54306381D01*
X149097620Y-55401619D02*
X149859525Y-55401619D01*
X150097620Y-55306381D02*
X150097620Y-54306381D01*
X150573810Y-55306381D02*
X150573810Y-54306381D01*
X151145239Y-55306381D01*
X151145239Y-54306381D01*
X152383334Y-54782571D02*
X153145239Y-54782571D01*
X153145239Y-55068286D02*
X152383334Y-55068286D01*
X154335715Y-55258762D02*
X154478572Y-55306381D01*
X154716668Y-55306381D01*
X154811906Y-55258762D01*
X154859525Y-55211143D01*
X154907144Y-55115905D01*
X154907144Y-55020667D01*
X154859525Y-54925429D01*
X154811906Y-54877810D01*
X154716668Y-54830190D01*
X154526191Y-54782571D01*
X154430953Y-54734952D01*
X154383334Y-54687333D01*
X154335715Y-54592095D01*
X154335715Y-54496857D01*
X154383334Y-54401619D01*
X154430953Y-54354000D01*
X154526191Y-54306381D01*
X154764287Y-54306381D01*
X154907144Y-54354000D01*
X140883333Y-56482571D02*
X141216667Y-56482571D01*
X141359524Y-57006381D02*
X140883333Y-57006381D01*
X140883333Y-56006381D01*
X141359524Y-56006381D01*
X141788095Y-57006381D02*
X141788095Y-56339714D01*
X141788095Y-56434952D02*
X141835714Y-56387333D01*
X141930952Y-56339714D01*
X142073810Y-56339714D01*
X142169048Y-56387333D01*
X142216667Y-56482571D01*
X142216667Y-57006381D01*
X142216667Y-56482571D02*
X142264286Y-56387333D01*
X142359524Y-56339714D01*
X142502381Y-56339714D01*
X142597619Y-56387333D01*
X142645238Y-56482571D01*
X142645238Y-57006381D01*
X143121428Y-57006381D02*
X143121428Y-56339714D01*
X143121428Y-56006381D02*
X143073809Y-56054000D01*
X143121428Y-56101619D01*
X143169047Y-56054000D01*
X143121428Y-56006381D01*
X143121428Y-56101619D01*
X143740475Y-57006381D02*
X143645237Y-56958762D01*
X143597618Y-56863524D01*
X143597618Y-56006381D01*
X145359524Y-57006381D02*
X144883333Y-57006381D01*
X144883333Y-56006381D01*
X146121429Y-56339714D02*
X146121429Y-57006381D01*
X145692857Y-56339714D02*
X145692857Y-56863524D01*
X145740476Y-56958762D01*
X145835714Y-57006381D01*
X145978572Y-57006381D01*
X146073810Y-56958762D01*
X146121429Y-56911143D01*
X146597619Y-56339714D02*
X146597619Y-57006381D01*
X146597619Y-56434952D02*
X146645238Y-56387333D01*
X146740476Y-56339714D01*
X146883334Y-56339714D01*
X146978572Y-56387333D01*
X147026191Y-56482571D01*
X147026191Y-57006381D01*
X147930953Y-57006381D02*
X147930953Y-56006381D01*
X147930953Y-56958762D02*
X147835715Y-57006381D01*
X147645238Y-57006381D01*
X147550000Y-56958762D01*
X147502381Y-56911143D01*
X147454762Y-56815905D01*
X147454762Y-56530190D01*
X147502381Y-56434952D01*
X147550000Y-56387333D01*
X147645238Y-56339714D01*
X147835715Y-56339714D01*
X147930953Y-56387333D01*
X148407143Y-57006381D02*
X148407143Y-56006381D01*
X148407143Y-56387333D02*
X148502381Y-56339714D01*
X148692858Y-56339714D01*
X148788096Y-56387333D01*
X148835715Y-56434952D01*
X148883334Y-56530190D01*
X148883334Y-56815905D01*
X148835715Y-56911143D01*
X148788096Y-56958762D01*
X148692858Y-57006381D01*
X148502381Y-57006381D01*
X148407143Y-56958762D01*
X149692858Y-56958762D02*
X149597620Y-57006381D01*
X149407143Y-57006381D01*
X149311905Y-56958762D01*
X149264286Y-56863524D01*
X149264286Y-56482571D01*
X149311905Y-56387333D01*
X149407143Y-56339714D01*
X149597620Y-56339714D01*
X149692858Y-56387333D01*
X149740477Y-56482571D01*
X149740477Y-56577810D01*
X149264286Y-56673048D01*
X150169048Y-57006381D02*
X150169048Y-56339714D01*
X150169048Y-56530190D02*
X150216667Y-56434952D01*
X150264286Y-56387333D01*
X150359524Y-56339714D01*
X150454763Y-56339714D01*
X151216668Y-56339714D02*
X151216668Y-57149238D01*
X151169049Y-57244476D01*
X151121430Y-57292095D01*
X151026191Y-57339714D01*
X150883334Y-57339714D01*
X150788096Y-57292095D01*
X151216668Y-56958762D02*
X151121430Y-57006381D01*
X150930953Y-57006381D01*
X150835715Y-56958762D01*
X150788096Y-56911143D01*
X150740477Y-56815905D01*
X150740477Y-56530190D01*
X150788096Y-56434952D01*
X150835715Y-56387333D01*
X150930953Y-56339714D01*
X151121430Y-56339714D01*
X151216668Y-56387333D01*
X141097620Y-58658762D02*
X141002382Y-58706381D01*
X140811905Y-58706381D01*
X140716667Y-58658762D01*
X140669048Y-58563524D01*
X140669048Y-58182571D01*
X140716667Y-58087333D01*
X140811905Y-58039714D01*
X141002382Y-58039714D01*
X141097620Y-58087333D01*
X141145239Y-58182571D01*
X141145239Y-58277810D01*
X140669048Y-58373048D01*
X141573810Y-58706381D02*
X141573810Y-58039714D01*
X141573810Y-58134952D02*
X141621429Y-58087333D01*
X141716667Y-58039714D01*
X141859525Y-58039714D01*
X141954763Y-58087333D01*
X142002382Y-58182571D01*
X142002382Y-58706381D01*
X142002382Y-58182571D02*
X142050001Y-58087333D01*
X142145239Y-58039714D01*
X142288096Y-58039714D01*
X142383334Y-58087333D01*
X142430953Y-58182571D01*
X142430953Y-58706381D01*
X142907143Y-58706381D02*
X142907143Y-58039714D01*
X142907143Y-57706381D02*
X142859524Y-57754000D01*
X142907143Y-57801619D01*
X142954762Y-57754000D01*
X142907143Y-57706381D01*
X142907143Y-57801619D01*
X143526190Y-58706381D02*
X143430952Y-58658762D01*
X143383333Y-58563524D01*
X143383333Y-57706381D01*
X144526191Y-58230190D02*
X144478572Y-58182571D01*
X144383334Y-58134952D01*
X144288096Y-58134952D01*
X144192858Y-58182571D01*
X144145238Y-58230190D01*
X144097619Y-58325429D01*
X144097619Y-58420667D01*
X144145238Y-58515905D01*
X144192858Y-58563524D01*
X144288096Y-58611143D01*
X144383334Y-58611143D01*
X144478572Y-58563524D01*
X144526191Y-58515905D01*
X144526191Y-58134952D02*
X144526191Y-58515905D01*
X144573810Y-58563524D01*
X144621429Y-58563524D01*
X144716667Y-58515905D01*
X144764286Y-58420667D01*
X144764286Y-58182571D01*
X144669048Y-58039714D01*
X144526191Y-57944476D01*
X144335715Y-57896857D01*
X144145238Y-57944476D01*
X144002381Y-58039714D01*
X143907143Y-58182571D01*
X143859524Y-58373048D01*
X143907143Y-58563524D01*
X144002381Y-58706381D01*
X144145238Y-58801619D01*
X144335715Y-58849238D01*
X144526191Y-58801619D01*
X144669048Y-58706381D01*
X145573810Y-58658762D02*
X145478572Y-58706381D01*
X145288095Y-58706381D01*
X145192857Y-58658762D01*
X145145238Y-58563524D01*
X145145238Y-58182571D01*
X145192857Y-58087333D01*
X145288095Y-58039714D01*
X145478572Y-58039714D01*
X145573810Y-58087333D01*
X145621429Y-58182571D01*
X145621429Y-58277810D01*
X145145238Y-58373048D01*
X146050000Y-58706381D02*
X146050000Y-58039714D01*
X146050000Y-58134952D02*
X146097619Y-58087333D01*
X146192857Y-58039714D01*
X146335715Y-58039714D01*
X146430953Y-58087333D01*
X146478572Y-58182571D01*
X146478572Y-58706381D01*
X146478572Y-58182571D02*
X146526191Y-58087333D01*
X146621429Y-58039714D01*
X146764286Y-58039714D01*
X146859524Y-58087333D01*
X146907143Y-58182571D01*
X146907143Y-58706381D01*
X147526190Y-58706381D02*
X147430952Y-58658762D01*
X147383333Y-58563524D01*
X147383333Y-57706381D01*
X148335715Y-58039714D02*
X148335715Y-58706381D01*
X147907143Y-58039714D02*
X147907143Y-58563524D01*
X147954762Y-58658762D01*
X148050000Y-58706381D01*
X148192858Y-58706381D01*
X148288096Y-58658762D01*
X148335715Y-58611143D01*
X148811905Y-58039714D02*
X148811905Y-58706381D01*
X148811905Y-58134952D02*
X148859524Y-58087333D01*
X148954762Y-58039714D01*
X149097620Y-58039714D01*
X149192858Y-58087333D01*
X149240477Y-58182571D01*
X149240477Y-58706381D01*
X149716667Y-58611143D02*
X149764286Y-58658762D01*
X149716667Y-58706381D01*
X149669048Y-58658762D01*
X149716667Y-58611143D01*
X149716667Y-58706381D01*
X150145238Y-58658762D02*
X150240476Y-58706381D01*
X150430952Y-58706381D01*
X150526191Y-58658762D01*
X150573810Y-58563524D01*
X150573810Y-58515905D01*
X150526191Y-58420667D01*
X150430952Y-58373048D01*
X150288095Y-58373048D01*
X150192857Y-58325429D01*
X150145238Y-58230190D01*
X150145238Y-58182571D01*
X150192857Y-58087333D01*
X150288095Y-58039714D01*
X150430952Y-58039714D01*
X150526191Y-58087333D01*
X151383334Y-58658762D02*
X151288096Y-58706381D01*
X151097619Y-58706381D01*
X151002381Y-58658762D01*
X150954762Y-58563524D01*
X150954762Y-58182571D01*
X151002381Y-58087333D01*
X151097619Y-58039714D01*
X151288096Y-58039714D01*
X151383334Y-58087333D01*
X151430953Y-58182571D01*
X151430953Y-58277810D01*
X150954762Y-58373048D01*
X141192857Y-59501619D02*
X141240476Y-59454000D01*
X141335714Y-59406381D01*
X141573810Y-59406381D01*
X141669048Y-59454000D01*
X141716667Y-59501619D01*
X141764286Y-59596857D01*
X141764286Y-59692095D01*
X141716667Y-59834952D01*
X141145238Y-60406381D01*
X141764286Y-60406381D01*
X142383333Y-59406381D02*
X142478572Y-59406381D01*
X142573810Y-59454000D01*
X142621429Y-59501619D01*
X142669048Y-59596857D01*
X142716667Y-59787333D01*
X142716667Y-60025429D01*
X142669048Y-60215905D01*
X142621429Y-60311143D01*
X142573810Y-60358762D01*
X142478572Y-60406381D01*
X142383333Y-60406381D01*
X142288095Y-60358762D01*
X142240476Y-60311143D01*
X142192857Y-60215905D01*
X142145238Y-60025429D01*
X142145238Y-59787333D01*
X142192857Y-59596857D01*
X142240476Y-59501619D01*
X142288095Y-59454000D01*
X142383333Y-59406381D01*
X143669048Y-60406381D02*
X143097619Y-60406381D01*
X143383333Y-60406381D02*
X143383333Y-59406381D01*
X143288095Y-59549238D01*
X143192857Y-59644476D01*
X143097619Y-59692095D01*
X144240476Y-59834952D02*
X144145238Y-59787333D01*
X144097619Y-59739714D01*
X144050000Y-59644476D01*
X144050000Y-59596857D01*
X144097619Y-59501619D01*
X144145238Y-59454000D01*
X144240476Y-59406381D01*
X144430953Y-59406381D01*
X144526191Y-59454000D01*
X144573810Y-59501619D01*
X144621429Y-59596857D01*
X144621429Y-59644476D01*
X144573810Y-59739714D01*
X144526191Y-59787333D01*
X144430953Y-59834952D01*
X144240476Y-59834952D01*
X144145238Y-59882571D01*
X144097619Y-59930190D01*
X144050000Y-60025429D01*
X144050000Y-60215905D01*
X144097619Y-60311143D01*
X144145238Y-60358762D01*
X144240476Y-60406381D01*
X144430953Y-60406381D01*
X144526191Y-60358762D01*
X144573810Y-60311143D01*
X144621429Y-60215905D01*
X144621429Y-60025429D01*
X144573810Y-59930190D01*
X144526191Y-59882571D01*
X144430953Y-59834952D01*
X145050000Y-60025429D02*
X145811905Y-60025429D01*
X146478571Y-59406381D02*
X146573810Y-59406381D01*
X146669048Y-59454000D01*
X146716667Y-59501619D01*
X146764286Y-59596857D01*
X146811905Y-59787333D01*
X146811905Y-60025429D01*
X146764286Y-60215905D01*
X146716667Y-60311143D01*
X146669048Y-60358762D01*
X146573810Y-60406381D01*
X146478571Y-60406381D01*
X146383333Y-60358762D01*
X146335714Y-60311143D01*
X146288095Y-60215905D01*
X146240476Y-60025429D01*
X146240476Y-59787333D01*
X146288095Y-59596857D01*
X146335714Y-59501619D01*
X146383333Y-59454000D01*
X146478571Y-59406381D01*
X147716667Y-59406381D02*
X147240476Y-59406381D01*
X147192857Y-59882571D01*
X147240476Y-59834952D01*
X147335714Y-59787333D01*
X147573810Y-59787333D01*
X147669048Y-59834952D01*
X147716667Y-59882571D01*
X147764286Y-59977810D01*
X147764286Y-60215905D01*
X147716667Y-60311143D01*
X147669048Y-60358762D01*
X147573810Y-60406381D01*
X147335714Y-60406381D01*
X147240476Y-60358762D01*
X147192857Y-60311143D01*
X148192857Y-60025429D02*
X148954762Y-60025429D01*
X149621428Y-59406381D02*
X149716667Y-59406381D01*
X149811905Y-59454000D01*
X149859524Y-59501619D01*
X149907143Y-59596857D01*
X149954762Y-59787333D01*
X149954762Y-60025429D01*
X149907143Y-60215905D01*
X149859524Y-60311143D01*
X149811905Y-60358762D01*
X149716667Y-60406381D01*
X149621428Y-60406381D01*
X149526190Y-60358762D01*
X149478571Y-60311143D01*
X149430952Y-60215905D01*
X149383333Y-60025429D01*
X149383333Y-59787333D01*
X149430952Y-59596857D01*
X149478571Y-59501619D01*
X149526190Y-59454000D01*
X149621428Y-59406381D01*
X150811905Y-59406381D02*
X150621428Y-59406381D01*
X150526190Y-59454000D01*
X150478571Y-59501619D01*
X150383333Y-59644476D01*
X150335714Y-59834952D01*
X150335714Y-60215905D01*
X150383333Y-60311143D01*
X150430952Y-60358762D01*
X150526190Y-60406381D01*
X150716667Y-60406381D01*
X150811905Y-60358762D01*
X150859524Y-60311143D01*
X150907143Y-60215905D01*
X150907143Y-59977810D01*
X150859524Y-59882571D01*
X150811905Y-59834952D01*
X150716667Y-59787333D01*
X150526190Y-59787333D01*
X150430952Y-59834952D01*
X150383333Y-59882571D01*
X150335714Y-59977810D01*
X135645238Y-62106381D02*
X135645238Y-61106381D01*
X136026191Y-61106381D01*
X136121429Y-61154000D01*
X136169048Y-61201619D01*
X136216667Y-61296857D01*
X136216667Y-61439714D01*
X136169048Y-61534952D01*
X136121429Y-61582571D01*
X136026191Y-61630190D01*
X135645238Y-61630190D01*
X136645238Y-62106381D02*
X136645238Y-61439714D01*
X136645238Y-61630190D02*
X136692857Y-61534952D01*
X136740476Y-61487333D01*
X136835714Y-61439714D01*
X136930953Y-61439714D01*
X137407143Y-62106381D02*
X137311905Y-62058762D01*
X137264286Y-62011143D01*
X137216667Y-61915905D01*
X137216667Y-61630190D01*
X137264286Y-61534952D01*
X137311905Y-61487333D01*
X137407143Y-61439714D01*
X137550001Y-61439714D01*
X137645239Y-61487333D01*
X137692858Y-61534952D01*
X137740477Y-61630190D01*
X137740477Y-61915905D01*
X137692858Y-62011143D01*
X137645239Y-62058762D01*
X137550001Y-62106381D01*
X137407143Y-62106381D01*
X138597620Y-62106381D02*
X138597620Y-61106381D01*
X138597620Y-62058762D02*
X138502382Y-62106381D01*
X138311905Y-62106381D01*
X138216667Y-62058762D01*
X138169048Y-62011143D01*
X138121429Y-61915905D01*
X138121429Y-61630190D01*
X138169048Y-61534952D01*
X138216667Y-61487333D01*
X138311905Y-61439714D01*
X138502382Y-61439714D01*
X138597620Y-61487333D01*
X139502382Y-61439714D02*
X139502382Y-62106381D01*
X139073810Y-61439714D02*
X139073810Y-61963524D01*
X139121429Y-62058762D01*
X139216667Y-62106381D01*
X139359525Y-62106381D01*
X139454763Y-62058762D01*
X139502382Y-62011143D01*
X140407144Y-62058762D02*
X140311906Y-62106381D01*
X140121429Y-62106381D01*
X140026191Y-62058762D01*
X139978572Y-62011143D01*
X139930953Y-61915905D01*
X139930953Y-61630190D01*
X139978572Y-61534952D01*
X140026191Y-61487333D01*
X140121429Y-61439714D01*
X140311906Y-61439714D01*
X140407144Y-61487333D01*
X140692858Y-61439714D02*
X141073810Y-61439714D01*
X140835715Y-61106381D02*
X140835715Y-61963524D01*
X140883334Y-62058762D01*
X140978572Y-62106381D01*
X141073810Y-62106381D01*
X141407144Y-62106381D02*
X141407144Y-61439714D01*
X141407144Y-61106381D02*
X141359525Y-61154000D01*
X141407144Y-61201619D01*
X141454763Y-61154000D01*
X141407144Y-61106381D01*
X141407144Y-61201619D01*
X142026191Y-62106381D02*
X141930953Y-62058762D01*
X141883334Y-62011143D01*
X141835715Y-61915905D01*
X141835715Y-61630190D01*
X141883334Y-61534952D01*
X141930953Y-61487333D01*
X142026191Y-61439714D01*
X142169049Y-61439714D01*
X142264287Y-61487333D01*
X142311906Y-61534952D01*
X142359525Y-61630190D01*
X142359525Y-61915905D01*
X142311906Y-62011143D01*
X142264287Y-62058762D01*
X142169049Y-62106381D01*
X142026191Y-62106381D01*
X142788096Y-61439714D02*
X142788096Y-62106381D01*
X142788096Y-61534952D02*
X142835715Y-61487333D01*
X142930953Y-61439714D01*
X143073811Y-61439714D01*
X143169049Y-61487333D01*
X143216668Y-61582571D01*
X143216668Y-62106381D01*
X143692858Y-62011143D02*
X143740477Y-62058762D01*
X143692858Y-62106381D01*
X143645239Y-62058762D01*
X143692858Y-62011143D01*
X143692858Y-62106381D01*
X143692858Y-61487333D02*
X143740477Y-61534952D01*
X143692858Y-61582571D01*
X143645239Y-61534952D01*
X143692858Y-61487333D01*
X143692858Y-61582571D01*
X144930953Y-62106381D02*
X144930953Y-61106381D01*
X145359525Y-62106381D02*
X145359525Y-61582571D01*
X145311906Y-61487333D01*
X145216668Y-61439714D01*
X145073810Y-61439714D01*
X144978572Y-61487333D01*
X144930953Y-61534952D01*
X145692858Y-61439714D02*
X146073810Y-61439714D01*
X145835715Y-61106381D02*
X145835715Y-61963524D01*
X145883334Y-62058762D01*
X145978572Y-62106381D01*
X146073810Y-62106381D01*
X146264287Y-61439714D02*
X146645239Y-61439714D01*
X146407144Y-61106381D02*
X146407144Y-61963524D01*
X146454763Y-62058762D01*
X146550001Y-62106381D01*
X146645239Y-62106381D01*
X146978573Y-61439714D02*
X146978573Y-62439714D01*
X146978573Y-61487333D02*
X147073811Y-61439714D01*
X147264288Y-61439714D01*
X147359526Y-61487333D01*
X147407145Y-61534952D01*
X147454764Y-61630190D01*
X147454764Y-61915905D01*
X147407145Y-62011143D01*
X147359526Y-62058762D01*
X147264288Y-62106381D01*
X147073811Y-62106381D01*
X146978573Y-62058762D01*
X147835716Y-62058762D02*
X147930954Y-62106381D01*
X148121430Y-62106381D01*
X148216669Y-62058762D01*
X148264288Y-61963524D01*
X148264288Y-61915905D01*
X148216669Y-61820667D01*
X148121430Y-61773048D01*
X147978573Y-61773048D01*
X147883335Y-61725429D01*
X147835716Y-61630190D01*
X147835716Y-61582571D01*
X147883335Y-61487333D01*
X147978573Y-61439714D01*
X148121430Y-61439714D01*
X148216669Y-61487333D01*
X148692859Y-62011143D02*
X148740478Y-62058762D01*
X148692859Y-62106381D01*
X148645240Y-62058762D01*
X148692859Y-62011143D01*
X148692859Y-62106381D01*
X148692859Y-61487333D02*
X148740478Y-61534952D01*
X148692859Y-61582571D01*
X148645240Y-61534952D01*
X148692859Y-61487333D01*
X148692859Y-61582571D01*
X149883335Y-61058762D02*
X149026192Y-62344476D01*
X150930954Y-61058762D02*
X150073811Y-62344476D01*
X151264287Y-62106381D02*
X151264287Y-61106381D01*
X151645240Y-61106381D01*
X151740478Y-61154000D01*
X151788097Y-61201619D01*
X151835716Y-61296857D01*
X151835716Y-61439714D01*
X151788097Y-61534952D01*
X151740478Y-61582571D01*
X151645240Y-61630190D01*
X151264287Y-61630190D01*
X152835716Y-62011143D02*
X152788097Y-62058762D01*
X152645240Y-62106381D01*
X152550002Y-62106381D01*
X152407144Y-62058762D01*
X152311906Y-61963524D01*
X152264287Y-61868286D01*
X152216668Y-61677810D01*
X152216668Y-61534952D01*
X152264287Y-61344476D01*
X152311906Y-61249238D01*
X152407144Y-61154000D01*
X152550002Y-61106381D01*
X152645240Y-61106381D01*
X152788097Y-61154000D01*
X152835716Y-61201619D01*
X153597621Y-61582571D02*
X153740478Y-61630190D01*
X153788097Y-61677810D01*
X153835716Y-61773048D01*
X153835716Y-61915905D01*
X153788097Y-62011143D01*
X153740478Y-62058762D01*
X153645240Y-62106381D01*
X153264287Y-62106381D01*
X153264287Y-61106381D01*
X153597621Y-61106381D01*
X153692859Y-61154000D01*
X153740478Y-61201619D01*
X153788097Y-61296857D01*
X153788097Y-61392095D01*
X153740478Y-61487333D01*
X153692859Y-61534952D01*
X153597621Y-61582571D01*
X153264287Y-61582571D01*
X154216668Y-62058762D02*
X154311906Y-62106381D01*
X154502382Y-62106381D01*
X154597621Y-62058762D01*
X154645240Y-61963524D01*
X154645240Y-61915905D01*
X154597621Y-61820667D01*
X154502382Y-61773048D01*
X154359525Y-61773048D01*
X154264287Y-61725429D01*
X154216668Y-61630190D01*
X154216668Y-61582571D01*
X154264287Y-61487333D01*
X154359525Y-61439714D01*
X154502382Y-61439714D01*
X154597621Y-61487333D01*
X155073811Y-62011143D02*
X155121430Y-62058762D01*
X155073811Y-62106381D01*
X155026192Y-62058762D01*
X155073811Y-62011143D01*
X155073811Y-62106381D01*
X155550001Y-62106381D02*
X155550001Y-61439714D01*
X155550001Y-61106381D02*
X155502382Y-61154000D01*
X155550001Y-61201619D01*
X155597620Y-61154000D01*
X155550001Y-61106381D01*
X155550001Y-61201619D01*
X156169048Y-62106381D02*
X156073810Y-62058762D01*
X156026191Y-62011143D01*
X155978572Y-61915905D01*
X155978572Y-61630190D01*
X156026191Y-61534952D01*
X156073810Y-61487333D01*
X156169048Y-61439714D01*
X156311906Y-61439714D01*
X156407144Y-61487333D01*
X156454763Y-61534952D01*
X156502382Y-61630190D01*
X156502382Y-61915905D01*
X156454763Y-62011143D01*
X156407144Y-62058762D01*
X156311906Y-62106381D01*
X156169048Y-62106381D01*
D12*
X203200000Y-55880000D03*
X203200000Y-58420000D03*
X200660000Y-58420000D03*
X200660000Y-55880000D03*
D13*
X177800000Y-45720000D03*
X177800000Y-48260000D03*
X137160000Y-45720000D03*
X139700000Y-45720000D03*
X142240000Y-45720000D03*
X144780000Y-45720000D03*
X147320000Y-45720000D03*
X149860000Y-45720000D03*
X152400000Y-45720000D03*
X154940000Y-45720000D03*
X154940000Y-48260000D03*
X152400000Y-48260000D03*
X149860000Y-48260000D03*
X147320000Y-48260000D03*
X144780000Y-48260000D03*
X142240000Y-48260000D03*
X139700000Y-48260000D03*
X137160000Y-48260000D03*
X180340000Y-45720000D03*
X182880000Y-45720000D03*
X185420000Y-45720000D03*
X187960000Y-45720000D03*
X190500000Y-45720000D03*
X193040000Y-45720000D03*
X195580000Y-45720000D03*
X198120000Y-45720000D03*
X198120000Y-48260000D03*
X195580000Y-48260000D03*
X193040000Y-48260000D03*
X190500000Y-48260000D03*
X187960000Y-48260000D03*
X185420000Y-48260000D03*
X182880000Y-48260000D03*
X180340000Y-48260000D03*
X157480000Y-45720000D03*
X160020000Y-45720000D03*
X162560000Y-45720000D03*
X165100000Y-45720000D03*
X167640000Y-45720000D03*
X170180000Y-45720000D03*
X172720000Y-45720000D03*
X175260000Y-45720000D03*
X175260000Y-48260000D03*
X172720000Y-48260000D03*
X170180000Y-48260000D03*
X167640000Y-48260000D03*
X165100000Y-48260000D03*
X162560000Y-48260000D03*
X160020000Y-48260000D03*
X157480000Y-48260000D03*
D12*
X200660000Y-45720000D03*
X203200000Y-45720000D03*
X203200000Y-48260000D03*
X200660000Y-48260000D03*
D13*
X182880000Y-58420000D03*
D14*
X177800000Y-58420000D03*
D13*
X167640000Y-81280000D03*
D14*
X172720000Y-81280000D03*
D13*
X177800000Y-81280000D03*
D14*
X182880000Y-81280000D03*
D13*
X187960000Y-81280000D03*
D14*
X193040000Y-81280000D03*
D13*
X203200000Y-81280000D03*
D14*
X198120000Y-81280000D03*
D13*
X163830000Y-71120000D03*
D14*
X163830000Y-66040000D03*
D13*
X163830000Y-73660000D03*
D14*
X163830000Y-78740000D03*
D13*
X172720000Y-63500000D03*
D14*
X167640000Y-63500000D03*
D13*
X175260000Y-63500000D03*
D14*
X180340000Y-63500000D03*
D13*
X182880000Y-63500000D03*
D14*
X187960000Y-63500000D03*
D13*
X190500000Y-63500000D03*
D14*
X195580000Y-63500000D03*
D13*
X198120000Y-63500000D03*
D14*
X203200000Y-63500000D03*
D13*
X167640000Y-101600000D03*
D14*
X172720000Y-101600000D03*
D13*
X177800000Y-101600000D03*
D14*
X182880000Y-101600000D03*
D13*
X187960000Y-101600000D03*
D14*
X193040000Y-101600000D03*
D13*
X203200000Y-101600000D03*
D14*
X198120000Y-101600000D03*
D13*
X163830000Y-91440000D03*
D14*
X163830000Y-86360000D03*
D13*
X163830000Y-93980000D03*
D14*
X163830000Y-99060000D03*
D13*
X172720000Y-83820000D03*
D14*
X167640000Y-83820000D03*
D13*
X175260000Y-83820000D03*
D14*
X180340000Y-83820000D03*
D13*
X182880000Y-83820000D03*
D14*
X187960000Y-83820000D03*
D13*
X190500000Y-83820000D03*
D14*
X195580000Y-83820000D03*
D13*
X198120000Y-83820000D03*
D14*
X203200000Y-83820000D03*
D13*
X167640000Y-121920000D03*
D14*
X172720000Y-121920000D03*
D13*
X177800000Y-121920000D03*
D14*
X182880000Y-121920000D03*
D13*
X187960000Y-121920000D03*
D14*
X193040000Y-121920000D03*
D13*
X203200000Y-121920000D03*
D14*
X198120000Y-121920000D03*
D13*
X163830000Y-111760000D03*
D14*
X163830000Y-106680000D03*
D13*
X163830000Y-114300000D03*
D14*
X163830000Y-119380000D03*
D13*
X172720000Y-104140000D03*
D14*
X167640000Y-104140000D03*
D13*
X175260000Y-104140000D03*
D14*
X180340000Y-104140000D03*
D13*
X182880000Y-104140000D03*
D14*
X187960000Y-104140000D03*
D13*
X190500000Y-104140000D03*
D14*
X195580000Y-104140000D03*
D13*
X198120000Y-104140000D03*
D14*
X203200000Y-104140000D03*
D13*
X167640000Y-142240000D03*
D14*
X172720000Y-142240000D03*
D13*
X177800000Y-142240000D03*
D14*
X182880000Y-142240000D03*
D13*
X187960000Y-142240000D03*
D14*
X193040000Y-142240000D03*
D13*
X200660000Y-142240000D03*
D14*
X195580000Y-142240000D03*
D13*
X163830000Y-132080000D03*
D14*
X163830000Y-127000000D03*
D13*
X163830000Y-134620000D03*
D14*
X163830000Y-139700000D03*
D13*
X172720000Y-124460000D03*
D14*
X167640000Y-124460000D03*
D13*
X175260000Y-124460000D03*
D14*
X180340000Y-124460000D03*
D13*
X182880000Y-124460000D03*
D14*
X187960000Y-124460000D03*
D13*
X190500000Y-124460000D03*
D14*
X195580000Y-124460000D03*
D13*
X198120000Y-124460000D03*
D14*
X203200000Y-124460000D03*
D13*
X152400000Y-142240000D03*
D14*
X147320000Y-142240000D03*
D13*
X142240000Y-142240000D03*
D14*
X137160000Y-142240000D03*
D13*
X132080000Y-142240000D03*
D14*
X127000000Y-142240000D03*
D13*
X119380000Y-142240000D03*
D14*
X124460000Y-142240000D03*
D13*
X156210000Y-132080000D03*
D14*
X156210000Y-127000000D03*
D13*
X156210000Y-134620000D03*
D14*
X156210000Y-139700000D03*
D13*
X147320000Y-124460000D03*
D14*
X152400000Y-124460000D03*
D13*
X144780000Y-124460000D03*
D14*
X139700000Y-124460000D03*
D13*
X137160000Y-124460000D03*
D14*
X132080000Y-124460000D03*
D13*
X129540000Y-124460000D03*
D14*
X124460000Y-124460000D03*
D13*
X121920000Y-124460000D03*
D14*
X116840000Y-124460000D03*
D13*
X152400000Y-121920000D03*
D14*
X147320000Y-121920000D03*
D13*
X142240000Y-121920000D03*
D14*
X137160000Y-121920000D03*
D13*
X132080000Y-121920000D03*
D14*
X127000000Y-121920000D03*
D13*
X116840000Y-121920000D03*
D14*
X121920000Y-121920000D03*
D13*
X156210000Y-111760000D03*
D14*
X156210000Y-106680000D03*
D13*
X156210000Y-114300000D03*
D14*
X156210000Y-119380000D03*
D13*
X147320000Y-104140000D03*
D14*
X152400000Y-104140000D03*
D13*
X144780000Y-104140000D03*
D14*
X139700000Y-104140000D03*
D13*
X137160000Y-104140000D03*
D14*
X132080000Y-104140000D03*
D13*
X129540000Y-104140000D03*
D14*
X124460000Y-104140000D03*
D13*
X121920000Y-104140000D03*
D14*
X116840000Y-104140000D03*
D13*
X152400000Y-101600000D03*
D14*
X147320000Y-101600000D03*
D13*
X142240000Y-101600000D03*
D14*
X137160000Y-101600000D03*
D13*
X132080000Y-101600000D03*
D14*
X127000000Y-101600000D03*
D13*
X116840000Y-101600000D03*
D14*
X121920000Y-101600000D03*
D13*
X156210000Y-91440000D03*
D14*
X156210000Y-86360000D03*
D13*
X156210000Y-93980000D03*
D14*
X156210000Y-99060000D03*
D13*
X147320000Y-83820000D03*
D14*
X152400000Y-83820000D03*
D13*
X144780000Y-83820000D03*
D14*
X139700000Y-83820000D03*
D13*
X137160000Y-83820000D03*
D14*
X132080000Y-83820000D03*
D13*
X129540000Y-83820000D03*
D14*
X124460000Y-83820000D03*
D13*
X121920000Y-83820000D03*
D14*
X116840000Y-83820000D03*
D13*
X152400000Y-81280000D03*
D14*
X147320000Y-81280000D03*
D13*
X142240000Y-81280000D03*
D14*
X137160000Y-81280000D03*
D13*
X132080000Y-81280000D03*
D14*
X127000000Y-81280000D03*
D13*
X116840000Y-81280000D03*
D14*
X121920000Y-81280000D03*
D13*
X156210000Y-71120000D03*
D14*
X156210000Y-66040000D03*
D13*
X156210000Y-73660000D03*
D14*
X156210000Y-78740000D03*
D13*
X147320000Y-63500000D03*
D14*
X152400000Y-63500000D03*
D13*
X144780000Y-63500000D03*
D14*
X139700000Y-63500000D03*
D13*
X137160000Y-63500000D03*
D14*
X132080000Y-63500000D03*
D13*
X129540000Y-63500000D03*
D14*
X124460000Y-63500000D03*
D13*
X121920000Y-63500000D03*
D14*
X116840000Y-63500000D03*
D13*
X121920000Y-45720000D03*
D14*
X116840000Y-45720000D03*
D13*
X127000000Y-45720000D03*
D14*
X132080000Y-45720000D03*
D13*
X130810000Y-60960000D03*
D14*
X130810000Y-55880000D03*
D13*
X133350000Y-60960000D03*
D14*
X133350000Y-55880000D03*
D13*
X121920000Y-58420000D03*
X121920000Y-60960000D03*
D15*
X121920000Y-55880000D03*
D13*
X116840000Y-58420000D03*
X116840000Y-60960000D03*
D15*
X116840000Y-55880000D03*
D13*
X132080000Y-50800000D03*
X132080000Y-48260000D03*
D15*
X132080000Y-53340000D03*
D13*
X127000000Y-50800000D03*
X127000000Y-48260000D03*
D15*
X127000000Y-53340000D03*
D13*
X121920000Y-50800000D03*
X121920000Y-48260000D03*
D15*
X121920000Y-53340000D03*
D13*
X116840000Y-50800000D03*
X116840000Y-48260000D03*
D15*
X116840000Y-53340000D03*
D13*
X116840000Y-68580000D03*
X116840000Y-66040000D03*
D15*
X116840000Y-71120000D03*
D13*
X121920000Y-68580000D03*
X121920000Y-66040000D03*
D15*
X121920000Y-71120000D03*
D13*
X127000000Y-68580000D03*
X127000000Y-66040000D03*
D15*
X127000000Y-71120000D03*
D13*
X132080000Y-68580000D03*
X132080000Y-66040000D03*
D15*
X132080000Y-71120000D03*
D13*
X137160000Y-68580000D03*
X137160000Y-66040000D03*
D15*
X137160000Y-71120000D03*
D13*
X142240000Y-68580000D03*
X142240000Y-66040000D03*
D15*
X142240000Y-71120000D03*
D13*
X147320000Y-68580000D03*
X147320000Y-66040000D03*
D15*
X147320000Y-71120000D03*
D13*
X152400000Y-68580000D03*
X152400000Y-66040000D03*
D15*
X152400000Y-71120000D03*
D13*
X116840000Y-76200000D03*
X116840000Y-78740000D03*
D15*
X116840000Y-73660000D03*
D13*
X121920000Y-76200000D03*
X121920000Y-78740000D03*
D15*
X121920000Y-73660000D03*
D13*
X127000000Y-76200000D03*
X127000000Y-78740000D03*
D15*
X127000000Y-73660000D03*
D13*
X132080000Y-76200000D03*
X132080000Y-78740000D03*
D15*
X132080000Y-73660000D03*
D13*
X137160000Y-76200000D03*
X137160000Y-78740000D03*
D15*
X137160000Y-73660000D03*
D13*
X142240000Y-76200000D03*
X142240000Y-78740000D03*
D15*
X142240000Y-73660000D03*
D13*
X147320000Y-76200000D03*
X147320000Y-78740000D03*
D15*
X147320000Y-73660000D03*
D13*
X152400000Y-76200000D03*
X152400000Y-78740000D03*
D15*
X152400000Y-73660000D03*
D13*
X116840000Y-88900000D03*
X116840000Y-86360000D03*
D15*
X116840000Y-91440000D03*
D13*
X121920000Y-88900000D03*
X121920000Y-86360000D03*
D15*
X121920000Y-91440000D03*
D13*
X127000000Y-88900000D03*
X127000000Y-86360000D03*
D15*
X127000000Y-91440000D03*
D13*
X132080000Y-88900000D03*
X132080000Y-86360000D03*
D15*
X132080000Y-91440000D03*
D13*
X137160000Y-88900000D03*
X137160000Y-86360000D03*
D15*
X137160000Y-91440000D03*
D13*
X142240000Y-88900000D03*
X142240000Y-86360000D03*
D15*
X142240000Y-91440000D03*
D13*
X147320000Y-88900000D03*
X147320000Y-86360000D03*
D15*
X147320000Y-91440000D03*
D13*
X152400000Y-88900000D03*
X152400000Y-86360000D03*
D15*
X152400000Y-91440000D03*
D13*
X116840000Y-96520000D03*
X116840000Y-99060000D03*
D15*
X116840000Y-93980000D03*
D13*
X121920000Y-96520000D03*
X121920000Y-99060000D03*
D15*
X121920000Y-93980000D03*
D13*
X127000000Y-96520000D03*
X127000000Y-99060000D03*
D15*
X127000000Y-93980000D03*
D13*
X132080000Y-96520000D03*
X132080000Y-99060000D03*
D15*
X132080000Y-93980000D03*
D13*
X137160000Y-96520000D03*
X137160000Y-99060000D03*
D15*
X137160000Y-93980000D03*
D13*
X142240000Y-96520000D03*
X142240000Y-99060000D03*
D15*
X142240000Y-93980000D03*
D13*
X147320000Y-96520000D03*
X147320000Y-99060000D03*
D15*
X147320000Y-93980000D03*
D13*
X152400000Y-96520000D03*
X152400000Y-99060000D03*
D15*
X152400000Y-93980000D03*
D13*
X116840000Y-109220000D03*
X116840000Y-106680000D03*
D15*
X116840000Y-111760000D03*
D13*
X121920000Y-109220000D03*
X121920000Y-106680000D03*
D15*
X121920000Y-111760000D03*
D13*
X127000000Y-109220000D03*
X127000000Y-106680000D03*
D15*
X127000000Y-111760000D03*
D13*
X132080000Y-109220000D03*
X132080000Y-106680000D03*
D15*
X132080000Y-111760000D03*
D13*
X137160000Y-109220000D03*
X137160000Y-106680000D03*
D15*
X137160000Y-111760000D03*
D13*
X142240000Y-109220000D03*
X142240000Y-106680000D03*
D15*
X142240000Y-111760000D03*
D13*
X147320000Y-109220000D03*
X147320000Y-106680000D03*
D15*
X147320000Y-111760000D03*
D13*
X152400000Y-109220000D03*
X152400000Y-106680000D03*
D15*
X152400000Y-111760000D03*
D13*
X116840000Y-116840000D03*
X116840000Y-119380000D03*
D15*
X116840000Y-114300000D03*
D13*
X121920000Y-116840000D03*
X121920000Y-119380000D03*
D15*
X121920000Y-114300000D03*
D13*
X127000000Y-116840000D03*
X127000000Y-119380000D03*
D15*
X127000000Y-114300000D03*
D13*
X132080000Y-116840000D03*
X132080000Y-119380000D03*
D15*
X132080000Y-114300000D03*
D13*
X137160000Y-116840000D03*
X137160000Y-119380000D03*
D15*
X137160000Y-114300000D03*
D13*
X142240000Y-116840000D03*
X142240000Y-119380000D03*
D15*
X142240000Y-114300000D03*
D13*
X147320000Y-116840000D03*
X147320000Y-119380000D03*
D15*
X147320000Y-114300000D03*
D13*
X152400000Y-116840000D03*
X152400000Y-119380000D03*
D15*
X152400000Y-114300000D03*
D13*
X116840000Y-129540000D03*
X116840000Y-127000000D03*
D15*
X116840000Y-132080000D03*
D13*
X121920000Y-129540000D03*
X121920000Y-127000000D03*
D15*
X121920000Y-132080000D03*
D13*
X127000000Y-129540000D03*
X127000000Y-127000000D03*
D15*
X127000000Y-132080000D03*
D13*
X132080000Y-129540000D03*
X132080000Y-127000000D03*
D15*
X132080000Y-132080000D03*
D13*
X137160000Y-129540000D03*
X137160000Y-127000000D03*
D15*
X137160000Y-132080000D03*
D13*
X142240000Y-129540000D03*
X142240000Y-127000000D03*
D15*
X142240000Y-132080000D03*
D13*
X147320000Y-129540000D03*
X147320000Y-127000000D03*
D15*
X147320000Y-132080000D03*
D13*
X152400000Y-129540000D03*
X152400000Y-127000000D03*
D15*
X152400000Y-132080000D03*
D13*
X116840000Y-137160000D03*
X116840000Y-139700000D03*
D15*
X116840000Y-134620000D03*
D13*
X121920000Y-137160000D03*
X121920000Y-139700000D03*
D15*
X121920000Y-134620000D03*
D13*
X127000000Y-137160000D03*
X127000000Y-139700000D03*
D15*
X127000000Y-134620000D03*
D13*
X132080000Y-137160000D03*
X132080000Y-139700000D03*
D15*
X132080000Y-134620000D03*
D13*
X137160000Y-137160000D03*
X137160000Y-139700000D03*
D15*
X137160000Y-134620000D03*
D13*
X142240000Y-137160000D03*
X142240000Y-139700000D03*
D15*
X142240000Y-134620000D03*
D13*
X147320000Y-137160000D03*
X147320000Y-139700000D03*
D15*
X147320000Y-134620000D03*
D13*
X152400000Y-137160000D03*
X152400000Y-139700000D03*
D15*
X152400000Y-134620000D03*
D13*
X203200000Y-129540000D03*
X203200000Y-127000000D03*
D15*
X203200000Y-132080000D03*
D13*
X198120000Y-129540000D03*
X198120000Y-127000000D03*
D15*
X198120000Y-132080000D03*
D13*
X193040000Y-129540000D03*
X193040000Y-127000000D03*
D15*
X193040000Y-132080000D03*
D13*
X187960000Y-129540000D03*
X187960000Y-127000000D03*
D15*
X187960000Y-132080000D03*
D13*
X182880000Y-129540000D03*
X182880000Y-127000000D03*
D15*
X182880000Y-132080000D03*
D13*
X177800000Y-129540000D03*
X177800000Y-127000000D03*
D15*
X177800000Y-132080000D03*
D13*
X172720000Y-129540000D03*
X172720000Y-127000000D03*
D15*
X172720000Y-132080000D03*
D13*
X167640000Y-129540000D03*
X167640000Y-127000000D03*
D15*
X167640000Y-132080000D03*
D13*
X203200000Y-137160000D03*
X203200000Y-139700000D03*
D15*
X203200000Y-134620000D03*
D13*
X198120000Y-137160000D03*
X198120000Y-139700000D03*
D15*
X198120000Y-134620000D03*
D13*
X193040000Y-137160000D03*
X193040000Y-139700000D03*
D15*
X193040000Y-134620000D03*
D13*
X187960000Y-137160000D03*
X187960000Y-139700000D03*
D15*
X187960000Y-134620000D03*
D13*
X182880000Y-137160000D03*
X182880000Y-139700000D03*
D15*
X182880000Y-134620000D03*
D13*
X177800000Y-137160000D03*
X177800000Y-139700000D03*
D15*
X177800000Y-134620000D03*
D13*
X172720000Y-137160000D03*
X172720000Y-139700000D03*
D15*
X172720000Y-134620000D03*
D13*
X167640000Y-137160000D03*
X167640000Y-139700000D03*
D15*
X167640000Y-134620000D03*
D13*
X198120000Y-109220000D03*
X198120000Y-106680000D03*
D15*
X198120000Y-111760000D03*
D13*
X193040000Y-109220000D03*
X193040000Y-106680000D03*
D15*
X193040000Y-111760000D03*
D13*
X187960000Y-109220000D03*
X187960000Y-106680000D03*
D15*
X187960000Y-111760000D03*
D13*
X182880000Y-109220000D03*
X182880000Y-106680000D03*
D15*
X182880000Y-111760000D03*
D13*
X177800000Y-109220000D03*
X177800000Y-106680000D03*
D15*
X177800000Y-111760000D03*
D13*
X172720000Y-109220000D03*
X172720000Y-106680000D03*
D15*
X172720000Y-111760000D03*
D13*
X167640000Y-109220000D03*
X167640000Y-106680000D03*
D15*
X167640000Y-111760000D03*
D13*
X203200000Y-116840000D03*
X203200000Y-119380000D03*
D15*
X203200000Y-114300000D03*
D13*
X198120000Y-116840000D03*
X198120000Y-119380000D03*
D15*
X198120000Y-114300000D03*
D13*
X193040000Y-116840000D03*
X193040000Y-119380000D03*
D15*
X193040000Y-114300000D03*
D13*
X187960000Y-116840000D03*
X187960000Y-119380000D03*
D15*
X187960000Y-114300000D03*
D13*
X182880000Y-116840000D03*
X182880000Y-119380000D03*
D15*
X182880000Y-114300000D03*
D13*
X177800000Y-116840000D03*
X177800000Y-119380000D03*
D15*
X177800000Y-114300000D03*
D13*
X172720000Y-116840000D03*
X172720000Y-119380000D03*
D15*
X172720000Y-114300000D03*
D13*
X167640000Y-116840000D03*
X167640000Y-119380000D03*
D15*
X167640000Y-114300000D03*
D13*
X198120000Y-88900000D03*
X198120000Y-86360000D03*
D15*
X198120000Y-91440000D03*
D13*
X193040000Y-88900000D03*
X193040000Y-86360000D03*
D15*
X193040000Y-91440000D03*
D13*
X187960000Y-88900000D03*
X187960000Y-86360000D03*
D15*
X187960000Y-91440000D03*
D13*
X182880000Y-88900000D03*
X182880000Y-86360000D03*
D15*
X182880000Y-91440000D03*
D13*
X177800000Y-88900000D03*
X177800000Y-86360000D03*
D15*
X177800000Y-91440000D03*
D13*
X172720000Y-88900000D03*
X172720000Y-86360000D03*
D15*
X172720000Y-91440000D03*
D13*
X167640000Y-88900000D03*
X167640000Y-86360000D03*
D15*
X167640000Y-91440000D03*
D13*
X203200000Y-96520000D03*
X203200000Y-99060000D03*
D15*
X203200000Y-93980000D03*
D13*
X203200000Y-68580000D03*
X203200000Y-66040000D03*
D15*
X203200000Y-71120000D03*
D13*
X198120000Y-68580000D03*
X198120000Y-66040000D03*
D15*
X198120000Y-71120000D03*
D13*
X193040000Y-68580000D03*
X193040000Y-66040000D03*
D15*
X193040000Y-71120000D03*
D13*
X187960000Y-68580000D03*
X187960000Y-66040000D03*
D15*
X187960000Y-71120000D03*
D13*
X182880000Y-68580000D03*
X182880000Y-66040000D03*
D15*
X182880000Y-71120000D03*
D13*
X203200000Y-76200000D03*
X203200000Y-78740000D03*
D15*
X203200000Y-73660000D03*
D13*
X198120000Y-76200000D03*
X198120000Y-78740000D03*
D15*
X198120000Y-73660000D03*
D13*
X193040000Y-76200000D03*
X193040000Y-78740000D03*
D15*
X193040000Y-73660000D03*
D13*
X187960000Y-76200000D03*
X187960000Y-78740000D03*
D15*
X187960000Y-73660000D03*
D13*
X198120000Y-96520000D03*
X198120000Y-99060000D03*
D15*
X198120000Y-93980000D03*
D13*
X193040000Y-96520000D03*
X193040000Y-99060000D03*
D15*
X193040000Y-93980000D03*
D13*
X187960000Y-96520000D03*
X187960000Y-99060000D03*
D15*
X187960000Y-93980000D03*
D13*
X182880000Y-96520000D03*
X182880000Y-99060000D03*
D15*
X182880000Y-93980000D03*
D13*
X177800000Y-96520000D03*
X177800000Y-99060000D03*
D15*
X177800000Y-93980000D03*
D13*
X172720000Y-96520000D03*
X172720000Y-99060000D03*
D15*
X172720000Y-93980000D03*
D13*
X167640000Y-96520000D03*
X167640000Y-99060000D03*
D15*
X167640000Y-93980000D03*
D13*
X177800000Y-68580000D03*
X177800000Y-66040000D03*
D15*
X177800000Y-71120000D03*
D13*
X172720000Y-68580000D03*
X172720000Y-66040000D03*
D15*
X172720000Y-71120000D03*
D13*
X167640000Y-68580000D03*
X167640000Y-66040000D03*
D15*
X167640000Y-71120000D03*
D13*
X182880000Y-76200000D03*
X182880000Y-78740000D03*
D15*
X182880000Y-73660000D03*
D13*
X177800000Y-76200000D03*
X177800000Y-78740000D03*
D15*
X177800000Y-73660000D03*
D13*
X172720000Y-76200000D03*
X172720000Y-78740000D03*
D15*
X172720000Y-73660000D03*
D13*
X167640000Y-76200000D03*
X167640000Y-78740000D03*
D15*
X167640000Y-73660000D03*
D13*
X203200000Y-109220000D03*
X203200000Y-106680000D03*
D15*
X203200000Y-111760000D03*
D13*
X203200000Y-88900000D03*
X203200000Y-86360000D03*
D15*
X203200000Y-91440000D03*
D13*
X127000000Y-58420000D03*
X127000000Y-60960000D03*
D15*
X127000000Y-55880000D03*
D16*
X205740000Y-43180000D03*
X114300000Y-142240000D03*
X205740000Y-142240000D03*
X137160000Y-58420000D03*
M02*
