G04 #@! TF.FileFunction,Soldermask,Top*
%FSLAX46Y46*%
G04 Gerber Fmt 4.6, Leading zero omitted, Abs format (unit mm)*
G04 Created by KiCad (PCBNEW 4.0.6) date Mon Sep 18 01:17:52 2017*
%MOMM*%
%LPD*%
G01*
G04 APERTURE LIST*
%ADD10C,0.100000*%
%ADD11C,0.200000*%
%ADD12C,1.800000*%
%ADD13R,1.800000X1.800000*%
%ADD14O,1.800000X1.800000*%
%ADD15C,1.924000*%
%ADD16C,2.600000*%
G04 APERTURE END LIST*
D10*
D11*
X150035713Y-63092381D02*
X150035713Y-62092381D01*
X150273808Y-62092381D01*
X150416666Y-62140000D01*
X150511904Y-62235238D01*
X150559523Y-62330476D01*
X150607142Y-62520952D01*
X150607142Y-62663810D01*
X150559523Y-62854286D01*
X150511904Y-62949524D01*
X150416666Y-63044762D01*
X150273808Y-63092381D01*
X150035713Y-63092381D01*
X151035713Y-63092381D02*
X151035713Y-62425714D01*
X151035713Y-62092381D02*
X150988094Y-62140000D01*
X151035713Y-62187619D01*
X151083332Y-62140000D01*
X151035713Y-62092381D01*
X151035713Y-62187619D01*
X151464284Y-63044762D02*
X151559522Y-63092381D01*
X151749998Y-63092381D01*
X151845237Y-63044762D01*
X151892856Y-62949524D01*
X151892856Y-62901905D01*
X151845237Y-62806667D01*
X151749998Y-62759048D01*
X151607141Y-62759048D01*
X151511903Y-62711429D01*
X151464284Y-62616190D01*
X151464284Y-62568571D01*
X151511903Y-62473333D01*
X151607141Y-62425714D01*
X151749998Y-62425714D01*
X151845237Y-62473333D01*
X152749999Y-63044762D02*
X152654761Y-63092381D01*
X152464284Y-63092381D01*
X152369046Y-63044762D01*
X152321427Y-62997143D01*
X152273808Y-62901905D01*
X152273808Y-62616190D01*
X152321427Y-62520952D01*
X152369046Y-62473333D01*
X152464284Y-62425714D01*
X152654761Y-62425714D01*
X152749999Y-62473333D01*
X153178570Y-63092381D02*
X153178570Y-62425714D01*
X153178570Y-62616190D02*
X153226189Y-62520952D01*
X153273808Y-62473333D01*
X153369046Y-62425714D01*
X153464285Y-62425714D01*
X154178571Y-63044762D02*
X154083333Y-63092381D01*
X153892856Y-63092381D01*
X153797618Y-63044762D01*
X153749999Y-62949524D01*
X153749999Y-62568571D01*
X153797618Y-62473333D01*
X153892856Y-62425714D01*
X154083333Y-62425714D01*
X154178571Y-62473333D01*
X154226190Y-62568571D01*
X154226190Y-62663810D01*
X153749999Y-62759048D01*
X154511904Y-62425714D02*
X154892856Y-62425714D01*
X154654761Y-62092381D02*
X154654761Y-62949524D01*
X154702380Y-63044762D01*
X154797618Y-63092381D01*
X154892856Y-63092381D01*
X155607143Y-63044762D02*
X155511905Y-63092381D01*
X155321428Y-63092381D01*
X155226190Y-63044762D01*
X155178571Y-62949524D01*
X155178571Y-62568571D01*
X155226190Y-62473333D01*
X155321428Y-62425714D01*
X155511905Y-62425714D01*
X155607143Y-62473333D01*
X155654762Y-62568571D01*
X155654762Y-62663810D01*
X155178571Y-62759048D01*
X156988095Y-62520952D02*
X156892857Y-62473333D01*
X156845238Y-62425714D01*
X156797619Y-62330476D01*
X156797619Y-62282857D01*
X156845238Y-62187619D01*
X156892857Y-62140000D01*
X156988095Y-62092381D01*
X157178572Y-62092381D01*
X157273810Y-62140000D01*
X157321429Y-62187619D01*
X157369048Y-62282857D01*
X157369048Y-62330476D01*
X157321429Y-62425714D01*
X157273810Y-62473333D01*
X157178572Y-62520952D01*
X156988095Y-62520952D01*
X156892857Y-62568571D01*
X156845238Y-62616190D01*
X156797619Y-62711429D01*
X156797619Y-62901905D01*
X156845238Y-62997143D01*
X156892857Y-63044762D01*
X156988095Y-63092381D01*
X157178572Y-63092381D01*
X157273810Y-63044762D01*
X157321429Y-62997143D01*
X157369048Y-62901905D01*
X157369048Y-62711429D01*
X157321429Y-62616190D01*
X157273810Y-62568571D01*
X157178572Y-62520952D01*
X158559524Y-63092381D02*
X158559524Y-62092381D01*
X158559524Y-62473333D02*
X158654762Y-62425714D01*
X158845239Y-62425714D01*
X158940477Y-62473333D01*
X158988096Y-62520952D01*
X159035715Y-62616190D01*
X159035715Y-62901905D01*
X158988096Y-62997143D01*
X158940477Y-63044762D01*
X158845239Y-63092381D01*
X158654762Y-63092381D01*
X158559524Y-63044762D01*
X159464286Y-63092381D02*
X159464286Y-62425714D01*
X159464286Y-62092381D02*
X159416667Y-62140000D01*
X159464286Y-62187619D01*
X159511905Y-62140000D01*
X159464286Y-62092381D01*
X159464286Y-62187619D01*
X159797619Y-62425714D02*
X160178571Y-62425714D01*
X159940476Y-62092381D02*
X159940476Y-62949524D01*
X159988095Y-63044762D01*
X160083333Y-63092381D01*
X160178571Y-63092381D01*
X161702382Y-63092381D02*
X161702382Y-62568571D01*
X161654763Y-62473333D01*
X161559525Y-62425714D01*
X161369048Y-62425714D01*
X161273810Y-62473333D01*
X161702382Y-63044762D02*
X161607144Y-63092381D01*
X161369048Y-63092381D01*
X161273810Y-63044762D01*
X161226191Y-62949524D01*
X161226191Y-62854286D01*
X161273810Y-62759048D01*
X161369048Y-62711429D01*
X161607144Y-62711429D01*
X161702382Y-62663810D01*
X162607144Y-63092381D02*
X162607144Y-62092381D01*
X162607144Y-63044762D02*
X162511906Y-63092381D01*
X162321429Y-63092381D01*
X162226191Y-63044762D01*
X162178572Y-62997143D01*
X162130953Y-62901905D01*
X162130953Y-62616190D01*
X162178572Y-62520952D01*
X162226191Y-62473333D01*
X162321429Y-62425714D01*
X162511906Y-62425714D01*
X162607144Y-62473333D01*
X163511906Y-63092381D02*
X163511906Y-62092381D01*
X163511906Y-63044762D02*
X163416668Y-63092381D01*
X163226191Y-63092381D01*
X163130953Y-63044762D01*
X163083334Y-62997143D01*
X163035715Y-62901905D01*
X163035715Y-62616190D01*
X163083334Y-62520952D01*
X163130953Y-62473333D01*
X163226191Y-62425714D01*
X163416668Y-62425714D01*
X163511906Y-62473333D01*
X164369049Y-63044762D02*
X164273811Y-63092381D01*
X164083334Y-63092381D01*
X163988096Y-63044762D01*
X163940477Y-62949524D01*
X163940477Y-62568571D01*
X163988096Y-62473333D01*
X164083334Y-62425714D01*
X164273811Y-62425714D01*
X164369049Y-62473333D01*
X164416668Y-62568571D01*
X164416668Y-62663810D01*
X163940477Y-62759048D01*
X164845239Y-63092381D02*
X164845239Y-62425714D01*
X164845239Y-62616190D02*
X164892858Y-62520952D01*
X164940477Y-62473333D01*
X165035715Y-62425714D01*
X165130954Y-62425714D01*
X166130954Y-62425714D02*
X166369049Y-63092381D01*
X166607145Y-62425714D01*
X167511907Y-63092381D02*
X166940478Y-63092381D01*
X167226192Y-63092381D02*
X167226192Y-62092381D01*
X167130954Y-62235238D01*
X167035716Y-62330476D01*
X166940478Y-62378095D01*
X149892857Y-64506667D02*
X150369048Y-64506667D01*
X149797619Y-64792381D02*
X150130952Y-63792381D01*
X150464286Y-64792381D01*
X151559524Y-64411429D02*
X152321429Y-64411429D01*
X151940477Y-64792381D02*
X151940477Y-64030476D01*
X153892858Y-64268571D02*
X154035715Y-64316190D01*
X154083334Y-64363810D01*
X154130953Y-64459048D01*
X154130953Y-64601905D01*
X154083334Y-64697143D01*
X154035715Y-64744762D01*
X153940477Y-64792381D01*
X153559524Y-64792381D01*
X153559524Y-63792381D01*
X153892858Y-63792381D01*
X153988096Y-63840000D01*
X154035715Y-63887619D01*
X154083334Y-63982857D01*
X154083334Y-64078095D01*
X154035715Y-64173333D01*
X153988096Y-64220952D01*
X153892858Y-64268571D01*
X153559524Y-64268571D01*
X155321429Y-64411429D02*
X156083334Y-64411429D01*
X155702382Y-64792381D02*
X155702382Y-64030476D01*
X157892858Y-64697143D02*
X157845239Y-64744762D01*
X157702382Y-64792381D01*
X157607144Y-64792381D01*
X157464286Y-64744762D01*
X157369048Y-64649524D01*
X157321429Y-64554286D01*
X157273810Y-64363810D01*
X157273810Y-64220952D01*
X157321429Y-64030476D01*
X157369048Y-63935238D01*
X157464286Y-63840000D01*
X157607144Y-63792381D01*
X157702382Y-63792381D01*
X157845239Y-63840000D01*
X157892858Y-63887619D01*
X158273810Y-64506667D02*
X158750001Y-64506667D01*
X158178572Y-64792381D02*
X158511905Y-63792381D01*
X158845239Y-64792381D01*
X159750001Y-64792381D02*
X159416667Y-64316190D01*
X159178572Y-64792381D02*
X159178572Y-63792381D01*
X159559525Y-63792381D01*
X159654763Y-63840000D01*
X159702382Y-63887619D01*
X159750001Y-63982857D01*
X159750001Y-64125714D01*
X159702382Y-64220952D01*
X159654763Y-64268571D01*
X159559525Y-64316190D01*
X159178572Y-64316190D01*
X160750001Y-64792381D02*
X160416667Y-64316190D01*
X160178572Y-64792381D02*
X160178572Y-63792381D01*
X160559525Y-63792381D01*
X160654763Y-63840000D01*
X160702382Y-63887619D01*
X160750001Y-63982857D01*
X160750001Y-64125714D01*
X160702382Y-64220952D01*
X160654763Y-64268571D01*
X160559525Y-64316190D01*
X160178572Y-64316190D01*
X161369048Y-64316190D02*
X161369048Y-64792381D01*
X161035715Y-63792381D02*
X161369048Y-64316190D01*
X161702382Y-63792381D01*
X161797620Y-64887619D02*
X162559525Y-64887619D01*
X162797620Y-64792381D02*
X162797620Y-63792381D01*
X163273810Y-64792381D02*
X163273810Y-63792381D01*
X163845239Y-64792381D01*
X163845239Y-63792381D01*
X165083334Y-64268571D02*
X165845239Y-64268571D01*
X165845239Y-64554286D02*
X165083334Y-64554286D01*
X167035715Y-64744762D02*
X167178572Y-64792381D01*
X167416668Y-64792381D01*
X167511906Y-64744762D01*
X167559525Y-64697143D01*
X167607144Y-64601905D01*
X167607144Y-64506667D01*
X167559525Y-64411429D01*
X167511906Y-64363810D01*
X167416668Y-64316190D01*
X167226191Y-64268571D01*
X167130953Y-64220952D01*
X167083334Y-64173333D01*
X167035715Y-64078095D01*
X167035715Y-63982857D01*
X167083334Y-63887619D01*
X167130953Y-63840000D01*
X167226191Y-63792381D01*
X167464287Y-63792381D01*
X167607144Y-63840000D01*
X153583333Y-65968571D02*
X153916667Y-65968571D01*
X154059524Y-66492381D02*
X153583333Y-66492381D01*
X153583333Y-65492381D01*
X154059524Y-65492381D01*
X154488095Y-66492381D02*
X154488095Y-65825714D01*
X154488095Y-65920952D02*
X154535714Y-65873333D01*
X154630952Y-65825714D01*
X154773810Y-65825714D01*
X154869048Y-65873333D01*
X154916667Y-65968571D01*
X154916667Y-66492381D01*
X154916667Y-65968571D02*
X154964286Y-65873333D01*
X155059524Y-65825714D01*
X155202381Y-65825714D01*
X155297619Y-65873333D01*
X155345238Y-65968571D01*
X155345238Y-66492381D01*
X155821428Y-66492381D02*
X155821428Y-65825714D01*
X155821428Y-65492381D02*
X155773809Y-65540000D01*
X155821428Y-65587619D01*
X155869047Y-65540000D01*
X155821428Y-65492381D01*
X155821428Y-65587619D01*
X156440475Y-66492381D02*
X156345237Y-66444762D01*
X156297618Y-66349524D01*
X156297618Y-65492381D01*
X158059524Y-66492381D02*
X157583333Y-66492381D01*
X157583333Y-65492381D01*
X158821429Y-65825714D02*
X158821429Y-66492381D01*
X158392857Y-65825714D02*
X158392857Y-66349524D01*
X158440476Y-66444762D01*
X158535714Y-66492381D01*
X158678572Y-66492381D01*
X158773810Y-66444762D01*
X158821429Y-66397143D01*
X159297619Y-65825714D02*
X159297619Y-66492381D01*
X159297619Y-65920952D02*
X159345238Y-65873333D01*
X159440476Y-65825714D01*
X159583334Y-65825714D01*
X159678572Y-65873333D01*
X159726191Y-65968571D01*
X159726191Y-66492381D01*
X160630953Y-66492381D02*
X160630953Y-65492381D01*
X160630953Y-66444762D02*
X160535715Y-66492381D01*
X160345238Y-66492381D01*
X160250000Y-66444762D01*
X160202381Y-66397143D01*
X160154762Y-66301905D01*
X160154762Y-66016190D01*
X160202381Y-65920952D01*
X160250000Y-65873333D01*
X160345238Y-65825714D01*
X160535715Y-65825714D01*
X160630953Y-65873333D01*
X161107143Y-66492381D02*
X161107143Y-65492381D01*
X161107143Y-65873333D02*
X161202381Y-65825714D01*
X161392858Y-65825714D01*
X161488096Y-65873333D01*
X161535715Y-65920952D01*
X161583334Y-66016190D01*
X161583334Y-66301905D01*
X161535715Y-66397143D01*
X161488096Y-66444762D01*
X161392858Y-66492381D01*
X161202381Y-66492381D01*
X161107143Y-66444762D01*
X162392858Y-66444762D02*
X162297620Y-66492381D01*
X162107143Y-66492381D01*
X162011905Y-66444762D01*
X161964286Y-66349524D01*
X161964286Y-65968571D01*
X162011905Y-65873333D01*
X162107143Y-65825714D01*
X162297620Y-65825714D01*
X162392858Y-65873333D01*
X162440477Y-65968571D01*
X162440477Y-66063810D01*
X161964286Y-66159048D01*
X162869048Y-66492381D02*
X162869048Y-65825714D01*
X162869048Y-66016190D02*
X162916667Y-65920952D01*
X162964286Y-65873333D01*
X163059524Y-65825714D01*
X163154763Y-65825714D01*
X163916668Y-65825714D02*
X163916668Y-66635238D01*
X163869049Y-66730476D01*
X163821430Y-66778095D01*
X163726191Y-66825714D01*
X163583334Y-66825714D01*
X163488096Y-66778095D01*
X163916668Y-66444762D02*
X163821430Y-66492381D01*
X163630953Y-66492381D01*
X163535715Y-66444762D01*
X163488096Y-66397143D01*
X163440477Y-66301905D01*
X163440477Y-66016190D01*
X163488096Y-65920952D01*
X163535715Y-65873333D01*
X163630953Y-65825714D01*
X163821430Y-65825714D01*
X163916668Y-65873333D01*
X153797620Y-68144762D02*
X153702382Y-68192381D01*
X153511905Y-68192381D01*
X153416667Y-68144762D01*
X153369048Y-68049524D01*
X153369048Y-67668571D01*
X153416667Y-67573333D01*
X153511905Y-67525714D01*
X153702382Y-67525714D01*
X153797620Y-67573333D01*
X153845239Y-67668571D01*
X153845239Y-67763810D01*
X153369048Y-67859048D01*
X154273810Y-68192381D02*
X154273810Y-67525714D01*
X154273810Y-67620952D02*
X154321429Y-67573333D01*
X154416667Y-67525714D01*
X154559525Y-67525714D01*
X154654763Y-67573333D01*
X154702382Y-67668571D01*
X154702382Y-68192381D01*
X154702382Y-67668571D02*
X154750001Y-67573333D01*
X154845239Y-67525714D01*
X154988096Y-67525714D01*
X155083334Y-67573333D01*
X155130953Y-67668571D01*
X155130953Y-68192381D01*
X155607143Y-68192381D02*
X155607143Y-67525714D01*
X155607143Y-67192381D02*
X155559524Y-67240000D01*
X155607143Y-67287619D01*
X155654762Y-67240000D01*
X155607143Y-67192381D01*
X155607143Y-67287619D01*
X156226190Y-68192381D02*
X156130952Y-68144762D01*
X156083333Y-68049524D01*
X156083333Y-67192381D01*
X157226191Y-67716190D02*
X157178572Y-67668571D01*
X157083334Y-67620952D01*
X156988096Y-67620952D01*
X156892858Y-67668571D01*
X156845238Y-67716190D01*
X156797619Y-67811429D01*
X156797619Y-67906667D01*
X156845238Y-68001905D01*
X156892858Y-68049524D01*
X156988096Y-68097143D01*
X157083334Y-68097143D01*
X157178572Y-68049524D01*
X157226191Y-68001905D01*
X157226191Y-67620952D02*
X157226191Y-68001905D01*
X157273810Y-68049524D01*
X157321429Y-68049524D01*
X157416667Y-68001905D01*
X157464286Y-67906667D01*
X157464286Y-67668571D01*
X157369048Y-67525714D01*
X157226191Y-67430476D01*
X157035715Y-67382857D01*
X156845238Y-67430476D01*
X156702381Y-67525714D01*
X156607143Y-67668571D01*
X156559524Y-67859048D01*
X156607143Y-68049524D01*
X156702381Y-68192381D01*
X156845238Y-68287619D01*
X157035715Y-68335238D01*
X157226191Y-68287619D01*
X157369048Y-68192381D01*
X158273810Y-68144762D02*
X158178572Y-68192381D01*
X157988095Y-68192381D01*
X157892857Y-68144762D01*
X157845238Y-68049524D01*
X157845238Y-67668571D01*
X157892857Y-67573333D01*
X157988095Y-67525714D01*
X158178572Y-67525714D01*
X158273810Y-67573333D01*
X158321429Y-67668571D01*
X158321429Y-67763810D01*
X157845238Y-67859048D01*
X158750000Y-68192381D02*
X158750000Y-67525714D01*
X158750000Y-67620952D02*
X158797619Y-67573333D01*
X158892857Y-67525714D01*
X159035715Y-67525714D01*
X159130953Y-67573333D01*
X159178572Y-67668571D01*
X159178572Y-68192381D01*
X159178572Y-67668571D02*
X159226191Y-67573333D01*
X159321429Y-67525714D01*
X159464286Y-67525714D01*
X159559524Y-67573333D01*
X159607143Y-67668571D01*
X159607143Y-68192381D01*
X160226190Y-68192381D02*
X160130952Y-68144762D01*
X160083333Y-68049524D01*
X160083333Y-67192381D01*
X161035715Y-67525714D02*
X161035715Y-68192381D01*
X160607143Y-67525714D02*
X160607143Y-68049524D01*
X160654762Y-68144762D01*
X160750000Y-68192381D01*
X160892858Y-68192381D01*
X160988096Y-68144762D01*
X161035715Y-68097143D01*
X161511905Y-67525714D02*
X161511905Y-68192381D01*
X161511905Y-67620952D02*
X161559524Y-67573333D01*
X161654762Y-67525714D01*
X161797620Y-67525714D01*
X161892858Y-67573333D01*
X161940477Y-67668571D01*
X161940477Y-68192381D01*
X162416667Y-68097143D02*
X162464286Y-68144762D01*
X162416667Y-68192381D01*
X162369048Y-68144762D01*
X162416667Y-68097143D01*
X162416667Y-68192381D01*
X162845238Y-68144762D02*
X162940476Y-68192381D01*
X163130952Y-68192381D01*
X163226191Y-68144762D01*
X163273810Y-68049524D01*
X163273810Y-68001905D01*
X163226191Y-67906667D01*
X163130952Y-67859048D01*
X162988095Y-67859048D01*
X162892857Y-67811429D01*
X162845238Y-67716190D01*
X162845238Y-67668571D01*
X162892857Y-67573333D01*
X162988095Y-67525714D01*
X163130952Y-67525714D01*
X163226191Y-67573333D01*
X164083334Y-68144762D02*
X163988096Y-68192381D01*
X163797619Y-68192381D01*
X163702381Y-68144762D01*
X163654762Y-68049524D01*
X163654762Y-67668571D01*
X163702381Y-67573333D01*
X163797619Y-67525714D01*
X163988096Y-67525714D01*
X164083334Y-67573333D01*
X164130953Y-67668571D01*
X164130953Y-67763810D01*
X163654762Y-67859048D01*
X153892857Y-68987619D02*
X153940476Y-68940000D01*
X154035714Y-68892381D01*
X154273810Y-68892381D01*
X154369048Y-68940000D01*
X154416667Y-68987619D01*
X154464286Y-69082857D01*
X154464286Y-69178095D01*
X154416667Y-69320952D01*
X153845238Y-69892381D01*
X154464286Y-69892381D01*
X155083333Y-68892381D02*
X155178572Y-68892381D01*
X155273810Y-68940000D01*
X155321429Y-68987619D01*
X155369048Y-69082857D01*
X155416667Y-69273333D01*
X155416667Y-69511429D01*
X155369048Y-69701905D01*
X155321429Y-69797143D01*
X155273810Y-69844762D01*
X155178572Y-69892381D01*
X155083333Y-69892381D01*
X154988095Y-69844762D01*
X154940476Y-69797143D01*
X154892857Y-69701905D01*
X154845238Y-69511429D01*
X154845238Y-69273333D01*
X154892857Y-69082857D01*
X154940476Y-68987619D01*
X154988095Y-68940000D01*
X155083333Y-68892381D01*
X156369048Y-69892381D02*
X155797619Y-69892381D01*
X156083333Y-69892381D02*
X156083333Y-68892381D01*
X155988095Y-69035238D01*
X155892857Y-69130476D01*
X155797619Y-69178095D01*
X156702381Y-68892381D02*
X157369048Y-68892381D01*
X156940476Y-69892381D01*
X157750000Y-69511429D02*
X158511905Y-69511429D01*
X159178571Y-68892381D02*
X159273810Y-68892381D01*
X159369048Y-68940000D01*
X159416667Y-68987619D01*
X159464286Y-69082857D01*
X159511905Y-69273333D01*
X159511905Y-69511429D01*
X159464286Y-69701905D01*
X159416667Y-69797143D01*
X159369048Y-69844762D01*
X159273810Y-69892381D01*
X159178571Y-69892381D01*
X159083333Y-69844762D01*
X159035714Y-69797143D01*
X158988095Y-69701905D01*
X158940476Y-69511429D01*
X158940476Y-69273333D01*
X158988095Y-69082857D01*
X159035714Y-68987619D01*
X159083333Y-68940000D01*
X159178571Y-68892381D01*
X159988095Y-69892381D02*
X160178571Y-69892381D01*
X160273810Y-69844762D01*
X160321429Y-69797143D01*
X160416667Y-69654286D01*
X160464286Y-69463810D01*
X160464286Y-69082857D01*
X160416667Y-68987619D01*
X160369048Y-68940000D01*
X160273810Y-68892381D01*
X160083333Y-68892381D01*
X159988095Y-68940000D01*
X159940476Y-68987619D01*
X159892857Y-69082857D01*
X159892857Y-69320952D01*
X159940476Y-69416190D01*
X159988095Y-69463810D01*
X160083333Y-69511429D01*
X160273810Y-69511429D01*
X160369048Y-69463810D01*
X160416667Y-69416190D01*
X160464286Y-69320952D01*
X160892857Y-69511429D02*
X161654762Y-69511429D01*
X162654762Y-69892381D02*
X162083333Y-69892381D01*
X162369047Y-69892381D02*
X162369047Y-68892381D01*
X162273809Y-69035238D01*
X162178571Y-69130476D01*
X162083333Y-69178095D01*
X162988095Y-68892381D02*
X163654762Y-68892381D01*
X163226190Y-69892381D01*
X117865238Y-148407381D02*
X117865238Y-147407381D01*
X118246191Y-147407381D01*
X118341429Y-147455000D01*
X118389048Y-147502619D01*
X118436667Y-147597857D01*
X118436667Y-147740714D01*
X118389048Y-147835952D01*
X118341429Y-147883571D01*
X118246191Y-147931190D01*
X117865238Y-147931190D01*
X118865238Y-148407381D02*
X118865238Y-147740714D01*
X118865238Y-147931190D02*
X118912857Y-147835952D01*
X118960476Y-147788333D01*
X119055714Y-147740714D01*
X119150953Y-147740714D01*
X119627143Y-148407381D02*
X119531905Y-148359762D01*
X119484286Y-148312143D01*
X119436667Y-148216905D01*
X119436667Y-147931190D01*
X119484286Y-147835952D01*
X119531905Y-147788333D01*
X119627143Y-147740714D01*
X119770001Y-147740714D01*
X119865239Y-147788333D01*
X119912858Y-147835952D01*
X119960477Y-147931190D01*
X119960477Y-148216905D01*
X119912858Y-148312143D01*
X119865239Y-148359762D01*
X119770001Y-148407381D01*
X119627143Y-148407381D01*
X120817620Y-148407381D02*
X120817620Y-147407381D01*
X120817620Y-148359762D02*
X120722382Y-148407381D01*
X120531905Y-148407381D01*
X120436667Y-148359762D01*
X120389048Y-148312143D01*
X120341429Y-148216905D01*
X120341429Y-147931190D01*
X120389048Y-147835952D01*
X120436667Y-147788333D01*
X120531905Y-147740714D01*
X120722382Y-147740714D01*
X120817620Y-147788333D01*
X121722382Y-147740714D02*
X121722382Y-148407381D01*
X121293810Y-147740714D02*
X121293810Y-148264524D01*
X121341429Y-148359762D01*
X121436667Y-148407381D01*
X121579525Y-148407381D01*
X121674763Y-148359762D01*
X121722382Y-148312143D01*
X122627144Y-148359762D02*
X122531906Y-148407381D01*
X122341429Y-148407381D01*
X122246191Y-148359762D01*
X122198572Y-148312143D01*
X122150953Y-148216905D01*
X122150953Y-147931190D01*
X122198572Y-147835952D01*
X122246191Y-147788333D01*
X122341429Y-147740714D01*
X122531906Y-147740714D01*
X122627144Y-147788333D01*
X122912858Y-147740714D02*
X123293810Y-147740714D01*
X123055715Y-147407381D02*
X123055715Y-148264524D01*
X123103334Y-148359762D01*
X123198572Y-148407381D01*
X123293810Y-148407381D01*
X123627144Y-148407381D02*
X123627144Y-147740714D01*
X123627144Y-147407381D02*
X123579525Y-147455000D01*
X123627144Y-147502619D01*
X123674763Y-147455000D01*
X123627144Y-147407381D01*
X123627144Y-147502619D01*
X124246191Y-148407381D02*
X124150953Y-148359762D01*
X124103334Y-148312143D01*
X124055715Y-148216905D01*
X124055715Y-147931190D01*
X124103334Y-147835952D01*
X124150953Y-147788333D01*
X124246191Y-147740714D01*
X124389049Y-147740714D01*
X124484287Y-147788333D01*
X124531906Y-147835952D01*
X124579525Y-147931190D01*
X124579525Y-148216905D01*
X124531906Y-148312143D01*
X124484287Y-148359762D01*
X124389049Y-148407381D01*
X124246191Y-148407381D01*
X125008096Y-147740714D02*
X125008096Y-148407381D01*
X125008096Y-147835952D02*
X125055715Y-147788333D01*
X125150953Y-147740714D01*
X125293811Y-147740714D01*
X125389049Y-147788333D01*
X125436668Y-147883571D01*
X125436668Y-148407381D01*
X125912858Y-148312143D02*
X125960477Y-148359762D01*
X125912858Y-148407381D01*
X125865239Y-148359762D01*
X125912858Y-148312143D01*
X125912858Y-148407381D01*
X125912858Y-147788333D02*
X125960477Y-147835952D01*
X125912858Y-147883571D01*
X125865239Y-147835952D01*
X125912858Y-147788333D01*
X125912858Y-147883571D01*
X127150953Y-148407381D02*
X127150953Y-147407381D01*
X127579525Y-148407381D02*
X127579525Y-147883571D01*
X127531906Y-147788333D01*
X127436668Y-147740714D01*
X127293810Y-147740714D01*
X127198572Y-147788333D01*
X127150953Y-147835952D01*
X127912858Y-147740714D02*
X128293810Y-147740714D01*
X128055715Y-147407381D02*
X128055715Y-148264524D01*
X128103334Y-148359762D01*
X128198572Y-148407381D01*
X128293810Y-148407381D01*
X128484287Y-147740714D02*
X128865239Y-147740714D01*
X128627144Y-147407381D02*
X128627144Y-148264524D01*
X128674763Y-148359762D01*
X128770001Y-148407381D01*
X128865239Y-148407381D01*
X129198573Y-147740714D02*
X129198573Y-148740714D01*
X129198573Y-147788333D02*
X129293811Y-147740714D01*
X129484288Y-147740714D01*
X129579526Y-147788333D01*
X129627145Y-147835952D01*
X129674764Y-147931190D01*
X129674764Y-148216905D01*
X129627145Y-148312143D01*
X129579526Y-148359762D01*
X129484288Y-148407381D01*
X129293811Y-148407381D01*
X129198573Y-148359762D01*
X130055716Y-148359762D02*
X130150954Y-148407381D01*
X130341430Y-148407381D01*
X130436669Y-148359762D01*
X130484288Y-148264524D01*
X130484288Y-148216905D01*
X130436669Y-148121667D01*
X130341430Y-148074048D01*
X130198573Y-148074048D01*
X130103335Y-148026429D01*
X130055716Y-147931190D01*
X130055716Y-147883571D01*
X130103335Y-147788333D01*
X130198573Y-147740714D01*
X130341430Y-147740714D01*
X130436669Y-147788333D01*
X130912859Y-148312143D02*
X130960478Y-148359762D01*
X130912859Y-148407381D01*
X130865240Y-148359762D01*
X130912859Y-148312143D01*
X130912859Y-148407381D01*
X130912859Y-147788333D02*
X130960478Y-147835952D01*
X130912859Y-147883571D01*
X130865240Y-147835952D01*
X130912859Y-147788333D01*
X130912859Y-147883571D01*
X132103335Y-147359762D02*
X131246192Y-148645476D01*
X133150954Y-147359762D02*
X132293811Y-148645476D01*
X133484287Y-148407381D02*
X133484287Y-147407381D01*
X133865240Y-147407381D01*
X133960478Y-147455000D01*
X134008097Y-147502619D01*
X134055716Y-147597857D01*
X134055716Y-147740714D01*
X134008097Y-147835952D01*
X133960478Y-147883571D01*
X133865240Y-147931190D01*
X133484287Y-147931190D01*
X135055716Y-148312143D02*
X135008097Y-148359762D01*
X134865240Y-148407381D01*
X134770002Y-148407381D01*
X134627144Y-148359762D01*
X134531906Y-148264524D01*
X134484287Y-148169286D01*
X134436668Y-147978810D01*
X134436668Y-147835952D01*
X134484287Y-147645476D01*
X134531906Y-147550238D01*
X134627144Y-147455000D01*
X134770002Y-147407381D01*
X134865240Y-147407381D01*
X135008097Y-147455000D01*
X135055716Y-147502619D01*
X135817621Y-147883571D02*
X135960478Y-147931190D01*
X136008097Y-147978810D01*
X136055716Y-148074048D01*
X136055716Y-148216905D01*
X136008097Y-148312143D01*
X135960478Y-148359762D01*
X135865240Y-148407381D01*
X135484287Y-148407381D01*
X135484287Y-147407381D01*
X135817621Y-147407381D01*
X135912859Y-147455000D01*
X135960478Y-147502619D01*
X136008097Y-147597857D01*
X136008097Y-147693095D01*
X135960478Y-147788333D01*
X135912859Y-147835952D01*
X135817621Y-147883571D01*
X135484287Y-147883571D01*
X136436668Y-148359762D02*
X136531906Y-148407381D01*
X136722382Y-148407381D01*
X136817621Y-148359762D01*
X136865240Y-148264524D01*
X136865240Y-148216905D01*
X136817621Y-148121667D01*
X136722382Y-148074048D01*
X136579525Y-148074048D01*
X136484287Y-148026429D01*
X136436668Y-147931190D01*
X136436668Y-147883571D01*
X136484287Y-147788333D01*
X136579525Y-147740714D01*
X136722382Y-147740714D01*
X136817621Y-147788333D01*
X137293811Y-148312143D02*
X137341430Y-148359762D01*
X137293811Y-148407381D01*
X137246192Y-148359762D01*
X137293811Y-148312143D01*
X137293811Y-148407381D01*
X137770001Y-148407381D02*
X137770001Y-147740714D01*
X137770001Y-147407381D02*
X137722382Y-147455000D01*
X137770001Y-147502619D01*
X137817620Y-147455000D01*
X137770001Y-147407381D01*
X137770001Y-147502619D01*
X138389048Y-148407381D02*
X138293810Y-148359762D01*
X138246191Y-148312143D01*
X138198572Y-148216905D01*
X138198572Y-147931190D01*
X138246191Y-147835952D01*
X138293810Y-147788333D01*
X138389048Y-147740714D01*
X138531906Y-147740714D01*
X138627144Y-147788333D01*
X138674763Y-147835952D01*
X138722382Y-147931190D01*
X138722382Y-148216905D01*
X138674763Y-148312143D01*
X138627144Y-148359762D01*
X138531906Y-148407381D01*
X138389048Y-148407381D01*
D12*
X207010000Y-109220000D03*
X207010000Y-106680000D03*
D13*
X207010000Y-111760000D03*
D12*
X207010000Y-88900000D03*
X207010000Y-86360000D03*
D13*
X207010000Y-91440000D03*
D12*
X130810000Y-63500000D03*
D14*
X125730000Y-63500000D03*
D12*
X171450000Y-137160000D03*
X171450000Y-139700000D03*
D13*
X171450000Y-134620000D03*
D12*
X176530000Y-137160000D03*
X176530000Y-139700000D03*
D13*
X176530000Y-134620000D03*
D12*
X181610000Y-137160000D03*
X181610000Y-139700000D03*
D13*
X181610000Y-134620000D03*
D12*
X186690000Y-137160000D03*
X186690000Y-139700000D03*
D13*
X186690000Y-134620000D03*
D12*
X171450000Y-129540000D03*
X171450000Y-127000000D03*
D13*
X171450000Y-132080000D03*
D12*
X176530000Y-129540000D03*
X176530000Y-127000000D03*
D13*
X176530000Y-132080000D03*
D12*
X181610000Y-129540000D03*
X181610000Y-127000000D03*
D13*
X181610000Y-132080000D03*
D12*
X191770000Y-144780000D03*
D14*
X186690000Y-144780000D03*
D12*
X171450000Y-142240000D03*
D14*
X176530000Y-142240000D03*
D12*
X207010000Y-142240000D03*
D14*
X201930000Y-142240000D03*
D12*
X167640000Y-120650000D03*
D14*
X167640000Y-125730000D03*
D15*
X160020000Y-144780000D03*
X157480000Y-144780000D03*
D12*
X167640000Y-137160000D03*
X165100000Y-137160000D03*
X162560000Y-137160000D03*
X160020000Y-137160000D03*
X157480000Y-137160000D03*
X154940000Y-137160000D03*
X152400000Y-137160000D03*
X149860000Y-137160000D03*
X167640000Y-142240000D03*
X165100000Y-142240000D03*
X162560000Y-142240000D03*
X160020000Y-142240000D03*
X157480000Y-142240000D03*
X154940000Y-142240000D03*
X152400000Y-142240000D03*
X149860000Y-142240000D03*
X171450000Y-116840000D03*
X171450000Y-119380000D03*
D13*
X171450000Y-114300000D03*
D12*
X176530000Y-116840000D03*
X176530000Y-119380000D03*
D13*
X176530000Y-114300000D03*
D12*
X181610000Y-116840000D03*
X181610000Y-119380000D03*
D13*
X181610000Y-114300000D03*
D12*
X186690000Y-116840000D03*
X186690000Y-119380000D03*
D13*
X186690000Y-114300000D03*
D12*
X191770000Y-116840000D03*
X191770000Y-119380000D03*
D13*
X191770000Y-114300000D03*
D12*
X196850000Y-116840000D03*
X196850000Y-119380000D03*
D13*
X196850000Y-114300000D03*
D12*
X201930000Y-116840000D03*
X201930000Y-119380000D03*
D13*
X201930000Y-114300000D03*
D12*
X186690000Y-124460000D03*
D14*
X191770000Y-124460000D03*
D12*
X194310000Y-124460000D03*
D14*
X199390000Y-124460000D03*
D12*
X201930000Y-124460000D03*
D14*
X207010000Y-124460000D03*
D12*
X171450000Y-121920000D03*
D14*
X176530000Y-121920000D03*
D12*
X191770000Y-137160000D03*
X191770000Y-139700000D03*
D13*
X191770000Y-134620000D03*
D12*
X196850000Y-137160000D03*
X196850000Y-139700000D03*
D13*
X196850000Y-134620000D03*
D12*
X201930000Y-137160000D03*
X201930000Y-139700000D03*
D13*
X201930000Y-134620000D03*
D12*
X207010000Y-137160000D03*
X207010000Y-139700000D03*
D13*
X207010000Y-134620000D03*
D12*
X186690000Y-129540000D03*
X186690000Y-127000000D03*
D13*
X186690000Y-132080000D03*
D12*
X191770000Y-129540000D03*
X191770000Y-127000000D03*
D13*
X191770000Y-132080000D03*
D12*
X196850000Y-129540000D03*
X196850000Y-127000000D03*
D13*
X196850000Y-132080000D03*
D12*
X201930000Y-129540000D03*
X201930000Y-127000000D03*
D13*
X201930000Y-132080000D03*
D12*
X207010000Y-129540000D03*
X207010000Y-127000000D03*
D13*
X207010000Y-132080000D03*
D12*
X181610000Y-142240000D03*
D14*
X186690000Y-142240000D03*
D12*
X191770000Y-142240000D03*
D14*
X196850000Y-142240000D03*
D12*
X167640000Y-128270000D03*
D14*
X167640000Y-133350000D03*
D12*
X176530000Y-124460000D03*
D14*
X171450000Y-124460000D03*
D12*
X179070000Y-124460000D03*
D14*
X184150000Y-124460000D03*
D12*
X207010000Y-116840000D03*
X207010000Y-119380000D03*
D13*
X207010000Y-114300000D03*
D12*
X171450000Y-109220000D03*
X171450000Y-106680000D03*
D13*
X171450000Y-111760000D03*
D12*
X176530000Y-109220000D03*
X176530000Y-106680000D03*
D13*
X176530000Y-111760000D03*
D12*
X181610000Y-109220000D03*
X181610000Y-106680000D03*
D13*
X181610000Y-111760000D03*
D12*
X186690000Y-109220000D03*
X186690000Y-106680000D03*
D13*
X186690000Y-111760000D03*
D12*
X191770000Y-109220000D03*
X191770000Y-106680000D03*
D13*
X191770000Y-111760000D03*
D12*
X196850000Y-109220000D03*
X196850000Y-106680000D03*
D13*
X196850000Y-111760000D03*
D12*
X201930000Y-109220000D03*
X201930000Y-106680000D03*
D13*
X201930000Y-111760000D03*
D12*
X171450000Y-96520000D03*
X171450000Y-99060000D03*
D13*
X171450000Y-93980000D03*
D12*
X176530000Y-96520000D03*
X176530000Y-99060000D03*
D13*
X176530000Y-93980000D03*
D12*
X181610000Y-96520000D03*
X181610000Y-99060000D03*
D13*
X181610000Y-93980000D03*
D12*
X186690000Y-96520000D03*
X186690000Y-99060000D03*
D13*
X186690000Y-93980000D03*
D12*
X191770000Y-96520000D03*
X191770000Y-99060000D03*
D13*
X191770000Y-93980000D03*
D12*
X196850000Y-96520000D03*
X196850000Y-99060000D03*
D13*
X196850000Y-93980000D03*
D12*
X201930000Y-96520000D03*
X201930000Y-99060000D03*
D13*
X201930000Y-93980000D03*
D12*
X207010000Y-96520000D03*
X207010000Y-99060000D03*
D13*
X207010000Y-93980000D03*
D12*
X171450000Y-88900000D03*
X171450000Y-86360000D03*
D13*
X171450000Y-91440000D03*
D12*
X176530000Y-88900000D03*
X176530000Y-86360000D03*
D13*
X176530000Y-91440000D03*
D12*
X181610000Y-88900000D03*
X181610000Y-86360000D03*
D13*
X181610000Y-91440000D03*
D12*
X186690000Y-88900000D03*
X186690000Y-86360000D03*
D13*
X186690000Y-91440000D03*
D12*
X191770000Y-88900000D03*
X191770000Y-86360000D03*
D13*
X191770000Y-91440000D03*
D12*
X196850000Y-88900000D03*
X196850000Y-86360000D03*
D13*
X196850000Y-91440000D03*
D12*
X201930000Y-88900000D03*
X201930000Y-86360000D03*
D13*
X201930000Y-91440000D03*
D12*
X171450000Y-76200000D03*
X171450000Y-78740000D03*
D13*
X171450000Y-73660000D03*
D12*
X176530000Y-76200000D03*
X176530000Y-78740000D03*
D13*
X176530000Y-73660000D03*
D12*
X181610000Y-76200000D03*
X181610000Y-78740000D03*
D13*
X181610000Y-73660000D03*
D12*
X186690000Y-76200000D03*
X186690000Y-78740000D03*
D13*
X186690000Y-73660000D03*
D12*
X191770000Y-76200000D03*
X191770000Y-78740000D03*
D13*
X191770000Y-73660000D03*
D12*
X196850000Y-76200000D03*
X196850000Y-78740000D03*
D13*
X196850000Y-73660000D03*
D12*
X201930000Y-76200000D03*
X201930000Y-78740000D03*
D13*
X201930000Y-73660000D03*
D12*
X181610000Y-121920000D03*
D14*
X186690000Y-121920000D03*
D12*
X191770000Y-121920000D03*
D14*
X196850000Y-121920000D03*
D12*
X207010000Y-121920000D03*
D14*
X201930000Y-121920000D03*
D12*
X165100000Y-113030000D03*
D14*
X165100000Y-118110000D03*
D12*
X167640000Y-113030000D03*
D14*
X167640000Y-118110000D03*
D12*
X176530000Y-104140000D03*
D14*
X171450000Y-104140000D03*
D12*
X179070000Y-104140000D03*
D14*
X184150000Y-104140000D03*
D12*
X186690000Y-104140000D03*
D14*
X191770000Y-104140000D03*
D12*
X194310000Y-104140000D03*
D14*
X199390000Y-104140000D03*
D12*
X201930000Y-104140000D03*
D14*
X207010000Y-104140000D03*
D12*
X171450000Y-101600000D03*
D14*
X176530000Y-101600000D03*
D12*
X181610000Y-101600000D03*
D14*
X186690000Y-101600000D03*
D12*
X191770000Y-101600000D03*
D14*
X196850000Y-101600000D03*
D12*
X207010000Y-101600000D03*
D14*
X201930000Y-101600000D03*
D12*
X162560000Y-92710000D03*
D14*
X162560000Y-97790000D03*
D12*
X165100000Y-92710000D03*
D14*
X165100000Y-97790000D03*
D12*
X176530000Y-83820000D03*
D14*
X171450000Y-83820000D03*
D12*
X179070000Y-83820000D03*
D14*
X184150000Y-83820000D03*
D12*
X147320000Y-144780000D03*
X207010000Y-76200000D03*
X207010000Y-78740000D03*
D13*
X207010000Y-73660000D03*
D12*
X171450000Y-68580000D03*
X171450000Y-66040000D03*
D13*
X171450000Y-71120000D03*
D12*
X176530000Y-68580000D03*
X176530000Y-66040000D03*
D13*
X176530000Y-71120000D03*
D12*
X181610000Y-68580000D03*
X181610000Y-66040000D03*
D13*
X181610000Y-71120000D03*
D12*
X186690000Y-68580000D03*
X186690000Y-66040000D03*
D13*
X186690000Y-71120000D03*
D12*
X191770000Y-68580000D03*
X191770000Y-66040000D03*
D13*
X191770000Y-71120000D03*
D12*
X196850000Y-68580000D03*
X196850000Y-66040000D03*
D13*
X196850000Y-71120000D03*
D12*
X201930000Y-68580000D03*
X201930000Y-66040000D03*
D13*
X201930000Y-71120000D03*
D12*
X207010000Y-68580000D03*
X207010000Y-66040000D03*
D13*
X207010000Y-71120000D03*
D12*
X146050000Y-76200000D03*
X146050000Y-78740000D03*
D13*
X146050000Y-73660000D03*
D12*
X140970000Y-76200000D03*
X140970000Y-78740000D03*
D13*
X140970000Y-73660000D03*
D12*
X135890000Y-76200000D03*
X135890000Y-78740000D03*
D13*
X135890000Y-73660000D03*
D12*
X130810000Y-76200000D03*
X130810000Y-78740000D03*
D13*
X130810000Y-73660000D03*
D12*
X125730000Y-76200000D03*
X125730000Y-78740000D03*
D13*
X125730000Y-73660000D03*
D12*
X120650000Y-76200000D03*
X120650000Y-78740000D03*
D13*
X120650000Y-73660000D03*
D12*
X115570000Y-76200000D03*
X115570000Y-78740000D03*
D13*
X115570000Y-73660000D03*
D12*
X110490000Y-76200000D03*
X110490000Y-78740000D03*
D13*
X110490000Y-73660000D03*
D12*
X146050000Y-68580000D03*
X146050000Y-66040000D03*
D13*
X146050000Y-71120000D03*
D12*
X140970000Y-68580000D03*
X140970000Y-66040000D03*
D13*
X140970000Y-71120000D03*
D12*
X135890000Y-68580000D03*
X135890000Y-66040000D03*
D13*
X135890000Y-71120000D03*
D12*
X130810000Y-68580000D03*
X130810000Y-66040000D03*
D13*
X130810000Y-71120000D03*
D12*
X125730000Y-68580000D03*
X125730000Y-66040000D03*
D13*
X125730000Y-71120000D03*
D12*
X120650000Y-68580000D03*
X120650000Y-66040000D03*
D13*
X120650000Y-71120000D03*
D12*
X115570000Y-68580000D03*
X115570000Y-66040000D03*
D13*
X115570000Y-71120000D03*
D12*
X110490000Y-68580000D03*
X110490000Y-66040000D03*
D13*
X110490000Y-71120000D03*
D12*
X146050000Y-96520000D03*
X146050000Y-99060000D03*
D13*
X146050000Y-93980000D03*
D12*
X140970000Y-96520000D03*
X140970000Y-99060000D03*
D13*
X140970000Y-93980000D03*
D12*
X135890000Y-96520000D03*
X135890000Y-99060000D03*
D13*
X135890000Y-93980000D03*
D12*
X130810000Y-96520000D03*
X130810000Y-99060000D03*
D13*
X130810000Y-93980000D03*
D12*
X125730000Y-96520000D03*
X125730000Y-99060000D03*
D13*
X125730000Y-93980000D03*
D12*
X120650000Y-96520000D03*
X120650000Y-99060000D03*
D13*
X120650000Y-93980000D03*
D12*
X115570000Y-96520000D03*
X115570000Y-99060000D03*
D13*
X115570000Y-93980000D03*
D12*
X110490000Y-96520000D03*
X110490000Y-99060000D03*
D13*
X110490000Y-93980000D03*
D12*
X146050000Y-88900000D03*
X146050000Y-86360000D03*
D13*
X146050000Y-91440000D03*
D12*
X140970000Y-88900000D03*
X140970000Y-86360000D03*
D13*
X140970000Y-91440000D03*
D12*
X135890000Y-88900000D03*
X135890000Y-86360000D03*
D13*
X135890000Y-91440000D03*
D12*
X130810000Y-88900000D03*
X130810000Y-86360000D03*
D13*
X130810000Y-91440000D03*
D12*
X125730000Y-88900000D03*
X125730000Y-86360000D03*
D13*
X125730000Y-91440000D03*
D12*
X120650000Y-88900000D03*
X120650000Y-86360000D03*
D13*
X120650000Y-91440000D03*
D12*
X115570000Y-88900000D03*
X115570000Y-86360000D03*
D13*
X115570000Y-91440000D03*
D12*
X110490000Y-88900000D03*
X110490000Y-86360000D03*
D13*
X110490000Y-91440000D03*
D12*
X146050000Y-116840000D03*
X146050000Y-119380000D03*
D13*
X146050000Y-114300000D03*
D12*
X140970000Y-116840000D03*
X140970000Y-119380000D03*
D13*
X140970000Y-114300000D03*
D12*
X135890000Y-116840000D03*
X135890000Y-119380000D03*
D13*
X135890000Y-114300000D03*
D12*
X130810000Y-116840000D03*
X130810000Y-119380000D03*
D13*
X130810000Y-114300000D03*
D12*
X125730000Y-116840000D03*
X125730000Y-119380000D03*
D13*
X125730000Y-114300000D03*
D12*
X120650000Y-116840000D03*
X120650000Y-119380000D03*
D13*
X120650000Y-114300000D03*
D12*
X115570000Y-116840000D03*
X115570000Y-119380000D03*
D13*
X115570000Y-114300000D03*
D12*
X110490000Y-116840000D03*
X110490000Y-119380000D03*
D13*
X110490000Y-114300000D03*
D12*
X146050000Y-109220000D03*
X146050000Y-106680000D03*
D13*
X146050000Y-111760000D03*
D12*
X140970000Y-109220000D03*
X140970000Y-106680000D03*
D13*
X140970000Y-111760000D03*
D12*
X135890000Y-109220000D03*
X135890000Y-106680000D03*
D13*
X135890000Y-111760000D03*
D12*
X130810000Y-109220000D03*
X130810000Y-106680000D03*
D13*
X130810000Y-111760000D03*
D12*
X125730000Y-109220000D03*
X125730000Y-106680000D03*
D13*
X125730000Y-111760000D03*
D12*
X120650000Y-109220000D03*
X120650000Y-106680000D03*
D13*
X120650000Y-111760000D03*
D12*
X115570000Y-109220000D03*
X115570000Y-106680000D03*
D13*
X115570000Y-111760000D03*
D12*
X110490000Y-109220000D03*
X110490000Y-106680000D03*
D13*
X110490000Y-111760000D03*
D12*
X146050000Y-137160000D03*
X146050000Y-139700000D03*
D13*
X146050000Y-134620000D03*
D12*
X140970000Y-137160000D03*
X140970000Y-139700000D03*
D13*
X140970000Y-134620000D03*
D12*
X135890000Y-137160000D03*
X135890000Y-139700000D03*
D13*
X135890000Y-134620000D03*
D12*
X130810000Y-137160000D03*
X130810000Y-139700000D03*
D13*
X130810000Y-134620000D03*
D12*
X125730000Y-137160000D03*
X125730000Y-139700000D03*
D13*
X125730000Y-134620000D03*
D12*
X120650000Y-137160000D03*
X120650000Y-139700000D03*
D13*
X120650000Y-134620000D03*
D12*
X115570000Y-137160000D03*
X115570000Y-139700000D03*
D13*
X115570000Y-134620000D03*
D12*
X186690000Y-83820000D03*
D14*
X191770000Y-83820000D03*
D12*
X194310000Y-83820000D03*
D14*
X199390000Y-83820000D03*
D12*
X201930000Y-83820000D03*
D14*
X207010000Y-83820000D03*
D12*
X171450000Y-81280000D03*
D14*
X176530000Y-81280000D03*
D12*
X181610000Y-81280000D03*
D14*
X186690000Y-81280000D03*
D12*
X191770000Y-81280000D03*
D14*
X196850000Y-81280000D03*
D12*
X207010000Y-81280000D03*
D14*
X201930000Y-81280000D03*
D12*
X160020000Y-72390000D03*
D14*
X160020000Y-77470000D03*
D12*
X162560000Y-72390000D03*
D14*
X162560000Y-77470000D03*
D12*
X176530000Y-63500000D03*
D14*
X171450000Y-63500000D03*
D12*
X179070000Y-63500000D03*
D14*
X184150000Y-63500000D03*
D12*
X186690000Y-63500000D03*
D14*
X191770000Y-63500000D03*
D12*
X194310000Y-63500000D03*
D14*
X199390000Y-63500000D03*
D12*
X201930000Y-63500000D03*
D14*
X207010000Y-63500000D03*
D12*
X146050000Y-81280000D03*
D14*
X140970000Y-81280000D03*
D12*
X135890000Y-81280000D03*
D14*
X130810000Y-81280000D03*
D12*
X125730000Y-81280000D03*
D14*
X120650000Y-81280000D03*
D12*
X110490000Y-81280000D03*
D14*
X115570000Y-81280000D03*
D12*
X157480000Y-72390000D03*
D14*
X157480000Y-77470000D03*
D12*
X154940000Y-72390000D03*
D14*
X154940000Y-77470000D03*
D12*
X140970000Y-63500000D03*
D14*
X146050000Y-63500000D03*
D12*
X138430000Y-63500000D03*
D14*
X133350000Y-63500000D03*
D12*
X123190000Y-63500000D03*
D14*
X118110000Y-63500000D03*
D12*
X115570000Y-63500000D03*
D14*
X110490000Y-63500000D03*
D12*
X146050000Y-101600000D03*
D14*
X140970000Y-101600000D03*
D12*
X135890000Y-101600000D03*
D14*
X130810000Y-101600000D03*
D12*
X125730000Y-101600000D03*
D14*
X120650000Y-101600000D03*
D12*
X110490000Y-101600000D03*
D14*
X115570000Y-101600000D03*
D12*
X154940000Y-92710000D03*
D14*
X154940000Y-97790000D03*
D12*
X152400000Y-92710000D03*
D14*
X152400000Y-97790000D03*
D12*
X140970000Y-83820000D03*
D14*
X146050000Y-83820000D03*
D12*
X138430000Y-83820000D03*
D14*
X133350000Y-83820000D03*
D12*
X130810000Y-83820000D03*
D14*
X125730000Y-83820000D03*
D12*
X123190000Y-83820000D03*
D14*
X118110000Y-83820000D03*
D12*
X115570000Y-83820000D03*
D14*
X110490000Y-83820000D03*
D12*
X146050000Y-121920000D03*
D14*
X140970000Y-121920000D03*
D12*
X135890000Y-121920000D03*
D14*
X130810000Y-121920000D03*
D12*
X125730000Y-121920000D03*
D14*
X120650000Y-121920000D03*
D12*
X110490000Y-121920000D03*
D14*
X115570000Y-121920000D03*
D12*
X152400000Y-113030000D03*
D14*
X152400000Y-118110000D03*
D12*
X149860000Y-113030000D03*
D14*
X149860000Y-118110000D03*
D12*
X140970000Y-104140000D03*
D14*
X146050000Y-104140000D03*
D12*
X138430000Y-104140000D03*
D14*
X133350000Y-104140000D03*
D12*
X130810000Y-104140000D03*
D14*
X125730000Y-104140000D03*
D12*
X123190000Y-104140000D03*
D14*
X118110000Y-104140000D03*
D12*
X115570000Y-104140000D03*
D14*
X110490000Y-104140000D03*
D12*
X146050000Y-142240000D03*
D14*
X140970000Y-142240000D03*
D12*
X135890000Y-142240000D03*
D14*
X130810000Y-142240000D03*
D12*
X125730000Y-142240000D03*
D14*
X120650000Y-142240000D03*
D12*
X110490000Y-142240000D03*
D14*
X115570000Y-142240000D03*
D12*
X149860000Y-120650000D03*
D14*
X149860000Y-125730000D03*
D12*
X167640000Y-139700000D03*
X165100000Y-139700000D03*
X162560000Y-139700000D03*
X160020000Y-139700000D03*
X157480000Y-139700000D03*
X154940000Y-139700000D03*
X152400000Y-139700000D03*
X149860000Y-139700000D03*
X110490000Y-137160000D03*
X110490000Y-139700000D03*
D13*
X110490000Y-134620000D03*
D12*
X146050000Y-129540000D03*
X146050000Y-127000000D03*
D13*
X146050000Y-132080000D03*
D12*
X140970000Y-129540000D03*
X140970000Y-127000000D03*
D13*
X140970000Y-132080000D03*
D12*
X135890000Y-129540000D03*
X135890000Y-127000000D03*
D13*
X135890000Y-132080000D03*
D12*
X130810000Y-129540000D03*
X130810000Y-127000000D03*
D13*
X130810000Y-132080000D03*
D12*
X125730000Y-129540000D03*
X125730000Y-127000000D03*
D13*
X125730000Y-132080000D03*
D12*
X120650000Y-129540000D03*
X120650000Y-127000000D03*
D13*
X120650000Y-132080000D03*
D12*
X115570000Y-129540000D03*
X115570000Y-127000000D03*
D13*
X115570000Y-132080000D03*
D12*
X110490000Y-129540000D03*
X110490000Y-127000000D03*
D13*
X110490000Y-132080000D03*
D12*
X149860000Y-128270000D03*
D14*
X149860000Y-133350000D03*
D12*
X140970000Y-124460000D03*
D14*
X146050000Y-124460000D03*
D12*
X138430000Y-124460000D03*
D14*
X133350000Y-124460000D03*
D12*
X130810000Y-124460000D03*
D14*
X125730000Y-124460000D03*
D12*
X123190000Y-124460000D03*
D14*
X118110000Y-124460000D03*
D12*
X115570000Y-124460000D03*
D14*
X110490000Y-124460000D03*
D12*
X170180000Y-144780000D03*
D16*
X210820000Y-147320000D03*
X210820000Y-63500000D03*
X106680000Y-63500000D03*
X106680000Y-147320000D03*
M02*
