M48
;DRILL file {KiCad 4.0.6} date Mon Sep 18 01:29:56 2017
;FORMAT={-:-/ absolute / inch / decimal}
FMAT,2
INCH,TZ
T1C0.026
T2C0.028
T3C0.030
T4C0.087
%
G90
G05
M72
T1
X6.75Y-5.3
X7.15Y-5.2
X7.35Y-5.3
T2
X4.35Y-2.5
X4.35Y-2.6
X4.35Y-2.7
X4.35Y-2.8
X4.35Y-2.9
X4.35Y-3.
X4.35Y-3.1
X4.35Y-3.2
X4.35Y-3.3
X4.35Y-3.4
X4.35Y-3.5
X4.35Y-3.6
X4.35Y-3.7
X4.35Y-3.8
X4.35Y-3.9
X4.35Y-4.
X4.35Y-4.1
X4.35Y-4.2
X4.35Y-4.3
X4.35Y-4.4
X4.35Y-4.5
X4.35Y-4.6
X4.35Y-4.7
X4.35Y-4.8
X4.35Y-4.9
X4.35Y-5.
X4.35Y-5.1
X4.35Y-5.2
X4.35Y-5.3
X4.35Y-5.4
X4.35Y-5.5
X4.35Y-5.6
X4.55Y-2.5
X4.55Y-2.6
X4.55Y-2.7
X4.55Y-2.8
X4.55Y-2.9
X4.55Y-3.
X4.55Y-3.1
X4.55Y-3.2
X4.55Y-3.3
X4.55Y-3.4
X4.55Y-3.5
X4.55Y-3.6
X4.55Y-3.7
X4.55Y-3.8
X4.55Y-3.9
X4.55Y-4.
X4.55Y-4.1
X4.55Y-4.2
X4.55Y-4.3
X4.55Y-4.4
X4.55Y-4.5
X4.55Y-4.6
X4.55Y-4.7
X4.55Y-4.8
X4.55Y-4.9
X4.55Y-5.
X4.55Y-5.1
X4.55Y-5.2
X4.55Y-5.3
X4.55Y-5.4
X4.55Y-5.5
X4.55Y-5.6
X4.65Y-2.5
X4.65Y-3.3
X4.65Y-4.1
X4.65Y-4.9
X4.75Y-2.6
X4.75Y-2.7
X4.75Y-2.8
X4.75Y-2.9
X4.75Y-3.
X4.75Y-3.1
X4.75Y-3.2
X4.75Y-3.4
X4.75Y-3.5
X4.75Y-3.6
X4.75Y-3.7
X4.75Y-3.8
X4.75Y-3.9
X4.75Y-4.
X4.75Y-4.2
X4.75Y-4.3
X4.75Y-4.4
X4.75Y-4.5
X4.75Y-4.6
X4.75Y-4.7
X4.75Y-4.8
X4.75Y-5.
X4.75Y-5.1
X4.75Y-5.2
X4.75Y-5.3
X4.75Y-5.4
X4.75Y-5.5
X4.75Y-5.6
X4.85Y-2.5
X4.85Y-3.3
X4.85Y-4.1
X4.85Y-4.9
X4.95Y-2.5
X4.95Y-2.6
X4.95Y-2.7
X4.95Y-2.8
X4.95Y-2.9
X4.95Y-3.
X4.95Y-3.1
X4.95Y-3.2
X4.95Y-3.3
X4.95Y-3.4
X4.95Y-3.5
X4.95Y-3.6
X4.95Y-3.7
X4.95Y-3.8
X4.95Y-3.9
X4.95Y-4.
X4.95Y-4.1
X4.95Y-4.2
X4.95Y-4.3
X4.95Y-4.4
X4.95Y-4.5
X4.95Y-4.6
X4.95Y-4.7
X4.95Y-4.8
X4.95Y-4.9
X4.95Y-5.
X4.95Y-5.1
X4.95Y-5.2
X4.95Y-5.3
X4.95Y-5.4
X4.95Y-5.5
X4.95Y-5.6
X5.15Y-2.5
X5.15Y-2.6
X5.15Y-2.7
X5.15Y-2.8
X5.15Y-2.9
X5.15Y-3.
X5.15Y-3.1
X5.15Y-3.2
X5.15Y-3.3
X5.15Y-3.4
X5.15Y-3.5
X5.15Y-3.6
X5.15Y-3.7
X5.15Y-3.8
X5.15Y-3.9
X5.15Y-4.
X5.15Y-4.1
X5.15Y-4.2
X5.15Y-4.3
X5.15Y-4.4
X5.15Y-4.5
X5.15Y-4.6
X5.15Y-4.7
X5.15Y-4.8
X5.15Y-4.9
X5.15Y-5.
X5.15Y-5.1
X5.15Y-5.2
X5.15Y-5.3
X5.15Y-5.4
X5.15Y-5.5
X5.15Y-5.6
X5.25Y-2.5
X5.25Y-3.3
X5.25Y-4.1
X5.25Y-4.9
X5.35Y-2.6
X5.35Y-2.7
X5.35Y-2.8
X5.35Y-2.9
X5.35Y-3.
X5.35Y-3.1
X5.35Y-3.2
X5.35Y-3.4
X5.35Y-3.5
X5.35Y-3.6
X5.35Y-3.7
X5.35Y-3.8
X5.35Y-3.9
X5.35Y-4.
X5.35Y-4.2
X5.35Y-4.3
X5.35Y-4.4
X5.35Y-4.5
X5.35Y-4.6
X5.35Y-4.7
X5.35Y-4.8
X5.35Y-5.
X5.35Y-5.1
X5.35Y-5.2
X5.35Y-5.3
X5.35Y-5.4
X5.35Y-5.5
X5.35Y-5.6
X5.45Y-2.5
X5.45Y-3.3
X5.45Y-4.1
X5.45Y-4.9
X5.55Y-2.5
X5.55Y-2.6
X5.55Y-2.7
X5.55Y-2.8
X5.55Y-2.9
X5.55Y-3.
X5.55Y-3.1
X5.55Y-3.2
X5.55Y-3.3
X5.55Y-3.4
X5.55Y-3.5
X5.55Y-3.6
X5.55Y-3.7
X5.55Y-3.8
X5.55Y-3.9
X5.55Y-4.
X5.55Y-4.1
X5.55Y-4.2
X5.55Y-4.3
X5.55Y-4.4
X5.55Y-4.5
X5.55Y-4.6
X5.55Y-4.7
X5.55Y-4.8
X5.55Y-4.9
X5.55Y-5.
X5.55Y-5.1
X5.55Y-5.2
X5.55Y-5.3
X5.55Y-5.4
X5.55Y-5.5
X5.55Y-5.6
X5.75Y-2.5
X5.75Y-2.6
X5.75Y-2.7
X5.75Y-2.8
X5.75Y-2.9
X5.75Y-3.
X5.75Y-3.1
X5.75Y-3.2
X5.75Y-3.3
X5.75Y-3.4
X5.75Y-3.5
X5.75Y-3.6
X5.75Y-3.7
X5.75Y-3.8
X5.75Y-3.9
X5.75Y-4.
X5.75Y-4.1
X5.75Y-4.2
X5.75Y-4.3
X5.75Y-4.4
X5.75Y-4.5
X5.75Y-4.6
X5.75Y-4.7
X5.75Y-4.8
X5.75Y-4.9
X5.75Y-5.
X5.75Y-5.1
X5.75Y-5.2
X5.75Y-5.3
X5.75Y-5.4
X5.75Y-5.5
X5.75Y-5.6
X5.8Y-5.7
X5.9Y-4.45
X5.9Y-4.65
X5.9Y-4.75
X5.9Y-4.95
X5.9Y-5.05
X5.9Y-5.25
X5.9Y-5.4
X5.9Y-5.5
X5.9Y-5.6
X6.Y-3.65
X6.Y-3.85
X6.Y-4.45
X6.Y-4.65
X6.Y-5.4
X6.Y-5.5
X6.Y-5.6
X6.1Y-2.85
X6.1Y-3.05
X6.1Y-3.65
X6.1Y-3.85
X6.1Y-5.4
X6.1Y-5.5
X6.1Y-5.6
X6.2Y-2.85
X6.2Y-3.05
X6.2Y-5.4
X6.2Y-5.5
X6.2Y-5.6
X6.3Y-2.85
X6.3Y-3.05
X6.3Y-5.4
X6.3Y-5.5
X6.3Y-5.6
X6.4Y-2.85
X6.4Y-3.05
X6.4Y-3.65
X6.4Y-3.85
X6.4Y-5.4
X6.4Y-5.5
X6.4Y-5.6
X6.5Y-3.65
X6.5Y-3.85
X6.5Y-4.45
X6.5Y-4.65
X6.5Y-5.4
X6.5Y-5.5
X6.5Y-5.6
X6.6Y-4.45
X6.6Y-4.65
X6.6Y-4.75
X6.6Y-4.95
X6.6Y-5.05
X6.6Y-5.25
X6.6Y-5.4
X6.6Y-5.5
X6.6Y-5.6
X6.7Y-5.7
X6.75Y-2.5
X6.75Y-2.6
X6.75Y-2.7
X6.75Y-2.8
X6.75Y-2.9
X6.75Y-3.
X6.75Y-3.1
X6.75Y-3.2
X6.75Y-3.3
X6.75Y-3.4
X6.75Y-3.5
X6.75Y-3.6
X6.75Y-3.7
X6.75Y-3.8
X6.75Y-3.9
X6.75Y-4.
X6.75Y-4.1
X6.75Y-4.2
X6.75Y-4.3
X6.75Y-4.4
X6.75Y-4.5
X6.75Y-4.6
X6.75Y-4.7
X6.75Y-4.8
X6.75Y-4.9
X6.75Y-5.
X6.75Y-5.1
X6.75Y-5.2
X6.75Y-5.4
X6.75Y-5.5
X6.75Y-5.6
X6.95Y-2.5
X6.95Y-2.6
X6.95Y-2.7
X6.95Y-2.8
X6.95Y-2.9
X6.95Y-3.
X6.95Y-3.1
X6.95Y-3.2
X6.95Y-3.3
X6.95Y-3.4
X6.95Y-3.5
X6.95Y-3.6
X6.95Y-3.7
X6.95Y-3.8
X6.95Y-3.9
X6.95Y-4.
X6.95Y-4.1
X6.95Y-4.2
X6.95Y-4.3
X6.95Y-4.4
X6.95Y-4.5
X6.95Y-4.6
X6.95Y-4.7
X6.95Y-4.8
X6.95Y-4.9
X6.95Y-5.
X6.95Y-5.1
X6.95Y-5.2
X6.95Y-5.3
X6.95Y-5.4
X6.95Y-5.5
X6.95Y-5.6
X7.05Y-2.5
X7.05Y-3.3
X7.05Y-4.1
X7.05Y-4.9
X7.15Y-2.6
X7.15Y-2.7
X7.15Y-2.8
X7.15Y-2.9
X7.15Y-3.
X7.15Y-3.1
X7.15Y-3.2
X7.15Y-3.4
X7.15Y-3.5
X7.15Y-3.6
X7.15Y-3.7
X7.15Y-3.8
X7.15Y-3.9
X7.15Y-4.
X7.15Y-4.2
X7.15Y-4.3
X7.15Y-4.4
X7.15Y-4.5
X7.15Y-4.6
X7.15Y-4.7
X7.15Y-4.8
X7.15Y-5.
X7.15Y-5.1
X7.15Y-5.3
X7.15Y-5.4
X7.15Y-5.5
X7.15Y-5.6
X7.25Y-2.5
X7.25Y-3.3
X7.25Y-4.1
X7.25Y-4.9
X7.35Y-2.5
X7.35Y-2.6
X7.35Y-2.7
X7.35Y-2.8
X7.35Y-2.9
X7.35Y-3.
X7.35Y-3.1
X7.35Y-3.2
X7.35Y-3.3
X7.35Y-3.4
X7.35Y-3.5
X7.35Y-3.6
X7.35Y-3.7
X7.35Y-3.8
X7.35Y-3.9
X7.35Y-4.
X7.35Y-4.1
X7.35Y-4.2
X7.35Y-4.3
X7.35Y-4.4
X7.35Y-4.5
X7.35Y-4.6
X7.35Y-4.7
X7.35Y-4.8
X7.35Y-4.9
X7.35Y-5.
X7.35Y-5.1
X7.35Y-5.2
X7.35Y-5.4
X7.35Y-5.5
X7.35Y-5.6
X7.35Y-5.7
X7.55Y-2.5
X7.55Y-2.6
X7.55Y-2.7
X7.55Y-2.8
X7.55Y-2.9
X7.55Y-3.
X7.55Y-3.1
X7.55Y-3.2
X7.55Y-3.3
X7.55Y-3.4
X7.55Y-3.5
X7.55Y-3.6
X7.55Y-3.7
X7.55Y-3.8
X7.55Y-3.9
X7.55Y-4.
X7.55Y-4.1
X7.55Y-4.2
X7.55Y-4.3
X7.55Y-4.4
X7.55Y-4.5
X7.55Y-4.6
X7.55Y-4.7
X7.55Y-4.8
X7.55Y-4.9
X7.55Y-5.
X7.55Y-5.1
X7.55Y-5.2
X7.55Y-5.3
X7.55Y-5.4
X7.55Y-5.5
X7.55Y-5.6
X7.55Y-5.7
X7.65Y-2.5
X7.65Y-3.3
X7.65Y-4.1
X7.65Y-4.9
X7.75Y-2.6
X7.75Y-2.7
X7.75Y-2.8
X7.75Y-2.9
X7.75Y-3.
X7.75Y-3.1
X7.75Y-3.2
X7.75Y-3.4
X7.75Y-3.5
X7.75Y-3.6
X7.75Y-3.7
X7.75Y-3.8
X7.75Y-3.9
X7.75Y-4.
X7.75Y-4.2
X7.75Y-4.3
X7.75Y-4.4
X7.75Y-4.5
X7.75Y-4.6
X7.75Y-4.7
X7.75Y-4.8
X7.75Y-5.
X7.75Y-5.1
X7.75Y-5.2
X7.75Y-5.3
X7.75Y-5.4
X7.75Y-5.5
X7.75Y-5.6
X7.85Y-2.5
X7.85Y-3.3
X7.85Y-4.1
X7.85Y-4.9
X7.95Y-2.5
X7.95Y-2.6
X7.95Y-2.7
X7.95Y-2.8
X7.95Y-2.9
X7.95Y-3.
X7.95Y-3.1
X7.95Y-3.2
X7.95Y-3.3
X7.95Y-3.4
X7.95Y-3.5
X7.95Y-3.6
X7.95Y-3.7
X7.95Y-3.8
X7.95Y-3.9
X7.95Y-4.
X7.95Y-4.1
X7.95Y-4.2
X7.95Y-4.3
X7.95Y-4.4
X7.95Y-4.5
X7.95Y-4.6
X7.95Y-4.7
X7.95Y-4.8
X7.95Y-4.9
X7.95Y-5.
X7.95Y-5.1
X7.95Y-5.2
X7.95Y-5.3
X7.95Y-5.4
X7.95Y-5.5
X7.95Y-5.6
X8.15Y-2.5
X8.15Y-2.6
X8.15Y-2.7
X8.15Y-2.8
X8.15Y-2.9
X8.15Y-3.
X8.15Y-3.1
X8.15Y-3.2
X8.15Y-3.3
X8.15Y-3.4
X8.15Y-3.5
X8.15Y-3.6
X8.15Y-3.7
X8.15Y-3.8
X8.15Y-3.9
X8.15Y-4.
X8.15Y-4.1
X8.15Y-4.2
X8.15Y-4.3
X8.15Y-4.4
X8.15Y-4.5
X8.15Y-4.6
X8.15Y-4.7
X8.15Y-4.8
X8.15Y-4.9
X8.15Y-5.
X8.15Y-5.1
X8.15Y-5.2
X8.15Y-5.3
X8.15Y-5.4
X8.15Y-5.5
X8.15Y-5.6
T3
X6.2Y-5.7
X6.3Y-5.7
T4
X4.2Y-2.5
X4.2Y-5.8
X8.3Y-2.5
X8.3Y-5.8
T0
M30
