G04 #@! TF.FileFunction,Soldermask,Bot*
%FSLAX46Y46*%
G04 Gerber Fmt 4.6, Leading zero omitted, Abs format (unit mm)*
G04 Created by KiCad (PCBNEW 4.0.7) date Mon May  7 00:57:03 2018*
%MOMM*%
%LPD*%
G01*
G04 APERTURE LIST*
%ADD10C,0.100000*%
%ADD11C,1.924000*%
%ADD12C,1.800000*%
%ADD13O,1.800000X1.800000*%
%ADD14R,1.800000X1.800000*%
%ADD15C,4.800000*%
G04 APERTURE END LIST*
D10*
D11*
X203200000Y-55880000D03*
X203200000Y-58420000D03*
X200660000Y-58420000D03*
X200660000Y-55880000D03*
D12*
X177800000Y-45720000D03*
X177800000Y-48260000D03*
X137160000Y-45720000D03*
X139700000Y-45720000D03*
X142240000Y-45720000D03*
X144780000Y-45720000D03*
X147320000Y-45720000D03*
X149860000Y-45720000D03*
X152400000Y-45720000D03*
X154940000Y-45720000D03*
X154940000Y-48260000D03*
X152400000Y-48260000D03*
X149860000Y-48260000D03*
X147320000Y-48260000D03*
X144780000Y-48260000D03*
X142240000Y-48260000D03*
X139700000Y-48260000D03*
X137160000Y-48260000D03*
X180340000Y-45720000D03*
X182880000Y-45720000D03*
X185420000Y-45720000D03*
X187960000Y-45720000D03*
X190500000Y-45720000D03*
X193040000Y-45720000D03*
X195580000Y-45720000D03*
X198120000Y-45720000D03*
X198120000Y-48260000D03*
X195580000Y-48260000D03*
X193040000Y-48260000D03*
X190500000Y-48260000D03*
X187960000Y-48260000D03*
X185420000Y-48260000D03*
X182880000Y-48260000D03*
X180340000Y-48260000D03*
X157480000Y-45720000D03*
X160020000Y-45720000D03*
X162560000Y-45720000D03*
X165100000Y-45720000D03*
X167640000Y-45720000D03*
X170180000Y-45720000D03*
X172720000Y-45720000D03*
X175260000Y-45720000D03*
X175260000Y-48260000D03*
X172720000Y-48260000D03*
X170180000Y-48260000D03*
X167640000Y-48260000D03*
X165100000Y-48260000D03*
X162560000Y-48260000D03*
X160020000Y-48260000D03*
X157480000Y-48260000D03*
D11*
X200660000Y-45720000D03*
X203200000Y-45720000D03*
X203200000Y-48260000D03*
X200660000Y-48260000D03*
D12*
X182880000Y-58420000D03*
D13*
X177800000Y-58420000D03*
D12*
X167640000Y-81280000D03*
D13*
X172720000Y-81280000D03*
D12*
X177800000Y-81280000D03*
D13*
X182880000Y-81280000D03*
D12*
X187960000Y-81280000D03*
D13*
X193040000Y-81280000D03*
D12*
X203200000Y-81280000D03*
D13*
X198120000Y-81280000D03*
D12*
X163830000Y-71120000D03*
D13*
X163830000Y-66040000D03*
D12*
X163830000Y-73660000D03*
D13*
X163830000Y-78740000D03*
D12*
X172720000Y-63500000D03*
D13*
X167640000Y-63500000D03*
D12*
X175260000Y-63500000D03*
D13*
X180340000Y-63500000D03*
D12*
X182880000Y-63500000D03*
D13*
X187960000Y-63500000D03*
D12*
X190500000Y-63500000D03*
D13*
X195580000Y-63500000D03*
D12*
X198120000Y-63500000D03*
D13*
X203200000Y-63500000D03*
D12*
X167640000Y-101600000D03*
D13*
X172720000Y-101600000D03*
D12*
X177800000Y-101600000D03*
D13*
X182880000Y-101600000D03*
D12*
X187960000Y-101600000D03*
D13*
X193040000Y-101600000D03*
D12*
X203200000Y-101600000D03*
D13*
X198120000Y-101600000D03*
D12*
X163830000Y-91440000D03*
D13*
X163830000Y-86360000D03*
D12*
X163830000Y-93980000D03*
D13*
X163830000Y-99060000D03*
D12*
X172720000Y-83820000D03*
D13*
X167640000Y-83820000D03*
D12*
X175260000Y-83820000D03*
D13*
X180340000Y-83820000D03*
D12*
X182880000Y-83820000D03*
D13*
X187960000Y-83820000D03*
D12*
X190500000Y-83820000D03*
D13*
X195580000Y-83820000D03*
D12*
X198120000Y-83820000D03*
D13*
X203200000Y-83820000D03*
D12*
X167640000Y-121920000D03*
D13*
X172720000Y-121920000D03*
D12*
X177800000Y-121920000D03*
D13*
X182880000Y-121920000D03*
D12*
X187960000Y-121920000D03*
D13*
X193040000Y-121920000D03*
D12*
X203200000Y-121920000D03*
D13*
X198120000Y-121920000D03*
D12*
X163830000Y-111760000D03*
D13*
X163830000Y-106680000D03*
D12*
X163830000Y-114300000D03*
D13*
X163830000Y-119380000D03*
D12*
X172720000Y-104140000D03*
D13*
X167640000Y-104140000D03*
D12*
X175260000Y-104140000D03*
D13*
X180340000Y-104140000D03*
D12*
X182880000Y-104140000D03*
D13*
X187960000Y-104140000D03*
D12*
X190500000Y-104140000D03*
D13*
X195580000Y-104140000D03*
D12*
X198120000Y-104140000D03*
D13*
X203200000Y-104140000D03*
D12*
X167640000Y-142240000D03*
D13*
X172720000Y-142240000D03*
D12*
X177800000Y-142240000D03*
D13*
X182880000Y-142240000D03*
D12*
X187960000Y-142240000D03*
D13*
X193040000Y-142240000D03*
D12*
X200660000Y-142240000D03*
D13*
X195580000Y-142240000D03*
D12*
X163830000Y-132080000D03*
D13*
X163830000Y-127000000D03*
D12*
X163830000Y-134620000D03*
D13*
X163830000Y-139700000D03*
D12*
X172720000Y-124460000D03*
D13*
X167640000Y-124460000D03*
D12*
X175260000Y-124460000D03*
D13*
X180340000Y-124460000D03*
D12*
X182880000Y-124460000D03*
D13*
X187960000Y-124460000D03*
D12*
X190500000Y-124460000D03*
D13*
X195580000Y-124460000D03*
D12*
X198120000Y-124460000D03*
D13*
X203200000Y-124460000D03*
D12*
X152400000Y-142240000D03*
D13*
X147320000Y-142240000D03*
D12*
X142240000Y-142240000D03*
D13*
X137160000Y-142240000D03*
D12*
X132080000Y-142240000D03*
D13*
X127000000Y-142240000D03*
D12*
X119380000Y-142240000D03*
D13*
X124460000Y-142240000D03*
D12*
X156210000Y-132080000D03*
D13*
X156210000Y-127000000D03*
D12*
X156210000Y-134620000D03*
D13*
X156210000Y-139700000D03*
D12*
X147320000Y-124460000D03*
D13*
X152400000Y-124460000D03*
D12*
X144780000Y-124460000D03*
D13*
X139700000Y-124460000D03*
D12*
X137160000Y-124460000D03*
D13*
X132080000Y-124460000D03*
D12*
X129540000Y-124460000D03*
D13*
X124460000Y-124460000D03*
D12*
X121920000Y-124460000D03*
D13*
X116840000Y-124460000D03*
D12*
X152400000Y-121920000D03*
D13*
X147320000Y-121920000D03*
D12*
X142240000Y-121920000D03*
D13*
X137160000Y-121920000D03*
D12*
X132080000Y-121920000D03*
D13*
X127000000Y-121920000D03*
D12*
X116840000Y-121920000D03*
D13*
X121920000Y-121920000D03*
D12*
X156210000Y-111760000D03*
D13*
X156210000Y-106680000D03*
D12*
X156210000Y-114300000D03*
D13*
X156210000Y-119380000D03*
D12*
X147320000Y-104140000D03*
D13*
X152400000Y-104140000D03*
D12*
X144780000Y-104140000D03*
D13*
X139700000Y-104140000D03*
D12*
X137160000Y-104140000D03*
D13*
X132080000Y-104140000D03*
D12*
X129540000Y-104140000D03*
D13*
X124460000Y-104140000D03*
D12*
X121920000Y-104140000D03*
D13*
X116840000Y-104140000D03*
D12*
X152400000Y-101600000D03*
D13*
X147320000Y-101600000D03*
D12*
X142240000Y-101600000D03*
D13*
X137160000Y-101600000D03*
D12*
X132080000Y-101600000D03*
D13*
X127000000Y-101600000D03*
D12*
X116840000Y-101600000D03*
D13*
X121920000Y-101600000D03*
D12*
X156210000Y-91440000D03*
D13*
X156210000Y-86360000D03*
D12*
X156210000Y-93980000D03*
D13*
X156210000Y-99060000D03*
D12*
X147320000Y-83820000D03*
D13*
X152400000Y-83820000D03*
D12*
X144780000Y-83820000D03*
D13*
X139700000Y-83820000D03*
D12*
X137160000Y-83820000D03*
D13*
X132080000Y-83820000D03*
D12*
X129540000Y-83820000D03*
D13*
X124460000Y-83820000D03*
D12*
X121920000Y-83820000D03*
D13*
X116840000Y-83820000D03*
D12*
X152400000Y-81280000D03*
D13*
X147320000Y-81280000D03*
D12*
X142240000Y-81280000D03*
D13*
X137160000Y-81280000D03*
D12*
X132080000Y-81280000D03*
D13*
X127000000Y-81280000D03*
D12*
X116840000Y-81280000D03*
D13*
X121920000Y-81280000D03*
D12*
X156210000Y-71120000D03*
D13*
X156210000Y-66040000D03*
D12*
X156210000Y-73660000D03*
D13*
X156210000Y-78740000D03*
D12*
X147320000Y-63500000D03*
D13*
X152400000Y-63500000D03*
D12*
X144780000Y-63500000D03*
D13*
X139700000Y-63500000D03*
D12*
X137160000Y-63500000D03*
D13*
X132080000Y-63500000D03*
D12*
X129540000Y-63500000D03*
D13*
X124460000Y-63500000D03*
D12*
X121920000Y-63500000D03*
D13*
X116840000Y-63500000D03*
D12*
X121920000Y-45720000D03*
D13*
X116840000Y-45720000D03*
D12*
X127000000Y-45720000D03*
D13*
X132080000Y-45720000D03*
D12*
X130810000Y-60960000D03*
D13*
X130810000Y-55880000D03*
D12*
X133350000Y-60960000D03*
D13*
X133350000Y-55880000D03*
D12*
X121920000Y-58420000D03*
X121920000Y-60960000D03*
D14*
X121920000Y-55880000D03*
D12*
X116840000Y-58420000D03*
X116840000Y-60960000D03*
D14*
X116840000Y-55880000D03*
D12*
X132080000Y-50800000D03*
X132080000Y-48260000D03*
D14*
X132080000Y-53340000D03*
D12*
X127000000Y-50800000D03*
X127000000Y-48260000D03*
D14*
X127000000Y-53340000D03*
D12*
X121920000Y-50800000D03*
X121920000Y-48260000D03*
D14*
X121920000Y-53340000D03*
D12*
X116840000Y-50800000D03*
X116840000Y-48260000D03*
D14*
X116840000Y-53340000D03*
D12*
X116840000Y-68580000D03*
X116840000Y-66040000D03*
D14*
X116840000Y-71120000D03*
D12*
X121920000Y-68580000D03*
X121920000Y-66040000D03*
D14*
X121920000Y-71120000D03*
D12*
X127000000Y-68580000D03*
X127000000Y-66040000D03*
D14*
X127000000Y-71120000D03*
D12*
X132080000Y-68580000D03*
X132080000Y-66040000D03*
D14*
X132080000Y-71120000D03*
D12*
X137160000Y-68580000D03*
X137160000Y-66040000D03*
D14*
X137160000Y-71120000D03*
D12*
X142240000Y-68580000D03*
X142240000Y-66040000D03*
D14*
X142240000Y-71120000D03*
D12*
X147320000Y-68580000D03*
X147320000Y-66040000D03*
D14*
X147320000Y-71120000D03*
D12*
X152400000Y-68580000D03*
X152400000Y-66040000D03*
D14*
X152400000Y-71120000D03*
D12*
X116840000Y-76200000D03*
X116840000Y-78740000D03*
D14*
X116840000Y-73660000D03*
D12*
X121920000Y-76200000D03*
X121920000Y-78740000D03*
D14*
X121920000Y-73660000D03*
D12*
X127000000Y-76200000D03*
X127000000Y-78740000D03*
D14*
X127000000Y-73660000D03*
D12*
X132080000Y-76200000D03*
X132080000Y-78740000D03*
D14*
X132080000Y-73660000D03*
D12*
X137160000Y-76200000D03*
X137160000Y-78740000D03*
D14*
X137160000Y-73660000D03*
D12*
X142240000Y-76200000D03*
X142240000Y-78740000D03*
D14*
X142240000Y-73660000D03*
D12*
X147320000Y-76200000D03*
X147320000Y-78740000D03*
D14*
X147320000Y-73660000D03*
D12*
X152400000Y-76200000D03*
X152400000Y-78740000D03*
D14*
X152400000Y-73660000D03*
D12*
X116840000Y-88900000D03*
X116840000Y-86360000D03*
D14*
X116840000Y-91440000D03*
D12*
X121920000Y-88900000D03*
X121920000Y-86360000D03*
D14*
X121920000Y-91440000D03*
D12*
X127000000Y-88900000D03*
X127000000Y-86360000D03*
D14*
X127000000Y-91440000D03*
D12*
X132080000Y-88900000D03*
X132080000Y-86360000D03*
D14*
X132080000Y-91440000D03*
D12*
X137160000Y-88900000D03*
X137160000Y-86360000D03*
D14*
X137160000Y-91440000D03*
D12*
X142240000Y-88900000D03*
X142240000Y-86360000D03*
D14*
X142240000Y-91440000D03*
D12*
X147320000Y-88900000D03*
X147320000Y-86360000D03*
D14*
X147320000Y-91440000D03*
D12*
X152400000Y-88900000D03*
X152400000Y-86360000D03*
D14*
X152400000Y-91440000D03*
D12*
X116840000Y-96520000D03*
X116840000Y-99060000D03*
D14*
X116840000Y-93980000D03*
D12*
X121920000Y-96520000D03*
X121920000Y-99060000D03*
D14*
X121920000Y-93980000D03*
D12*
X127000000Y-96520000D03*
X127000000Y-99060000D03*
D14*
X127000000Y-93980000D03*
D12*
X132080000Y-96520000D03*
X132080000Y-99060000D03*
D14*
X132080000Y-93980000D03*
D12*
X137160000Y-96520000D03*
X137160000Y-99060000D03*
D14*
X137160000Y-93980000D03*
D12*
X142240000Y-96520000D03*
X142240000Y-99060000D03*
D14*
X142240000Y-93980000D03*
D12*
X147320000Y-96520000D03*
X147320000Y-99060000D03*
D14*
X147320000Y-93980000D03*
D12*
X152400000Y-96520000D03*
X152400000Y-99060000D03*
D14*
X152400000Y-93980000D03*
D12*
X116840000Y-109220000D03*
X116840000Y-106680000D03*
D14*
X116840000Y-111760000D03*
D12*
X121920000Y-109220000D03*
X121920000Y-106680000D03*
D14*
X121920000Y-111760000D03*
D12*
X127000000Y-109220000D03*
X127000000Y-106680000D03*
D14*
X127000000Y-111760000D03*
D12*
X132080000Y-109220000D03*
X132080000Y-106680000D03*
D14*
X132080000Y-111760000D03*
D12*
X137160000Y-109220000D03*
X137160000Y-106680000D03*
D14*
X137160000Y-111760000D03*
D12*
X142240000Y-109220000D03*
X142240000Y-106680000D03*
D14*
X142240000Y-111760000D03*
D12*
X147320000Y-109220000D03*
X147320000Y-106680000D03*
D14*
X147320000Y-111760000D03*
D12*
X152400000Y-109220000D03*
X152400000Y-106680000D03*
D14*
X152400000Y-111760000D03*
D12*
X116840000Y-116840000D03*
X116840000Y-119380000D03*
D14*
X116840000Y-114300000D03*
D12*
X121920000Y-116840000D03*
X121920000Y-119380000D03*
D14*
X121920000Y-114300000D03*
D12*
X127000000Y-116840000D03*
X127000000Y-119380000D03*
D14*
X127000000Y-114300000D03*
D12*
X132080000Y-116840000D03*
X132080000Y-119380000D03*
D14*
X132080000Y-114300000D03*
D12*
X137160000Y-116840000D03*
X137160000Y-119380000D03*
D14*
X137160000Y-114300000D03*
D12*
X142240000Y-116840000D03*
X142240000Y-119380000D03*
D14*
X142240000Y-114300000D03*
D12*
X147320000Y-116840000D03*
X147320000Y-119380000D03*
D14*
X147320000Y-114300000D03*
D12*
X152400000Y-116840000D03*
X152400000Y-119380000D03*
D14*
X152400000Y-114300000D03*
D12*
X116840000Y-129540000D03*
X116840000Y-127000000D03*
D14*
X116840000Y-132080000D03*
D12*
X121920000Y-129540000D03*
X121920000Y-127000000D03*
D14*
X121920000Y-132080000D03*
D12*
X127000000Y-129540000D03*
X127000000Y-127000000D03*
D14*
X127000000Y-132080000D03*
D12*
X132080000Y-129540000D03*
X132080000Y-127000000D03*
D14*
X132080000Y-132080000D03*
D12*
X137160000Y-129540000D03*
X137160000Y-127000000D03*
D14*
X137160000Y-132080000D03*
D12*
X142240000Y-129540000D03*
X142240000Y-127000000D03*
D14*
X142240000Y-132080000D03*
D12*
X147320000Y-129540000D03*
X147320000Y-127000000D03*
D14*
X147320000Y-132080000D03*
D12*
X152400000Y-129540000D03*
X152400000Y-127000000D03*
D14*
X152400000Y-132080000D03*
D12*
X116840000Y-137160000D03*
X116840000Y-139700000D03*
D14*
X116840000Y-134620000D03*
D12*
X121920000Y-137160000D03*
X121920000Y-139700000D03*
D14*
X121920000Y-134620000D03*
D12*
X127000000Y-137160000D03*
X127000000Y-139700000D03*
D14*
X127000000Y-134620000D03*
D12*
X132080000Y-137160000D03*
X132080000Y-139700000D03*
D14*
X132080000Y-134620000D03*
D12*
X137160000Y-137160000D03*
X137160000Y-139700000D03*
D14*
X137160000Y-134620000D03*
D12*
X142240000Y-137160000D03*
X142240000Y-139700000D03*
D14*
X142240000Y-134620000D03*
D12*
X147320000Y-137160000D03*
X147320000Y-139700000D03*
D14*
X147320000Y-134620000D03*
D12*
X152400000Y-137160000D03*
X152400000Y-139700000D03*
D14*
X152400000Y-134620000D03*
D12*
X203200000Y-129540000D03*
X203200000Y-127000000D03*
D14*
X203200000Y-132080000D03*
D12*
X198120000Y-129540000D03*
X198120000Y-127000000D03*
D14*
X198120000Y-132080000D03*
D12*
X193040000Y-129540000D03*
X193040000Y-127000000D03*
D14*
X193040000Y-132080000D03*
D12*
X187960000Y-129540000D03*
X187960000Y-127000000D03*
D14*
X187960000Y-132080000D03*
D12*
X182880000Y-129540000D03*
X182880000Y-127000000D03*
D14*
X182880000Y-132080000D03*
D12*
X177800000Y-129540000D03*
X177800000Y-127000000D03*
D14*
X177800000Y-132080000D03*
D12*
X172720000Y-129540000D03*
X172720000Y-127000000D03*
D14*
X172720000Y-132080000D03*
D12*
X167640000Y-129540000D03*
X167640000Y-127000000D03*
D14*
X167640000Y-132080000D03*
D12*
X203200000Y-137160000D03*
X203200000Y-139700000D03*
D14*
X203200000Y-134620000D03*
D12*
X198120000Y-137160000D03*
X198120000Y-139700000D03*
D14*
X198120000Y-134620000D03*
D12*
X193040000Y-137160000D03*
X193040000Y-139700000D03*
D14*
X193040000Y-134620000D03*
D12*
X187960000Y-137160000D03*
X187960000Y-139700000D03*
D14*
X187960000Y-134620000D03*
D12*
X182880000Y-137160000D03*
X182880000Y-139700000D03*
D14*
X182880000Y-134620000D03*
D12*
X177800000Y-137160000D03*
X177800000Y-139700000D03*
D14*
X177800000Y-134620000D03*
D12*
X172720000Y-137160000D03*
X172720000Y-139700000D03*
D14*
X172720000Y-134620000D03*
D12*
X167640000Y-137160000D03*
X167640000Y-139700000D03*
D14*
X167640000Y-134620000D03*
D12*
X198120000Y-109220000D03*
X198120000Y-106680000D03*
D14*
X198120000Y-111760000D03*
D12*
X193040000Y-109220000D03*
X193040000Y-106680000D03*
D14*
X193040000Y-111760000D03*
D12*
X187960000Y-109220000D03*
X187960000Y-106680000D03*
D14*
X187960000Y-111760000D03*
D12*
X182880000Y-109220000D03*
X182880000Y-106680000D03*
D14*
X182880000Y-111760000D03*
D12*
X177800000Y-109220000D03*
X177800000Y-106680000D03*
D14*
X177800000Y-111760000D03*
D12*
X172720000Y-109220000D03*
X172720000Y-106680000D03*
D14*
X172720000Y-111760000D03*
D12*
X167640000Y-109220000D03*
X167640000Y-106680000D03*
D14*
X167640000Y-111760000D03*
D12*
X203200000Y-116840000D03*
X203200000Y-119380000D03*
D14*
X203200000Y-114300000D03*
D12*
X198120000Y-116840000D03*
X198120000Y-119380000D03*
D14*
X198120000Y-114300000D03*
D12*
X193040000Y-116840000D03*
X193040000Y-119380000D03*
D14*
X193040000Y-114300000D03*
D12*
X187960000Y-116840000D03*
X187960000Y-119380000D03*
D14*
X187960000Y-114300000D03*
D12*
X182880000Y-116840000D03*
X182880000Y-119380000D03*
D14*
X182880000Y-114300000D03*
D12*
X177800000Y-116840000D03*
X177800000Y-119380000D03*
D14*
X177800000Y-114300000D03*
D12*
X172720000Y-116840000D03*
X172720000Y-119380000D03*
D14*
X172720000Y-114300000D03*
D12*
X167640000Y-116840000D03*
X167640000Y-119380000D03*
D14*
X167640000Y-114300000D03*
D12*
X198120000Y-88900000D03*
X198120000Y-86360000D03*
D14*
X198120000Y-91440000D03*
D12*
X193040000Y-88900000D03*
X193040000Y-86360000D03*
D14*
X193040000Y-91440000D03*
D12*
X187960000Y-88900000D03*
X187960000Y-86360000D03*
D14*
X187960000Y-91440000D03*
D12*
X182880000Y-88900000D03*
X182880000Y-86360000D03*
D14*
X182880000Y-91440000D03*
D12*
X177800000Y-88900000D03*
X177800000Y-86360000D03*
D14*
X177800000Y-91440000D03*
D12*
X172720000Y-88900000D03*
X172720000Y-86360000D03*
D14*
X172720000Y-91440000D03*
D12*
X167640000Y-88900000D03*
X167640000Y-86360000D03*
D14*
X167640000Y-91440000D03*
D12*
X203200000Y-96520000D03*
X203200000Y-99060000D03*
D14*
X203200000Y-93980000D03*
D12*
X203200000Y-68580000D03*
X203200000Y-66040000D03*
D14*
X203200000Y-71120000D03*
D12*
X198120000Y-68580000D03*
X198120000Y-66040000D03*
D14*
X198120000Y-71120000D03*
D12*
X193040000Y-68580000D03*
X193040000Y-66040000D03*
D14*
X193040000Y-71120000D03*
D12*
X187960000Y-68580000D03*
X187960000Y-66040000D03*
D14*
X187960000Y-71120000D03*
D12*
X182880000Y-68580000D03*
X182880000Y-66040000D03*
D14*
X182880000Y-71120000D03*
D12*
X203200000Y-76200000D03*
X203200000Y-78740000D03*
D14*
X203200000Y-73660000D03*
D12*
X198120000Y-76200000D03*
X198120000Y-78740000D03*
D14*
X198120000Y-73660000D03*
D12*
X193040000Y-76200000D03*
X193040000Y-78740000D03*
D14*
X193040000Y-73660000D03*
D12*
X187960000Y-76200000D03*
X187960000Y-78740000D03*
D14*
X187960000Y-73660000D03*
D12*
X198120000Y-96520000D03*
X198120000Y-99060000D03*
D14*
X198120000Y-93980000D03*
D12*
X193040000Y-96520000D03*
X193040000Y-99060000D03*
D14*
X193040000Y-93980000D03*
D12*
X187960000Y-96520000D03*
X187960000Y-99060000D03*
D14*
X187960000Y-93980000D03*
D12*
X182880000Y-96520000D03*
X182880000Y-99060000D03*
D14*
X182880000Y-93980000D03*
D12*
X177800000Y-96520000D03*
X177800000Y-99060000D03*
D14*
X177800000Y-93980000D03*
D12*
X172720000Y-96520000D03*
X172720000Y-99060000D03*
D14*
X172720000Y-93980000D03*
D12*
X167640000Y-96520000D03*
X167640000Y-99060000D03*
D14*
X167640000Y-93980000D03*
D12*
X177800000Y-68580000D03*
X177800000Y-66040000D03*
D14*
X177800000Y-71120000D03*
D12*
X172720000Y-68580000D03*
X172720000Y-66040000D03*
D14*
X172720000Y-71120000D03*
D12*
X167640000Y-68580000D03*
X167640000Y-66040000D03*
D14*
X167640000Y-71120000D03*
D12*
X182880000Y-76200000D03*
X182880000Y-78740000D03*
D14*
X182880000Y-73660000D03*
D12*
X177800000Y-76200000D03*
X177800000Y-78740000D03*
D14*
X177800000Y-73660000D03*
D12*
X172720000Y-76200000D03*
X172720000Y-78740000D03*
D14*
X172720000Y-73660000D03*
D12*
X167640000Y-76200000D03*
X167640000Y-78740000D03*
D14*
X167640000Y-73660000D03*
D12*
X203200000Y-109220000D03*
X203200000Y-106680000D03*
D14*
X203200000Y-111760000D03*
D12*
X203200000Y-88900000D03*
X203200000Y-86360000D03*
D14*
X203200000Y-91440000D03*
D12*
X127000000Y-58420000D03*
X127000000Y-60960000D03*
D14*
X127000000Y-55880000D03*
D15*
X205740000Y-43180000D03*
X114300000Y-142240000D03*
X205740000Y-142240000D03*
X137160000Y-58420000D03*
M02*
