G04 #@! TF.FileFunction,Soldermask,Top*
%FSLAX46Y46*%
G04 Gerber Fmt 4.6, Leading zero omitted, Abs format (unit mm)*
G04 Created by KiCad (PCBNEW 4.0.6) date Sun Sep 17 22:44:25 2017*
%MOMM*%
%LPD*%
G01*
G04 APERTURE LIST*
%ADD10C,0.100000*%
%ADD11C,0.200000*%
%ADD12C,0.300000*%
%ADD13C,4.200000*%
%ADD14C,1.800000*%
%ADD15R,1.800000X1.800000*%
%ADD16O,1.800000X1.800000*%
%ADD17C,1.924000*%
G04 APERTURE END LIST*
D10*
D11*
X195961905Y-146502381D02*
X195961905Y-145502381D01*
X196342858Y-145502381D01*
X196438096Y-145550000D01*
X196485715Y-145597619D01*
X196533334Y-145692857D01*
X196533334Y-145835714D01*
X196485715Y-145930952D01*
X196438096Y-145978571D01*
X196342858Y-146026190D01*
X195961905Y-146026190D01*
X196961905Y-146502381D02*
X196961905Y-145835714D01*
X196961905Y-146026190D02*
X197009524Y-145930952D01*
X197057143Y-145883333D01*
X197152381Y-145835714D01*
X197247620Y-145835714D01*
X197723810Y-146502381D02*
X197628572Y-146454762D01*
X197580953Y-146407143D01*
X197533334Y-146311905D01*
X197533334Y-146026190D01*
X197580953Y-145930952D01*
X197628572Y-145883333D01*
X197723810Y-145835714D01*
X197866668Y-145835714D01*
X197961906Y-145883333D01*
X198009525Y-145930952D01*
X198057144Y-146026190D01*
X198057144Y-146311905D01*
X198009525Y-146407143D01*
X197961906Y-146454762D01*
X197866668Y-146502381D01*
X197723810Y-146502381D01*
X198914287Y-146502381D02*
X198914287Y-145502381D01*
X198914287Y-146454762D02*
X198819049Y-146502381D01*
X198628572Y-146502381D01*
X198533334Y-146454762D01*
X198485715Y-146407143D01*
X198438096Y-146311905D01*
X198438096Y-146026190D01*
X198485715Y-145930952D01*
X198533334Y-145883333D01*
X198628572Y-145835714D01*
X198819049Y-145835714D01*
X198914287Y-145883333D01*
X199819049Y-145835714D02*
X199819049Y-146502381D01*
X199390477Y-145835714D02*
X199390477Y-146359524D01*
X199438096Y-146454762D01*
X199533334Y-146502381D01*
X199676192Y-146502381D01*
X199771430Y-146454762D01*
X199819049Y-146407143D01*
X200723811Y-146454762D02*
X200628573Y-146502381D01*
X200438096Y-146502381D01*
X200342858Y-146454762D01*
X200295239Y-146407143D01*
X200247620Y-146311905D01*
X200247620Y-146026190D01*
X200295239Y-145930952D01*
X200342858Y-145883333D01*
X200438096Y-145835714D01*
X200628573Y-145835714D01*
X200723811Y-145883333D01*
X201009525Y-145835714D02*
X201390477Y-145835714D01*
X201152382Y-145502381D02*
X201152382Y-146359524D01*
X201200001Y-146454762D01*
X201295239Y-146502381D01*
X201390477Y-146502381D01*
X201723811Y-146502381D02*
X201723811Y-145835714D01*
X201723811Y-145502381D02*
X201676192Y-145550000D01*
X201723811Y-145597619D01*
X201771430Y-145550000D01*
X201723811Y-145502381D01*
X201723811Y-145597619D01*
X202342858Y-146502381D02*
X202247620Y-146454762D01*
X202200001Y-146407143D01*
X202152382Y-146311905D01*
X202152382Y-146026190D01*
X202200001Y-145930952D01*
X202247620Y-145883333D01*
X202342858Y-145835714D01*
X202485716Y-145835714D01*
X202580954Y-145883333D01*
X202628573Y-145930952D01*
X202676192Y-146026190D01*
X202676192Y-146311905D01*
X202628573Y-146407143D01*
X202580954Y-146454762D01*
X202485716Y-146502381D01*
X202342858Y-146502381D01*
X203104763Y-145835714D02*
X203104763Y-146502381D01*
X203104763Y-145930952D02*
X203152382Y-145883333D01*
X203247620Y-145835714D01*
X203390478Y-145835714D01*
X203485716Y-145883333D01*
X203533335Y-145978571D01*
X203533335Y-146502381D01*
X204009525Y-146407143D02*
X204057144Y-146454762D01*
X204009525Y-146502381D01*
X203961906Y-146454762D01*
X204009525Y-146407143D01*
X204009525Y-146502381D01*
X204009525Y-145883333D02*
X204057144Y-145930952D01*
X204009525Y-145978571D01*
X203961906Y-145930952D01*
X204009525Y-145883333D01*
X204009525Y-145978571D01*
X205247620Y-146502381D02*
X205247620Y-145502381D01*
X205628573Y-145502381D01*
X205723811Y-145550000D01*
X205771430Y-145597619D01*
X205819049Y-145692857D01*
X205819049Y-145835714D01*
X205771430Y-145930952D01*
X205723811Y-145978571D01*
X205628573Y-146026190D01*
X205247620Y-146026190D01*
X206819049Y-146407143D02*
X206771430Y-146454762D01*
X206628573Y-146502381D01*
X206533335Y-146502381D01*
X206390477Y-146454762D01*
X206295239Y-146359524D01*
X206247620Y-146264286D01*
X206200001Y-146073810D01*
X206200001Y-145930952D01*
X206247620Y-145740476D01*
X206295239Y-145645238D01*
X206390477Y-145550000D01*
X206533335Y-145502381D01*
X206628573Y-145502381D01*
X206771430Y-145550000D01*
X206819049Y-145597619D01*
X207580954Y-145978571D02*
X207723811Y-146026190D01*
X207771430Y-146073810D01*
X207819049Y-146169048D01*
X207819049Y-146311905D01*
X207771430Y-146407143D01*
X207723811Y-146454762D01*
X207628573Y-146502381D01*
X207247620Y-146502381D01*
X207247620Y-145502381D01*
X207580954Y-145502381D01*
X207676192Y-145550000D01*
X207723811Y-145597619D01*
X207771430Y-145692857D01*
X207771430Y-145788095D01*
X207723811Y-145883333D01*
X207676192Y-145930952D01*
X207580954Y-145978571D01*
X207247620Y-145978571D01*
X208200001Y-146454762D02*
X208295239Y-146502381D01*
X208485715Y-146502381D01*
X208580954Y-146454762D01*
X208628573Y-146359524D01*
X208628573Y-146311905D01*
X208580954Y-146216667D01*
X208485715Y-146169048D01*
X208342858Y-146169048D01*
X208247620Y-146121429D01*
X208200001Y-146026190D01*
X208200001Y-145978571D01*
X208247620Y-145883333D01*
X208342858Y-145835714D01*
X208485715Y-145835714D01*
X208580954Y-145883333D01*
X209057144Y-146407143D02*
X209104763Y-146454762D01*
X209057144Y-146502381D01*
X209009525Y-146454762D01*
X209057144Y-146407143D01*
X209057144Y-146502381D01*
X209533334Y-146502381D02*
X209533334Y-145835714D01*
X209533334Y-145502381D02*
X209485715Y-145550000D01*
X209533334Y-145597619D01*
X209580953Y-145550000D01*
X209533334Y-145502381D01*
X209533334Y-145597619D01*
X210152381Y-146502381D02*
X210057143Y-146454762D01*
X210009524Y-146407143D01*
X209961905Y-146311905D01*
X209961905Y-146026190D01*
X210009524Y-145930952D01*
X210057143Y-145883333D01*
X210152381Y-145835714D01*
X210295239Y-145835714D01*
X210390477Y-145883333D01*
X210438096Y-145930952D01*
X210485715Y-146026190D01*
X210485715Y-146311905D01*
X210438096Y-146407143D01*
X210390477Y-146454762D01*
X210295239Y-146502381D01*
X210152381Y-146502381D01*
D12*
X195937143Y-135283571D02*
X195937143Y-133783571D01*
X196294286Y-133783571D01*
X196508571Y-133855000D01*
X196651429Y-133997857D01*
X196722857Y-134140714D01*
X196794286Y-134426429D01*
X196794286Y-134640714D01*
X196722857Y-134926429D01*
X196651429Y-135069286D01*
X196508571Y-135212143D01*
X196294286Y-135283571D01*
X195937143Y-135283571D01*
X198008571Y-135212143D02*
X197865714Y-135283571D01*
X197580000Y-135283571D01*
X197437143Y-135212143D01*
X197365714Y-135069286D01*
X197365714Y-134497857D01*
X197437143Y-134355000D01*
X197580000Y-134283571D01*
X197865714Y-134283571D01*
X198008571Y-134355000D01*
X198080000Y-134497857D01*
X198080000Y-134640714D01*
X197365714Y-134783571D01*
X198651428Y-135212143D02*
X198794285Y-135283571D01*
X199080000Y-135283571D01*
X199222857Y-135212143D01*
X199294285Y-135069286D01*
X199294285Y-134997857D01*
X199222857Y-134855000D01*
X199080000Y-134783571D01*
X198865714Y-134783571D01*
X198722857Y-134712143D01*
X198651428Y-134569286D01*
X198651428Y-134497857D01*
X198722857Y-134355000D01*
X198865714Y-134283571D01*
X199080000Y-134283571D01*
X199222857Y-134355000D01*
X199937143Y-135283571D02*
X199937143Y-134283571D01*
X199937143Y-133783571D02*
X199865714Y-133855000D01*
X199937143Y-133926429D01*
X200008571Y-133855000D01*
X199937143Y-133783571D01*
X199937143Y-133926429D01*
X201294286Y-134283571D02*
X201294286Y-135497857D01*
X201222857Y-135640714D01*
X201151429Y-135712143D01*
X201008572Y-135783571D01*
X200794286Y-135783571D01*
X200651429Y-135712143D01*
X201294286Y-135212143D02*
X201151429Y-135283571D01*
X200865715Y-135283571D01*
X200722857Y-135212143D01*
X200651429Y-135140714D01*
X200580000Y-134997857D01*
X200580000Y-134569286D01*
X200651429Y-134426429D01*
X200722857Y-134355000D01*
X200865715Y-134283571D01*
X201151429Y-134283571D01*
X201294286Y-134355000D01*
X202008572Y-134283571D02*
X202008572Y-135283571D01*
X202008572Y-134426429D02*
X202080000Y-134355000D01*
X202222858Y-134283571D01*
X202437143Y-134283571D01*
X202580000Y-134355000D01*
X202651429Y-134497857D01*
X202651429Y-135283571D01*
X203365715Y-135140714D02*
X203437143Y-135212143D01*
X203365715Y-135283571D01*
X203294286Y-135212143D01*
X203365715Y-135140714D01*
X203365715Y-135283571D01*
X203365715Y-134355000D02*
X203437143Y-134426429D01*
X203365715Y-134497857D01*
X203294286Y-134426429D01*
X203365715Y-134355000D01*
X203365715Y-134497857D01*
X195937143Y-137047857D02*
X196437143Y-137047857D01*
X196651429Y-137833571D02*
X195937143Y-137833571D01*
X195937143Y-136333571D01*
X196651429Y-136333571D01*
X197294286Y-137833571D02*
X197294286Y-136833571D01*
X197294286Y-136976429D02*
X197365714Y-136905000D01*
X197508572Y-136833571D01*
X197722857Y-136833571D01*
X197865714Y-136905000D01*
X197937143Y-137047857D01*
X197937143Y-137833571D01*
X197937143Y-137047857D02*
X198008572Y-136905000D01*
X198151429Y-136833571D01*
X198365714Y-136833571D01*
X198508572Y-136905000D01*
X198580000Y-137047857D01*
X198580000Y-137833571D01*
X199294286Y-137833571D02*
X199294286Y-136833571D01*
X199294286Y-136333571D02*
X199222857Y-136405000D01*
X199294286Y-136476429D01*
X199365714Y-136405000D01*
X199294286Y-136333571D01*
X199294286Y-136476429D01*
X200222858Y-137833571D02*
X200080000Y-137762143D01*
X200008572Y-137619286D01*
X200008572Y-136333571D01*
X202651429Y-137833571D02*
X201937143Y-137833571D01*
X201937143Y-136333571D01*
X203794286Y-136833571D02*
X203794286Y-137833571D01*
X203151429Y-136833571D02*
X203151429Y-137619286D01*
X203222857Y-137762143D01*
X203365715Y-137833571D01*
X203580000Y-137833571D01*
X203722857Y-137762143D01*
X203794286Y-137690714D01*
X204508572Y-136833571D02*
X204508572Y-137833571D01*
X204508572Y-136976429D02*
X204580000Y-136905000D01*
X204722858Y-136833571D01*
X204937143Y-136833571D01*
X205080000Y-136905000D01*
X205151429Y-137047857D01*
X205151429Y-137833571D01*
X206508572Y-137833571D02*
X206508572Y-136333571D01*
X206508572Y-137762143D02*
X206365715Y-137833571D01*
X206080001Y-137833571D01*
X205937143Y-137762143D01*
X205865715Y-137690714D01*
X205794286Y-137547857D01*
X205794286Y-137119286D01*
X205865715Y-136976429D01*
X205937143Y-136905000D01*
X206080001Y-136833571D01*
X206365715Y-136833571D01*
X206508572Y-136905000D01*
X207222858Y-137833571D02*
X207222858Y-136333571D01*
X207222858Y-136905000D02*
X207365715Y-136833571D01*
X207651429Y-136833571D01*
X207794286Y-136905000D01*
X207865715Y-136976429D01*
X207937144Y-137119286D01*
X207937144Y-137547857D01*
X207865715Y-137690714D01*
X207794286Y-137762143D01*
X207651429Y-137833571D01*
X207365715Y-137833571D01*
X207222858Y-137762143D01*
X209151429Y-137762143D02*
X209008572Y-137833571D01*
X208722858Y-137833571D01*
X208580001Y-137762143D01*
X208508572Y-137619286D01*
X208508572Y-137047857D01*
X208580001Y-136905000D01*
X208722858Y-136833571D01*
X209008572Y-136833571D01*
X209151429Y-136905000D01*
X209222858Y-137047857D01*
X209222858Y-137190714D01*
X208508572Y-137333571D01*
X209865715Y-137833571D02*
X209865715Y-136833571D01*
X209865715Y-137119286D02*
X209937143Y-136976429D01*
X210008572Y-136905000D01*
X210151429Y-136833571D01*
X210294286Y-136833571D01*
X211437143Y-136833571D02*
X211437143Y-138047857D01*
X211365714Y-138190714D01*
X211294286Y-138262143D01*
X211151429Y-138333571D01*
X210937143Y-138333571D01*
X210794286Y-138262143D01*
X211437143Y-137762143D02*
X211294286Y-137833571D01*
X211008572Y-137833571D01*
X210865714Y-137762143D01*
X210794286Y-137690714D01*
X210722857Y-137547857D01*
X210722857Y-137119286D01*
X210794286Y-136976429D01*
X210865714Y-136905000D01*
X211008572Y-136833571D01*
X211294286Y-136833571D01*
X211437143Y-136905000D01*
X196508571Y-140312143D02*
X196365714Y-140383571D01*
X196080000Y-140383571D01*
X195937143Y-140312143D01*
X195865714Y-140169286D01*
X195865714Y-139597857D01*
X195937143Y-139455000D01*
X196080000Y-139383571D01*
X196365714Y-139383571D01*
X196508571Y-139455000D01*
X196580000Y-139597857D01*
X196580000Y-139740714D01*
X195865714Y-139883571D01*
X197222857Y-140383571D02*
X197222857Y-139383571D01*
X197222857Y-139526429D02*
X197294285Y-139455000D01*
X197437143Y-139383571D01*
X197651428Y-139383571D01*
X197794285Y-139455000D01*
X197865714Y-139597857D01*
X197865714Y-140383571D01*
X197865714Y-139597857D02*
X197937143Y-139455000D01*
X198080000Y-139383571D01*
X198294285Y-139383571D01*
X198437143Y-139455000D01*
X198508571Y-139597857D01*
X198508571Y-140383571D01*
X199222857Y-140383571D02*
X199222857Y-139383571D01*
X199222857Y-138883571D02*
X199151428Y-138955000D01*
X199222857Y-139026429D01*
X199294285Y-138955000D01*
X199222857Y-138883571D01*
X199222857Y-139026429D01*
X200151429Y-140383571D02*
X200008571Y-140312143D01*
X199937143Y-140169286D01*
X199937143Y-138883571D01*
X201651428Y-139669286D02*
X201580000Y-139597857D01*
X201437143Y-139526429D01*
X201294285Y-139526429D01*
X201151428Y-139597857D01*
X201080000Y-139669286D01*
X201008571Y-139812143D01*
X201008571Y-139955000D01*
X201080000Y-140097857D01*
X201151428Y-140169286D01*
X201294285Y-140240714D01*
X201437143Y-140240714D01*
X201580000Y-140169286D01*
X201651428Y-140097857D01*
X201651428Y-139526429D02*
X201651428Y-140097857D01*
X201722857Y-140169286D01*
X201794285Y-140169286D01*
X201937143Y-140097857D01*
X202008571Y-139955000D01*
X202008571Y-139597857D01*
X201865714Y-139383571D01*
X201651428Y-139240714D01*
X201365714Y-139169286D01*
X201080000Y-139240714D01*
X200865714Y-139383571D01*
X200722857Y-139597857D01*
X200651428Y-139883571D01*
X200722857Y-140169286D01*
X200865714Y-140383571D01*
X201080000Y-140526429D01*
X201365714Y-140597857D01*
X201651428Y-140526429D01*
X201865714Y-140383571D01*
X203222856Y-140312143D02*
X203079999Y-140383571D01*
X202794285Y-140383571D01*
X202651428Y-140312143D01*
X202579999Y-140169286D01*
X202579999Y-139597857D01*
X202651428Y-139455000D01*
X202794285Y-139383571D01*
X203079999Y-139383571D01*
X203222856Y-139455000D01*
X203294285Y-139597857D01*
X203294285Y-139740714D01*
X202579999Y-139883571D01*
X203937142Y-140383571D02*
X203937142Y-139383571D01*
X203937142Y-139526429D02*
X204008570Y-139455000D01*
X204151428Y-139383571D01*
X204365713Y-139383571D01*
X204508570Y-139455000D01*
X204579999Y-139597857D01*
X204579999Y-140383571D01*
X204579999Y-139597857D02*
X204651428Y-139455000D01*
X204794285Y-139383571D01*
X205008570Y-139383571D01*
X205151428Y-139455000D01*
X205222856Y-139597857D01*
X205222856Y-140383571D01*
X206151428Y-140383571D02*
X206008570Y-140312143D01*
X205937142Y-140169286D01*
X205937142Y-138883571D01*
X207365713Y-139383571D02*
X207365713Y-140383571D01*
X206722856Y-139383571D02*
X206722856Y-140169286D01*
X206794284Y-140312143D01*
X206937142Y-140383571D01*
X207151427Y-140383571D01*
X207294284Y-140312143D01*
X207365713Y-140240714D01*
X208079999Y-139383571D02*
X208079999Y-140383571D01*
X208079999Y-139526429D02*
X208151427Y-139455000D01*
X208294285Y-139383571D01*
X208508570Y-139383571D01*
X208651427Y-139455000D01*
X208722856Y-139597857D01*
X208722856Y-140383571D01*
X209437142Y-140240714D02*
X209508570Y-140312143D01*
X209437142Y-140383571D01*
X209365713Y-140312143D01*
X209437142Y-140240714D01*
X209437142Y-140383571D01*
X210079999Y-140312143D02*
X210222856Y-140383571D01*
X210508571Y-140383571D01*
X210651428Y-140312143D01*
X210722856Y-140169286D01*
X210722856Y-140097857D01*
X210651428Y-139955000D01*
X210508571Y-139883571D01*
X210294285Y-139883571D01*
X210151428Y-139812143D01*
X210079999Y-139669286D01*
X210079999Y-139597857D01*
X210151428Y-139455000D01*
X210294285Y-139383571D01*
X210508571Y-139383571D01*
X210651428Y-139455000D01*
X211937142Y-140312143D02*
X211794285Y-140383571D01*
X211508571Y-140383571D01*
X211365714Y-140312143D01*
X211294285Y-140169286D01*
X211294285Y-139597857D01*
X211365714Y-139455000D01*
X211508571Y-139383571D01*
X211794285Y-139383571D01*
X211937142Y-139455000D01*
X212008571Y-139597857D01*
X212008571Y-139740714D01*
X211294285Y-139883571D01*
X195865714Y-141576429D02*
X195937143Y-141505000D01*
X196080000Y-141433571D01*
X196437143Y-141433571D01*
X196580000Y-141505000D01*
X196651429Y-141576429D01*
X196722857Y-141719286D01*
X196722857Y-141862143D01*
X196651429Y-142076429D01*
X195794286Y-142933571D01*
X196722857Y-142933571D01*
X197651428Y-141433571D02*
X197794285Y-141433571D01*
X197937142Y-141505000D01*
X198008571Y-141576429D01*
X198080000Y-141719286D01*
X198151428Y-142005000D01*
X198151428Y-142362143D01*
X198080000Y-142647857D01*
X198008571Y-142790714D01*
X197937142Y-142862143D01*
X197794285Y-142933571D01*
X197651428Y-142933571D01*
X197508571Y-142862143D01*
X197437142Y-142790714D01*
X197365714Y-142647857D01*
X197294285Y-142362143D01*
X197294285Y-142005000D01*
X197365714Y-141719286D01*
X197437142Y-141576429D01*
X197508571Y-141505000D01*
X197651428Y-141433571D01*
X199579999Y-142933571D02*
X198722856Y-142933571D01*
X199151428Y-142933571D02*
X199151428Y-141433571D01*
X199008571Y-141647857D01*
X198865713Y-141790714D01*
X198722856Y-141862143D01*
X200079999Y-141433571D02*
X201079999Y-141433571D01*
X200437142Y-142933571D01*
X201651427Y-142362143D02*
X202794284Y-142362143D01*
X203794284Y-141433571D02*
X203937141Y-141433571D01*
X204079998Y-141505000D01*
X204151427Y-141576429D01*
X204222856Y-141719286D01*
X204294284Y-142005000D01*
X204294284Y-142362143D01*
X204222856Y-142647857D01*
X204151427Y-142790714D01*
X204079998Y-142862143D01*
X203937141Y-142933571D01*
X203794284Y-142933571D01*
X203651427Y-142862143D01*
X203579998Y-142790714D01*
X203508570Y-142647857D01*
X203437141Y-142362143D01*
X203437141Y-142005000D01*
X203508570Y-141719286D01*
X203579998Y-141576429D01*
X203651427Y-141505000D01*
X203794284Y-141433571D01*
X205008569Y-142933571D02*
X205294284Y-142933571D01*
X205437141Y-142862143D01*
X205508569Y-142790714D01*
X205651427Y-142576429D01*
X205722855Y-142290714D01*
X205722855Y-141719286D01*
X205651427Y-141576429D01*
X205579998Y-141505000D01*
X205437141Y-141433571D01*
X205151427Y-141433571D01*
X205008569Y-141505000D01*
X204937141Y-141576429D01*
X204865712Y-141719286D01*
X204865712Y-142076429D01*
X204937141Y-142219286D01*
X205008569Y-142290714D01*
X205151427Y-142362143D01*
X205437141Y-142362143D01*
X205579998Y-142290714D01*
X205651427Y-142219286D01*
X205722855Y-142076429D01*
X206365712Y-142362143D02*
X207508569Y-142362143D01*
X209008569Y-142933571D02*
X208151426Y-142933571D01*
X208579998Y-142933571D02*
X208579998Y-141433571D01*
X208437141Y-141647857D01*
X208294283Y-141790714D01*
X208151426Y-141862143D01*
X209508569Y-141433571D02*
X210508569Y-141433571D01*
X209865712Y-142933571D01*
X185048573Y-127673571D02*
X185048573Y-126173571D01*
X185405716Y-126173571D01*
X185620001Y-126245000D01*
X185762859Y-126387857D01*
X185834287Y-126530714D01*
X185905716Y-126816429D01*
X185905716Y-127030714D01*
X185834287Y-127316429D01*
X185762859Y-127459286D01*
X185620001Y-127602143D01*
X185405716Y-127673571D01*
X185048573Y-127673571D01*
X186548573Y-127673571D02*
X186548573Y-126673571D01*
X186548573Y-126173571D02*
X186477144Y-126245000D01*
X186548573Y-126316429D01*
X186620001Y-126245000D01*
X186548573Y-126173571D01*
X186548573Y-126316429D01*
X187191430Y-127602143D02*
X187334287Y-127673571D01*
X187620002Y-127673571D01*
X187762859Y-127602143D01*
X187834287Y-127459286D01*
X187834287Y-127387857D01*
X187762859Y-127245000D01*
X187620002Y-127173571D01*
X187405716Y-127173571D01*
X187262859Y-127102143D01*
X187191430Y-126959286D01*
X187191430Y-126887857D01*
X187262859Y-126745000D01*
X187405716Y-126673571D01*
X187620002Y-126673571D01*
X187762859Y-126745000D01*
X189120002Y-127602143D02*
X188977145Y-127673571D01*
X188691431Y-127673571D01*
X188548573Y-127602143D01*
X188477145Y-127530714D01*
X188405716Y-127387857D01*
X188405716Y-126959286D01*
X188477145Y-126816429D01*
X188548573Y-126745000D01*
X188691431Y-126673571D01*
X188977145Y-126673571D01*
X189120002Y-126745000D01*
X189762859Y-127673571D02*
X189762859Y-126673571D01*
X189762859Y-126959286D02*
X189834287Y-126816429D01*
X189905716Y-126745000D01*
X190048573Y-126673571D01*
X190191430Y-126673571D01*
X191262858Y-127602143D02*
X191120001Y-127673571D01*
X190834287Y-127673571D01*
X190691430Y-127602143D01*
X190620001Y-127459286D01*
X190620001Y-126887857D01*
X190691430Y-126745000D01*
X190834287Y-126673571D01*
X191120001Y-126673571D01*
X191262858Y-126745000D01*
X191334287Y-126887857D01*
X191334287Y-127030714D01*
X190620001Y-127173571D01*
X191762858Y-126673571D02*
X192334287Y-126673571D01*
X191977144Y-126173571D02*
X191977144Y-127459286D01*
X192048572Y-127602143D01*
X192191430Y-127673571D01*
X192334287Y-127673571D01*
X193405715Y-127602143D02*
X193262858Y-127673571D01*
X192977144Y-127673571D01*
X192834287Y-127602143D01*
X192762858Y-127459286D01*
X192762858Y-126887857D01*
X192834287Y-126745000D01*
X192977144Y-126673571D01*
X193262858Y-126673571D01*
X193405715Y-126745000D01*
X193477144Y-126887857D01*
X193477144Y-127030714D01*
X192762858Y-127173571D01*
X195477144Y-126816429D02*
X195334286Y-126745000D01*
X195262858Y-126673571D01*
X195191429Y-126530714D01*
X195191429Y-126459286D01*
X195262858Y-126316429D01*
X195334286Y-126245000D01*
X195477144Y-126173571D01*
X195762858Y-126173571D01*
X195905715Y-126245000D01*
X195977144Y-126316429D01*
X196048572Y-126459286D01*
X196048572Y-126530714D01*
X195977144Y-126673571D01*
X195905715Y-126745000D01*
X195762858Y-126816429D01*
X195477144Y-126816429D01*
X195334286Y-126887857D01*
X195262858Y-126959286D01*
X195191429Y-127102143D01*
X195191429Y-127387857D01*
X195262858Y-127530714D01*
X195334286Y-127602143D01*
X195477144Y-127673571D01*
X195762858Y-127673571D01*
X195905715Y-127602143D01*
X195977144Y-127530714D01*
X196048572Y-127387857D01*
X196048572Y-127102143D01*
X195977144Y-126959286D01*
X195905715Y-126887857D01*
X195762858Y-126816429D01*
X197834286Y-127673571D02*
X197834286Y-126173571D01*
X197834286Y-126745000D02*
X197977143Y-126673571D01*
X198262857Y-126673571D01*
X198405714Y-126745000D01*
X198477143Y-126816429D01*
X198548572Y-126959286D01*
X198548572Y-127387857D01*
X198477143Y-127530714D01*
X198405714Y-127602143D01*
X198262857Y-127673571D01*
X197977143Y-127673571D01*
X197834286Y-127602143D01*
X199191429Y-127673571D02*
X199191429Y-126673571D01*
X199191429Y-126173571D02*
X199120000Y-126245000D01*
X199191429Y-126316429D01*
X199262857Y-126245000D01*
X199191429Y-126173571D01*
X199191429Y-126316429D01*
X199691429Y-126673571D02*
X200262858Y-126673571D01*
X199905715Y-126173571D02*
X199905715Y-127459286D01*
X199977143Y-127602143D01*
X200120001Y-127673571D01*
X200262858Y-127673571D01*
X202548572Y-127673571D02*
X202548572Y-126887857D01*
X202477143Y-126745000D01*
X202334286Y-126673571D01*
X202048572Y-126673571D01*
X201905715Y-126745000D01*
X202548572Y-127602143D02*
X202405715Y-127673571D01*
X202048572Y-127673571D01*
X201905715Y-127602143D01*
X201834286Y-127459286D01*
X201834286Y-127316429D01*
X201905715Y-127173571D01*
X202048572Y-127102143D01*
X202405715Y-127102143D01*
X202548572Y-127030714D01*
X203905715Y-127673571D02*
X203905715Y-126173571D01*
X203905715Y-127602143D02*
X203762858Y-127673571D01*
X203477144Y-127673571D01*
X203334286Y-127602143D01*
X203262858Y-127530714D01*
X203191429Y-127387857D01*
X203191429Y-126959286D01*
X203262858Y-126816429D01*
X203334286Y-126745000D01*
X203477144Y-126673571D01*
X203762858Y-126673571D01*
X203905715Y-126745000D01*
X205262858Y-127673571D02*
X205262858Y-126173571D01*
X205262858Y-127602143D02*
X205120001Y-127673571D01*
X204834287Y-127673571D01*
X204691429Y-127602143D01*
X204620001Y-127530714D01*
X204548572Y-127387857D01*
X204548572Y-126959286D01*
X204620001Y-126816429D01*
X204691429Y-126745000D01*
X204834287Y-126673571D01*
X205120001Y-126673571D01*
X205262858Y-126745000D01*
X206548572Y-127602143D02*
X206405715Y-127673571D01*
X206120001Y-127673571D01*
X205977144Y-127602143D01*
X205905715Y-127459286D01*
X205905715Y-126887857D01*
X205977144Y-126745000D01*
X206120001Y-126673571D01*
X206405715Y-126673571D01*
X206548572Y-126745000D01*
X206620001Y-126887857D01*
X206620001Y-127030714D01*
X205905715Y-127173571D01*
X207262858Y-127673571D02*
X207262858Y-126673571D01*
X207262858Y-126959286D02*
X207334286Y-126816429D01*
X207405715Y-126745000D01*
X207548572Y-126673571D01*
X207691429Y-126673571D01*
X209191429Y-126673571D02*
X209548572Y-127673571D01*
X209905714Y-126673571D01*
X211262857Y-127673571D02*
X210405714Y-127673571D01*
X210834286Y-127673571D02*
X210834286Y-126173571D01*
X210691429Y-126387857D01*
X210548571Y-126530714D01*
X210405714Y-126602143D01*
X192155715Y-129795000D02*
X192870001Y-129795000D01*
X192012858Y-130223571D02*
X192512858Y-128723571D01*
X193012858Y-130223571D01*
X194655715Y-129652143D02*
X195798572Y-129652143D01*
X195227143Y-130223571D02*
X195227143Y-129080714D01*
X198155715Y-129437857D02*
X198370001Y-129509286D01*
X198441429Y-129580714D01*
X198512858Y-129723571D01*
X198512858Y-129937857D01*
X198441429Y-130080714D01*
X198370001Y-130152143D01*
X198227143Y-130223571D01*
X197655715Y-130223571D01*
X197655715Y-128723571D01*
X198155715Y-128723571D01*
X198298572Y-128795000D01*
X198370001Y-128866429D01*
X198441429Y-129009286D01*
X198441429Y-129152143D01*
X198370001Y-129295000D01*
X198298572Y-129366429D01*
X198155715Y-129437857D01*
X197655715Y-129437857D01*
X200298572Y-129437857D02*
X201441429Y-129437857D01*
X201441429Y-129866429D02*
X200298572Y-129866429D01*
X203227143Y-130152143D02*
X203441429Y-130223571D01*
X203798572Y-130223571D01*
X203941429Y-130152143D01*
X204012858Y-130080714D01*
X204084286Y-129937857D01*
X204084286Y-129795000D01*
X204012858Y-129652143D01*
X203941429Y-129580714D01*
X203798572Y-129509286D01*
X203512858Y-129437857D01*
X203370000Y-129366429D01*
X203298572Y-129295000D01*
X203227143Y-129152143D01*
X203227143Y-129009286D01*
X203298572Y-128866429D01*
X203370000Y-128795000D01*
X203512858Y-128723571D01*
X203870000Y-128723571D01*
X204084286Y-128795000D01*
D13*
X210820000Y-77470000D03*
D14*
X171450000Y-88900000D03*
X171450000Y-86360000D03*
D15*
X171450000Y-91440000D03*
D14*
X171450000Y-68580000D03*
X171450000Y-66040000D03*
D15*
X171450000Y-71120000D03*
D14*
X140970000Y-104140000D03*
D16*
X146050000Y-104140000D03*
D14*
X167640000Y-137160000D03*
X165100000Y-137160000D03*
X162560000Y-137160000D03*
X160020000Y-137160000D03*
X157480000Y-137160000D03*
X154940000Y-137160000D03*
X152400000Y-137160000D03*
X149860000Y-137160000D03*
X171450000Y-137160000D03*
X171450000Y-139700000D03*
D15*
X171450000Y-134620000D03*
D14*
X176530000Y-137160000D03*
X176530000Y-139700000D03*
D15*
X176530000Y-134620000D03*
D14*
X181610000Y-137160000D03*
X181610000Y-139700000D03*
D15*
X181610000Y-134620000D03*
D14*
X186690000Y-137160000D03*
X186690000Y-139700000D03*
D15*
X186690000Y-134620000D03*
D14*
X176530000Y-116840000D03*
X176530000Y-119380000D03*
D15*
X176530000Y-114300000D03*
D14*
X181610000Y-116840000D03*
X181610000Y-119380000D03*
D15*
X181610000Y-114300000D03*
D14*
X186690000Y-116840000D03*
X186690000Y-119380000D03*
D15*
X186690000Y-114300000D03*
D14*
X171450000Y-142240000D03*
D16*
X176530000Y-142240000D03*
D14*
X181610000Y-142240000D03*
D16*
X186690000Y-142240000D03*
D14*
X171450000Y-121920000D03*
D16*
X176530000Y-121920000D03*
D14*
X181610000Y-121920000D03*
D16*
X186690000Y-121920000D03*
D17*
X160020000Y-144780000D03*
X157480000Y-144780000D03*
D14*
X167640000Y-142240000D03*
X165100000Y-142240000D03*
X162560000Y-142240000D03*
X160020000Y-142240000D03*
X157480000Y-142240000D03*
X154940000Y-142240000D03*
X152400000Y-142240000D03*
X149860000Y-142240000D03*
X167640000Y-139700000D03*
X165100000Y-139700000D03*
X162560000Y-139700000D03*
X160020000Y-139700000D03*
X157480000Y-139700000D03*
X154940000Y-139700000D03*
X152400000Y-139700000D03*
X149860000Y-139700000D03*
X176530000Y-109220000D03*
X176530000Y-106680000D03*
D15*
X176530000Y-111760000D03*
D14*
X181610000Y-109220000D03*
X181610000Y-106680000D03*
D15*
X181610000Y-111760000D03*
D14*
X186690000Y-109220000D03*
X186690000Y-106680000D03*
D15*
X186690000Y-111760000D03*
D14*
X191770000Y-109220000D03*
X191770000Y-106680000D03*
D15*
X191770000Y-111760000D03*
D14*
X196850000Y-109220000D03*
X196850000Y-106680000D03*
D15*
X196850000Y-111760000D03*
D14*
X201930000Y-109220000D03*
X201930000Y-106680000D03*
D15*
X201930000Y-111760000D03*
D14*
X207010000Y-109220000D03*
X207010000Y-106680000D03*
D15*
X207010000Y-111760000D03*
D14*
X179070000Y-104140000D03*
D16*
X184150000Y-104140000D03*
D14*
X186690000Y-104140000D03*
D16*
X191770000Y-104140000D03*
D14*
X194310000Y-104140000D03*
D16*
X199390000Y-104140000D03*
D14*
X201930000Y-104140000D03*
D16*
X207010000Y-104140000D03*
D14*
X171450000Y-129540000D03*
X171450000Y-127000000D03*
D15*
X171450000Y-132080000D03*
D14*
X176530000Y-129540000D03*
X176530000Y-127000000D03*
D15*
X176530000Y-132080000D03*
D14*
X181610000Y-129540000D03*
X181610000Y-127000000D03*
D15*
X181610000Y-132080000D03*
D14*
X171450000Y-116840000D03*
X171450000Y-119380000D03*
D15*
X171450000Y-114300000D03*
D14*
X191770000Y-116840000D03*
X191770000Y-119380000D03*
D15*
X191770000Y-114300000D03*
D14*
X196850000Y-116840000D03*
X196850000Y-119380000D03*
D15*
X196850000Y-114300000D03*
D14*
X201930000Y-116840000D03*
X201930000Y-119380000D03*
D15*
X201930000Y-114300000D03*
D14*
X207010000Y-116840000D03*
X207010000Y-119380000D03*
D15*
X207010000Y-114300000D03*
D14*
X171450000Y-109220000D03*
X171450000Y-106680000D03*
D15*
X171450000Y-111760000D03*
D14*
X176530000Y-124460000D03*
D16*
X171450000Y-124460000D03*
D14*
X179070000Y-124460000D03*
D16*
X184150000Y-124460000D03*
D14*
X191770000Y-121920000D03*
D16*
X196850000Y-121920000D03*
D14*
X207010000Y-121920000D03*
D16*
X201930000Y-121920000D03*
D14*
X176530000Y-104140000D03*
D16*
X171450000Y-104140000D03*
D14*
X171450000Y-96520000D03*
X171450000Y-99060000D03*
D15*
X171450000Y-93980000D03*
D14*
X176530000Y-96520000D03*
X176530000Y-99060000D03*
D15*
X176530000Y-93980000D03*
D14*
X181610000Y-96520000D03*
X181610000Y-99060000D03*
D15*
X181610000Y-93980000D03*
D14*
X186690000Y-96520000D03*
X186690000Y-99060000D03*
D15*
X186690000Y-93980000D03*
D14*
X191770000Y-96520000D03*
X191770000Y-99060000D03*
D15*
X191770000Y-93980000D03*
D14*
X196850000Y-96520000D03*
X196850000Y-99060000D03*
D15*
X196850000Y-93980000D03*
D14*
X201930000Y-96520000D03*
X201930000Y-99060000D03*
D15*
X201930000Y-93980000D03*
D14*
X207010000Y-96520000D03*
X207010000Y-99060000D03*
D15*
X207010000Y-93980000D03*
D14*
X176530000Y-88900000D03*
X176530000Y-86360000D03*
D15*
X176530000Y-91440000D03*
D14*
X181610000Y-88900000D03*
X181610000Y-86360000D03*
D15*
X181610000Y-91440000D03*
D14*
X186690000Y-88900000D03*
X186690000Y-86360000D03*
D15*
X186690000Y-91440000D03*
D14*
X191770000Y-88900000D03*
X191770000Y-86360000D03*
D15*
X191770000Y-91440000D03*
D14*
X196850000Y-88900000D03*
X196850000Y-86360000D03*
D15*
X196850000Y-91440000D03*
D14*
X201930000Y-88900000D03*
X201930000Y-86360000D03*
D15*
X201930000Y-91440000D03*
D14*
X207010000Y-88900000D03*
X207010000Y-86360000D03*
D15*
X207010000Y-91440000D03*
D14*
X171450000Y-76200000D03*
X171450000Y-78740000D03*
D15*
X171450000Y-73660000D03*
D14*
X176530000Y-76200000D03*
X176530000Y-78740000D03*
D15*
X176530000Y-73660000D03*
D14*
X181610000Y-76200000D03*
X181610000Y-78740000D03*
D15*
X181610000Y-73660000D03*
D14*
X186690000Y-76200000D03*
X186690000Y-78740000D03*
D15*
X186690000Y-73660000D03*
D14*
X191770000Y-76200000D03*
X191770000Y-78740000D03*
D15*
X191770000Y-73660000D03*
D14*
X196850000Y-76200000D03*
X196850000Y-78740000D03*
D15*
X196850000Y-73660000D03*
D14*
X201930000Y-76200000D03*
X201930000Y-78740000D03*
D15*
X201930000Y-73660000D03*
D14*
X207010000Y-76200000D03*
X207010000Y-78740000D03*
D15*
X207010000Y-73660000D03*
D14*
X176530000Y-68580000D03*
X176530000Y-66040000D03*
D15*
X176530000Y-71120000D03*
D14*
X181610000Y-68580000D03*
X181610000Y-66040000D03*
D15*
X181610000Y-71120000D03*
D14*
X186690000Y-68580000D03*
X186690000Y-66040000D03*
D15*
X186690000Y-71120000D03*
D14*
X191770000Y-68580000D03*
X191770000Y-66040000D03*
D15*
X191770000Y-71120000D03*
D14*
X196850000Y-68580000D03*
X196850000Y-66040000D03*
D15*
X196850000Y-71120000D03*
D14*
X201930000Y-68580000D03*
X201930000Y-66040000D03*
D15*
X201930000Y-71120000D03*
D14*
X207010000Y-68580000D03*
X207010000Y-66040000D03*
D15*
X207010000Y-71120000D03*
D14*
X171450000Y-101600000D03*
D16*
X176530000Y-101600000D03*
D14*
X181610000Y-101600000D03*
D16*
X186690000Y-101600000D03*
D14*
X191770000Y-101600000D03*
D16*
X196850000Y-101600000D03*
D14*
X207010000Y-101600000D03*
D16*
X201930000Y-101600000D03*
D14*
X176530000Y-83820000D03*
D16*
X171450000Y-83820000D03*
D14*
X179070000Y-83820000D03*
D16*
X184150000Y-83820000D03*
D14*
X186690000Y-83820000D03*
D16*
X191770000Y-83820000D03*
D14*
X194310000Y-83820000D03*
D16*
X199390000Y-83820000D03*
D14*
X201930000Y-83820000D03*
D16*
X207010000Y-83820000D03*
D14*
X171450000Y-81280000D03*
D16*
X176530000Y-81280000D03*
D14*
X181610000Y-81280000D03*
D16*
X186690000Y-81280000D03*
D14*
X191770000Y-81280000D03*
D16*
X196850000Y-81280000D03*
D14*
X207010000Y-81280000D03*
D16*
X201930000Y-81280000D03*
D14*
X176530000Y-63500000D03*
D16*
X171450000Y-63500000D03*
D14*
X179070000Y-63500000D03*
D16*
X184150000Y-63500000D03*
D14*
X186690000Y-63500000D03*
D16*
X191770000Y-63500000D03*
D14*
X194310000Y-63500000D03*
D16*
X199390000Y-63500000D03*
D14*
X201930000Y-63500000D03*
D16*
X207010000Y-63500000D03*
D14*
X147320000Y-144780000D03*
X146050000Y-76200000D03*
X146050000Y-78740000D03*
D15*
X146050000Y-73660000D03*
D14*
X140970000Y-76200000D03*
X140970000Y-78740000D03*
D15*
X140970000Y-73660000D03*
D14*
X135890000Y-76200000D03*
X135890000Y-78740000D03*
D15*
X135890000Y-73660000D03*
D14*
X130810000Y-76200000D03*
X130810000Y-78740000D03*
D15*
X130810000Y-73660000D03*
D14*
X125730000Y-76200000D03*
X125730000Y-78740000D03*
D15*
X125730000Y-73660000D03*
D14*
X120650000Y-76200000D03*
X120650000Y-78740000D03*
D15*
X120650000Y-73660000D03*
D14*
X115570000Y-76200000D03*
X115570000Y-78740000D03*
D15*
X115570000Y-73660000D03*
D14*
X110490000Y-76200000D03*
X110490000Y-78740000D03*
D15*
X110490000Y-73660000D03*
D14*
X146050000Y-68580000D03*
X146050000Y-66040000D03*
D15*
X146050000Y-71120000D03*
D14*
X140970000Y-68580000D03*
X140970000Y-66040000D03*
D15*
X140970000Y-71120000D03*
D14*
X135890000Y-68580000D03*
X135890000Y-66040000D03*
D15*
X135890000Y-71120000D03*
D14*
X130810000Y-68580000D03*
X130810000Y-66040000D03*
D15*
X130810000Y-71120000D03*
D14*
X125730000Y-68580000D03*
X125730000Y-66040000D03*
D15*
X125730000Y-71120000D03*
D14*
X120650000Y-68580000D03*
X120650000Y-66040000D03*
D15*
X120650000Y-71120000D03*
D14*
X115570000Y-68580000D03*
X115570000Y-66040000D03*
D15*
X115570000Y-71120000D03*
D14*
X110490000Y-68580000D03*
X110490000Y-66040000D03*
D15*
X110490000Y-71120000D03*
D14*
X146050000Y-96520000D03*
X146050000Y-99060000D03*
D15*
X146050000Y-93980000D03*
D14*
X140970000Y-96520000D03*
X140970000Y-99060000D03*
D15*
X140970000Y-93980000D03*
D14*
X135890000Y-96520000D03*
X135890000Y-99060000D03*
D15*
X135890000Y-93980000D03*
D14*
X130810000Y-96520000D03*
X130810000Y-99060000D03*
D15*
X130810000Y-93980000D03*
D14*
X125730000Y-96520000D03*
X125730000Y-99060000D03*
D15*
X125730000Y-93980000D03*
D14*
X120650000Y-96520000D03*
X120650000Y-99060000D03*
D15*
X120650000Y-93980000D03*
D14*
X115570000Y-96520000D03*
X115570000Y-99060000D03*
D15*
X115570000Y-93980000D03*
D14*
X110490000Y-96520000D03*
X110490000Y-99060000D03*
D15*
X110490000Y-93980000D03*
D14*
X146050000Y-88900000D03*
X146050000Y-86360000D03*
D15*
X146050000Y-91440000D03*
D14*
X140970000Y-88900000D03*
X140970000Y-86360000D03*
D15*
X140970000Y-91440000D03*
D14*
X135890000Y-88900000D03*
X135890000Y-86360000D03*
D15*
X135890000Y-91440000D03*
D14*
X130810000Y-88900000D03*
X130810000Y-86360000D03*
D15*
X130810000Y-91440000D03*
D14*
X125730000Y-88900000D03*
X125730000Y-86360000D03*
D15*
X125730000Y-91440000D03*
D14*
X120650000Y-88900000D03*
X120650000Y-86360000D03*
D15*
X120650000Y-91440000D03*
D14*
X115570000Y-88900000D03*
X115570000Y-86360000D03*
D15*
X115570000Y-91440000D03*
D14*
X110490000Y-88900000D03*
X110490000Y-86360000D03*
D15*
X110490000Y-91440000D03*
D14*
X146050000Y-116840000D03*
X146050000Y-119380000D03*
D15*
X146050000Y-114300000D03*
D14*
X140970000Y-116840000D03*
X140970000Y-119380000D03*
D15*
X140970000Y-114300000D03*
D14*
X135890000Y-116840000D03*
X135890000Y-119380000D03*
D15*
X135890000Y-114300000D03*
D14*
X130810000Y-116840000D03*
X130810000Y-119380000D03*
D15*
X130810000Y-114300000D03*
D14*
X125730000Y-116840000D03*
X125730000Y-119380000D03*
D15*
X125730000Y-114300000D03*
D14*
X120650000Y-116840000D03*
X120650000Y-119380000D03*
D15*
X120650000Y-114300000D03*
D14*
X115570000Y-116840000D03*
X115570000Y-119380000D03*
D15*
X115570000Y-114300000D03*
D14*
X110490000Y-116840000D03*
X110490000Y-119380000D03*
D15*
X110490000Y-114300000D03*
D14*
X146050000Y-109220000D03*
X146050000Y-106680000D03*
D15*
X146050000Y-111760000D03*
D14*
X140970000Y-109220000D03*
X140970000Y-106680000D03*
D15*
X140970000Y-111760000D03*
D14*
X135890000Y-109220000D03*
X135890000Y-106680000D03*
D15*
X135890000Y-111760000D03*
D14*
X130810000Y-109220000D03*
X130810000Y-106680000D03*
D15*
X130810000Y-111760000D03*
D14*
X125730000Y-109220000D03*
X125730000Y-106680000D03*
D15*
X125730000Y-111760000D03*
D14*
X120650000Y-109220000D03*
X120650000Y-106680000D03*
D15*
X120650000Y-111760000D03*
D14*
X115570000Y-109220000D03*
X115570000Y-106680000D03*
D15*
X115570000Y-111760000D03*
D14*
X110490000Y-109220000D03*
X110490000Y-106680000D03*
D15*
X110490000Y-111760000D03*
D14*
X146050000Y-137160000D03*
X146050000Y-139700000D03*
D15*
X146050000Y-134620000D03*
D14*
X140970000Y-137160000D03*
X140970000Y-139700000D03*
D15*
X140970000Y-134620000D03*
D14*
X135890000Y-137160000D03*
X135890000Y-139700000D03*
D15*
X135890000Y-134620000D03*
D14*
X130810000Y-137160000D03*
X130810000Y-139700000D03*
D15*
X130810000Y-134620000D03*
D14*
X125730000Y-137160000D03*
X125730000Y-139700000D03*
D15*
X125730000Y-134620000D03*
D14*
X120650000Y-137160000D03*
X120650000Y-139700000D03*
D15*
X120650000Y-134620000D03*
D14*
X115570000Y-137160000D03*
X115570000Y-139700000D03*
D15*
X115570000Y-134620000D03*
D14*
X110490000Y-137160000D03*
X110490000Y-139700000D03*
D15*
X110490000Y-134620000D03*
D14*
X146050000Y-129540000D03*
X146050000Y-127000000D03*
D15*
X146050000Y-132080000D03*
D14*
X140970000Y-129540000D03*
X140970000Y-127000000D03*
D15*
X140970000Y-132080000D03*
D14*
X135890000Y-129540000D03*
X135890000Y-127000000D03*
D15*
X135890000Y-132080000D03*
D14*
X130810000Y-129540000D03*
X130810000Y-127000000D03*
D15*
X130810000Y-132080000D03*
D14*
X125730000Y-129540000D03*
X125730000Y-127000000D03*
D15*
X125730000Y-132080000D03*
D14*
X120650000Y-129540000D03*
X120650000Y-127000000D03*
D15*
X120650000Y-132080000D03*
D14*
X115570000Y-129540000D03*
X115570000Y-127000000D03*
D15*
X115570000Y-132080000D03*
D14*
X110490000Y-129540000D03*
X110490000Y-127000000D03*
D15*
X110490000Y-132080000D03*
D14*
X146050000Y-81280000D03*
D16*
X140970000Y-81280000D03*
D14*
X135890000Y-81280000D03*
D16*
X130810000Y-81280000D03*
D14*
X125730000Y-81280000D03*
D16*
X120650000Y-81280000D03*
D14*
X110490000Y-81280000D03*
D16*
X115570000Y-81280000D03*
D14*
X140970000Y-63500000D03*
D16*
X146050000Y-63500000D03*
D14*
X138430000Y-63500000D03*
D16*
X133350000Y-63500000D03*
D14*
X130810000Y-63500000D03*
D16*
X125730000Y-63500000D03*
D14*
X123190000Y-63500000D03*
D16*
X118110000Y-63500000D03*
D14*
X115570000Y-63500000D03*
D16*
X110490000Y-63500000D03*
D14*
X146050000Y-101600000D03*
D16*
X140970000Y-101600000D03*
D14*
X135890000Y-101600000D03*
D16*
X130810000Y-101600000D03*
D14*
X125730000Y-101600000D03*
D16*
X120650000Y-101600000D03*
D14*
X110490000Y-101600000D03*
D16*
X115570000Y-101600000D03*
D14*
X140970000Y-83820000D03*
D16*
X146050000Y-83820000D03*
D14*
X138430000Y-83820000D03*
D16*
X133350000Y-83820000D03*
D14*
X130810000Y-83820000D03*
D16*
X125730000Y-83820000D03*
D14*
X123190000Y-83820000D03*
D16*
X118110000Y-83820000D03*
D14*
X115570000Y-83820000D03*
D16*
X110490000Y-83820000D03*
D14*
X146050000Y-121920000D03*
D16*
X140970000Y-121920000D03*
D14*
X135890000Y-121920000D03*
D16*
X130810000Y-121920000D03*
D14*
X125730000Y-121920000D03*
D16*
X120650000Y-121920000D03*
D14*
X110490000Y-121920000D03*
D16*
X115570000Y-121920000D03*
D14*
X138430000Y-104140000D03*
D16*
X133350000Y-104140000D03*
D14*
X130810000Y-104140000D03*
D16*
X125730000Y-104140000D03*
D14*
X123190000Y-104140000D03*
D16*
X118110000Y-104140000D03*
D14*
X115570000Y-104140000D03*
D16*
X110490000Y-104140000D03*
D14*
X146050000Y-142240000D03*
D16*
X140970000Y-142240000D03*
D14*
X135890000Y-142240000D03*
D16*
X130810000Y-142240000D03*
D14*
X125730000Y-142240000D03*
D16*
X120650000Y-142240000D03*
D14*
X110490000Y-142240000D03*
D16*
X115570000Y-142240000D03*
D14*
X140970000Y-124460000D03*
D16*
X146050000Y-124460000D03*
D14*
X138430000Y-124460000D03*
D16*
X133350000Y-124460000D03*
D14*
X130810000Y-124460000D03*
D16*
X125730000Y-124460000D03*
D14*
X123190000Y-124460000D03*
D16*
X118110000Y-124460000D03*
D14*
X115570000Y-124460000D03*
D16*
X110490000Y-124460000D03*
D14*
X167640000Y-120650000D03*
D16*
X167640000Y-125730000D03*
D14*
X167640000Y-128270000D03*
D16*
X167640000Y-133350000D03*
D14*
X165100000Y-113030000D03*
D16*
X165100000Y-118110000D03*
D14*
X167640000Y-113030000D03*
D16*
X167640000Y-118110000D03*
D14*
X162560000Y-92710000D03*
D16*
X162560000Y-97790000D03*
D14*
X165100000Y-92710000D03*
D16*
X165100000Y-97790000D03*
D14*
X160020000Y-72390000D03*
D16*
X160020000Y-77470000D03*
D14*
X162560000Y-72390000D03*
D16*
X162560000Y-77470000D03*
D14*
X157480000Y-72390000D03*
D16*
X157480000Y-77470000D03*
D14*
X154940000Y-72390000D03*
D16*
X154940000Y-77470000D03*
D14*
X154940000Y-92710000D03*
D16*
X154940000Y-97790000D03*
D14*
X152400000Y-92710000D03*
D16*
X152400000Y-97790000D03*
D14*
X152400000Y-113030000D03*
D16*
X152400000Y-118110000D03*
D14*
X149860000Y-113030000D03*
D16*
X149860000Y-118110000D03*
D14*
X149860000Y-120650000D03*
D16*
X149860000Y-125730000D03*
D14*
X149860000Y-128270000D03*
D16*
X149860000Y-133350000D03*
D13*
X106680000Y-63500000D03*
X149860000Y-109220000D03*
X191770000Y-140970000D03*
M02*
