G04 #@! TF.FileFunction,Soldermask,Bot*
%FSLAX46Y46*%
G04 Gerber Fmt 4.6, Leading zero omitted, Abs format (unit mm)*
G04 Created by KiCad (PCBNEW 4.0.7) date Mon Apr 30 03:51:18 2018*
%MOMM*%
%LPD*%
G01*
G04 APERTURE LIST*
%ADD10C,0.100000*%
%ADD11C,1.924000*%
%ADD12C,1.800000*%
%ADD13R,1.800000X1.800000*%
%ADD14O,1.800000X1.800000*%
%ADD15C,4.800000*%
G04 APERTURE END LIST*
D10*
D11*
X104140000Y-38100000D03*
X106680000Y-38100000D03*
D12*
X83820000Y-30480000D03*
X86360000Y-30480000D03*
X88900000Y-30480000D03*
X91440000Y-30480000D03*
X93980000Y-30480000D03*
X96520000Y-30480000D03*
X99060000Y-30480000D03*
X101600000Y-30480000D03*
X83820000Y-27940000D03*
X86360000Y-27940000D03*
X88900000Y-27940000D03*
X91440000Y-27940000D03*
X93980000Y-27940000D03*
X96520000Y-27940000D03*
X99060000Y-27940000D03*
X101600000Y-27940000D03*
X38100000Y-30480000D03*
X40640000Y-30480000D03*
X43180000Y-30480000D03*
X45720000Y-30480000D03*
X48260000Y-30480000D03*
X50800000Y-30480000D03*
X53340000Y-30480000D03*
X55880000Y-30480000D03*
D11*
X104140000Y-40640000D03*
X106680000Y-40640000D03*
D12*
X38100000Y-27940000D03*
X40640000Y-27940000D03*
X43180000Y-27940000D03*
X45720000Y-27940000D03*
X48260000Y-27940000D03*
X50800000Y-27940000D03*
X53340000Y-27940000D03*
X55880000Y-27940000D03*
X101600000Y-58420000D03*
X104140000Y-58420000D03*
D13*
X99060000Y-58420000D03*
D12*
X101600000Y-68580000D03*
X104140000Y-68580000D03*
D13*
X99060000Y-68580000D03*
D12*
X101600000Y-63500000D03*
X104140000Y-63500000D03*
D13*
X99060000Y-63500000D03*
D12*
X101600000Y-73660000D03*
X104140000Y-73660000D03*
D13*
X99060000Y-73660000D03*
D12*
X101600000Y-78740000D03*
X104140000Y-78740000D03*
D13*
X99060000Y-78740000D03*
D12*
X101600000Y-53340000D03*
X104140000Y-53340000D03*
D13*
X99060000Y-53340000D03*
D12*
X91440000Y-58420000D03*
X93980000Y-58420000D03*
D13*
X88900000Y-58420000D03*
D12*
X91440000Y-68580000D03*
X93980000Y-68580000D03*
D13*
X88900000Y-68580000D03*
D12*
X91440000Y-63500000D03*
X93980000Y-63500000D03*
D13*
X88900000Y-63500000D03*
D12*
X91440000Y-73660000D03*
X93980000Y-73660000D03*
D13*
X88900000Y-73660000D03*
D12*
X91440000Y-78740000D03*
X93980000Y-78740000D03*
D13*
X88900000Y-78740000D03*
D12*
X91440000Y-53340000D03*
X93980000Y-53340000D03*
D13*
X88900000Y-53340000D03*
D12*
X91440000Y-48260000D03*
X93980000Y-48260000D03*
D13*
X88900000Y-48260000D03*
D12*
X81280000Y-58420000D03*
X83820000Y-58420000D03*
D13*
X78740000Y-58420000D03*
D12*
X81280000Y-68580000D03*
X83820000Y-68580000D03*
D13*
X78740000Y-68580000D03*
D12*
X81280000Y-63500000D03*
X83820000Y-63500000D03*
D13*
X78740000Y-63500000D03*
D12*
X81280000Y-73660000D03*
X83820000Y-73660000D03*
D13*
X78740000Y-73660000D03*
D12*
X81280000Y-78740000D03*
X83820000Y-78740000D03*
D13*
X78740000Y-78740000D03*
D12*
X81280000Y-53340000D03*
X83820000Y-53340000D03*
D13*
X78740000Y-53340000D03*
D12*
X81280000Y-48260000D03*
X83820000Y-48260000D03*
D13*
X78740000Y-48260000D03*
D12*
X71120000Y-58420000D03*
X73660000Y-58420000D03*
D13*
X68580000Y-58420000D03*
D12*
X71120000Y-68580000D03*
X73660000Y-68580000D03*
D13*
X68580000Y-68580000D03*
D12*
X71120000Y-63500000D03*
X73660000Y-63500000D03*
D13*
X68580000Y-63500000D03*
D12*
X71120000Y-73660000D03*
X73660000Y-73660000D03*
D13*
X68580000Y-73660000D03*
D12*
X71120000Y-78740000D03*
X73660000Y-78740000D03*
D13*
X68580000Y-78740000D03*
D12*
X71120000Y-53340000D03*
X73660000Y-53340000D03*
D13*
X68580000Y-53340000D03*
D12*
X71120000Y-48260000D03*
X73660000Y-48260000D03*
D13*
X68580000Y-48260000D03*
D12*
X60960000Y-58420000D03*
X63500000Y-58420000D03*
D13*
X58420000Y-58420000D03*
D12*
X60960000Y-68580000D03*
X63500000Y-68580000D03*
D13*
X58420000Y-68580000D03*
D12*
X60960000Y-63500000D03*
X63500000Y-63500000D03*
D13*
X58420000Y-63500000D03*
D12*
X60960000Y-73660000D03*
X63500000Y-73660000D03*
D13*
X58420000Y-73660000D03*
D12*
X60960000Y-78740000D03*
X63500000Y-78740000D03*
D13*
X58420000Y-78740000D03*
D12*
X60960000Y-53340000D03*
X63500000Y-53340000D03*
D13*
X58420000Y-53340000D03*
D12*
X60960000Y-48260000D03*
X63500000Y-48260000D03*
D13*
X58420000Y-48260000D03*
D12*
X50800000Y-58420000D03*
X53340000Y-58420000D03*
D13*
X48260000Y-58420000D03*
D12*
X50800000Y-68580000D03*
X53340000Y-68580000D03*
D13*
X48260000Y-68580000D03*
D12*
X50800000Y-63500000D03*
X53340000Y-63500000D03*
D13*
X48260000Y-63500000D03*
D12*
X50800000Y-73660000D03*
X53340000Y-73660000D03*
D13*
X48260000Y-73660000D03*
D12*
X50800000Y-78740000D03*
X53340000Y-78740000D03*
D13*
X48260000Y-78740000D03*
D12*
X50800000Y-53340000D03*
X53340000Y-53340000D03*
D13*
X48260000Y-53340000D03*
D12*
X50800000Y-48260000D03*
X53340000Y-48260000D03*
D13*
X48260000Y-48260000D03*
D12*
X40640000Y-58420000D03*
X43180000Y-58420000D03*
D13*
X38100000Y-58420000D03*
D12*
X40640000Y-68580000D03*
X43180000Y-68580000D03*
D13*
X38100000Y-68580000D03*
D12*
X40640000Y-63500000D03*
X43180000Y-63500000D03*
D13*
X38100000Y-63500000D03*
D12*
X40640000Y-73660000D03*
X43180000Y-73660000D03*
D13*
X38100000Y-73660000D03*
D12*
X40640000Y-78740000D03*
X43180000Y-78740000D03*
D13*
X38100000Y-78740000D03*
D12*
X40640000Y-53340000D03*
X43180000Y-53340000D03*
D13*
X38100000Y-53340000D03*
D12*
X40640000Y-48260000D03*
X43180000Y-48260000D03*
D13*
X38100000Y-48260000D03*
D12*
X30480000Y-58420000D03*
X33020000Y-58420000D03*
D13*
X27940000Y-58420000D03*
D12*
X30480000Y-68580000D03*
X33020000Y-68580000D03*
D13*
X27940000Y-68580000D03*
D12*
X30480000Y-63500000D03*
X33020000Y-63500000D03*
D13*
X27940000Y-63500000D03*
D12*
X30480000Y-73660000D03*
X33020000Y-73660000D03*
D13*
X27940000Y-73660000D03*
D12*
X30480000Y-78740000D03*
X33020000Y-78740000D03*
D13*
X27940000Y-78740000D03*
D12*
X30480000Y-53340000D03*
X33020000Y-53340000D03*
D13*
X27940000Y-53340000D03*
D12*
X30480000Y-48260000D03*
X33020000Y-48260000D03*
D13*
X27940000Y-48260000D03*
D12*
X101600000Y-48260000D03*
X104140000Y-48260000D03*
D13*
X99060000Y-48260000D03*
D12*
X60960000Y-27940000D03*
X63500000Y-27940000D03*
X66040000Y-27940000D03*
X68580000Y-27940000D03*
X71120000Y-27940000D03*
X73660000Y-27940000D03*
X76200000Y-27940000D03*
X78740000Y-27940000D03*
X60960000Y-30480000D03*
X63500000Y-30480000D03*
X66040000Y-30480000D03*
X68580000Y-30480000D03*
X71120000Y-30480000D03*
X73660000Y-30480000D03*
X76200000Y-30480000D03*
X78740000Y-30480000D03*
X106680000Y-58420000D03*
D14*
X106680000Y-63500000D03*
D12*
X106680000Y-50800000D03*
D14*
X106680000Y-55880000D03*
D12*
X106680000Y-43180000D03*
D14*
X106680000Y-48260000D03*
D12*
X106680000Y-66040000D03*
D14*
X106680000Y-71120000D03*
D12*
X106680000Y-73660000D03*
D14*
X106680000Y-78740000D03*
D12*
X99060000Y-43180000D03*
D14*
X104140000Y-43180000D03*
D12*
X96520000Y-58420000D03*
D14*
X96520000Y-63500000D03*
D12*
X96520000Y-50800000D03*
D14*
X96520000Y-55880000D03*
D12*
X96520000Y-43180000D03*
D14*
X96520000Y-48260000D03*
D12*
X96520000Y-66040000D03*
D14*
X96520000Y-71120000D03*
D12*
X96520000Y-73660000D03*
D14*
X96520000Y-78740000D03*
D12*
X88900000Y-43180000D03*
D14*
X93980000Y-43180000D03*
D12*
X86360000Y-58420000D03*
D14*
X86360000Y-63500000D03*
D12*
X86360000Y-50800000D03*
D14*
X86360000Y-55880000D03*
D12*
X86360000Y-43180000D03*
D14*
X86360000Y-48260000D03*
D12*
X86360000Y-66040000D03*
D14*
X86360000Y-71120000D03*
D12*
X86360000Y-73660000D03*
D14*
X86360000Y-78740000D03*
D12*
X78740000Y-43180000D03*
D14*
X83820000Y-43180000D03*
D12*
X76200000Y-58420000D03*
D14*
X76200000Y-63500000D03*
D12*
X76200000Y-50800000D03*
D14*
X76200000Y-55880000D03*
D12*
X76200000Y-43180000D03*
D14*
X76200000Y-48260000D03*
D12*
X76200000Y-66040000D03*
D14*
X76200000Y-71120000D03*
D12*
X76200000Y-73660000D03*
D14*
X76200000Y-78740000D03*
D12*
X68580000Y-43180000D03*
D14*
X73660000Y-43180000D03*
D12*
X66040000Y-58420000D03*
D14*
X66040000Y-63500000D03*
D12*
X66040000Y-50800000D03*
D14*
X66040000Y-55880000D03*
D12*
X66040000Y-43180000D03*
D14*
X66040000Y-48260000D03*
D12*
X66040000Y-66040000D03*
D14*
X66040000Y-71120000D03*
D12*
X66040000Y-73660000D03*
D14*
X66040000Y-78740000D03*
D12*
X58420000Y-43180000D03*
D14*
X63500000Y-43180000D03*
D12*
X55880000Y-58420000D03*
D14*
X55880000Y-63500000D03*
D12*
X55880000Y-50800000D03*
D14*
X55880000Y-55880000D03*
D12*
X55880000Y-43180000D03*
D14*
X55880000Y-48260000D03*
D12*
X55880000Y-66040000D03*
D14*
X55880000Y-71120000D03*
D12*
X55880000Y-73660000D03*
D14*
X55880000Y-78740000D03*
D12*
X48260000Y-43180000D03*
D14*
X53340000Y-43180000D03*
D12*
X45720000Y-58420000D03*
D14*
X45720000Y-63500000D03*
D12*
X45720000Y-50800000D03*
D14*
X45720000Y-55880000D03*
D12*
X45720000Y-43180000D03*
D14*
X45720000Y-48260000D03*
D12*
X45720000Y-66040000D03*
D14*
X45720000Y-71120000D03*
D12*
X45720000Y-73660000D03*
D14*
X45720000Y-78740000D03*
D12*
X38100000Y-43180000D03*
D14*
X43180000Y-43180000D03*
D12*
X35560000Y-58420000D03*
D14*
X35560000Y-63500000D03*
D12*
X35560000Y-50800000D03*
D14*
X35560000Y-55880000D03*
D12*
X35560000Y-43180000D03*
D14*
X35560000Y-48260000D03*
D12*
X35560000Y-66040000D03*
D14*
X35560000Y-71120000D03*
D12*
X35560000Y-73660000D03*
D14*
X35560000Y-78740000D03*
D12*
X27940000Y-43180000D03*
D14*
X33020000Y-43180000D03*
D15*
X106680000Y-27940000D03*
X106680000Y-83820000D03*
X27940000Y-83820000D03*
X27940000Y-27940000D03*
M02*
