M48
;DRILL file {KiCad 4.0.7} date Mon Apr 30 03:27:29 2018
;FORMAT={-:-/ absolute / inch / decimal}
FMAT,2
INCH,TZ
T1C0.016
T2C0.028
T3C0.030
T4C0.087
%
G90
G05
M72
T1
X1.5Y-1.55
X1.55Y-1.475
X1.85Y-1.45
X2.25Y-1.425
X2.65Y-1.4
X2.825Y-1.375
X2.95Y-1.35
X3.025Y-1.325
T2
X1.1Y-1.7
X1.1Y-1.9
X1.1Y-2.1
X1.1Y-2.3
X1.1Y-2.5
X1.1Y-2.7
X1.1Y-2.9
X1.1Y-3.1
X1.2Y-1.9
X1.2Y-2.1
X1.2Y-2.3
X1.2Y-2.5
X1.2Y-2.7
X1.2Y-2.9
X1.2Y-3.1
X1.3Y-1.7
X1.3Y-1.9
X1.3Y-2.1
X1.3Y-2.3
X1.3Y-2.5
X1.3Y-2.7
X1.3Y-2.9
X1.3Y-3.1
X1.4Y-1.7
X1.4Y-1.9
X1.4Y-2.
X1.4Y-2.2
X1.4Y-2.3
X1.4Y-2.5
X1.4Y-2.6
X1.4Y-2.8
X1.4Y-2.9
X1.4Y-3.1
X1.5Y-1.1
X1.5Y-1.2
X1.5Y-1.7
X1.5Y-1.9
X1.5Y-2.1
X1.5Y-2.3
X1.5Y-2.5
X1.5Y-2.7
X1.5Y-2.9
X1.5Y-3.1
X1.6Y-1.1
X1.6Y-1.2
X1.6Y-1.9
X1.6Y-2.1
X1.6Y-2.3
X1.6Y-2.5
X1.6Y-2.7
X1.6Y-2.9
X1.6Y-3.1
X1.7Y-1.1
X1.7Y-1.2
X1.7Y-1.7
X1.7Y-1.9
X1.7Y-2.1
X1.7Y-2.3
X1.7Y-2.5
X1.7Y-2.7
X1.7Y-2.9
X1.7Y-3.1
X1.8Y-1.1
X1.8Y-1.2
X1.8Y-1.7
X1.8Y-1.9
X1.8Y-2.
X1.8Y-2.2
X1.8Y-2.3
X1.8Y-2.5
X1.8Y-2.6
X1.8Y-2.8
X1.8Y-2.9
X1.8Y-3.1
X1.9Y-1.1
X1.9Y-1.2
X1.9Y-1.7
X1.9Y-1.9
X1.9Y-2.1
X1.9Y-2.3
X1.9Y-2.5
X1.9Y-2.7
X1.9Y-2.9
X1.9Y-3.1
X2.Y-1.1
X2.Y-1.2
X2.Y-1.9
X2.Y-2.1
X2.Y-2.3
X2.Y-2.5
X2.Y-2.7
X2.Y-2.9
X2.Y-3.1
X2.1Y-1.1
X2.1Y-1.2
X2.1Y-1.7
X2.1Y-1.9
X2.1Y-2.1
X2.1Y-2.3
X2.1Y-2.5
X2.1Y-2.7
X2.1Y-2.9
X2.1Y-3.1
X2.2Y-1.1
X2.2Y-1.2
X2.2Y-1.7
X2.2Y-1.9
X2.2Y-2.
X2.2Y-2.2
X2.2Y-2.3
X2.2Y-2.5
X2.2Y-2.6
X2.2Y-2.8
X2.2Y-2.9
X2.2Y-3.1
X2.3Y-1.7
X2.3Y-1.9
X2.3Y-2.1
X2.3Y-2.3
X2.3Y-2.5
X2.3Y-2.7
X2.3Y-2.9
X2.3Y-3.1
X2.4Y-1.1
X2.4Y-1.2
X2.4Y-1.9
X2.4Y-2.1
X2.4Y-2.3
X2.4Y-2.5
X2.4Y-2.7
X2.4Y-2.9
X2.4Y-3.1
X2.5Y-1.1
X2.5Y-1.2
X2.5Y-1.7
X2.5Y-1.9
X2.5Y-2.1
X2.5Y-2.3
X2.5Y-2.5
X2.5Y-2.7
X2.5Y-2.9
X2.5Y-3.1
X2.6Y-1.1
X2.6Y-1.2
X2.6Y-1.7
X2.6Y-1.9
X2.6Y-2.
X2.6Y-2.2
X2.6Y-2.3
X2.6Y-2.5
X2.6Y-2.6
X2.6Y-2.8
X2.6Y-2.9
X2.6Y-3.1
X2.7Y-1.1
X2.7Y-1.2
X2.7Y-1.7
X2.7Y-1.9
X2.7Y-2.1
X2.7Y-2.3
X2.7Y-2.5
X2.7Y-2.7
X2.7Y-2.9
X2.7Y-3.1
X2.8Y-1.1
X2.8Y-1.2
X2.8Y-1.9
X2.8Y-2.1
X2.8Y-2.3
X2.8Y-2.5
X2.8Y-2.7
X2.8Y-2.9
X2.8Y-3.1
X2.9Y-1.1
X2.9Y-1.2
X2.9Y-1.7
X2.9Y-1.9
X2.9Y-2.1
X2.9Y-2.3
X2.9Y-2.5
X2.9Y-2.7
X2.9Y-2.9
X2.9Y-3.1
X3.Y-1.1
X3.Y-1.2
X3.Y-1.7
X3.Y-1.9
X3.Y-2.
X3.Y-2.2
X3.Y-2.3
X3.Y-2.5
X3.Y-2.6
X3.Y-2.8
X3.Y-2.9
X3.Y-3.1
X3.1Y-1.1
X3.1Y-1.2
X3.1Y-1.7
X3.1Y-1.9
X3.1Y-2.1
X3.1Y-2.3
X3.1Y-2.5
X3.1Y-2.7
X3.1Y-2.9
X3.1Y-3.1
X3.2Y-1.9
X3.2Y-2.1
X3.2Y-2.3
X3.2Y-2.5
X3.2Y-2.7
X3.2Y-2.9
X3.2Y-3.1
X3.3Y-1.1
X3.3Y-1.2
X3.3Y-1.7
X3.3Y-1.9
X3.3Y-2.1
X3.3Y-2.3
X3.3Y-2.5
X3.3Y-2.7
X3.3Y-2.9
X3.3Y-3.1
X3.4Y-1.1
X3.4Y-1.2
X3.4Y-1.7
X3.4Y-1.9
X3.4Y-2.
X3.4Y-2.2
X3.4Y-2.3
X3.4Y-2.5
X3.4Y-2.6
X3.4Y-2.8
X3.4Y-2.9
X3.4Y-3.1
X3.5Y-1.1
X3.5Y-1.2
X3.5Y-1.7
X3.5Y-1.9
X3.5Y-2.1
X3.5Y-2.3
X3.5Y-2.5
X3.5Y-2.7
X3.5Y-2.9
X3.5Y-3.1
X3.6Y-1.1
X3.6Y-1.2
X3.6Y-1.9
X3.6Y-2.1
X3.6Y-2.3
X3.6Y-2.5
X3.6Y-2.7
X3.6Y-2.9
X3.6Y-3.1
X3.7Y-1.1
X3.7Y-1.2
X3.7Y-1.7
X3.7Y-1.9
X3.7Y-2.1
X3.7Y-2.3
X3.7Y-2.5
X3.7Y-2.7
X3.7Y-2.9
X3.7Y-3.1
X3.8Y-1.1
X3.8Y-1.2
X3.8Y-1.7
X3.8Y-1.9
X3.8Y-2.
X3.8Y-2.2
X3.8Y-2.3
X3.8Y-2.5
X3.8Y-2.6
X3.8Y-2.8
X3.8Y-2.9
X3.8Y-3.1
X3.9Y-1.1
X3.9Y-1.2
X3.9Y-1.7
X3.9Y-1.9
X3.9Y-2.1
X3.9Y-2.3
X3.9Y-2.5
X3.9Y-2.7
X3.9Y-2.9
X3.9Y-3.1
X4.Y-1.1
X4.Y-1.2
X4.Y-1.9
X4.Y-2.1
X4.Y-2.3
X4.Y-2.5
X4.Y-2.7
X4.Y-2.9
X4.Y-3.1
X4.1Y-1.7
X4.1Y-1.9
X4.1Y-2.1
X4.1Y-2.3
X4.1Y-2.5
X4.1Y-2.7
X4.1Y-2.9
X4.1Y-3.1
X4.2Y-1.7
X4.2Y-1.9
X4.2Y-2.
X4.2Y-2.2
X4.2Y-2.3
X4.2Y-2.5
X4.2Y-2.6
X4.2Y-2.8
X4.2Y-2.9
X4.2Y-3.1
T3
X4.1Y-1.5
X4.1Y-1.6
X4.2Y-1.5
X4.2Y-1.6
T4
X1.1Y-1.1
X1.1Y-3.3
X4.2Y-1.1
X4.2Y-3.3
T0
M30
