G04 #@! TF.GenerationSoftware,KiCad,Pcbnew,(5.0.0-rc2-200-g1f6f76beb)*
G04 #@! TF.CreationDate,2018-07-18T18:35:48+02:00*
G04 #@! TF.ProjectId,bus-selector,6275732D73656C6563746F722E6B6963,rev?*
G04 #@! TF.SameCoordinates,Original*
G04 #@! TF.FileFunction,Copper,L1,Top,Signal*
G04 #@! TF.FilePolarity,Positive*
%FSLAX46Y46*%
G04 Gerber Fmt 4.6, Leading zero omitted, Abs format (unit mm)*
G04 Created by KiCad (PCBNEW (5.0.0-rc2-200-g1f6f76beb)) date Wed Jul 18 18:35:48 2018*
%MOMM*%
%LPD*%
G01*
G04 APERTURE LIST*
G04 #@! TA.AperFunction,NonConductor*
%ADD10C,0.250000*%
G04 #@! TD*
G04 #@! TA.AperFunction,ComponentPad*
%ADD11C,1.400000*%
G04 #@! TD*
G04 #@! TA.AperFunction,ComponentPad*
%ADD12R,1.400000X1.400000*%
G04 #@! TD*
G04 #@! TA.AperFunction,SMDPad,CuDef*
%ADD13R,0.800000X1.900000*%
G04 #@! TD*
G04 #@! TA.AperFunction,SMDPad,CuDef*
%ADD14R,1.400000X1.295000*%
G04 #@! TD*
G04 #@! TA.AperFunction,ComponentPad*
%ADD15C,1.524000*%
G04 #@! TD*
G04 #@! TA.AperFunction,ComponentPad*
%ADD16O,1.400000X1.400000*%
G04 #@! TD*
G04 #@! TA.AperFunction,SMDPad,CuDef*
%ADD17R,1.320000X1.520000*%
G04 #@! TD*
G04 #@! TA.AperFunction,SMDPad,CuDef*
%ADD18R,1.520000X1.320000*%
G04 #@! TD*
G04 #@! TA.AperFunction,ComponentPad*
%ADD19R,1.700000X1.700000*%
G04 #@! TD*
G04 #@! TA.AperFunction,ComponentPad*
%ADD20O,1.700000X1.700000*%
G04 #@! TD*
G04 #@! TA.AperFunction,SMDPad,CuDef*
%ADD21C,0.300000*%
G04 #@! TD*
G04 #@! TA.AperFunction,Conductor*
%ADD22C,0.100000*%
G04 #@! TD*
G04 #@! TA.AperFunction,ComponentPad*
%ADD23C,4.400000*%
G04 #@! TD*
G04 #@! TA.AperFunction,ViaPad*
%ADD24C,0.600000*%
G04 #@! TD*
G04 #@! TA.AperFunction,Conductor*
%ADD25C,0.250000*%
G04 #@! TD*
G04 APERTURE END LIST*
D10*
X21497857Y-62101428D02*
X20297857Y-62101428D01*
X20297857Y-61644285D01*
X20355000Y-61530000D01*
X20412142Y-61472857D01*
X20526428Y-61415714D01*
X20697857Y-61415714D01*
X20812142Y-61472857D01*
X20869285Y-61530000D01*
X20926428Y-61644285D01*
X20926428Y-62101428D01*
X21497857Y-60901428D02*
X20697857Y-60901428D01*
X20926428Y-60901428D02*
X20812142Y-60844285D01*
X20755000Y-60787142D01*
X20697857Y-60672857D01*
X20697857Y-60558571D01*
X21497857Y-59987142D02*
X21440714Y-60101428D01*
X21383571Y-60158571D01*
X21269285Y-60215714D01*
X20926428Y-60215714D01*
X20812142Y-60158571D01*
X20755000Y-60101428D01*
X20697857Y-59987142D01*
X20697857Y-59815714D01*
X20755000Y-59701428D01*
X20812142Y-59644285D01*
X20926428Y-59587142D01*
X21269285Y-59587142D01*
X21383571Y-59644285D01*
X21440714Y-59701428D01*
X21497857Y-59815714D01*
X21497857Y-59987142D01*
X21497857Y-58558571D02*
X20297857Y-58558571D01*
X21440714Y-58558571D02*
X21497857Y-58672857D01*
X21497857Y-58901428D01*
X21440714Y-59015714D01*
X21383571Y-59072857D01*
X21269285Y-59130000D01*
X20926428Y-59130000D01*
X20812142Y-59072857D01*
X20755000Y-59015714D01*
X20697857Y-58901428D01*
X20697857Y-58672857D01*
X20755000Y-58558571D01*
X20697857Y-57472857D02*
X21497857Y-57472857D01*
X20697857Y-57987142D02*
X21326428Y-57987142D01*
X21440714Y-57930000D01*
X21497857Y-57815714D01*
X21497857Y-57644285D01*
X21440714Y-57530000D01*
X21383571Y-57472857D01*
X21440714Y-56387142D02*
X21497857Y-56501428D01*
X21497857Y-56730000D01*
X21440714Y-56844285D01*
X21383571Y-56901428D01*
X21269285Y-56958571D01*
X20926428Y-56958571D01*
X20812142Y-56901428D01*
X20755000Y-56844285D01*
X20697857Y-56730000D01*
X20697857Y-56501428D01*
X20755000Y-56387142D01*
X20697857Y-56044285D02*
X20697857Y-55587142D01*
X20297857Y-55872857D02*
X21326428Y-55872857D01*
X21440714Y-55815714D01*
X21497857Y-55701428D01*
X21497857Y-55587142D01*
X21497857Y-55187142D02*
X20697857Y-55187142D01*
X20297857Y-55187142D02*
X20355000Y-55244285D01*
X20412142Y-55187142D01*
X20355000Y-55130000D01*
X20297857Y-55187142D01*
X20412142Y-55187142D01*
X21497857Y-54444285D02*
X21440714Y-54558571D01*
X21383571Y-54615714D01*
X21269285Y-54672857D01*
X20926428Y-54672857D01*
X20812142Y-54615714D01*
X20755000Y-54558571D01*
X20697857Y-54444285D01*
X20697857Y-54272857D01*
X20755000Y-54158571D01*
X20812142Y-54101428D01*
X20926428Y-54044285D01*
X21269285Y-54044285D01*
X21383571Y-54101428D01*
X21440714Y-54158571D01*
X21497857Y-54272857D01*
X21497857Y-54444285D01*
X20697857Y-53530000D02*
X21497857Y-53530000D01*
X20812142Y-53530000D02*
X20755000Y-53472857D01*
X20697857Y-53358571D01*
X20697857Y-53187142D01*
X20755000Y-53072857D01*
X20869285Y-53015714D01*
X21497857Y-53015714D01*
X21383571Y-52444285D02*
X21440714Y-52387142D01*
X21497857Y-52444285D01*
X21440714Y-52501428D01*
X21383571Y-52444285D01*
X21497857Y-52444285D01*
X20755000Y-52444285D02*
X20812142Y-52387142D01*
X20869285Y-52444285D01*
X20812142Y-52501428D01*
X20755000Y-52444285D01*
X20869285Y-52444285D01*
X21497857Y-50958571D02*
X20297857Y-50958571D01*
X21497857Y-50444285D02*
X20869285Y-50444285D01*
X20755000Y-50501428D01*
X20697857Y-50615714D01*
X20697857Y-50787142D01*
X20755000Y-50901428D01*
X20812142Y-50958571D01*
X20697857Y-50044285D02*
X20697857Y-49587142D01*
X20297857Y-49872857D02*
X21326428Y-49872857D01*
X21440714Y-49815714D01*
X21497857Y-49701428D01*
X21497857Y-49587142D01*
X20697857Y-49358571D02*
X20697857Y-48901428D01*
X20297857Y-49187142D02*
X21326428Y-49187142D01*
X21440714Y-49130000D01*
X21497857Y-49015714D01*
X21497857Y-48901428D01*
X20697857Y-48501428D02*
X21897857Y-48501428D01*
X20755000Y-48501428D02*
X20697857Y-48387142D01*
X20697857Y-48158571D01*
X20755000Y-48044285D01*
X20812142Y-47987142D01*
X20926428Y-47930000D01*
X21269285Y-47930000D01*
X21383571Y-47987142D01*
X21440714Y-48044285D01*
X21497857Y-48158571D01*
X21497857Y-48387142D01*
X21440714Y-48501428D01*
X21440714Y-47472857D02*
X21497857Y-47358571D01*
X21497857Y-47130000D01*
X21440714Y-47015714D01*
X21326428Y-46958571D01*
X21269285Y-46958571D01*
X21155000Y-47015714D01*
X21097857Y-47130000D01*
X21097857Y-47301428D01*
X21040714Y-47415714D01*
X20926428Y-47472857D01*
X20869285Y-47472857D01*
X20755000Y-47415714D01*
X20697857Y-47301428D01*
X20697857Y-47130000D01*
X20755000Y-47015714D01*
X21383571Y-46444285D02*
X21440714Y-46387142D01*
X21497857Y-46444285D01*
X21440714Y-46501428D01*
X21383571Y-46444285D01*
X21497857Y-46444285D01*
X20755000Y-46444285D02*
X20812142Y-46387142D01*
X20869285Y-46444285D01*
X20812142Y-46501428D01*
X20755000Y-46444285D01*
X20869285Y-46444285D01*
X20240714Y-45015714D02*
X21783571Y-46044285D01*
X20240714Y-43758571D02*
X21783571Y-44787142D01*
X21497857Y-43358571D02*
X20297857Y-43358571D01*
X20297857Y-42901428D01*
X20355000Y-42787142D01*
X20412142Y-42730000D01*
X20526428Y-42672857D01*
X20697857Y-42672857D01*
X20812142Y-42730000D01*
X20869285Y-42787142D01*
X20926428Y-42901428D01*
X20926428Y-43358571D01*
X21383571Y-41472857D02*
X21440714Y-41530000D01*
X21497857Y-41701428D01*
X21497857Y-41815714D01*
X21440714Y-41987142D01*
X21326428Y-42101428D01*
X21212142Y-42158571D01*
X20983571Y-42215714D01*
X20812142Y-42215714D01*
X20583571Y-42158571D01*
X20469285Y-42101428D01*
X20355000Y-41987142D01*
X20297857Y-41815714D01*
X20297857Y-41701428D01*
X20355000Y-41530000D01*
X20412142Y-41472857D01*
X20869285Y-40558571D02*
X20926428Y-40387142D01*
X20983571Y-40330000D01*
X21097857Y-40272857D01*
X21269285Y-40272857D01*
X21383571Y-40330000D01*
X21440714Y-40387142D01*
X21497857Y-40501428D01*
X21497857Y-40958571D01*
X20297857Y-40958571D01*
X20297857Y-40558571D01*
X20355000Y-40444285D01*
X20412142Y-40387142D01*
X20526428Y-40330000D01*
X20640714Y-40330000D01*
X20755000Y-40387142D01*
X20812142Y-40444285D01*
X20869285Y-40558571D01*
X20869285Y-40958571D01*
X21440714Y-39815714D02*
X21497857Y-39644285D01*
X21497857Y-39358571D01*
X21440714Y-39244285D01*
X21383571Y-39187142D01*
X21269285Y-39130000D01*
X21155000Y-39130000D01*
X21040714Y-39187142D01*
X20983571Y-39244285D01*
X20926428Y-39358571D01*
X20869285Y-39587142D01*
X20812142Y-39701428D01*
X20755000Y-39758571D01*
X20640714Y-39815714D01*
X20526428Y-39815714D01*
X20412142Y-39758571D01*
X20355000Y-39701428D01*
X20297857Y-39587142D01*
X20297857Y-39301428D01*
X20355000Y-39130000D01*
X21383571Y-38615714D02*
X21440714Y-38558571D01*
X21497857Y-38615714D01*
X21440714Y-38672857D01*
X21383571Y-38615714D01*
X21497857Y-38615714D01*
X21497857Y-38044285D02*
X20697857Y-38044285D01*
X20297857Y-38044285D02*
X20355000Y-38101428D01*
X20412142Y-38044285D01*
X20355000Y-37987142D01*
X20297857Y-38044285D01*
X20412142Y-38044285D01*
X21497857Y-37301428D02*
X21440714Y-37415714D01*
X21383571Y-37472857D01*
X21269285Y-37530000D01*
X20926428Y-37530000D01*
X20812142Y-37472857D01*
X20755000Y-37415714D01*
X20697857Y-37301428D01*
X20697857Y-37130000D01*
X20755000Y-37015714D01*
X20812142Y-36958571D01*
X20926428Y-36901428D01*
X21269285Y-36901428D01*
X21383571Y-36958571D01*
X21440714Y-37015714D01*
X21497857Y-37130000D01*
X21497857Y-37301428D01*
X120342500Y-60122857D02*
X120342500Y-60922857D01*
X120056785Y-59665714D02*
X119771071Y-60522857D01*
X120513928Y-60522857D01*
X120971071Y-60465714D02*
X121885357Y-60465714D01*
X122342500Y-60122857D02*
X122571071Y-60922857D01*
X122799642Y-60351428D01*
X123028214Y-60922857D01*
X123256785Y-60122857D01*
X124228214Y-60922857D02*
X124228214Y-60294285D01*
X124171071Y-60180000D01*
X124056785Y-60122857D01*
X123828214Y-60122857D01*
X123713928Y-60180000D01*
X124228214Y-60865714D02*
X124113928Y-60922857D01*
X123828214Y-60922857D01*
X123713928Y-60865714D01*
X123656785Y-60751428D01*
X123656785Y-60637142D01*
X123713928Y-60522857D01*
X123828214Y-60465714D01*
X124113928Y-60465714D01*
X124228214Y-60408571D01*
X124685357Y-60122857D02*
X124971071Y-60922857D01*
X125256785Y-60122857D02*
X124971071Y-60922857D01*
X124856785Y-61208571D01*
X124799642Y-61265714D01*
X124685357Y-61322857D01*
X126799642Y-60237142D02*
X126685357Y-60180000D01*
X126628214Y-60122857D01*
X126571071Y-60008571D01*
X126571071Y-59951428D01*
X126628214Y-59837142D01*
X126685357Y-59780000D01*
X126799642Y-59722857D01*
X127028214Y-59722857D01*
X127142500Y-59780000D01*
X127199642Y-59837142D01*
X127256785Y-59951428D01*
X127256785Y-60008571D01*
X127199642Y-60122857D01*
X127142500Y-60180000D01*
X127028214Y-60237142D01*
X126799642Y-60237142D01*
X126685357Y-60294285D01*
X126628214Y-60351428D01*
X126571071Y-60465714D01*
X126571071Y-60694285D01*
X126628214Y-60808571D01*
X126685357Y-60865714D01*
X126799642Y-60922857D01*
X127028214Y-60922857D01*
X127142500Y-60865714D01*
X127199642Y-60808571D01*
X127256785Y-60694285D01*
X127256785Y-60465714D01*
X127199642Y-60351428D01*
X127142500Y-60294285D01*
X127028214Y-60237142D01*
X128685357Y-60922857D02*
X128685357Y-59722857D01*
X128685357Y-60180000D02*
X128799642Y-60122857D01*
X129028214Y-60122857D01*
X129142500Y-60180000D01*
X129199642Y-60237142D01*
X129256785Y-60351428D01*
X129256785Y-60694285D01*
X129199642Y-60808571D01*
X129142500Y-60865714D01*
X129028214Y-60922857D01*
X128799642Y-60922857D01*
X128685357Y-60865714D01*
X129771071Y-60922857D02*
X129771071Y-60122857D01*
X129771071Y-59722857D02*
X129713928Y-59780000D01*
X129771071Y-59837142D01*
X129828214Y-59780000D01*
X129771071Y-59722857D01*
X129771071Y-59837142D01*
X130171071Y-60122857D02*
X130628214Y-60122857D01*
X130342500Y-59722857D02*
X130342500Y-60751428D01*
X130399642Y-60865714D01*
X130513928Y-60922857D01*
X130628214Y-60922857D01*
X131942500Y-60922857D02*
X131942500Y-59722857D01*
X131942500Y-60180000D02*
X132056785Y-60122857D01*
X132285357Y-60122857D01*
X132399642Y-60180000D01*
X132456785Y-60237142D01*
X132513928Y-60351428D01*
X132513928Y-60694285D01*
X132456785Y-60808571D01*
X132399642Y-60865714D01*
X132285357Y-60922857D01*
X132056785Y-60922857D01*
X131942500Y-60865714D01*
X133542500Y-60122857D02*
X133542500Y-60922857D01*
X133028214Y-60122857D02*
X133028214Y-60751428D01*
X133085357Y-60865714D01*
X133199642Y-60922857D01*
X133371071Y-60922857D01*
X133485357Y-60865714D01*
X133542500Y-60808571D01*
X134056785Y-60865714D02*
X134171071Y-60922857D01*
X134399642Y-60922857D01*
X134513928Y-60865714D01*
X134571071Y-60751428D01*
X134571071Y-60694285D01*
X134513928Y-60580000D01*
X134399642Y-60522857D01*
X134228214Y-60522857D01*
X134113928Y-60465714D01*
X134056785Y-60351428D01*
X134056785Y-60294285D01*
X134113928Y-60180000D01*
X134228214Y-60122857D01*
X134399642Y-60122857D01*
X134513928Y-60180000D01*
X135942500Y-60865714D02*
X136056785Y-60922857D01*
X136285357Y-60922857D01*
X136399642Y-60865714D01*
X136456785Y-60751428D01*
X136456785Y-60694285D01*
X136399642Y-60580000D01*
X136285357Y-60522857D01*
X136113928Y-60522857D01*
X135999642Y-60465714D01*
X135942500Y-60351428D01*
X135942500Y-60294285D01*
X135999642Y-60180000D01*
X136113928Y-60122857D01*
X136285357Y-60122857D01*
X136399642Y-60180000D01*
X137428214Y-60865714D02*
X137313928Y-60922857D01*
X137085357Y-60922857D01*
X136971071Y-60865714D01*
X136913928Y-60751428D01*
X136913928Y-60294285D01*
X136971071Y-60180000D01*
X137085357Y-60122857D01*
X137313928Y-60122857D01*
X137428214Y-60180000D01*
X137485357Y-60294285D01*
X137485357Y-60408571D01*
X136913928Y-60522857D01*
X138171071Y-60922857D02*
X138056785Y-60865714D01*
X137999642Y-60751428D01*
X137999642Y-59722857D01*
X139085357Y-60865714D02*
X138971071Y-60922857D01*
X138742500Y-60922857D01*
X138628214Y-60865714D01*
X138571071Y-60751428D01*
X138571071Y-60294285D01*
X138628214Y-60180000D01*
X138742500Y-60122857D01*
X138971071Y-60122857D01*
X139085357Y-60180000D01*
X139142500Y-60294285D01*
X139142500Y-60408571D01*
X138571071Y-60522857D01*
X140171071Y-60865714D02*
X140056785Y-60922857D01*
X139828214Y-60922857D01*
X139713928Y-60865714D01*
X139656785Y-60808571D01*
X139599642Y-60694285D01*
X139599642Y-60351428D01*
X139656785Y-60237142D01*
X139713928Y-60180000D01*
X139828214Y-60122857D01*
X140056785Y-60122857D01*
X140171071Y-60180000D01*
X140513928Y-60122857D02*
X140971071Y-60122857D01*
X140685357Y-59722857D02*
X140685357Y-60751428D01*
X140742500Y-60865714D01*
X140856785Y-60922857D01*
X140971071Y-60922857D01*
X141542500Y-60922857D02*
X141428214Y-60865714D01*
X141371071Y-60808571D01*
X141313928Y-60694285D01*
X141313928Y-60351428D01*
X141371071Y-60237142D01*
X141428214Y-60180000D01*
X141542500Y-60122857D01*
X141713928Y-60122857D01*
X141828214Y-60180000D01*
X141885357Y-60237142D01*
X141942500Y-60351428D01*
X141942500Y-60694285D01*
X141885357Y-60808571D01*
X141828214Y-60865714D01*
X141713928Y-60922857D01*
X141542500Y-60922857D01*
X142456785Y-60922857D02*
X142456785Y-60122857D01*
X142456785Y-60351428D02*
X142513928Y-60237142D01*
X142571071Y-60180000D01*
X142685357Y-60122857D01*
X142799642Y-60122857D01*
X143999642Y-60122857D02*
X144285357Y-60922857D01*
X144571071Y-60122857D01*
X145656785Y-60922857D02*
X144971071Y-60922857D01*
X145313928Y-60922857D02*
X145313928Y-59722857D01*
X145199642Y-59894285D01*
X145085357Y-60008571D01*
X144971071Y-60065714D01*
X120056785Y-61772857D02*
X120285357Y-61772857D01*
X120399642Y-61830000D01*
X120513928Y-61944285D01*
X120571071Y-62172857D01*
X120571071Y-62572857D01*
X120513928Y-62801428D01*
X120399642Y-62915714D01*
X120285357Y-62972857D01*
X120056785Y-62972857D01*
X119942500Y-62915714D01*
X119828214Y-62801428D01*
X119771071Y-62572857D01*
X119771071Y-62172857D01*
X119828214Y-61944285D01*
X119942500Y-61830000D01*
X120056785Y-61772857D01*
X121999642Y-62344285D02*
X122913928Y-62344285D01*
X122913928Y-62687142D02*
X121999642Y-62687142D01*
X124342500Y-62915714D02*
X124456785Y-62972857D01*
X124685357Y-62972857D01*
X124799642Y-62915714D01*
X124856785Y-62801428D01*
X124856785Y-62744285D01*
X124799642Y-62630000D01*
X124685357Y-62572857D01*
X124513928Y-62572857D01*
X124399642Y-62515714D01*
X124342500Y-62401428D01*
X124342500Y-62344285D01*
X124399642Y-62230000D01*
X124513928Y-62172857D01*
X124685357Y-62172857D01*
X124799642Y-62230000D01*
X125713928Y-63430000D02*
X125656785Y-63372857D01*
X125542500Y-63201428D01*
X125485357Y-63087142D01*
X125428214Y-62915714D01*
X125371071Y-62630000D01*
X125371071Y-62401428D01*
X125428214Y-62115714D01*
X125485357Y-61944285D01*
X125542500Y-61830000D01*
X125656785Y-61658571D01*
X125713928Y-61601428D01*
X126113928Y-62915714D02*
X126285357Y-62972857D01*
X126571071Y-62972857D01*
X126685357Y-62915714D01*
X126742500Y-62858571D01*
X126799642Y-62744285D01*
X126799642Y-62630000D01*
X126742500Y-62515714D01*
X126685357Y-62458571D01*
X126571071Y-62401428D01*
X126342500Y-62344285D01*
X126228214Y-62287142D01*
X126171071Y-62230000D01*
X126113928Y-62115714D01*
X126113928Y-62001428D01*
X126171071Y-61887142D01*
X126228214Y-61830000D01*
X126342500Y-61772857D01*
X126628214Y-61772857D01*
X126799642Y-61830000D01*
X127199642Y-63430000D02*
X127256785Y-63372857D01*
X127371071Y-63201428D01*
X127428214Y-63087142D01*
X127485357Y-62915714D01*
X127542500Y-62630000D01*
X127542500Y-62401428D01*
X127485357Y-62115714D01*
X127428214Y-61944285D01*
X127371071Y-61830000D01*
X127256785Y-61658571D01*
X127199642Y-61601428D01*
X119771071Y-64965714D02*
X119885357Y-65022857D01*
X120113928Y-65022857D01*
X120228214Y-64965714D01*
X120285357Y-64851428D01*
X120285357Y-64794285D01*
X120228214Y-64680000D01*
X120113928Y-64622857D01*
X119942500Y-64622857D01*
X119828214Y-64565714D01*
X119771071Y-64451428D01*
X119771071Y-64394285D01*
X119828214Y-64280000D01*
X119942500Y-64222857D01*
X120113928Y-64222857D01*
X120228214Y-64280000D01*
X121142500Y-65480000D02*
X121085357Y-65422857D01*
X120971071Y-65251428D01*
X120913928Y-65137142D01*
X120856785Y-64965714D01*
X120799642Y-64680000D01*
X120799642Y-64451428D01*
X120856785Y-64165714D01*
X120913928Y-63994285D01*
X120971071Y-63880000D01*
X121085357Y-63708571D01*
X121142500Y-63651428D01*
X121828214Y-63822857D02*
X121942500Y-63822857D01*
X122056785Y-63880000D01*
X122113928Y-63937142D01*
X122171071Y-64051428D01*
X122228214Y-64280000D01*
X122228214Y-64565714D01*
X122171071Y-64794285D01*
X122113928Y-64908571D01*
X122056785Y-64965714D01*
X121942500Y-65022857D01*
X121828214Y-65022857D01*
X121713928Y-64965714D01*
X121656785Y-64908571D01*
X121599642Y-64794285D01*
X121542500Y-64565714D01*
X121542500Y-64280000D01*
X121599642Y-64051428D01*
X121656785Y-63937142D01*
X121713928Y-63880000D01*
X121828214Y-63822857D01*
X122971071Y-63822857D02*
X123085357Y-63822857D01*
X123199642Y-63880000D01*
X123256785Y-63937142D01*
X123313928Y-64051428D01*
X123371071Y-64280000D01*
X123371071Y-64565714D01*
X123313928Y-64794285D01*
X123256785Y-64908571D01*
X123199642Y-64965714D01*
X123085357Y-65022857D01*
X122971071Y-65022857D01*
X122856785Y-64965714D01*
X122799642Y-64908571D01*
X122742500Y-64794285D01*
X122685357Y-64565714D01*
X122685357Y-64280000D01*
X122742500Y-64051428D01*
X122799642Y-63937142D01*
X122856785Y-63880000D01*
X122971071Y-63822857D01*
X123771071Y-65480000D02*
X123828214Y-65422857D01*
X123942500Y-65251428D01*
X123999642Y-65137142D01*
X124056785Y-64965714D01*
X124113928Y-64680000D01*
X124113928Y-64451428D01*
X124056785Y-64165714D01*
X123999642Y-63994285D01*
X123942500Y-63880000D01*
X123828214Y-63708571D01*
X123771071Y-63651428D01*
X125599642Y-64394285D02*
X126513928Y-64394285D01*
X126513928Y-64737142D02*
X125599642Y-64737142D01*
X127942500Y-64680000D02*
X128513928Y-64680000D01*
X127828214Y-65022857D02*
X128228214Y-63822857D01*
X128628214Y-65022857D01*
X119771071Y-67015714D02*
X119885357Y-67072857D01*
X120113928Y-67072857D01*
X120228214Y-67015714D01*
X120285357Y-66901428D01*
X120285357Y-66844285D01*
X120228214Y-66730000D01*
X120113928Y-66672857D01*
X119942500Y-66672857D01*
X119828214Y-66615714D01*
X119771071Y-66501428D01*
X119771071Y-66444285D01*
X119828214Y-66330000D01*
X119942500Y-66272857D01*
X120113928Y-66272857D01*
X120228214Y-66330000D01*
X121142500Y-67530000D02*
X121085357Y-67472857D01*
X120971071Y-67301428D01*
X120913928Y-67187142D01*
X120856785Y-67015714D01*
X120799642Y-66730000D01*
X120799642Y-66501428D01*
X120856785Y-66215714D01*
X120913928Y-66044285D01*
X120971071Y-65930000D01*
X121085357Y-65758571D01*
X121142500Y-65701428D01*
X121828214Y-65872857D02*
X121942500Y-65872857D01*
X122056785Y-65930000D01*
X122113928Y-65987142D01*
X122171071Y-66101428D01*
X122228214Y-66330000D01*
X122228214Y-66615714D01*
X122171071Y-66844285D01*
X122113928Y-66958571D01*
X122056785Y-67015714D01*
X121942500Y-67072857D01*
X121828214Y-67072857D01*
X121713928Y-67015714D01*
X121656785Y-66958571D01*
X121599642Y-66844285D01*
X121542500Y-66615714D01*
X121542500Y-66330000D01*
X121599642Y-66101428D01*
X121656785Y-65987142D01*
X121713928Y-65930000D01*
X121828214Y-65872857D01*
X123371071Y-67072857D02*
X122685357Y-67072857D01*
X123028214Y-67072857D02*
X123028214Y-65872857D01*
X122913928Y-66044285D01*
X122799642Y-66158571D01*
X122685357Y-66215714D01*
X123771071Y-67530000D02*
X123828214Y-67472857D01*
X123942500Y-67301428D01*
X123999642Y-67187142D01*
X124056785Y-67015714D01*
X124113928Y-66730000D01*
X124113928Y-66501428D01*
X124056785Y-66215714D01*
X123999642Y-66044285D01*
X123942500Y-65930000D01*
X123828214Y-65758571D01*
X123771071Y-65701428D01*
X125599642Y-66444285D02*
X126513928Y-66444285D01*
X126513928Y-66787142D02*
X125599642Y-66787142D01*
X128399642Y-66444285D02*
X128571071Y-66501428D01*
X128628214Y-66558571D01*
X128685357Y-66672857D01*
X128685357Y-66844285D01*
X128628214Y-66958571D01*
X128571071Y-67015714D01*
X128456785Y-67072857D01*
X127999642Y-67072857D01*
X127999642Y-65872857D01*
X128399642Y-65872857D01*
X128513928Y-65930000D01*
X128571071Y-65987142D01*
X128628214Y-66101428D01*
X128628214Y-66215714D01*
X128571071Y-66330000D01*
X128513928Y-66387142D01*
X128399642Y-66444285D01*
X127999642Y-66444285D01*
X119771071Y-69065714D02*
X119885357Y-69122857D01*
X120113928Y-69122857D01*
X120228214Y-69065714D01*
X120285357Y-68951428D01*
X120285357Y-68894285D01*
X120228214Y-68780000D01*
X120113928Y-68722857D01*
X119942500Y-68722857D01*
X119828214Y-68665714D01*
X119771071Y-68551428D01*
X119771071Y-68494285D01*
X119828214Y-68380000D01*
X119942500Y-68322857D01*
X120113928Y-68322857D01*
X120228214Y-68380000D01*
X121142500Y-69580000D02*
X121085357Y-69522857D01*
X120971071Y-69351428D01*
X120913928Y-69237142D01*
X120856785Y-69065714D01*
X120799642Y-68780000D01*
X120799642Y-68551428D01*
X120856785Y-68265714D01*
X120913928Y-68094285D01*
X120971071Y-67980000D01*
X121085357Y-67808571D01*
X121142500Y-67751428D01*
X122228214Y-69122857D02*
X121542500Y-69122857D01*
X121885357Y-69122857D02*
X121885357Y-67922857D01*
X121771071Y-68094285D01*
X121656785Y-68208571D01*
X121542500Y-68265714D01*
X122971071Y-67922857D02*
X123085357Y-67922857D01*
X123199642Y-67980000D01*
X123256785Y-68037142D01*
X123313928Y-68151428D01*
X123371071Y-68380000D01*
X123371071Y-68665714D01*
X123313928Y-68894285D01*
X123256785Y-69008571D01*
X123199642Y-69065714D01*
X123085357Y-69122857D01*
X122971071Y-69122857D01*
X122856785Y-69065714D01*
X122799642Y-69008571D01*
X122742500Y-68894285D01*
X122685357Y-68665714D01*
X122685357Y-68380000D01*
X122742500Y-68151428D01*
X122799642Y-68037142D01*
X122856785Y-67980000D01*
X122971071Y-67922857D01*
X123771071Y-69580000D02*
X123828214Y-69522857D01*
X123942500Y-69351428D01*
X123999642Y-69237142D01*
X124056785Y-69065714D01*
X124113928Y-68780000D01*
X124113928Y-68551428D01*
X124056785Y-68265714D01*
X123999642Y-68094285D01*
X123942500Y-67980000D01*
X123828214Y-67808571D01*
X123771071Y-67751428D01*
X125599642Y-68494285D02*
X126513928Y-68494285D01*
X126513928Y-68837142D02*
X125599642Y-68837142D01*
X128685357Y-69008571D02*
X128628214Y-69065714D01*
X128456785Y-69122857D01*
X128342500Y-69122857D01*
X128171071Y-69065714D01*
X128056785Y-68951428D01*
X127999642Y-68837142D01*
X127942500Y-68608571D01*
X127942500Y-68437142D01*
X127999642Y-68208571D01*
X128056785Y-68094285D01*
X128171071Y-67980000D01*
X128342500Y-67922857D01*
X128456785Y-67922857D01*
X128628214Y-67980000D01*
X128685357Y-68037142D01*
X119771071Y-71115714D02*
X119885357Y-71172857D01*
X120113928Y-71172857D01*
X120228214Y-71115714D01*
X120285357Y-71001428D01*
X120285357Y-70944285D01*
X120228214Y-70830000D01*
X120113928Y-70772857D01*
X119942500Y-70772857D01*
X119828214Y-70715714D01*
X119771071Y-70601428D01*
X119771071Y-70544285D01*
X119828214Y-70430000D01*
X119942500Y-70372857D01*
X120113928Y-70372857D01*
X120228214Y-70430000D01*
X121142500Y-71630000D02*
X121085357Y-71572857D01*
X120971071Y-71401428D01*
X120913928Y-71287142D01*
X120856785Y-71115714D01*
X120799642Y-70830000D01*
X120799642Y-70601428D01*
X120856785Y-70315714D01*
X120913928Y-70144285D01*
X120971071Y-70030000D01*
X121085357Y-69858571D01*
X121142500Y-69801428D01*
X122228214Y-71172857D02*
X121542500Y-71172857D01*
X121885357Y-71172857D02*
X121885357Y-69972857D01*
X121771071Y-70144285D01*
X121656785Y-70258571D01*
X121542500Y-70315714D01*
X123371071Y-71172857D02*
X122685357Y-71172857D01*
X123028214Y-71172857D02*
X123028214Y-69972857D01*
X122913928Y-70144285D01*
X122799642Y-70258571D01*
X122685357Y-70315714D01*
X123771071Y-71630000D02*
X123828214Y-71572857D01*
X123942500Y-71401428D01*
X123999642Y-71287142D01*
X124056785Y-71115714D01*
X124113928Y-70830000D01*
X124113928Y-70601428D01*
X124056785Y-70315714D01*
X123999642Y-70144285D01*
X123942500Y-70030000D01*
X123828214Y-69858571D01*
X123771071Y-69801428D01*
X125599642Y-70544285D02*
X126513928Y-70544285D01*
X126513928Y-70887142D02*
X125599642Y-70887142D01*
X127999642Y-71172857D02*
X127999642Y-69972857D01*
X128285357Y-69972857D01*
X128456785Y-70030000D01*
X128571071Y-70144285D01*
X128628214Y-70258571D01*
X128685357Y-70487142D01*
X128685357Y-70658571D01*
X128628214Y-70887142D01*
X128571071Y-71001428D01*
X128456785Y-71115714D01*
X128285357Y-71172857D01*
X127999642Y-71172857D01*
X119828214Y-72594285D02*
X120228214Y-72594285D01*
X120399642Y-73222857D02*
X119828214Y-73222857D01*
X119828214Y-72022857D01*
X120399642Y-72022857D01*
X120913928Y-73222857D02*
X120913928Y-72422857D01*
X120913928Y-72537142D02*
X120971071Y-72480000D01*
X121085357Y-72422857D01*
X121256785Y-72422857D01*
X121371071Y-72480000D01*
X121428214Y-72594285D01*
X121428214Y-73222857D01*
X121428214Y-72594285D02*
X121485357Y-72480000D01*
X121599642Y-72422857D01*
X121771071Y-72422857D01*
X121885357Y-72480000D01*
X121942500Y-72594285D01*
X121942500Y-73222857D01*
X122513928Y-73222857D02*
X122513928Y-72422857D01*
X122513928Y-72022857D02*
X122456785Y-72080000D01*
X122513928Y-72137142D01*
X122571071Y-72080000D01*
X122513928Y-72022857D01*
X122513928Y-72137142D01*
X123256785Y-73222857D02*
X123142500Y-73165714D01*
X123085357Y-73051428D01*
X123085357Y-72022857D01*
X125199642Y-73222857D02*
X124628214Y-73222857D01*
X124628214Y-72022857D01*
X126113928Y-72422857D02*
X126113928Y-73222857D01*
X125599642Y-72422857D02*
X125599642Y-73051428D01*
X125656785Y-73165714D01*
X125771071Y-73222857D01*
X125942500Y-73222857D01*
X126056785Y-73165714D01*
X126113928Y-73108571D01*
X126685357Y-72422857D02*
X126685357Y-73222857D01*
X126685357Y-72537142D02*
X126742500Y-72480000D01*
X126856785Y-72422857D01*
X127028214Y-72422857D01*
X127142500Y-72480000D01*
X127199642Y-72594285D01*
X127199642Y-73222857D01*
X128285357Y-73222857D02*
X128285357Y-72022857D01*
X128285357Y-73165714D02*
X128171071Y-73222857D01*
X127942500Y-73222857D01*
X127828214Y-73165714D01*
X127771071Y-73108571D01*
X127713928Y-72994285D01*
X127713928Y-72651428D01*
X127771071Y-72537142D01*
X127828214Y-72480000D01*
X127942500Y-72422857D01*
X128171071Y-72422857D01*
X128285357Y-72480000D01*
X128856785Y-73222857D02*
X128856785Y-72022857D01*
X128856785Y-72480000D02*
X128971071Y-72422857D01*
X129199642Y-72422857D01*
X129313928Y-72480000D01*
X129371071Y-72537142D01*
X129428214Y-72651428D01*
X129428214Y-72994285D01*
X129371071Y-73108571D01*
X129313928Y-73165714D01*
X129199642Y-73222857D01*
X128971071Y-73222857D01*
X128856785Y-73165714D01*
X130399642Y-73165714D02*
X130285357Y-73222857D01*
X130056785Y-73222857D01*
X129942500Y-73165714D01*
X129885357Y-73051428D01*
X129885357Y-72594285D01*
X129942500Y-72480000D01*
X130056785Y-72422857D01*
X130285357Y-72422857D01*
X130399642Y-72480000D01*
X130456785Y-72594285D01*
X130456785Y-72708571D01*
X129885357Y-72822857D01*
X130971071Y-73222857D02*
X130971071Y-72422857D01*
X130971071Y-72651428D02*
X131028214Y-72537142D01*
X131085357Y-72480000D01*
X131199642Y-72422857D01*
X131313928Y-72422857D01*
X132228214Y-72422857D02*
X132228214Y-73394285D01*
X132171071Y-73508571D01*
X132113928Y-73565714D01*
X131999642Y-73622857D01*
X131828214Y-73622857D01*
X131713928Y-73565714D01*
X132228214Y-73165714D02*
X132113928Y-73222857D01*
X131885357Y-73222857D01*
X131771071Y-73165714D01*
X131713928Y-73108571D01*
X131656785Y-72994285D01*
X131656785Y-72651428D01*
X131713928Y-72537142D01*
X131771071Y-72480000D01*
X131885357Y-72422857D01*
X132113928Y-72422857D01*
X132228214Y-72480000D01*
X120285357Y-75215714D02*
X120171071Y-75272857D01*
X119942500Y-75272857D01*
X119828214Y-75215714D01*
X119771071Y-75101428D01*
X119771071Y-74644285D01*
X119828214Y-74530000D01*
X119942500Y-74472857D01*
X120171071Y-74472857D01*
X120285357Y-74530000D01*
X120342500Y-74644285D01*
X120342500Y-74758571D01*
X119771071Y-74872857D01*
X120856785Y-75272857D02*
X120856785Y-74472857D01*
X120856785Y-74587142D02*
X120913928Y-74530000D01*
X121028214Y-74472857D01*
X121199642Y-74472857D01*
X121313928Y-74530000D01*
X121371071Y-74644285D01*
X121371071Y-75272857D01*
X121371071Y-74644285D02*
X121428214Y-74530000D01*
X121542500Y-74472857D01*
X121713928Y-74472857D01*
X121828214Y-74530000D01*
X121885357Y-74644285D01*
X121885357Y-75272857D01*
X122456785Y-75272857D02*
X122456785Y-74472857D01*
X122456785Y-74072857D02*
X122399642Y-74130000D01*
X122456785Y-74187142D01*
X122513928Y-74130000D01*
X122456785Y-74072857D01*
X122456785Y-74187142D01*
X123199642Y-75272857D02*
X123085357Y-75215714D01*
X123028214Y-75101428D01*
X123028214Y-74072857D01*
X124399642Y-74701428D02*
X124342500Y-74644285D01*
X124228214Y-74587142D01*
X124113928Y-74587142D01*
X123999642Y-74644285D01*
X123942500Y-74701428D01*
X123885357Y-74815714D01*
X123885357Y-74930000D01*
X123942500Y-75044285D01*
X123999642Y-75101428D01*
X124113928Y-75158571D01*
X124228214Y-75158571D01*
X124342500Y-75101428D01*
X124399642Y-75044285D01*
X124399642Y-74587142D02*
X124399642Y-75044285D01*
X124456785Y-75101428D01*
X124513928Y-75101428D01*
X124628214Y-75044285D01*
X124685357Y-74930000D01*
X124685357Y-74644285D01*
X124571071Y-74472857D01*
X124399642Y-74358571D01*
X124171071Y-74301428D01*
X123942500Y-74358571D01*
X123771071Y-74472857D01*
X123656785Y-74644285D01*
X123599642Y-74872857D01*
X123656785Y-75101428D01*
X123771071Y-75272857D01*
X123942500Y-75387142D01*
X124171071Y-75444285D01*
X124399642Y-75387142D01*
X124571071Y-75272857D01*
X125656785Y-75215714D02*
X125542500Y-75272857D01*
X125313928Y-75272857D01*
X125199642Y-75215714D01*
X125142500Y-75101428D01*
X125142500Y-74644285D01*
X125199642Y-74530000D01*
X125313928Y-74472857D01*
X125542500Y-74472857D01*
X125656785Y-74530000D01*
X125713928Y-74644285D01*
X125713928Y-74758571D01*
X125142500Y-74872857D01*
X126228214Y-75272857D02*
X126228214Y-74472857D01*
X126228214Y-74587142D02*
X126285357Y-74530000D01*
X126399642Y-74472857D01*
X126571071Y-74472857D01*
X126685357Y-74530000D01*
X126742500Y-74644285D01*
X126742500Y-75272857D01*
X126742500Y-74644285D02*
X126799642Y-74530000D01*
X126913928Y-74472857D01*
X127085357Y-74472857D01*
X127199642Y-74530000D01*
X127256785Y-74644285D01*
X127256785Y-75272857D01*
X127999642Y-75272857D02*
X127885357Y-75215714D01*
X127828214Y-75101428D01*
X127828214Y-74072857D01*
X128971071Y-74472857D02*
X128971071Y-75272857D01*
X128456785Y-74472857D02*
X128456785Y-75101428D01*
X128513928Y-75215714D01*
X128628214Y-75272857D01*
X128799642Y-75272857D01*
X128913928Y-75215714D01*
X128971071Y-75158571D01*
X129542500Y-74472857D02*
X129542500Y-75272857D01*
X129542500Y-74587142D02*
X129599642Y-74530000D01*
X129713928Y-74472857D01*
X129885357Y-74472857D01*
X129999642Y-74530000D01*
X130056785Y-74644285D01*
X130056785Y-75272857D01*
X130628214Y-75158571D02*
X130685357Y-75215714D01*
X130628214Y-75272857D01*
X130571071Y-75215714D01*
X130628214Y-75158571D01*
X130628214Y-75272857D01*
X131142500Y-75215714D02*
X131256785Y-75272857D01*
X131485357Y-75272857D01*
X131599642Y-75215714D01*
X131656785Y-75101428D01*
X131656785Y-75044285D01*
X131599642Y-74930000D01*
X131485357Y-74872857D01*
X131313928Y-74872857D01*
X131199642Y-74815714D01*
X131142500Y-74701428D01*
X131142500Y-74644285D01*
X131199642Y-74530000D01*
X131313928Y-74472857D01*
X131485357Y-74472857D01*
X131599642Y-74530000D01*
X132628214Y-75215714D02*
X132513928Y-75272857D01*
X132285357Y-75272857D01*
X132171071Y-75215714D01*
X132113928Y-75101428D01*
X132113928Y-74644285D01*
X132171071Y-74530000D01*
X132285357Y-74472857D01*
X132513928Y-74472857D01*
X132628214Y-74530000D01*
X132685357Y-74644285D01*
X132685357Y-74758571D01*
X132113928Y-74872857D01*
X119771071Y-76237142D02*
X119828214Y-76180000D01*
X119942500Y-76122857D01*
X120228214Y-76122857D01*
X120342500Y-76180000D01*
X120399642Y-76237142D01*
X120456785Y-76351428D01*
X120456785Y-76465714D01*
X120399642Y-76637142D01*
X119713928Y-77322857D01*
X120456785Y-77322857D01*
X121199642Y-76122857D02*
X121313928Y-76122857D01*
X121428214Y-76180000D01*
X121485357Y-76237142D01*
X121542500Y-76351428D01*
X121599642Y-76580000D01*
X121599642Y-76865714D01*
X121542500Y-77094285D01*
X121485357Y-77208571D01*
X121428214Y-77265714D01*
X121313928Y-77322857D01*
X121199642Y-77322857D01*
X121085357Y-77265714D01*
X121028214Y-77208571D01*
X120971071Y-77094285D01*
X120913928Y-76865714D01*
X120913928Y-76580000D01*
X120971071Y-76351428D01*
X121028214Y-76237142D01*
X121085357Y-76180000D01*
X121199642Y-76122857D01*
X122742500Y-77322857D02*
X122056785Y-77322857D01*
X122399642Y-77322857D02*
X122399642Y-76122857D01*
X122285357Y-76294285D01*
X122171071Y-76408571D01*
X122056785Y-76465714D01*
X123428214Y-76637142D02*
X123313928Y-76580000D01*
X123256785Y-76522857D01*
X123199642Y-76408571D01*
X123199642Y-76351428D01*
X123256785Y-76237142D01*
X123313928Y-76180000D01*
X123428214Y-76122857D01*
X123656785Y-76122857D01*
X123771071Y-76180000D01*
X123828214Y-76237142D01*
X123885357Y-76351428D01*
X123885357Y-76408571D01*
X123828214Y-76522857D01*
X123771071Y-76580000D01*
X123656785Y-76637142D01*
X123428214Y-76637142D01*
X123313928Y-76694285D01*
X123256785Y-76751428D01*
X123199642Y-76865714D01*
X123199642Y-77094285D01*
X123256785Y-77208571D01*
X123313928Y-77265714D01*
X123428214Y-77322857D01*
X123656785Y-77322857D01*
X123771071Y-77265714D01*
X123828214Y-77208571D01*
X123885357Y-77094285D01*
X123885357Y-76865714D01*
X123828214Y-76751428D01*
X123771071Y-76694285D01*
X123656785Y-76637142D01*
X124399642Y-76865714D02*
X125313928Y-76865714D01*
X126113928Y-76122857D02*
X126228214Y-76122857D01*
X126342500Y-76180000D01*
X126399642Y-76237142D01*
X126456785Y-76351428D01*
X126513928Y-76580000D01*
X126513928Y-76865714D01*
X126456785Y-77094285D01*
X126399642Y-77208571D01*
X126342500Y-77265714D01*
X126228214Y-77322857D01*
X126113928Y-77322857D01*
X125999642Y-77265714D01*
X125942500Y-77208571D01*
X125885357Y-77094285D01*
X125828214Y-76865714D01*
X125828214Y-76580000D01*
X125885357Y-76351428D01*
X125942500Y-76237142D01*
X125999642Y-76180000D01*
X126113928Y-76122857D01*
X126913928Y-76122857D02*
X127713928Y-76122857D01*
X127199642Y-77322857D01*
X128171071Y-76865714D02*
X129085357Y-76865714D01*
X130285357Y-77322857D02*
X129599642Y-77322857D01*
X129942500Y-77322857D02*
X129942500Y-76122857D01*
X129828214Y-76294285D01*
X129713928Y-76408571D01*
X129599642Y-76465714D01*
X130971071Y-76637142D02*
X130856785Y-76580000D01*
X130799642Y-76522857D01*
X130742500Y-76408571D01*
X130742500Y-76351428D01*
X130799642Y-76237142D01*
X130856785Y-76180000D01*
X130971071Y-76122857D01*
X131199642Y-76122857D01*
X131313928Y-76180000D01*
X131371071Y-76237142D01*
X131428214Y-76351428D01*
X131428214Y-76408571D01*
X131371071Y-76522857D01*
X131313928Y-76580000D01*
X131199642Y-76637142D01*
X130971071Y-76637142D01*
X130856785Y-76694285D01*
X130799642Y-76751428D01*
X130742500Y-76865714D01*
X130742500Y-77094285D01*
X130799642Y-77208571D01*
X130856785Y-77265714D01*
X130971071Y-77322857D01*
X131199642Y-77322857D01*
X131313928Y-77265714D01*
X131371071Y-77208571D01*
X131428214Y-77094285D01*
X131428214Y-76865714D01*
X131371071Y-76751428D01*
X131313928Y-76694285D01*
X131199642Y-76637142D01*
D11*
G04 #@! TO.P,Q36,2*
G04 #@! TO.N,/a4*
X33020000Y-68580000D03*
G04 #@! TO.P,Q36,3*
G04 #@! TO.N,Net-(Q36-Pad3)*
X33020000Y-66040000D03*
D12*
G04 #@! TO.P,Q36,1*
G04 #@! TO.N,/sa_and*
X33020000Y-71120000D03*
G04 #@! TD*
G04 #@! TO.P,Q53,1*
G04 #@! TO.N,/sc_and*
X73660000Y-78740000D03*
D11*
G04 #@! TO.P,Q53,3*
G04 #@! TO.N,Net-(Q51-Pad3)*
X73660000Y-73660000D03*
G04 #@! TO.P,Q53,2*
G04 #@! TO.N,/c7*
X73660000Y-76200000D03*
G04 #@! TD*
D12*
G04 #@! TO.P,Q5,1*
G04 #@! TO.N,GND*
X57150000Y-44450000D03*
D11*
G04 #@! TO.P,Q5,3*
G04 #@! TO.N,/sb*
X57150000Y-49530000D03*
G04 #@! TO.P,Q5,2*
G04 #@! TO.N,Net-(Q5-Pad2)*
X57150000Y-46990000D03*
G04 #@! TD*
G04 #@! TO.P,Q12,2*
G04 #@! TO.N,/s0*
X97790000Y-46990000D03*
G04 #@! TO.P,Q12,3*
G04 #@! TO.N,Net-(Q12-Pad3)*
X97790000Y-49530000D03*
D12*
G04 #@! TO.P,Q12,1*
G04 #@! TO.N,Net-(Q12-Pad1)*
X97790000Y-44450000D03*
G04 #@! TD*
D13*
G04 #@! TO.P,Q95,3*
G04 #@! TO.N,Net-(Q95-Pad3)*
X134620000Y-38275000D03*
G04 #@! TO.P,Q95,2*
G04 #@! TO.N,/o3*
X135570000Y-41275000D03*
G04 #@! TO.P,Q95,1*
G04 #@! TO.N,GND*
X133670000Y-41275000D03*
G04 #@! TD*
G04 #@! TO.P,Q92,3*
G04 #@! TO.N,Net-(Q92-Pad3)*
X142240000Y-33830000D03*
G04 #@! TO.P,Q92,2*
G04 #@! TO.N,/o0*
X143190000Y-36830000D03*
G04 #@! TO.P,Q92,1*
G04 #@! TO.N,GND*
X141290000Y-36830000D03*
G04 #@! TD*
D14*
G04 #@! TO.P,R57,2*
G04 #@! TO.N,Net-(Q89-Pad3)*
X116840000Y-47957500D03*
G04 #@! TO.P,R57,1*
G04 #@! TO.N,Net-(D34-Pad1)*
X116840000Y-46022500D03*
G04 #@! TD*
D13*
G04 #@! TO.P,Q89,1*
G04 #@! TO.N,GND*
X121605000Y-48260000D03*
G04 #@! TO.P,Q89,2*
G04 #@! TO.N,/sb*
X123505000Y-48260000D03*
G04 #@! TO.P,Q89,3*
G04 #@! TO.N,Net-(Q89-Pad3)*
X122555000Y-45260000D03*
G04 #@! TD*
D15*
G04 #@! TO.P,J7,2*
G04 #@! TO.N,VCC*
X147320000Y-27940000D03*
G04 #@! TO.P,J7,1*
G04 #@! TO.N,GND*
X147320000Y-30480000D03*
X144780000Y-30480000D03*
G04 #@! TO.P,J7,2*
G04 #@! TO.N,VCC*
X144780000Y-27940000D03*
G04 #@! TD*
D11*
G04 #@! TO.P,J1,8*
G04 #@! TO.N,/a7*
X25400000Y-20320000D03*
G04 #@! TO.P,J1,7*
G04 #@! TO.N,/a6*
X27940000Y-20320000D03*
G04 #@! TO.P,J1,6*
G04 #@! TO.N,/a5*
X30480000Y-20320000D03*
G04 #@! TO.P,J1,5*
G04 #@! TO.N,/a4*
X33020000Y-20320000D03*
G04 #@! TO.P,J1,4*
G04 #@! TO.N,/a3*
X35560000Y-20320000D03*
G04 #@! TO.P,J1,3*
G04 #@! TO.N,/a2*
X38100000Y-20320000D03*
G04 #@! TO.P,J1,2*
G04 #@! TO.N,/a1*
X40640000Y-20320000D03*
G04 #@! TO.P,J1,1*
G04 #@! TO.N,/a0*
X43180000Y-20320000D03*
X43180000Y-17780000D03*
G04 #@! TO.P,J1,2*
G04 #@! TO.N,/a1*
X40640000Y-17780000D03*
G04 #@! TO.P,J1,3*
G04 #@! TO.N,/a2*
X38100000Y-17780000D03*
G04 #@! TO.P,J1,4*
G04 #@! TO.N,/a3*
X35560000Y-17780000D03*
G04 #@! TO.P,J1,5*
G04 #@! TO.N,/a4*
X33020000Y-17780000D03*
G04 #@! TO.P,J1,6*
G04 #@! TO.N,/a5*
X30480000Y-17780000D03*
G04 #@! TO.P,J1,7*
G04 #@! TO.N,/a6*
X27940000Y-17780000D03*
G04 #@! TO.P,J1,8*
G04 #@! TO.N,/a7*
X25400000Y-17780000D03*
G04 #@! TD*
G04 #@! TO.P,J2,8*
G04 #@! TO.N,/b7*
X48260000Y-20320000D03*
G04 #@! TO.P,J2,7*
G04 #@! TO.N,/b6*
X50800000Y-20320000D03*
G04 #@! TO.P,J2,6*
G04 #@! TO.N,/b5*
X53340000Y-20320000D03*
G04 #@! TO.P,J2,5*
G04 #@! TO.N,/b4*
X55880000Y-20320000D03*
G04 #@! TO.P,J2,4*
G04 #@! TO.N,/b3*
X58420000Y-20320000D03*
G04 #@! TO.P,J2,3*
G04 #@! TO.N,/b2*
X60960000Y-20320000D03*
G04 #@! TO.P,J2,2*
G04 #@! TO.N,/b1*
X63500000Y-20320000D03*
G04 #@! TO.P,J2,1*
G04 #@! TO.N,/b0*
X66040000Y-20320000D03*
X66040000Y-17780000D03*
G04 #@! TO.P,J2,2*
G04 #@! TO.N,/b1*
X63500000Y-17780000D03*
G04 #@! TO.P,J2,3*
G04 #@! TO.N,/b2*
X60960000Y-17780000D03*
G04 #@! TO.P,J2,4*
G04 #@! TO.N,/b3*
X58420000Y-17780000D03*
G04 #@! TO.P,J2,5*
G04 #@! TO.N,/b4*
X55880000Y-17780000D03*
G04 #@! TO.P,J2,6*
G04 #@! TO.N,/b5*
X53340000Y-17780000D03*
G04 #@! TO.P,J2,7*
G04 #@! TO.N,/b6*
X50800000Y-17780000D03*
G04 #@! TO.P,J2,8*
G04 #@! TO.N,/b7*
X48260000Y-17780000D03*
G04 #@! TD*
G04 #@! TO.P,J3,8*
G04 #@! TO.N,/c7*
X71120000Y-20320000D03*
G04 #@! TO.P,J3,7*
G04 #@! TO.N,/c6*
X73660000Y-20320000D03*
G04 #@! TO.P,J3,6*
G04 #@! TO.N,/c5*
X76200000Y-20320000D03*
G04 #@! TO.P,J3,5*
G04 #@! TO.N,/c4*
X78740000Y-20320000D03*
G04 #@! TO.P,J3,4*
G04 #@! TO.N,/c3*
X81280000Y-20320000D03*
G04 #@! TO.P,J3,3*
G04 #@! TO.N,/c2*
X83820000Y-20320000D03*
G04 #@! TO.P,J3,2*
G04 #@! TO.N,/c1*
X86360000Y-20320000D03*
G04 #@! TO.P,J3,1*
G04 #@! TO.N,/c0*
X88900000Y-20320000D03*
X88900000Y-17780000D03*
G04 #@! TO.P,J3,2*
G04 #@! TO.N,/c1*
X86360000Y-17780000D03*
G04 #@! TO.P,J3,3*
G04 #@! TO.N,/c2*
X83820000Y-17780000D03*
G04 #@! TO.P,J3,4*
G04 #@! TO.N,/c3*
X81280000Y-17780000D03*
G04 #@! TO.P,J3,5*
G04 #@! TO.N,/c4*
X78740000Y-17780000D03*
G04 #@! TO.P,J3,6*
G04 #@! TO.N,/c5*
X76200000Y-17780000D03*
G04 #@! TO.P,J3,7*
G04 #@! TO.N,/c6*
X73660000Y-17780000D03*
G04 #@! TO.P,J3,8*
G04 #@! TO.N,/c7*
X71120000Y-17780000D03*
G04 #@! TD*
G04 #@! TO.P,J4,8*
G04 #@! TO.N,/d7*
X93980000Y-20320000D03*
G04 #@! TO.P,J4,7*
G04 #@! TO.N,/d6*
X96520000Y-20320000D03*
G04 #@! TO.P,J4,6*
G04 #@! TO.N,/d5*
X99060000Y-20320000D03*
G04 #@! TO.P,J4,5*
G04 #@! TO.N,/d4*
X101600000Y-20320000D03*
G04 #@! TO.P,J4,4*
G04 #@! TO.N,/d3*
X104140000Y-20320000D03*
G04 #@! TO.P,J4,3*
G04 #@! TO.N,/d2*
X106680000Y-20320000D03*
G04 #@! TO.P,J4,2*
G04 #@! TO.N,/d1*
X109220000Y-20320000D03*
G04 #@! TO.P,J4,1*
G04 #@! TO.N,/d0*
X111760000Y-20320000D03*
X111760000Y-17780000D03*
G04 #@! TO.P,J4,2*
G04 #@! TO.N,/d1*
X109220000Y-17780000D03*
G04 #@! TO.P,J4,3*
G04 #@! TO.N,/d2*
X106680000Y-17780000D03*
G04 #@! TO.P,J4,4*
G04 #@! TO.N,/d3*
X104140000Y-17780000D03*
G04 #@! TO.P,J4,5*
G04 #@! TO.N,/d4*
X101600000Y-17780000D03*
G04 #@! TO.P,J4,6*
G04 #@! TO.N,/d5*
X99060000Y-17780000D03*
G04 #@! TO.P,J4,7*
G04 #@! TO.N,/d6*
X96520000Y-17780000D03*
G04 #@! TO.P,J4,8*
G04 #@! TO.N,/d7*
X93980000Y-17780000D03*
G04 #@! TD*
G04 #@! TO.P,J6,8*
G04 #@! TO.N,/o7*
X124460000Y-20320000D03*
G04 #@! TO.P,J6,7*
G04 #@! TO.N,/o6*
X127000000Y-20320000D03*
G04 #@! TO.P,J6,6*
G04 #@! TO.N,/o5*
X129540000Y-20320000D03*
G04 #@! TO.P,J6,5*
G04 #@! TO.N,/o4*
X132080000Y-20320000D03*
G04 #@! TO.P,J6,4*
G04 #@! TO.N,/o3*
X134620000Y-20320000D03*
G04 #@! TO.P,J6,3*
G04 #@! TO.N,/o2*
X137160000Y-20320000D03*
G04 #@! TO.P,J6,2*
G04 #@! TO.N,/o1*
X139700000Y-20320000D03*
G04 #@! TO.P,J6,1*
G04 #@! TO.N,/o0*
X142240000Y-20320000D03*
X142240000Y-17780000D03*
G04 #@! TO.P,J6,2*
G04 #@! TO.N,/o1*
X139700000Y-17780000D03*
G04 #@! TO.P,J6,3*
G04 #@! TO.N,/o2*
X137160000Y-17780000D03*
G04 #@! TO.P,J6,4*
G04 #@! TO.N,/o3*
X134620000Y-17780000D03*
G04 #@! TO.P,J6,5*
G04 #@! TO.N,/o4*
X132080000Y-17780000D03*
G04 #@! TO.P,J6,6*
G04 #@! TO.N,/o5*
X129540000Y-17780000D03*
G04 #@! TO.P,J6,7*
G04 #@! TO.N,/o6*
X127000000Y-17780000D03*
G04 #@! TO.P,J6,8*
G04 #@! TO.N,/o7*
X124460000Y-17780000D03*
G04 #@! TD*
D15*
G04 #@! TO.P,J5,2*
G04 #@! TO.N,/s1*
X116840000Y-20320000D03*
G04 #@! TO.P,J5,1*
G04 #@! TO.N,/s0*
X119380000Y-20320000D03*
X119380000Y-17780000D03*
G04 #@! TO.P,J5,2*
G04 #@! TO.N,/s1*
X116840000Y-17780000D03*
G04 #@! TD*
D16*
G04 #@! TO.P,R1,2*
G04 #@! TO.N,/sa*
X39370000Y-49530000D03*
D11*
G04 #@! TO.P,R1,1*
G04 #@! TO.N,VCC*
X39370000Y-44450000D03*
G04 #@! TD*
D16*
G04 #@! TO.P,R2,2*
G04 #@! TO.N,/sb*
X48260000Y-49530000D03*
D11*
G04 #@! TO.P,R2,1*
G04 #@! TO.N,VCC*
X48260000Y-44450000D03*
G04 #@! TD*
D16*
G04 #@! TO.P,R3,2*
G04 #@! TO.N,Net-(Q5-Pad2)*
X66040000Y-49530000D03*
D11*
G04 #@! TO.P,R3,1*
G04 #@! TO.N,VCC*
X66040000Y-44450000D03*
G04 #@! TD*
D16*
G04 #@! TO.P,R4,2*
G04 #@! TO.N,Net-(Q8-Pad3)*
X71120000Y-49530000D03*
D11*
G04 #@! TO.P,R4,1*
G04 #@! TO.N,VCC*
X71120000Y-44450000D03*
G04 #@! TD*
D16*
G04 #@! TO.P,R5,2*
G04 #@! TO.N,/sc*
X88900000Y-49530000D03*
D11*
G04 #@! TO.P,R5,1*
G04 #@! TO.N,VCC*
X88900000Y-44450000D03*
G04 #@! TD*
D16*
G04 #@! TO.P,R6,2*
G04 #@! TO.N,Net-(Q12-Pad3)*
X93980000Y-49530000D03*
D11*
G04 #@! TO.P,R6,1*
G04 #@! TO.N,VCC*
X93980000Y-44450000D03*
G04 #@! TD*
D16*
G04 #@! TO.P,R7,2*
G04 #@! TO.N,/sd*
X111760000Y-49530000D03*
D11*
G04 #@! TO.P,R7,1*
G04 #@! TO.N,VCC*
X111760000Y-44450000D03*
G04 #@! TD*
D16*
G04 #@! TO.P,R8,2*
G04 #@! TO.N,Net-(Q16-Pad3)*
X115570000Y-66040000D03*
D11*
G04 #@! TO.P,R8,1*
G04 #@! TO.N,VCC*
X115570000Y-71120000D03*
G04 #@! TD*
D16*
G04 #@! TO.P,R9,2*
G04 #@! TO.N,/o0*
X115570000Y-58420000D03*
D11*
G04 #@! TO.P,R9,1*
G04 #@! TO.N,VCC*
X115570000Y-63500000D03*
G04 #@! TD*
D16*
G04 #@! TO.P,R10,2*
G04 #@! TO.N,Net-(Q21-Pad3)*
X115570000Y-73660000D03*
D11*
G04 #@! TO.P,R10,1*
G04 #@! TO.N,VCC*
X115570000Y-78740000D03*
G04 #@! TD*
D16*
G04 #@! TO.P,R11,2*
G04 #@! TO.N,/o1*
X106680000Y-58420000D03*
D11*
G04 #@! TO.P,R11,1*
G04 #@! TO.N,VCC*
X106680000Y-63500000D03*
G04 #@! TD*
D16*
G04 #@! TO.P,R12,2*
G04 #@! TO.N,Net-(Q26-Pad3)*
X92710000Y-66040000D03*
D11*
G04 #@! TO.P,R12,1*
G04 #@! TO.N,VCC*
X92710000Y-71120000D03*
G04 #@! TD*
D16*
G04 #@! TO.P,R13,2*
G04 #@! TO.N,/o2*
X92710000Y-58420000D03*
D11*
G04 #@! TO.P,R13,1*
G04 #@! TO.N,VCC*
X92710000Y-63500000D03*
G04 #@! TD*
D16*
G04 #@! TO.P,R14,2*
G04 #@! TO.N,Net-(Q31-Pad3)*
X92710000Y-73660000D03*
D11*
G04 #@! TO.P,R14,1*
G04 #@! TO.N,VCC*
X92710000Y-78740000D03*
G04 #@! TD*
D16*
G04 #@! TO.P,R16,2*
G04 #@! TO.N,Net-(Q36-Pad3)*
X69850000Y-66040000D03*
D11*
G04 #@! TO.P,R16,1*
G04 #@! TO.N,VCC*
X69850000Y-71120000D03*
G04 #@! TD*
D16*
G04 #@! TO.P,R17,2*
G04 #@! TO.N,/o4*
X69850000Y-58420000D03*
D11*
G04 #@! TO.P,R17,1*
G04 #@! TO.N,VCC*
X69850000Y-63500000D03*
G04 #@! TD*
D16*
G04 #@! TO.P,R18,2*
G04 #@! TO.N,Net-(Q41-Pad3)*
X69850000Y-73660000D03*
D11*
G04 #@! TO.P,R18,1*
G04 #@! TO.N,VCC*
X69850000Y-78740000D03*
G04 #@! TD*
D16*
G04 #@! TO.P,R19,2*
G04 #@! TO.N,/o5*
X60960000Y-58420000D03*
D11*
G04 #@! TO.P,R19,1*
G04 #@! TO.N,VCC*
X60960000Y-63500000D03*
G04 #@! TD*
D16*
G04 #@! TO.P,R20,2*
G04 #@! TO.N,Net-(Q46-Pad3)*
X46990000Y-66040000D03*
D11*
G04 #@! TO.P,R20,1*
G04 #@! TO.N,VCC*
X46990000Y-71120000D03*
G04 #@! TD*
D16*
G04 #@! TO.P,R21,2*
G04 #@! TO.N,/o6*
X46990000Y-58420000D03*
D11*
G04 #@! TO.P,R21,1*
G04 #@! TO.N,VCC*
X46990000Y-63500000D03*
G04 #@! TD*
D16*
G04 #@! TO.P,R22,2*
G04 #@! TO.N,Net-(Q51-Pad3)*
X46990000Y-73660000D03*
D11*
G04 #@! TO.P,R22,1*
G04 #@! TO.N,VCC*
X46990000Y-78740000D03*
G04 #@! TD*
D16*
G04 #@! TO.P,R15,2*
G04 #@! TO.N,/o3*
X83820000Y-58420000D03*
D11*
G04 #@! TO.P,R15,1*
G04 #@! TO.N,VCC*
X83820000Y-63500000D03*
G04 #@! TD*
D16*
G04 #@! TO.P,R23,2*
G04 #@! TO.N,/o7*
X38100000Y-58420000D03*
D11*
G04 #@! TO.P,R23,1*
G04 #@! TO.N,VCC*
X38100000Y-63500000D03*
G04 #@! TD*
D17*
G04 #@! TO.P,D1,2*
G04 #@! TO.N,/LED_PWR*
X43180000Y-25400000D03*
G04 #@! TO.P,D1,1*
G04 #@! TO.N,Net-(D1-Pad1)*
X43180000Y-27160000D03*
G04 #@! TD*
G04 #@! TO.P,D2,1*
G04 #@! TO.N,Net-(D2-Pad1)*
X40640000Y-27160000D03*
G04 #@! TO.P,D2,2*
G04 #@! TO.N,/LED_PWR*
X40640000Y-25400000D03*
G04 #@! TD*
G04 #@! TO.P,D3,1*
G04 #@! TO.N,Net-(D3-Pad1)*
X38100000Y-27160000D03*
G04 #@! TO.P,D3,2*
G04 #@! TO.N,/LED_PWR*
X38100000Y-25400000D03*
G04 #@! TD*
G04 #@! TO.P,D4,2*
G04 #@! TO.N,/LED_PWR*
X35560000Y-25400000D03*
G04 #@! TO.P,D4,1*
G04 #@! TO.N,Net-(D4-Pad1)*
X35560000Y-27160000D03*
G04 #@! TD*
G04 #@! TO.P,D5,2*
G04 #@! TO.N,/LED_PWR*
X33020000Y-25400000D03*
G04 #@! TO.P,D5,1*
G04 #@! TO.N,Net-(D5-Pad1)*
X33020000Y-27160000D03*
G04 #@! TD*
G04 #@! TO.P,D6,2*
G04 #@! TO.N,/LED_PWR*
X30480000Y-25400000D03*
G04 #@! TO.P,D6,1*
G04 #@! TO.N,Net-(D6-Pad1)*
X30480000Y-27160000D03*
G04 #@! TD*
G04 #@! TO.P,D7,1*
G04 #@! TO.N,Net-(D7-Pad1)*
X27940000Y-27160000D03*
G04 #@! TO.P,D7,2*
G04 #@! TO.N,/LED_PWR*
X27940000Y-25400000D03*
G04 #@! TD*
G04 #@! TO.P,D8,2*
G04 #@! TO.N,/LED_PWR*
X25400000Y-25400000D03*
G04 #@! TO.P,D8,1*
G04 #@! TO.N,Net-(D8-Pad1)*
X25400000Y-27160000D03*
G04 #@! TD*
G04 #@! TO.P,D9,1*
G04 #@! TO.N,Net-(D9-Pad1)*
X66040000Y-27160000D03*
G04 #@! TO.P,D9,2*
G04 #@! TO.N,/LED_PWR*
X66040000Y-25400000D03*
G04 #@! TD*
G04 #@! TO.P,D10,2*
G04 #@! TO.N,/LED_PWR*
X63500000Y-25400000D03*
G04 #@! TO.P,D10,1*
G04 #@! TO.N,Net-(D10-Pad1)*
X63500000Y-27160000D03*
G04 #@! TD*
G04 #@! TO.P,D11,1*
G04 #@! TO.N,Net-(D11-Pad1)*
X60960000Y-27160000D03*
G04 #@! TO.P,D11,2*
G04 #@! TO.N,/LED_PWR*
X60960000Y-25400000D03*
G04 #@! TD*
G04 #@! TO.P,D12,2*
G04 #@! TO.N,/LED_PWR*
X58420000Y-25400000D03*
G04 #@! TO.P,D12,1*
G04 #@! TO.N,Net-(D12-Pad1)*
X58420000Y-27160000D03*
G04 #@! TD*
G04 #@! TO.P,D13,1*
G04 #@! TO.N,Net-(D13-Pad1)*
X55880000Y-27160000D03*
G04 #@! TO.P,D13,2*
G04 #@! TO.N,/LED_PWR*
X55880000Y-25400000D03*
G04 #@! TD*
G04 #@! TO.P,D14,1*
G04 #@! TO.N,Net-(D14-Pad1)*
X53340000Y-27160000D03*
G04 #@! TO.P,D14,2*
G04 #@! TO.N,/LED_PWR*
X53340000Y-25400000D03*
G04 #@! TD*
G04 #@! TO.P,D15,2*
G04 #@! TO.N,/LED_PWR*
X50800000Y-25400000D03*
G04 #@! TO.P,D15,1*
G04 #@! TO.N,Net-(D15-Pad1)*
X50800000Y-27160000D03*
G04 #@! TD*
G04 #@! TO.P,D16,2*
G04 #@! TO.N,/LED_PWR*
X48260000Y-25400000D03*
G04 #@! TO.P,D16,1*
G04 #@! TO.N,Net-(D16-Pad1)*
X48260000Y-27160000D03*
G04 #@! TD*
G04 #@! TO.P,D17,1*
G04 #@! TO.N,Net-(D17-Pad1)*
X88900000Y-27160000D03*
G04 #@! TO.P,D17,2*
G04 #@! TO.N,/LED_PWR*
X88900000Y-25400000D03*
G04 #@! TD*
G04 #@! TO.P,D18,1*
G04 #@! TO.N,Net-(D18-Pad1)*
X86360000Y-27160000D03*
G04 #@! TO.P,D18,2*
G04 #@! TO.N,/LED_PWR*
X86360000Y-25400000D03*
G04 #@! TD*
G04 #@! TO.P,D19,2*
G04 #@! TO.N,/LED_PWR*
X83820000Y-25400000D03*
G04 #@! TO.P,D19,1*
G04 #@! TO.N,Net-(D19-Pad1)*
X83820000Y-27160000D03*
G04 #@! TD*
G04 #@! TO.P,D20,2*
G04 #@! TO.N,/LED_PWR*
X81280000Y-25400000D03*
G04 #@! TO.P,D20,1*
G04 #@! TO.N,Net-(D20-Pad1)*
X81280000Y-27160000D03*
G04 #@! TD*
G04 #@! TO.P,D21,1*
G04 #@! TO.N,Net-(D21-Pad1)*
X78740000Y-27160000D03*
G04 #@! TO.P,D21,2*
G04 #@! TO.N,/LED_PWR*
X78740000Y-25400000D03*
G04 #@! TD*
G04 #@! TO.P,D22,2*
G04 #@! TO.N,/LED_PWR*
X76200000Y-25400000D03*
G04 #@! TO.P,D22,1*
G04 #@! TO.N,Net-(D22-Pad1)*
X76200000Y-27160000D03*
G04 #@! TD*
G04 #@! TO.P,D23,1*
G04 #@! TO.N,Net-(D23-Pad1)*
X73660000Y-27160000D03*
G04 #@! TO.P,D23,2*
G04 #@! TO.N,/LED_PWR*
X73660000Y-25400000D03*
G04 #@! TD*
G04 #@! TO.P,D24,1*
G04 #@! TO.N,Net-(D24-Pad1)*
X71120000Y-27160000D03*
G04 #@! TO.P,D24,2*
G04 #@! TO.N,/LED_PWR*
X71120000Y-25400000D03*
G04 #@! TD*
G04 #@! TO.P,D25,1*
G04 #@! TO.N,Net-(D25-Pad1)*
X111760000Y-27160000D03*
G04 #@! TO.P,D25,2*
G04 #@! TO.N,/LED_PWR*
X111760000Y-25400000D03*
G04 #@! TD*
G04 #@! TO.P,D26,2*
G04 #@! TO.N,/LED_PWR*
X109220000Y-25400000D03*
G04 #@! TO.P,D26,1*
G04 #@! TO.N,Net-(D26-Pad1)*
X109220000Y-27160000D03*
G04 #@! TD*
G04 #@! TO.P,D27,1*
G04 #@! TO.N,Net-(D27-Pad1)*
X106680000Y-27160000D03*
G04 #@! TO.P,D27,2*
G04 #@! TO.N,/LED_PWR*
X106680000Y-25400000D03*
G04 #@! TD*
G04 #@! TO.P,D28,2*
G04 #@! TO.N,/LED_PWR*
X104140000Y-25400000D03*
G04 #@! TO.P,D28,1*
G04 #@! TO.N,Net-(D28-Pad1)*
X104140000Y-27160000D03*
G04 #@! TD*
G04 #@! TO.P,D29,1*
G04 #@! TO.N,Net-(D29-Pad1)*
X101600000Y-27160000D03*
G04 #@! TO.P,D29,2*
G04 #@! TO.N,/LED_PWR*
X101600000Y-25400000D03*
G04 #@! TD*
G04 #@! TO.P,D30,1*
G04 #@! TO.N,Net-(D30-Pad1)*
X99060000Y-27160000D03*
G04 #@! TO.P,D30,2*
G04 #@! TO.N,/LED_PWR*
X99060000Y-25400000D03*
G04 #@! TD*
G04 #@! TO.P,D31,2*
G04 #@! TO.N,/LED_PWR*
X96520000Y-25400000D03*
G04 #@! TO.P,D31,1*
G04 #@! TO.N,Net-(D31-Pad1)*
X96520000Y-27160000D03*
G04 #@! TD*
G04 #@! TO.P,D32,2*
G04 #@! TO.N,/LED_PWR*
X93980000Y-25400000D03*
G04 #@! TO.P,D32,1*
G04 #@! TO.N,Net-(D32-Pad1)*
X93980000Y-27160000D03*
G04 #@! TD*
D18*
G04 #@! TO.P,D33,2*
G04 #@! TO.N,/LED_PWR*
X38490000Y-22860000D03*
G04 #@! TO.P,D33,1*
G04 #@! TO.N,Net-(D33-Pad1)*
X40250000Y-22860000D03*
G04 #@! TD*
G04 #@! TO.P,D34,2*
G04 #@! TO.N,/LED_PWR*
X61350000Y-22860000D03*
G04 #@! TO.P,D34,1*
G04 #@! TO.N,Net-(D34-Pad1)*
X63110000Y-22860000D03*
G04 #@! TD*
G04 #@! TO.P,D35,1*
G04 #@! TO.N,Net-(D35-Pad1)*
X85970000Y-22860000D03*
G04 #@! TO.P,D35,2*
G04 #@! TO.N,/LED_PWR*
X84210000Y-22860000D03*
G04 #@! TD*
G04 #@! TO.P,D36,2*
G04 #@! TO.N,/LED_PWR*
X107070000Y-22860000D03*
G04 #@! TO.P,D36,1*
G04 #@! TO.N,Net-(D36-Pad1)*
X108830000Y-22860000D03*
G04 #@! TD*
D17*
G04 #@! TO.P,D37,1*
G04 #@! TO.N,Net-(D37-Pad1)*
X142240000Y-27160000D03*
G04 #@! TO.P,D37,2*
G04 #@! TO.N,/LED_PWR*
X142240000Y-25400000D03*
G04 #@! TD*
G04 #@! TO.P,D38,1*
G04 #@! TO.N,Net-(D38-Pad1)*
X139700000Y-27160000D03*
G04 #@! TO.P,D38,2*
G04 #@! TO.N,/LED_PWR*
X139700000Y-25400000D03*
G04 #@! TD*
G04 #@! TO.P,D39,2*
G04 #@! TO.N,/LED_PWR*
X137160000Y-25400000D03*
G04 #@! TO.P,D39,1*
G04 #@! TO.N,Net-(D39-Pad1)*
X137160000Y-27160000D03*
G04 #@! TD*
G04 #@! TO.P,D40,2*
G04 #@! TO.N,/LED_PWR*
X134620000Y-25400000D03*
G04 #@! TO.P,D40,1*
G04 #@! TO.N,Net-(D40-Pad1)*
X134620000Y-27160000D03*
G04 #@! TD*
G04 #@! TO.P,D41,1*
G04 #@! TO.N,Net-(D41-Pad1)*
X132080000Y-27160000D03*
G04 #@! TO.P,D41,2*
G04 #@! TO.N,/LED_PWR*
X132080000Y-25400000D03*
G04 #@! TD*
G04 #@! TO.P,D42,1*
G04 #@! TO.N,Net-(D42-Pad1)*
X129540000Y-27160000D03*
G04 #@! TO.P,D42,2*
G04 #@! TO.N,/LED_PWR*
X129540000Y-25400000D03*
G04 #@! TD*
G04 #@! TO.P,D43,2*
G04 #@! TO.N,/LED_PWR*
X127000000Y-25400000D03*
G04 #@! TO.P,D43,1*
G04 #@! TO.N,Net-(D43-Pad1)*
X127000000Y-27160000D03*
G04 #@! TD*
G04 #@! TO.P,D44,1*
G04 #@! TO.N,Net-(D44-Pad1)*
X124460000Y-27160000D03*
G04 #@! TO.P,D44,2*
G04 #@! TO.N,/LED_PWR*
X124460000Y-25400000D03*
G04 #@! TD*
D11*
G04 #@! TO.P,Q1,2*
G04 #@! TO.N,/s0*
X30480000Y-46990000D03*
G04 #@! TO.P,Q1,3*
G04 #@! TO.N,/sa*
X30480000Y-49530000D03*
D12*
G04 #@! TO.P,Q1,1*
G04 #@! TO.N,GND*
X30480000Y-44450000D03*
G04 #@! TD*
G04 #@! TO.P,Q2,1*
G04 #@! TO.N,GND*
X35560000Y-44450000D03*
D11*
G04 #@! TO.P,Q2,3*
G04 #@! TO.N,/sa*
X35560000Y-49530000D03*
G04 #@! TO.P,Q2,2*
G04 #@! TO.N,/s1*
X35560000Y-46990000D03*
G04 #@! TD*
D12*
G04 #@! TO.P,Q3,1*
G04 #@! TO.N,GND*
X27940000Y-63500000D03*
D11*
G04 #@! TO.P,Q3,3*
G04 #@! TO.N,/sa_and*
X27940000Y-58420000D03*
G04 #@! TO.P,Q3,2*
G04 #@! TO.N,/sa*
X27940000Y-60960000D03*
G04 #@! TD*
G04 #@! TO.P,Q4,2*
G04 #@! TO.N,/s0*
X52070000Y-46990000D03*
G04 #@! TO.P,Q4,3*
G04 #@! TO.N,/sb*
X52070000Y-49530000D03*
D12*
G04 #@! TO.P,Q4,1*
G04 #@! TO.N,GND*
X52070000Y-44450000D03*
G04 #@! TD*
G04 #@! TO.P,Q6,1*
G04 #@! TO.N,GND*
X62230000Y-44450000D03*
D11*
G04 #@! TO.P,Q6,3*
G04 #@! TO.N,Net-(Q5-Pad2)*
X62230000Y-49530000D03*
G04 #@! TO.P,Q6,2*
G04 #@! TO.N,/s1*
X62230000Y-46990000D03*
G04 #@! TD*
D12*
G04 #@! TO.P,Q7,1*
G04 #@! TO.N,GND*
X50800000Y-63500000D03*
D11*
G04 #@! TO.P,Q7,3*
G04 #@! TO.N,/sb_and*
X50800000Y-58420000D03*
G04 #@! TO.P,Q7,2*
G04 #@! TO.N,/sb*
X50800000Y-60960000D03*
G04 #@! TD*
G04 #@! TO.P,Q8,2*
G04 #@! TO.N,/s0*
X74930000Y-46990000D03*
G04 #@! TO.P,Q8,3*
G04 #@! TO.N,Net-(Q8-Pad3)*
X74930000Y-49530000D03*
D12*
G04 #@! TO.P,Q8,1*
G04 #@! TO.N,GND*
X74930000Y-44450000D03*
G04 #@! TD*
G04 #@! TO.P,Q9,1*
G04 #@! TO.N,GND*
X80010000Y-44450000D03*
D11*
G04 #@! TO.P,Q9,3*
G04 #@! TO.N,/sc*
X80010000Y-49530000D03*
G04 #@! TO.P,Q9,2*
G04 #@! TO.N,Net-(Q8-Pad3)*
X80010000Y-46990000D03*
G04 #@! TD*
D12*
G04 #@! TO.P,Q10,1*
G04 #@! TO.N,GND*
X85090000Y-44450000D03*
D11*
G04 #@! TO.P,Q10,3*
G04 #@! TO.N,/sc*
X85090000Y-49530000D03*
G04 #@! TO.P,Q10,2*
G04 #@! TO.N,/s1*
X85090000Y-46990000D03*
G04 #@! TD*
G04 #@! TO.P,Q11,2*
G04 #@! TO.N,/sc*
X73660000Y-60960000D03*
G04 #@! TO.P,Q11,3*
G04 #@! TO.N,/sc_and*
X73660000Y-58420000D03*
D12*
G04 #@! TO.P,Q11,1*
G04 #@! TO.N,GND*
X73660000Y-63500000D03*
G04 #@! TD*
G04 #@! TO.P,Q13,1*
G04 #@! TO.N,GND*
X102870000Y-44450000D03*
D11*
G04 #@! TO.P,Q13,3*
G04 #@! TO.N,Net-(Q12-Pad1)*
X102870000Y-49530000D03*
G04 #@! TO.P,Q13,2*
G04 #@! TO.N,/s1*
X102870000Y-46990000D03*
G04 #@! TD*
G04 #@! TO.P,Q14,2*
G04 #@! TO.N,Net-(Q12-Pad3)*
X107950000Y-46990000D03*
G04 #@! TO.P,Q14,3*
G04 #@! TO.N,/sd*
X107950000Y-49530000D03*
D12*
G04 #@! TO.P,Q14,1*
G04 #@! TO.N,GND*
X107950000Y-44450000D03*
G04 #@! TD*
D11*
G04 #@! TO.P,Q15,2*
G04 #@! TO.N,/sd*
X96520000Y-60960000D03*
G04 #@! TO.P,Q15,3*
G04 #@! TO.N,/sd_and*
X96520000Y-58420000D03*
D12*
G04 #@! TO.P,Q15,1*
G04 #@! TO.N,GND*
X96520000Y-63500000D03*
G04 #@! TD*
G04 #@! TO.P,Q16,1*
G04 #@! TO.N,/sa_and*
X43180000Y-71120000D03*
D11*
G04 #@! TO.P,Q16,3*
G04 #@! TO.N,Net-(Q16-Pad3)*
X43180000Y-66040000D03*
G04 #@! TO.P,Q16,2*
G04 #@! TO.N,/a0*
X43180000Y-68580000D03*
G04 #@! TD*
G04 #@! TO.P,Q17,2*
G04 #@! TO.N,/b0*
X66040000Y-68580000D03*
G04 #@! TO.P,Q17,3*
G04 #@! TO.N,Net-(Q16-Pad3)*
X66040000Y-66040000D03*
D12*
G04 #@! TO.P,Q17,1*
G04 #@! TO.N,/sb_and*
X66040000Y-71120000D03*
G04 #@! TD*
G04 #@! TO.P,Q18,1*
G04 #@! TO.N,/sc_and*
X88900000Y-71120000D03*
D11*
G04 #@! TO.P,Q18,3*
G04 #@! TO.N,Net-(Q16-Pad3)*
X88900000Y-66040000D03*
G04 #@! TO.P,Q18,2*
G04 #@! TO.N,/c0*
X88900000Y-68580000D03*
G04 #@! TD*
G04 #@! TO.P,Q19,2*
G04 #@! TO.N,/d0*
X111760000Y-68580000D03*
G04 #@! TO.P,Q19,3*
G04 #@! TO.N,Net-(Q16-Pad3)*
X111760000Y-66040000D03*
D12*
G04 #@! TO.P,Q19,1*
G04 #@! TO.N,/sd_and*
X111760000Y-71120000D03*
G04 #@! TD*
G04 #@! TO.P,Q20,1*
G04 #@! TO.N,GND*
X111760000Y-63500000D03*
D11*
G04 #@! TO.P,Q20,3*
G04 #@! TO.N,/o0*
X111760000Y-58420000D03*
G04 #@! TO.P,Q20,2*
G04 #@! TO.N,Net-(Q16-Pad3)*
X111760000Y-60960000D03*
G04 #@! TD*
G04 #@! TO.P,Q21,2*
G04 #@! TO.N,/a1*
X43180000Y-76200000D03*
G04 #@! TO.P,Q21,3*
G04 #@! TO.N,Net-(Q21-Pad3)*
X43180000Y-73660000D03*
D12*
G04 #@! TO.P,Q21,1*
G04 #@! TO.N,/sa_and*
X43180000Y-78740000D03*
G04 #@! TD*
G04 #@! TO.P,Q22,1*
G04 #@! TO.N,/sb_and*
X66040000Y-78740000D03*
D11*
G04 #@! TO.P,Q22,3*
G04 #@! TO.N,Net-(Q21-Pad3)*
X66040000Y-73660000D03*
G04 #@! TO.P,Q22,2*
G04 #@! TO.N,/b1*
X66040000Y-76200000D03*
G04 #@! TD*
G04 #@! TO.P,Q23,2*
G04 #@! TO.N,/c1*
X88900000Y-76200000D03*
G04 #@! TO.P,Q23,3*
G04 #@! TO.N,Net-(Q21-Pad3)*
X88900000Y-73660000D03*
D12*
G04 #@! TO.P,Q23,1*
G04 #@! TO.N,/sc_and*
X88900000Y-78740000D03*
G04 #@! TD*
G04 #@! TO.P,Q24,1*
G04 #@! TO.N,/sd_and*
X111760000Y-78740000D03*
D11*
G04 #@! TO.P,Q24,3*
G04 #@! TO.N,Net-(Q21-Pad3)*
X111760000Y-73660000D03*
G04 #@! TO.P,Q24,2*
G04 #@! TO.N,/d1*
X111760000Y-76200000D03*
G04 #@! TD*
G04 #@! TO.P,Q25,2*
G04 #@! TO.N,Net-(Q21-Pad3)*
X101600000Y-60960000D03*
G04 #@! TO.P,Q25,3*
G04 #@! TO.N,/o1*
X101600000Y-58420000D03*
D12*
G04 #@! TO.P,Q25,1*
G04 #@! TO.N,GND*
X101600000Y-63500000D03*
G04 #@! TD*
D11*
G04 #@! TO.P,Q26,2*
G04 #@! TO.N,/a2*
X38100000Y-68580000D03*
G04 #@! TO.P,Q26,3*
G04 #@! TO.N,Net-(Q26-Pad3)*
X38100000Y-66040000D03*
D12*
G04 #@! TO.P,Q26,1*
G04 #@! TO.N,/sa_and*
X38100000Y-71120000D03*
G04 #@! TD*
G04 #@! TO.P,Q27,1*
G04 #@! TO.N,/sb_and*
X60960000Y-71120000D03*
D11*
G04 #@! TO.P,Q27,3*
G04 #@! TO.N,Net-(Q26-Pad3)*
X60960000Y-66040000D03*
G04 #@! TO.P,Q27,2*
G04 #@! TO.N,/b2*
X60960000Y-68580000D03*
G04 #@! TD*
G04 #@! TO.P,Q28,2*
G04 #@! TO.N,/c2*
X83820000Y-68580000D03*
G04 #@! TO.P,Q28,3*
G04 #@! TO.N,Net-(Q26-Pad3)*
X83820000Y-66040000D03*
D12*
G04 #@! TO.P,Q28,1*
G04 #@! TO.N,/sc_and*
X83820000Y-71120000D03*
G04 #@! TD*
G04 #@! TO.P,Q29,1*
G04 #@! TO.N,/sd_and*
X106680000Y-71120000D03*
D11*
G04 #@! TO.P,Q29,3*
G04 #@! TO.N,Net-(Q26-Pad3)*
X106680000Y-66040000D03*
G04 #@! TO.P,Q29,2*
G04 #@! TO.N,/d2*
X106680000Y-68580000D03*
G04 #@! TD*
D12*
G04 #@! TO.P,Q30,1*
G04 #@! TO.N,GND*
X88900000Y-63500000D03*
D11*
G04 #@! TO.P,Q30,3*
G04 #@! TO.N,/o2*
X88900000Y-58420000D03*
G04 #@! TO.P,Q30,2*
G04 #@! TO.N,Net-(Q26-Pad3)*
X88900000Y-60960000D03*
G04 #@! TD*
G04 #@! TO.P,Q31,2*
G04 #@! TO.N,/a3*
X38100000Y-76200000D03*
G04 #@! TO.P,Q31,3*
G04 #@! TO.N,Net-(Q31-Pad3)*
X38100000Y-73660000D03*
D12*
G04 #@! TO.P,Q31,1*
G04 #@! TO.N,/sa_and*
X38100000Y-78740000D03*
G04 #@! TD*
D11*
G04 #@! TO.P,Q32,2*
G04 #@! TO.N,/b3*
X60960000Y-76200000D03*
G04 #@! TO.P,Q32,3*
G04 #@! TO.N,Net-(Q31-Pad3)*
X60960000Y-73660000D03*
D12*
G04 #@! TO.P,Q32,1*
G04 #@! TO.N,/sb_and*
X60960000Y-78740000D03*
G04 #@! TD*
G04 #@! TO.P,Q33,1*
G04 #@! TO.N,/sc_and*
X83820000Y-78740000D03*
D11*
G04 #@! TO.P,Q33,3*
G04 #@! TO.N,Net-(Q31-Pad3)*
X83820000Y-73660000D03*
G04 #@! TO.P,Q33,2*
G04 #@! TO.N,/c3*
X83820000Y-76200000D03*
G04 #@! TD*
G04 #@! TO.P,Q34,2*
G04 #@! TO.N,/d3*
X106680000Y-76200000D03*
G04 #@! TO.P,Q34,3*
G04 #@! TO.N,Net-(Q31-Pad3)*
X106680000Y-73660000D03*
D12*
G04 #@! TO.P,Q34,1*
G04 #@! TO.N,/sd_and*
X106680000Y-78740000D03*
G04 #@! TD*
G04 #@! TO.P,Q35,1*
G04 #@! TO.N,GND*
X78740000Y-63500000D03*
D11*
G04 #@! TO.P,Q35,3*
G04 #@! TO.N,/o3*
X78740000Y-58420000D03*
G04 #@! TO.P,Q35,2*
G04 #@! TO.N,Net-(Q31-Pad3)*
X78740000Y-60960000D03*
G04 #@! TD*
D12*
G04 #@! TO.P,Q37,1*
G04 #@! TO.N,/sb_and*
X55880000Y-71120000D03*
D11*
G04 #@! TO.P,Q37,3*
G04 #@! TO.N,Net-(Q36-Pad3)*
X55880000Y-66040000D03*
G04 #@! TO.P,Q37,2*
G04 #@! TO.N,/b4*
X55880000Y-68580000D03*
G04 #@! TD*
D12*
G04 #@! TO.P,Q38,1*
G04 #@! TO.N,/sc_and*
X78740000Y-71120000D03*
D11*
G04 #@! TO.P,Q38,3*
G04 #@! TO.N,Net-(Q36-Pad3)*
X78740000Y-66040000D03*
G04 #@! TO.P,Q38,2*
G04 #@! TO.N,/c4*
X78740000Y-68580000D03*
G04 #@! TD*
G04 #@! TO.P,Q39,2*
G04 #@! TO.N,/d4*
X101600000Y-68580000D03*
G04 #@! TO.P,Q39,3*
G04 #@! TO.N,Net-(Q36-Pad3)*
X101600000Y-66040000D03*
D12*
G04 #@! TO.P,Q39,1*
G04 #@! TO.N,/sd_and*
X101600000Y-71120000D03*
G04 #@! TD*
G04 #@! TO.P,Q40,1*
G04 #@! TO.N,GND*
X66040000Y-63500000D03*
D11*
G04 #@! TO.P,Q40,3*
G04 #@! TO.N,/o4*
X66040000Y-58420000D03*
G04 #@! TO.P,Q40,2*
G04 #@! TO.N,Net-(Q36-Pad3)*
X66040000Y-60960000D03*
G04 #@! TD*
D12*
G04 #@! TO.P,Q41,1*
G04 #@! TO.N,/sa_and*
X33020000Y-78740000D03*
D11*
G04 #@! TO.P,Q41,3*
G04 #@! TO.N,Net-(Q41-Pad3)*
X33020000Y-73660000D03*
G04 #@! TO.P,Q41,2*
G04 #@! TO.N,/a5*
X33020000Y-76200000D03*
G04 #@! TD*
G04 #@! TO.P,Q42,2*
G04 #@! TO.N,/b5*
X55880000Y-76200000D03*
G04 #@! TO.P,Q42,3*
G04 #@! TO.N,Net-(Q41-Pad3)*
X55880000Y-73660000D03*
D12*
G04 #@! TO.P,Q42,1*
G04 #@! TO.N,/sb_and*
X55880000Y-78740000D03*
G04 #@! TD*
G04 #@! TO.P,Q43,1*
G04 #@! TO.N,/sc_and*
X78740000Y-78740000D03*
D11*
G04 #@! TO.P,Q43,3*
G04 #@! TO.N,Net-(Q41-Pad3)*
X78740000Y-73660000D03*
G04 #@! TO.P,Q43,2*
G04 #@! TO.N,/c5*
X78740000Y-76200000D03*
G04 #@! TD*
G04 #@! TO.P,Q44,2*
G04 #@! TO.N,/d5*
X101600000Y-76200000D03*
G04 #@! TO.P,Q44,3*
G04 #@! TO.N,Net-(Q41-Pad3)*
X101600000Y-73660000D03*
D12*
G04 #@! TO.P,Q44,1*
G04 #@! TO.N,/sd_and*
X101600000Y-78740000D03*
G04 #@! TD*
G04 #@! TO.P,Q45,1*
G04 #@! TO.N,GND*
X55880000Y-63500000D03*
D11*
G04 #@! TO.P,Q45,3*
G04 #@! TO.N,/o5*
X55880000Y-58420000D03*
G04 #@! TO.P,Q45,2*
G04 #@! TO.N,Net-(Q41-Pad3)*
X55880000Y-60960000D03*
G04 #@! TD*
G04 #@! TO.P,Q46,2*
G04 #@! TO.N,/a6*
X27940000Y-68580000D03*
G04 #@! TO.P,Q46,3*
G04 #@! TO.N,Net-(Q46-Pad3)*
X27940000Y-66040000D03*
D12*
G04 #@! TO.P,Q46,1*
G04 #@! TO.N,/sa_and*
X27940000Y-71120000D03*
G04 #@! TD*
D11*
G04 #@! TO.P,Q47,2*
G04 #@! TO.N,/b6*
X50800000Y-68580000D03*
G04 #@! TO.P,Q47,3*
G04 #@! TO.N,Net-(Q46-Pad3)*
X50800000Y-66040000D03*
D12*
G04 #@! TO.P,Q47,1*
G04 #@! TO.N,/sb_and*
X50800000Y-71120000D03*
G04 #@! TD*
D13*
G04 #@! TO.P,Q84,1*
G04 #@! TO.N,GND*
X100650000Y-36830000D03*
G04 #@! TO.P,Q84,2*
G04 #@! TO.N,/d4*
X102550000Y-36830000D03*
G04 #@! TO.P,Q84,3*
G04 #@! TO.N,Net-(Q84-Pad3)*
X101600000Y-33830000D03*
G04 #@! TD*
G04 #@! TO.P,Q85,1*
G04 #@! TO.N,GND*
X98110000Y-41275000D03*
G04 #@! TO.P,Q85,2*
G04 #@! TO.N,/d5*
X100010000Y-41275000D03*
G04 #@! TO.P,Q85,3*
G04 #@! TO.N,Net-(Q85-Pad3)*
X99060000Y-38275000D03*
G04 #@! TD*
G04 #@! TO.P,Q86,1*
G04 #@! TO.N,GND*
X95570000Y-36830000D03*
G04 #@! TO.P,Q86,2*
G04 #@! TO.N,/d6*
X97470000Y-36830000D03*
G04 #@! TO.P,Q86,3*
G04 #@! TO.N,Net-(Q86-Pad3)*
X96520000Y-33830000D03*
G04 #@! TD*
G04 #@! TO.P,Q87,1*
G04 #@! TO.N,GND*
X93030000Y-41275000D03*
G04 #@! TO.P,Q87,2*
G04 #@! TO.N,/d7*
X94930000Y-41275000D03*
G04 #@! TO.P,Q87,3*
G04 #@! TO.N,Net-(Q87-Pad3)*
X93980000Y-38275000D03*
G04 #@! TD*
G04 #@! TO.P,Q90,1*
G04 #@! TO.N,GND*
X118430000Y-41275000D03*
G04 #@! TO.P,Q90,2*
G04 #@! TO.N,/sc*
X120330000Y-41275000D03*
G04 #@! TO.P,Q90,3*
G04 #@! TO.N,Net-(Q90-Pad3)*
X119380000Y-38275000D03*
G04 #@! TD*
G04 #@! TO.P,Q91,1*
G04 #@! TO.N,GND*
X115890000Y-36830000D03*
G04 #@! TO.P,Q91,2*
G04 #@! TO.N,/sd*
X117790000Y-36830000D03*
G04 #@! TO.P,Q91,3*
G04 #@! TO.N,Net-(Q91-Pad3)*
X116840000Y-33830000D03*
G04 #@! TD*
D14*
G04 #@! TO.P,R24,1*
G04 #@! TO.N,Net-(D1-Pad1)*
X43180000Y-29512500D03*
G04 #@! TO.P,R24,2*
G04 #@! TO.N,Net-(Q56-Pad3)*
X43180000Y-31447500D03*
G04 #@! TD*
G04 #@! TO.P,R25,2*
G04 #@! TO.N,Net-(Q57-Pad3)*
X40640000Y-31447500D03*
G04 #@! TO.P,R25,1*
G04 #@! TO.N,Net-(D2-Pad1)*
X40640000Y-29512500D03*
G04 #@! TD*
G04 #@! TO.P,R26,2*
G04 #@! TO.N,Net-(Q58-Pad3)*
X38100000Y-31447500D03*
G04 #@! TO.P,R26,1*
G04 #@! TO.N,Net-(D3-Pad1)*
X38100000Y-29512500D03*
G04 #@! TD*
G04 #@! TO.P,R27,2*
G04 #@! TO.N,Net-(Q59-Pad3)*
X35560000Y-31447500D03*
G04 #@! TO.P,R27,1*
G04 #@! TO.N,Net-(D4-Pad1)*
X35560000Y-29512500D03*
G04 #@! TD*
G04 #@! TO.P,R28,1*
G04 #@! TO.N,Net-(D5-Pad1)*
X33020000Y-29512500D03*
G04 #@! TO.P,R28,2*
G04 #@! TO.N,Net-(Q60-Pad3)*
X33020000Y-31447500D03*
G04 #@! TD*
G04 #@! TO.P,R29,2*
G04 #@! TO.N,Net-(Q61-Pad3)*
X30480000Y-31447500D03*
G04 #@! TO.P,R29,1*
G04 #@! TO.N,Net-(D6-Pad1)*
X30480000Y-29512500D03*
G04 #@! TD*
G04 #@! TO.P,R30,1*
G04 #@! TO.N,Net-(D7-Pad1)*
X27940000Y-29512500D03*
G04 #@! TO.P,R30,2*
G04 #@! TO.N,Net-(Q62-Pad3)*
X27940000Y-31447500D03*
G04 #@! TD*
G04 #@! TO.P,R31,2*
G04 #@! TO.N,Net-(Q63-Pad3)*
X25400000Y-31447500D03*
G04 #@! TO.P,R31,1*
G04 #@! TO.N,Net-(D8-Pad1)*
X25400000Y-29512500D03*
G04 #@! TD*
G04 #@! TO.P,R32,1*
G04 #@! TO.N,Net-(D9-Pad1)*
X66040000Y-29512500D03*
G04 #@! TO.P,R32,2*
G04 #@! TO.N,Net-(Q64-Pad3)*
X66040000Y-31447500D03*
G04 #@! TD*
G04 #@! TO.P,R33,2*
G04 #@! TO.N,Net-(Q65-Pad3)*
X63500000Y-31447500D03*
G04 #@! TO.P,R33,1*
G04 #@! TO.N,Net-(D10-Pad1)*
X63500000Y-29512500D03*
G04 #@! TD*
G04 #@! TO.P,R34,1*
G04 #@! TO.N,Net-(D11-Pad1)*
X60960000Y-29512500D03*
G04 #@! TO.P,R34,2*
G04 #@! TO.N,Net-(Q66-Pad3)*
X60960000Y-31447500D03*
G04 #@! TD*
G04 #@! TO.P,R35,2*
G04 #@! TO.N,Net-(Q67-Pad3)*
X58420000Y-31447500D03*
G04 #@! TO.P,R35,1*
G04 #@! TO.N,Net-(D12-Pad1)*
X58420000Y-29512500D03*
G04 #@! TD*
G04 #@! TO.P,R36,1*
G04 #@! TO.N,Net-(D13-Pad1)*
X55880000Y-29512500D03*
G04 #@! TO.P,R36,2*
G04 #@! TO.N,Net-(Q68-Pad3)*
X55880000Y-31447500D03*
G04 #@! TD*
G04 #@! TO.P,R37,2*
G04 #@! TO.N,Net-(Q69-Pad3)*
X53340000Y-31447500D03*
G04 #@! TO.P,R37,1*
G04 #@! TO.N,Net-(D14-Pad1)*
X53340000Y-29512500D03*
G04 #@! TD*
G04 #@! TO.P,R38,1*
G04 #@! TO.N,Net-(D15-Pad1)*
X50800000Y-29512500D03*
G04 #@! TO.P,R38,2*
G04 #@! TO.N,Net-(Q70-Pad3)*
X50800000Y-31447500D03*
G04 #@! TD*
G04 #@! TO.P,R39,2*
G04 #@! TO.N,Net-(Q71-Pad3)*
X48260000Y-31447500D03*
G04 #@! TO.P,R39,1*
G04 #@! TO.N,Net-(D16-Pad1)*
X48260000Y-29512500D03*
G04 #@! TD*
G04 #@! TO.P,R40,1*
G04 #@! TO.N,Net-(D17-Pad1)*
X88900000Y-29512500D03*
G04 #@! TO.P,R40,2*
G04 #@! TO.N,Net-(Q72-Pad3)*
X88900000Y-31447500D03*
G04 #@! TD*
G04 #@! TO.P,R41,2*
G04 #@! TO.N,Net-(Q73-Pad3)*
X86360000Y-31447500D03*
G04 #@! TO.P,R41,1*
G04 #@! TO.N,Net-(D18-Pad1)*
X86360000Y-29512500D03*
G04 #@! TD*
G04 #@! TO.P,R42,1*
G04 #@! TO.N,Net-(D19-Pad1)*
X83820000Y-29512500D03*
G04 #@! TO.P,R42,2*
G04 #@! TO.N,Net-(Q74-Pad3)*
X83820000Y-31447500D03*
G04 #@! TD*
G04 #@! TO.P,R43,2*
G04 #@! TO.N,Net-(Q75-Pad3)*
X81280000Y-31447500D03*
G04 #@! TO.P,R43,1*
G04 #@! TO.N,Net-(D20-Pad1)*
X81280000Y-29512500D03*
G04 #@! TD*
G04 #@! TO.P,R44,1*
G04 #@! TO.N,Net-(D21-Pad1)*
X78740000Y-29512500D03*
G04 #@! TO.P,R44,2*
G04 #@! TO.N,Net-(Q76-Pad3)*
X78740000Y-31447500D03*
G04 #@! TD*
G04 #@! TO.P,R45,2*
G04 #@! TO.N,Net-(Q77-Pad3)*
X76200000Y-31447500D03*
G04 #@! TO.P,R45,1*
G04 #@! TO.N,Net-(D22-Pad1)*
X76200000Y-29512500D03*
G04 #@! TD*
G04 #@! TO.P,R46,1*
G04 #@! TO.N,Net-(D23-Pad1)*
X73660000Y-29512500D03*
G04 #@! TO.P,R46,2*
G04 #@! TO.N,Net-(Q78-Pad3)*
X73660000Y-31447500D03*
G04 #@! TD*
G04 #@! TO.P,R47,2*
G04 #@! TO.N,Net-(Q79-Pad3)*
X71120000Y-31447500D03*
G04 #@! TO.P,R47,1*
G04 #@! TO.N,Net-(D24-Pad1)*
X71120000Y-29512500D03*
G04 #@! TD*
G04 #@! TO.P,R48,1*
G04 #@! TO.N,Net-(D25-Pad1)*
X111760000Y-29512500D03*
G04 #@! TO.P,R48,2*
G04 #@! TO.N,Net-(Q80-Pad3)*
X111760000Y-31447500D03*
G04 #@! TD*
G04 #@! TO.P,R49,2*
G04 #@! TO.N,Net-(Q81-Pad3)*
X109220000Y-31447500D03*
G04 #@! TO.P,R49,1*
G04 #@! TO.N,Net-(D26-Pad1)*
X109220000Y-29512500D03*
G04 #@! TD*
G04 #@! TO.P,R50,1*
G04 #@! TO.N,Net-(D27-Pad1)*
X106680000Y-29512500D03*
G04 #@! TO.P,R50,2*
G04 #@! TO.N,Net-(Q82-Pad3)*
X106680000Y-31447500D03*
G04 #@! TD*
G04 #@! TO.P,R51,2*
G04 #@! TO.N,Net-(Q83-Pad3)*
X104140000Y-31447500D03*
G04 #@! TO.P,R51,1*
G04 #@! TO.N,Net-(D28-Pad1)*
X104140000Y-29512500D03*
G04 #@! TD*
G04 #@! TO.P,R52,1*
G04 #@! TO.N,Net-(D29-Pad1)*
X101600000Y-29512500D03*
G04 #@! TO.P,R52,2*
G04 #@! TO.N,Net-(Q84-Pad3)*
X101600000Y-31447500D03*
G04 #@! TD*
G04 #@! TO.P,R53,2*
G04 #@! TO.N,Net-(Q85-Pad3)*
X99060000Y-31447500D03*
G04 #@! TO.P,R53,1*
G04 #@! TO.N,Net-(D30-Pad1)*
X99060000Y-29512500D03*
G04 #@! TD*
G04 #@! TO.P,R54,1*
G04 #@! TO.N,Net-(D31-Pad1)*
X96520000Y-29512500D03*
G04 #@! TO.P,R54,2*
G04 #@! TO.N,Net-(Q86-Pad3)*
X96520000Y-31447500D03*
G04 #@! TD*
G04 #@! TO.P,R55,1*
G04 #@! TO.N,Net-(D32-Pad1)*
X93980000Y-29512500D03*
G04 #@! TO.P,R55,2*
G04 #@! TO.N,Net-(Q87-Pad3)*
X93980000Y-31447500D03*
G04 #@! TD*
G04 #@! TO.P,R56,1*
G04 #@! TO.N,Net-(D33-Pad1)*
X43180000Y-46022500D03*
G04 #@! TO.P,R56,2*
G04 #@! TO.N,Net-(Q88-Pad3)*
X43180000Y-47957500D03*
G04 #@! TD*
G04 #@! TO.P,R58,1*
G04 #@! TO.N,Net-(D35-Pad1)*
X119380000Y-28242500D03*
G04 #@! TO.P,R58,2*
G04 #@! TO.N,Net-(Q90-Pad3)*
X119380000Y-30177500D03*
G04 #@! TD*
G04 #@! TO.P,R59,2*
G04 #@! TO.N,Net-(Q91-Pad3)*
X116840000Y-30177500D03*
G04 #@! TO.P,R59,1*
G04 #@! TO.N,Net-(D36-Pad1)*
X116840000Y-28242500D03*
G04 #@! TD*
D12*
G04 #@! TO.P,Q48,1*
G04 #@! TO.N,/sc_and*
X73660000Y-71120000D03*
D11*
G04 #@! TO.P,Q48,3*
G04 #@! TO.N,Net-(Q46-Pad3)*
X73660000Y-66040000D03*
G04 #@! TO.P,Q48,2*
G04 #@! TO.N,/c6*
X73660000Y-68580000D03*
G04 #@! TD*
G04 #@! TO.P,Q49,2*
G04 #@! TO.N,/d6*
X96520000Y-68580000D03*
G04 #@! TO.P,Q49,3*
G04 #@! TO.N,Net-(Q46-Pad3)*
X96520000Y-66040000D03*
D12*
G04 #@! TO.P,Q49,1*
G04 #@! TO.N,/sd_and*
X96520000Y-71120000D03*
G04 #@! TD*
D11*
G04 #@! TO.P,Q50,2*
G04 #@! TO.N,Net-(Q46-Pad3)*
X43180000Y-60960000D03*
G04 #@! TO.P,Q50,3*
G04 #@! TO.N,/o6*
X43180000Y-58420000D03*
D12*
G04 #@! TO.P,Q50,1*
G04 #@! TO.N,GND*
X43180000Y-63500000D03*
G04 #@! TD*
G04 #@! TO.P,Q51,1*
G04 #@! TO.N,/sa_and*
X27940000Y-78740000D03*
D11*
G04 #@! TO.P,Q51,3*
G04 #@! TO.N,Net-(Q51-Pad3)*
X27940000Y-73660000D03*
G04 #@! TO.P,Q51,2*
G04 #@! TO.N,/a7*
X27940000Y-76200000D03*
G04 #@! TD*
G04 #@! TO.P,Q52,2*
G04 #@! TO.N,/b7*
X50800000Y-76200000D03*
G04 #@! TO.P,Q52,3*
G04 #@! TO.N,Net-(Q51-Pad3)*
X50800000Y-73660000D03*
D12*
G04 #@! TO.P,Q52,1*
G04 #@! TO.N,/sb_and*
X50800000Y-78740000D03*
G04 #@! TD*
G04 #@! TO.P,Q54,1*
G04 #@! TO.N,/sd_and*
X96520000Y-78740000D03*
D11*
G04 #@! TO.P,Q54,3*
G04 #@! TO.N,Net-(Q51-Pad3)*
X96520000Y-73660000D03*
G04 #@! TO.P,Q54,2*
G04 #@! TO.N,/d7*
X96520000Y-76200000D03*
G04 #@! TD*
D12*
G04 #@! TO.P,Q55,1*
G04 #@! TO.N,GND*
X33020000Y-63500000D03*
D11*
G04 #@! TO.P,Q55,3*
G04 #@! TO.N,/o7*
X33020000Y-58420000D03*
G04 #@! TO.P,Q55,2*
G04 #@! TO.N,Net-(Q51-Pad3)*
X33020000Y-60960000D03*
G04 #@! TD*
D13*
G04 #@! TO.P,Q93,1*
G04 #@! TO.N,GND*
X138750000Y-41275000D03*
G04 #@! TO.P,Q93,2*
G04 #@! TO.N,/o1*
X140650000Y-41275000D03*
G04 #@! TO.P,Q93,3*
G04 #@! TO.N,Net-(Q93-Pad3)*
X139700000Y-38275000D03*
G04 #@! TD*
G04 #@! TO.P,Q94,3*
G04 #@! TO.N,Net-(Q94-Pad3)*
X137160000Y-33830000D03*
G04 #@! TO.P,Q94,2*
G04 #@! TO.N,/o2*
X138110000Y-36830000D03*
G04 #@! TO.P,Q94,1*
G04 #@! TO.N,GND*
X136210000Y-36830000D03*
G04 #@! TD*
G04 #@! TO.P,Q96,1*
G04 #@! TO.N,GND*
X131130000Y-36830000D03*
G04 #@! TO.P,Q96,2*
G04 #@! TO.N,/o4*
X133030000Y-36830000D03*
G04 #@! TO.P,Q96,3*
G04 #@! TO.N,Net-(Q96-Pad3)*
X132080000Y-33830000D03*
G04 #@! TD*
G04 #@! TO.P,Q97,3*
G04 #@! TO.N,Net-(Q97-Pad3)*
X129540000Y-38275000D03*
G04 #@! TO.P,Q97,2*
G04 #@! TO.N,/o5*
X130490000Y-41275000D03*
G04 #@! TO.P,Q97,1*
G04 #@! TO.N,GND*
X128590000Y-41275000D03*
G04 #@! TD*
G04 #@! TO.P,Q98,1*
G04 #@! TO.N,GND*
X126050000Y-36830000D03*
G04 #@! TO.P,Q98,2*
G04 #@! TO.N,/o6*
X127950000Y-36830000D03*
G04 #@! TO.P,Q98,3*
G04 #@! TO.N,Net-(Q98-Pad3)*
X127000000Y-33830000D03*
G04 #@! TD*
G04 #@! TO.P,Q99,3*
G04 #@! TO.N,Net-(Q99-Pad3)*
X124460000Y-38275000D03*
G04 #@! TO.P,Q99,2*
G04 #@! TO.N,/o7*
X125410000Y-41275000D03*
G04 #@! TO.P,Q99,1*
G04 #@! TO.N,GND*
X123510000Y-41275000D03*
G04 #@! TD*
D14*
G04 #@! TO.P,R60,2*
G04 #@! TO.N,Net-(Q92-Pad3)*
X142240000Y-31447500D03*
G04 #@! TO.P,R60,1*
G04 #@! TO.N,Net-(D37-Pad1)*
X142240000Y-29512500D03*
G04 #@! TD*
G04 #@! TO.P,R61,1*
G04 #@! TO.N,Net-(D38-Pad1)*
X139700000Y-29512500D03*
G04 #@! TO.P,R61,2*
G04 #@! TO.N,Net-(Q93-Pad3)*
X139700000Y-31447500D03*
G04 #@! TD*
G04 #@! TO.P,R62,2*
G04 #@! TO.N,Net-(Q94-Pad3)*
X137160000Y-31447500D03*
G04 #@! TO.P,R62,1*
G04 #@! TO.N,Net-(D39-Pad1)*
X137160000Y-29512500D03*
G04 #@! TD*
G04 #@! TO.P,R63,1*
G04 #@! TO.N,Net-(D40-Pad1)*
X134620000Y-29512500D03*
G04 #@! TO.P,R63,2*
G04 #@! TO.N,Net-(Q95-Pad3)*
X134620000Y-31447500D03*
G04 #@! TD*
G04 #@! TO.P,R64,2*
G04 #@! TO.N,Net-(Q96-Pad3)*
X132080000Y-31447500D03*
G04 #@! TO.P,R64,1*
G04 #@! TO.N,Net-(D41-Pad1)*
X132080000Y-29512500D03*
G04 #@! TD*
G04 #@! TO.P,R65,1*
G04 #@! TO.N,Net-(D42-Pad1)*
X129540000Y-29512500D03*
G04 #@! TO.P,R65,2*
G04 #@! TO.N,Net-(Q97-Pad3)*
X129540000Y-31447500D03*
G04 #@! TD*
G04 #@! TO.P,R66,1*
G04 #@! TO.N,Net-(D43-Pad1)*
X127000000Y-29512500D03*
G04 #@! TO.P,R66,2*
G04 #@! TO.N,Net-(Q98-Pad3)*
X127000000Y-31447500D03*
G04 #@! TD*
G04 #@! TO.P,R67,2*
G04 #@! TO.N,Net-(Q99-Pad3)*
X124460000Y-31447500D03*
G04 #@! TO.P,R67,1*
G04 #@! TO.N,Net-(D44-Pad1)*
X124460000Y-29512500D03*
G04 #@! TD*
D13*
G04 #@! TO.P,Q56,1*
G04 #@! TO.N,GND*
X42230000Y-36830000D03*
G04 #@! TO.P,Q56,2*
G04 #@! TO.N,/a0*
X44130000Y-36830000D03*
G04 #@! TO.P,Q56,3*
G04 #@! TO.N,Net-(Q56-Pad3)*
X43180000Y-33830000D03*
G04 #@! TD*
G04 #@! TO.P,Q57,3*
G04 #@! TO.N,Net-(Q57-Pad3)*
X40640000Y-38275000D03*
G04 #@! TO.P,Q57,2*
G04 #@! TO.N,/a1*
X41590000Y-41275000D03*
G04 #@! TO.P,Q57,1*
G04 #@! TO.N,GND*
X39690000Y-41275000D03*
G04 #@! TD*
G04 #@! TO.P,Q58,1*
G04 #@! TO.N,GND*
X37150000Y-36830000D03*
G04 #@! TO.P,Q58,2*
G04 #@! TO.N,/a2*
X39050000Y-36830000D03*
G04 #@! TO.P,Q58,3*
G04 #@! TO.N,Net-(Q58-Pad3)*
X38100000Y-33830000D03*
G04 #@! TD*
G04 #@! TO.P,Q59,3*
G04 #@! TO.N,Net-(Q59-Pad3)*
X35560000Y-38275000D03*
G04 #@! TO.P,Q59,2*
G04 #@! TO.N,/a3*
X36510000Y-41275000D03*
G04 #@! TO.P,Q59,1*
G04 #@! TO.N,GND*
X34610000Y-41275000D03*
G04 #@! TD*
G04 #@! TO.P,Q60,1*
G04 #@! TO.N,GND*
X32070000Y-36830000D03*
G04 #@! TO.P,Q60,2*
G04 #@! TO.N,/a4*
X33970000Y-36830000D03*
G04 #@! TO.P,Q60,3*
G04 #@! TO.N,Net-(Q60-Pad3)*
X33020000Y-33830000D03*
G04 #@! TD*
G04 #@! TO.P,Q61,3*
G04 #@! TO.N,Net-(Q61-Pad3)*
X30480000Y-38275000D03*
G04 #@! TO.P,Q61,2*
G04 #@! TO.N,/a5*
X31430000Y-41275000D03*
G04 #@! TO.P,Q61,1*
G04 #@! TO.N,GND*
X29530000Y-41275000D03*
G04 #@! TD*
G04 #@! TO.P,Q62,1*
G04 #@! TO.N,GND*
X26990000Y-36830000D03*
G04 #@! TO.P,Q62,2*
G04 #@! TO.N,/a6*
X28890000Y-36830000D03*
G04 #@! TO.P,Q62,3*
G04 #@! TO.N,Net-(Q62-Pad3)*
X27940000Y-33830000D03*
G04 #@! TD*
G04 #@! TO.P,Q63,3*
G04 #@! TO.N,Net-(Q63-Pad3)*
X25400000Y-38275000D03*
G04 #@! TO.P,Q63,2*
G04 #@! TO.N,/a7*
X26350000Y-41275000D03*
G04 #@! TO.P,Q63,1*
G04 #@! TO.N,GND*
X24450000Y-41275000D03*
G04 #@! TD*
G04 #@! TO.P,Q64,1*
G04 #@! TO.N,GND*
X65090000Y-36830000D03*
G04 #@! TO.P,Q64,2*
G04 #@! TO.N,/b0*
X66990000Y-36830000D03*
G04 #@! TO.P,Q64,3*
G04 #@! TO.N,Net-(Q64-Pad3)*
X66040000Y-33830000D03*
G04 #@! TD*
G04 #@! TO.P,Q65,3*
G04 #@! TO.N,Net-(Q65-Pad3)*
X63500000Y-38275000D03*
G04 #@! TO.P,Q65,2*
G04 #@! TO.N,/b1*
X64450000Y-41275000D03*
G04 #@! TO.P,Q65,1*
G04 #@! TO.N,GND*
X62550000Y-41275000D03*
G04 #@! TD*
G04 #@! TO.P,Q66,1*
G04 #@! TO.N,GND*
X60010000Y-36830000D03*
G04 #@! TO.P,Q66,2*
G04 #@! TO.N,/b2*
X61910000Y-36830000D03*
G04 #@! TO.P,Q66,3*
G04 #@! TO.N,Net-(Q66-Pad3)*
X60960000Y-33830000D03*
G04 #@! TD*
G04 #@! TO.P,Q67,3*
G04 #@! TO.N,Net-(Q67-Pad3)*
X58420000Y-38275000D03*
G04 #@! TO.P,Q67,2*
G04 #@! TO.N,/b3*
X59370000Y-41275000D03*
G04 #@! TO.P,Q67,1*
G04 #@! TO.N,GND*
X57470000Y-41275000D03*
G04 #@! TD*
G04 #@! TO.P,Q68,1*
G04 #@! TO.N,GND*
X54930000Y-36830000D03*
G04 #@! TO.P,Q68,2*
G04 #@! TO.N,/b4*
X56830000Y-36830000D03*
G04 #@! TO.P,Q68,3*
G04 #@! TO.N,Net-(Q68-Pad3)*
X55880000Y-33830000D03*
G04 #@! TD*
G04 #@! TO.P,Q69,3*
G04 #@! TO.N,Net-(Q69-Pad3)*
X53340000Y-38275000D03*
G04 #@! TO.P,Q69,2*
G04 #@! TO.N,/b5*
X54290000Y-41275000D03*
G04 #@! TO.P,Q69,1*
G04 #@! TO.N,GND*
X52390000Y-41275000D03*
G04 #@! TD*
G04 #@! TO.P,Q70,1*
G04 #@! TO.N,GND*
X49850000Y-36830000D03*
G04 #@! TO.P,Q70,2*
G04 #@! TO.N,/b6*
X51750000Y-36830000D03*
G04 #@! TO.P,Q70,3*
G04 #@! TO.N,Net-(Q70-Pad3)*
X50800000Y-33830000D03*
G04 #@! TD*
G04 #@! TO.P,Q71,3*
G04 #@! TO.N,Net-(Q71-Pad3)*
X48260000Y-38275000D03*
G04 #@! TO.P,Q71,2*
G04 #@! TO.N,/b7*
X49210000Y-41275000D03*
G04 #@! TO.P,Q71,1*
G04 #@! TO.N,GND*
X47310000Y-41275000D03*
G04 #@! TD*
G04 #@! TO.P,Q72,1*
G04 #@! TO.N,GND*
X87950000Y-36830000D03*
G04 #@! TO.P,Q72,2*
G04 #@! TO.N,/c0*
X89850000Y-36830000D03*
G04 #@! TO.P,Q72,3*
G04 #@! TO.N,Net-(Q72-Pad3)*
X88900000Y-33830000D03*
G04 #@! TD*
G04 #@! TO.P,Q73,3*
G04 #@! TO.N,Net-(Q73-Pad3)*
X86360000Y-38275000D03*
G04 #@! TO.P,Q73,2*
G04 #@! TO.N,/c1*
X87310000Y-41275000D03*
G04 #@! TO.P,Q73,1*
G04 #@! TO.N,GND*
X85410000Y-41275000D03*
G04 #@! TD*
G04 #@! TO.P,Q74,1*
G04 #@! TO.N,GND*
X82870000Y-36830000D03*
G04 #@! TO.P,Q74,2*
G04 #@! TO.N,/c2*
X84770000Y-36830000D03*
G04 #@! TO.P,Q74,3*
G04 #@! TO.N,Net-(Q74-Pad3)*
X83820000Y-33830000D03*
G04 #@! TD*
G04 #@! TO.P,Q75,3*
G04 #@! TO.N,Net-(Q75-Pad3)*
X81280000Y-38275000D03*
G04 #@! TO.P,Q75,2*
G04 #@! TO.N,/c3*
X82230000Y-41275000D03*
G04 #@! TO.P,Q75,1*
G04 #@! TO.N,GND*
X80330000Y-41275000D03*
G04 #@! TD*
G04 #@! TO.P,Q76,1*
G04 #@! TO.N,GND*
X77790000Y-36830000D03*
G04 #@! TO.P,Q76,2*
G04 #@! TO.N,/c4*
X79690000Y-36830000D03*
G04 #@! TO.P,Q76,3*
G04 #@! TO.N,Net-(Q76-Pad3)*
X78740000Y-33830000D03*
G04 #@! TD*
G04 #@! TO.P,Q77,3*
G04 #@! TO.N,Net-(Q77-Pad3)*
X76200000Y-38275000D03*
G04 #@! TO.P,Q77,2*
G04 #@! TO.N,/c5*
X77150000Y-41275000D03*
G04 #@! TO.P,Q77,1*
G04 #@! TO.N,GND*
X75250000Y-41275000D03*
G04 #@! TD*
G04 #@! TO.P,Q78,1*
G04 #@! TO.N,GND*
X72710000Y-36830000D03*
G04 #@! TO.P,Q78,2*
G04 #@! TO.N,/c6*
X74610000Y-36830000D03*
G04 #@! TO.P,Q78,3*
G04 #@! TO.N,Net-(Q78-Pad3)*
X73660000Y-33830000D03*
G04 #@! TD*
G04 #@! TO.P,Q79,3*
G04 #@! TO.N,Net-(Q79-Pad3)*
X71120000Y-38275000D03*
G04 #@! TO.P,Q79,2*
G04 #@! TO.N,/c7*
X72070000Y-41275000D03*
G04 #@! TO.P,Q79,1*
G04 #@! TO.N,GND*
X70170000Y-41275000D03*
G04 #@! TD*
G04 #@! TO.P,Q80,1*
G04 #@! TO.N,GND*
X110810000Y-36830000D03*
G04 #@! TO.P,Q80,2*
G04 #@! TO.N,/d0*
X112710000Y-36830000D03*
G04 #@! TO.P,Q80,3*
G04 #@! TO.N,Net-(Q80-Pad3)*
X111760000Y-33830000D03*
G04 #@! TD*
G04 #@! TO.P,Q81,3*
G04 #@! TO.N,Net-(Q81-Pad3)*
X109220000Y-38275000D03*
G04 #@! TO.P,Q81,2*
G04 #@! TO.N,/d1*
X110170000Y-41275000D03*
G04 #@! TO.P,Q81,1*
G04 #@! TO.N,GND*
X108270000Y-41275000D03*
G04 #@! TD*
G04 #@! TO.P,Q82,1*
G04 #@! TO.N,GND*
X105730000Y-36830000D03*
G04 #@! TO.P,Q82,2*
G04 #@! TO.N,/d2*
X107630000Y-36830000D03*
G04 #@! TO.P,Q82,3*
G04 #@! TO.N,Net-(Q82-Pad3)*
X106680000Y-33830000D03*
G04 #@! TD*
G04 #@! TO.P,Q83,3*
G04 #@! TO.N,Net-(Q83-Pad3)*
X104140000Y-38275000D03*
G04 #@! TO.P,Q83,2*
G04 #@! TO.N,/d3*
X105090000Y-41275000D03*
G04 #@! TO.P,Q83,1*
G04 #@! TO.N,GND*
X103190000Y-41275000D03*
G04 #@! TD*
D19*
G04 #@! TO.P,JP1,1*
G04 #@! TO.N,/LED_PWR*
X144780000Y-25400000D03*
D20*
G04 #@! TO.P,JP1,2*
G04 #@! TO.N,VCC*
X147320000Y-25400000D03*
G04 #@! TD*
D21*
G04 #@! TO.P,JP2,2*
G04 #@! TO.N,VCC*
X146775000Y-22860000D03*
D22*
G04 #@! TD*
G04 #@! TO.N,VCC*
G04 #@! TO.C,JP2*
G36*
X147275000Y-23610000D02*
X146125000Y-23610000D01*
X146625000Y-22860000D01*
X146125000Y-22110000D01*
X147275000Y-22110000D01*
X147275000Y-23610000D01*
X147275000Y-23610000D01*
G37*
D21*
G04 #@! TO.P,JP2,1*
G04 #@! TO.N,/LED_PWR*
X145325000Y-22860000D03*
D22*
G04 #@! TD*
G04 #@! TO.N,/LED_PWR*
G04 #@! TO.C,JP2*
G36*
X146325000Y-22860000D02*
X145825000Y-23610000D01*
X144825000Y-23610000D01*
X144825000Y-22110000D01*
X145825000Y-22110000D01*
X146325000Y-22860000D01*
X146325000Y-22860000D01*
G37*
D13*
G04 #@! TO.P,Q88,1*
G04 #@! TO.N,GND*
X24450000Y-48490000D03*
G04 #@! TO.P,Q88,2*
G04 #@! TO.N,/sa*
X26350000Y-48490000D03*
G04 #@! TO.P,Q88,3*
G04 #@! TO.N,Net-(Q88-Pad3)*
X25400000Y-45490000D03*
G04 #@! TD*
D23*
G04 #@! TO.P,REF\002A\002A,1*
G04 #@! TO.N,N/C*
X146050000Y-19050000D03*
G04 #@! TD*
G04 #@! TO.P,REF\002A\002A,1*
G04 #@! TO.N,N/C*
X21590000Y-19050000D03*
G04 #@! TD*
G04 #@! TO.P,REF\002A\002A,1*
G04 #@! TO.N,N/C*
X146050000Y-77470000D03*
G04 #@! TD*
G04 #@! TO.P,REF\002A\002A,1*
G04 #@! TO.N,N/C*
X21590000Y-77470000D03*
G04 #@! TD*
D24*
G04 #@! TO.N,Net-(D33-Pad1)*
X44450000Y-22860000D03*
X43815000Y-44450000D03*
G04 #@! TO.N,Net-(D34-Pad1)*
X68580000Y-22860000D03*
X68580000Y-43180000D03*
G04 #@! TO.N,Net-(D35-Pad1)*
X119380000Y-26035000D03*
X113665000Y-22225000D03*
G04 #@! TO.N,Net-(D36-Pad1)*
X116840000Y-26035000D03*
X114300000Y-22860000D03*
G04 #@! TO.N,/a6*
X27940000Y-36830000D03*
G04 #@! TO.N,/a5*
X30480000Y-41275000D03*
G04 #@! TO.N,/a4*
X33020000Y-36830000D03*
G04 #@! TO.N,/a3*
X35560000Y-41275000D03*
G04 #@! TO.N,/a2*
X38100000Y-36830000D03*
G04 #@! TO.N,/a1*
X40640000Y-41275000D03*
G04 #@! TO.N,/a0*
X43180000Y-36830000D03*
G04 #@! TO.N,/b6*
X50800000Y-36830000D03*
G04 #@! TO.N,/b5*
X53340000Y-41275000D03*
G04 #@! TO.N,/b4*
X55880000Y-36830000D03*
G04 #@! TO.N,/b3*
X58420000Y-41275000D03*
G04 #@! TO.N,/b2*
X60960000Y-36830000D03*
G04 #@! TO.N,/b1*
X63500000Y-41275000D03*
G04 #@! TO.N,/b0*
X66040000Y-36830000D03*
G04 #@! TO.N,/c6*
X73660000Y-36830000D03*
G04 #@! TO.N,/c5*
X76200000Y-41275000D03*
G04 #@! TO.N,/c4*
X78740000Y-36830000D03*
G04 #@! TO.N,/c3*
X81280000Y-41275000D03*
G04 #@! TO.N,/c2*
X83820000Y-36830000D03*
G04 #@! TO.N,/c1*
X86360000Y-41275000D03*
G04 #@! TO.N,/c0*
X88900000Y-36830000D03*
G04 #@! TO.N,/d6*
X96520000Y-36830000D03*
G04 #@! TO.N,/d5*
X99060000Y-41275000D03*
G04 #@! TO.N,/d4*
X101600000Y-36830000D03*
G04 #@! TO.N,/d3*
X104140000Y-41275000D03*
G04 #@! TO.N,/d2*
X106680000Y-36830000D03*
G04 #@! TO.N,/d1*
X109220000Y-41275000D03*
G04 #@! TO.N,/d0*
X111760000Y-36830000D03*
G04 #@! TO.N,/s1*
X114935000Y-24130000D03*
X114935000Y-45085000D03*
G04 #@! TO.N,/s0*
X114935000Y-48260000D03*
X114935000Y-50165000D03*
X121285000Y-50165000D03*
X121285000Y-24130000D03*
G04 #@! TO.N,/o6*
X127000000Y-36830000D03*
X123825000Y-53975000D03*
G04 #@! TO.N,/o5*
X129540000Y-41275000D03*
X124460000Y-54610000D03*
G04 #@! TO.N,/o4*
X132080000Y-36830000D03*
X123825000Y-55245000D03*
G04 #@! TO.N,/o3*
X134620000Y-41275000D03*
X124460000Y-55880000D03*
G04 #@! TO.N,/o2*
X137160000Y-36830000D03*
X123825000Y-56515000D03*
G04 #@! TO.N,/o1*
X139700000Y-41275000D03*
X124460000Y-57150000D03*
G04 #@! TO.N,/o0*
X142240000Y-36830000D03*
X123825000Y-57785000D03*
G04 #@! TO.N,GND*
X102870000Y-39751000D03*
X73025000Y-44450000D03*
X72707500Y-39751000D03*
X62865000Y-63500000D03*
X62865000Y-60325000D03*
X44450000Y-61595000D03*
X85725000Y-63500000D03*
X85725000Y-61595000D03*
X81915000Y-61595000D03*
X81915000Y-63500000D03*
G04 #@! TO.N,/sc*
X120332500Y-45085000D03*
X77470000Y-60960000D03*
X77470000Y-50165000D03*
X120015000Y-51435000D03*
G04 #@! TO.N,/sd*
X117792500Y-38481000D03*
X117475000Y-49530000D03*
X95250000Y-52705000D03*
X107950000Y-52705000D03*
G04 #@! TO.N,Net-(Q12-Pad3)*
X106680000Y-50800000D03*
X106680000Y-46990000D03*
G04 #@! TO.N,Net-(Q12-Pad1)*
X99695000Y-49530000D03*
X99695000Y-44450000D03*
G04 #@! TO.N,Net-(Q21-Pad3)*
X67310000Y-72390000D03*
X87630000Y-72009999D03*
X102870000Y-72145001D03*
X102870000Y-60960000D03*
G04 #@! TO.N,/a7*
X25400000Y-41275000D03*
G04 #@! TO.N,Net-(Q51-Pad3)*
X94615000Y-73660000D03*
X94615000Y-75565000D03*
X52111823Y-76200000D03*
X34925000Y-73660000D03*
X74930000Y-75565000D03*
G04 #@! TO.N,/b7*
X48260000Y-41275000D03*
G04 #@! TO.N,/c7*
X71120000Y-41275000D03*
G04 #@! TO.N,/d7*
X93980000Y-41275000D03*
G04 #@! TO.N,/o7*
X124460000Y-41275000D03*
G04 #@! TO.N,Net-(Q16-Pad3)*
X90170000Y-64389999D03*
G04 #@! TO.N,Net-(Q26-Pad3)*
X87630000Y-66040000D03*
X104775000Y-66040000D03*
X104775000Y-62865000D03*
G04 #@! TO.N,Net-(Q31-Pad3)*
X80010000Y-73660000D03*
G04 #@! TO.N,Net-(Q46-Pad3)*
X74930000Y-67945000D03*
X45720000Y-60960000D03*
X94947602Y-67856631D03*
X94869999Y-66040000D03*
X52070000Y-68580000D03*
G04 #@! TO.N,Net-(Q5-Pad2)*
X59690000Y-47625000D03*
X59690000Y-48895000D03*
G04 #@! TD*
D25*
G04 #@! TO.N,VCC*
X147320000Y-23405000D02*
X146775000Y-22860000D01*
X147320000Y-25400000D02*
X147320000Y-23405000D01*
X147320000Y-27940000D02*
X147320000Y-25400000D01*
X144780000Y-27940000D02*
X147320000Y-27940000D01*
X91684999Y-62474999D02*
X92710000Y-63500000D01*
X84845001Y-62474999D02*
X91684999Y-62474999D01*
X83820000Y-63500000D02*
X84845001Y-62474999D01*
X41276410Y-63500000D02*
X38100000Y-63500000D01*
X42301411Y-62474999D02*
X41276410Y-63500000D01*
X45964999Y-62474999D02*
X42301411Y-62474999D01*
X46990000Y-63500000D02*
X45964999Y-62474999D01*
X70875001Y-62474999D02*
X69850000Y-63500000D01*
X82794999Y-62474999D02*
X70875001Y-62474999D01*
X83820000Y-63500000D02*
X82794999Y-62474999D01*
X61985001Y-62474999D02*
X60960000Y-63500000D01*
X68824999Y-62474999D02*
X61985001Y-62474999D01*
X69850000Y-63500000D02*
X68824999Y-62474999D01*
X114544999Y-62474999D02*
X115570000Y-63500000D01*
X107705001Y-62474999D02*
X114544999Y-62474999D01*
X106680000Y-63500000D02*
X107705001Y-62474999D01*
X88900000Y-44450000D02*
X93980000Y-44450000D01*
X66040000Y-44450000D02*
X71120000Y-44450000D01*
X64133590Y-44450000D02*
X66040000Y-44450000D01*
X63108589Y-45475001D02*
X64133590Y-44450000D01*
X49285001Y-45475001D02*
X63108589Y-45475001D01*
X48260000Y-44450000D02*
X49285001Y-45475001D01*
X40455009Y-43364991D02*
X39370000Y-44450000D01*
X47174991Y-43364991D02*
X40455009Y-43364991D01*
X48260000Y-44450000D02*
X47174991Y-43364991D01*
X93774989Y-62435011D02*
X92710000Y-63500000D01*
X102520013Y-62435011D02*
X93774989Y-62435011D01*
X103585002Y-63500000D02*
X102520013Y-62435011D01*
X106680000Y-63500000D02*
X103585002Y-63500000D01*
X116595001Y-64525001D02*
X115570000Y-63500000D01*
X116595001Y-70094999D02*
X116595001Y-64525001D01*
X115570000Y-71120000D02*
X116595001Y-70094999D01*
X116595001Y-72145001D02*
X115570000Y-71120000D01*
X116595001Y-77714999D02*
X116595001Y-72145001D01*
X115570000Y-78740000D02*
X116595001Y-77714999D01*
X68824999Y-77714999D02*
X69850000Y-78740000D01*
X48015001Y-77714999D02*
X68824999Y-77714999D01*
X46990000Y-78740000D02*
X48015001Y-77714999D01*
X144780000Y-27940000D02*
X146050000Y-29210000D01*
X116595001Y-62474999D02*
X115570000Y-63500000D01*
X146050000Y-29210000D02*
X146050000Y-57785000D01*
X145415000Y-58420000D02*
X116840000Y-58420000D01*
X116840000Y-58420000D02*
X116595001Y-58664999D01*
X146050000Y-57785000D02*
X145415000Y-58420000D01*
X116595001Y-58664999D02*
X116595001Y-62474999D01*
G04 #@! TO.N,Net-(D1-Pad1)*
X43180000Y-27160000D02*
X43180000Y-29512500D01*
G04 #@! TO.N,Net-(D2-Pad1)*
X40640000Y-27160000D02*
X40640000Y-29512500D01*
G04 #@! TO.N,Net-(D3-Pad1)*
X38100000Y-27160000D02*
X38100000Y-29512500D01*
G04 #@! TO.N,Net-(D4-Pad1)*
X35560000Y-27160000D02*
X35560000Y-29512500D01*
G04 #@! TO.N,Net-(D5-Pad1)*
X33020000Y-27160000D02*
X33020000Y-29512500D01*
G04 #@! TO.N,Net-(D6-Pad1)*
X30480000Y-27160000D02*
X30480000Y-29512500D01*
G04 #@! TO.N,Net-(D7-Pad1)*
X27940000Y-27160000D02*
X27940000Y-29512500D01*
G04 #@! TO.N,Net-(D8-Pad1)*
X25400000Y-27160000D02*
X25400000Y-29512500D01*
G04 #@! TO.N,Net-(D9-Pad1)*
X66040000Y-27160000D02*
X66040000Y-29512500D01*
G04 #@! TO.N,Net-(D10-Pad1)*
X63500000Y-27160000D02*
X63500000Y-29512500D01*
G04 #@! TO.N,Net-(D11-Pad1)*
X60960000Y-27160000D02*
X60960000Y-29512500D01*
G04 #@! TO.N,Net-(D12-Pad1)*
X58420000Y-27160000D02*
X58420000Y-29512500D01*
G04 #@! TO.N,Net-(D13-Pad1)*
X55880000Y-27160000D02*
X55880000Y-29512500D01*
G04 #@! TO.N,Net-(D14-Pad1)*
X53340000Y-27160000D02*
X53340000Y-29512500D01*
G04 #@! TO.N,Net-(D15-Pad1)*
X50800000Y-27160000D02*
X50800000Y-29512500D01*
G04 #@! TO.N,Net-(D16-Pad1)*
X48260000Y-27160000D02*
X48260000Y-29512500D01*
G04 #@! TO.N,Net-(D17-Pad1)*
X88900000Y-27160000D02*
X88900000Y-29512500D01*
G04 #@! TO.N,Net-(D18-Pad1)*
X86360000Y-27160000D02*
X86360000Y-29512500D01*
G04 #@! TO.N,Net-(D19-Pad1)*
X83820000Y-27160000D02*
X83820000Y-29512500D01*
G04 #@! TO.N,Net-(D20-Pad1)*
X81280000Y-27160000D02*
X81280000Y-29512500D01*
G04 #@! TO.N,Net-(D21-Pad1)*
X78740000Y-27160000D02*
X78740000Y-29512500D01*
G04 #@! TO.N,Net-(D22-Pad1)*
X76200000Y-27160000D02*
X76200000Y-29512500D01*
G04 #@! TO.N,Net-(D23-Pad1)*
X73660000Y-27160000D02*
X73660000Y-29512500D01*
G04 #@! TO.N,Net-(D24-Pad1)*
X71120000Y-27160000D02*
X71120000Y-29512500D01*
G04 #@! TO.N,Net-(D25-Pad1)*
X111760000Y-27160000D02*
X111760000Y-29512500D01*
G04 #@! TO.N,Net-(D26-Pad1)*
X109220000Y-27160000D02*
X109220000Y-29512500D01*
G04 #@! TO.N,Net-(D27-Pad1)*
X106680000Y-27160000D02*
X106680000Y-29512500D01*
G04 #@! TO.N,Net-(D28-Pad1)*
X104140000Y-27160000D02*
X104140000Y-29512500D01*
G04 #@! TO.N,Net-(D29-Pad1)*
X101600000Y-27160000D02*
X101600000Y-29512500D01*
G04 #@! TO.N,Net-(D30-Pad1)*
X99060000Y-27160000D02*
X99060000Y-29512500D01*
G04 #@! TO.N,Net-(D31-Pad1)*
X96520000Y-27160000D02*
X96520000Y-29512500D01*
G04 #@! TO.N,Net-(D32-Pad1)*
X93980000Y-27160000D02*
X93980000Y-29512500D01*
G04 #@! TO.N,Net-(D33-Pad1)*
X44450000Y-22860000D02*
X40250000Y-22860000D01*
X43180000Y-46022500D02*
X43180000Y-45085000D01*
X43180000Y-45085000D02*
X43815000Y-44450000D01*
G04 #@! TO.N,Net-(D34-Pad1)*
X68580000Y-22860000D02*
X63110000Y-22860000D01*
X116205000Y-43180000D02*
X68580000Y-43180000D01*
X116205000Y-43180000D02*
X116840000Y-43815000D01*
X116840000Y-46022500D02*
X116840000Y-43815000D01*
G04 #@! TO.N,Net-(D35-Pad1)*
X119380000Y-28242500D02*
X119380000Y-26035000D01*
X113314999Y-21874999D02*
X105760001Y-21874999D01*
X113665000Y-22225000D02*
X113314999Y-21874999D01*
X105760001Y-21874999D02*
X104775000Y-22860000D01*
X104775000Y-22860000D02*
X85970000Y-22860000D01*
G04 #@! TO.N,Net-(D36-Pad1)*
X116840000Y-28242500D02*
X116840000Y-26035000D01*
X114300000Y-22860000D02*
X108830000Y-22860000D01*
G04 #@! TO.N,Net-(D37-Pad1)*
X142240000Y-27160000D02*
X142240000Y-29512500D01*
G04 #@! TO.N,Net-(D38-Pad1)*
X139700000Y-27160000D02*
X139700000Y-29512500D01*
G04 #@! TO.N,Net-(D39-Pad1)*
X137160000Y-27160000D02*
X137160000Y-29512500D01*
G04 #@! TO.N,Net-(D40-Pad1)*
X134620000Y-27160000D02*
X134620000Y-29512500D01*
G04 #@! TO.N,Net-(D41-Pad1)*
X132080000Y-27160000D02*
X132080000Y-29512500D01*
G04 #@! TO.N,Net-(D42-Pad1)*
X129540000Y-27160000D02*
X129540000Y-29512500D01*
G04 #@! TO.N,Net-(D43-Pad1)*
X127000000Y-27160000D02*
X127000000Y-29512500D01*
G04 #@! TO.N,Net-(D44-Pad1)*
X124460000Y-27160000D02*
X124460000Y-29512500D01*
G04 #@! TO.N,/a6*
X27940000Y-17780000D02*
X27940000Y-20320000D01*
X28890000Y-36830000D02*
X27940000Y-36830000D01*
G04 #@! TO.N,/a5*
X30480000Y-17780000D02*
X30480000Y-20320000D01*
X30480000Y-41275000D02*
X31430000Y-41275000D01*
G04 #@! TO.N,/a4*
X33020000Y-17780000D02*
X33020000Y-20320000D01*
X33970000Y-36830000D02*
X33020000Y-36830000D01*
G04 #@! TO.N,/a3*
X35560000Y-17780000D02*
X35560000Y-20320000D01*
X36510000Y-41275000D02*
X35560000Y-41275000D01*
G04 #@! TO.N,/a2*
X38100000Y-17780000D02*
X38100000Y-20320000D01*
X38100000Y-36830000D02*
X39050000Y-36830000D01*
G04 #@! TO.N,/a1*
X40640000Y-17780000D02*
X40640000Y-20320000D01*
X41590000Y-41275000D02*
X40640000Y-41275000D01*
G04 #@! TO.N,/a0*
X43180000Y-17780000D02*
X43180000Y-20320000D01*
X44130000Y-36830000D02*
X43180000Y-36830000D01*
G04 #@! TO.N,/b6*
X50800000Y-17780000D02*
X50800000Y-20320000D01*
X51750000Y-36830000D02*
X50800000Y-36830000D01*
G04 #@! TO.N,/b5*
X53340000Y-17780000D02*
X53340000Y-20320000D01*
X53340000Y-41275000D02*
X54290000Y-41275000D01*
G04 #@! TO.N,/b4*
X55880000Y-17780000D02*
X55880000Y-20320000D01*
X56830000Y-36830000D02*
X55880000Y-36830000D01*
G04 #@! TO.N,/b3*
X58420000Y-17780000D02*
X58420000Y-20320000D01*
X59370000Y-41275000D02*
X58420000Y-41275000D01*
G04 #@! TO.N,/b2*
X60960000Y-17780000D02*
X60960000Y-20320000D01*
X60960000Y-36830000D02*
X61910000Y-36830000D01*
G04 #@! TO.N,/b1*
X63500000Y-17780000D02*
X63500000Y-20320000D01*
X64450000Y-41275000D02*
X63500000Y-41275000D01*
G04 #@! TO.N,/b0*
X66040000Y-17780000D02*
X66040000Y-20320000D01*
X66990000Y-36830000D02*
X66040000Y-36830000D01*
G04 #@! TO.N,/c6*
X74610000Y-36830000D02*
X73660000Y-36830000D01*
X73660000Y-17780000D02*
X73660000Y-20320000D01*
G04 #@! TO.N,/c5*
X76200000Y-41275000D02*
X77150000Y-41275000D01*
X76200000Y-17780000D02*
X76200000Y-20320000D01*
G04 #@! TO.N,/c4*
X79690000Y-36830000D02*
X78740000Y-36830000D01*
X78740000Y-17780000D02*
X78740000Y-20320000D01*
G04 #@! TO.N,/c3*
X82230000Y-41275000D02*
X81280000Y-41275000D01*
X81280000Y-17780000D02*
X81280000Y-20320000D01*
G04 #@! TO.N,/c2*
X83820000Y-36830000D02*
X84770000Y-36830000D01*
X83820000Y-17780000D02*
X83820000Y-20320000D01*
G04 #@! TO.N,/c1*
X87310000Y-41275000D02*
X86360000Y-41275000D01*
X86360000Y-17780000D02*
X86360000Y-20320000D01*
G04 #@! TO.N,/c0*
X89850000Y-36830000D02*
X88900000Y-36830000D01*
X88900000Y-17780000D02*
X88900000Y-20320000D01*
G04 #@! TO.N,/d6*
X97470000Y-36830000D02*
X96520000Y-36830000D01*
X96520000Y-17780000D02*
X96520000Y-20320000D01*
G04 #@! TO.N,/d5*
X99060000Y-41275000D02*
X100010000Y-41275000D01*
X99060000Y-17780000D02*
X99060000Y-20320000D01*
G04 #@! TO.N,/d4*
X102550000Y-36830000D02*
X101600000Y-36830000D01*
X101600000Y-17780000D02*
X101600000Y-20320000D01*
G04 #@! TO.N,/d3*
X105090000Y-41275000D02*
X104140000Y-41275000D01*
X104140000Y-17780000D02*
X104140000Y-20320000D01*
G04 #@! TO.N,/d2*
X106680000Y-36830000D02*
X107630000Y-36830000D01*
X106680000Y-17780000D02*
X106680000Y-20320000D01*
G04 #@! TO.N,/d1*
X110170000Y-41275000D02*
X109220000Y-41275000D01*
X109220000Y-17780000D02*
X109220000Y-20320000D01*
G04 #@! TO.N,/d0*
X112710000Y-36830000D02*
X111760000Y-36830000D01*
X111760000Y-17780000D02*
X111760000Y-20320000D01*
G04 #@! TO.N,/s1*
X116840000Y-17780000D02*
X116840000Y-20320000D01*
X105065002Y-46990000D02*
X106335002Y-45720000D01*
X102870000Y-46990000D02*
X105065002Y-46990000D01*
X106335002Y-45720000D02*
X114300000Y-45720000D01*
X116840000Y-20320000D02*
X116840000Y-22225000D01*
X116840000Y-22225000D02*
X114935000Y-24130000D01*
X114935000Y-45085000D02*
X114300000Y-45720000D01*
X48648591Y-45964999D02*
X61204999Y-45964999D01*
X45683589Y-48930001D02*
X48648591Y-45964999D01*
X61204999Y-45964999D02*
X62230000Y-46990000D01*
X39334999Y-46990000D02*
X35560000Y-46990000D01*
X41275000Y-48930001D02*
X39334999Y-46990000D01*
X41275000Y-48930001D02*
X45683589Y-48930001D01*
X63744999Y-45475001D02*
X62230000Y-46990000D01*
X83575001Y-45475001D02*
X63744999Y-45475001D01*
X85090000Y-46990000D02*
X83575001Y-45475001D01*
X101844999Y-45964999D02*
X102870000Y-46990000D01*
X86115001Y-45964999D02*
X101844999Y-45964999D01*
X85090000Y-46990000D02*
X86115001Y-45964999D01*
G04 #@! TO.N,/s0*
X119380000Y-17780000D02*
X119380000Y-20320000D01*
X52070000Y-46990000D02*
X53340000Y-48260000D01*
X73660000Y-48260000D02*
X74930000Y-46990000D01*
X53340000Y-48260000D02*
X73660000Y-48260000D01*
X31750000Y-48260000D02*
X30480000Y-46990000D01*
X40887002Y-49530000D02*
X39617002Y-48260000D01*
X39617002Y-48260000D02*
X31750000Y-48260000D01*
X46355000Y-49530000D02*
X40887002Y-49530000D01*
X52070000Y-46990000D02*
X48895000Y-46990000D01*
X48895000Y-46990000D02*
X46355000Y-49530000D01*
X96520000Y-48260000D02*
X97790000Y-46990000D01*
X75955001Y-45964999D02*
X81378587Y-45964999D01*
X83673588Y-48260000D02*
X96520000Y-48260000D01*
X81378587Y-45964999D02*
X83673588Y-48260000D01*
X74930000Y-46990000D02*
X75955001Y-45964999D01*
X114935000Y-50165000D02*
X121285000Y-50165000D01*
X119380000Y-22225000D02*
X121285000Y-24130000D01*
X119380000Y-20320000D02*
X119380000Y-22225000D01*
X99060000Y-48260000D02*
X114935000Y-48260000D01*
X97790000Y-46990000D02*
X99060000Y-48260000D01*
G04 #@! TO.N,/o6*
X127000000Y-17780000D02*
X127000000Y-20320000D01*
X127950000Y-36830000D02*
X127000000Y-36830000D01*
X46990000Y-58420000D02*
X43180000Y-58420000D01*
X46990000Y-58420000D02*
X51435000Y-53975000D01*
X51435000Y-53975000D02*
X123825000Y-53975000D01*
G04 #@! TO.N,/o5*
X129540000Y-17780000D02*
X129540000Y-20320000D01*
X129540000Y-41275000D02*
X130490000Y-41275000D01*
X60960000Y-58420000D02*
X55880000Y-58420000D01*
X60960000Y-58420000D02*
X64770000Y-54610000D01*
X64770000Y-54610000D02*
X124460000Y-54610000D01*
G04 #@! TO.N,/o4*
X132080000Y-17780000D02*
X132080000Y-20320000D01*
X133030000Y-36830000D02*
X132080000Y-36830000D01*
X66040000Y-58420000D02*
X69850000Y-58420000D01*
X69850000Y-58420000D02*
X73025000Y-55245000D01*
X73025000Y-55245000D02*
X123825000Y-55245000D01*
G04 #@! TO.N,/o3*
X134620000Y-17780000D02*
X134620000Y-20320000D01*
X135570000Y-41275000D02*
X134620000Y-41275000D01*
X78740000Y-58420000D02*
X83820000Y-58420000D01*
X83820000Y-58420000D02*
X86360000Y-55880000D01*
X86360000Y-55880000D02*
X124460000Y-55880000D01*
G04 #@! TO.N,/o2*
X137160000Y-17780000D02*
X137160000Y-20320000D01*
X137160000Y-36830000D02*
X138110000Y-36830000D01*
X88900000Y-58420000D02*
X92710000Y-58420000D01*
X92710000Y-58420000D02*
X94615000Y-56515000D01*
X94615000Y-56515000D02*
X123825000Y-56515000D01*
G04 #@! TO.N,/o1*
X139700000Y-17780000D02*
X139700000Y-20320000D01*
X140650000Y-41275000D02*
X139700000Y-41275000D01*
X101600000Y-58420000D02*
X106680000Y-58420000D01*
X107950000Y-57150000D02*
X124460000Y-57150000D01*
X106680000Y-58420000D02*
X107950000Y-57150000D01*
G04 #@! TO.N,/o0*
X142240000Y-17780000D02*
X142240000Y-20320000D01*
X143190000Y-36830000D02*
X142240000Y-36830000D01*
X111760000Y-58420000D02*
X115570000Y-58420000D01*
X116205000Y-57785000D02*
X115570000Y-58420000D01*
X123825000Y-57785000D02*
X116205000Y-57785000D01*
G04 #@! TO.N,GND*
X32070000Y-39748500D02*
X32067500Y-39751000D01*
X37147500Y-39751000D02*
X39687500Y-39751000D01*
X29530000Y-40075000D02*
X29527500Y-40072500D01*
X34610000Y-41275000D02*
X34610000Y-40075000D01*
X42230000Y-36830000D02*
X42230000Y-38030000D01*
X24774000Y-39751000D02*
X26987500Y-39751000D01*
X26987500Y-38032500D02*
X26987500Y-39751000D01*
X34607500Y-39751000D02*
X37147500Y-39751000D01*
X24450000Y-40075000D02*
X24774000Y-39751000D01*
X37150000Y-36830000D02*
X37150000Y-39748500D01*
X29527500Y-39751000D02*
X32067500Y-39751000D01*
X42227500Y-38032500D02*
X42227500Y-39751000D01*
X29527500Y-40072500D02*
X29527500Y-39751000D01*
X29530000Y-41275000D02*
X29530000Y-40075000D01*
X37150000Y-39748500D02*
X37147500Y-39751000D01*
X32070000Y-36830000D02*
X32070000Y-39748500D01*
X26987500Y-39751000D02*
X29527500Y-39751000D01*
X24450000Y-41275000D02*
X24450000Y-40075000D01*
X39687500Y-39751000D02*
X42227500Y-39751000D01*
X32067500Y-39751000D02*
X34607500Y-39751000D01*
X39690000Y-39753500D02*
X39687500Y-39751000D01*
X34610000Y-40075000D02*
X34607500Y-40072500D01*
X26990000Y-38030000D02*
X26987500Y-38032500D01*
X26990000Y-36830000D02*
X26990000Y-38030000D01*
X34607500Y-40072500D02*
X34607500Y-39751000D01*
X39690000Y-41275000D02*
X39690000Y-39753500D01*
X42230000Y-38030000D02*
X42227500Y-38032500D01*
X54930000Y-39748500D02*
X54927500Y-39751000D01*
X60007500Y-39751000D02*
X62547500Y-39751000D01*
X52390000Y-40075000D02*
X52387500Y-40072500D01*
X57470000Y-41275000D02*
X57470000Y-40075000D01*
X65090000Y-36830000D02*
X65090000Y-38030000D01*
X47307500Y-39751000D02*
X49847500Y-39751000D01*
X49847500Y-38032500D02*
X49847500Y-39751000D01*
X57467500Y-39751000D02*
X60007500Y-39751000D01*
X60010000Y-36830000D02*
X60010000Y-39748500D01*
X52387500Y-39751000D02*
X54927500Y-39751000D01*
X65087500Y-38032500D02*
X65087500Y-39751000D01*
X52387500Y-40072500D02*
X52387500Y-39751000D01*
X52390000Y-41275000D02*
X52390000Y-40075000D01*
X60010000Y-39748500D02*
X60007500Y-39751000D01*
X54930000Y-36830000D02*
X54930000Y-39748500D01*
X49847500Y-39751000D02*
X52387500Y-39751000D01*
X62547500Y-39751000D02*
X65087500Y-39751000D01*
X54927500Y-39751000D02*
X57467500Y-39751000D01*
X62550000Y-39753500D02*
X62547500Y-39751000D01*
X57470000Y-40075000D02*
X57467500Y-40072500D01*
X49850000Y-38030000D02*
X49847500Y-38032500D01*
X49850000Y-36830000D02*
X49850000Y-38030000D01*
X57467500Y-40072500D02*
X57467500Y-39751000D01*
X62550000Y-41275000D02*
X62550000Y-39753500D01*
X65090000Y-38030000D02*
X65087500Y-38032500D01*
X77790000Y-39748500D02*
X77787500Y-39751000D01*
X82867500Y-39751000D02*
X85407500Y-39751000D01*
X75250000Y-40075000D02*
X75247500Y-40072500D01*
X80330000Y-41275000D02*
X80330000Y-40075000D01*
X87950000Y-36830000D02*
X87950000Y-38030000D01*
X70167500Y-39751000D02*
X72707500Y-39751000D01*
X72707500Y-38032500D02*
X72707500Y-39751000D01*
X80327500Y-39751000D02*
X82867500Y-39751000D01*
X82870000Y-36830000D02*
X82870000Y-39748500D01*
X75247500Y-39751000D02*
X77787500Y-39751000D01*
X87947500Y-38032500D02*
X87947500Y-39751000D01*
X75247500Y-40072500D02*
X75247500Y-39751000D01*
X75250000Y-41275000D02*
X75250000Y-40075000D01*
X82870000Y-39748500D02*
X82867500Y-39751000D01*
X77790000Y-36830000D02*
X77790000Y-39748500D01*
X72707500Y-39751000D02*
X75247500Y-39751000D01*
X85407500Y-39751000D02*
X87947500Y-39751000D01*
X77787500Y-39751000D02*
X80327500Y-39751000D01*
X85410000Y-39753500D02*
X85407500Y-39751000D01*
X80330000Y-40075000D02*
X80327500Y-40072500D01*
X72710000Y-38030000D02*
X72707500Y-38032500D01*
X72710000Y-36830000D02*
X72710000Y-38030000D01*
X80327500Y-40072500D02*
X80327500Y-39751000D01*
X85410000Y-41275000D02*
X85410000Y-39753500D01*
X87950000Y-38030000D02*
X87947500Y-38032500D01*
X100650000Y-39748500D02*
X100647500Y-39751000D01*
X105727500Y-39751000D02*
X108267500Y-39751000D01*
X98110000Y-40075000D02*
X98107500Y-40072500D01*
X103190000Y-41275000D02*
X103190000Y-40075000D01*
X110810000Y-36830000D02*
X110810000Y-38030000D01*
X93027500Y-39751000D02*
X95567500Y-39751000D01*
X95567500Y-38032500D02*
X95567500Y-39751000D01*
X103187500Y-39751000D02*
X105727500Y-39751000D01*
X105730000Y-36830000D02*
X105730000Y-39748500D01*
X98107500Y-39751000D02*
X100647500Y-39751000D01*
X110807500Y-38032500D02*
X110807500Y-39751000D01*
X98107500Y-40072500D02*
X98107500Y-39751000D01*
X98110000Y-41275000D02*
X98110000Y-40075000D01*
X105730000Y-39748500D02*
X105727500Y-39751000D01*
X100650000Y-36830000D02*
X100650000Y-39748500D01*
X95567500Y-39751000D02*
X98107500Y-39751000D01*
X108267500Y-39751000D02*
X110807500Y-39751000D01*
X108270000Y-39753500D02*
X108267500Y-39751000D01*
X103190000Y-40075000D02*
X103187500Y-40072500D01*
X95570000Y-38030000D02*
X95567500Y-38032500D01*
X95570000Y-36830000D02*
X95570000Y-38030000D01*
X103187500Y-40072500D02*
X103187500Y-39751000D01*
X108270000Y-41275000D02*
X108270000Y-39753500D01*
X110810000Y-38030000D02*
X110807500Y-38032500D01*
X123507500Y-39751000D02*
X126047500Y-39751000D01*
X126047500Y-38032500D02*
X126047500Y-39751000D01*
X126050000Y-38030000D02*
X126047500Y-38032500D01*
X126050000Y-36830000D02*
X126050000Y-38030000D01*
X131130000Y-39748500D02*
X131127500Y-39751000D01*
X131130000Y-36830000D02*
X131130000Y-39748500D01*
X128587500Y-40072500D02*
X128587500Y-39751000D01*
X128590000Y-41275000D02*
X128590000Y-40075000D01*
X128590000Y-40075000D02*
X128587500Y-40072500D01*
X126047500Y-39751000D02*
X128587500Y-39751000D01*
X128587500Y-39751000D02*
X131127500Y-39751000D01*
X133667500Y-40072500D02*
X133667500Y-39751000D01*
X133670000Y-40075000D02*
X133667500Y-40072500D01*
X131127500Y-39751000D02*
X133667500Y-39751000D01*
X133670000Y-41275000D02*
X133670000Y-40075000D01*
X136210000Y-36830000D02*
X136210000Y-39748500D01*
X136210000Y-39748500D02*
X136207500Y-39751000D01*
X133667500Y-39751000D02*
X136207500Y-39751000D01*
X138750000Y-39753500D02*
X138747500Y-39751000D01*
X136207500Y-39751000D02*
X138747500Y-39751000D01*
X138750000Y-41275000D02*
X138750000Y-39753500D01*
X141287500Y-38032500D02*
X141287500Y-39751000D01*
X141290000Y-38030000D02*
X141287500Y-38032500D01*
X141290000Y-36830000D02*
X141290000Y-38030000D01*
X138747500Y-39751000D02*
X141287500Y-39751000D01*
X141287500Y-39751000D02*
X144399000Y-39751000D01*
X144780000Y-39370000D02*
X144780000Y-30480000D01*
X144399000Y-39751000D02*
X144780000Y-39370000D01*
X47310000Y-39753500D02*
X47307500Y-39751000D01*
X47310000Y-41275000D02*
X47310000Y-39753500D01*
X42227500Y-39751000D02*
X47307500Y-39751000D01*
X70170000Y-39753500D02*
X70167500Y-39751000D01*
X70170000Y-41275000D02*
X70170000Y-39753500D01*
X65087500Y-39751000D02*
X70167500Y-39751000D01*
X93030000Y-39753500D02*
X93027500Y-39751000D01*
X93030000Y-41275000D02*
X93030000Y-39753500D01*
X93027500Y-39751000D02*
X87947500Y-39751000D01*
X123510000Y-39753500D02*
X123507500Y-39751000D01*
X123510000Y-41275000D02*
X123510000Y-39753500D01*
X115887500Y-38032500D02*
X115887500Y-39751000D01*
X115890000Y-36830000D02*
X115890000Y-38030000D01*
X115890000Y-38030000D02*
X115887500Y-38032500D01*
X115887500Y-39751000D02*
X110807500Y-39751000D01*
X118430000Y-40075000D02*
X118427500Y-40072500D01*
X118427500Y-40072500D02*
X118427500Y-39751000D01*
X118430000Y-41275000D02*
X118430000Y-40075000D01*
X123507500Y-39751000D02*
X118427500Y-39751000D01*
X118427500Y-39751000D02*
X115887500Y-39751000D01*
X121605000Y-47060000D02*
X121929000Y-46736000D01*
X121605000Y-48260000D02*
X121605000Y-47060000D01*
X123510000Y-46416000D02*
X123190000Y-46736000D01*
X121929000Y-46736000D02*
X123190000Y-46736000D01*
X123510000Y-41275000D02*
X123510000Y-46416000D01*
X24450000Y-48490000D02*
X24450000Y-41275000D01*
X80010000Y-44450000D02*
X74930000Y-44450000D01*
X107950000Y-44450000D02*
X102870000Y-44450000D01*
X52390000Y-44130000D02*
X52070000Y-44450000D01*
X52390000Y-41275000D02*
X52390000Y-44130000D01*
X57470000Y-44130000D02*
X57150000Y-44450000D01*
X57470000Y-41275000D02*
X57470000Y-44130000D01*
X62550000Y-44130000D02*
X62230000Y-44450000D01*
X62550000Y-41275000D02*
X62550000Y-44130000D01*
X85090000Y-44450000D02*
X80010000Y-44450000D01*
X102870000Y-39751000D02*
X103187500Y-39751000D01*
X100647500Y-39751000D02*
X102870000Y-39751000D01*
X74930000Y-44450000D02*
X73025000Y-44450000D01*
X90205003Y-63500000D02*
X88900000Y-63500000D01*
X91230004Y-64525001D02*
X90205003Y-63500000D01*
X94544999Y-64525001D02*
X91230004Y-64525001D01*
X95570000Y-63500000D02*
X94544999Y-64525001D01*
X96520000Y-63500000D02*
X95570000Y-63500000D01*
X73660000Y-63500000D02*
X78740000Y-63500000D01*
X55880000Y-63500000D02*
X50800000Y-63500000D01*
X66990000Y-63500000D02*
X66040000Y-63500000D01*
X68015001Y-64525001D02*
X66990000Y-63500000D01*
X70342001Y-64525001D02*
X68015001Y-64525001D01*
X71367002Y-63500000D02*
X70342001Y-64525001D01*
X73660000Y-63500000D02*
X71367002Y-63500000D01*
X66040000Y-63500000D02*
X62865000Y-63500000D01*
X62865000Y-60325000D02*
X60960000Y-60325000D01*
X57785000Y-63500000D02*
X55880000Y-63500000D01*
X60960000Y-60325000D02*
X57785000Y-63500000D01*
X47234999Y-59934999D02*
X50800000Y-63500000D01*
X27940000Y-63500000D02*
X33020000Y-63500000D01*
X37535001Y-59934999D02*
X47234999Y-59934999D01*
X33970000Y-63500000D02*
X37535001Y-59934999D01*
X33020000Y-63500000D02*
X33970000Y-63500000D01*
X48895000Y-63500000D02*
X46990000Y-61595000D01*
X50800000Y-63500000D02*
X48895000Y-63500000D01*
X44450000Y-61595000D02*
X46990000Y-61595000D01*
X101600000Y-63500000D02*
X96520000Y-63500000D01*
X110810000Y-63500000D02*
X111760000Y-63500000D01*
X109784999Y-64525001D02*
X110810000Y-63500000D01*
X102550000Y-63500000D02*
X103575001Y-64525001D01*
X103575001Y-64525001D02*
X109784999Y-64525001D01*
X101600000Y-63500000D02*
X102550000Y-63500000D01*
X88900000Y-63500000D02*
X85725000Y-63500000D01*
X85725000Y-61595000D02*
X81915000Y-61595000D01*
X81915000Y-63500000D02*
X78740000Y-63500000D01*
X34610000Y-43500000D02*
X35560000Y-44450000D01*
X34610000Y-41275000D02*
X34610000Y-43500000D01*
X29530000Y-43500000D02*
X30480000Y-44450000D01*
X29530000Y-41275000D02*
X29530000Y-43500000D01*
X27940000Y-63500000D02*
X26035000Y-63500000D01*
X24450000Y-61915000D02*
X24450000Y-48490000D01*
X26035000Y-63500000D02*
X24450000Y-61915000D01*
G04 #@! TO.N,/sa*
X30480000Y-49530000D02*
X35560000Y-49530000D01*
X35560000Y-49530000D02*
X39370000Y-49530000D01*
X29440000Y-48490000D02*
X30480000Y-49530000D01*
X26350000Y-48490000D02*
X29440000Y-48490000D01*
X30480000Y-58420000D02*
X30480000Y-49530000D01*
X27940000Y-60960000D02*
X30480000Y-58420000D01*
G04 #@! TO.N,/sb*
X48260000Y-49530000D02*
X52070000Y-49530000D01*
X52070000Y-49530000D02*
X57150000Y-49530000D01*
X123180001Y-52079999D02*
X123505000Y-51755000D01*
X57150000Y-49530000D02*
X59699999Y-52079999D01*
X59699999Y-52079999D02*
X123180001Y-52079999D01*
X123505000Y-51755000D02*
X123505000Y-48260000D01*
G04 #@! TO.N,/sc*
X80010000Y-49530000D02*
X85090000Y-49530000D01*
X85090000Y-49530000D02*
X88900000Y-49530000D01*
X120330000Y-41275000D02*
X120330000Y-45082500D01*
X120330000Y-45082500D02*
X120332500Y-45085000D01*
X73660000Y-60960000D02*
X77470000Y-60960000D01*
X77470000Y-50165000D02*
X78105000Y-49530000D01*
X78105000Y-49530000D02*
X80010000Y-49530000D01*
X88900000Y-49530000D02*
X89599999Y-50229999D01*
X89599999Y-50229999D02*
X90805000Y-51435000D01*
X90805000Y-51435000D02*
X120015000Y-51435000D01*
G04 #@! TO.N,/sd*
X107950000Y-49530000D02*
X111760000Y-49530000D01*
X117790000Y-36830000D02*
X117790000Y-38478500D01*
X117790000Y-38478500D02*
X117792500Y-38481000D01*
X111760000Y-49530000D02*
X117475000Y-49530000D01*
X95250000Y-52705000D02*
X107950000Y-52705000D01*
G04 #@! TO.N,Net-(Q12-Pad3)*
X93980000Y-49530000D02*
X97790000Y-49530000D01*
X97790000Y-49530000D02*
X99060000Y-50800000D01*
X99060000Y-50800000D02*
X106680000Y-50800000D01*
X106680000Y-46990000D02*
X107950000Y-46990000D01*
G04 #@! TO.N,Net-(Q12-Pad1)*
X102870000Y-49530000D02*
X99695000Y-49530000D01*
X99695000Y-44450000D02*
X97790000Y-44450000D01*
G04 #@! TO.N,Net-(Q21-Pad3)*
X44205001Y-74685001D02*
X58029999Y-74685001D01*
X43180000Y-73660000D02*
X44205001Y-74685001D01*
X65014999Y-72634999D02*
X66040000Y-73660000D01*
X60080001Y-72634999D02*
X65014999Y-72634999D01*
X58029999Y-74685001D02*
X60080001Y-72634999D01*
X115570000Y-73660000D02*
X111760000Y-73660000D01*
X111760000Y-73660000D02*
X110490000Y-72390000D01*
X110490000Y-72390000D02*
X103715736Y-72390000D01*
X87630000Y-72009999D02*
X87494998Y-72145001D01*
X87494998Y-72145001D02*
X67573001Y-72145001D01*
X67310000Y-72390000D02*
X67564000Y-72136000D01*
X67573001Y-72145001D02*
X67564000Y-72136000D01*
X103470737Y-72145001D02*
X103715736Y-72390000D01*
X87630000Y-72009999D02*
X87765002Y-72145001D01*
X102870000Y-72145001D02*
X103470737Y-72145001D01*
X87765002Y-72145001D02*
X102870000Y-72145001D01*
X102870000Y-60960000D02*
X101600000Y-60960000D01*
G04 #@! TO.N,/a7*
X25400000Y-17780000D02*
X25400000Y-20320000D01*
X25400000Y-41275000D02*
X26350000Y-41275000D01*
G04 #@! TO.N,Net-(Q51-Pad3)*
X45964999Y-72634999D02*
X35950001Y-72634999D01*
X46990000Y-73660000D02*
X45964999Y-72634999D01*
X96520000Y-73660000D02*
X94615000Y-73660000D01*
X94615000Y-75565000D02*
X94224999Y-75174999D01*
X53136824Y-77225001D02*
X74329263Y-77225001D01*
X52111823Y-76200000D02*
X53136824Y-77225001D01*
X35950001Y-72634999D02*
X34925000Y-73660000D01*
X33899999Y-74685001D02*
X34925000Y-73660000D01*
X28965001Y-74685001D02*
X33899999Y-74685001D01*
X27940000Y-73660000D02*
X28965001Y-74685001D01*
X74930000Y-75565000D02*
X74930000Y-76624264D01*
X74329263Y-77225001D02*
X74930000Y-76624264D01*
X74930000Y-75565000D02*
X75809999Y-75565000D01*
X75809999Y-75565000D02*
X76200000Y-75174999D01*
X94224999Y-75174999D02*
X76200000Y-75174999D01*
X50800000Y-73660000D02*
X46990000Y-73660000D01*
G04 #@! TO.N,/b7*
X48260000Y-17780000D02*
X48260000Y-20320000D01*
X48260000Y-41275000D02*
X49210000Y-41275000D01*
G04 #@! TO.N,Net-(Q56-Pad3)*
X43180000Y-33830000D02*
X43180000Y-31447500D01*
G04 #@! TO.N,Net-(Q57-Pad3)*
X40640000Y-31447500D02*
X40640000Y-38275000D01*
G04 #@! TO.N,Net-(Q58-Pad3)*
X38100000Y-33830000D02*
X38100000Y-31447500D01*
G04 #@! TO.N,Net-(Q59-Pad3)*
X35560000Y-31447500D02*
X35560000Y-38275000D01*
G04 #@! TO.N,Net-(Q60-Pad3)*
X33020000Y-33830000D02*
X33020000Y-31447500D01*
G04 #@! TO.N,Net-(Q61-Pad3)*
X30480000Y-31447500D02*
X30480000Y-38275000D01*
G04 #@! TO.N,Net-(Q62-Pad3)*
X27940000Y-33830000D02*
X27940000Y-31447500D01*
G04 #@! TO.N,Net-(Q63-Pad3)*
X25400000Y-31447500D02*
X25400000Y-38275000D01*
G04 #@! TO.N,/c7*
X71120000Y-41275000D02*
X72070000Y-41275000D01*
X71120000Y-17780000D02*
X71120000Y-20320000D01*
G04 #@! TO.N,Net-(Q64-Pad3)*
X66040000Y-33830000D02*
X66040000Y-31447500D01*
G04 #@! TO.N,Net-(Q65-Pad3)*
X63500000Y-31447500D02*
X63500000Y-38275000D01*
G04 #@! TO.N,Net-(Q66-Pad3)*
X60960000Y-33830000D02*
X60960000Y-31447500D01*
G04 #@! TO.N,Net-(Q67-Pad3)*
X58420000Y-31447500D02*
X58420000Y-38275000D01*
G04 #@! TO.N,Net-(Q68-Pad3)*
X55880000Y-33830000D02*
X55880000Y-31447500D01*
G04 #@! TO.N,Net-(Q69-Pad3)*
X53340000Y-31447500D02*
X53340000Y-38275000D01*
G04 #@! TO.N,Net-(Q70-Pad3)*
X50800000Y-33830000D02*
X50800000Y-31447500D01*
G04 #@! TO.N,Net-(Q71-Pad3)*
X48260000Y-31447500D02*
X48260000Y-38275000D01*
G04 #@! TO.N,Net-(Q72-Pad3)*
X88900000Y-33830000D02*
X88900000Y-31447500D01*
G04 #@! TO.N,/d7*
X93980000Y-41275000D02*
X94930000Y-41275000D01*
X93980000Y-17780000D02*
X93980000Y-20320000D01*
G04 #@! TO.N,Net-(Q73-Pad3)*
X86360000Y-31447500D02*
X86360000Y-38275000D01*
G04 #@! TO.N,Net-(Q74-Pad3)*
X83820000Y-33830000D02*
X83820000Y-31447500D01*
G04 #@! TO.N,Net-(Q75-Pad3)*
X81280000Y-31447500D02*
X81280000Y-38275000D01*
G04 #@! TO.N,Net-(Q76-Pad3)*
X78740000Y-33830000D02*
X78740000Y-31447500D01*
G04 #@! TO.N,Net-(Q77-Pad3)*
X76200000Y-31447500D02*
X76200000Y-38275000D01*
G04 #@! TO.N,Net-(Q78-Pad3)*
X73660000Y-33830000D02*
X73660000Y-31447500D01*
G04 #@! TO.N,Net-(Q79-Pad3)*
X71120000Y-31447500D02*
X71120000Y-38275000D01*
G04 #@! TO.N,Net-(Q80-Pad3)*
X111760000Y-33830000D02*
X111760000Y-31447500D01*
G04 #@! TO.N,Net-(Q81-Pad3)*
X109220000Y-31447500D02*
X109220000Y-38275000D01*
G04 #@! TO.N,Net-(Q82-Pad3)*
X106680000Y-33830000D02*
X106680000Y-31447500D01*
G04 #@! TO.N,Net-(Q83-Pad3)*
X104140000Y-31447500D02*
X104140000Y-38275000D01*
G04 #@! TO.N,/o7*
X124460000Y-17780000D02*
X124460000Y-20320000D01*
X124460000Y-41275000D02*
X125410000Y-41275000D01*
X33020000Y-58420000D02*
X38100000Y-58420000D01*
X124460000Y-52705000D02*
X124460000Y-41275000D01*
X123825000Y-53340000D02*
X124460000Y-52705000D01*
X38100000Y-58420000D02*
X43180000Y-53340000D01*
X43180000Y-53340000D02*
X123825000Y-53340000D01*
G04 #@! TO.N,Net-(Q84-Pad3)*
X101600000Y-33830000D02*
X101600000Y-31447500D01*
G04 #@! TO.N,Net-(Q85-Pad3)*
X99060000Y-31447500D02*
X99060000Y-38275000D01*
G04 #@! TO.N,Net-(Q86-Pad3)*
X96520000Y-33830000D02*
X96520000Y-31447500D01*
G04 #@! TO.N,Net-(Q87-Pad3)*
X93980000Y-31447500D02*
X93980000Y-38275000D01*
G04 #@! TO.N,Net-(Q88-Pad3)*
X43180000Y-47957500D02*
X41607500Y-47957500D01*
X25630000Y-45720000D02*
X25400000Y-45490000D01*
X25630000Y-45720000D02*
X39370000Y-45720000D01*
X39370000Y-45720000D02*
X41607500Y-47957500D01*
G04 #@! TO.N,Net-(Q89-Pad3)*
X122555000Y-45260000D02*
X121110000Y-45260000D01*
X118412500Y-47957500D02*
X116840000Y-47957500D01*
X121110000Y-45260000D02*
X118412500Y-47957500D01*
G04 #@! TO.N,Net-(Q90-Pad3)*
X119380000Y-38275000D02*
X119380000Y-30177500D01*
G04 #@! TO.N,Net-(Q91-Pad3)*
X116840000Y-33830000D02*
X116840000Y-30177500D01*
G04 #@! TO.N,Net-(Q92-Pad3)*
X142240000Y-33830000D02*
X142240000Y-31447500D01*
G04 #@! TO.N,Net-(Q93-Pad3)*
X139700000Y-31447500D02*
X139700000Y-38275000D01*
G04 #@! TO.N,Net-(Q94-Pad3)*
X137160000Y-33830000D02*
X137160000Y-31447500D01*
G04 #@! TO.N,Net-(Q95-Pad3)*
X134620000Y-31447500D02*
X134620000Y-38275000D01*
G04 #@! TO.N,Net-(Q96-Pad3)*
X132080000Y-33830000D02*
X132080000Y-31447500D01*
G04 #@! TO.N,Net-(Q97-Pad3)*
X129540000Y-31447500D02*
X129540000Y-38275000D01*
G04 #@! TO.N,Net-(Q98-Pad3)*
X127000000Y-33830000D02*
X127000000Y-31447500D01*
G04 #@! TO.N,Net-(Q99-Pad3)*
X124460000Y-31447500D02*
X124460000Y-38275000D01*
G04 #@! TO.N,/sa_and*
X27940000Y-78740000D02*
X33020000Y-78740000D01*
X33020000Y-78740000D02*
X38100000Y-78740000D01*
X38100000Y-78740000D02*
X43180000Y-78740000D01*
X27940000Y-71120000D02*
X33020000Y-71120000D01*
X33020000Y-71120000D02*
X38100000Y-71120000D01*
X38100000Y-71120000D02*
X43180000Y-71120000D01*
G04 #@! TO.N,/sb_and*
X50800000Y-78740000D02*
X55880000Y-78740000D01*
X55880000Y-78740000D02*
X60960000Y-78740000D01*
X60960000Y-78740000D02*
X66040000Y-78740000D01*
X66040000Y-71120000D02*
X60960000Y-71120000D01*
X60960000Y-71120000D02*
X55880000Y-71120000D01*
X55880000Y-71120000D02*
X50800000Y-71120000D01*
G04 #@! TO.N,/sc_and*
X88900000Y-78740000D02*
X83820000Y-78740000D01*
X83820000Y-78740000D02*
X78740000Y-78740000D01*
X78740000Y-78740000D02*
X73660000Y-78740000D01*
X73660000Y-71120000D02*
X78740000Y-71120000D01*
X78740000Y-71120000D02*
X83820000Y-71120000D01*
X83820000Y-71120000D02*
X88900000Y-71120000D01*
G04 #@! TO.N,/sd_and*
X111760000Y-78740000D02*
X106680000Y-78740000D01*
X106680000Y-78740000D02*
X101600000Y-78740000D01*
X101600000Y-78740000D02*
X96520000Y-78740000D01*
X96520000Y-71120000D02*
X101600000Y-71120000D01*
X101600000Y-71120000D02*
X106680000Y-71120000D01*
X106680000Y-71120000D02*
X111760000Y-71120000D01*
G04 #@! TO.N,Net-(Q16-Pad3)*
X115570000Y-66040000D02*
X111760000Y-66040000D01*
X89599999Y-66739999D02*
X88900000Y-66040000D01*
X91892997Y-66739999D02*
X89599999Y-66739999D01*
X92217999Y-67065001D02*
X91892997Y-66739999D01*
X110734999Y-67065001D02*
X92217999Y-67065001D01*
X111760000Y-66040000D02*
X110734999Y-67065001D01*
X89995003Y-64389999D02*
X90170000Y-64389999D01*
X89860001Y-64525001D02*
X89995003Y-64389999D01*
X72634999Y-64525001D02*
X89860001Y-64525001D01*
X72145001Y-65014999D02*
X72634999Y-64525001D01*
X44205001Y-67065001D02*
X43180000Y-66040000D01*
X58029999Y-67065001D02*
X44205001Y-67065001D01*
X60080001Y-65014999D02*
X58029999Y-67065001D01*
X66040000Y-66040000D02*
X65014999Y-65014999D01*
X65014999Y-65014999D02*
X60080001Y-65014999D01*
X67065001Y-65014999D02*
X72145001Y-65014999D01*
X66040000Y-66040000D02*
X67065001Y-65014999D01*
G04 #@! TO.N,Net-(Q26-Pad3)*
X83820000Y-66040000D02*
X87630000Y-66040000D01*
X38100000Y-66040000D02*
X39614999Y-67554999D01*
X88900000Y-60960000D02*
X89925001Y-61985001D01*
X59445001Y-67554999D02*
X39614999Y-67554999D01*
X60960000Y-66040000D02*
X59445001Y-67554999D01*
X61985001Y-67065001D02*
X60960000Y-66040000D01*
X83820000Y-66040000D02*
X82794999Y-67065001D01*
X82794999Y-67065001D02*
X61985001Y-67065001D01*
X106680000Y-66040000D02*
X104775000Y-66040000D01*
X103895001Y-61985001D02*
X89925001Y-61985001D01*
X104775000Y-62865000D02*
X103895001Y-61985001D01*
G04 #@! TO.N,Net-(Q31-Pad3)*
X84845001Y-74685001D02*
X83820000Y-73660000D01*
X91684999Y-74685001D02*
X84845001Y-74685001D01*
X92710000Y-73660000D02*
X91684999Y-74685001D01*
X105654999Y-74685001D02*
X106680000Y-73660000D01*
X93735001Y-74685001D02*
X105654999Y-74685001D01*
X92710000Y-73660000D02*
X93735001Y-74685001D01*
X80010000Y-73660000D02*
X83820000Y-73660000D01*
X61985001Y-74685001D02*
X60960000Y-73660000D01*
X83820000Y-73660000D02*
X82794999Y-74685001D01*
X82794999Y-74685001D02*
X61985001Y-74685001D01*
X59445001Y-75174999D02*
X60960000Y-73660000D01*
X38100000Y-73660000D02*
X39614999Y-75174999D01*
X39614999Y-75174999D02*
X59445001Y-75174999D01*
G04 #@! TO.N,Net-(Q36-Pad3)*
X78740000Y-66040000D02*
X77714999Y-65014999D01*
X100574999Y-65014999D02*
X101600000Y-66040000D01*
X79765001Y-65014999D02*
X100574999Y-65014999D01*
X78740000Y-66040000D02*
X79765001Y-65014999D01*
X69850000Y-66040000D02*
X71999999Y-66040000D01*
X71999999Y-66040000D02*
X73025000Y-65014999D01*
X77714999Y-65014999D02*
X73025000Y-65014999D01*
X60961410Y-60960000D02*
X66040000Y-60960000D01*
X33020000Y-66040000D02*
X34680001Y-66040000D01*
X34680001Y-66040000D02*
X36195000Y-64525001D01*
X54365001Y-64525001D02*
X36195000Y-64525001D01*
X55880000Y-66040000D02*
X54365001Y-64525001D01*
X57969990Y-63950010D02*
X57971401Y-63950009D01*
X55880000Y-66040000D02*
X57969990Y-63950010D01*
X57971401Y-63950009D02*
X60961410Y-60960000D01*
G04 #@! TO.N,Net-(Q41-Pad3)*
X33020000Y-73660000D02*
X34534999Y-72145001D01*
X77714999Y-72634999D02*
X78740000Y-73660000D01*
X70875001Y-72634999D02*
X77714999Y-72634999D01*
X69850000Y-73660000D02*
X70875001Y-72634999D01*
X100574999Y-72634999D02*
X101600000Y-73660000D01*
X79765001Y-72634999D02*
X100574999Y-72634999D01*
X78740000Y-73660000D02*
X79765001Y-72634999D01*
X54365001Y-72145001D02*
X34534999Y-72145001D01*
X55880000Y-73660000D02*
X54365001Y-72145001D01*
X67557002Y-73660000D02*
X69850000Y-73660000D01*
X66081991Y-72184989D02*
X67557002Y-73660000D01*
X55880000Y-73660000D02*
X57355011Y-72184989D01*
X57355011Y-72184989D02*
X66081991Y-72184989D01*
G04 #@! TO.N,Net-(Q46-Pad3)*
X41910000Y-62230000D02*
X43180000Y-60960000D01*
X45964999Y-65014999D02*
X36585001Y-65014999D01*
X46990000Y-66040000D02*
X45964999Y-65014999D01*
X28965001Y-67065001D02*
X27940000Y-66040000D01*
X34534999Y-67065001D02*
X28965001Y-67065001D01*
X36585001Y-65014999D02*
X34534999Y-67065001D01*
X76444999Y-67945000D02*
X76835000Y-67554999D01*
X74930000Y-67945000D02*
X76444999Y-67945000D01*
X43180000Y-60960000D02*
X45720000Y-60960000D01*
X34925000Y-64770000D02*
X37465000Y-62230000D01*
X29210000Y-64770000D02*
X34925000Y-64770000D01*
X27940000Y-66040000D02*
X29210000Y-64770000D01*
X37465000Y-62230000D02*
X41910000Y-62230000D01*
X94526631Y-67856631D02*
X94947602Y-67856631D01*
X94224999Y-67554999D02*
X94526631Y-67856631D01*
X94224999Y-67554999D02*
X76835000Y-67554999D01*
X94869999Y-66040000D02*
X96520000Y-66040000D01*
X46990000Y-66040000D02*
X50800000Y-66040000D01*
X71117997Y-69605001D02*
X53095001Y-69605001D01*
X73167999Y-67554999D02*
X71117997Y-69605001D01*
X74930000Y-67945000D02*
X74539999Y-67554999D01*
X53095001Y-69605001D02*
X52070000Y-68580000D01*
X74539999Y-67554999D02*
X73167999Y-67554999D01*
G04 #@! TO.N,Net-(Q5-Pad2)*
X57150000Y-46990000D02*
X59055000Y-46990000D01*
X59055000Y-46990000D02*
X59690000Y-47625000D01*
X59690000Y-48895000D02*
X60325000Y-49530000D01*
X60325000Y-49530000D02*
X62230000Y-49530000D01*
X62230000Y-49530000D02*
X66040000Y-49530000D01*
G04 #@! TO.N,Net-(Q8-Pad3)*
X71120000Y-49530000D02*
X74930000Y-49530000D01*
X77470000Y-46990000D02*
X80010000Y-46990000D01*
X74930000Y-49530000D02*
X77470000Y-46990000D01*
G04 #@! TO.N,/LED_PWR*
X144780000Y-23405000D02*
X145325000Y-22860000D01*
X144780000Y-25400000D02*
X144780000Y-23405000D01*
X144780000Y-25400000D02*
X142240000Y-25400000D01*
X142240000Y-25400000D02*
X139700000Y-25400000D01*
X139700000Y-25400000D02*
X137160000Y-25400000D01*
X137160000Y-25400000D02*
X134620000Y-25400000D01*
X134620000Y-25400000D02*
X132080000Y-25400000D01*
X132080000Y-25400000D02*
X129540000Y-25400000D01*
X129540000Y-25400000D02*
X127000000Y-25400000D01*
X127000000Y-25400000D02*
X124460000Y-25400000D01*
X124460000Y-25400000D02*
X111760000Y-25400000D01*
X111760000Y-25400000D02*
X109220000Y-25400000D01*
X109220000Y-25400000D02*
X106680000Y-25400000D01*
X106680000Y-25400000D02*
X104140000Y-25400000D01*
X101600000Y-25400000D02*
X99060000Y-25400000D01*
X99060000Y-25400000D02*
X96520000Y-25400000D01*
X96520000Y-25400000D02*
X93980000Y-25400000D01*
X93980000Y-25400000D02*
X88900000Y-25400000D01*
X88900000Y-25400000D02*
X86360000Y-25400000D01*
X86360000Y-25400000D02*
X83820000Y-25400000D01*
X83820000Y-25400000D02*
X81280000Y-25400000D01*
X78740000Y-25400000D02*
X76200000Y-25400000D01*
X76200000Y-25400000D02*
X73660000Y-25400000D01*
X73660000Y-25400000D02*
X71120000Y-25400000D01*
X71120000Y-25400000D02*
X66040000Y-25400000D01*
X66040000Y-25400000D02*
X63500000Y-25400000D01*
X63500000Y-25400000D02*
X60960000Y-25400000D01*
X60960000Y-25400000D02*
X58420000Y-25400000D01*
X55880000Y-25400000D02*
X53340000Y-25400000D01*
X53340000Y-25400000D02*
X50800000Y-25400000D01*
X50800000Y-25400000D02*
X48260000Y-25400000D01*
X48260000Y-25400000D02*
X43180000Y-25400000D01*
X43180000Y-25400000D02*
X40640000Y-25400000D01*
X40640000Y-25400000D02*
X38100000Y-25400000D01*
X38100000Y-25400000D02*
X35560000Y-25400000D01*
X33020000Y-25400000D02*
X30480000Y-25400000D01*
X30480000Y-25400000D02*
X27940000Y-25400000D01*
X27940000Y-25400000D02*
X25400000Y-25400000D01*
X35560000Y-25400000D02*
X33020000Y-25400000D01*
X58420000Y-25400000D02*
X55880000Y-25400000D01*
X81280000Y-25400000D02*
X78740000Y-25400000D01*
X104140000Y-25400000D02*
X101600000Y-25400000D01*
X83820000Y-23250000D02*
X84210000Y-22860000D01*
X83820000Y-25400000D02*
X83820000Y-23250000D01*
X60960000Y-23250000D02*
X61350000Y-22860000D01*
X60960000Y-25400000D02*
X60960000Y-23250000D01*
X38100000Y-23250000D02*
X38490000Y-22860000D01*
X38100000Y-25400000D02*
X38100000Y-23250000D01*
X106680000Y-23250000D02*
X107070000Y-22860000D01*
X106680000Y-25400000D02*
X106680000Y-23250000D01*
G04 #@! TD*
M02*
