G04 #@! TF.GenerationSoftware,KiCad,Pcbnew,(5.0.0-rc2-200-g1f6f76beb)*
G04 #@! TF.CreationDate,2018-07-18T18:35:48+02:00*
G04 #@! TF.ProjectId,bus-selector,6275732D73656C6563746F722E6B6963,rev?*
G04 #@! TF.SameCoordinates,Original*
G04 #@! TF.FileFunction,Soldermask,Top*
G04 #@! TF.FilePolarity,Negative*
%FSLAX46Y46*%
G04 Gerber Fmt 4.6, Leading zero omitted, Abs format (unit mm)*
G04 Created by KiCad (PCBNEW (5.0.0-rc2-200-g1f6f76beb)) date Wed Jul 18 18:35:48 2018*
%MOMM*%
%LPD*%
G01*
G04 APERTURE LIST*
%ADD10C,0.250000*%
%ADD11C,1.800000*%
%ADD12R,1.800000X1.800000*%
%ADD13R,1.200000X2.300000*%
%ADD14R,1.800000X1.695000*%
%ADD15C,1.924000*%
%ADD16O,1.800000X1.800000*%
%ADD17R,1.720000X1.920000*%
%ADD18R,1.920000X1.720000*%
%ADD19R,2.100000X2.100000*%
%ADD20O,2.100000X2.100000*%
%ADD21C,0.300000*%
%ADD22C,0.100000*%
%ADD23C,4.800000*%
G04 APERTURE END LIST*
D10*
X21497857Y-62101428D02*
X20297857Y-62101428D01*
X20297857Y-61644285D01*
X20355000Y-61530000D01*
X20412142Y-61472857D01*
X20526428Y-61415714D01*
X20697857Y-61415714D01*
X20812142Y-61472857D01*
X20869285Y-61530000D01*
X20926428Y-61644285D01*
X20926428Y-62101428D01*
X21497857Y-60901428D02*
X20697857Y-60901428D01*
X20926428Y-60901428D02*
X20812142Y-60844285D01*
X20755000Y-60787142D01*
X20697857Y-60672857D01*
X20697857Y-60558571D01*
X21497857Y-59987142D02*
X21440714Y-60101428D01*
X21383571Y-60158571D01*
X21269285Y-60215714D01*
X20926428Y-60215714D01*
X20812142Y-60158571D01*
X20755000Y-60101428D01*
X20697857Y-59987142D01*
X20697857Y-59815714D01*
X20755000Y-59701428D01*
X20812142Y-59644285D01*
X20926428Y-59587142D01*
X21269285Y-59587142D01*
X21383571Y-59644285D01*
X21440714Y-59701428D01*
X21497857Y-59815714D01*
X21497857Y-59987142D01*
X21497857Y-58558571D02*
X20297857Y-58558571D01*
X21440714Y-58558571D02*
X21497857Y-58672857D01*
X21497857Y-58901428D01*
X21440714Y-59015714D01*
X21383571Y-59072857D01*
X21269285Y-59130000D01*
X20926428Y-59130000D01*
X20812142Y-59072857D01*
X20755000Y-59015714D01*
X20697857Y-58901428D01*
X20697857Y-58672857D01*
X20755000Y-58558571D01*
X20697857Y-57472857D02*
X21497857Y-57472857D01*
X20697857Y-57987142D02*
X21326428Y-57987142D01*
X21440714Y-57930000D01*
X21497857Y-57815714D01*
X21497857Y-57644285D01*
X21440714Y-57530000D01*
X21383571Y-57472857D01*
X21440714Y-56387142D02*
X21497857Y-56501428D01*
X21497857Y-56730000D01*
X21440714Y-56844285D01*
X21383571Y-56901428D01*
X21269285Y-56958571D01*
X20926428Y-56958571D01*
X20812142Y-56901428D01*
X20755000Y-56844285D01*
X20697857Y-56730000D01*
X20697857Y-56501428D01*
X20755000Y-56387142D01*
X20697857Y-56044285D02*
X20697857Y-55587142D01*
X20297857Y-55872857D02*
X21326428Y-55872857D01*
X21440714Y-55815714D01*
X21497857Y-55701428D01*
X21497857Y-55587142D01*
X21497857Y-55187142D02*
X20697857Y-55187142D01*
X20297857Y-55187142D02*
X20355000Y-55244285D01*
X20412142Y-55187142D01*
X20355000Y-55130000D01*
X20297857Y-55187142D01*
X20412142Y-55187142D01*
X21497857Y-54444285D02*
X21440714Y-54558571D01*
X21383571Y-54615714D01*
X21269285Y-54672857D01*
X20926428Y-54672857D01*
X20812142Y-54615714D01*
X20755000Y-54558571D01*
X20697857Y-54444285D01*
X20697857Y-54272857D01*
X20755000Y-54158571D01*
X20812142Y-54101428D01*
X20926428Y-54044285D01*
X21269285Y-54044285D01*
X21383571Y-54101428D01*
X21440714Y-54158571D01*
X21497857Y-54272857D01*
X21497857Y-54444285D01*
X20697857Y-53530000D02*
X21497857Y-53530000D01*
X20812142Y-53530000D02*
X20755000Y-53472857D01*
X20697857Y-53358571D01*
X20697857Y-53187142D01*
X20755000Y-53072857D01*
X20869285Y-53015714D01*
X21497857Y-53015714D01*
X21383571Y-52444285D02*
X21440714Y-52387142D01*
X21497857Y-52444285D01*
X21440714Y-52501428D01*
X21383571Y-52444285D01*
X21497857Y-52444285D01*
X20755000Y-52444285D02*
X20812142Y-52387142D01*
X20869285Y-52444285D01*
X20812142Y-52501428D01*
X20755000Y-52444285D01*
X20869285Y-52444285D01*
X21497857Y-50958571D02*
X20297857Y-50958571D01*
X21497857Y-50444285D02*
X20869285Y-50444285D01*
X20755000Y-50501428D01*
X20697857Y-50615714D01*
X20697857Y-50787142D01*
X20755000Y-50901428D01*
X20812142Y-50958571D01*
X20697857Y-50044285D02*
X20697857Y-49587142D01*
X20297857Y-49872857D02*
X21326428Y-49872857D01*
X21440714Y-49815714D01*
X21497857Y-49701428D01*
X21497857Y-49587142D01*
X20697857Y-49358571D02*
X20697857Y-48901428D01*
X20297857Y-49187142D02*
X21326428Y-49187142D01*
X21440714Y-49130000D01*
X21497857Y-49015714D01*
X21497857Y-48901428D01*
X20697857Y-48501428D02*
X21897857Y-48501428D01*
X20755000Y-48501428D02*
X20697857Y-48387142D01*
X20697857Y-48158571D01*
X20755000Y-48044285D01*
X20812142Y-47987142D01*
X20926428Y-47930000D01*
X21269285Y-47930000D01*
X21383571Y-47987142D01*
X21440714Y-48044285D01*
X21497857Y-48158571D01*
X21497857Y-48387142D01*
X21440714Y-48501428D01*
X21440714Y-47472857D02*
X21497857Y-47358571D01*
X21497857Y-47130000D01*
X21440714Y-47015714D01*
X21326428Y-46958571D01*
X21269285Y-46958571D01*
X21155000Y-47015714D01*
X21097857Y-47130000D01*
X21097857Y-47301428D01*
X21040714Y-47415714D01*
X20926428Y-47472857D01*
X20869285Y-47472857D01*
X20755000Y-47415714D01*
X20697857Y-47301428D01*
X20697857Y-47130000D01*
X20755000Y-47015714D01*
X21383571Y-46444285D02*
X21440714Y-46387142D01*
X21497857Y-46444285D01*
X21440714Y-46501428D01*
X21383571Y-46444285D01*
X21497857Y-46444285D01*
X20755000Y-46444285D02*
X20812142Y-46387142D01*
X20869285Y-46444285D01*
X20812142Y-46501428D01*
X20755000Y-46444285D01*
X20869285Y-46444285D01*
X20240714Y-45015714D02*
X21783571Y-46044285D01*
X20240714Y-43758571D02*
X21783571Y-44787142D01*
X21497857Y-43358571D02*
X20297857Y-43358571D01*
X20297857Y-42901428D01*
X20355000Y-42787142D01*
X20412142Y-42730000D01*
X20526428Y-42672857D01*
X20697857Y-42672857D01*
X20812142Y-42730000D01*
X20869285Y-42787142D01*
X20926428Y-42901428D01*
X20926428Y-43358571D01*
X21383571Y-41472857D02*
X21440714Y-41530000D01*
X21497857Y-41701428D01*
X21497857Y-41815714D01*
X21440714Y-41987142D01*
X21326428Y-42101428D01*
X21212142Y-42158571D01*
X20983571Y-42215714D01*
X20812142Y-42215714D01*
X20583571Y-42158571D01*
X20469285Y-42101428D01*
X20355000Y-41987142D01*
X20297857Y-41815714D01*
X20297857Y-41701428D01*
X20355000Y-41530000D01*
X20412142Y-41472857D01*
X20869285Y-40558571D02*
X20926428Y-40387142D01*
X20983571Y-40330000D01*
X21097857Y-40272857D01*
X21269285Y-40272857D01*
X21383571Y-40330000D01*
X21440714Y-40387142D01*
X21497857Y-40501428D01*
X21497857Y-40958571D01*
X20297857Y-40958571D01*
X20297857Y-40558571D01*
X20355000Y-40444285D01*
X20412142Y-40387142D01*
X20526428Y-40330000D01*
X20640714Y-40330000D01*
X20755000Y-40387142D01*
X20812142Y-40444285D01*
X20869285Y-40558571D01*
X20869285Y-40958571D01*
X21440714Y-39815714D02*
X21497857Y-39644285D01*
X21497857Y-39358571D01*
X21440714Y-39244285D01*
X21383571Y-39187142D01*
X21269285Y-39130000D01*
X21155000Y-39130000D01*
X21040714Y-39187142D01*
X20983571Y-39244285D01*
X20926428Y-39358571D01*
X20869285Y-39587142D01*
X20812142Y-39701428D01*
X20755000Y-39758571D01*
X20640714Y-39815714D01*
X20526428Y-39815714D01*
X20412142Y-39758571D01*
X20355000Y-39701428D01*
X20297857Y-39587142D01*
X20297857Y-39301428D01*
X20355000Y-39130000D01*
X21383571Y-38615714D02*
X21440714Y-38558571D01*
X21497857Y-38615714D01*
X21440714Y-38672857D01*
X21383571Y-38615714D01*
X21497857Y-38615714D01*
X21497857Y-38044285D02*
X20697857Y-38044285D01*
X20297857Y-38044285D02*
X20355000Y-38101428D01*
X20412142Y-38044285D01*
X20355000Y-37987142D01*
X20297857Y-38044285D01*
X20412142Y-38044285D01*
X21497857Y-37301428D02*
X21440714Y-37415714D01*
X21383571Y-37472857D01*
X21269285Y-37530000D01*
X20926428Y-37530000D01*
X20812142Y-37472857D01*
X20755000Y-37415714D01*
X20697857Y-37301428D01*
X20697857Y-37130000D01*
X20755000Y-37015714D01*
X20812142Y-36958571D01*
X20926428Y-36901428D01*
X21269285Y-36901428D01*
X21383571Y-36958571D01*
X21440714Y-37015714D01*
X21497857Y-37130000D01*
X21497857Y-37301428D01*
X120342500Y-60122857D02*
X120342500Y-60922857D01*
X120056785Y-59665714D02*
X119771071Y-60522857D01*
X120513928Y-60522857D01*
X120971071Y-60465714D02*
X121885357Y-60465714D01*
X122342500Y-60122857D02*
X122571071Y-60922857D01*
X122799642Y-60351428D01*
X123028214Y-60922857D01*
X123256785Y-60122857D01*
X124228214Y-60922857D02*
X124228214Y-60294285D01*
X124171071Y-60180000D01*
X124056785Y-60122857D01*
X123828214Y-60122857D01*
X123713928Y-60180000D01*
X124228214Y-60865714D02*
X124113928Y-60922857D01*
X123828214Y-60922857D01*
X123713928Y-60865714D01*
X123656785Y-60751428D01*
X123656785Y-60637142D01*
X123713928Y-60522857D01*
X123828214Y-60465714D01*
X124113928Y-60465714D01*
X124228214Y-60408571D01*
X124685357Y-60122857D02*
X124971071Y-60922857D01*
X125256785Y-60122857D02*
X124971071Y-60922857D01*
X124856785Y-61208571D01*
X124799642Y-61265714D01*
X124685357Y-61322857D01*
X126799642Y-60237142D02*
X126685357Y-60180000D01*
X126628214Y-60122857D01*
X126571071Y-60008571D01*
X126571071Y-59951428D01*
X126628214Y-59837142D01*
X126685357Y-59780000D01*
X126799642Y-59722857D01*
X127028214Y-59722857D01*
X127142500Y-59780000D01*
X127199642Y-59837142D01*
X127256785Y-59951428D01*
X127256785Y-60008571D01*
X127199642Y-60122857D01*
X127142500Y-60180000D01*
X127028214Y-60237142D01*
X126799642Y-60237142D01*
X126685357Y-60294285D01*
X126628214Y-60351428D01*
X126571071Y-60465714D01*
X126571071Y-60694285D01*
X126628214Y-60808571D01*
X126685357Y-60865714D01*
X126799642Y-60922857D01*
X127028214Y-60922857D01*
X127142500Y-60865714D01*
X127199642Y-60808571D01*
X127256785Y-60694285D01*
X127256785Y-60465714D01*
X127199642Y-60351428D01*
X127142500Y-60294285D01*
X127028214Y-60237142D01*
X128685357Y-60922857D02*
X128685357Y-59722857D01*
X128685357Y-60180000D02*
X128799642Y-60122857D01*
X129028214Y-60122857D01*
X129142500Y-60180000D01*
X129199642Y-60237142D01*
X129256785Y-60351428D01*
X129256785Y-60694285D01*
X129199642Y-60808571D01*
X129142500Y-60865714D01*
X129028214Y-60922857D01*
X128799642Y-60922857D01*
X128685357Y-60865714D01*
X129771071Y-60922857D02*
X129771071Y-60122857D01*
X129771071Y-59722857D02*
X129713928Y-59780000D01*
X129771071Y-59837142D01*
X129828214Y-59780000D01*
X129771071Y-59722857D01*
X129771071Y-59837142D01*
X130171071Y-60122857D02*
X130628214Y-60122857D01*
X130342500Y-59722857D02*
X130342500Y-60751428D01*
X130399642Y-60865714D01*
X130513928Y-60922857D01*
X130628214Y-60922857D01*
X131942500Y-60922857D02*
X131942500Y-59722857D01*
X131942500Y-60180000D02*
X132056785Y-60122857D01*
X132285357Y-60122857D01*
X132399642Y-60180000D01*
X132456785Y-60237142D01*
X132513928Y-60351428D01*
X132513928Y-60694285D01*
X132456785Y-60808571D01*
X132399642Y-60865714D01*
X132285357Y-60922857D01*
X132056785Y-60922857D01*
X131942500Y-60865714D01*
X133542500Y-60122857D02*
X133542500Y-60922857D01*
X133028214Y-60122857D02*
X133028214Y-60751428D01*
X133085357Y-60865714D01*
X133199642Y-60922857D01*
X133371071Y-60922857D01*
X133485357Y-60865714D01*
X133542500Y-60808571D01*
X134056785Y-60865714D02*
X134171071Y-60922857D01*
X134399642Y-60922857D01*
X134513928Y-60865714D01*
X134571071Y-60751428D01*
X134571071Y-60694285D01*
X134513928Y-60580000D01*
X134399642Y-60522857D01*
X134228214Y-60522857D01*
X134113928Y-60465714D01*
X134056785Y-60351428D01*
X134056785Y-60294285D01*
X134113928Y-60180000D01*
X134228214Y-60122857D01*
X134399642Y-60122857D01*
X134513928Y-60180000D01*
X135942500Y-60865714D02*
X136056785Y-60922857D01*
X136285357Y-60922857D01*
X136399642Y-60865714D01*
X136456785Y-60751428D01*
X136456785Y-60694285D01*
X136399642Y-60580000D01*
X136285357Y-60522857D01*
X136113928Y-60522857D01*
X135999642Y-60465714D01*
X135942500Y-60351428D01*
X135942500Y-60294285D01*
X135999642Y-60180000D01*
X136113928Y-60122857D01*
X136285357Y-60122857D01*
X136399642Y-60180000D01*
X137428214Y-60865714D02*
X137313928Y-60922857D01*
X137085357Y-60922857D01*
X136971071Y-60865714D01*
X136913928Y-60751428D01*
X136913928Y-60294285D01*
X136971071Y-60180000D01*
X137085357Y-60122857D01*
X137313928Y-60122857D01*
X137428214Y-60180000D01*
X137485357Y-60294285D01*
X137485357Y-60408571D01*
X136913928Y-60522857D01*
X138171071Y-60922857D02*
X138056785Y-60865714D01*
X137999642Y-60751428D01*
X137999642Y-59722857D01*
X139085357Y-60865714D02*
X138971071Y-60922857D01*
X138742500Y-60922857D01*
X138628214Y-60865714D01*
X138571071Y-60751428D01*
X138571071Y-60294285D01*
X138628214Y-60180000D01*
X138742500Y-60122857D01*
X138971071Y-60122857D01*
X139085357Y-60180000D01*
X139142500Y-60294285D01*
X139142500Y-60408571D01*
X138571071Y-60522857D01*
X140171071Y-60865714D02*
X140056785Y-60922857D01*
X139828214Y-60922857D01*
X139713928Y-60865714D01*
X139656785Y-60808571D01*
X139599642Y-60694285D01*
X139599642Y-60351428D01*
X139656785Y-60237142D01*
X139713928Y-60180000D01*
X139828214Y-60122857D01*
X140056785Y-60122857D01*
X140171071Y-60180000D01*
X140513928Y-60122857D02*
X140971071Y-60122857D01*
X140685357Y-59722857D02*
X140685357Y-60751428D01*
X140742500Y-60865714D01*
X140856785Y-60922857D01*
X140971071Y-60922857D01*
X141542500Y-60922857D02*
X141428214Y-60865714D01*
X141371071Y-60808571D01*
X141313928Y-60694285D01*
X141313928Y-60351428D01*
X141371071Y-60237142D01*
X141428214Y-60180000D01*
X141542500Y-60122857D01*
X141713928Y-60122857D01*
X141828214Y-60180000D01*
X141885357Y-60237142D01*
X141942500Y-60351428D01*
X141942500Y-60694285D01*
X141885357Y-60808571D01*
X141828214Y-60865714D01*
X141713928Y-60922857D01*
X141542500Y-60922857D01*
X142456785Y-60922857D02*
X142456785Y-60122857D01*
X142456785Y-60351428D02*
X142513928Y-60237142D01*
X142571071Y-60180000D01*
X142685357Y-60122857D01*
X142799642Y-60122857D01*
X143999642Y-60122857D02*
X144285357Y-60922857D01*
X144571071Y-60122857D01*
X145656785Y-60922857D02*
X144971071Y-60922857D01*
X145313928Y-60922857D02*
X145313928Y-59722857D01*
X145199642Y-59894285D01*
X145085357Y-60008571D01*
X144971071Y-60065714D01*
X120056785Y-61772857D02*
X120285357Y-61772857D01*
X120399642Y-61830000D01*
X120513928Y-61944285D01*
X120571071Y-62172857D01*
X120571071Y-62572857D01*
X120513928Y-62801428D01*
X120399642Y-62915714D01*
X120285357Y-62972857D01*
X120056785Y-62972857D01*
X119942500Y-62915714D01*
X119828214Y-62801428D01*
X119771071Y-62572857D01*
X119771071Y-62172857D01*
X119828214Y-61944285D01*
X119942500Y-61830000D01*
X120056785Y-61772857D01*
X121999642Y-62344285D02*
X122913928Y-62344285D01*
X122913928Y-62687142D02*
X121999642Y-62687142D01*
X124342500Y-62915714D02*
X124456785Y-62972857D01*
X124685357Y-62972857D01*
X124799642Y-62915714D01*
X124856785Y-62801428D01*
X124856785Y-62744285D01*
X124799642Y-62630000D01*
X124685357Y-62572857D01*
X124513928Y-62572857D01*
X124399642Y-62515714D01*
X124342500Y-62401428D01*
X124342500Y-62344285D01*
X124399642Y-62230000D01*
X124513928Y-62172857D01*
X124685357Y-62172857D01*
X124799642Y-62230000D01*
X125713928Y-63430000D02*
X125656785Y-63372857D01*
X125542500Y-63201428D01*
X125485357Y-63087142D01*
X125428214Y-62915714D01*
X125371071Y-62630000D01*
X125371071Y-62401428D01*
X125428214Y-62115714D01*
X125485357Y-61944285D01*
X125542500Y-61830000D01*
X125656785Y-61658571D01*
X125713928Y-61601428D01*
X126113928Y-62915714D02*
X126285357Y-62972857D01*
X126571071Y-62972857D01*
X126685357Y-62915714D01*
X126742500Y-62858571D01*
X126799642Y-62744285D01*
X126799642Y-62630000D01*
X126742500Y-62515714D01*
X126685357Y-62458571D01*
X126571071Y-62401428D01*
X126342500Y-62344285D01*
X126228214Y-62287142D01*
X126171071Y-62230000D01*
X126113928Y-62115714D01*
X126113928Y-62001428D01*
X126171071Y-61887142D01*
X126228214Y-61830000D01*
X126342500Y-61772857D01*
X126628214Y-61772857D01*
X126799642Y-61830000D01*
X127199642Y-63430000D02*
X127256785Y-63372857D01*
X127371071Y-63201428D01*
X127428214Y-63087142D01*
X127485357Y-62915714D01*
X127542500Y-62630000D01*
X127542500Y-62401428D01*
X127485357Y-62115714D01*
X127428214Y-61944285D01*
X127371071Y-61830000D01*
X127256785Y-61658571D01*
X127199642Y-61601428D01*
X119771071Y-64965714D02*
X119885357Y-65022857D01*
X120113928Y-65022857D01*
X120228214Y-64965714D01*
X120285357Y-64851428D01*
X120285357Y-64794285D01*
X120228214Y-64680000D01*
X120113928Y-64622857D01*
X119942500Y-64622857D01*
X119828214Y-64565714D01*
X119771071Y-64451428D01*
X119771071Y-64394285D01*
X119828214Y-64280000D01*
X119942500Y-64222857D01*
X120113928Y-64222857D01*
X120228214Y-64280000D01*
X121142500Y-65480000D02*
X121085357Y-65422857D01*
X120971071Y-65251428D01*
X120913928Y-65137142D01*
X120856785Y-64965714D01*
X120799642Y-64680000D01*
X120799642Y-64451428D01*
X120856785Y-64165714D01*
X120913928Y-63994285D01*
X120971071Y-63880000D01*
X121085357Y-63708571D01*
X121142500Y-63651428D01*
X121828214Y-63822857D02*
X121942500Y-63822857D01*
X122056785Y-63880000D01*
X122113928Y-63937142D01*
X122171071Y-64051428D01*
X122228214Y-64280000D01*
X122228214Y-64565714D01*
X122171071Y-64794285D01*
X122113928Y-64908571D01*
X122056785Y-64965714D01*
X121942500Y-65022857D01*
X121828214Y-65022857D01*
X121713928Y-64965714D01*
X121656785Y-64908571D01*
X121599642Y-64794285D01*
X121542500Y-64565714D01*
X121542500Y-64280000D01*
X121599642Y-64051428D01*
X121656785Y-63937142D01*
X121713928Y-63880000D01*
X121828214Y-63822857D01*
X122971071Y-63822857D02*
X123085357Y-63822857D01*
X123199642Y-63880000D01*
X123256785Y-63937142D01*
X123313928Y-64051428D01*
X123371071Y-64280000D01*
X123371071Y-64565714D01*
X123313928Y-64794285D01*
X123256785Y-64908571D01*
X123199642Y-64965714D01*
X123085357Y-65022857D01*
X122971071Y-65022857D01*
X122856785Y-64965714D01*
X122799642Y-64908571D01*
X122742500Y-64794285D01*
X122685357Y-64565714D01*
X122685357Y-64280000D01*
X122742500Y-64051428D01*
X122799642Y-63937142D01*
X122856785Y-63880000D01*
X122971071Y-63822857D01*
X123771071Y-65480000D02*
X123828214Y-65422857D01*
X123942500Y-65251428D01*
X123999642Y-65137142D01*
X124056785Y-64965714D01*
X124113928Y-64680000D01*
X124113928Y-64451428D01*
X124056785Y-64165714D01*
X123999642Y-63994285D01*
X123942500Y-63880000D01*
X123828214Y-63708571D01*
X123771071Y-63651428D01*
X125599642Y-64394285D02*
X126513928Y-64394285D01*
X126513928Y-64737142D02*
X125599642Y-64737142D01*
X127942500Y-64680000D02*
X128513928Y-64680000D01*
X127828214Y-65022857D02*
X128228214Y-63822857D01*
X128628214Y-65022857D01*
X119771071Y-67015714D02*
X119885357Y-67072857D01*
X120113928Y-67072857D01*
X120228214Y-67015714D01*
X120285357Y-66901428D01*
X120285357Y-66844285D01*
X120228214Y-66730000D01*
X120113928Y-66672857D01*
X119942500Y-66672857D01*
X119828214Y-66615714D01*
X119771071Y-66501428D01*
X119771071Y-66444285D01*
X119828214Y-66330000D01*
X119942500Y-66272857D01*
X120113928Y-66272857D01*
X120228214Y-66330000D01*
X121142500Y-67530000D02*
X121085357Y-67472857D01*
X120971071Y-67301428D01*
X120913928Y-67187142D01*
X120856785Y-67015714D01*
X120799642Y-66730000D01*
X120799642Y-66501428D01*
X120856785Y-66215714D01*
X120913928Y-66044285D01*
X120971071Y-65930000D01*
X121085357Y-65758571D01*
X121142500Y-65701428D01*
X121828214Y-65872857D02*
X121942500Y-65872857D01*
X122056785Y-65930000D01*
X122113928Y-65987142D01*
X122171071Y-66101428D01*
X122228214Y-66330000D01*
X122228214Y-66615714D01*
X122171071Y-66844285D01*
X122113928Y-66958571D01*
X122056785Y-67015714D01*
X121942500Y-67072857D01*
X121828214Y-67072857D01*
X121713928Y-67015714D01*
X121656785Y-66958571D01*
X121599642Y-66844285D01*
X121542500Y-66615714D01*
X121542500Y-66330000D01*
X121599642Y-66101428D01*
X121656785Y-65987142D01*
X121713928Y-65930000D01*
X121828214Y-65872857D01*
X123371071Y-67072857D02*
X122685357Y-67072857D01*
X123028214Y-67072857D02*
X123028214Y-65872857D01*
X122913928Y-66044285D01*
X122799642Y-66158571D01*
X122685357Y-66215714D01*
X123771071Y-67530000D02*
X123828214Y-67472857D01*
X123942500Y-67301428D01*
X123999642Y-67187142D01*
X124056785Y-67015714D01*
X124113928Y-66730000D01*
X124113928Y-66501428D01*
X124056785Y-66215714D01*
X123999642Y-66044285D01*
X123942500Y-65930000D01*
X123828214Y-65758571D01*
X123771071Y-65701428D01*
X125599642Y-66444285D02*
X126513928Y-66444285D01*
X126513928Y-66787142D02*
X125599642Y-66787142D01*
X128399642Y-66444285D02*
X128571071Y-66501428D01*
X128628214Y-66558571D01*
X128685357Y-66672857D01*
X128685357Y-66844285D01*
X128628214Y-66958571D01*
X128571071Y-67015714D01*
X128456785Y-67072857D01*
X127999642Y-67072857D01*
X127999642Y-65872857D01*
X128399642Y-65872857D01*
X128513928Y-65930000D01*
X128571071Y-65987142D01*
X128628214Y-66101428D01*
X128628214Y-66215714D01*
X128571071Y-66330000D01*
X128513928Y-66387142D01*
X128399642Y-66444285D01*
X127999642Y-66444285D01*
X119771071Y-69065714D02*
X119885357Y-69122857D01*
X120113928Y-69122857D01*
X120228214Y-69065714D01*
X120285357Y-68951428D01*
X120285357Y-68894285D01*
X120228214Y-68780000D01*
X120113928Y-68722857D01*
X119942500Y-68722857D01*
X119828214Y-68665714D01*
X119771071Y-68551428D01*
X119771071Y-68494285D01*
X119828214Y-68380000D01*
X119942500Y-68322857D01*
X120113928Y-68322857D01*
X120228214Y-68380000D01*
X121142500Y-69580000D02*
X121085357Y-69522857D01*
X120971071Y-69351428D01*
X120913928Y-69237142D01*
X120856785Y-69065714D01*
X120799642Y-68780000D01*
X120799642Y-68551428D01*
X120856785Y-68265714D01*
X120913928Y-68094285D01*
X120971071Y-67980000D01*
X121085357Y-67808571D01*
X121142500Y-67751428D01*
X122228214Y-69122857D02*
X121542500Y-69122857D01*
X121885357Y-69122857D02*
X121885357Y-67922857D01*
X121771071Y-68094285D01*
X121656785Y-68208571D01*
X121542500Y-68265714D01*
X122971071Y-67922857D02*
X123085357Y-67922857D01*
X123199642Y-67980000D01*
X123256785Y-68037142D01*
X123313928Y-68151428D01*
X123371071Y-68380000D01*
X123371071Y-68665714D01*
X123313928Y-68894285D01*
X123256785Y-69008571D01*
X123199642Y-69065714D01*
X123085357Y-69122857D01*
X122971071Y-69122857D01*
X122856785Y-69065714D01*
X122799642Y-69008571D01*
X122742500Y-68894285D01*
X122685357Y-68665714D01*
X122685357Y-68380000D01*
X122742500Y-68151428D01*
X122799642Y-68037142D01*
X122856785Y-67980000D01*
X122971071Y-67922857D01*
X123771071Y-69580000D02*
X123828214Y-69522857D01*
X123942500Y-69351428D01*
X123999642Y-69237142D01*
X124056785Y-69065714D01*
X124113928Y-68780000D01*
X124113928Y-68551428D01*
X124056785Y-68265714D01*
X123999642Y-68094285D01*
X123942500Y-67980000D01*
X123828214Y-67808571D01*
X123771071Y-67751428D01*
X125599642Y-68494285D02*
X126513928Y-68494285D01*
X126513928Y-68837142D02*
X125599642Y-68837142D01*
X128685357Y-69008571D02*
X128628214Y-69065714D01*
X128456785Y-69122857D01*
X128342500Y-69122857D01*
X128171071Y-69065714D01*
X128056785Y-68951428D01*
X127999642Y-68837142D01*
X127942500Y-68608571D01*
X127942500Y-68437142D01*
X127999642Y-68208571D01*
X128056785Y-68094285D01*
X128171071Y-67980000D01*
X128342500Y-67922857D01*
X128456785Y-67922857D01*
X128628214Y-67980000D01*
X128685357Y-68037142D01*
X119771071Y-71115714D02*
X119885357Y-71172857D01*
X120113928Y-71172857D01*
X120228214Y-71115714D01*
X120285357Y-71001428D01*
X120285357Y-70944285D01*
X120228214Y-70830000D01*
X120113928Y-70772857D01*
X119942500Y-70772857D01*
X119828214Y-70715714D01*
X119771071Y-70601428D01*
X119771071Y-70544285D01*
X119828214Y-70430000D01*
X119942500Y-70372857D01*
X120113928Y-70372857D01*
X120228214Y-70430000D01*
X121142500Y-71630000D02*
X121085357Y-71572857D01*
X120971071Y-71401428D01*
X120913928Y-71287142D01*
X120856785Y-71115714D01*
X120799642Y-70830000D01*
X120799642Y-70601428D01*
X120856785Y-70315714D01*
X120913928Y-70144285D01*
X120971071Y-70030000D01*
X121085357Y-69858571D01*
X121142500Y-69801428D01*
X122228214Y-71172857D02*
X121542500Y-71172857D01*
X121885357Y-71172857D02*
X121885357Y-69972857D01*
X121771071Y-70144285D01*
X121656785Y-70258571D01*
X121542500Y-70315714D01*
X123371071Y-71172857D02*
X122685357Y-71172857D01*
X123028214Y-71172857D02*
X123028214Y-69972857D01*
X122913928Y-70144285D01*
X122799642Y-70258571D01*
X122685357Y-70315714D01*
X123771071Y-71630000D02*
X123828214Y-71572857D01*
X123942500Y-71401428D01*
X123999642Y-71287142D01*
X124056785Y-71115714D01*
X124113928Y-70830000D01*
X124113928Y-70601428D01*
X124056785Y-70315714D01*
X123999642Y-70144285D01*
X123942500Y-70030000D01*
X123828214Y-69858571D01*
X123771071Y-69801428D01*
X125599642Y-70544285D02*
X126513928Y-70544285D01*
X126513928Y-70887142D02*
X125599642Y-70887142D01*
X127999642Y-71172857D02*
X127999642Y-69972857D01*
X128285357Y-69972857D01*
X128456785Y-70030000D01*
X128571071Y-70144285D01*
X128628214Y-70258571D01*
X128685357Y-70487142D01*
X128685357Y-70658571D01*
X128628214Y-70887142D01*
X128571071Y-71001428D01*
X128456785Y-71115714D01*
X128285357Y-71172857D01*
X127999642Y-71172857D01*
X119828214Y-72594285D02*
X120228214Y-72594285D01*
X120399642Y-73222857D02*
X119828214Y-73222857D01*
X119828214Y-72022857D01*
X120399642Y-72022857D01*
X120913928Y-73222857D02*
X120913928Y-72422857D01*
X120913928Y-72537142D02*
X120971071Y-72480000D01*
X121085357Y-72422857D01*
X121256785Y-72422857D01*
X121371071Y-72480000D01*
X121428214Y-72594285D01*
X121428214Y-73222857D01*
X121428214Y-72594285D02*
X121485357Y-72480000D01*
X121599642Y-72422857D01*
X121771071Y-72422857D01*
X121885357Y-72480000D01*
X121942500Y-72594285D01*
X121942500Y-73222857D01*
X122513928Y-73222857D02*
X122513928Y-72422857D01*
X122513928Y-72022857D02*
X122456785Y-72080000D01*
X122513928Y-72137142D01*
X122571071Y-72080000D01*
X122513928Y-72022857D01*
X122513928Y-72137142D01*
X123256785Y-73222857D02*
X123142500Y-73165714D01*
X123085357Y-73051428D01*
X123085357Y-72022857D01*
X125199642Y-73222857D02*
X124628214Y-73222857D01*
X124628214Y-72022857D01*
X126113928Y-72422857D02*
X126113928Y-73222857D01*
X125599642Y-72422857D02*
X125599642Y-73051428D01*
X125656785Y-73165714D01*
X125771071Y-73222857D01*
X125942500Y-73222857D01*
X126056785Y-73165714D01*
X126113928Y-73108571D01*
X126685357Y-72422857D02*
X126685357Y-73222857D01*
X126685357Y-72537142D02*
X126742500Y-72480000D01*
X126856785Y-72422857D01*
X127028214Y-72422857D01*
X127142500Y-72480000D01*
X127199642Y-72594285D01*
X127199642Y-73222857D01*
X128285357Y-73222857D02*
X128285357Y-72022857D01*
X128285357Y-73165714D02*
X128171071Y-73222857D01*
X127942500Y-73222857D01*
X127828214Y-73165714D01*
X127771071Y-73108571D01*
X127713928Y-72994285D01*
X127713928Y-72651428D01*
X127771071Y-72537142D01*
X127828214Y-72480000D01*
X127942500Y-72422857D01*
X128171071Y-72422857D01*
X128285357Y-72480000D01*
X128856785Y-73222857D02*
X128856785Y-72022857D01*
X128856785Y-72480000D02*
X128971071Y-72422857D01*
X129199642Y-72422857D01*
X129313928Y-72480000D01*
X129371071Y-72537142D01*
X129428214Y-72651428D01*
X129428214Y-72994285D01*
X129371071Y-73108571D01*
X129313928Y-73165714D01*
X129199642Y-73222857D01*
X128971071Y-73222857D01*
X128856785Y-73165714D01*
X130399642Y-73165714D02*
X130285357Y-73222857D01*
X130056785Y-73222857D01*
X129942500Y-73165714D01*
X129885357Y-73051428D01*
X129885357Y-72594285D01*
X129942500Y-72480000D01*
X130056785Y-72422857D01*
X130285357Y-72422857D01*
X130399642Y-72480000D01*
X130456785Y-72594285D01*
X130456785Y-72708571D01*
X129885357Y-72822857D01*
X130971071Y-73222857D02*
X130971071Y-72422857D01*
X130971071Y-72651428D02*
X131028214Y-72537142D01*
X131085357Y-72480000D01*
X131199642Y-72422857D01*
X131313928Y-72422857D01*
X132228214Y-72422857D02*
X132228214Y-73394285D01*
X132171071Y-73508571D01*
X132113928Y-73565714D01*
X131999642Y-73622857D01*
X131828214Y-73622857D01*
X131713928Y-73565714D01*
X132228214Y-73165714D02*
X132113928Y-73222857D01*
X131885357Y-73222857D01*
X131771071Y-73165714D01*
X131713928Y-73108571D01*
X131656785Y-72994285D01*
X131656785Y-72651428D01*
X131713928Y-72537142D01*
X131771071Y-72480000D01*
X131885357Y-72422857D01*
X132113928Y-72422857D01*
X132228214Y-72480000D01*
X120285357Y-75215714D02*
X120171071Y-75272857D01*
X119942500Y-75272857D01*
X119828214Y-75215714D01*
X119771071Y-75101428D01*
X119771071Y-74644285D01*
X119828214Y-74530000D01*
X119942500Y-74472857D01*
X120171071Y-74472857D01*
X120285357Y-74530000D01*
X120342500Y-74644285D01*
X120342500Y-74758571D01*
X119771071Y-74872857D01*
X120856785Y-75272857D02*
X120856785Y-74472857D01*
X120856785Y-74587142D02*
X120913928Y-74530000D01*
X121028214Y-74472857D01*
X121199642Y-74472857D01*
X121313928Y-74530000D01*
X121371071Y-74644285D01*
X121371071Y-75272857D01*
X121371071Y-74644285D02*
X121428214Y-74530000D01*
X121542500Y-74472857D01*
X121713928Y-74472857D01*
X121828214Y-74530000D01*
X121885357Y-74644285D01*
X121885357Y-75272857D01*
X122456785Y-75272857D02*
X122456785Y-74472857D01*
X122456785Y-74072857D02*
X122399642Y-74130000D01*
X122456785Y-74187142D01*
X122513928Y-74130000D01*
X122456785Y-74072857D01*
X122456785Y-74187142D01*
X123199642Y-75272857D02*
X123085357Y-75215714D01*
X123028214Y-75101428D01*
X123028214Y-74072857D01*
X124399642Y-74701428D02*
X124342500Y-74644285D01*
X124228214Y-74587142D01*
X124113928Y-74587142D01*
X123999642Y-74644285D01*
X123942500Y-74701428D01*
X123885357Y-74815714D01*
X123885357Y-74930000D01*
X123942500Y-75044285D01*
X123999642Y-75101428D01*
X124113928Y-75158571D01*
X124228214Y-75158571D01*
X124342500Y-75101428D01*
X124399642Y-75044285D01*
X124399642Y-74587142D02*
X124399642Y-75044285D01*
X124456785Y-75101428D01*
X124513928Y-75101428D01*
X124628214Y-75044285D01*
X124685357Y-74930000D01*
X124685357Y-74644285D01*
X124571071Y-74472857D01*
X124399642Y-74358571D01*
X124171071Y-74301428D01*
X123942500Y-74358571D01*
X123771071Y-74472857D01*
X123656785Y-74644285D01*
X123599642Y-74872857D01*
X123656785Y-75101428D01*
X123771071Y-75272857D01*
X123942500Y-75387142D01*
X124171071Y-75444285D01*
X124399642Y-75387142D01*
X124571071Y-75272857D01*
X125656785Y-75215714D02*
X125542500Y-75272857D01*
X125313928Y-75272857D01*
X125199642Y-75215714D01*
X125142500Y-75101428D01*
X125142500Y-74644285D01*
X125199642Y-74530000D01*
X125313928Y-74472857D01*
X125542500Y-74472857D01*
X125656785Y-74530000D01*
X125713928Y-74644285D01*
X125713928Y-74758571D01*
X125142500Y-74872857D01*
X126228214Y-75272857D02*
X126228214Y-74472857D01*
X126228214Y-74587142D02*
X126285357Y-74530000D01*
X126399642Y-74472857D01*
X126571071Y-74472857D01*
X126685357Y-74530000D01*
X126742500Y-74644285D01*
X126742500Y-75272857D01*
X126742500Y-74644285D02*
X126799642Y-74530000D01*
X126913928Y-74472857D01*
X127085357Y-74472857D01*
X127199642Y-74530000D01*
X127256785Y-74644285D01*
X127256785Y-75272857D01*
X127999642Y-75272857D02*
X127885357Y-75215714D01*
X127828214Y-75101428D01*
X127828214Y-74072857D01*
X128971071Y-74472857D02*
X128971071Y-75272857D01*
X128456785Y-74472857D02*
X128456785Y-75101428D01*
X128513928Y-75215714D01*
X128628214Y-75272857D01*
X128799642Y-75272857D01*
X128913928Y-75215714D01*
X128971071Y-75158571D01*
X129542500Y-74472857D02*
X129542500Y-75272857D01*
X129542500Y-74587142D02*
X129599642Y-74530000D01*
X129713928Y-74472857D01*
X129885357Y-74472857D01*
X129999642Y-74530000D01*
X130056785Y-74644285D01*
X130056785Y-75272857D01*
X130628214Y-75158571D02*
X130685357Y-75215714D01*
X130628214Y-75272857D01*
X130571071Y-75215714D01*
X130628214Y-75158571D01*
X130628214Y-75272857D01*
X131142500Y-75215714D02*
X131256785Y-75272857D01*
X131485357Y-75272857D01*
X131599642Y-75215714D01*
X131656785Y-75101428D01*
X131656785Y-75044285D01*
X131599642Y-74930000D01*
X131485357Y-74872857D01*
X131313928Y-74872857D01*
X131199642Y-74815714D01*
X131142500Y-74701428D01*
X131142500Y-74644285D01*
X131199642Y-74530000D01*
X131313928Y-74472857D01*
X131485357Y-74472857D01*
X131599642Y-74530000D01*
X132628214Y-75215714D02*
X132513928Y-75272857D01*
X132285357Y-75272857D01*
X132171071Y-75215714D01*
X132113928Y-75101428D01*
X132113928Y-74644285D01*
X132171071Y-74530000D01*
X132285357Y-74472857D01*
X132513928Y-74472857D01*
X132628214Y-74530000D01*
X132685357Y-74644285D01*
X132685357Y-74758571D01*
X132113928Y-74872857D01*
X119771071Y-76237142D02*
X119828214Y-76180000D01*
X119942500Y-76122857D01*
X120228214Y-76122857D01*
X120342500Y-76180000D01*
X120399642Y-76237142D01*
X120456785Y-76351428D01*
X120456785Y-76465714D01*
X120399642Y-76637142D01*
X119713928Y-77322857D01*
X120456785Y-77322857D01*
X121199642Y-76122857D02*
X121313928Y-76122857D01*
X121428214Y-76180000D01*
X121485357Y-76237142D01*
X121542500Y-76351428D01*
X121599642Y-76580000D01*
X121599642Y-76865714D01*
X121542500Y-77094285D01*
X121485357Y-77208571D01*
X121428214Y-77265714D01*
X121313928Y-77322857D01*
X121199642Y-77322857D01*
X121085357Y-77265714D01*
X121028214Y-77208571D01*
X120971071Y-77094285D01*
X120913928Y-76865714D01*
X120913928Y-76580000D01*
X120971071Y-76351428D01*
X121028214Y-76237142D01*
X121085357Y-76180000D01*
X121199642Y-76122857D01*
X122742500Y-77322857D02*
X122056785Y-77322857D01*
X122399642Y-77322857D02*
X122399642Y-76122857D01*
X122285357Y-76294285D01*
X122171071Y-76408571D01*
X122056785Y-76465714D01*
X123428214Y-76637142D02*
X123313928Y-76580000D01*
X123256785Y-76522857D01*
X123199642Y-76408571D01*
X123199642Y-76351428D01*
X123256785Y-76237142D01*
X123313928Y-76180000D01*
X123428214Y-76122857D01*
X123656785Y-76122857D01*
X123771071Y-76180000D01*
X123828214Y-76237142D01*
X123885357Y-76351428D01*
X123885357Y-76408571D01*
X123828214Y-76522857D01*
X123771071Y-76580000D01*
X123656785Y-76637142D01*
X123428214Y-76637142D01*
X123313928Y-76694285D01*
X123256785Y-76751428D01*
X123199642Y-76865714D01*
X123199642Y-77094285D01*
X123256785Y-77208571D01*
X123313928Y-77265714D01*
X123428214Y-77322857D01*
X123656785Y-77322857D01*
X123771071Y-77265714D01*
X123828214Y-77208571D01*
X123885357Y-77094285D01*
X123885357Y-76865714D01*
X123828214Y-76751428D01*
X123771071Y-76694285D01*
X123656785Y-76637142D01*
X124399642Y-76865714D02*
X125313928Y-76865714D01*
X126113928Y-76122857D02*
X126228214Y-76122857D01*
X126342500Y-76180000D01*
X126399642Y-76237142D01*
X126456785Y-76351428D01*
X126513928Y-76580000D01*
X126513928Y-76865714D01*
X126456785Y-77094285D01*
X126399642Y-77208571D01*
X126342500Y-77265714D01*
X126228214Y-77322857D01*
X126113928Y-77322857D01*
X125999642Y-77265714D01*
X125942500Y-77208571D01*
X125885357Y-77094285D01*
X125828214Y-76865714D01*
X125828214Y-76580000D01*
X125885357Y-76351428D01*
X125942500Y-76237142D01*
X125999642Y-76180000D01*
X126113928Y-76122857D01*
X126913928Y-76122857D02*
X127713928Y-76122857D01*
X127199642Y-77322857D01*
X128171071Y-76865714D02*
X129085357Y-76865714D01*
X130285357Y-77322857D02*
X129599642Y-77322857D01*
X129942500Y-77322857D02*
X129942500Y-76122857D01*
X129828214Y-76294285D01*
X129713928Y-76408571D01*
X129599642Y-76465714D01*
X130971071Y-76637142D02*
X130856785Y-76580000D01*
X130799642Y-76522857D01*
X130742500Y-76408571D01*
X130742500Y-76351428D01*
X130799642Y-76237142D01*
X130856785Y-76180000D01*
X130971071Y-76122857D01*
X131199642Y-76122857D01*
X131313928Y-76180000D01*
X131371071Y-76237142D01*
X131428214Y-76351428D01*
X131428214Y-76408571D01*
X131371071Y-76522857D01*
X131313928Y-76580000D01*
X131199642Y-76637142D01*
X130971071Y-76637142D01*
X130856785Y-76694285D01*
X130799642Y-76751428D01*
X130742500Y-76865714D01*
X130742500Y-77094285D01*
X130799642Y-77208571D01*
X130856785Y-77265714D01*
X130971071Y-77322857D01*
X131199642Y-77322857D01*
X131313928Y-77265714D01*
X131371071Y-77208571D01*
X131428214Y-77094285D01*
X131428214Y-76865714D01*
X131371071Y-76751428D01*
X131313928Y-76694285D01*
X131199642Y-76637142D01*
D11*
G04 #@! TO.C,Q36*
X33020000Y-68580000D03*
X33020000Y-66040000D03*
D12*
X33020000Y-71120000D03*
G04 #@! TD*
G04 #@! TO.C,Q53*
X73660000Y-78740000D03*
D11*
X73660000Y-73660000D03*
X73660000Y-76200000D03*
G04 #@! TD*
D12*
G04 #@! TO.C,Q5*
X57150000Y-44450000D03*
D11*
X57150000Y-49530000D03*
X57150000Y-46990000D03*
G04 #@! TD*
G04 #@! TO.C,Q12*
X97790000Y-46990000D03*
X97790000Y-49530000D03*
D12*
X97790000Y-44450000D03*
G04 #@! TD*
D13*
G04 #@! TO.C,Q95*
X134620000Y-38275000D03*
X135570000Y-41275000D03*
X133670000Y-41275000D03*
G04 #@! TD*
G04 #@! TO.C,Q92*
X142240000Y-33830000D03*
X143190000Y-36830000D03*
X141290000Y-36830000D03*
G04 #@! TD*
D14*
G04 #@! TO.C,R57*
X116840000Y-47957500D03*
X116840000Y-46022500D03*
G04 #@! TD*
D13*
G04 #@! TO.C,Q89*
X121605000Y-48260000D03*
X123505000Y-48260000D03*
X122555000Y-45260000D03*
G04 #@! TD*
D15*
G04 #@! TO.C,J7*
X147320000Y-27940000D03*
X147320000Y-30480000D03*
X144780000Y-30480000D03*
X144780000Y-27940000D03*
G04 #@! TD*
D11*
G04 #@! TO.C,J1*
X25400000Y-20320000D03*
X27940000Y-20320000D03*
X30480000Y-20320000D03*
X33020000Y-20320000D03*
X35560000Y-20320000D03*
X38100000Y-20320000D03*
X40640000Y-20320000D03*
X43180000Y-20320000D03*
X43180000Y-17780000D03*
X40640000Y-17780000D03*
X38100000Y-17780000D03*
X35560000Y-17780000D03*
X33020000Y-17780000D03*
X30480000Y-17780000D03*
X27940000Y-17780000D03*
X25400000Y-17780000D03*
G04 #@! TD*
G04 #@! TO.C,J2*
X48260000Y-20320000D03*
X50800000Y-20320000D03*
X53340000Y-20320000D03*
X55880000Y-20320000D03*
X58420000Y-20320000D03*
X60960000Y-20320000D03*
X63500000Y-20320000D03*
X66040000Y-20320000D03*
X66040000Y-17780000D03*
X63500000Y-17780000D03*
X60960000Y-17780000D03*
X58420000Y-17780000D03*
X55880000Y-17780000D03*
X53340000Y-17780000D03*
X50800000Y-17780000D03*
X48260000Y-17780000D03*
G04 #@! TD*
G04 #@! TO.C,J3*
X71120000Y-20320000D03*
X73660000Y-20320000D03*
X76200000Y-20320000D03*
X78740000Y-20320000D03*
X81280000Y-20320000D03*
X83820000Y-20320000D03*
X86360000Y-20320000D03*
X88900000Y-20320000D03*
X88900000Y-17780000D03*
X86360000Y-17780000D03*
X83820000Y-17780000D03*
X81280000Y-17780000D03*
X78740000Y-17780000D03*
X76200000Y-17780000D03*
X73660000Y-17780000D03*
X71120000Y-17780000D03*
G04 #@! TD*
G04 #@! TO.C,J4*
X93980000Y-20320000D03*
X96520000Y-20320000D03*
X99060000Y-20320000D03*
X101600000Y-20320000D03*
X104140000Y-20320000D03*
X106680000Y-20320000D03*
X109220000Y-20320000D03*
X111760000Y-20320000D03*
X111760000Y-17780000D03*
X109220000Y-17780000D03*
X106680000Y-17780000D03*
X104140000Y-17780000D03*
X101600000Y-17780000D03*
X99060000Y-17780000D03*
X96520000Y-17780000D03*
X93980000Y-17780000D03*
G04 #@! TD*
G04 #@! TO.C,J6*
X124460000Y-20320000D03*
X127000000Y-20320000D03*
X129540000Y-20320000D03*
X132080000Y-20320000D03*
X134620000Y-20320000D03*
X137160000Y-20320000D03*
X139700000Y-20320000D03*
X142240000Y-20320000D03*
X142240000Y-17780000D03*
X139700000Y-17780000D03*
X137160000Y-17780000D03*
X134620000Y-17780000D03*
X132080000Y-17780000D03*
X129540000Y-17780000D03*
X127000000Y-17780000D03*
X124460000Y-17780000D03*
G04 #@! TD*
D15*
G04 #@! TO.C,J5*
X116840000Y-20320000D03*
X119380000Y-20320000D03*
X119380000Y-17780000D03*
X116840000Y-17780000D03*
G04 #@! TD*
D16*
G04 #@! TO.C,R1*
X39370000Y-49530000D03*
D11*
X39370000Y-44450000D03*
G04 #@! TD*
D16*
G04 #@! TO.C,R2*
X48260000Y-49530000D03*
D11*
X48260000Y-44450000D03*
G04 #@! TD*
D16*
G04 #@! TO.C,R3*
X66040000Y-49530000D03*
D11*
X66040000Y-44450000D03*
G04 #@! TD*
D16*
G04 #@! TO.C,R4*
X71120000Y-49530000D03*
D11*
X71120000Y-44450000D03*
G04 #@! TD*
D16*
G04 #@! TO.C,R5*
X88900000Y-49530000D03*
D11*
X88900000Y-44450000D03*
G04 #@! TD*
D16*
G04 #@! TO.C,R6*
X93980000Y-49530000D03*
D11*
X93980000Y-44450000D03*
G04 #@! TD*
D16*
G04 #@! TO.C,R7*
X111760000Y-49530000D03*
D11*
X111760000Y-44450000D03*
G04 #@! TD*
D16*
G04 #@! TO.C,R8*
X115570000Y-66040000D03*
D11*
X115570000Y-71120000D03*
G04 #@! TD*
D16*
G04 #@! TO.C,R9*
X115570000Y-58420000D03*
D11*
X115570000Y-63500000D03*
G04 #@! TD*
D16*
G04 #@! TO.C,R10*
X115570000Y-73660000D03*
D11*
X115570000Y-78740000D03*
G04 #@! TD*
D16*
G04 #@! TO.C,R11*
X106680000Y-58420000D03*
D11*
X106680000Y-63500000D03*
G04 #@! TD*
D16*
G04 #@! TO.C,R12*
X92710000Y-66040000D03*
D11*
X92710000Y-71120000D03*
G04 #@! TD*
D16*
G04 #@! TO.C,R13*
X92710000Y-58420000D03*
D11*
X92710000Y-63500000D03*
G04 #@! TD*
D16*
G04 #@! TO.C,R14*
X92710000Y-73660000D03*
D11*
X92710000Y-78740000D03*
G04 #@! TD*
D16*
G04 #@! TO.C,R16*
X69850000Y-66040000D03*
D11*
X69850000Y-71120000D03*
G04 #@! TD*
D16*
G04 #@! TO.C,R17*
X69850000Y-58420000D03*
D11*
X69850000Y-63500000D03*
G04 #@! TD*
D16*
G04 #@! TO.C,R18*
X69850000Y-73660000D03*
D11*
X69850000Y-78740000D03*
G04 #@! TD*
D16*
G04 #@! TO.C,R19*
X60960000Y-58420000D03*
D11*
X60960000Y-63500000D03*
G04 #@! TD*
D16*
G04 #@! TO.C,R20*
X46990000Y-66040000D03*
D11*
X46990000Y-71120000D03*
G04 #@! TD*
D16*
G04 #@! TO.C,R21*
X46990000Y-58420000D03*
D11*
X46990000Y-63500000D03*
G04 #@! TD*
D16*
G04 #@! TO.C,R22*
X46990000Y-73660000D03*
D11*
X46990000Y-78740000D03*
G04 #@! TD*
D16*
G04 #@! TO.C,R15*
X83820000Y-58420000D03*
D11*
X83820000Y-63500000D03*
G04 #@! TD*
D16*
G04 #@! TO.C,R23*
X38100000Y-58420000D03*
D11*
X38100000Y-63500000D03*
G04 #@! TD*
D17*
G04 #@! TO.C,D1*
X43180000Y-25400000D03*
X43180000Y-27160000D03*
G04 #@! TD*
G04 #@! TO.C,D2*
X40640000Y-27160000D03*
X40640000Y-25400000D03*
G04 #@! TD*
G04 #@! TO.C,D3*
X38100000Y-27160000D03*
X38100000Y-25400000D03*
G04 #@! TD*
G04 #@! TO.C,D4*
X35560000Y-25400000D03*
X35560000Y-27160000D03*
G04 #@! TD*
G04 #@! TO.C,D5*
X33020000Y-25400000D03*
X33020000Y-27160000D03*
G04 #@! TD*
G04 #@! TO.C,D6*
X30480000Y-25400000D03*
X30480000Y-27160000D03*
G04 #@! TD*
G04 #@! TO.C,D7*
X27940000Y-27160000D03*
X27940000Y-25400000D03*
G04 #@! TD*
G04 #@! TO.C,D8*
X25400000Y-25400000D03*
X25400000Y-27160000D03*
G04 #@! TD*
G04 #@! TO.C,D9*
X66040000Y-27160000D03*
X66040000Y-25400000D03*
G04 #@! TD*
G04 #@! TO.C,D10*
X63500000Y-25400000D03*
X63500000Y-27160000D03*
G04 #@! TD*
G04 #@! TO.C,D11*
X60960000Y-27160000D03*
X60960000Y-25400000D03*
G04 #@! TD*
G04 #@! TO.C,D12*
X58420000Y-25400000D03*
X58420000Y-27160000D03*
G04 #@! TD*
G04 #@! TO.C,D13*
X55880000Y-27160000D03*
X55880000Y-25400000D03*
G04 #@! TD*
G04 #@! TO.C,D14*
X53340000Y-27160000D03*
X53340000Y-25400000D03*
G04 #@! TD*
G04 #@! TO.C,D15*
X50800000Y-25400000D03*
X50800000Y-27160000D03*
G04 #@! TD*
G04 #@! TO.C,D16*
X48260000Y-25400000D03*
X48260000Y-27160000D03*
G04 #@! TD*
G04 #@! TO.C,D17*
X88900000Y-27160000D03*
X88900000Y-25400000D03*
G04 #@! TD*
G04 #@! TO.C,D18*
X86360000Y-27160000D03*
X86360000Y-25400000D03*
G04 #@! TD*
G04 #@! TO.C,D19*
X83820000Y-25400000D03*
X83820000Y-27160000D03*
G04 #@! TD*
G04 #@! TO.C,D20*
X81280000Y-25400000D03*
X81280000Y-27160000D03*
G04 #@! TD*
G04 #@! TO.C,D21*
X78740000Y-27160000D03*
X78740000Y-25400000D03*
G04 #@! TD*
G04 #@! TO.C,D22*
X76200000Y-25400000D03*
X76200000Y-27160000D03*
G04 #@! TD*
G04 #@! TO.C,D23*
X73660000Y-27160000D03*
X73660000Y-25400000D03*
G04 #@! TD*
G04 #@! TO.C,D24*
X71120000Y-27160000D03*
X71120000Y-25400000D03*
G04 #@! TD*
G04 #@! TO.C,D25*
X111760000Y-27160000D03*
X111760000Y-25400000D03*
G04 #@! TD*
G04 #@! TO.C,D26*
X109220000Y-25400000D03*
X109220000Y-27160000D03*
G04 #@! TD*
G04 #@! TO.C,D27*
X106680000Y-27160000D03*
X106680000Y-25400000D03*
G04 #@! TD*
G04 #@! TO.C,D28*
X104140000Y-25400000D03*
X104140000Y-27160000D03*
G04 #@! TD*
G04 #@! TO.C,D29*
X101600000Y-27160000D03*
X101600000Y-25400000D03*
G04 #@! TD*
G04 #@! TO.C,D30*
X99060000Y-27160000D03*
X99060000Y-25400000D03*
G04 #@! TD*
G04 #@! TO.C,D31*
X96520000Y-25400000D03*
X96520000Y-27160000D03*
G04 #@! TD*
G04 #@! TO.C,D32*
X93980000Y-25400000D03*
X93980000Y-27160000D03*
G04 #@! TD*
D18*
G04 #@! TO.C,D33*
X38490000Y-22860000D03*
X40250000Y-22860000D03*
G04 #@! TD*
G04 #@! TO.C,D34*
X61350000Y-22860000D03*
X63110000Y-22860000D03*
G04 #@! TD*
G04 #@! TO.C,D35*
X85970000Y-22860000D03*
X84210000Y-22860000D03*
G04 #@! TD*
G04 #@! TO.C,D36*
X107070000Y-22860000D03*
X108830000Y-22860000D03*
G04 #@! TD*
D17*
G04 #@! TO.C,D37*
X142240000Y-27160000D03*
X142240000Y-25400000D03*
G04 #@! TD*
G04 #@! TO.C,D38*
X139700000Y-27160000D03*
X139700000Y-25400000D03*
G04 #@! TD*
G04 #@! TO.C,D39*
X137160000Y-25400000D03*
X137160000Y-27160000D03*
G04 #@! TD*
G04 #@! TO.C,D40*
X134620000Y-25400000D03*
X134620000Y-27160000D03*
G04 #@! TD*
G04 #@! TO.C,D41*
X132080000Y-27160000D03*
X132080000Y-25400000D03*
G04 #@! TD*
G04 #@! TO.C,D42*
X129540000Y-27160000D03*
X129540000Y-25400000D03*
G04 #@! TD*
G04 #@! TO.C,D43*
X127000000Y-25400000D03*
X127000000Y-27160000D03*
G04 #@! TD*
G04 #@! TO.C,D44*
X124460000Y-27160000D03*
X124460000Y-25400000D03*
G04 #@! TD*
D11*
G04 #@! TO.C,Q1*
X30480000Y-46990000D03*
X30480000Y-49530000D03*
D12*
X30480000Y-44450000D03*
G04 #@! TD*
G04 #@! TO.C,Q2*
X35560000Y-44450000D03*
D11*
X35560000Y-49530000D03*
X35560000Y-46990000D03*
G04 #@! TD*
D12*
G04 #@! TO.C,Q3*
X27940000Y-63500000D03*
D11*
X27940000Y-58420000D03*
X27940000Y-60960000D03*
G04 #@! TD*
G04 #@! TO.C,Q4*
X52070000Y-46990000D03*
X52070000Y-49530000D03*
D12*
X52070000Y-44450000D03*
G04 #@! TD*
G04 #@! TO.C,Q6*
X62230000Y-44450000D03*
D11*
X62230000Y-49530000D03*
X62230000Y-46990000D03*
G04 #@! TD*
D12*
G04 #@! TO.C,Q7*
X50800000Y-63500000D03*
D11*
X50800000Y-58420000D03*
X50800000Y-60960000D03*
G04 #@! TD*
G04 #@! TO.C,Q8*
X74930000Y-46990000D03*
X74930000Y-49530000D03*
D12*
X74930000Y-44450000D03*
G04 #@! TD*
G04 #@! TO.C,Q9*
X80010000Y-44450000D03*
D11*
X80010000Y-49530000D03*
X80010000Y-46990000D03*
G04 #@! TD*
D12*
G04 #@! TO.C,Q10*
X85090000Y-44450000D03*
D11*
X85090000Y-49530000D03*
X85090000Y-46990000D03*
G04 #@! TD*
G04 #@! TO.C,Q11*
X73660000Y-60960000D03*
X73660000Y-58420000D03*
D12*
X73660000Y-63500000D03*
G04 #@! TD*
G04 #@! TO.C,Q13*
X102870000Y-44450000D03*
D11*
X102870000Y-49530000D03*
X102870000Y-46990000D03*
G04 #@! TD*
G04 #@! TO.C,Q14*
X107950000Y-46990000D03*
X107950000Y-49530000D03*
D12*
X107950000Y-44450000D03*
G04 #@! TD*
D11*
G04 #@! TO.C,Q15*
X96520000Y-60960000D03*
X96520000Y-58420000D03*
D12*
X96520000Y-63500000D03*
G04 #@! TD*
G04 #@! TO.C,Q16*
X43180000Y-71120000D03*
D11*
X43180000Y-66040000D03*
X43180000Y-68580000D03*
G04 #@! TD*
G04 #@! TO.C,Q17*
X66040000Y-68580000D03*
X66040000Y-66040000D03*
D12*
X66040000Y-71120000D03*
G04 #@! TD*
G04 #@! TO.C,Q18*
X88900000Y-71120000D03*
D11*
X88900000Y-66040000D03*
X88900000Y-68580000D03*
G04 #@! TD*
G04 #@! TO.C,Q19*
X111760000Y-68580000D03*
X111760000Y-66040000D03*
D12*
X111760000Y-71120000D03*
G04 #@! TD*
G04 #@! TO.C,Q20*
X111760000Y-63500000D03*
D11*
X111760000Y-58420000D03*
X111760000Y-60960000D03*
G04 #@! TD*
G04 #@! TO.C,Q21*
X43180000Y-76200000D03*
X43180000Y-73660000D03*
D12*
X43180000Y-78740000D03*
G04 #@! TD*
G04 #@! TO.C,Q22*
X66040000Y-78740000D03*
D11*
X66040000Y-73660000D03*
X66040000Y-76200000D03*
G04 #@! TD*
G04 #@! TO.C,Q23*
X88900000Y-76200000D03*
X88900000Y-73660000D03*
D12*
X88900000Y-78740000D03*
G04 #@! TD*
G04 #@! TO.C,Q24*
X111760000Y-78740000D03*
D11*
X111760000Y-73660000D03*
X111760000Y-76200000D03*
G04 #@! TD*
G04 #@! TO.C,Q25*
X101600000Y-60960000D03*
X101600000Y-58420000D03*
D12*
X101600000Y-63500000D03*
G04 #@! TD*
D11*
G04 #@! TO.C,Q26*
X38100000Y-68580000D03*
X38100000Y-66040000D03*
D12*
X38100000Y-71120000D03*
G04 #@! TD*
G04 #@! TO.C,Q27*
X60960000Y-71120000D03*
D11*
X60960000Y-66040000D03*
X60960000Y-68580000D03*
G04 #@! TD*
G04 #@! TO.C,Q28*
X83820000Y-68580000D03*
X83820000Y-66040000D03*
D12*
X83820000Y-71120000D03*
G04 #@! TD*
G04 #@! TO.C,Q29*
X106680000Y-71120000D03*
D11*
X106680000Y-66040000D03*
X106680000Y-68580000D03*
G04 #@! TD*
D12*
G04 #@! TO.C,Q30*
X88900000Y-63500000D03*
D11*
X88900000Y-58420000D03*
X88900000Y-60960000D03*
G04 #@! TD*
G04 #@! TO.C,Q31*
X38100000Y-76200000D03*
X38100000Y-73660000D03*
D12*
X38100000Y-78740000D03*
G04 #@! TD*
D11*
G04 #@! TO.C,Q32*
X60960000Y-76200000D03*
X60960000Y-73660000D03*
D12*
X60960000Y-78740000D03*
G04 #@! TD*
G04 #@! TO.C,Q33*
X83820000Y-78740000D03*
D11*
X83820000Y-73660000D03*
X83820000Y-76200000D03*
G04 #@! TD*
G04 #@! TO.C,Q34*
X106680000Y-76200000D03*
X106680000Y-73660000D03*
D12*
X106680000Y-78740000D03*
G04 #@! TD*
G04 #@! TO.C,Q35*
X78740000Y-63500000D03*
D11*
X78740000Y-58420000D03*
X78740000Y-60960000D03*
G04 #@! TD*
D12*
G04 #@! TO.C,Q37*
X55880000Y-71120000D03*
D11*
X55880000Y-66040000D03*
X55880000Y-68580000D03*
G04 #@! TD*
D12*
G04 #@! TO.C,Q38*
X78740000Y-71120000D03*
D11*
X78740000Y-66040000D03*
X78740000Y-68580000D03*
G04 #@! TD*
G04 #@! TO.C,Q39*
X101600000Y-68580000D03*
X101600000Y-66040000D03*
D12*
X101600000Y-71120000D03*
G04 #@! TD*
G04 #@! TO.C,Q40*
X66040000Y-63500000D03*
D11*
X66040000Y-58420000D03*
X66040000Y-60960000D03*
G04 #@! TD*
D12*
G04 #@! TO.C,Q41*
X33020000Y-78740000D03*
D11*
X33020000Y-73660000D03*
X33020000Y-76200000D03*
G04 #@! TD*
G04 #@! TO.C,Q42*
X55880000Y-76200000D03*
X55880000Y-73660000D03*
D12*
X55880000Y-78740000D03*
G04 #@! TD*
G04 #@! TO.C,Q43*
X78740000Y-78740000D03*
D11*
X78740000Y-73660000D03*
X78740000Y-76200000D03*
G04 #@! TD*
G04 #@! TO.C,Q44*
X101600000Y-76200000D03*
X101600000Y-73660000D03*
D12*
X101600000Y-78740000D03*
G04 #@! TD*
G04 #@! TO.C,Q45*
X55880000Y-63500000D03*
D11*
X55880000Y-58420000D03*
X55880000Y-60960000D03*
G04 #@! TD*
G04 #@! TO.C,Q46*
X27940000Y-68580000D03*
X27940000Y-66040000D03*
D12*
X27940000Y-71120000D03*
G04 #@! TD*
D11*
G04 #@! TO.C,Q47*
X50800000Y-68580000D03*
X50800000Y-66040000D03*
D12*
X50800000Y-71120000D03*
G04 #@! TD*
D13*
G04 #@! TO.C,Q84*
X100650000Y-36830000D03*
X102550000Y-36830000D03*
X101600000Y-33830000D03*
G04 #@! TD*
G04 #@! TO.C,Q85*
X98110000Y-41275000D03*
X100010000Y-41275000D03*
X99060000Y-38275000D03*
G04 #@! TD*
G04 #@! TO.C,Q86*
X95570000Y-36830000D03*
X97470000Y-36830000D03*
X96520000Y-33830000D03*
G04 #@! TD*
G04 #@! TO.C,Q87*
X93030000Y-41275000D03*
X94930000Y-41275000D03*
X93980000Y-38275000D03*
G04 #@! TD*
G04 #@! TO.C,Q90*
X118430000Y-41275000D03*
X120330000Y-41275000D03*
X119380000Y-38275000D03*
G04 #@! TD*
G04 #@! TO.C,Q91*
X115890000Y-36830000D03*
X117790000Y-36830000D03*
X116840000Y-33830000D03*
G04 #@! TD*
D14*
G04 #@! TO.C,R24*
X43180000Y-29512500D03*
X43180000Y-31447500D03*
G04 #@! TD*
G04 #@! TO.C,R25*
X40640000Y-31447500D03*
X40640000Y-29512500D03*
G04 #@! TD*
G04 #@! TO.C,R26*
X38100000Y-31447500D03*
X38100000Y-29512500D03*
G04 #@! TD*
G04 #@! TO.C,R27*
X35560000Y-31447500D03*
X35560000Y-29512500D03*
G04 #@! TD*
G04 #@! TO.C,R28*
X33020000Y-29512500D03*
X33020000Y-31447500D03*
G04 #@! TD*
G04 #@! TO.C,R29*
X30480000Y-31447500D03*
X30480000Y-29512500D03*
G04 #@! TD*
G04 #@! TO.C,R30*
X27940000Y-29512500D03*
X27940000Y-31447500D03*
G04 #@! TD*
G04 #@! TO.C,R31*
X25400000Y-31447500D03*
X25400000Y-29512500D03*
G04 #@! TD*
G04 #@! TO.C,R32*
X66040000Y-29512500D03*
X66040000Y-31447500D03*
G04 #@! TD*
G04 #@! TO.C,R33*
X63500000Y-31447500D03*
X63500000Y-29512500D03*
G04 #@! TD*
G04 #@! TO.C,R34*
X60960000Y-29512500D03*
X60960000Y-31447500D03*
G04 #@! TD*
G04 #@! TO.C,R35*
X58420000Y-31447500D03*
X58420000Y-29512500D03*
G04 #@! TD*
G04 #@! TO.C,R36*
X55880000Y-29512500D03*
X55880000Y-31447500D03*
G04 #@! TD*
G04 #@! TO.C,R37*
X53340000Y-31447500D03*
X53340000Y-29512500D03*
G04 #@! TD*
G04 #@! TO.C,R38*
X50800000Y-29512500D03*
X50800000Y-31447500D03*
G04 #@! TD*
G04 #@! TO.C,R39*
X48260000Y-31447500D03*
X48260000Y-29512500D03*
G04 #@! TD*
G04 #@! TO.C,R40*
X88900000Y-29512500D03*
X88900000Y-31447500D03*
G04 #@! TD*
G04 #@! TO.C,R41*
X86360000Y-31447500D03*
X86360000Y-29512500D03*
G04 #@! TD*
G04 #@! TO.C,R42*
X83820000Y-29512500D03*
X83820000Y-31447500D03*
G04 #@! TD*
G04 #@! TO.C,R43*
X81280000Y-31447500D03*
X81280000Y-29512500D03*
G04 #@! TD*
G04 #@! TO.C,R44*
X78740000Y-29512500D03*
X78740000Y-31447500D03*
G04 #@! TD*
G04 #@! TO.C,R45*
X76200000Y-31447500D03*
X76200000Y-29512500D03*
G04 #@! TD*
G04 #@! TO.C,R46*
X73660000Y-29512500D03*
X73660000Y-31447500D03*
G04 #@! TD*
G04 #@! TO.C,R47*
X71120000Y-31447500D03*
X71120000Y-29512500D03*
G04 #@! TD*
G04 #@! TO.C,R48*
X111760000Y-29512500D03*
X111760000Y-31447500D03*
G04 #@! TD*
G04 #@! TO.C,R49*
X109220000Y-31447500D03*
X109220000Y-29512500D03*
G04 #@! TD*
G04 #@! TO.C,R50*
X106680000Y-29512500D03*
X106680000Y-31447500D03*
G04 #@! TD*
G04 #@! TO.C,R51*
X104140000Y-31447500D03*
X104140000Y-29512500D03*
G04 #@! TD*
G04 #@! TO.C,R52*
X101600000Y-29512500D03*
X101600000Y-31447500D03*
G04 #@! TD*
G04 #@! TO.C,R53*
X99060000Y-31447500D03*
X99060000Y-29512500D03*
G04 #@! TD*
G04 #@! TO.C,R54*
X96520000Y-29512500D03*
X96520000Y-31447500D03*
G04 #@! TD*
G04 #@! TO.C,R55*
X93980000Y-29512500D03*
X93980000Y-31447500D03*
G04 #@! TD*
G04 #@! TO.C,R56*
X43180000Y-46022500D03*
X43180000Y-47957500D03*
G04 #@! TD*
G04 #@! TO.C,R58*
X119380000Y-28242500D03*
X119380000Y-30177500D03*
G04 #@! TD*
G04 #@! TO.C,R59*
X116840000Y-30177500D03*
X116840000Y-28242500D03*
G04 #@! TD*
D12*
G04 #@! TO.C,Q48*
X73660000Y-71120000D03*
D11*
X73660000Y-66040000D03*
X73660000Y-68580000D03*
G04 #@! TD*
G04 #@! TO.C,Q49*
X96520000Y-68580000D03*
X96520000Y-66040000D03*
D12*
X96520000Y-71120000D03*
G04 #@! TD*
D11*
G04 #@! TO.C,Q50*
X43180000Y-60960000D03*
X43180000Y-58420000D03*
D12*
X43180000Y-63500000D03*
G04 #@! TD*
G04 #@! TO.C,Q51*
X27940000Y-78740000D03*
D11*
X27940000Y-73660000D03*
X27940000Y-76200000D03*
G04 #@! TD*
G04 #@! TO.C,Q52*
X50800000Y-76200000D03*
X50800000Y-73660000D03*
D12*
X50800000Y-78740000D03*
G04 #@! TD*
G04 #@! TO.C,Q54*
X96520000Y-78740000D03*
D11*
X96520000Y-73660000D03*
X96520000Y-76200000D03*
G04 #@! TD*
D12*
G04 #@! TO.C,Q55*
X33020000Y-63500000D03*
D11*
X33020000Y-58420000D03*
X33020000Y-60960000D03*
G04 #@! TD*
D13*
G04 #@! TO.C,Q93*
X138750000Y-41275000D03*
X140650000Y-41275000D03*
X139700000Y-38275000D03*
G04 #@! TD*
G04 #@! TO.C,Q94*
X137160000Y-33830000D03*
X138110000Y-36830000D03*
X136210000Y-36830000D03*
G04 #@! TD*
G04 #@! TO.C,Q96*
X131130000Y-36830000D03*
X133030000Y-36830000D03*
X132080000Y-33830000D03*
G04 #@! TD*
G04 #@! TO.C,Q97*
X129540000Y-38275000D03*
X130490000Y-41275000D03*
X128590000Y-41275000D03*
G04 #@! TD*
G04 #@! TO.C,Q98*
X126050000Y-36830000D03*
X127950000Y-36830000D03*
X127000000Y-33830000D03*
G04 #@! TD*
G04 #@! TO.C,Q99*
X124460000Y-38275000D03*
X125410000Y-41275000D03*
X123510000Y-41275000D03*
G04 #@! TD*
D14*
G04 #@! TO.C,R60*
X142240000Y-31447500D03*
X142240000Y-29512500D03*
G04 #@! TD*
G04 #@! TO.C,R61*
X139700000Y-29512500D03*
X139700000Y-31447500D03*
G04 #@! TD*
G04 #@! TO.C,R62*
X137160000Y-31447500D03*
X137160000Y-29512500D03*
G04 #@! TD*
G04 #@! TO.C,R63*
X134620000Y-29512500D03*
X134620000Y-31447500D03*
G04 #@! TD*
G04 #@! TO.C,R64*
X132080000Y-31447500D03*
X132080000Y-29512500D03*
G04 #@! TD*
G04 #@! TO.C,R65*
X129540000Y-29512500D03*
X129540000Y-31447500D03*
G04 #@! TD*
G04 #@! TO.C,R66*
X127000000Y-29512500D03*
X127000000Y-31447500D03*
G04 #@! TD*
G04 #@! TO.C,R67*
X124460000Y-31447500D03*
X124460000Y-29512500D03*
G04 #@! TD*
D13*
G04 #@! TO.C,Q56*
X42230000Y-36830000D03*
X44130000Y-36830000D03*
X43180000Y-33830000D03*
G04 #@! TD*
G04 #@! TO.C,Q57*
X40640000Y-38275000D03*
X41590000Y-41275000D03*
X39690000Y-41275000D03*
G04 #@! TD*
G04 #@! TO.C,Q58*
X37150000Y-36830000D03*
X39050000Y-36830000D03*
X38100000Y-33830000D03*
G04 #@! TD*
G04 #@! TO.C,Q59*
X35560000Y-38275000D03*
X36510000Y-41275000D03*
X34610000Y-41275000D03*
G04 #@! TD*
G04 #@! TO.C,Q60*
X32070000Y-36830000D03*
X33970000Y-36830000D03*
X33020000Y-33830000D03*
G04 #@! TD*
G04 #@! TO.C,Q61*
X30480000Y-38275000D03*
X31430000Y-41275000D03*
X29530000Y-41275000D03*
G04 #@! TD*
G04 #@! TO.C,Q62*
X26990000Y-36830000D03*
X28890000Y-36830000D03*
X27940000Y-33830000D03*
G04 #@! TD*
G04 #@! TO.C,Q63*
X25400000Y-38275000D03*
X26350000Y-41275000D03*
X24450000Y-41275000D03*
G04 #@! TD*
G04 #@! TO.C,Q64*
X65090000Y-36830000D03*
X66990000Y-36830000D03*
X66040000Y-33830000D03*
G04 #@! TD*
G04 #@! TO.C,Q65*
X63500000Y-38275000D03*
X64450000Y-41275000D03*
X62550000Y-41275000D03*
G04 #@! TD*
G04 #@! TO.C,Q66*
X60010000Y-36830000D03*
X61910000Y-36830000D03*
X60960000Y-33830000D03*
G04 #@! TD*
G04 #@! TO.C,Q67*
X58420000Y-38275000D03*
X59370000Y-41275000D03*
X57470000Y-41275000D03*
G04 #@! TD*
G04 #@! TO.C,Q68*
X54930000Y-36830000D03*
X56830000Y-36830000D03*
X55880000Y-33830000D03*
G04 #@! TD*
G04 #@! TO.C,Q69*
X53340000Y-38275000D03*
X54290000Y-41275000D03*
X52390000Y-41275000D03*
G04 #@! TD*
G04 #@! TO.C,Q70*
X49850000Y-36830000D03*
X51750000Y-36830000D03*
X50800000Y-33830000D03*
G04 #@! TD*
G04 #@! TO.C,Q71*
X48260000Y-38275000D03*
X49210000Y-41275000D03*
X47310000Y-41275000D03*
G04 #@! TD*
G04 #@! TO.C,Q72*
X87950000Y-36830000D03*
X89850000Y-36830000D03*
X88900000Y-33830000D03*
G04 #@! TD*
G04 #@! TO.C,Q73*
X86360000Y-38275000D03*
X87310000Y-41275000D03*
X85410000Y-41275000D03*
G04 #@! TD*
G04 #@! TO.C,Q74*
X82870000Y-36830000D03*
X84770000Y-36830000D03*
X83820000Y-33830000D03*
G04 #@! TD*
G04 #@! TO.C,Q75*
X81280000Y-38275000D03*
X82230000Y-41275000D03*
X80330000Y-41275000D03*
G04 #@! TD*
G04 #@! TO.C,Q76*
X77790000Y-36830000D03*
X79690000Y-36830000D03*
X78740000Y-33830000D03*
G04 #@! TD*
G04 #@! TO.C,Q77*
X76200000Y-38275000D03*
X77150000Y-41275000D03*
X75250000Y-41275000D03*
G04 #@! TD*
G04 #@! TO.C,Q78*
X72710000Y-36830000D03*
X74610000Y-36830000D03*
X73660000Y-33830000D03*
G04 #@! TD*
G04 #@! TO.C,Q79*
X71120000Y-38275000D03*
X72070000Y-41275000D03*
X70170000Y-41275000D03*
G04 #@! TD*
G04 #@! TO.C,Q80*
X110810000Y-36830000D03*
X112710000Y-36830000D03*
X111760000Y-33830000D03*
G04 #@! TD*
G04 #@! TO.C,Q81*
X109220000Y-38275000D03*
X110170000Y-41275000D03*
X108270000Y-41275000D03*
G04 #@! TD*
G04 #@! TO.C,Q82*
X105730000Y-36830000D03*
X107630000Y-36830000D03*
X106680000Y-33830000D03*
G04 #@! TD*
G04 #@! TO.C,Q83*
X104140000Y-38275000D03*
X105090000Y-41275000D03*
X103190000Y-41275000D03*
G04 #@! TD*
D19*
G04 #@! TO.C,JP1*
X144780000Y-25400000D03*
D20*
X147320000Y-25400000D03*
G04 #@! TD*
D21*
G04 #@! TO.C,JP2*
X146775000Y-22860000D03*
D22*
G36*
X147314018Y-21913843D02*
X147351537Y-21925224D01*
X147386114Y-21943706D01*
X147416421Y-21968579D01*
X147441294Y-21998886D01*
X147459776Y-22033463D01*
X147471157Y-22070982D01*
X147475000Y-22110000D01*
X147475000Y-23610000D01*
X147471157Y-23649018D01*
X147459776Y-23686537D01*
X147441294Y-23721114D01*
X147416421Y-23751421D01*
X147386114Y-23776294D01*
X147351537Y-23794776D01*
X147314018Y-23806157D01*
X147275000Y-23810000D01*
X146125000Y-23810000D01*
X146085982Y-23806157D01*
X146048463Y-23794776D01*
X146013886Y-23776294D01*
X145983579Y-23751421D01*
X145958706Y-23721114D01*
X145940224Y-23686537D01*
X145928843Y-23649018D01*
X145925000Y-23610000D01*
X145928843Y-23570982D01*
X145940224Y-23533463D01*
X145958590Y-23499060D01*
X146384630Y-22860000D01*
X145958590Y-22220940D01*
X145940144Y-22186343D01*
X145928802Y-22148813D01*
X145925000Y-22109791D01*
X145928884Y-22070777D01*
X145940304Y-22033270D01*
X145958822Y-21998712D01*
X145983727Y-21968431D01*
X146014060Y-21943590D01*
X146048657Y-21925144D01*
X146086187Y-21913802D01*
X146125000Y-21910000D01*
X147275000Y-21910000D01*
X147314018Y-21913843D01*
X147314018Y-21913843D01*
G37*
D21*
X145325000Y-22860000D03*
D22*
G36*
X145864018Y-21913843D02*
X145901537Y-21925224D01*
X145936114Y-21943706D01*
X145966421Y-21968579D01*
X145991410Y-21999060D01*
X146491410Y-22749060D01*
X146509856Y-22783657D01*
X146521198Y-22821187D01*
X146525000Y-22860209D01*
X146521116Y-22899223D01*
X146509696Y-22936730D01*
X146491410Y-22970940D01*
X145991410Y-23720940D01*
X145966569Y-23751273D01*
X145936288Y-23776178D01*
X145901730Y-23794696D01*
X145864223Y-23806116D01*
X145825000Y-23810000D01*
X144825000Y-23810000D01*
X144785982Y-23806157D01*
X144748463Y-23794776D01*
X144713886Y-23776294D01*
X144683579Y-23751421D01*
X144658706Y-23721114D01*
X144640224Y-23686537D01*
X144628843Y-23649018D01*
X144625000Y-23610000D01*
X144625000Y-22110000D01*
X144628843Y-22070982D01*
X144640224Y-22033463D01*
X144658706Y-21998886D01*
X144683579Y-21968579D01*
X144713886Y-21943706D01*
X144748463Y-21925224D01*
X144785982Y-21913843D01*
X144825000Y-21910000D01*
X145825000Y-21910000D01*
X145864018Y-21913843D01*
X145864018Y-21913843D01*
G37*
G04 #@! TD*
D13*
G04 #@! TO.C,Q88*
X24450000Y-48490000D03*
X26350000Y-48490000D03*
X25400000Y-45490000D03*
G04 #@! TD*
D23*
G04 #@! TO.C,REF\002A\002A*
X146050000Y-19050000D03*
G04 #@! TD*
G04 #@! TO.C,REF\002A\002A*
X21590000Y-19050000D03*
G04 #@! TD*
G04 #@! TO.C,REF\002A\002A*
X146050000Y-77470000D03*
G04 #@! TD*
G04 #@! TO.C,REF\002A\002A*
X21590000Y-77470000D03*
G04 #@! TD*
M02*
