G04 #@! TF.GenerationSoftware,KiCad,Pcbnew,(5.0.0-rc2-200-g1f6f76beb)*
G04 #@! TF.CreationDate,2018-07-18T18:35:48+02:00*
G04 #@! TF.ProjectId,bus-selector,6275732D73656C6563746F722E6B6963,rev?*
G04 #@! TF.SameCoordinates,Original*
G04 #@! TF.FileFunction,Soldermask,Bot*
G04 #@! TF.FilePolarity,Negative*
%FSLAX46Y46*%
G04 Gerber Fmt 4.6, Leading zero omitted, Abs format (unit mm)*
G04 Created by KiCad (PCBNEW (5.0.0-rc2-200-g1f6f76beb)) date Wed Jul 18 18:35:48 2018*
%MOMM*%
%LPD*%
G01*
G04 APERTURE LIST*
%ADD10C,1.800000*%
%ADD11R,1.800000X1.800000*%
%ADD12C,1.924000*%
%ADD13O,1.800000X1.800000*%
%ADD14R,2.100000X2.100000*%
%ADD15O,2.100000X2.100000*%
%ADD16C,4.800000*%
G04 APERTURE END LIST*
D10*
G04 #@! TO.C,Q36*
X33020000Y-68580000D03*
X33020000Y-66040000D03*
D11*
X33020000Y-71120000D03*
G04 #@! TD*
G04 #@! TO.C,Q53*
X73660000Y-78740000D03*
D10*
X73660000Y-73660000D03*
X73660000Y-76200000D03*
G04 #@! TD*
D11*
G04 #@! TO.C,Q5*
X57150000Y-44450000D03*
D10*
X57150000Y-49530000D03*
X57150000Y-46990000D03*
G04 #@! TD*
G04 #@! TO.C,Q12*
X97790000Y-46990000D03*
X97790000Y-49530000D03*
D11*
X97790000Y-44450000D03*
G04 #@! TD*
D12*
G04 #@! TO.C,J7*
X147320000Y-27940000D03*
X147320000Y-30480000D03*
X144780000Y-30480000D03*
X144780000Y-27940000D03*
G04 #@! TD*
D10*
G04 #@! TO.C,J1*
X25400000Y-20320000D03*
X27940000Y-20320000D03*
X30480000Y-20320000D03*
X33020000Y-20320000D03*
X35560000Y-20320000D03*
X38100000Y-20320000D03*
X40640000Y-20320000D03*
X43180000Y-20320000D03*
X43180000Y-17780000D03*
X40640000Y-17780000D03*
X38100000Y-17780000D03*
X35560000Y-17780000D03*
X33020000Y-17780000D03*
X30480000Y-17780000D03*
X27940000Y-17780000D03*
X25400000Y-17780000D03*
G04 #@! TD*
G04 #@! TO.C,J2*
X48260000Y-20320000D03*
X50800000Y-20320000D03*
X53340000Y-20320000D03*
X55880000Y-20320000D03*
X58420000Y-20320000D03*
X60960000Y-20320000D03*
X63500000Y-20320000D03*
X66040000Y-20320000D03*
X66040000Y-17780000D03*
X63500000Y-17780000D03*
X60960000Y-17780000D03*
X58420000Y-17780000D03*
X55880000Y-17780000D03*
X53340000Y-17780000D03*
X50800000Y-17780000D03*
X48260000Y-17780000D03*
G04 #@! TD*
G04 #@! TO.C,J3*
X71120000Y-20320000D03*
X73660000Y-20320000D03*
X76200000Y-20320000D03*
X78740000Y-20320000D03*
X81280000Y-20320000D03*
X83820000Y-20320000D03*
X86360000Y-20320000D03*
X88900000Y-20320000D03*
X88900000Y-17780000D03*
X86360000Y-17780000D03*
X83820000Y-17780000D03*
X81280000Y-17780000D03*
X78740000Y-17780000D03*
X76200000Y-17780000D03*
X73660000Y-17780000D03*
X71120000Y-17780000D03*
G04 #@! TD*
G04 #@! TO.C,J4*
X93980000Y-20320000D03*
X96520000Y-20320000D03*
X99060000Y-20320000D03*
X101600000Y-20320000D03*
X104140000Y-20320000D03*
X106680000Y-20320000D03*
X109220000Y-20320000D03*
X111760000Y-20320000D03*
X111760000Y-17780000D03*
X109220000Y-17780000D03*
X106680000Y-17780000D03*
X104140000Y-17780000D03*
X101600000Y-17780000D03*
X99060000Y-17780000D03*
X96520000Y-17780000D03*
X93980000Y-17780000D03*
G04 #@! TD*
G04 #@! TO.C,J6*
X124460000Y-20320000D03*
X127000000Y-20320000D03*
X129540000Y-20320000D03*
X132080000Y-20320000D03*
X134620000Y-20320000D03*
X137160000Y-20320000D03*
X139700000Y-20320000D03*
X142240000Y-20320000D03*
X142240000Y-17780000D03*
X139700000Y-17780000D03*
X137160000Y-17780000D03*
X134620000Y-17780000D03*
X132080000Y-17780000D03*
X129540000Y-17780000D03*
X127000000Y-17780000D03*
X124460000Y-17780000D03*
G04 #@! TD*
D12*
G04 #@! TO.C,J5*
X116840000Y-20320000D03*
X119380000Y-20320000D03*
X119380000Y-17780000D03*
X116840000Y-17780000D03*
G04 #@! TD*
D13*
G04 #@! TO.C,R1*
X39370000Y-49530000D03*
D10*
X39370000Y-44450000D03*
G04 #@! TD*
D13*
G04 #@! TO.C,R2*
X48260000Y-49530000D03*
D10*
X48260000Y-44450000D03*
G04 #@! TD*
D13*
G04 #@! TO.C,R3*
X66040000Y-49530000D03*
D10*
X66040000Y-44450000D03*
G04 #@! TD*
D13*
G04 #@! TO.C,R4*
X71120000Y-49530000D03*
D10*
X71120000Y-44450000D03*
G04 #@! TD*
D13*
G04 #@! TO.C,R5*
X88900000Y-49530000D03*
D10*
X88900000Y-44450000D03*
G04 #@! TD*
D13*
G04 #@! TO.C,R6*
X93980000Y-49530000D03*
D10*
X93980000Y-44450000D03*
G04 #@! TD*
D13*
G04 #@! TO.C,R7*
X111760000Y-49530000D03*
D10*
X111760000Y-44450000D03*
G04 #@! TD*
D13*
G04 #@! TO.C,R8*
X115570000Y-66040000D03*
D10*
X115570000Y-71120000D03*
G04 #@! TD*
D13*
G04 #@! TO.C,R9*
X115570000Y-58420000D03*
D10*
X115570000Y-63500000D03*
G04 #@! TD*
D13*
G04 #@! TO.C,R10*
X115570000Y-73660000D03*
D10*
X115570000Y-78740000D03*
G04 #@! TD*
D13*
G04 #@! TO.C,R11*
X106680000Y-58420000D03*
D10*
X106680000Y-63500000D03*
G04 #@! TD*
D13*
G04 #@! TO.C,R12*
X92710000Y-66040000D03*
D10*
X92710000Y-71120000D03*
G04 #@! TD*
D13*
G04 #@! TO.C,R13*
X92710000Y-58420000D03*
D10*
X92710000Y-63500000D03*
G04 #@! TD*
D13*
G04 #@! TO.C,R14*
X92710000Y-73660000D03*
D10*
X92710000Y-78740000D03*
G04 #@! TD*
D13*
G04 #@! TO.C,R16*
X69850000Y-66040000D03*
D10*
X69850000Y-71120000D03*
G04 #@! TD*
D13*
G04 #@! TO.C,R17*
X69850000Y-58420000D03*
D10*
X69850000Y-63500000D03*
G04 #@! TD*
D13*
G04 #@! TO.C,R18*
X69850000Y-73660000D03*
D10*
X69850000Y-78740000D03*
G04 #@! TD*
D13*
G04 #@! TO.C,R19*
X60960000Y-58420000D03*
D10*
X60960000Y-63500000D03*
G04 #@! TD*
D13*
G04 #@! TO.C,R20*
X46990000Y-66040000D03*
D10*
X46990000Y-71120000D03*
G04 #@! TD*
D13*
G04 #@! TO.C,R21*
X46990000Y-58420000D03*
D10*
X46990000Y-63500000D03*
G04 #@! TD*
D13*
G04 #@! TO.C,R22*
X46990000Y-73660000D03*
D10*
X46990000Y-78740000D03*
G04 #@! TD*
D13*
G04 #@! TO.C,R15*
X83820000Y-58420000D03*
D10*
X83820000Y-63500000D03*
G04 #@! TD*
D13*
G04 #@! TO.C,R23*
X38100000Y-58420000D03*
D10*
X38100000Y-63500000D03*
G04 #@! TD*
G04 #@! TO.C,Q1*
X30480000Y-46990000D03*
X30480000Y-49530000D03*
D11*
X30480000Y-44450000D03*
G04 #@! TD*
G04 #@! TO.C,Q2*
X35560000Y-44450000D03*
D10*
X35560000Y-49530000D03*
X35560000Y-46990000D03*
G04 #@! TD*
D11*
G04 #@! TO.C,Q3*
X27940000Y-63500000D03*
D10*
X27940000Y-58420000D03*
X27940000Y-60960000D03*
G04 #@! TD*
G04 #@! TO.C,Q4*
X52070000Y-46990000D03*
X52070000Y-49530000D03*
D11*
X52070000Y-44450000D03*
G04 #@! TD*
G04 #@! TO.C,Q6*
X62230000Y-44450000D03*
D10*
X62230000Y-49530000D03*
X62230000Y-46990000D03*
G04 #@! TD*
D11*
G04 #@! TO.C,Q7*
X50800000Y-63500000D03*
D10*
X50800000Y-58420000D03*
X50800000Y-60960000D03*
G04 #@! TD*
G04 #@! TO.C,Q8*
X74930000Y-46990000D03*
X74930000Y-49530000D03*
D11*
X74930000Y-44450000D03*
G04 #@! TD*
G04 #@! TO.C,Q9*
X80010000Y-44450000D03*
D10*
X80010000Y-49530000D03*
X80010000Y-46990000D03*
G04 #@! TD*
D11*
G04 #@! TO.C,Q10*
X85090000Y-44450000D03*
D10*
X85090000Y-49530000D03*
X85090000Y-46990000D03*
G04 #@! TD*
G04 #@! TO.C,Q11*
X73660000Y-60960000D03*
X73660000Y-58420000D03*
D11*
X73660000Y-63500000D03*
G04 #@! TD*
G04 #@! TO.C,Q13*
X102870000Y-44450000D03*
D10*
X102870000Y-49530000D03*
X102870000Y-46990000D03*
G04 #@! TD*
G04 #@! TO.C,Q14*
X107950000Y-46990000D03*
X107950000Y-49530000D03*
D11*
X107950000Y-44450000D03*
G04 #@! TD*
D10*
G04 #@! TO.C,Q15*
X96520000Y-60960000D03*
X96520000Y-58420000D03*
D11*
X96520000Y-63500000D03*
G04 #@! TD*
G04 #@! TO.C,Q16*
X43180000Y-71120000D03*
D10*
X43180000Y-66040000D03*
X43180000Y-68580000D03*
G04 #@! TD*
G04 #@! TO.C,Q17*
X66040000Y-68580000D03*
X66040000Y-66040000D03*
D11*
X66040000Y-71120000D03*
G04 #@! TD*
G04 #@! TO.C,Q18*
X88900000Y-71120000D03*
D10*
X88900000Y-66040000D03*
X88900000Y-68580000D03*
G04 #@! TD*
G04 #@! TO.C,Q19*
X111760000Y-68580000D03*
X111760000Y-66040000D03*
D11*
X111760000Y-71120000D03*
G04 #@! TD*
G04 #@! TO.C,Q20*
X111760000Y-63500000D03*
D10*
X111760000Y-58420000D03*
X111760000Y-60960000D03*
G04 #@! TD*
G04 #@! TO.C,Q21*
X43180000Y-76200000D03*
X43180000Y-73660000D03*
D11*
X43180000Y-78740000D03*
G04 #@! TD*
G04 #@! TO.C,Q22*
X66040000Y-78740000D03*
D10*
X66040000Y-73660000D03*
X66040000Y-76200000D03*
G04 #@! TD*
G04 #@! TO.C,Q23*
X88900000Y-76200000D03*
X88900000Y-73660000D03*
D11*
X88900000Y-78740000D03*
G04 #@! TD*
G04 #@! TO.C,Q24*
X111760000Y-78740000D03*
D10*
X111760000Y-73660000D03*
X111760000Y-76200000D03*
G04 #@! TD*
G04 #@! TO.C,Q25*
X101600000Y-60960000D03*
X101600000Y-58420000D03*
D11*
X101600000Y-63500000D03*
G04 #@! TD*
D10*
G04 #@! TO.C,Q26*
X38100000Y-68580000D03*
X38100000Y-66040000D03*
D11*
X38100000Y-71120000D03*
G04 #@! TD*
G04 #@! TO.C,Q27*
X60960000Y-71120000D03*
D10*
X60960000Y-66040000D03*
X60960000Y-68580000D03*
G04 #@! TD*
G04 #@! TO.C,Q28*
X83820000Y-68580000D03*
X83820000Y-66040000D03*
D11*
X83820000Y-71120000D03*
G04 #@! TD*
G04 #@! TO.C,Q29*
X106680000Y-71120000D03*
D10*
X106680000Y-66040000D03*
X106680000Y-68580000D03*
G04 #@! TD*
D11*
G04 #@! TO.C,Q30*
X88900000Y-63500000D03*
D10*
X88900000Y-58420000D03*
X88900000Y-60960000D03*
G04 #@! TD*
G04 #@! TO.C,Q31*
X38100000Y-76200000D03*
X38100000Y-73660000D03*
D11*
X38100000Y-78740000D03*
G04 #@! TD*
D10*
G04 #@! TO.C,Q32*
X60960000Y-76200000D03*
X60960000Y-73660000D03*
D11*
X60960000Y-78740000D03*
G04 #@! TD*
G04 #@! TO.C,Q33*
X83820000Y-78740000D03*
D10*
X83820000Y-73660000D03*
X83820000Y-76200000D03*
G04 #@! TD*
G04 #@! TO.C,Q34*
X106680000Y-76200000D03*
X106680000Y-73660000D03*
D11*
X106680000Y-78740000D03*
G04 #@! TD*
G04 #@! TO.C,Q35*
X78740000Y-63500000D03*
D10*
X78740000Y-58420000D03*
X78740000Y-60960000D03*
G04 #@! TD*
D11*
G04 #@! TO.C,Q37*
X55880000Y-71120000D03*
D10*
X55880000Y-66040000D03*
X55880000Y-68580000D03*
G04 #@! TD*
D11*
G04 #@! TO.C,Q38*
X78740000Y-71120000D03*
D10*
X78740000Y-66040000D03*
X78740000Y-68580000D03*
G04 #@! TD*
G04 #@! TO.C,Q39*
X101600000Y-68580000D03*
X101600000Y-66040000D03*
D11*
X101600000Y-71120000D03*
G04 #@! TD*
G04 #@! TO.C,Q40*
X66040000Y-63500000D03*
D10*
X66040000Y-58420000D03*
X66040000Y-60960000D03*
G04 #@! TD*
D11*
G04 #@! TO.C,Q41*
X33020000Y-78740000D03*
D10*
X33020000Y-73660000D03*
X33020000Y-76200000D03*
G04 #@! TD*
G04 #@! TO.C,Q42*
X55880000Y-76200000D03*
X55880000Y-73660000D03*
D11*
X55880000Y-78740000D03*
G04 #@! TD*
G04 #@! TO.C,Q43*
X78740000Y-78740000D03*
D10*
X78740000Y-73660000D03*
X78740000Y-76200000D03*
G04 #@! TD*
G04 #@! TO.C,Q44*
X101600000Y-76200000D03*
X101600000Y-73660000D03*
D11*
X101600000Y-78740000D03*
G04 #@! TD*
G04 #@! TO.C,Q45*
X55880000Y-63500000D03*
D10*
X55880000Y-58420000D03*
X55880000Y-60960000D03*
G04 #@! TD*
G04 #@! TO.C,Q46*
X27940000Y-68580000D03*
X27940000Y-66040000D03*
D11*
X27940000Y-71120000D03*
G04 #@! TD*
D10*
G04 #@! TO.C,Q47*
X50800000Y-68580000D03*
X50800000Y-66040000D03*
D11*
X50800000Y-71120000D03*
G04 #@! TD*
G04 #@! TO.C,Q48*
X73660000Y-71120000D03*
D10*
X73660000Y-66040000D03*
X73660000Y-68580000D03*
G04 #@! TD*
G04 #@! TO.C,Q49*
X96520000Y-68580000D03*
X96520000Y-66040000D03*
D11*
X96520000Y-71120000D03*
G04 #@! TD*
D10*
G04 #@! TO.C,Q50*
X43180000Y-60960000D03*
X43180000Y-58420000D03*
D11*
X43180000Y-63500000D03*
G04 #@! TD*
G04 #@! TO.C,Q51*
X27940000Y-78740000D03*
D10*
X27940000Y-73660000D03*
X27940000Y-76200000D03*
G04 #@! TD*
G04 #@! TO.C,Q52*
X50800000Y-76200000D03*
X50800000Y-73660000D03*
D11*
X50800000Y-78740000D03*
G04 #@! TD*
G04 #@! TO.C,Q54*
X96520000Y-78740000D03*
D10*
X96520000Y-73660000D03*
X96520000Y-76200000D03*
G04 #@! TD*
D11*
G04 #@! TO.C,Q55*
X33020000Y-63500000D03*
D10*
X33020000Y-58420000D03*
X33020000Y-60960000D03*
G04 #@! TD*
D14*
G04 #@! TO.C,JP1*
X144780000Y-25400000D03*
D15*
X147320000Y-25400000D03*
G04 #@! TD*
D16*
G04 #@! TO.C,REF\002A\002A*
X146050000Y-19050000D03*
G04 #@! TD*
G04 #@! TO.C,REF\002A\002A*
X21590000Y-19050000D03*
G04 #@! TD*
G04 #@! TO.C,REF\002A\002A*
X146050000Y-77470000D03*
G04 #@! TD*
G04 #@! TO.C,REF\002A\002A*
X21590000Y-77470000D03*
G04 #@! TD*
M02*
