M48
;DRILL file {KiCad (5.0.0-rc2-200-g1f6f76beb)} date Wed Jul 18 18:36:04 2018
;FORMAT={-:-/ absolute / inch / decimal}
FMAT,2
INCH,TZ
T1C0.0118
T2C0.0276
T3C0.0300
T4C0.0394
T5C0.0866
%
G90
G05
M72
T1
X1.Y-1.625
X1.1Y-1.45
X1.2Y-1.625
X1.3Y-1.45
X1.375Y-2.9
X1.4Y-1.625
X1.5Y-1.45
X1.6Y-1.625
X1.7Y-1.45
X1.725Y-1.75
X1.75Y-0.9
X1.75Y-2.425
X1.8Y-2.4
X1.9Y-1.625
X2.Y-1.45
X2.05Y-2.7
X2.0516Y-3.
X2.1Y-1.625
X2.2Y-1.45
X2.3Y-1.625
X2.35Y-1.875
X2.35Y-1.925
X2.4Y-1.45
X2.475Y-2.375
X2.475Y-2.5
X2.5Y-1.625
X2.6Y-1.45
X2.65Y-2.85
X2.7Y-0.9
X2.7Y-1.7
X2.8Y-1.625
X2.8625Y-1.565
X2.875Y-1.75
X2.9Y-1.45
X2.95Y-2.675
X2.95Y-2.975
X3.Y-1.625
X3.05Y-1.975
X3.05Y-2.4
X3.1Y-1.45
X3.15Y-2.9
X3.2Y-1.625
X3.225Y-2.425
X3.225Y-2.5
X3.3Y-1.45
X3.375Y-2.425
X3.375Y-2.5
X3.4Y-1.625
X3.45Y-2.6
X3.45Y-2.835
X3.5Y-1.45
X3.55Y-2.535
X3.7Y-1.625
X3.725Y-2.9
X3.725Y-2.975
X3.735Y-2.6
X3.7381Y-2.6715
X3.75Y-2.075
X3.8Y-1.45
X3.9Y-1.625
X3.925Y-1.75
X3.925Y-1.95
X4.Y-1.45
X4.05Y-1.565
X4.05Y-2.4
X4.05Y-2.8404
X4.1Y-1.625
X4.125Y-2.475
X4.125Y-2.6
X4.2Y-1.45
X4.2Y-1.85
X4.2Y-2.
X4.25Y-2.075
X4.3Y-1.625
X4.4Y-1.45
X4.475Y-0.875
X4.5Y-0.9
X4.525Y-0.95
X4.525Y-1.775
X4.525Y-1.9
X4.525Y-1.975
X4.6Y-1.025
X4.625Y-1.95
X4.6375Y-1.515
X4.7Y-1.025
X4.725Y-2.025
X4.7375Y-1.775
X4.775Y-0.95
X4.775Y-1.975
X4.875Y-2.125
X4.875Y-2.175
X4.875Y-2.225
X4.875Y-2.275
X4.9Y-1.625
X4.9Y-2.15
X4.9Y-2.2
X4.9Y-2.25
X5.Y-1.45
X5.1Y-1.625
X5.2Y-1.45
X5.3Y-1.625
X5.4Y-1.45
X5.5Y-1.625
X5.6Y-1.45
T2
X4.9Y-0.7
X4.9Y-0.8
X5.Y-0.7
X5.Y-0.8
X5.1Y-0.7
X5.1Y-0.8
X5.2Y-0.7
X5.2Y-0.8
X5.3Y-0.7
X5.3Y-0.8
X5.4Y-0.7
X5.4Y-0.8
X5.5Y-0.7
X5.5Y-0.8
X5.6Y-0.7
X5.6Y-0.8
X3.5Y-2.9
X3.5Y-3.
X3.5Y-3.1
X1.2Y-1.75
X1.2Y-1.85
X1.2Y-1.95
X4.55Y-2.9
X4.55Y-3.1
X3.65Y-2.3
X3.65Y-2.5
X1.9Y-1.75
X1.9Y-1.95
X3.35Y-1.75
X3.35Y-1.85
X3.35Y-1.95
X3.3Y-2.9
X3.3Y-3.
X3.3Y-3.1
X2.Y-2.9
X2.Y-3.
X2.Y-3.1
X4.4Y-2.9
X4.4Y-3.
X4.4Y-3.1
X1.9Y-0.7
X1.9Y-0.8
X2.Y-0.7
X2.Y-0.8
X2.1Y-0.7
X2.1Y-0.8
X2.2Y-0.7
X2.2Y-0.8
X2.3Y-0.7
X2.3Y-0.8
X2.4Y-0.7
X2.4Y-0.8
X2.5Y-0.7
X2.5Y-0.8
X2.6Y-0.7
X2.6Y-0.8
X3.7Y-1.75
X3.7Y-1.95
X2.9Y-2.3
X2.9Y-2.4
X2.9Y-2.5
X3.5Y-2.3
X3.5Y-2.4
X3.5Y-2.5
X3.3Y-2.3
X3.3Y-2.5
X1.3Y-2.3
X1.3Y-2.4
X1.3Y-2.5
X3.65Y-2.9
X3.65Y-3.1
X4.05Y-1.75
X4.05Y-1.85
X4.05Y-1.95
X4.Y-2.3
X4.Y-2.4
X4.Y-2.5
X2.25Y-1.75
X2.25Y-1.85
X2.25Y-1.95
X2.45Y-1.75
X2.45Y-1.85
X2.45Y-1.95
X1.5Y-2.9
X1.5Y-3.
X1.5Y-3.1
X2.95Y-1.75
X2.95Y-1.85
X2.95Y-1.95
X1.3Y-2.6
X1.3Y-2.7
X1.3Y-2.8
X2.8Y-0.7
X2.8Y-0.8
X2.9Y-0.7
X2.9Y-0.8
X3.Y-0.7
X3.Y-0.8
X3.1Y-0.7
X3.1Y-0.8
X3.2Y-0.7
X3.2Y-0.8
X3.3Y-0.7
X3.3Y-0.8
X3.4Y-0.7
X3.4Y-0.8
X3.5Y-0.7
X3.5Y-0.8
X2.6Y-2.9
X2.6Y-3.
X2.6Y-3.1
X2.6Y-1.75
X2.6Y-1.95
X2.Y-2.3
X2.Y-2.4
X2.Y-2.5
X2.75Y-2.3
X2.75Y-2.5
X4.55Y-2.6
X4.55Y-2.8
X1.1Y-2.9
X1.1Y-3.
X1.1Y-3.1
X2.9Y-2.9
X2.9Y-3.
X2.9Y-3.1
X1.5Y-2.3
X1.5Y-2.5
X2.4Y-2.6
X2.4Y-2.7
X2.4Y-2.8
X1.4Y-1.75
X1.4Y-1.85
X1.4Y-1.95
X2.05Y-1.75
X2.05Y-1.85
X2.05Y-1.95
X1.7Y-2.6
X1.7Y-2.7
X1.7Y-2.8
X3.8Y-2.6
X3.8Y-2.7
X3.8Y-2.8
X3.8Y-2.9
X3.8Y-3.
X3.8Y-3.1
X4.4Y-2.3
X4.4Y-2.4
X4.4Y-2.5
X4.Y-2.6
X4.Y-2.7
X4.Y-2.8
X2.6Y-2.6
X2.6Y-2.7
X2.6Y-2.8
X4.4Y-1.75
X4.4Y-1.95
X1.55Y-1.75
X1.55Y-1.95
X1.7Y-2.9
X1.7Y-3.
X1.7Y-3.1
X3.1Y-2.3
X3.1Y-2.4
X3.1Y-2.5
X2.75Y-2.9
X2.75Y-3.1
X3.65Y-2.6
X3.65Y-2.8
X3.85Y-1.75
X3.85Y-1.85
X3.85Y-1.95
X3.7Y-0.7
X3.7Y-0.8
X3.8Y-0.7
X3.8Y-0.8
X3.9Y-0.7
X3.9Y-0.8
X4.Y-0.7
X4.Y-0.8
X4.1Y-0.7
X4.1Y-0.8
X4.2Y-0.7
X4.2Y-0.8
X4.3Y-0.7
X4.3Y-0.8
X4.4Y-0.7
X4.4Y-0.8
X1.1Y-2.3
X1.1Y-2.4
X1.1Y-2.5
X1.85Y-2.9
X1.85Y-3.1
X1.85Y-2.6
X1.85Y-2.8
X4.2Y-2.3
X4.2Y-2.5
X1.7Y-2.3
X1.7Y-2.4
X1.7Y-2.5
X3.5Y-2.6
X3.5Y-2.7
X3.5Y-2.8
X1.Y-0.7
X1.Y-0.8
X1.1Y-0.7
X1.1Y-0.8
X1.2Y-0.7
X1.2Y-0.8
X1.3Y-0.7
X1.3Y-0.8
X1.4Y-0.7
X1.4Y-0.8
X1.5Y-0.7
X1.5Y-0.8
X1.6Y-0.7
X1.6Y-0.8
X1.7Y-0.7
X1.7Y-0.8
X3.3Y-2.6
X3.3Y-2.7
X3.3Y-2.8
X2.2Y-2.6
X2.2Y-2.7
X2.2Y-2.8
X1.3Y-2.9
X1.3Y-3.
X1.3Y-3.1
X2.2Y-2.3
X2.2Y-2.4
X2.2Y-2.5
X3.8Y-2.3
X3.8Y-2.4
X3.8Y-2.5
X4.4Y-2.6
X4.4Y-2.7
X4.4Y-2.8
X4.2Y-2.6
X4.2Y-2.7
X4.2Y-2.8
X3.1Y-2.6
X3.1Y-2.7
X3.1Y-2.8
X2.2Y-2.9
X2.2Y-3.
X2.2Y-3.1
X1.1Y-2.6
X1.1Y-2.7
X1.1Y-2.8
X2.75Y-2.6
X2.75Y-2.8
X1.85Y-2.3
X1.85Y-2.5
X4.2Y-2.9
X4.2Y-3.
X4.2Y-3.1
X3.1Y-2.9
X3.1Y-3.
X3.1Y-3.1
X2.Y-2.6
X2.Y-2.7
X2.Y-2.8
X2.4Y-2.3
X2.4Y-2.5
X3.5Y-1.75
X3.5Y-1.95
X2.8Y-1.75
X2.8Y-1.95
X2.9Y-2.6
X2.9Y-2.7
X2.9Y-2.8
X2.6Y-2.3
X2.6Y-2.4
X2.6Y-2.5
X4.Y-2.9
X4.Y-3.
X4.Y-3.1
X4.25Y-1.75
X4.25Y-1.85
X4.25Y-1.95
X1.5Y-2.6
X1.5Y-2.7
X1.5Y-2.8
X4.55Y-2.3
X4.55Y-2.5
X3.15Y-1.75
X3.15Y-1.85
X3.15Y-1.95
X2.4Y-2.9
X2.4Y-3.
X2.4Y-3.1
T3
X5.7Y-1.1
X5.7Y-1.2
X5.8Y-1.1
X5.8Y-1.2
X4.6Y-0.7
X4.6Y-0.8
X4.7Y-0.7
X4.7Y-0.8
T4
X5.7Y-1.
X5.8Y-1.
T5
X0.85Y-0.75
X0.85Y-3.05
X5.75Y-3.05
X5.75Y-0.75
T0
M30
