G04 #@! TF.FileFunction,Soldermask,Bot*
%FSLAX46Y46*%
G04 Gerber Fmt 4.6, Leading zero omitted, Abs format (unit mm)*
G04 Created by KiCad (PCBNEW 4.0.7) date Tue May  1 23:41:33 2018*
%MOMM*%
%LPD*%
G01*
G04 APERTURE LIST*
%ADD10C,0.100000*%
%ADD11C,1.800000*%
%ADD12R,1.800000X1.800000*%
%ADD13C,1.924000*%
%ADD14O,1.800000X1.800000*%
%ADD15C,4.800000*%
G04 APERTURE END LIST*
D10*
D11*
X167640000Y-68580000D03*
X167640000Y-71120000D03*
X203200000Y-106680000D03*
X203200000Y-104140000D03*
D12*
X203200000Y-109220000D03*
D11*
X203200000Y-88900000D03*
X203200000Y-86360000D03*
D12*
X203200000Y-91440000D03*
D13*
X208280000Y-78740000D03*
X208280000Y-81280000D03*
X205740000Y-81280000D03*
X205740000Y-78740000D03*
D11*
X152400000Y-83820000D03*
D14*
X152400000Y-78740000D03*
D11*
X207010000Y-147320000D03*
D14*
X207010000Y-152400000D03*
D11*
X207010000Y-154940000D03*
D14*
X201930000Y-154940000D03*
D11*
X193040000Y-154940000D03*
D14*
X198120000Y-154940000D03*
D11*
X189230000Y-154940000D03*
D14*
X184150000Y-154940000D03*
D11*
X207010000Y-144780000D03*
D14*
X207010000Y-139700000D03*
D11*
X182880000Y-144780000D03*
D14*
X182880000Y-139700000D03*
D11*
X207010000Y-129540000D03*
D14*
X207010000Y-134620000D03*
D11*
X207010000Y-137160000D03*
D14*
X201930000Y-137160000D03*
D11*
X193040000Y-137160000D03*
D14*
X198120000Y-137160000D03*
D11*
X187960000Y-137160000D03*
D14*
X182880000Y-137160000D03*
D11*
X207010000Y-127000000D03*
D14*
X207010000Y-121920000D03*
D11*
X182880000Y-127000000D03*
D14*
X182880000Y-121920000D03*
D11*
X207010000Y-111760000D03*
D14*
X207010000Y-116840000D03*
D11*
X207010000Y-119380000D03*
D14*
X201930000Y-119380000D03*
D11*
X193040000Y-119380000D03*
D14*
X198120000Y-119380000D03*
D11*
X187960000Y-119380000D03*
D14*
X182880000Y-119380000D03*
D11*
X207010000Y-109220000D03*
D14*
X207010000Y-104140000D03*
D11*
X182880000Y-109220000D03*
D14*
X182880000Y-104140000D03*
D11*
X207010000Y-93980000D03*
D14*
X207010000Y-99060000D03*
D11*
X207010000Y-101600000D03*
D14*
X201930000Y-101600000D03*
D11*
X193040000Y-101600000D03*
D14*
X198120000Y-101600000D03*
D11*
X187960000Y-101600000D03*
D14*
X182880000Y-101600000D03*
D11*
X207010000Y-91440000D03*
D14*
X207010000Y-86360000D03*
D11*
X182880000Y-91440000D03*
D14*
X182880000Y-86360000D03*
D11*
X176530000Y-147320000D03*
D14*
X176530000Y-152400000D03*
D11*
X176530000Y-154940000D03*
D14*
X171450000Y-154940000D03*
D11*
X162560000Y-154940000D03*
D14*
X167640000Y-154940000D03*
D11*
X157480000Y-154940000D03*
D14*
X152400000Y-154940000D03*
D11*
X176530000Y-144780000D03*
D14*
X176530000Y-139700000D03*
D11*
X152400000Y-144780000D03*
D14*
X152400000Y-139700000D03*
D11*
X176530000Y-129540000D03*
D14*
X176530000Y-134620000D03*
D11*
X176530000Y-137160000D03*
D14*
X171450000Y-137160000D03*
D11*
X162560000Y-137160000D03*
D14*
X167640000Y-137160000D03*
D11*
X157480000Y-137160000D03*
D14*
X152400000Y-137160000D03*
D11*
X176530000Y-127000000D03*
D14*
X176530000Y-121920000D03*
D11*
X152400000Y-127000000D03*
D14*
X152400000Y-121920000D03*
D11*
X176530000Y-111760000D03*
D14*
X176530000Y-116840000D03*
D11*
X176530000Y-119380000D03*
D14*
X171450000Y-119380000D03*
D11*
X162560000Y-119380000D03*
D14*
X167640000Y-119380000D03*
D11*
X157480000Y-119380000D03*
D14*
X152400000Y-119380000D03*
D11*
X176530000Y-109220000D03*
D14*
X176530000Y-104140000D03*
D11*
X152400000Y-109220000D03*
D14*
X152400000Y-104140000D03*
D11*
X176530000Y-93980000D03*
D14*
X176530000Y-99060000D03*
D11*
X176530000Y-101600000D03*
D14*
X171450000Y-101600000D03*
D11*
X162560000Y-101600000D03*
D14*
X167640000Y-101600000D03*
D11*
X157480000Y-101600000D03*
D14*
X152400000Y-101600000D03*
D11*
X176530000Y-91440000D03*
D14*
X176530000Y-86360000D03*
D11*
X152400000Y-91440000D03*
D14*
X152400000Y-86360000D03*
D11*
X198120000Y-88900000D03*
X198120000Y-86360000D03*
D12*
X198120000Y-91440000D03*
D11*
X157480000Y-88900000D03*
X157480000Y-86360000D03*
D12*
X157480000Y-91440000D03*
D11*
X162560000Y-88900000D03*
X162560000Y-86360000D03*
D12*
X162560000Y-91440000D03*
D11*
X167640000Y-88900000D03*
X167640000Y-86360000D03*
D12*
X167640000Y-91440000D03*
D11*
X172720000Y-88900000D03*
X172720000Y-86360000D03*
D12*
X172720000Y-91440000D03*
D11*
X152400000Y-96520000D03*
X152400000Y-99060000D03*
D12*
X152400000Y-93980000D03*
D11*
X157480000Y-96520000D03*
X157480000Y-99060000D03*
D12*
X157480000Y-93980000D03*
D11*
X162560000Y-96520000D03*
X162560000Y-99060000D03*
D12*
X162560000Y-93980000D03*
D11*
X167640000Y-96520000D03*
X167640000Y-99060000D03*
D12*
X167640000Y-93980000D03*
D11*
X172720000Y-96520000D03*
X172720000Y-99060000D03*
D12*
X172720000Y-93980000D03*
D11*
X157480000Y-106680000D03*
X157480000Y-104140000D03*
D12*
X157480000Y-109220000D03*
D11*
X162560000Y-106680000D03*
X162560000Y-104140000D03*
D12*
X162560000Y-109220000D03*
D11*
X167640000Y-106680000D03*
X167640000Y-104140000D03*
D12*
X167640000Y-109220000D03*
D11*
X172720000Y-106680000D03*
X172720000Y-104140000D03*
D12*
X172720000Y-109220000D03*
D11*
X152400000Y-114300000D03*
X152400000Y-116840000D03*
D12*
X152400000Y-111760000D03*
D11*
X157480000Y-114300000D03*
X157480000Y-116840000D03*
D12*
X157480000Y-111760000D03*
D11*
X162560000Y-114300000D03*
X162560000Y-116840000D03*
D12*
X162560000Y-111760000D03*
D11*
X167640000Y-114300000D03*
X167640000Y-116840000D03*
D12*
X167640000Y-111760000D03*
D11*
X172720000Y-114300000D03*
X172720000Y-116840000D03*
D12*
X172720000Y-111760000D03*
D11*
X157480000Y-124460000D03*
X157480000Y-121920000D03*
D12*
X157480000Y-127000000D03*
D11*
X162560000Y-124460000D03*
X162560000Y-121920000D03*
D12*
X162560000Y-127000000D03*
D11*
X167640000Y-124460000D03*
X167640000Y-121920000D03*
D12*
X167640000Y-127000000D03*
D11*
X172720000Y-124460000D03*
X172720000Y-121920000D03*
D12*
X172720000Y-127000000D03*
D11*
X152400000Y-132080000D03*
X152400000Y-134620000D03*
D12*
X152400000Y-129540000D03*
D11*
X157480000Y-132080000D03*
X157480000Y-134620000D03*
D12*
X157480000Y-129540000D03*
D11*
X162560000Y-132080000D03*
X162560000Y-134620000D03*
D12*
X162560000Y-129540000D03*
D11*
X167640000Y-132080000D03*
X167640000Y-134620000D03*
D12*
X167640000Y-129540000D03*
D11*
X172720000Y-132080000D03*
X172720000Y-134620000D03*
D12*
X172720000Y-129540000D03*
D11*
X157480000Y-142240000D03*
X157480000Y-139700000D03*
D12*
X157480000Y-144780000D03*
D11*
X162560000Y-142240000D03*
X162560000Y-139700000D03*
D12*
X162560000Y-144780000D03*
D11*
X167640000Y-142240000D03*
X167640000Y-139700000D03*
D12*
X167640000Y-144780000D03*
D11*
X172720000Y-142240000D03*
X172720000Y-139700000D03*
D12*
X172720000Y-144780000D03*
D11*
X152400000Y-149860000D03*
X152400000Y-152400000D03*
D12*
X152400000Y-147320000D03*
D11*
X157480000Y-149860000D03*
X157480000Y-152400000D03*
D12*
X157480000Y-147320000D03*
D11*
X162560000Y-149860000D03*
X162560000Y-152400000D03*
D12*
X162560000Y-147320000D03*
D11*
X167640000Y-149860000D03*
X167640000Y-152400000D03*
D12*
X167640000Y-147320000D03*
D11*
X172720000Y-149860000D03*
X172720000Y-152400000D03*
D12*
X172720000Y-147320000D03*
D11*
X187960000Y-88900000D03*
X187960000Y-86360000D03*
D12*
X187960000Y-91440000D03*
D11*
X193040000Y-88900000D03*
X193040000Y-86360000D03*
D12*
X193040000Y-91440000D03*
D11*
X182880000Y-96520000D03*
X182880000Y-99060000D03*
D12*
X182880000Y-93980000D03*
D11*
X187960000Y-96520000D03*
X187960000Y-99060000D03*
D12*
X187960000Y-93980000D03*
D11*
X193040000Y-96520000D03*
X193040000Y-99060000D03*
D12*
X193040000Y-93980000D03*
D11*
X198120000Y-96520000D03*
X198120000Y-99060000D03*
D12*
X198120000Y-93980000D03*
D11*
X203200000Y-96520000D03*
X203200000Y-99060000D03*
D12*
X203200000Y-93980000D03*
D11*
X187960000Y-106680000D03*
X187960000Y-104140000D03*
D12*
X187960000Y-109220000D03*
D11*
X193040000Y-106680000D03*
X193040000Y-104140000D03*
D12*
X193040000Y-109220000D03*
D11*
X198120000Y-106680000D03*
X198120000Y-104140000D03*
D12*
X198120000Y-109220000D03*
D11*
X182880000Y-114300000D03*
X182880000Y-116840000D03*
D12*
X182880000Y-111760000D03*
D11*
X187960000Y-114300000D03*
X187960000Y-116840000D03*
D12*
X187960000Y-111760000D03*
D11*
X193040000Y-114300000D03*
X193040000Y-116840000D03*
D12*
X193040000Y-111760000D03*
D11*
X198120000Y-114300000D03*
X198120000Y-116840000D03*
D12*
X198120000Y-111760000D03*
D11*
X203200000Y-114300000D03*
X203200000Y-116840000D03*
D12*
X203200000Y-111760000D03*
D11*
X187960000Y-124460000D03*
X187960000Y-121920000D03*
D12*
X187960000Y-127000000D03*
D11*
X193040000Y-124460000D03*
X193040000Y-121920000D03*
D12*
X193040000Y-127000000D03*
D11*
X198120000Y-124460000D03*
X198120000Y-121920000D03*
D12*
X198120000Y-127000000D03*
D11*
X203200000Y-124460000D03*
X203200000Y-121920000D03*
D12*
X203200000Y-127000000D03*
D11*
X182880000Y-132080000D03*
X182880000Y-134620000D03*
D12*
X182880000Y-129540000D03*
D11*
X187960000Y-132080000D03*
X187960000Y-134620000D03*
D12*
X187960000Y-129540000D03*
D11*
X193040000Y-132080000D03*
X193040000Y-134620000D03*
D12*
X193040000Y-129540000D03*
D11*
X198120000Y-132080000D03*
X198120000Y-134620000D03*
D12*
X198120000Y-129540000D03*
D11*
X203200000Y-132080000D03*
X203200000Y-134620000D03*
D12*
X203200000Y-129540000D03*
D11*
X187960000Y-142240000D03*
X187960000Y-139700000D03*
D12*
X187960000Y-144780000D03*
D11*
X193040000Y-142240000D03*
X193040000Y-139700000D03*
D12*
X193040000Y-144780000D03*
D11*
X198120000Y-142240000D03*
X198120000Y-139700000D03*
D12*
X198120000Y-144780000D03*
D11*
X203200000Y-142240000D03*
X203200000Y-139700000D03*
D12*
X203200000Y-144780000D03*
D11*
X182880000Y-149860000D03*
X182880000Y-152400000D03*
D12*
X182880000Y-147320000D03*
D11*
X187960000Y-149860000D03*
X187960000Y-152400000D03*
D12*
X187960000Y-147320000D03*
D11*
X193040000Y-149860000D03*
X193040000Y-152400000D03*
D12*
X193040000Y-147320000D03*
D11*
X198120000Y-149860000D03*
X198120000Y-152400000D03*
D12*
X198120000Y-147320000D03*
D11*
X203200000Y-149860000D03*
X203200000Y-152400000D03*
D12*
X203200000Y-147320000D03*
D11*
X157480000Y-81280000D03*
X157480000Y-83820000D03*
D12*
X157480000Y-78740000D03*
D11*
X170180000Y-68580000D03*
X172720000Y-68580000D03*
X175260000Y-68580000D03*
X177800000Y-68580000D03*
X180340000Y-68580000D03*
X182880000Y-68580000D03*
X185420000Y-68580000D03*
X187960000Y-68580000D03*
X187960000Y-71120000D03*
X185420000Y-71120000D03*
X182880000Y-71120000D03*
X180340000Y-71120000D03*
X177800000Y-71120000D03*
X175260000Y-71120000D03*
X172720000Y-71120000D03*
X170180000Y-71120000D03*
X190500000Y-68580000D03*
X193040000Y-68580000D03*
X195580000Y-68580000D03*
X198120000Y-68580000D03*
X200660000Y-68580000D03*
X203200000Y-68580000D03*
X205740000Y-68580000D03*
X208280000Y-68580000D03*
X208280000Y-71120000D03*
X205740000Y-71120000D03*
X203200000Y-71120000D03*
X200660000Y-71120000D03*
X198120000Y-71120000D03*
X195580000Y-71120000D03*
X193040000Y-71120000D03*
X190500000Y-71120000D03*
D15*
X165100000Y-78740000D03*
X195580000Y-78740000D03*
X180340000Y-154940000D03*
M02*
