M48
;DRILL file {KiCad 4.0.7} date Tue May  1 23:41:40 2018
;FORMAT={-:-/ absolute / inch / decimal}
FMAT,2
INCH,TZ
T1C0.016
T2C0.028
T3C0.030
T4C0.087
%
G90
G05
M72
T1
X7.05Y-3.225
T2
X6.Y-3.1
X6.Y-3.3
X6.Y-3.4
X6.Y-3.6
X6.Y-3.7
X6.Y-3.8
X6.Y-3.9
X6.Y-4.
X6.Y-4.1
X6.Y-4.3
X6.Y-4.4
X6.Y-4.5
X6.Y-4.6
X6.Y-4.7
X6.Y-4.8
X6.Y-5.
X6.Y-5.1
X6.Y-5.2
X6.Y-5.3
X6.Y-5.4
X6.Y-5.5
X6.Y-5.7
X6.Y-5.8
X6.Y-5.9
X6.Y-6.
X6.Y-6.1
X6.2Y-3.1
X6.2Y-3.2
X6.2Y-3.3
X6.2Y-3.4
X6.2Y-3.5
X6.2Y-3.6
X6.2Y-3.7
X6.2Y-3.8
X6.2Y-3.9
X6.2Y-4.
X6.2Y-4.1
X6.2Y-4.2
X6.2Y-4.3
X6.2Y-4.4
X6.2Y-4.5
X6.2Y-4.6
X6.2Y-4.7
X6.2Y-4.8
X6.2Y-4.9
X6.2Y-5.
X6.2Y-5.1
X6.2Y-5.2
X6.2Y-5.3
X6.2Y-5.4
X6.2Y-5.5
X6.2Y-5.6
X6.2Y-5.7
X6.2Y-5.8
X6.2Y-5.9
X6.2Y-6.
X6.2Y-6.1
X6.4Y-3.4
X6.4Y-3.5
X6.4Y-3.6
X6.4Y-3.7
X6.4Y-3.8
X6.4Y-3.9
X6.4Y-4.
X6.4Y-4.1
X6.4Y-4.2
X6.4Y-4.3
X6.4Y-4.4
X6.4Y-4.5
X6.4Y-4.6
X6.4Y-4.7
X6.4Y-4.8
X6.4Y-4.9
X6.4Y-5.
X6.4Y-5.1
X6.4Y-5.2
X6.4Y-5.3
X6.4Y-5.4
X6.4Y-5.5
X6.4Y-5.6
X6.4Y-5.7
X6.4Y-5.8
X6.4Y-5.9
X6.4Y-6.
X6.4Y-6.1
X6.6Y-2.7
X6.6Y-2.8
X6.6Y-3.4
X6.6Y-3.5
X6.6Y-3.6
X6.6Y-3.7
X6.6Y-3.8
X6.6Y-3.9
X6.6Y-4.
X6.6Y-4.1
X6.6Y-4.2
X6.6Y-4.3
X6.6Y-4.4
X6.6Y-4.5
X6.6Y-4.6
X6.6Y-4.7
X6.6Y-4.8
X6.6Y-4.9
X6.6Y-5.
X6.6Y-5.1
X6.6Y-5.2
X6.6Y-5.3
X6.6Y-5.4
X6.6Y-5.5
X6.6Y-5.6
X6.6Y-5.7
X6.6Y-5.8
X6.6Y-5.9
X6.6Y-6.
X6.6Y-6.1
X6.7Y-2.7
X6.7Y-2.8
X6.75Y-4.
X6.75Y-4.7
X6.75Y-5.4
X6.75Y-6.1
X6.8Y-2.7
X6.8Y-2.8
X6.8Y-3.4
X6.8Y-3.5
X6.8Y-3.6
X6.8Y-3.7
X6.8Y-3.8
X6.8Y-3.9
X6.8Y-4.1
X6.8Y-4.2
X6.8Y-4.3
X6.8Y-4.4
X6.8Y-4.5
X6.8Y-4.6
X6.8Y-4.8
X6.8Y-4.9
X6.8Y-5.
X6.8Y-5.1
X6.8Y-5.2
X6.8Y-5.3
X6.8Y-5.5
X6.8Y-5.6
X6.8Y-5.7
X6.8Y-5.8
X6.8Y-5.9
X6.8Y-6.
X6.9Y-2.7
X6.9Y-2.8
X6.95Y-3.4
X6.95Y-3.6
X6.95Y-3.7
X6.95Y-3.9
X6.95Y-4.
X6.95Y-4.1
X6.95Y-4.3
X6.95Y-4.4
X6.95Y-4.6
X6.95Y-4.7
X6.95Y-4.8
X6.95Y-5.
X6.95Y-5.1
X6.95Y-5.3
X6.95Y-5.4
X6.95Y-5.5
X6.95Y-5.7
X6.95Y-5.8
X6.95Y-6.
X6.95Y-6.1
X7.Y-2.7
X7.Y-2.8
X7.1Y-2.7
X7.1Y-2.8
X7.2Y-2.7
X7.2Y-2.8
X7.2Y-3.4
X7.2Y-3.6
X7.2Y-3.7
X7.2Y-3.8
X7.2Y-3.9
X7.2Y-4.
X7.2Y-4.1
X7.2Y-4.3
X7.2Y-4.4
X7.2Y-4.5
X7.2Y-4.6
X7.2Y-4.7
X7.2Y-4.8
X7.2Y-5.
X7.2Y-5.1
X7.2Y-5.2
X7.2Y-5.3
X7.2Y-5.4
X7.2Y-5.5
X7.2Y-5.7
X7.2Y-5.8
X7.2Y-5.9
X7.2Y-6.
X7.25Y-6.1
X7.3Y-2.7
X7.3Y-2.8
X7.4Y-2.7
X7.4Y-2.8
X7.4Y-3.4
X7.4Y-3.5
X7.4Y-3.6
X7.4Y-3.7
X7.4Y-3.8
X7.4Y-3.9
X7.4Y-4.
X7.4Y-4.1
X7.4Y-4.2
X7.4Y-4.3
X7.4Y-4.4
X7.4Y-4.5
X7.4Y-4.6
X7.4Y-4.7
X7.4Y-4.8
X7.4Y-4.9
X7.4Y-5.
X7.4Y-5.1
X7.4Y-5.2
X7.4Y-5.3
X7.4Y-5.4
X7.4Y-5.5
X7.4Y-5.6
X7.4Y-5.7
X7.4Y-5.8
X7.4Y-5.9
X7.4Y-6.
X7.45Y-6.1
X7.5Y-2.7
X7.5Y-2.8
X7.6Y-2.7
X7.6Y-2.8
X7.6Y-3.4
X7.6Y-3.5
X7.6Y-3.6
X7.6Y-3.7
X7.6Y-3.8
X7.6Y-3.9
X7.6Y-4.
X7.6Y-4.1
X7.6Y-4.2
X7.6Y-4.3
X7.6Y-4.4
X7.6Y-4.5
X7.6Y-4.6
X7.6Y-4.7
X7.6Y-4.8
X7.6Y-4.9
X7.6Y-5.
X7.6Y-5.1
X7.6Y-5.2
X7.6Y-5.3
X7.6Y-5.4
X7.6Y-5.5
X7.6Y-5.6
X7.6Y-5.7
X7.6Y-5.8
X7.6Y-5.9
X7.6Y-6.
X7.6Y-6.1
X7.7Y-2.7
X7.7Y-2.8
X7.8Y-2.7
X7.8Y-2.8
X7.8Y-3.4
X7.8Y-3.5
X7.8Y-3.6
X7.8Y-3.7
X7.8Y-3.8
X7.8Y-3.9
X7.8Y-4.
X7.8Y-4.1
X7.8Y-4.2
X7.8Y-4.3
X7.8Y-4.4
X7.8Y-4.5
X7.8Y-4.6
X7.8Y-4.7
X7.8Y-4.8
X7.8Y-4.9
X7.8Y-5.
X7.8Y-5.1
X7.8Y-5.2
X7.8Y-5.3
X7.8Y-5.4
X7.8Y-5.5
X7.8Y-5.6
X7.8Y-5.7
X7.8Y-5.8
X7.8Y-5.9
X7.8Y-6.
X7.8Y-6.1
X7.9Y-2.7
X7.9Y-2.8
X7.95Y-4.
X7.95Y-4.7
X7.95Y-5.4
X7.95Y-6.1
X8.Y-2.7
X8.Y-2.8
X8.Y-3.4
X8.Y-3.5
X8.Y-3.6
X8.Y-3.7
X8.Y-3.8
X8.Y-3.9
X8.Y-4.1
X8.Y-4.2
X8.Y-4.3
X8.Y-4.4
X8.Y-4.5
X8.Y-4.6
X8.Y-4.8
X8.Y-4.9
X8.Y-5.
X8.Y-5.1
X8.Y-5.2
X8.Y-5.3
X8.Y-5.5
X8.Y-5.6
X8.Y-5.7
X8.Y-5.8
X8.Y-5.9
X8.Y-6.
X8.1Y-2.7
X8.1Y-2.8
X8.15Y-3.4
X8.15Y-3.6
X8.15Y-3.7
X8.15Y-3.9
X8.15Y-4.
X8.15Y-4.1
X8.15Y-4.3
X8.15Y-4.4
X8.15Y-4.6
X8.15Y-4.7
X8.15Y-4.8
X8.15Y-5.
X8.15Y-5.1
X8.15Y-5.3
X8.15Y-5.4
X8.15Y-5.5
X8.15Y-5.7
X8.15Y-5.8
X8.15Y-6.
X8.15Y-6.1
X8.2Y-2.7
X8.2Y-2.8
T3
X8.1Y-3.1
X8.1Y-3.2
X8.2Y-3.1
X8.2Y-3.2
T4
X6.5Y-3.1
X7.1Y-6.1
X7.7Y-3.1
T0
M30
